%TF.GenerationSoftware,Altium Limited,Altium Designer,22.5.1 (42)*%
G04 Layer_Physical_Order=4*
G04 Layer_Color=15441517*
%FSLAX45Y45*%
%MOMM*%
%TF.SameCoordinates,09306DCC-7258-43E0-A79C-DC35209E08F8*%
%TF.FilePolarity,Positive*%
%TF.FileFunction,Copper,L4,Bot,Signal*%
%TF.Part,Single*%
G01*
G75*
%TA.AperFunction,Conductor*%
%ADD11C,0.12700*%
%ADD12C,0.50800*%
%TA.AperFunction,SMDPad,CuDef*%
%ADD15R,0.60000X0.55000*%
%ADD16R,0.55000X0.60000*%
%ADD25R,0.60000X0.60000*%
%ADD27R,0.60000X0.60000*%
%TA.AperFunction,Conductor*%
%ADD83C,0.25400*%
%ADD84C,0.20320*%
%ADD92C,1.27000*%
%TA.AperFunction,ComponentPad*%
%ADD98C,2.00000*%
%ADD99R,2.00000X2.00000*%
%ADD100C,1.10000*%
G04:AMPARAMS|DCode=101|XSize=2.2mm|YSize=2.2mm|CornerRadius=0.22mm|HoleSize=0mm|Usage=FLASHONLY|Rotation=180.000|XOffset=0mm|YOffset=0mm|HoleType=Round|Shape=RoundedRectangle|*
%AMROUNDEDRECTD101*
21,1,2.20000,1.76000,0,0,180.0*
21,1,1.76000,2.20000,0,0,180.0*
1,1,0.44000,-0.88000,0.88000*
1,1,0.44000,0.88000,0.88000*
1,1,0.44000,0.88000,-0.88000*
1,1,0.44000,-0.88000,-0.88000*
%
%ADD101ROUNDEDRECTD101*%
G04:AMPARAMS|DCode=102|XSize=2.2mm|YSize=1.2mm|CornerRadius=0.6mm|HoleSize=0mm|Usage=FLASHONLY|Rotation=180.000|XOffset=0mm|YOffset=0mm|HoleType=Round|Shape=RoundedRectangle|*
%AMROUNDEDRECTD102*
21,1,2.20000,0.00000,0,0,180.0*
21,1,1.00000,1.20000,0,0,180.0*
1,1,1.20000,-0.50000,0.00000*
1,1,1.20000,0.50000,0.00000*
1,1,1.20000,0.50000,0.00000*
1,1,1.20000,-0.50000,0.00000*
%
%ADD102ROUNDEDRECTD102*%
G04:AMPARAMS|DCode=103|XSize=2.2mm|YSize=1.2mm|CornerRadius=0.6mm|HoleSize=0mm|Usage=FLASHONLY|Rotation=90.000|XOffset=0mm|YOffset=0mm|HoleType=Round|Shape=RoundedRectangle|*
%AMROUNDEDRECTD103*
21,1,2.20000,0.00000,0,0,90.0*
21,1,1.00000,1.20000,0,0,90.0*
1,1,1.20000,0.00000,0.50000*
1,1,1.20000,0.00000,-0.50000*
1,1,1.20000,0.00000,-0.50000*
1,1,1.20000,0.00000,0.50000*
%
%ADD103ROUNDEDRECTD103*%
%TA.AperFunction,ViaPad*%
%ADD104C,6.50000*%
%TA.AperFunction,ComponentPad*%
%ADD105C,4.00000*%
%ADD106C,0.65000*%
%TA.AperFunction,ViaPad*%
%ADD107C,0.46000*%
%ADD108C,0.66000*%
%TA.AperFunction,Conductor*%
%ADD111C,0.88900*%
%ADD112C,2.54000*%
%ADD113R,2.99991X0.97000*%
%ADD114R,2.96238X2.06309*%
%ADD115R,2.06309X2.96238*%
%ADD116R,2.00000X2.00000*%
%ADD117R,1.57503X2.50000*%
G36*
X1489419Y5031729D02*
X1552253Y5016644D01*
X1611953Y4991916D01*
X1667049Y4958152D01*
X1716186Y4916186D01*
X1758152Y4867049D01*
X1791916Y4811953D01*
X1816644Y4752253D01*
X1831729Y4689419D01*
X1835803Y4637663D01*
X1835637Y4625000D01*
X1835637D01*
X1840285Y4518542D01*
X1854194Y4412894D01*
X1877258Y4308861D01*
X1909301Y4207233D01*
X1950079Y4108785D01*
X1999283Y4014266D01*
X2056537Y3924395D01*
X2121406Y3839856D01*
X2193397Y3761292D01*
X2193450Y3761345D01*
X2230606Y3724188D01*
X2232601Y3723362D01*
X2291816Y3658028D01*
X2345532Y3585601D01*
X2391890Y3508258D01*
X2430443Y3426743D01*
X2460822Y3341841D01*
X2482732Y3254371D01*
X2495963Y3165175D01*
X2500289Y3077106D01*
X2499463Y3075111D01*
Y3000000D01*
X2499462Y1013750D01*
X2500325Y1011667D01*
X2495874Y909706D01*
X2482280Y806454D01*
X2459739Y704779D01*
X2428423Y605456D01*
X2388569Y509240D01*
X2340481Y416864D01*
X2284525Y329031D01*
X2221127Y246409D01*
X2152177Y171163D01*
X2150095Y170301D01*
X2043449Y63655D01*
X2043396Y63709D01*
X1971406Y-14855D01*
X1906537Y-99395D01*
X1849282Y-189266D01*
X1800079Y-283785D01*
X1759300Y-382233D01*
X1727257Y-483861D01*
X1704193Y-587894D01*
X1690285Y-693542D01*
X1685637Y-800000D01*
X1685712D01*
X1685712Y-800000D01*
Y-5200000D01*
X1685765Y-5200128D01*
X1689920Y-5284711D01*
X1702365Y-5368605D01*
X1705665Y-5381781D01*
X1693573Y-5385776D01*
X1688743Y-5374113D01*
X1675887Y-5361257D01*
X1659090Y-5354300D01*
X1640910D01*
X1624113Y-5361257D01*
X1611257Y-5374113D01*
X1606873Y-5384697D01*
X1593127D01*
X1588743Y-5374113D01*
X1575887Y-5361257D01*
X1559090Y-5354300D01*
X1540910D01*
X1524113Y-5361257D01*
X1511257Y-5374113D01*
X1506873Y-5384697D01*
X1493127D01*
X1488743Y-5374113D01*
X1475887Y-5361257D01*
X1459090Y-5354300D01*
X1440909D01*
X1424113Y-5361257D01*
X1411257Y-5374113D01*
X1404300Y-5390909D01*
Y-5409090D01*
X1411257Y-5425887D01*
X1424113Y-5438742D01*
X1434697Y-5443127D01*
Y-5456873D01*
X1424113Y-5461257D01*
X1411257Y-5474113D01*
X1404300Y-5490910D01*
Y-5509090D01*
X1409245Y-5521030D01*
X1398479Y-5528224D01*
X1379933Y-5509678D01*
Y-2901301D01*
X1379933Y-2901299D01*
X1378455Y-2893866D01*
X1374244Y-2887565D01*
X1290619Y-2803939D01*
Y-416614D01*
X1289140Y-409181D01*
X1284930Y-402880D01*
X319423Y562627D01*
Y2491955D01*
X364235Y2536767D01*
X368446Y2543068D01*
X369924Y2550501D01*
Y3576432D01*
X376388Y3579109D01*
X389244Y3591965D01*
X396201Y3608761D01*
Y3626942D01*
X389244Y3643739D01*
X376388Y3656594D01*
X359591Y3663552D01*
X341411D01*
X324614Y3656594D01*
X311758Y3643739D01*
X304801Y3626942D01*
Y3608761D01*
X311758Y3591965D01*
X324614Y3579109D01*
X331078Y3576432D01*
Y3473394D01*
X326381Y3470132D01*
X318378Y3466903D01*
X307357Y3471467D01*
X293155D01*
X280034Y3466032D01*
X269991Y3455990D01*
X264556Y3442868D01*
Y3434449D01*
X251856Y3429189D01*
X174693Y3506352D01*
Y3694452D01*
X241288Y3761046D01*
X340987D01*
X350501Y3757106D01*
X650493D01*
X660213Y3761132D01*
X664239Y3770852D01*
Y3867852D01*
X660213Y3877573D01*
X650493Y3881599D01*
X350501D01*
X340812Y3877586D01*
X217151D01*
X194853Y3873150D01*
X175949Y3860519D01*
X91446Y3776017D01*
X77943Y3774239D01*
X59407Y3766561D01*
X43489Y3754347D01*
X31275Y3738429D01*
X23597Y3719892D01*
X20978Y3700000D01*
Y3474516D01*
X23597Y3454624D01*
X31275Y3436087D01*
X43489Y3420170D01*
X173644Y3290015D01*
Y2982337D01*
X17763Y2826457D01*
X5549Y2810539D01*
X3605Y2805845D01*
X-9095Y2808371D01*
Y3249104D01*
X3605Y3254364D01*
X10453Y3247516D01*
X27203Y3240578D01*
X27251Y3240556D01*
X34634Y3227859D01*
X30912Y3218873D01*
Y3200692D01*
X37870Y3183896D01*
X50725Y3171040D01*
X67522Y3164083D01*
X85703D01*
X102499Y3171040D01*
X115355Y3183896D01*
X122312Y3200692D01*
Y3218873D01*
X115355Y3235669D01*
X102499Y3248525D01*
X85749Y3255463D01*
X85701Y3255485D01*
X78318Y3268183D01*
X82040Y3277168D01*
Y3295349D01*
X75083Y3312146D01*
X62227Y3325001D01*
X45430Y3331959D01*
X27250D01*
X10453Y3325001D01*
X3605Y3318153D01*
X-9095Y3323414D01*
Y3779944D01*
X-3763D01*
X5957Y3783970D01*
X9983Y3793691D01*
Y4000000D01*
X5957Y4009720D01*
X-3763Y4013746D01*
X-300001D01*
X-309721Y4009720D01*
X-313747Y4000000D01*
Y3793691D01*
X-309721Y3783970D01*
X-300001Y3779944D01*
X-290906D01*
Y70055D01*
X-296237D01*
X-305958Y66029D01*
X-309984Y56309D01*
Y-150000D01*
X-305958Y-159720D01*
X-296237Y-163746D01*
X-175897D01*
Y-389273D01*
X-285065Y-498440D01*
X-1474337D01*
X-1484248Y-500411D01*
X-1492650Y-506025D01*
X-1610820Y-624195D01*
X-1622553Y-619335D01*
Y-576892D01*
X-1453678Y-408016D01*
X-919170D01*
X-904304Y-405059D01*
X-891702Y-396639D01*
X-632531Y-137468D01*
X-624111Y-124866D01*
X-621153Y-110000D01*
Y590860D01*
X-597958Y595474D01*
X-559249Y611508D01*
X-524412Y634785D01*
X-494785Y664412D01*
X-471508Y699249D01*
X-455474Y737958D01*
X-447300Y779051D01*
Y820949D01*
X-455474Y862042D01*
X-471508Y900751D01*
X-494785Y935588D01*
X-524412Y965215D01*
X-559249Y988492D01*
X-597958Y1004526D01*
X-639051Y1012700D01*
X-680949D01*
X-722042Y1004526D01*
X-760751Y988492D01*
X-795588Y965215D01*
X-825215Y935588D01*
X-848492Y900751D01*
X-864526Y862042D01*
X-872700Y820949D01*
Y779051D01*
X-864526Y737958D01*
X-848492Y699249D01*
X-825215Y664412D01*
X-795588Y634785D01*
X-760751Y611508D01*
X-722042Y595474D01*
X-698846Y590860D01*
Y-93909D01*
X-935261Y-330323D01*
X-1469768D01*
X-1484634Y-333281D01*
X-1497237Y-341701D01*
X-1688868Y-533333D01*
X-1697289Y-545935D01*
X-1698801Y-553539D01*
X-1711778Y-553680D01*
X-1727257Y-483861D01*
X-1759300Y-382233D01*
X-1800079Y-283785D01*
X-1849282Y-189266D01*
X-1906537Y-99395D01*
X-1971406Y-14855D01*
X-2043396Y63709D01*
X-2043449Y63655D01*
X-2150095Y170301D01*
X-2152177Y171163D01*
X-2221127Y246409D01*
X-2284525Y329031D01*
X-2340481Y416864D01*
X-2388569Y509240D01*
X-2428423Y605456D01*
X-2459739Y704779D01*
X-2482280Y806454D01*
X-2495874Y909706D01*
X-2500325Y1011667D01*
X-2499462Y1013750D01*
X-2499463Y3000000D01*
Y3075111D01*
X-2500289Y3077106D01*
X-2495963Y3165175D01*
X-2482732Y3254371D01*
X-2460822Y3341841D01*
X-2430443Y3426743D01*
X-2391890Y3508258D01*
X-2345532Y3585601D01*
X-2291816Y3658028D01*
X-2232601Y3723362D01*
X-2230606Y3724188D01*
X-2193450Y3761345D01*
X-2193397Y3761292D01*
X-2121406Y3839856D01*
X-2056537Y3924395D01*
X-1999283Y4014266D01*
X-1950079Y4108785D01*
X-1909301Y4207233D01*
X-1877258Y4308861D01*
X-1854194Y4412894D01*
X-1840285Y4518542D01*
X-1835637Y4625000D01*
X-1835637D01*
X-1835803Y4637663D01*
X-1831729Y4689419D01*
X-1816644Y4752253D01*
X-1791916Y4811953D01*
X-1758152Y4867049D01*
X-1716186Y4916186D01*
X-1667049Y4958152D01*
X-1611953Y4991916D01*
X-1552253Y5016644D01*
X-1489419Y5031729D01*
X-1427205Y5036626D01*
X-1425000Y5035712D01*
X1425000D01*
X1427205Y5036626D01*
X1489419Y5031729D01*
D02*
G37*
G36*
X5549Y1889461D02*
X17763Y1873543D01*
X73142Y1818165D01*
Y-270197D01*
X-329803Y-673142D01*
X-979944D01*
Y-603762D01*
X-983971Y-594042D01*
X-993691Y-590016D01*
X-1200000D01*
X-1209720Y-594042D01*
X-1213746Y-603762D01*
Y-805054D01*
X-1333033Y-924340D01*
X-1367124D01*
X-1387016Y-926958D01*
X-1405553Y-934636D01*
X-1421470Y-946851D01*
X-1571934Y-1097314D01*
X-1572002Y-1097403D01*
X-1584702Y-1093092D01*
Y-671327D01*
X-1463610Y-550235D01*
X-274338D01*
X-264427Y-548264D01*
X-256025Y-542650D01*
X-131687Y-418312D01*
X-126073Y-409910D01*
X-124102Y-400000D01*
Y-163746D01*
X0D01*
X9721Y-159720D01*
X13747Y-150000D01*
Y56309D01*
X9721Y66029D01*
X0Y70055D01*
X-9095D01*
Y1891629D01*
X3605Y1894155D01*
X5549Y1889461D01*
D02*
G37*
G36*
X331078Y2912722D02*
Y2558547D01*
X286266Y2513734D01*
X282055Y2507433D01*
X280577Y2500000D01*
Y554582D01*
X282055Y547149D01*
X286266Y540847D01*
X1251772Y-424660D01*
Y-2811985D01*
X1253251Y-2819418D01*
X1257461Y-2825719D01*
X1335466Y-2903724D01*
X1334493Y-2909062D01*
X1333565Y-2910132D01*
X1320337Y-2915898D01*
X1309592Y-2911447D01*
X1291411D01*
X1274614Y-2918405D01*
X1261759Y-2931260D01*
X1254801Y-2948057D01*
Y-2966238D01*
X1261759Y-2983034D01*
X1274614Y-2995890D01*
X1291411Y-3002847D01*
X1309592D01*
X1326388Y-2995890D01*
X1328387Y-2993891D01*
X1341087Y-2999152D01*
Y-3115143D01*
X1328387Y-3120404D01*
X1326389Y-3118406D01*
X1309593Y-3111449D01*
X1291412D01*
X1274615Y-3118406D01*
X1261760Y-3131262D01*
X1254802Y-3148058D01*
Y-3166239D01*
X1261760Y-3183036D01*
X1274615Y-3195891D01*
X1291412Y-3202849D01*
X1309593D01*
X1326389Y-3195891D01*
X1328387Y-3193894D01*
X1341087Y-3199154D01*
Y-3315143D01*
X1328387Y-3320404D01*
X1326388Y-3318405D01*
X1309592Y-3311448D01*
X1291411D01*
X1274614Y-3318405D01*
X1261759Y-3331261D01*
X1254801Y-3348057D01*
Y-3366238D01*
X1261759Y-3383034D01*
X1274614Y-3395890D01*
X1291411Y-3402847D01*
X1309592D01*
X1326388Y-3395890D01*
X1328387Y-3393891D01*
X1341087Y-3399152D01*
Y-3515143D01*
X1328387Y-3520403D01*
X1326388Y-3518405D01*
X1309592Y-3511447D01*
X1291411D01*
X1274614Y-3518405D01*
X1261759Y-3531260D01*
X1254801Y-3548057D01*
Y-3566238D01*
X1261759Y-3583034D01*
X1274614Y-3595890D01*
X1291411Y-3602847D01*
X1309592D01*
X1326388Y-3595890D01*
X1328387Y-3593891D01*
X1341087Y-3599152D01*
Y-3715143D01*
X1328387Y-3720404D01*
X1326388Y-3718405D01*
X1309592Y-3711447D01*
X1291411D01*
X1274614Y-3718405D01*
X1261759Y-3731261D01*
X1254801Y-3748057D01*
Y-3766238D01*
X1261759Y-3783034D01*
X1274614Y-3795890D01*
X1291411Y-3802847D01*
X1309592D01*
X1326388Y-3795890D01*
X1328387Y-3793891D01*
X1341087Y-3799152D01*
Y-3915143D01*
X1328387Y-3920403D01*
X1326388Y-3918405D01*
X1309592Y-3911447D01*
X1291411D01*
X1274614Y-3918405D01*
X1261759Y-3931260D01*
X1254801Y-3948057D01*
Y-3966238D01*
X1261759Y-3983034D01*
X1274614Y-3995890D01*
X1291411Y-4002847D01*
X1309592D01*
X1326388Y-3995890D01*
X1328387Y-3993891D01*
X1341087Y-3999152D01*
Y-4115143D01*
X1328387Y-4120404D01*
X1326388Y-4118405D01*
X1309592Y-4111448D01*
X1291411D01*
X1274614Y-4118405D01*
X1261759Y-4131261D01*
X1254801Y-4148057D01*
Y-4166238D01*
X1261759Y-4183035D01*
X1274614Y-4195890D01*
X1291411Y-4202848D01*
X1309592D01*
X1326388Y-4195890D01*
X1328387Y-4193892D01*
X1341087Y-4199152D01*
Y-4315143D01*
X1328387Y-4320404D01*
X1326388Y-4318405D01*
X1309592Y-4311448D01*
X1291411D01*
X1274614Y-4318405D01*
X1261759Y-4331261D01*
X1254801Y-4348057D01*
Y-4366238D01*
X1261759Y-4383034D01*
X1274614Y-4395890D01*
X1291411Y-4402847D01*
X1309592D01*
X1326388Y-4395890D01*
X1328387Y-4393891D01*
X1341087Y-4399152D01*
Y-4515143D01*
X1328387Y-4520403D01*
X1326388Y-4518405D01*
X1309592Y-4511447D01*
X1291411D01*
X1274614Y-4518405D01*
X1261759Y-4531260D01*
X1254801Y-4548057D01*
Y-4566238D01*
X1261759Y-4583034D01*
X1274614Y-4595890D01*
X1291411Y-4602847D01*
X1309592D01*
X1326388Y-4595890D01*
X1328387Y-4593891D01*
X1341087Y-4599152D01*
Y-4715143D01*
X1328387Y-4720404D01*
X1326388Y-4718405D01*
X1309592Y-4711448D01*
X1291411D01*
X1274614Y-4718405D01*
X1261759Y-4731261D01*
X1254801Y-4748057D01*
Y-4766238D01*
X1261759Y-4783034D01*
X1274614Y-4795890D01*
X1291411Y-4802847D01*
X1309592D01*
X1326388Y-4795890D01*
X1328387Y-4793891D01*
X1341087Y-4799152D01*
Y-4915143D01*
X1328387Y-4920403D01*
X1326388Y-4918405D01*
X1309592Y-4911447D01*
X1291411D01*
X1274614Y-4918405D01*
X1261759Y-4931260D01*
X1254801Y-4948057D01*
Y-4966238D01*
X1261759Y-4983034D01*
X1274614Y-4995890D01*
X1291411Y-5002847D01*
X1309592D01*
X1326388Y-4995890D01*
X1328387Y-4993891D01*
X1341087Y-4999152D01*
Y-5115143D01*
X1328387Y-5120404D01*
X1326388Y-5118405D01*
X1309592Y-5111447D01*
X1291411D01*
X1274614Y-5118405D01*
X1261759Y-5131261D01*
X1254801Y-5148057D01*
Y-5166238D01*
X1261759Y-5183034D01*
X1274614Y-5195890D01*
X1291411Y-5202847D01*
X1309592D01*
X1326388Y-5195890D01*
X1328387Y-5193891D01*
X1341087Y-5199152D01*
Y-5315143D01*
X1328387Y-5320403D01*
X1326388Y-5318405D01*
X1309592Y-5311447D01*
X1291411D01*
X1274614Y-5318405D01*
X1261759Y-5331260D01*
X1254801Y-5348057D01*
Y-5366238D01*
X1261759Y-5383034D01*
X1274614Y-5395890D01*
X1291411Y-5402847D01*
X1309592D01*
X1326388Y-5395890D01*
X1328387Y-5393891D01*
X1341087Y-5399152D01*
Y-5517724D01*
X1342566Y-5525157D01*
X1346776Y-5531458D01*
X1400084Y-5584766D01*
X1400084Y-5584766D01*
X1406386Y-5588977D01*
X1413819Y-5590455D01*
X1574078D01*
X1779043Y-5795420D01*
Y-6168174D01*
X1780521Y-6175607D01*
X1784732Y-6181908D01*
X2158022Y-6555198D01*
X2164323Y-6559408D01*
X2171756Y-6560887D01*
X2302291D01*
X2397994Y-6656590D01*
X2404295Y-6660800D01*
X2411728Y-6662279D01*
X2849669D01*
X2850000Y-6663078D01*
X2860043Y-6673121D01*
X2873164Y-6678555D01*
X2876015D01*
X2881276Y-6691255D01*
X2791954Y-6780577D01*
X2267724D01*
X2117628Y-6630481D01*
X2111327Y-6626271D01*
X2103894Y-6624792D01*
X1352261D01*
X763735Y-6036266D01*
X757433Y-6032055D01*
X750000Y-6030577D01*
X-491955D01*
X-656977Y-5865554D01*
X-654300Y-5859091D01*
Y-5840910D01*
X-661257Y-5824113D01*
X-674113Y-5811258D01*
X-690909Y-5804300D01*
X-700067D01*
X-709128Y-5804138D01*
X-711800Y-5792567D01*
Y-5785910D01*
X-718757Y-5769113D01*
X-731613Y-5756258D01*
X-748409Y-5749300D01*
X-766590D01*
X-783387Y-5756258D01*
X-796243Y-5769113D01*
X-803200Y-5785910D01*
Y-5804091D01*
X-796243Y-5820887D01*
X-783387Y-5833743D01*
X-766590Y-5840700D01*
X-757433D01*
X-748372Y-5840862D01*
X-745700Y-5852434D01*
Y-5859091D01*
X-738742Y-5875887D01*
X-725887Y-5888743D01*
X-709090Y-5895700D01*
X-690909D01*
X-684446Y-5893023D01*
X-513734Y-6063734D01*
X-507433Y-6067945D01*
X-500000Y-6069423D01*
X741955D01*
X1330481Y-6657949D01*
X1330481Y-6657950D01*
X1336783Y-6662160D01*
X1344215Y-6663639D01*
X1344217Y-6663638D01*
X2095849D01*
X2245945Y-6813734D01*
X2252246Y-6817945D01*
X2259679Y-6819423D01*
X2800000D01*
X2807433Y-6817945D01*
X2813734Y-6813734D01*
X2908045Y-6719423D01*
X3257300D01*
Y-6740200D01*
X3342700D01*
Y-6659800D01*
X3257300D01*
Y-6680577D01*
X2910992D01*
X2905731Y-6667877D01*
X2910530Y-6663078D01*
X2915965Y-6649956D01*
Y-6635754D01*
X2910530Y-6622633D01*
X2900488Y-6612590D01*
X2887366Y-6607155D01*
X2873164D01*
X2860043Y-6612590D01*
X2850000Y-6622633D01*
X2849669Y-6623432D01*
X2419773D01*
X2324070Y-6527729D01*
X2317769Y-6523519D01*
X2310336Y-6522040D01*
X2179801D01*
X1817889Y-6160128D01*
Y-5787375D01*
X1816411Y-5779942D01*
X1812200Y-5773641D01*
X1595857Y-5557298D01*
X1589556Y-5553087D01*
X1582123Y-5551609D01*
X1578012D01*
X1575485Y-5538909D01*
X1575887Y-5538743D01*
X1588743Y-5525887D01*
X1593127Y-5515302D01*
X1606873D01*
X1611257Y-5525887D01*
X1624113Y-5538743D01*
X1640910Y-5545700D01*
X1659090D01*
X1675887Y-5538743D01*
X1688743Y-5525887D01*
X1695700Y-5509090D01*
Y-5490910D01*
X1688743Y-5474113D01*
X1675887Y-5461257D01*
X1665302Y-5456873D01*
Y-5443127D01*
X1675887Y-5438742D01*
X1688743Y-5425887D01*
X1695700Y-5409090D01*
Y-5394265D01*
X1708400Y-5392699D01*
X1722973Y-5450876D01*
X1751545Y-5530731D01*
X1787807Y-5607401D01*
X1831410Y-5680147D01*
X1881932Y-5748269D01*
X1938889Y-5811111D01*
X2001731Y-5868068D01*
X2069853Y-5918590D01*
X2142599Y-5962193D01*
X2219269Y-5998455D01*
X2299124Y-6027027D01*
X2381395Y-6047635D01*
X2465289Y-6060080D01*
X2549872Y-6064235D01*
X2550000Y-6064288D01*
X5700000D01*
X5701396Y-6063710D01*
X5736370Y-6067155D01*
X5771343Y-6077764D01*
X5803574Y-6094991D01*
X5831824Y-6118176D01*
X5855009Y-6146426D01*
X5872236Y-6178657D01*
X5882845Y-6213630D01*
X5886290Y-6248604D01*
X5885712Y-6250000D01*
Y-8340151D01*
X1084849D01*
X1000000Y-8425000D01*
Y-9085712D01*
X-5200000D01*
X-5201909Y-9086503D01*
X-5276876Y-9082293D01*
X-5352785Y-9069395D01*
X-5426773Y-9048080D01*
X-5497909Y-9018614D01*
X-5565298Y-8981369D01*
X-5628094Y-8936813D01*
X-5685507Y-8885506D01*
X-5736813Y-8828094D01*
X-5781369Y-8765298D01*
X-5818614Y-8697909D01*
X-5848080Y-8626773D01*
X-5869395Y-8552785D01*
X-5882293Y-8476876D01*
X-5886503Y-8401909D01*
X-5885712Y-8400000D01*
Y-6250000D01*
X-5886290Y-6248604D01*
X-5882845Y-6213630D01*
X-5872236Y-6178657D01*
X-5855009Y-6146426D01*
X-5831824Y-6118176D01*
X-5803574Y-6094991D01*
X-5771343Y-6077764D01*
X-5736370Y-6067155D01*
X-5701396Y-6063710D01*
X-5700000Y-6064288D01*
X-2550000D01*
X-2549872Y-6064235D01*
X-2465289Y-6060080D01*
X-2381395Y-6047635D01*
X-2299124Y-6027027D01*
X-2219269Y-5998455D01*
X-2142599Y-5962193D01*
X-2069853Y-5918590D01*
X-2031053Y-5889814D01*
X-2022735Y-5899457D01*
X-2284432Y-6161154D01*
X-2800000D01*
X-2814866Y-6164111D01*
X-2827469Y-6172531D01*
X-3127468Y-6472531D01*
X-3135889Y-6485134D01*
X-3138846Y-6500000D01*
Y-6988166D01*
X-3267907Y-7117227D01*
X-3280607Y-7111966D01*
Y-7106769D01*
X-3287564Y-7089972D01*
X-3300420Y-7077117D01*
X-3317217Y-7070159D01*
X-3335397D01*
X-3352194Y-7077117D01*
X-3365050Y-7089972D01*
X-3372007Y-7106769D01*
Y-7124950D01*
X-3365050Y-7141746D01*
X-3352194Y-7154602D01*
X-3335397Y-7161559D01*
X-3330200D01*
X-3324940Y-7174259D01*
X-3527469Y-7376788D01*
X-3535890Y-7389391D01*
X-3538847Y-7404257D01*
Y-7974364D01*
X-3545700Y-7990910D01*
Y-8009090D01*
X-3538743Y-8025887D01*
X-3525887Y-8038743D01*
X-3509091Y-8045700D01*
X-3490910D01*
X-3474113Y-8038743D01*
X-3461257Y-8025887D01*
X-3454300Y-8009090D01*
Y-7990910D01*
X-3461154Y-7974364D01*
Y-7420348D01*
X-3308860Y-7268054D01*
X-3299291Y-7276445D01*
X-3302431Y-7280538D01*
X-3308022Y-7286914D01*
X-3312733Y-7293964D01*
X-3327533Y-7313251D01*
X-3327778Y-7314168D01*
X-3328532Y-7314746D01*
X-3340687Y-7335800D01*
X-3345398Y-7342850D01*
X-3349148Y-7350454D01*
X-3361303Y-7371508D01*
X-3361427Y-7372450D01*
X-3362099Y-7373121D01*
X-3371402Y-7395580D01*
X-3375152Y-7403186D01*
X-3377878Y-7411215D01*
X-3387181Y-7433675D01*
Y-7434624D01*
X-3387759Y-7435378D01*
X-3394052Y-7458863D01*
X-3396777Y-7466889D01*
X-3398430Y-7475201D01*
X-3404723Y-7498688D01*
X-3404599Y-7499629D01*
X-3405074Y-7500452D01*
X-3408248Y-7524559D01*
X-3409901Y-7532870D01*
X-3410455Y-7541326D01*
X-3413629Y-7565434D01*
X-3413384Y-7566352D01*
X-3413747Y-7567229D01*
X-3413747Y-7591542D01*
X-3414301Y-7600000D01*
X-3413747Y-7608458D01*
X-3413747Y-7632772D01*
X-3413384Y-7633649D01*
X-3413629Y-7634566D01*
X-3410455Y-7658678D01*
X-3409901Y-7667130D01*
X-3408249Y-7675436D01*
X-3405074Y-7699549D01*
X-3404599Y-7700372D01*
X-3404723Y-7701313D01*
X-3398428Y-7724807D01*
X-3396777Y-7733111D01*
X-3394055Y-7741129D01*
X-3387760Y-7764624D01*
X-3387181Y-7765377D01*
Y-7766326D01*
X-3377874Y-7788796D01*
X-3375152Y-7796814D01*
X-3371407Y-7804409D01*
X-3362099Y-7826881D01*
X-3361428Y-7827552D01*
X-3361304Y-7828493D01*
X-3349141Y-7849559D01*
X-3345398Y-7857150D01*
X-3340695Y-7864188D01*
X-3328532Y-7885256D01*
X-3327779Y-7885834D01*
X-3327533Y-7886751D01*
X-3312724Y-7906049D01*
X-3308022Y-7913087D01*
X-3302441Y-7919451D01*
X-3287632Y-7938750D01*
X-3286810Y-7939224D01*
X-3286447Y-7940102D01*
X-3269246Y-7957303D01*
X-3263666Y-7963666D01*
X-3257303Y-7969246D01*
X-3240100Y-7986448D01*
X-3239223Y-7986812D01*
X-3238748Y-7987634D01*
X-3219448Y-8002443D01*
X-3213087Y-8008022D01*
X-3206049Y-8012725D01*
X-3186749Y-8027534D01*
X-3185832Y-8027779D01*
X-3185254Y-8028533D01*
X-3164191Y-8040694D01*
X-3157151Y-8045398D01*
X-3149556Y-8049143D01*
X-3128492Y-8061304D01*
X-3127550Y-8061428D01*
X-3126879Y-8062100D01*
X-3104409Y-8071407D01*
X-3096814Y-8075152D01*
X-3088795Y-8077875D01*
X-3066324Y-8087182D01*
X-3065375D01*
X-3064622Y-8087760D01*
X-3041130Y-8094054D01*
X-3033111Y-8096777D01*
X-3024804Y-8098429D01*
X-3001311Y-8104724D01*
X-3000370Y-8104600D01*
X-2999547Y-8105074D01*
X-2975438Y-8108248D01*
X-2967130Y-8109901D01*
X-2958675Y-8110455D01*
X-2934565Y-8113629D01*
X-2933648Y-8113384D01*
X-2932770Y-8113747D01*
X-2908458Y-8113747D01*
X-2900000Y-8114301D01*
X-2891543Y-8113747D01*
X-2867227Y-8113747D01*
X-2866350Y-8113384D01*
X-2865433Y-8113629D01*
X-2841313Y-8110454D01*
X-2832870Y-8109901D01*
X-2824576Y-8108251D01*
X-2800450Y-8105075D01*
X-2799628Y-8104601D01*
X-2798686Y-8104724D01*
X-2775173Y-8098424D01*
X-2766889Y-8096777D01*
X-2758892Y-8094062D01*
X-2735376Y-8087761D01*
X-2734623Y-8087183D01*
X-2733673D01*
X-2711177Y-8077865D01*
X-2703186Y-8075152D01*
X-2695618Y-8071420D01*
X-2673119Y-8062101D01*
X-2672448Y-8061430D01*
X-2671506Y-8061306D01*
X-2650413Y-8049128D01*
X-2642849Y-8045398D01*
X-2635838Y-8040713D01*
X-2614744Y-8028534D01*
X-2614166Y-8027781D01*
X-2613249Y-8027535D01*
X-2593922Y-8012705D01*
X-2586914Y-8008022D01*
X-2580577Y-8002465D01*
X-2561249Y-7987635D01*
X-2560775Y-7986813D01*
X-2559897Y-7986449D01*
X-2542672Y-7969224D01*
X-2536334Y-7963666D01*
X-2530777Y-7957329D01*
X-2513551Y-7940103D01*
X-2513188Y-7939226D01*
X-2512366Y-7938751D01*
X-2497536Y-7919425D01*
X-2491978Y-7913087D01*
X-2487294Y-7906077D01*
X-2472465Y-7886752D01*
X-2472220Y-7885835D01*
X-2471466Y-7885257D01*
X-2459289Y-7864164D01*
X-2454602Y-7857150D01*
X-2450871Y-7849583D01*
X-2438695Y-7828494D01*
X-2438571Y-7827553D01*
X-2437900Y-7826882D01*
X-2428583Y-7804390D01*
X-2424848Y-7796814D01*
X-2422133Y-7788815D01*
X-2412818Y-7766327D01*
Y-7765377D01*
X-2412240Y-7764624D01*
X-2405942Y-7741119D01*
X-2403224Y-7733111D01*
X-2401573Y-7724814D01*
X-2395277Y-7701314D01*
X-2395401Y-7700372D01*
X-2394926Y-7699550D01*
X-2391752Y-7675439D01*
X-2390099Y-7667130D01*
X-2389545Y-7658672D01*
X-2386372Y-7634567D01*
X-2386617Y-7633650D01*
X-2386254Y-7632773D01*
X-2386254Y-7608473D01*
X-2385699Y-7600000D01*
X-2386254Y-7591527D01*
X-2386254Y-7567230D01*
X-2386618Y-7566353D01*
X-2386372Y-7565435D01*
X-2389544Y-7541336D01*
X-2390099Y-7532870D01*
X-2391754Y-7524551D01*
X-2394926Y-7500453D01*
X-2395401Y-7499630D01*
X-2395277Y-7498689D01*
X-2401569Y-7475206D01*
X-2403224Y-7466889D01*
X-2405949Y-7458861D01*
X-2412241Y-7435379D01*
X-2412818Y-7434626D01*
Y-7433676D01*
X-2422123Y-7411211D01*
X-2424848Y-7403186D01*
X-2428596Y-7395586D01*
X-2437900Y-7373122D01*
X-2438572Y-7372450D01*
X-2438696Y-7371509D01*
X-2450856Y-7350447D01*
X-2454602Y-7342850D01*
X-2459308Y-7335808D01*
X-2471467Y-7314746D01*
X-2472220Y-7314168D01*
X-2472466Y-7313251D01*
X-2487274Y-7293953D01*
X-2491978Y-7286914D01*
X-2497560Y-7280548D01*
X-2512367Y-7261252D01*
X-2513189Y-7260777D01*
X-2513552Y-7259900D01*
X-2530750Y-7242702D01*
X-2536334Y-7236334D01*
X-2542701Y-7230751D01*
X-2559898Y-7213553D01*
X-2560776Y-7213190D01*
X-2561250Y-7212368D01*
X-2580547Y-7197561D01*
X-2586914Y-7191978D01*
X-2593954Y-7187273D01*
X-2613250Y-7172467D01*
X-2614166Y-7172222D01*
X-2614745Y-7171469D01*
X-2635806Y-7159309D01*
X-2642849Y-7154602D01*
X-2650447Y-7150856D01*
X-2671507Y-7138697D01*
X-2672448Y-7138573D01*
X-2673120Y-7137901D01*
X-2695587Y-7128595D01*
X-2703186Y-7124848D01*
X-2711210Y-7122124D01*
X-2733674Y-7112819D01*
X-2734623D01*
X-2735377Y-7112241D01*
X-2749520Y-7108451D01*
X-2747848Y-7095751D01*
X-2509185D01*
X-1955067Y-7649870D01*
X-2277469Y-7972272D01*
X-2285890Y-7984875D01*
X-2288847Y-7999741D01*
Y-8500000D01*
X-2285890Y-8514866D01*
X-2277469Y-8527469D01*
X-2113846Y-8691091D01*
Y-8904364D01*
X-2120700Y-8920910D01*
Y-8939091D01*
X-2113742Y-8955887D01*
X-2100887Y-8968743D01*
X-2084090Y-8975700D01*
X-2065909D01*
X-2049113Y-8968743D01*
X-2036257Y-8955887D01*
X-2029300Y-8939091D01*
Y-8920910D01*
X-2036153Y-8904364D01*
Y-8675000D01*
X-2039110Y-8660135D01*
X-2047531Y-8647532D01*
X-2211154Y-8483909D01*
Y-8015831D01*
X-1884168Y-7688846D01*
X-876731D01*
X-861865Y-7685889D01*
X-849262Y-7677469D01*
X-751878Y-7580084D01*
X-604347Y-7727615D01*
X-604347Y-7727616D01*
X-588429Y-7739830D01*
X-569892Y-7747508D01*
X-550000Y-7750127D01*
X-549998Y-7750127D01*
X-520680D01*
X-515420Y-7762827D01*
X-533169Y-7780577D01*
X-1504000D01*
X-1511433Y-7782055D01*
X-1517734Y-7786266D01*
X-1588912Y-7857444D01*
X-1610499Y-7844980D01*
X-1639163Y-7837300D01*
X-1668837D01*
X-1697501Y-7844980D01*
X-1723199Y-7859817D01*
X-1744182Y-7880800D01*
X-1759020Y-7906499D01*
X-1766700Y-7935163D01*
Y-7964837D01*
X-1759020Y-7993500D01*
X-1744182Y-8019199D01*
X-1723199Y-8040182D01*
X-1711710Y-8046816D01*
X-1715113Y-8059516D01*
X-1928939D01*
X-1936372Y-8060995D01*
X-1942673Y-8065205D01*
X-2163734Y-8286266D01*
X-2167945Y-8292567D01*
X-2169423Y-8300000D01*
Y-8408580D01*
X-2175887Y-8411257D01*
X-2188743Y-8424113D01*
X-2195700Y-8440910D01*
Y-8459091D01*
X-2188743Y-8475887D01*
X-2175887Y-8488743D01*
X-2159090Y-8495700D01*
X-2140910D01*
X-2124113Y-8488743D01*
X-2111257Y-8475887D01*
X-2104300Y-8459091D01*
Y-8440910D01*
X-2111257Y-8424113D01*
X-2124113Y-8411257D01*
X-2130577Y-8408580D01*
Y-8308046D01*
X-1920894Y-8098362D01*
X-493311D01*
X-485878Y-8096884D01*
X-479577Y-8092673D01*
X-217903Y-7830999D01*
X-167391D01*
X-165719Y-7843699D01*
X-170501Y-7844980D01*
X-196200Y-7859818D01*
X-217182Y-7880801D01*
X-232020Y-7906500D01*
X-239700Y-7935163D01*
Y-7964837D01*
X-232020Y-7993501D01*
X-217182Y-8019200D01*
X-196200Y-8040183D01*
X-170501Y-8055020D01*
X-141837Y-8062700D01*
X-112163D01*
X-83499Y-8055020D01*
X-61912Y-8042556D01*
X59266Y-8163734D01*
X65567Y-8167945D01*
X73000Y-8169423D01*
X558166D01*
X565599Y-8167945D01*
X571900Y-8163734D01*
X1088421Y-7647213D01*
X1927908D01*
X1994429Y-7713734D01*
X2000730Y-7717944D01*
X2008163Y-7719423D01*
X2035148D01*
X2040408Y-7732123D01*
X1991955Y-7780577D01*
X1550000D01*
X1542567Y-7782055D01*
X1536266Y-7786266D01*
X1536265Y-7786266D01*
X1465088Y-7857443D01*
X1443501Y-7844980D01*
X1414838Y-7837300D01*
X1385163D01*
X1356500Y-7844980D01*
X1330801Y-7859817D01*
X1309818Y-7880800D01*
X1294981Y-7906499D01*
X1287300Y-7935162D01*
Y-7964837D01*
X1294981Y-7993500D01*
X1309818Y-8019199D01*
X1330801Y-8040182D01*
X1356500Y-8055019D01*
X1385163Y-8062700D01*
X1414838D01*
X1443501Y-8055019D01*
X1469200Y-8040182D01*
X1490183Y-8019199D01*
X1505020Y-7993500D01*
X1512701Y-7964837D01*
Y-7935162D01*
X1505020Y-7906499D01*
X1492557Y-7884912D01*
X1528600Y-7848868D01*
X1541300Y-7854128D01*
Y-8062700D01*
X1766701D01*
Y-8019423D01*
X1807300D01*
Y-8040199D01*
X1892700D01*
Y-7959800D01*
X1807300D01*
Y-7980576D01*
X1766701D01*
Y-7837300D01*
X1566776D01*
X1560415Y-7824600D01*
X1564286Y-7819423D01*
X2000000D01*
X2007433Y-7817944D01*
X2013734Y-7813734D01*
X2073462Y-7754007D01*
X2987309D01*
X2994742Y-7752528D01*
X3001043Y-7748318D01*
X3043704Y-7705657D01*
X3047914Y-7699356D01*
X3049393Y-7691923D01*
X3049393Y-7691922D01*
Y-7657286D01*
X3050192Y-7656955D01*
X3060235Y-7646912D01*
X3065670Y-7633791D01*
Y-7619589D01*
X3060235Y-7606467D01*
X3050192Y-7596424D01*
X3037071Y-7590990D01*
X3022869D01*
X3009748Y-7596424D01*
X3003030Y-7586507D01*
X3002166Y-7584422D01*
X2997025Y-7579281D01*
X3002285Y-7566581D01*
X3085563D01*
X3100428Y-7563624D01*
X3113031Y-7555203D01*
X3298528Y-7369706D01*
X3449679Y-7520857D01*
Y-7622108D01*
X3442825Y-7638654D01*
Y-7656834D01*
X3449783Y-7673631D01*
X3462638Y-7686487D01*
X3479435Y-7693444D01*
X3497616D01*
X3514412Y-7686487D01*
X3527268Y-7673631D01*
X3534225Y-7656834D01*
Y-7638654D01*
X3527372Y-7622108D01*
Y-7504766D01*
X3524415Y-7489900D01*
X3515994Y-7477297D01*
X3337375Y-7298678D01*
Y-7264264D01*
X3341228D01*
Y-7183864D01*
X3337375D01*
Y-7136485D01*
X3457279Y-7016581D01*
X3588201D01*
X3603067Y-7013624D01*
X3615670Y-7005203D01*
X3675997Y-6944876D01*
X3684418Y-6932273D01*
X3687375Y-6917408D01*
Y-6603371D01*
X3694228Y-6586825D01*
Y-6568644D01*
X3687271Y-6551847D01*
X3674415Y-6538992D01*
X3657869Y-6532138D01*
X3599477Y-6473746D01*
X3586874Y-6465325D01*
X3572008Y-6462368D01*
X3188099D01*
X3048262Y-6322531D01*
X3035660Y-6314111D01*
X3020794Y-6311153D01*
X2525636D01*
X2509090Y-6304300D01*
X2490910D01*
X2474113Y-6311257D01*
X2461257Y-6324113D01*
X2454300Y-6340910D01*
Y-6359090D01*
X2461257Y-6375887D01*
X2474113Y-6388743D01*
X2490910Y-6395700D01*
X2509090D01*
X2525636Y-6388847D01*
X2749916D01*
X2756022Y-6400701D01*
X2750587Y-6413822D01*
Y-6428024D01*
X2756022Y-6441146D01*
X2766064Y-6451189D01*
X2779186Y-6456623D01*
X2793388D01*
X2806509Y-6451189D01*
X2816552Y-6441146D01*
X2821987Y-6428024D01*
Y-6413822D01*
X2816552Y-6400701D01*
X2822658Y-6388847D01*
X3004703D01*
X3144540Y-6528683D01*
X3157143Y-6537104D01*
X3172008Y-6540061D01*
X3555918D01*
X3602932Y-6587076D01*
X3609682Y-6603371D01*
Y-6901317D01*
X3572111Y-6938888D01*
X3442707D01*
Y-6922526D01*
X3453675Y-6916072D01*
X3467877D01*
X3480999Y-6910637D01*
X3491041Y-6900594D01*
X3496476Y-6887473D01*
Y-6873270D01*
X3491041Y-6860149D01*
X3480999Y-6850106D01*
X3467877Y-6844672D01*
X3453675D01*
X3453521Y-6844735D01*
X3442700Y-6835471D01*
Y-6761165D01*
X3451840Y-6751204D01*
X3460617Y-6754840D01*
X3474819D01*
X3487941Y-6749405D01*
X3497983Y-6739362D01*
X3503418Y-6726241D01*
Y-6712039D01*
X3497983Y-6698918D01*
X3488773Y-6689707D01*
X3487899Y-6688171D01*
X3487105Y-6674782D01*
X3492798Y-6669089D01*
X3498233Y-6655967D01*
Y-6641765D01*
X3492798Y-6628644D01*
X3482755Y-6618601D01*
X3469634Y-6613166D01*
X3455432D01*
X3442310Y-6618601D01*
X3432268Y-6628644D01*
X3426833Y-6641765D01*
Y-6655967D01*
X3424272Y-6659800D01*
X3357300D01*
Y-6740200D01*
X3374102D01*
Y-6759800D01*
X3357300D01*
Y-6840200D01*
X3374102D01*
Y-6857300D01*
X3357307D01*
Y-6942700D01*
X3403325D01*
X3408585Y-6955400D01*
X3332250Y-7031735D01*
X3321483Y-7024542D01*
X3322242Y-7022709D01*
Y-7008507D01*
X3316807Y-6995385D01*
X3306765Y-6985343D01*
X3293643Y-6979908D01*
X3279441D01*
X3266320Y-6985343D01*
X3261952Y-6989710D01*
X3246290D01*
X3236379Y-6991681D01*
X3227977Y-6997295D01*
X3180216Y-7045057D01*
X3174602Y-7053459D01*
X3172630Y-7063369D01*
Y-7081364D01*
X3155828D01*
Y-7166764D01*
X3172630D01*
Y-7183864D01*
X3155828D01*
Y-7264264D01*
X3241228D01*
Y-7183864D01*
X3224426D01*
Y-7166764D01*
X3241228D01*
Y-7081364D01*
X3235118D01*
X3229858Y-7068664D01*
X3257017Y-7041505D01*
X3261952D01*
X3266320Y-7045873D01*
X3279441Y-7051308D01*
X3293643D01*
X3295476Y-7050549D01*
X3302670Y-7061315D01*
X3271059Y-7092926D01*
X3262639Y-7105528D01*
X3259682Y-7120394D01*
Y-7183864D01*
X3255828D01*
Y-7264264D01*
X3259682D01*
Y-7298678D01*
X3069472Y-7488888D01*
X2924164D01*
X2907619Y-7482034D01*
X2889438D01*
X2872641Y-7488992D01*
X2859785Y-7501847D01*
X2852828Y-7518644D01*
Y-7536825D01*
X2859785Y-7553621D01*
X2872641Y-7566477D01*
X2889438Y-7573434D01*
X2907619D01*
X2924164Y-7566581D01*
X2934118D01*
X2940520Y-7579281D01*
X2936125Y-7585222D01*
X2934894D01*
X2927461Y-7586700D01*
X2921160Y-7590911D01*
X2877697Y-7634373D01*
X2872904Y-7632833D01*
X2865964Y-7628146D01*
Y-7612424D01*
X2859007Y-7595628D01*
X2846151Y-7582772D01*
X2839687Y-7580095D01*
Y-7270264D01*
X2838209Y-7262831D01*
X2833998Y-7256530D01*
X2763734Y-7186266D01*
X2760447Y-7184069D01*
X2763852Y-7171369D01*
X2972635D01*
X2972966Y-7172169D01*
X2983009Y-7182211D01*
X2996130Y-7187646D01*
X3010332D01*
X3023454Y-7182211D01*
X3033496Y-7172169D01*
X3038931Y-7159047D01*
Y-7144845D01*
X3033496Y-7131724D01*
X3023454Y-7121681D01*
X3010332Y-7116246D01*
X2996130D01*
X2983009Y-7121681D01*
X2972966Y-7131724D01*
X2972635Y-7132523D01*
X2143562D01*
X2047305Y-7036266D01*
X2041004Y-7032056D01*
X2033570Y-7030577D01*
X1558045D01*
X863734Y-6336266D01*
X857433Y-6332055D01*
X850000Y-6330577D01*
X-228625D01*
X-228627Y-6330577D01*
X-236059Y-6332055D01*
X-242361Y-6336266D01*
X-648062Y-6741967D01*
X-652272Y-6748268D01*
X-653751Y-6755701D01*
Y-6840610D01*
X-652272Y-6848043D01*
X-648062Y-6854344D01*
X-623022Y-6879385D01*
X-625699Y-6885848D01*
Y-6904029D01*
X-618742Y-6920825D01*
X-605886Y-6933681D01*
X-589089Y-6940638D01*
X-570909D01*
X-554112Y-6933681D01*
X-541256Y-6920825D01*
X-534299Y-6904029D01*
Y-6885848D01*
X-541256Y-6869052D01*
X-554112Y-6856196D01*
X-564696Y-6851812D01*
Y-6838065D01*
X-554112Y-6833681D01*
X-541256Y-6820826D01*
X-534299Y-6804029D01*
Y-6785848D01*
X-536976Y-6779385D01*
X-177015Y-6419423D01*
X841955D01*
X1636266Y-7213734D01*
X1642567Y-7217945D01*
X1650000Y-7219423D01*
X2662129D01*
X2665268Y-7223698D01*
X2668763Y-7232123D01*
X2664300Y-7242899D01*
Y-7257101D01*
X2664211Y-7257234D01*
X2166344D01*
X2158911Y-7258712D01*
X2152610Y-7262922D01*
X2033273Y-7382259D01*
X887120D01*
X879687Y-7383738D01*
X873386Y-7387948D01*
X510097Y-7751238D01*
X115285D01*
X112303Y-7744679D01*
X111783Y-7738538D01*
X126016Y-7727616D01*
X594947Y-7258685D01*
X700001D01*
X709722Y-7254659D01*
X713748Y-7244939D01*
Y-7044938D01*
X709722Y-7035218D01*
X700001Y-7031192D01*
X500001D01*
X490281Y-7035218D01*
X486255Y-7044938D01*
Y-7149991D01*
X39834Y-7596412D01*
X-518165D01*
X-670653Y-7443923D01*
X-823142Y-7291434D01*
Y-5821595D01*
X-823142Y-5821593D01*
X-825761Y-5801701D01*
X-833439Y-5783164D01*
X-845653Y-5767247D01*
X-845654Y-5767246D01*
X-1117246Y-5495653D01*
X-1133164Y-5483439D01*
X-1151701Y-5475761D01*
X-1171593Y-5473142D01*
X-1440730D01*
Y-1183496D01*
X-1335288Y-1078055D01*
X-1301197D01*
X-1281305Y-1075436D01*
X-1262768Y-1067758D01*
X-1246850Y-1055544D01*
X-1105053Y-913746D01*
X-993691D01*
X-983971Y-909720D01*
X-979944Y-900000D01*
Y-826858D01*
X-297967D01*
X-278075Y-824239D01*
X-259538Y-816561D01*
X-243621Y-804347D01*
X204347Y-356379D01*
X216561Y-340462D01*
X224239Y-321925D01*
X226858Y-302033D01*
Y1850000D01*
X224239Y1869892D01*
X216561Y1888429D01*
X204347Y1904347D01*
X148968Y1959726D01*
Y2740274D01*
X304848Y2896155D01*
X317062Y2912072D01*
X318378Y2915249D01*
X331078Y2912722D01*
D02*
G37*
G36*
X-1571934Y-5604347D02*
X-1556016Y-5616561D01*
X-1537480Y-5624239D01*
X-1517587Y-5626858D01*
X-1203429D01*
X-976858Y-5853428D01*
Y-7323269D01*
X-974239Y-7343162D01*
X-966561Y-7361698D01*
X-954347Y-7377616D01*
X-806815Y-7525147D01*
X-892821Y-7611153D01*
X-1883909D01*
X-2465626Y-7029436D01*
X-2478229Y-7021015D01*
X-2493095Y-7018058D01*
X-2766686D01*
X-2911153Y-6873591D01*
Y-6792699D01*
X-2909800D01*
Y-6707299D01*
X-2990200D01*
Y-6792699D01*
X-2988846D01*
Y-6889681D01*
X-2985889Y-6904547D01*
X-2977469Y-6917150D01*
X-2814329Y-7080290D01*
X-2820261Y-7092319D01*
X-2824555Y-7091753D01*
X-2832870Y-7090099D01*
X-2841333Y-7089544D01*
X-2865433Y-7086372D01*
X-2866350Y-7086617D01*
X-2867228Y-7086254D01*
X-2891530Y-7086254D01*
X-2900000Y-7085699D01*
X-2908470Y-7086254D01*
X-2932771Y-7086254D01*
X-2933648Y-7086617D01*
X-2934566Y-7086372D01*
X-2958663Y-7089544D01*
X-2967130Y-7090099D01*
X-2975452Y-7091754D01*
X-2999548Y-7094927D01*
X-3000371Y-7095402D01*
X-3001312Y-7095278D01*
X-3024789Y-7101568D01*
X-3033111Y-7103224D01*
X-3041145Y-7105951D01*
X-3064622Y-7112241D01*
X-3065375Y-7112819D01*
X-3066325D01*
X-3088778Y-7122120D01*
X-3096814Y-7124848D01*
X-3104427Y-7128602D01*
X-3126879Y-7137902D01*
X-3127551Y-7138573D01*
X-3128492Y-7138697D01*
X-3149540Y-7150849D01*
X-3157151Y-7154602D01*
X-3164206Y-7159316D01*
X-3185254Y-7171469D01*
X-3185832Y-7172222D01*
X-3186749Y-7172468D01*
X-3206033Y-7187265D01*
X-3213087Y-7191978D01*
X-3219464Y-7197571D01*
X-3223556Y-7200711D01*
X-3231948Y-7191142D01*
X-3072531Y-7031725D01*
X-3064110Y-7019123D01*
X-3061153Y-7004257D01*
Y-6516091D01*
X-2783909Y-6238847D01*
X-2268341D01*
X-2253475Y-6235889D01*
X-2240873Y-6227469D01*
X-2117199Y-6103795D01*
X-2104499Y-6109055D01*
Y-6267874D01*
X-2210727Y-6374102D01*
X-2357300D01*
Y-6359800D01*
X-2442700D01*
Y-6440200D01*
X-2357300D01*
Y-6425897D01*
X-2200000D01*
X-2190089Y-6423926D01*
X-2181688Y-6418312D01*
X-2060289Y-6296913D01*
X-2054675Y-6288512D01*
X-2052704Y-6278601D01*
Y-6102979D01*
X-1592287Y-5642562D01*
X-1586673Y-5634160D01*
X-1584702Y-5624250D01*
Y-5608569D01*
X-1572002Y-5604258D01*
X-1571934Y-5604347D01*
D02*
G37*
G36*
X2121782Y-7165680D02*
X2121782Y-7165680D01*
X2125070Y-7167877D01*
X2121664Y-7180577D01*
X1658046D01*
X1559592Y-7082123D01*
X1564853Y-7069423D01*
X2025525D01*
X2121782Y-7165680D01*
D02*
G37*
G36*
X2748376Y-7225845D02*
X2800841Y-7278310D01*
Y-7580095D01*
X2794377Y-7582772D01*
X2781521Y-7595628D01*
X2774564Y-7612424D01*
Y-7630605D01*
X2781521Y-7647402D01*
X2794377Y-7660257D01*
X2811174Y-7667215D01*
X2813313D01*
X2820947Y-7679915D01*
X2820720Y-7680341D01*
X2820306Y-7680577D01*
X2016209D01*
X1949687Y-7614056D01*
X1943386Y-7609845D01*
X1935953Y-7608367D01*
X1080376D01*
X1072943Y-7609845D01*
X1066642Y-7614056D01*
X550121Y-8130577D01*
X81045D01*
X25869Y-8075400D01*
X31129Y-8062700D01*
X239700D01*
Y-8019423D01*
X303300D01*
Y-8040199D01*
X388700D01*
Y-7959800D01*
X303300D01*
Y-7980576D01*
X239700D01*
Y-7843699D01*
X239700Y-7837300D01*
X249790Y-7830999D01*
X541146D01*
X548579Y-7829521D01*
X554880Y-7825310D01*
X910767Y-7469423D01*
X2050000D01*
X2057433Y-7467944D01*
X2063734Y-7463734D01*
X2190800Y-7336668D01*
X2686795D01*
X2687126Y-7337467D01*
X2697168Y-7347510D01*
X2710290Y-7352945D01*
X2724492D01*
X2737613Y-7347510D01*
X2747656Y-7337467D01*
X2753091Y-7324346D01*
Y-7310144D01*
X2747656Y-7297022D01*
X2737613Y-7286980D01*
X2733268Y-7285180D01*
X2730265Y-7270222D01*
X2735700Y-7257101D01*
Y-7242899D01*
X2734541Y-7240101D01*
X2741262Y-7225555D01*
X2743030Y-7225004D01*
X2748376Y-7225845D01*
D02*
G37*
G36*
X-244625Y-7802784D02*
X-501357Y-8059516D01*
X-1287300D01*
Y-8019422D01*
X-1246700D01*
Y-8040199D01*
X-1161300D01*
Y-7959800D01*
X-1246700D01*
Y-7980576D01*
X-1287300D01*
Y-7837300D01*
X-1487225D01*
X-1493586Y-7824600D01*
X-1489714Y-7819423D01*
X-935717D01*
X-933191Y-7832123D01*
X-941068Y-7835386D01*
X-953924Y-7848242D01*
X-960881Y-7865038D01*
Y-7883219D01*
X-953924Y-7900016D01*
X-941068Y-7912871D01*
X-924272Y-7919829D01*
X-906091D01*
X-889295Y-7912871D01*
X-876439Y-7900016D01*
X-869482Y-7883219D01*
Y-7865038D01*
X-876439Y-7848242D01*
X-889295Y-7835386D01*
X-897172Y-7832123D01*
X-894646Y-7819423D01*
X-525124D01*
X-517691Y-7817944D01*
X-511390Y-7813734D01*
X-487739Y-7790084D01*
X-249885D01*
X-244625Y-7802784D01*
D02*
G37*
%LPC*%
G36*
X-990910Y2745701D02*
X-1009091D01*
X-1025887Y2738743D01*
X-1038743Y2725888D01*
X-1045700Y2709091D01*
Y2690910D01*
X-1038743Y2674114D01*
X-1025887Y2661258D01*
X-1009091Y2654301D01*
X-990910D01*
X-974113Y2661258D01*
X-961258Y2674114D01*
X-954300Y2690910D01*
Y2709091D01*
X-961258Y2725888D01*
X-974113Y2738743D01*
X-990910Y2745701D01*
D02*
G37*
G36*
X1009090Y2745700D02*
X990910D01*
X974113Y2738743D01*
X961257Y2725887D01*
X954300Y2709091D01*
Y2690910D01*
X961257Y2674114D01*
X974113Y2661258D01*
X990910Y2654301D01*
X1009090D01*
X1025887Y2661258D01*
X1038743Y2674114D01*
X1045700Y2690910D01*
Y2709091D01*
X1038743Y2725887D01*
X1025887Y2738743D01*
X1009090Y2745700D01*
D02*
G37*
G36*
Y2345701D02*
X990910D01*
X974113Y2338743D01*
X961257Y2325888D01*
X954300Y2309091D01*
Y2290910D01*
X961257Y2274114D01*
X974113Y2261258D01*
X990910Y2254301D01*
X1009090D01*
X1025887Y2261258D01*
X1038743Y2274114D01*
X1045700Y2290910D01*
Y2309091D01*
X1038743Y2325888D01*
X1025887Y2338743D01*
X1009090Y2345701D01*
D02*
G37*
G36*
X-990910Y2345700D02*
X-1009090D01*
X-1025887Y2338743D01*
X-1038743Y2325887D01*
X-1045700Y2309091D01*
Y2290910D01*
X-1038743Y2274114D01*
X-1025887Y2261258D01*
X-1009090Y2254301D01*
X-990910D01*
X-974113Y2261258D01*
X-961257Y2274114D01*
X-954300Y2290910D01*
Y2309091D01*
X-961257Y2325887D01*
X-974113Y2338743D01*
X-990910Y2345700D01*
D02*
G37*
G36*
X431590Y2345700D02*
X413409D01*
X396613Y2338743D01*
X383757Y2325887D01*
X376800Y2309091D01*
Y2290910D01*
X383757Y2274113D01*
X396613Y2261258D01*
X413409Y2254300D01*
X431590D01*
X448386Y2261258D01*
X461242Y2274113D01*
X468199Y2290910D01*
Y2309091D01*
X461242Y2325887D01*
X448386Y2338743D01*
X431590Y2345700D01*
D02*
G37*
G36*
X1009091Y1945700D02*
X990910D01*
X974113Y1938743D01*
X961258Y1925887D01*
X954300Y1909091D01*
Y1890910D01*
X961258Y1874114D01*
X974113Y1861258D01*
X990910Y1854301D01*
X1009091D01*
X1025887Y1861258D01*
X1038743Y1874114D01*
X1045700Y1890910D01*
Y1909091D01*
X1038743Y1925887D01*
X1025887Y1938743D01*
X1009091Y1945700D01*
D02*
G37*
G36*
X-990909Y1945700D02*
X-1009090D01*
X-1025887Y1938743D01*
X-1038742Y1925887D01*
X-1045700Y1909091D01*
Y1890910D01*
X-1038742Y1874113D01*
X-1025887Y1861258D01*
X-1009090Y1854300D01*
X-990909D01*
X-974113Y1861258D01*
X-961257Y1874113D01*
X-954300Y1890910D01*
Y1909091D01*
X-961257Y1925887D01*
X-974113Y1938743D01*
X-990909Y1945700D01*
D02*
G37*
G36*
X1009090Y1445701D02*
X990910D01*
X974113Y1438744D01*
X961257Y1425888D01*
X954300Y1409091D01*
Y1390911D01*
X961257Y1374114D01*
X974113Y1361258D01*
X990910Y1354301D01*
X1009090D01*
X1025887Y1361258D01*
X1038743Y1374114D01*
X1045700Y1390911D01*
Y1409091D01*
X1038743Y1425888D01*
X1025887Y1438744D01*
X1009090Y1445701D01*
D02*
G37*
G36*
X-990910Y1445701D02*
X-1009091D01*
X-1025887Y1438743D01*
X-1038743Y1425888D01*
X-1045700Y1409091D01*
Y1390910D01*
X-1038743Y1374114D01*
X-1025887Y1361258D01*
X-1009091Y1354301D01*
X-990910D01*
X-974113Y1361258D01*
X-961258Y1374114D01*
X-954300Y1390910D01*
Y1409091D01*
X-961258Y1425888D01*
X-974113Y1438743D01*
X-990910Y1445701D01*
D02*
G37*
G36*
X1009090Y1045700D02*
X990910D01*
X974113Y1038743D01*
X961257Y1025887D01*
X954300Y1009091D01*
Y990910D01*
X961257Y974114D01*
X974113Y961258D01*
X990910Y954301D01*
X1009090D01*
X1025887Y961258D01*
X1038743Y974114D01*
X1045700Y990910D01*
Y1009091D01*
X1038743Y1025887D01*
X1025887Y1038743D01*
X1009090Y1045700D01*
D02*
G37*
G36*
X-990910D02*
X-1009090D01*
X-1025887Y1038743D01*
X-1038743Y1025887D01*
X-1045700Y1009091D01*
Y990910D01*
X-1038743Y974114D01*
X-1025887Y961258D01*
X-1009090Y954301D01*
X-990910D01*
X-974113Y961258D01*
X-961257Y974114D01*
X-954300Y990910D01*
Y1009091D01*
X-961257Y1025887D01*
X-974113Y1038743D01*
X-990910Y1045700D01*
D02*
G37*
G36*
X680949Y1012700D02*
X639051D01*
X597958Y1004526D01*
X559249Y988492D01*
X524412Y965214D01*
X494785Y935588D01*
X471508Y900751D01*
X455474Y862042D01*
X447300Y820949D01*
Y779051D01*
X455474Y737957D01*
X471508Y699249D01*
X494785Y664411D01*
X524412Y634785D01*
X559249Y611508D01*
X597958Y595474D01*
X639051Y587300D01*
X680949D01*
X722042Y595474D01*
X760751Y611508D01*
X795588Y634785D01*
X825215Y664411D01*
X848492Y699249D01*
X864526Y737957D01*
X872700Y779051D01*
Y820949D01*
X864526Y862042D01*
X848492Y900751D01*
X825215Y935588D01*
X795588Y965214D01*
X760751Y988492D01*
X722042Y1004526D01*
X680949Y1012700D01*
D02*
G37*
G36*
X-990909Y645700D02*
X-1009090D01*
X-1025887Y638743D01*
X-1038742Y625887D01*
X-1045700Y609091D01*
Y590910D01*
X-1038742Y574113D01*
X-1025887Y561258D01*
X-1009090Y554300D01*
X-990909D01*
X-974113Y561258D01*
X-961257Y574113D01*
X-954300Y590910D01*
Y609091D01*
X-961257Y625887D01*
X-974113Y638743D01*
X-990909Y645700D01*
D02*
G37*
G36*
X1009090Y645700D02*
X990910D01*
X974113Y638743D01*
X961257Y625887D01*
X954300Y609090D01*
Y590910D01*
X961257Y574113D01*
X974113Y561257D01*
X990910Y554300D01*
X1009090D01*
X1025887Y561257D01*
X1038743Y574113D01*
X1045700Y590910D01*
Y609090D01*
X1038743Y625887D01*
X1025887Y638743D01*
X1009090Y645700D01*
D02*
G37*
G36*
X829502Y-529106D02*
X671999D01*
X662279Y-533132D01*
X658252Y-542852D01*
Y-792852D01*
X662279Y-802573D01*
X671999Y-806599D01*
X829502D01*
X839222Y-802573D01*
X843248Y-792852D01*
Y-542852D01*
X839222Y-533132D01*
X829502Y-529106D01*
D02*
G37*
G36*
X-1240910Y-1304300D02*
X-1259090D01*
X-1275887Y-1311257D01*
X-1288743Y-1324113D01*
X-1295700Y-1340910D01*
Y-1359090D01*
X-1288743Y-1375887D01*
X-1275887Y-1388743D01*
X-1265303Y-1393127D01*
Y-1406873D01*
X-1275887Y-1411257D01*
X-1288743Y-1424113D01*
X-1295700Y-1440909D01*
Y-1459090D01*
X-1288743Y-1475887D01*
X-1275887Y-1488743D01*
X-1259090Y-1495700D01*
X-1240910D01*
X-1224113Y-1488743D01*
X-1211257Y-1475887D01*
X-1204300Y-1459090D01*
Y-1440909D01*
X-1211257Y-1424113D01*
X-1224113Y-1411257D01*
X-1234697Y-1406873D01*
Y-1393127D01*
X-1224113Y-1388743D01*
X-1211257Y-1375887D01*
X-1204300Y-1359090D01*
Y-1340910D01*
X-1211257Y-1324113D01*
X-1224113Y-1311257D01*
X-1240910Y-1304300D01*
D02*
G37*
G36*
X678589Y-1897152D02*
X660408D01*
X643611Y-1904110D01*
X631627Y-1916094D01*
X624498Y-1916558D01*
X617370Y-1916094D01*
X605385Y-1904110D01*
X588589Y-1897152D01*
X570408D01*
X553612Y-1904110D01*
X541627Y-1916094D01*
X534499Y-1916558D01*
X527370Y-1916094D01*
X515386Y-1904110D01*
X498589Y-1897152D01*
X480408D01*
X463612Y-1904110D01*
X451627Y-1916094D01*
X444499Y-1916558D01*
X437370Y-1916094D01*
X425386Y-1904110D01*
X408589Y-1897152D01*
X390408D01*
X373612Y-1904110D01*
X360756Y-1916965D01*
X353799Y-1933762D01*
Y-1951943D01*
X360756Y-1968739D01*
X372740Y-1980723D01*
X373204Y-1987852D01*
X372740Y-1994981D01*
X360756Y-2006965D01*
X353799Y-2023761D01*
Y-2041942D01*
X360756Y-2058739D01*
X373612Y-2071594D01*
X390408Y-2078552D01*
X408589D01*
X425386Y-2071594D01*
X437370Y-2059610D01*
X444499Y-2059146D01*
X451627Y-2059610D01*
X463612Y-2071594D01*
X480408Y-2078552D01*
X498589D01*
X515386Y-2071594D01*
X527370Y-2059610D01*
X534499Y-2059146D01*
X541627Y-2059610D01*
X553612Y-2071594D01*
X570408Y-2078552D01*
X588589D01*
X605385Y-2071594D01*
X617370Y-2059610D01*
X624498Y-2059146D01*
X631627Y-2059610D01*
X643611Y-2071594D01*
X660408Y-2078552D01*
X678589D01*
X695385Y-2071594D01*
X708241Y-2058739D01*
X715198Y-2041942D01*
Y-2023761D01*
X708241Y-2006965D01*
X696257Y-1994981D01*
X695793Y-1987852D01*
X696257Y-1980723D01*
X708241Y-1968739D01*
X715198Y-1951943D01*
Y-1933762D01*
X708241Y-1916965D01*
X695385Y-1904110D01*
X678589Y-1897152D01*
D02*
G37*
G36*
X-415909Y-2579300D02*
X-434090D01*
X-450887Y-2586257D01*
X-463742Y-2599113D01*
X-470700Y-2615910D01*
Y-2634090D01*
X-463742Y-2650887D01*
X-452129Y-2662500D01*
X-463743Y-2674113D01*
X-470700Y-2690910D01*
Y-2709091D01*
X-463743Y-2725887D01*
X-450887Y-2738743D01*
X-434090Y-2745700D01*
X-415910D01*
X-399113Y-2738743D01*
X-386257Y-2725887D01*
X-379300Y-2709091D01*
Y-2690910D01*
X-386257Y-2674113D01*
X-397870Y-2662500D01*
X-386257Y-2650887D01*
X-379300Y-2634090D01*
Y-2615910D01*
X-386257Y-2599113D01*
X-399113Y-2586257D01*
X-415909Y-2579300D01*
D02*
G37*
G36*
X1109589Y-2911448D02*
X1091409D01*
X1074612Y-2918406D01*
X1061756Y-2931261D01*
X1054799Y-2948058D01*
Y-2966239D01*
X1061756Y-2983035D01*
X1074612Y-2995891D01*
X1091409Y-3002848D01*
X1109589D01*
X1126386Y-2995891D01*
X1139242Y-2983035D01*
X1146199Y-2966239D01*
Y-2948058D01*
X1139242Y-2931261D01*
X1126386Y-2918406D01*
X1109589Y-2911448D01*
D02*
G37*
G36*
X909589D02*
X891409D01*
X874612Y-2918406D01*
X861756Y-2931261D01*
X854799Y-2948058D01*
Y-2966239D01*
X861756Y-2983035D01*
X874612Y-2995891D01*
X891409Y-3002848D01*
X909589D01*
X926386Y-2995891D01*
X939242Y-2983035D01*
X946199Y-2966239D01*
Y-2948058D01*
X939242Y-2931261D01*
X926386Y-2918406D01*
X909589Y-2911448D01*
D02*
G37*
G36*
X709588D02*
X691408D01*
X674611Y-2918406D01*
X661755Y-2931261D01*
X654798Y-2948058D01*
Y-2966239D01*
X661755Y-2983035D01*
X674611Y-2995891D01*
X691408Y-3002848D01*
X709588D01*
X726385Y-2995891D01*
X739241Y-2983035D01*
X746198Y-2966239D01*
Y-2948058D01*
X739241Y-2931261D01*
X726385Y-2918406D01*
X709588Y-2911448D01*
D02*
G37*
G36*
X509590D02*
X491409D01*
X474612Y-2918406D01*
X461757Y-2931261D01*
X454799Y-2948058D01*
Y-2966239D01*
X461757Y-2983035D01*
X474612Y-2995891D01*
X491409Y-3002848D01*
X509590D01*
X526386Y-2995891D01*
X539242Y-2983035D01*
X546199Y-2966239D01*
Y-2948058D01*
X539242Y-2931261D01*
X526386Y-2918406D01*
X509590Y-2911448D01*
D02*
G37*
G36*
X309590D02*
X291409D01*
X274613Y-2918406D01*
X261757Y-2931261D01*
X254800Y-2948058D01*
Y-2966239D01*
X261757Y-2983035D01*
X274613Y-2995891D01*
X291409Y-3002848D01*
X309590D01*
X326386Y-2995891D01*
X339242Y-2983035D01*
X346199Y-2966239D01*
Y-2948058D01*
X339242Y-2931261D01*
X326386Y-2918406D01*
X309590Y-2911448D01*
D02*
G37*
G36*
X109590D02*
X91409D01*
X74613Y-2918406D01*
X61757Y-2931261D01*
X54800Y-2948058D01*
Y-2966239D01*
X61757Y-2983035D01*
X74613Y-2995891D01*
X91409Y-3002848D01*
X109590D01*
X126387Y-2995891D01*
X139242Y-2983035D01*
X146200Y-2966239D01*
Y-2948058D01*
X139242Y-2931261D01*
X126387Y-2918406D01*
X109590Y-2911448D01*
D02*
G37*
G36*
X-90410D02*
X-108591D01*
X-125387Y-2918406D01*
X-138243Y-2931261D01*
X-145200Y-2948058D01*
Y-2966239D01*
X-138243Y-2983035D01*
X-125387Y-2995891D01*
X-108591Y-3002848D01*
X-90410D01*
X-73613Y-2995891D01*
X-60758Y-2983035D01*
X-53800Y-2966239D01*
Y-2948058D01*
X-60758Y-2931261D01*
X-73613Y-2918406D01*
X-90410Y-2911448D01*
D02*
G37*
G36*
X-290410D02*
X-308590D01*
X-325387Y-2918406D01*
X-338243Y-2931261D01*
X-345200Y-2948058D01*
Y-2966239D01*
X-338243Y-2983035D01*
X-325387Y-2995891D01*
X-308590Y-3002848D01*
X-290410D01*
X-273613Y-2995891D01*
X-260757Y-2983035D01*
X-253800Y-2966239D01*
Y-2948058D01*
X-260757Y-2931261D01*
X-273613Y-2918406D01*
X-290410Y-2911448D01*
D02*
G37*
G36*
X-1290408D02*
X-1308589D01*
X-1325386Y-2918406D01*
X-1338241Y-2931261D01*
X-1345199Y-2948058D01*
Y-2966239D01*
X-1338241Y-2983035D01*
X-1325386Y-2995891D01*
X-1308589Y-3002848D01*
X-1290408D01*
X-1273612Y-2995891D01*
X-1260756Y-2983035D01*
X-1253799Y-2966239D01*
Y-2948058D01*
X-1260756Y-2931261D01*
X-1273612Y-2918406D01*
X-1290408Y-2911448D01*
D02*
G37*
G36*
X-692899Y-3014300D02*
X-707101D01*
X-720223Y-3019735D01*
X-730265Y-3029778D01*
X-735634Y-3042739D01*
X-740859Y-3054266D01*
X-740910Y-3054300D01*
X-759090D01*
X-759141Y-3054266D01*
X-764366Y-3042739D01*
X-769735Y-3029778D01*
X-779777Y-3019735D01*
X-792899Y-3014300D01*
X-807101D01*
X-820222Y-3019735D01*
X-825000Y-3024512D01*
X-829778Y-3019735D01*
X-842899Y-3014300D01*
X-857101D01*
X-870223Y-3019735D01*
X-880265Y-3029778D01*
X-885634Y-3042739D01*
X-890859Y-3054266D01*
X-890910Y-3054300D01*
X-909090D01*
X-909141Y-3054266D01*
X-914366Y-3042739D01*
X-919735Y-3029778D01*
X-929777Y-3019735D01*
X-942899Y-3014300D01*
X-957101D01*
X-970222Y-3019735D01*
X-980265Y-3029778D01*
X-985700Y-3042899D01*
Y-3057101D01*
X-980265Y-3070222D01*
X-970222Y-3080265D01*
X-957261Y-3085634D01*
X-945734Y-3090859D01*
X-945700Y-3090910D01*
Y-3109090D01*
X-938743Y-3125887D01*
X-925887Y-3138743D01*
X-909090Y-3145700D01*
X-890910D01*
X-874113Y-3138743D01*
X-861257Y-3125887D01*
X-854300Y-3109090D01*
Y-3090910D01*
X-854266Y-3090859D01*
X-842739Y-3085634D01*
X-829778Y-3080265D01*
X-825000Y-3075488D01*
X-820222Y-3080265D01*
X-807261Y-3085634D01*
X-795734Y-3090859D01*
X-795700Y-3090910D01*
Y-3109090D01*
X-788743Y-3125887D01*
X-775887Y-3138743D01*
X-767298Y-3142300D01*
Y-3156047D01*
X-775887Y-3159605D01*
X-788743Y-3172460D01*
X-795700Y-3189257D01*
Y-3207438D01*
X-788743Y-3224234D01*
X-775887Y-3237090D01*
X-759090Y-3244047D01*
X-740910D01*
X-724113Y-3237090D01*
X-711257Y-3224234D01*
X-704300Y-3207438D01*
Y-3189257D01*
X-711257Y-3172460D01*
X-724113Y-3159605D01*
X-732702Y-3156047D01*
Y-3142300D01*
X-724113Y-3138743D01*
X-716800Y-3131429D01*
X-708410Y-3127315D01*
X-700206Y-3131429D01*
X-695624Y-3136012D01*
X-682502Y-3141447D01*
X-668300D01*
X-655179Y-3136012D01*
X-645136Y-3125969D01*
X-639701Y-3112848D01*
Y-3098646D01*
X-645136Y-3085524D01*
X-655179Y-3075482D01*
X-657729Y-3074425D01*
X-664802Y-3058313D01*
X-664300Y-3057101D01*
Y-3042899D01*
X-669735Y-3029778D01*
X-679778Y-3019735D01*
X-692899Y-3014300D01*
D02*
G37*
G36*
X-542899D02*
X-557101D01*
X-570222Y-3019735D01*
X-580265Y-3029778D01*
X-585700Y-3042899D01*
Y-3057101D01*
X-580265Y-3070222D01*
X-570222Y-3080265D01*
X-557101Y-3085700D01*
X-542899D01*
X-529777Y-3080265D01*
X-519735Y-3070222D01*
X-514300Y-3057101D01*
Y-3042899D01*
X-519735Y-3029778D01*
X-529777Y-3019735D01*
X-542899Y-3014300D01*
D02*
G37*
G36*
X-1092899D02*
X-1107101D01*
X-1120223Y-3019735D01*
X-1130265Y-3029778D01*
X-1135700Y-3042899D01*
Y-3057101D01*
X-1130265Y-3070222D01*
X-1120223Y-3080265D01*
X-1107101Y-3085700D01*
X-1092899D01*
X-1079778Y-3080265D01*
X-1069735Y-3070222D01*
X-1064300Y-3057101D01*
Y-3042899D01*
X-1069735Y-3029778D01*
X-1079778Y-3019735D01*
X-1092899Y-3014300D01*
D02*
G37*
G36*
X-1290408Y-3111448D02*
X-1308589D01*
X-1325386Y-3118405D01*
X-1338241Y-3131261D01*
X-1345199Y-3148058D01*
Y-3166239D01*
X-1338241Y-3183035D01*
X-1325386Y-3195891D01*
X-1308589Y-3202848D01*
X-1290408D01*
X-1273612Y-3195891D01*
X-1260756Y-3183035D01*
X-1253799Y-3166239D01*
Y-3148058D01*
X-1260756Y-3131261D01*
X-1273612Y-3118405D01*
X-1290408Y-3111448D01*
D02*
G37*
G36*
X-942899Y-3164300D02*
X-957101D01*
X-970222Y-3169735D01*
X-980265Y-3179777D01*
X-985700Y-3192899D01*
Y-3207101D01*
X-980265Y-3220222D01*
X-970222Y-3230265D01*
X-957101Y-3235700D01*
X-942899D01*
X-929777Y-3230265D01*
X-919735Y-3220222D01*
X-914300Y-3207101D01*
Y-3192899D01*
X-919735Y-3179777D01*
X-929777Y-3169735D01*
X-942899Y-3164300D01*
D02*
G37*
G36*
X-1040910Y-3204300D02*
X-1059090D01*
X-1075887Y-3211257D01*
X-1088743Y-3224113D01*
X-1095700Y-3240910D01*
Y-3259091D01*
X-1088743Y-3275887D01*
X-1075887Y-3288743D01*
X-1059090Y-3295700D01*
X-1040910D01*
X-1024113Y-3288743D01*
X-1011257Y-3275887D01*
X-1004300Y-3259091D01*
Y-3240910D01*
X-1011257Y-3224113D01*
X-1024113Y-3211257D01*
X-1040910Y-3204300D01*
D02*
G37*
G36*
X-390408Y-3211447D02*
X-408589D01*
X-425386Y-3218405D01*
X-438241Y-3231260D01*
X-445199Y-3248057D01*
Y-3266238D01*
X-438241Y-3283034D01*
X-425386Y-3295890D01*
X-408589Y-3302847D01*
X-390408D01*
X-373612Y-3295890D01*
X-360756Y-3283034D01*
X-353799Y-3266238D01*
Y-3248057D01*
X-360756Y-3231260D01*
X-373612Y-3218405D01*
X-390408Y-3211447D01*
D02*
G37*
G36*
X-135409Y-3211448D02*
X-153590D01*
X-170386Y-3218405D01*
X-183242Y-3231261D01*
X-190199Y-3248057D01*
Y-3266238D01*
X-183242Y-3283035D01*
X-170386Y-3295890D01*
X-153590Y-3302848D01*
X-135409D01*
X-118612Y-3295890D01*
X-105757Y-3283035D01*
X-98799Y-3266238D01*
Y-3248057D01*
X-105757Y-3231261D01*
X-118612Y-3218405D01*
X-135409Y-3211448D01*
D02*
G37*
G36*
X84592Y-3311448D02*
X66411D01*
X49614Y-3318405D01*
X36759Y-3331261D01*
X29801Y-3348057D01*
Y-3366238D01*
X36759Y-3383034D01*
X49614Y-3395890D01*
X66411Y-3402847D01*
X84592D01*
X101388Y-3395890D01*
X114244Y-3383034D01*
X121201Y-3366238D01*
Y-3348057D01*
X114244Y-3331261D01*
X101388Y-3318405D01*
X84592Y-3311448D01*
D02*
G37*
G36*
X-1290408Y-3311448D02*
X-1308589D01*
X-1325386Y-3318405D01*
X-1338241Y-3331261D01*
X-1345199Y-3348058D01*
Y-3366238D01*
X-1338241Y-3383035D01*
X-1325386Y-3395891D01*
X-1308589Y-3402848D01*
X-1290408D01*
X-1273612Y-3395891D01*
X-1260756Y-3383035D01*
X-1253799Y-3366238D01*
Y-3348058D01*
X-1260756Y-3331261D01*
X-1273612Y-3318405D01*
X-1290408Y-3311448D01*
D02*
G37*
G36*
X-790406Y-3411450D02*
X-808587D01*
X-825383Y-3418407D01*
X-838239Y-3431263D01*
X-842623Y-3441847D01*
X-856370D01*
X-860754Y-3431263D01*
X-873609Y-3418407D01*
X-890406Y-3411450D01*
X-908587D01*
X-925383Y-3418407D01*
X-938239Y-3431263D01*
X-945196Y-3448059D01*
Y-3466240D01*
X-938239Y-3483037D01*
X-925383Y-3495892D01*
X-908587Y-3502850D01*
X-890406D01*
X-873609Y-3495892D01*
X-860754Y-3483037D01*
X-856370Y-3472452D01*
X-842623D01*
X-838239Y-3483037D01*
X-825383Y-3495892D01*
X-808587Y-3502850D01*
X-790406D01*
X-773609Y-3495892D01*
X-760754Y-3483037D01*
X-753796Y-3466240D01*
Y-3448059D01*
X-760754Y-3431263D01*
X-773609Y-3418407D01*
X-790406Y-3411450D01*
D02*
G37*
G36*
X-686649Y-3474420D02*
X-704830D01*
X-721626Y-3481377D01*
X-734482Y-3494233D01*
X-741439Y-3511030D01*
Y-3529210D01*
X-734482Y-3546007D01*
X-721626Y-3558863D01*
X-704830Y-3565820D01*
X-686649D01*
X-669853Y-3558863D01*
X-656997Y-3546007D01*
X-650040Y-3529210D01*
Y-3511030D01*
X-656997Y-3494233D01*
X-669853Y-3481377D01*
X-686649Y-3474420D01*
D02*
G37*
G36*
X-1290408Y-3511448D02*
X-1308589D01*
X-1325386Y-3518405D01*
X-1338241Y-3531261D01*
X-1345199Y-3548057D01*
Y-3566238D01*
X-1338241Y-3583035D01*
X-1325386Y-3595890D01*
X-1308589Y-3602848D01*
X-1290408D01*
X-1273612Y-3595890D01*
X-1260756Y-3583035D01*
X-1253799Y-3566238D01*
Y-3548057D01*
X-1260756Y-3531261D01*
X-1273612Y-3518405D01*
X-1290408Y-3511448D01*
D02*
G37*
G36*
X184592Y-3611447D02*
X166411D01*
X149614Y-3618405D01*
X136759Y-3631260D01*
X129801Y-3648057D01*
Y-3666238D01*
X136759Y-3683034D01*
X149614Y-3695890D01*
X166411Y-3702847D01*
X184592D01*
X201388Y-3695890D01*
X214244Y-3683034D01*
X221201Y-3666238D01*
Y-3648057D01*
X214244Y-3631260D01*
X201388Y-3618405D01*
X184592Y-3611447D01*
D02*
G37*
G36*
X-490408D02*
X-508589D01*
X-525386Y-3618405D01*
X-538241Y-3631260D01*
X-545199Y-3648057D01*
Y-3666238D01*
X-538241Y-3683034D01*
X-525386Y-3695890D01*
X-508589Y-3702847D01*
X-490408D01*
X-473612Y-3695890D01*
X-460756Y-3683034D01*
X-453799Y-3666238D01*
Y-3648057D01*
X-460756Y-3631260D01*
X-473612Y-3618405D01*
X-490408Y-3611447D01*
D02*
G37*
G36*
X-693069Y-3612583D02*
X-711250D01*
X-728047Y-3619540D01*
X-740903Y-3632396D01*
X-747860Y-3649192D01*
Y-3667373D01*
X-740903Y-3684169D01*
X-728047Y-3697025D01*
X-711250Y-3703982D01*
X-693069D01*
X-676273Y-3697025D01*
X-663417Y-3684169D01*
X-656460Y-3667373D01*
Y-3649192D01*
X-663417Y-3632396D01*
X-676273Y-3619540D01*
X-693069Y-3612583D01*
D02*
G37*
G36*
X309592Y-3686448D02*
X291411D01*
X274614Y-3693405D01*
X261759Y-3706261D01*
X254801Y-3723057D01*
Y-3741238D01*
X261759Y-3758034D01*
X274614Y-3770890D01*
X291411Y-3777847D01*
X309592D01*
X326388Y-3770890D01*
X339244Y-3758034D01*
X346201Y-3741238D01*
Y-3723057D01*
X339244Y-3706261D01*
X326388Y-3693405D01*
X309592Y-3686448D01*
D02*
G37*
G36*
X-190408Y-3711447D02*
X-208589D01*
X-225386Y-3718405D01*
X-238241Y-3731261D01*
X-245199Y-3748057D01*
Y-3766238D01*
X-238241Y-3783034D01*
X-225386Y-3795890D01*
X-208589Y-3802847D01*
X-190408D01*
X-173612Y-3795890D01*
X-160756Y-3783034D01*
X-153799Y-3766238D01*
Y-3748057D01*
X-160756Y-3731261D01*
X-173612Y-3718405D01*
X-190408Y-3711447D01*
D02*
G37*
G36*
X-1290408Y-3711448D02*
X-1308589D01*
X-1325386Y-3718405D01*
X-1338241Y-3731261D01*
X-1345199Y-3748057D01*
Y-3766238D01*
X-1338241Y-3783035D01*
X-1325386Y-3795890D01*
X-1308589Y-3802848D01*
X-1290408D01*
X-1273612Y-3795890D01*
X-1260756Y-3783035D01*
X-1253799Y-3766238D01*
Y-3748057D01*
X-1260756Y-3731261D01*
X-1273612Y-3718405D01*
X-1290408Y-3711448D01*
D02*
G37*
G36*
X-790406Y-3811450D02*
X-808587D01*
X-825383Y-3818407D01*
X-838239Y-3831263D01*
X-842623Y-3841848D01*
X-856370D01*
X-860754Y-3831263D01*
X-873609Y-3818407D01*
X-890406Y-3811450D01*
X-908587D01*
X-925383Y-3818407D01*
X-938239Y-3831263D01*
X-945196Y-3848060D01*
Y-3866240D01*
X-938239Y-3883037D01*
X-925383Y-3895893D01*
X-908587Y-3902850D01*
X-890406D01*
X-873609Y-3895893D01*
X-860754Y-3883037D01*
X-856370Y-3872453D01*
X-842623D01*
X-838239Y-3883037D01*
X-825383Y-3895893D01*
X-808587Y-3902850D01*
X-790406D01*
X-773609Y-3895893D01*
X-760754Y-3883037D01*
X-753796Y-3866240D01*
Y-3848060D01*
X-760754Y-3831263D01*
X-773609Y-3818407D01*
X-790406Y-3811450D01*
D02*
G37*
G36*
X-351729Y-3797472D02*
X-365931D01*
X-379053Y-3802907D01*
X-389095Y-3812949D01*
X-394530Y-3826071D01*
Y-3840273D01*
X-389095Y-3853394D01*
X-379053Y-3863437D01*
X-365931Y-3868872D01*
X-351729D01*
X-338608Y-3863437D01*
X-328565Y-3853394D01*
X-323130Y-3840273D01*
Y-3826071D01*
X-328565Y-3812949D01*
X-338608Y-3802907D01*
X-351729Y-3797472D01*
D02*
G37*
G36*
X809592Y-3911447D02*
X791411D01*
X774614Y-3918405D01*
X761759Y-3931260D01*
X757371Y-3941853D01*
X743625D01*
X739237Y-3931260D01*
X726381Y-3918405D01*
X709585Y-3911447D01*
X691404D01*
X674607Y-3918405D01*
X661752Y-3931260D01*
X654794Y-3948057D01*
Y-3966238D01*
X661752Y-3983034D01*
X674607Y-3995890D01*
X691404Y-4002847D01*
X709585D01*
X726381Y-3995890D01*
X739237Y-3983034D01*
X743625Y-3972442D01*
X757371D01*
X761759Y-3983034D01*
X774614Y-3995890D01*
X791411Y-4002847D01*
X809592D01*
X826388Y-3995890D01*
X839244Y-3983034D01*
X846201Y-3966238D01*
Y-3948057D01*
X839244Y-3931260D01*
X826388Y-3918405D01*
X809592Y-3911447D01*
D02*
G37*
G36*
X-1290408Y-3911448D02*
X-1308589D01*
X-1325386Y-3918405D01*
X-1338241Y-3931261D01*
X-1345199Y-3948057D01*
Y-3966238D01*
X-1338241Y-3983034D01*
X-1325386Y-3995890D01*
X-1308589Y-4002847D01*
X-1290408D01*
X-1273612Y-3995890D01*
X-1260756Y-3983034D01*
X-1253799Y-3966238D01*
Y-3948057D01*
X-1260756Y-3931261D01*
X-1273612Y-3918405D01*
X-1290408Y-3911448D01*
D02*
G37*
G36*
X189591Y-3961447D02*
X171411D01*
X154614Y-3968405D01*
X141758Y-3981261D01*
X134801Y-3998057D01*
Y-4016238D01*
X141758Y-4033034D01*
X154614Y-4045890D01*
X171411Y-4052847D01*
X189591D01*
X206388Y-4045890D01*
X219244Y-4033034D01*
X226201Y-4016238D01*
Y-3998057D01*
X219244Y-3981261D01*
X206388Y-3968405D01*
X189591Y-3961447D01*
D02*
G37*
G36*
X-115408D02*
X-133589D01*
X-150386Y-3968405D01*
X-163241Y-3981261D01*
X-170199Y-3998057D01*
Y-4016238D01*
X-163241Y-4033034D01*
X-150386Y-4045890D01*
X-133589Y-4052847D01*
X-115408D01*
X-98612Y-4045890D01*
X-85756Y-4033034D01*
X-78799Y-4016238D01*
Y-3998057D01*
X-85756Y-3981261D01*
X-98612Y-3968405D01*
X-115408Y-3961447D01*
D02*
G37*
G36*
X-65408Y-4061448D02*
X-83589D01*
X-100386Y-4068405D01*
X-113241Y-4081261D01*
X-120199Y-4098057D01*
Y-4116238D01*
X-113241Y-4133034D01*
X-100386Y-4145890D01*
X-83589Y-4152847D01*
X-65408D01*
X-48612Y-4145890D01*
X-35756Y-4133034D01*
X-28799Y-4116238D01*
Y-4098057D01*
X-35756Y-4081261D01*
X-48612Y-4068405D01*
X-65408Y-4061448D01*
D02*
G37*
G36*
X-465408D02*
X-483589D01*
X-500386Y-4068405D01*
X-513241Y-4081261D01*
X-520199Y-4098057D01*
Y-4116238D01*
X-513241Y-4133034D01*
X-500386Y-4145890D01*
X-483589Y-4152847D01*
X-465408D01*
X-448612Y-4145890D01*
X-435756Y-4133034D01*
X-428799Y-4116238D01*
Y-4098057D01*
X-435756Y-4081261D01*
X-448612Y-4068405D01*
X-465408Y-4061448D01*
D02*
G37*
G36*
X-1290408Y-4111448D02*
X-1308589D01*
X-1325385Y-4118406D01*
X-1338241Y-4131261D01*
X-1345198Y-4148058D01*
Y-4166239D01*
X-1338241Y-4183035D01*
X-1325385Y-4195891D01*
X-1308589Y-4202848D01*
X-1290408D01*
X-1273612Y-4195891D01*
X-1260756Y-4183035D01*
X-1253799Y-4166239D01*
Y-4148058D01*
X-1260756Y-4131261D01*
X-1273612Y-4118406D01*
X-1290408Y-4111448D01*
D02*
G37*
G36*
X309592Y-4211448D02*
X291411D01*
X274614Y-4218405D01*
X261759Y-4231261D01*
X254801Y-4248057D01*
Y-4266238D01*
X261759Y-4283034D01*
X274614Y-4295890D01*
X291411Y-4302847D01*
X309592D01*
X326388Y-4295890D01*
X339244Y-4283034D01*
X346201Y-4266238D01*
Y-4248057D01*
X339244Y-4231261D01*
X326388Y-4218405D01*
X309592Y-4211448D01*
D02*
G37*
G36*
X-1290408Y-4311448D02*
X-1308589D01*
X-1325385Y-4318405D01*
X-1338241Y-4331261D01*
X-1345198Y-4348058D01*
Y-4366238D01*
X-1338241Y-4383035D01*
X-1325385Y-4395891D01*
X-1308589Y-4402848D01*
X-1290408D01*
X-1273612Y-4395891D01*
X-1260756Y-4383035D01*
X-1253799Y-4366238D01*
Y-4348058D01*
X-1260756Y-4331261D01*
X-1273612Y-4318405D01*
X-1290408Y-4311448D01*
D02*
G37*
G36*
X-207908Y-4341448D02*
X-226089D01*
X-242886Y-4348405D01*
X-255741Y-4361261D01*
X-262699Y-4378057D01*
Y-4396238D01*
X-255741Y-4413034D01*
X-242886Y-4425890D01*
X-226089Y-4432847D01*
X-207908D01*
X-191112Y-4425890D01*
X-178256Y-4413034D01*
X-171299Y-4396238D01*
Y-4378057D01*
X-178256Y-4361261D01*
X-191112Y-4348405D01*
X-207908Y-4341448D01*
D02*
G37*
G36*
X-765408Y-4161447D02*
X-783589D01*
X-800386Y-4168405D01*
X-813241Y-4181260D01*
X-820199Y-4198057D01*
Y-4216238D01*
X-813241Y-4233034D01*
X-800386Y-4245890D01*
X-789801Y-4250274D01*
Y-4264021D01*
X-800386Y-4268405D01*
X-813241Y-4281260D01*
X-820199Y-4298057D01*
Y-4316238D01*
X-813241Y-4333034D01*
X-800386Y-4345890D01*
X-789801Y-4350274D01*
Y-4364021D01*
X-800386Y-4368405D01*
X-813241Y-4381260D01*
X-820199Y-4398057D01*
Y-4416238D01*
X-813241Y-4433034D01*
X-800386Y-4445890D01*
X-783589Y-4452847D01*
X-765408D01*
X-748612Y-4445890D01*
X-735756Y-4433034D01*
X-728799Y-4416238D01*
Y-4398057D01*
X-735756Y-4381260D01*
X-748612Y-4368405D01*
X-759196Y-4364021D01*
Y-4350274D01*
X-748612Y-4345890D01*
X-735756Y-4333034D01*
X-728799Y-4316238D01*
Y-4298057D01*
X-735756Y-4281260D01*
X-748612Y-4268405D01*
X-759196Y-4264021D01*
Y-4250274D01*
X-748612Y-4245890D01*
X-735756Y-4233034D01*
X-728799Y-4216238D01*
Y-4198057D01*
X-735756Y-4181260D01*
X-748612Y-4168405D01*
X-765408Y-4161447D01*
D02*
G37*
G36*
X-12909Y-4336047D02*
X-31089D01*
X-47886Y-4343005D01*
X-60742Y-4355860D01*
X-67699Y-4372657D01*
Y-4390838D01*
X-60742Y-4407634D01*
X-47886Y-4420490D01*
X-38267Y-4424474D01*
Y-4438221D01*
X-47886Y-4442205D01*
X-52453Y-4446771D01*
X-60749Y-4455053D01*
X-69046Y-4446771D01*
X-73612Y-4442205D01*
X-90409Y-4435248D01*
X-108589D01*
X-125386Y-4442205D01*
X-138242Y-4455061D01*
X-145199Y-4471858D01*
Y-4490039D01*
X-138242Y-4506835D01*
X-125386Y-4519691D01*
X-108589Y-4526648D01*
X-90409D01*
X-73612Y-4519691D01*
X-69045Y-4515124D01*
X-60749Y-4506842D01*
X-52452Y-4515124D01*
X-47886Y-4519690D01*
X-31089Y-4526647D01*
X-12909D01*
X3888Y-4519690D01*
X14251Y-4509327D01*
X24614Y-4519691D01*
X41411Y-4526648D01*
X59592D01*
X76388Y-4519691D01*
X89244Y-4506835D01*
X96201Y-4490039D01*
Y-4471858D01*
X89244Y-4455061D01*
X76388Y-4442205D01*
X59592Y-4435248D01*
X41411D01*
X24614Y-4442205D01*
X14252Y-4452568D01*
X3888Y-4442205D01*
X-5730Y-4438221D01*
Y-4424474D01*
X3888Y-4420490D01*
X16744Y-4407634D01*
X23701Y-4390838D01*
Y-4372657D01*
X16744Y-4355860D01*
X3888Y-4343005D01*
X-12909Y-4336047D01*
D02*
G37*
G36*
X732633Y-4376743D02*
X714452D01*
X697655Y-4383700D01*
X684800Y-4396556D01*
X677842Y-4413353D01*
Y-4431533D01*
X684800Y-4448330D01*
X697655Y-4461186D01*
X714452Y-4468143D01*
X732633D01*
X749429Y-4461186D01*
X762285Y-4448330D01*
X769242Y-4431533D01*
Y-4413353D01*
X762285Y-4396556D01*
X749429Y-4383700D01*
X732633Y-4376743D01*
D02*
G37*
G36*
X-1290408Y-4511448D02*
X-1308589D01*
X-1325385Y-4518405D01*
X-1338241Y-4531261D01*
X-1345198Y-4548057D01*
Y-4566238D01*
X-1338241Y-4583035D01*
X-1325385Y-4595890D01*
X-1308589Y-4602848D01*
X-1290408D01*
X-1273612Y-4595890D01*
X-1260756Y-4583035D01*
X-1253799Y-4566238D01*
Y-4548057D01*
X-1260756Y-4531261D01*
X-1273612Y-4518405D01*
X-1290408Y-4511448D01*
D02*
G37*
G36*
Y-4711448D02*
X-1308589D01*
X-1325385Y-4718405D01*
X-1338241Y-4731261D01*
X-1345198Y-4748057D01*
Y-4766238D01*
X-1338241Y-4783035D01*
X-1325385Y-4795890D01*
X-1308589Y-4802848D01*
X-1290408D01*
X-1273612Y-4795890D01*
X-1260756Y-4783035D01*
X-1253799Y-4766238D01*
Y-4748057D01*
X-1260756Y-4731261D01*
X-1273612Y-4718405D01*
X-1290408Y-4711448D01*
D02*
G37*
G36*
X-690910Y-4754300D02*
X-709091D01*
X-725887Y-4761257D01*
X-738743Y-4774113D01*
X-745700Y-4790910D01*
Y-4809090D01*
X-738743Y-4825887D01*
X-725887Y-4838743D01*
X-709091Y-4845700D01*
X-690910D01*
X-674113Y-4838743D01*
X-661258Y-4825887D01*
X-654300Y-4809090D01*
Y-4790910D01*
X-661258Y-4774113D01*
X-674113Y-4761257D01*
X-690910Y-4754300D01*
D02*
G37*
G36*
X-1290408Y-4911448D02*
X-1308589D01*
X-1325385Y-4918405D01*
X-1338241Y-4931261D01*
X-1345198Y-4948057D01*
Y-4966238D01*
X-1338241Y-4983034D01*
X-1325385Y-4995890D01*
X-1308589Y-5002848D01*
X-1290408D01*
X-1273612Y-4995890D01*
X-1260756Y-4983034D01*
X-1253799Y-4966238D01*
Y-4948057D01*
X-1260756Y-4931261D01*
X-1273612Y-4918405D01*
X-1290408Y-4911448D01*
D02*
G37*
G36*
X-500515Y-4948983D02*
X-518696D01*
X-535493Y-4955940D01*
X-548348Y-4968796D01*
X-555306Y-4985592D01*
Y-5003773D01*
X-548348Y-5020570D01*
X-535493Y-5033425D01*
X-518696Y-5040383D01*
X-500515D01*
X-483719Y-5033425D01*
X-470863Y-5020570D01*
X-463906Y-5003773D01*
Y-4985592D01*
X-470863Y-4968796D01*
X-483719Y-4955940D01*
X-500515Y-4948983D01*
D02*
G37*
G36*
X-1290408Y-5111447D02*
X-1308589D01*
X-1325385Y-5118405D01*
X-1338241Y-5131261D01*
X-1345198Y-5148057D01*
Y-5166238D01*
X-1338241Y-5183034D01*
X-1325385Y-5195890D01*
X-1308589Y-5202847D01*
X-1290408D01*
X-1273612Y-5195890D01*
X-1260756Y-5183034D01*
X-1253799Y-5166238D01*
Y-5148057D01*
X-1260756Y-5131261D01*
X-1273612Y-5118405D01*
X-1290408Y-5111447D01*
D02*
G37*
G36*
X-890408Y-5311447D02*
X-908589D01*
X-925386Y-5318405D01*
X-938241Y-5331260D01*
X-945199Y-5348057D01*
Y-5366238D01*
X-938241Y-5383034D01*
X-925386Y-5395890D01*
X-908589Y-5402847D01*
X-890408D01*
X-873612Y-5395890D01*
X-860756Y-5383034D01*
X-853799Y-5366238D01*
Y-5348057D01*
X-860756Y-5331260D01*
X-873612Y-5318405D01*
X-890408Y-5311447D01*
D02*
G37*
G36*
X-1090408D02*
X-1108589D01*
X-1125386Y-5318405D01*
X-1138241Y-5331260D01*
X-1145199Y-5348057D01*
Y-5366238D01*
X-1138241Y-5383034D01*
X-1125386Y-5395890D01*
X-1108589Y-5402847D01*
X-1090408D01*
X-1073612Y-5395890D01*
X-1060756Y-5383034D01*
X-1053799Y-5366238D01*
Y-5348057D01*
X-1060756Y-5331260D01*
X-1073612Y-5318405D01*
X-1090408Y-5311447D01*
D02*
G37*
G36*
X-1290408D02*
X-1308589D01*
X-1325386Y-5318405D01*
X-1338241Y-5331260D01*
X-1345199Y-5348057D01*
Y-5366238D01*
X-1338241Y-5383034D01*
X-1325386Y-5395890D01*
X-1308589Y-5402847D01*
X-1290408D01*
X-1273612Y-5395890D01*
X-1260756Y-5383034D01*
X-1253799Y-5366238D01*
Y-5348057D01*
X-1260756Y-5331260D01*
X-1273612Y-5318405D01*
X-1290408Y-5311447D01*
D02*
G37*
G36*
X909592Y-5461448D02*
X891411D01*
X874614Y-5468405D01*
X861758Y-5481261D01*
X854801Y-5498057D01*
Y-5510631D01*
X842101Y-5513157D01*
X839244Y-5506260D01*
X826388Y-5493404D01*
X809592Y-5486447D01*
X791411D01*
X774615Y-5493404D01*
X761759Y-5506260D01*
X754802Y-5523057D01*
Y-5541237D01*
X761759Y-5558034D01*
X774615Y-5570890D01*
X791411Y-5577847D01*
X809592D01*
X826388Y-5570890D01*
X839244Y-5558034D01*
X846202Y-5541237D01*
Y-5528663D01*
X858902Y-5526137D01*
X861758Y-5533034D01*
X874614Y-5545890D01*
X891411Y-5552847D01*
X909592D01*
X926388Y-5545890D01*
X939244Y-5533034D01*
X946201Y-5516238D01*
Y-5498057D01*
X939244Y-5481261D01*
X926388Y-5468405D01*
X909592Y-5461448D01*
D02*
G37*
G36*
X1046300Y-5458291D02*
X1028119D01*
X1011322Y-5465249D01*
X998467Y-5478104D01*
X991509Y-5494901D01*
Y-5513082D01*
X998467Y-5529878D01*
X1011322Y-5542734D01*
X1028119Y-5549691D01*
X1046300D01*
X1063096Y-5542734D01*
X1075952Y-5529878D01*
X1082909Y-5513082D01*
Y-5494901D01*
X1075952Y-5478104D01*
X1063096Y-5465249D01*
X1046300Y-5458291D01*
D02*
G37*
G36*
X309090Y-5904300D02*
X290910D01*
X274113Y-5911257D01*
X261257Y-5924113D01*
X256873Y-5934697D01*
X243127D01*
X238743Y-5924113D01*
X225887Y-5911257D01*
X209091Y-5904300D01*
X190910D01*
X174113Y-5911257D01*
X161257Y-5924113D01*
X156873Y-5934698D01*
X143127D01*
X138743Y-5924113D01*
X125887Y-5911257D01*
X109090Y-5904300D01*
X90910D01*
X74113Y-5911257D01*
X61257Y-5924113D01*
X56873Y-5934698D01*
X43127D01*
X38743Y-5924113D01*
X25887Y-5911257D01*
X9090Y-5904300D01*
X-9090D01*
X-25887Y-5911257D01*
X-38743Y-5924113D01*
X-45700Y-5940910D01*
Y-5959090D01*
X-38743Y-5975887D01*
X-25887Y-5988743D01*
X-9090Y-5995700D01*
X9090D01*
X25887Y-5988743D01*
X38743Y-5975887D01*
X43127Y-5965303D01*
X56873D01*
X61257Y-5975887D01*
X74113Y-5988743D01*
X90910Y-5995700D01*
X109090D01*
X125887Y-5988743D01*
X138743Y-5975887D01*
X143127Y-5965303D01*
X156873D01*
X161257Y-5975887D01*
X174113Y-5988743D01*
X190910Y-5995700D01*
X209091D01*
X225887Y-5988743D01*
X238743Y-5975887D01*
X243127Y-5965303D01*
X256873D01*
X261257Y-5975887D01*
X274113Y-5988743D01*
X290910Y-5995700D01*
X309090D01*
X325887Y-5988743D01*
X338743Y-5975887D01*
X345700Y-5959090D01*
Y-5940910D01*
X338743Y-5924113D01*
X325887Y-5911257D01*
X309090Y-5904300D01*
D02*
G37*
G36*
X-5537000Y-6228671D02*
X-5612300D01*
Y-6352300D01*
X-5488671D01*
Y-6277000D01*
X-5492350Y-6258505D01*
X-5502826Y-6242826D01*
X-5518505Y-6232350D01*
X-5537000Y-6228671D01*
D02*
G37*
G36*
X-5637700D02*
X-5713000D01*
X-5731495Y-6232350D01*
X-5747173Y-6242826D01*
X-5757650Y-6258505D01*
X-5761329Y-6277000D01*
Y-6352300D01*
X-5637700D01*
Y-6228671D01*
D02*
G37*
G36*
X4700000Y-6385699D02*
X4691561Y-6386252D01*
X4667230Y-6386252D01*
X4666353Y-6386615D01*
X4665435Y-6386370D01*
X4641308Y-6389546D01*
X4632870Y-6390099D01*
X4624576Y-6391749D01*
X4600453Y-6394925D01*
X4599630Y-6395400D01*
X4598689Y-6395276D01*
X4575185Y-6401573D01*
X4566889Y-6403224D01*
X4558879Y-6405942D01*
X4535379Y-6412239D01*
X4534626Y-6412818D01*
X4533676D01*
X4511201Y-6422127D01*
X4503186Y-6424848D01*
X4495594Y-6428592D01*
X4473122Y-6437900D01*
X4472451Y-6438571D01*
X4471509Y-6438695D01*
X4450443Y-6450858D01*
X4442849Y-6454603D01*
X4435810Y-6459306D01*
X4414747Y-6471467D01*
X4414169Y-6472220D01*
X4413252Y-6472466D01*
X4393954Y-6487274D01*
X4386914Y-6491978D01*
X4380547Y-6497561D01*
X4361253Y-6512366D01*
X4360778Y-6513188D01*
X4359901Y-6513552D01*
X4342703Y-6530749D01*
X4336334Y-6536334D01*
X4330750Y-6542702D01*
X4313554Y-6559898D01*
X4313191Y-6560775D01*
X4312369Y-6561250D01*
X4297565Y-6580543D01*
X4291978Y-6586914D01*
X4287270Y-6593959D01*
X4272468Y-6613249D01*
X4272223Y-6614166D01*
X4271469Y-6614744D01*
X4259313Y-6635800D01*
X4254602Y-6642850D01*
X4250852Y-6650454D01*
X4238698Y-6671506D01*
X4238574Y-6672448D01*
X4237902Y-6673119D01*
X4228600Y-6695578D01*
X4224848Y-6703186D01*
X4222121Y-6711218D01*
X4212820Y-6733673D01*
Y-6734623D01*
X4212242Y-6735376D01*
X4205950Y-6758857D01*
X4203223Y-6766889D01*
X4201569Y-6775208D01*
X4195278Y-6798686D01*
X4195402Y-6799627D01*
X4194927Y-6800450D01*
X4191754Y-6824548D01*
X4190099Y-6832871D01*
X4189544Y-6841337D01*
X4186372Y-6865433D01*
X4186617Y-6866350D01*
X4186254Y-6867227D01*
X4186255Y-6891526D01*
X4185699Y-6900000D01*
X4186255Y-6908474D01*
X4186254Y-6932770D01*
X4186617Y-6933648D01*
X4186372Y-6934564D01*
X4189544Y-6958658D01*
X4190099Y-6967130D01*
X4191755Y-6975455D01*
X4194927Y-6999548D01*
X4195402Y-7000370D01*
X4195278Y-7001311D01*
X4201567Y-7024784D01*
X4203223Y-7033111D01*
X4205952Y-7041151D01*
X4212242Y-7064622D01*
X4212820Y-7065375D01*
Y-7066324D01*
X4222118Y-7088772D01*
X4224848Y-7096815D01*
X4228604Y-7104433D01*
X4237902Y-7126879D01*
X4238573Y-7127550D01*
X4238697Y-7128491D01*
X4250845Y-7149532D01*
X4254602Y-7157151D01*
X4259322Y-7164214D01*
X4271469Y-7185254D01*
X4272222Y-7185832D01*
X4272468Y-7186749D01*
X4287258Y-7206023D01*
X4291978Y-7213087D01*
X4297579Y-7219474D01*
X4312369Y-7238748D01*
X4313191Y-7239223D01*
X4313554Y-7240100D01*
X4330733Y-7257278D01*
X4336334Y-7263666D01*
X4342722Y-7269268D01*
X4359901Y-7286446D01*
X4360778Y-7286810D01*
X4361253Y-7287632D01*
X4380526Y-7302421D01*
X4386914Y-7308022D01*
X4393979Y-7312744D01*
X4413252Y-7327532D01*
X4414169Y-7327778D01*
X4414747Y-7328531D01*
X4435781Y-7340675D01*
X4442849Y-7345398D01*
X4450475Y-7349159D01*
X4471509Y-7361303D01*
X4472451Y-7361426D01*
X4473122Y-7362098D01*
X4495560Y-7371392D01*
X4503186Y-7375152D01*
X4511238Y-7377886D01*
X4533677Y-7387180D01*
X4534626D01*
X4535380Y-7387758D01*
X4558838Y-7394044D01*
X4566889Y-7396777D01*
X4575229Y-7398436D01*
X4598690Y-7404722D01*
X4599631Y-7404598D01*
X4600454Y-7405073D01*
X4624530Y-7408242D01*
X4632870Y-7409901D01*
X4641357Y-7410457D01*
X4665436Y-7413627D01*
X4666353Y-7413382D01*
X4667231Y-7413745D01*
X4691511Y-7413745D01*
X4700000Y-7414301D01*
X4708488Y-7413745D01*
X4732774Y-7413745D01*
X4733651Y-7413382D01*
X4734568Y-7413628D01*
X4758658Y-7410456D01*
X4767130Y-7409901D01*
X4775452Y-7408246D01*
X4799551Y-7405073D01*
X4800373Y-7404599D01*
X4801315Y-7404723D01*
X4824801Y-7398430D01*
X4833111Y-7396777D01*
X4841132Y-7394054D01*
X4864625Y-7387759D01*
X4865378Y-7387181D01*
X4866328D01*
X4888802Y-7377872D01*
X4896814Y-7375152D01*
X4904402Y-7371410D01*
X4926882Y-7362099D01*
X4927554Y-7361428D01*
X4928495Y-7361304D01*
X4949569Y-7349136D01*
X4957151Y-7345398D01*
X4964178Y-7340702D01*
X4985257Y-7328532D01*
X4985835Y-7327779D01*
X4986752Y-7327533D01*
X5006065Y-7312714D01*
X5013086Y-7308022D01*
X5019435Y-7302455D01*
X5038752Y-7287633D01*
X5039226Y-7286811D01*
X5040104Y-7286447D01*
X5057320Y-7269231D01*
X5063666Y-7263666D01*
X5069230Y-7257321D01*
X5086450Y-7240101D01*
X5086813Y-7239224D01*
X5087635Y-7238749D01*
X5102459Y-7219430D01*
X5108022Y-7213087D01*
X5112710Y-7206071D01*
X5127536Y-7186750D01*
X5127781Y-7185833D01*
X5128535Y-7185255D01*
X5140709Y-7164167D01*
X5145398Y-7157151D01*
X5149131Y-7149581D01*
X5161306Y-7128492D01*
X5161430Y-7127551D01*
X5162101Y-7126880D01*
X5171418Y-7104388D01*
X5175152Y-7096815D01*
X5177867Y-7088818D01*
X5187183Y-7066325D01*
Y-7065376D01*
X5187761Y-7064622D01*
X5194060Y-7041112D01*
X5196776Y-7033111D01*
X5198425Y-7024821D01*
X5204724Y-7001312D01*
X5204600Y-7000371D01*
X5205075Y-6999548D01*
X5208250Y-6975428D01*
X5209901Y-6967130D01*
X5210455Y-6958684D01*
X5213629Y-6934566D01*
X5213384Y-6933649D01*
X5213747Y-6932771D01*
X5213747Y-6908458D01*
X5214301Y-6900000D01*
X5213747Y-6891543D01*
X5213747Y-6867228D01*
X5213384Y-6866351D01*
X5213629Y-6865434D01*
X5210455Y-6841317D01*
X5209901Y-6832871D01*
X5208250Y-6824570D01*
X5205075Y-6800451D01*
X5204600Y-6799629D01*
X5204724Y-6798687D01*
X5198426Y-6775184D01*
X5196776Y-6766889D01*
X5194059Y-6758883D01*
X5187761Y-6735377D01*
X5187183Y-6734624D01*
Y-6733674D01*
X5177868Y-6711186D01*
X5175152Y-6703186D01*
X5171416Y-6695610D01*
X5162101Y-6673120D01*
X5161429Y-6672448D01*
X5161305Y-6671507D01*
X5149132Y-6650422D01*
X5145398Y-6642850D01*
X5140708Y-6635830D01*
X5128534Y-6614744D01*
X5127781Y-6614166D01*
X5127535Y-6613249D01*
X5112709Y-6593928D01*
X5108022Y-6586914D01*
X5102460Y-6580571D01*
X5087634Y-6561250D01*
X5086812Y-6560775D01*
X5086449Y-6559898D01*
X5069228Y-6542677D01*
X5063666Y-6536334D01*
X5057324Y-6530773D01*
X5040103Y-6513551D01*
X5039225Y-6513188D01*
X5038751Y-6512366D01*
X5019428Y-6497539D01*
X5013086Y-6491978D01*
X5006074Y-6487292D01*
X4986752Y-6472466D01*
X4985835Y-6472220D01*
X4985256Y-6471467D01*
X4964165Y-6459289D01*
X4957151Y-6454603D01*
X4949584Y-6450871D01*
X4928494Y-6438695D01*
X4927553Y-6438571D01*
X4926881Y-6437899D01*
X4904382Y-6428580D01*
X4896814Y-6424848D01*
X4888823Y-6422135D01*
X4866327Y-6412817D01*
X4865378D01*
X4864625Y-6412239D01*
X4841104Y-6405937D01*
X4833111Y-6403224D01*
X4824833Y-6401577D01*
X4801314Y-6395275D01*
X4800372Y-6395399D01*
X4799550Y-6394924D01*
X4775413Y-6391747D01*
X4767130Y-6390099D01*
X4758700Y-6389547D01*
X4734568Y-6386370D01*
X4733651Y-6386615D01*
X4732773Y-6386252D01*
X4708439Y-6386252D01*
X4700000Y-6385699D01*
D02*
G37*
G36*
X-3609707Y-6354290D02*
X-3627888D01*
X-3644685Y-6361247D01*
X-3657540Y-6374103D01*
X-3664498Y-6390900D01*
Y-6409080D01*
X-3657540Y-6425877D01*
X-3644685Y-6438733D01*
X-3627888Y-6445690D01*
X-3609707D01*
X-3592911Y-6438733D01*
X-3580055Y-6425877D01*
X-3573098Y-6409080D01*
Y-6390900D01*
X-3580055Y-6374103D01*
X-3592911Y-6361247D01*
X-3609707Y-6354290D01*
D02*
G37*
G36*
X3164124Y-6324203D02*
X3149922D01*
X3136801Y-6329638D01*
X3126758Y-6339680D01*
X3121323Y-6352802D01*
Y-6367004D01*
X3126758Y-6380125D01*
X3136801Y-6390168D01*
X3149922Y-6395603D01*
X3164124D01*
X3169675Y-6399312D01*
Y-6406065D01*
X3176633Y-6422861D01*
X3189488Y-6435717D01*
X3206285Y-6442674D01*
X3224466D01*
X3241262Y-6435717D01*
X3248560Y-6428419D01*
X3259665Y-6426205D01*
X3264472Y-6429101D01*
X3274113Y-6438743D01*
X3290910Y-6445700D01*
X3309090D01*
X3325887Y-6438743D01*
X3338743Y-6425887D01*
X3345700Y-6409090D01*
Y-6390909D01*
X3338743Y-6374113D01*
X3325887Y-6361257D01*
X3309090Y-6354300D01*
X3290910D01*
X3274113Y-6361257D01*
X3266815Y-6368555D01*
X3255710Y-6370770D01*
X3250904Y-6367873D01*
X3241262Y-6358232D01*
X3224466Y-6351275D01*
X3206285D01*
X3204457Y-6352032D01*
X3189309Y-6344560D01*
X3187288Y-6339680D01*
X3177246Y-6329638D01*
X3164124Y-6324203D01*
D02*
G37*
G36*
X2883967Y-6420730D02*
X2869765D01*
X2856644Y-6426165D01*
X2846601Y-6436208D01*
X2841166Y-6449329D01*
Y-6463531D01*
X2846601Y-6476653D01*
X2856644Y-6486695D01*
X2869765Y-6492130D01*
X2883967D01*
X2897089Y-6486695D01*
X2907131Y-6476653D01*
X2912566Y-6463531D01*
Y-6449329D01*
X2907131Y-6436208D01*
X2897089Y-6426165D01*
X2883967Y-6420730D01*
D02*
G37*
G36*
X-4765000Y-6351673D02*
X-4865000D01*
X-4883979Y-6354171D01*
X-4901664Y-6361497D01*
X-4916850Y-6373150D01*
X-4928503Y-6388336D01*
X-4935829Y-6406021D01*
X-4938327Y-6425000D01*
X-4935829Y-6443978D01*
X-4928503Y-6461663D01*
X-4916850Y-6476850D01*
X-4901664Y-6488503D01*
X-4883979Y-6495829D01*
X-4865000Y-6498327D01*
X-4765000D01*
X-4746021Y-6495829D01*
X-4728336Y-6488503D01*
X-4713150Y-6476850D01*
X-4701497Y-6461663D01*
X-4694171Y-6443978D01*
X-4691673Y-6425000D01*
X-4694171Y-6406021D01*
X-4701497Y-6388336D01*
X-4713150Y-6373150D01*
X-4728336Y-6361497D01*
X-4746021Y-6354171D01*
X-4765000Y-6351673D01*
D02*
G37*
G36*
X-5488671Y-6377700D02*
X-5612300D01*
Y-6501329D01*
X-5537000D01*
X-5518505Y-6497650D01*
X-5502826Y-6487173D01*
X-5492350Y-6471495D01*
X-5488671Y-6453000D01*
Y-6377700D01*
D02*
G37*
G36*
X-5637700D02*
X-5761329D01*
Y-6453000D01*
X-5757650Y-6471495D01*
X-5747173Y-6487173D01*
X-5731495Y-6497650D01*
X-5713000Y-6501329D01*
X-5637700D01*
Y-6377700D01*
D02*
G37*
G36*
X-4965000Y-6478863D02*
X-5002299D01*
Y-6552300D01*
X-4880535D01*
X-4881798Y-6542706D01*
X-4890403Y-6521932D01*
X-4904092Y-6504092D01*
X-4921931Y-6490404D01*
X-4942706Y-6481798D01*
X-4965000Y-6478863D01*
D02*
G37*
G36*
X-5027699D02*
X-5065000D01*
X-5087294Y-6481798D01*
X-5108068Y-6490404D01*
X-5125908Y-6504092D01*
X-5139597Y-6521932D01*
X-5148202Y-6542706D01*
X-5149465Y-6552300D01*
X-5027699D01*
Y-6478863D01*
D02*
G37*
G36*
X59091Y-6549238D02*
X40911D01*
X24114Y-6556195D01*
X11258Y-6569051D01*
X4301Y-6585848D01*
Y-6604028D01*
X11258Y-6620825D01*
X24114Y-6633681D01*
X40911Y-6640638D01*
X59091D01*
X75888Y-6633681D01*
X88744Y-6620825D01*
X93128Y-6610241D01*
X106874D01*
X111259Y-6620825D01*
X124114Y-6633681D01*
X140911Y-6640638D01*
X159092D01*
X175888Y-6633681D01*
X188744Y-6620825D01*
X195701Y-6604029D01*
Y-6585848D01*
X188744Y-6569052D01*
X175888Y-6556196D01*
X159092Y-6549239D01*
X140911D01*
X124114Y-6556196D01*
X111259Y-6569052D01*
X106874Y-6579636D01*
X93128D01*
X88744Y-6569051D01*
X75888Y-6556195D01*
X59091Y-6549238D01*
D02*
G37*
G36*
X-4109707Y-6554291D02*
X-4127888D01*
X-4144684Y-6561249D01*
X-4157540Y-6574104D01*
X-4164497Y-6590901D01*
Y-6609082D01*
X-4157540Y-6625878D01*
X-4144684Y-6638734D01*
X-4127888Y-6645691D01*
X-4109707D01*
X-4092910Y-6638734D01*
X-4080055Y-6625878D01*
X-4073097Y-6609082D01*
Y-6590901D01*
X-4080055Y-6574104D01*
X-4092910Y-6561249D01*
X-4109707Y-6554291D01*
D02*
G37*
G36*
X-3640910Y-6554300D02*
X-3659090D01*
X-3675887Y-6561257D01*
X-3688743Y-6574113D01*
X-3695700Y-6590910D01*
Y-6609090D01*
X-3688743Y-6625887D01*
X-3675887Y-6638743D01*
X-3659090Y-6645700D01*
X-3640910D01*
X-3624113Y-6638743D01*
X-3611257Y-6625887D01*
X-3604300Y-6609090D01*
Y-6590910D01*
X-3611257Y-6574113D01*
X-3624113Y-6561257D01*
X-3640910Y-6554300D01*
D02*
G37*
G36*
X-4880535Y-6577700D02*
X-5002299D01*
Y-6651137D01*
X-4965000D01*
X-4942706Y-6648202D01*
X-4921931Y-6639597D01*
X-4904092Y-6625908D01*
X-4890403Y-6608068D01*
X-4881798Y-6587294D01*
X-4880535Y-6577700D01*
D02*
G37*
G36*
X-5027699D02*
X-5149465D01*
X-5148202Y-6587294D01*
X-5139597Y-6608068D01*
X-5125908Y-6625908D01*
X-5108068Y-6639597D01*
X-5087294Y-6648202D01*
X-5065000Y-6651137D01*
X-5027699D01*
Y-6577700D01*
D02*
G37*
G36*
X-4765000Y-6641673D02*
X-4865000D01*
X-4883979Y-6644171D01*
X-4901664Y-6651497D01*
X-4916850Y-6663150D01*
X-4928503Y-6678336D01*
X-4935829Y-6696022D01*
X-4938327Y-6715000D01*
X-4935829Y-6733978D01*
X-4928503Y-6751664D01*
X-4916850Y-6766850D01*
X-4901664Y-6778503D01*
X-4883979Y-6785829D01*
X-4865000Y-6788327D01*
X-4765000D01*
X-4746021Y-6785829D01*
X-4728336Y-6778503D01*
X-4713150Y-6766850D01*
X-4701497Y-6751664D01*
X-4694171Y-6733978D01*
X-4691673Y-6715000D01*
X-4694171Y-6696022D01*
X-4701497Y-6678336D01*
X-4713150Y-6663150D01*
X-4728336Y-6651497D01*
X-4746021Y-6644171D01*
X-4765000Y-6641673D01*
D02*
G37*
G36*
X-3305228Y-6750867D02*
X-3319430D01*
X-3332551Y-6756301D01*
X-3342594Y-6766344D01*
X-3348029Y-6779465D01*
Y-6793668D01*
X-3342594Y-6806789D01*
X-3351650Y-6814735D01*
X-3364771Y-6809300D01*
X-3378973D01*
X-3392095Y-6814735D01*
X-3402137Y-6824777D01*
X-3407572Y-6837899D01*
Y-6852101D01*
X-3402137Y-6865222D01*
X-3392095Y-6875265D01*
X-3378973Y-6880700D01*
X-3364771D01*
X-3351650Y-6875265D01*
X-3341607Y-6865222D01*
X-3336172Y-6852101D01*
Y-6837899D01*
X-3341607Y-6824778D01*
X-3332551Y-6816832D01*
X-3319430Y-6822267D01*
X-3305228D01*
X-3292106Y-6816832D01*
X-3282064Y-6806789D01*
X-3276629Y-6793668D01*
Y-6779465D01*
X-3282064Y-6766344D01*
X-3292106Y-6756301D01*
X-3305228Y-6750867D01*
D02*
G37*
G36*
X-4782300Y-6810535D02*
Y-6932300D01*
X-4708863D01*
Y-6895000D01*
X-4711798Y-6872706D01*
X-4720404Y-6851931D01*
X-4734092Y-6834092D01*
X-4751932Y-6820403D01*
X-4772706Y-6811798D01*
X-4782300Y-6810535D01*
D02*
G37*
G36*
X-4807700D02*
X-4817294Y-6811798D01*
X-4838069Y-6820403D01*
X-4855908Y-6834092D01*
X-4869597Y-6851931D01*
X-4878202Y-6872706D01*
X-4881137Y-6895000D01*
Y-6932300D01*
X-4807700D01*
Y-6810535D01*
D02*
G37*
G36*
X-3513737Y-6849875D02*
X-3531918D01*
X-3548715Y-6856833D01*
X-3561570Y-6869688D01*
X-3568528Y-6886485D01*
Y-6904666D01*
X-3561570Y-6921462D01*
X-3548715Y-6934318D01*
X-3531918Y-6941275D01*
X-3513737D01*
X-3496941Y-6934318D01*
X-3484085Y-6921462D01*
X-3477128Y-6904666D01*
Y-6886485D01*
X-3484085Y-6869688D01*
X-3496941Y-6856833D01*
X-3513737Y-6849875D01*
D02*
G37*
G36*
X-5116087Y-6807300D02*
X-5133913D01*
X-5151131Y-6811914D01*
X-5166569Y-6820827D01*
X-5179173Y-6833431D01*
X-5188086Y-6848869D01*
X-5192700Y-6866087D01*
Y-6883913D01*
X-5188086Y-6901131D01*
X-5179173Y-6916569D01*
X-5166569Y-6929173D01*
X-5151131Y-6938086D01*
X-5133913Y-6942700D01*
X-5116087D01*
X-5098869Y-6938086D01*
X-5083431Y-6929173D01*
X-5070827Y-6916569D01*
X-5061914Y-6901131D01*
X-5057300Y-6883913D01*
Y-6866087D01*
X-5061914Y-6848869D01*
X-5070827Y-6833431D01*
X-5083431Y-6820827D01*
X-5098869Y-6811914D01*
X-5116087Y-6807300D01*
D02*
G37*
G36*
X-5616087D02*
X-5633913D01*
X-5651131Y-6811914D01*
X-5666569Y-6820827D01*
X-5679173Y-6833431D01*
X-5688086Y-6848869D01*
X-5692700Y-6866087D01*
Y-6883913D01*
X-5688086Y-6901131D01*
X-5679173Y-6916569D01*
X-5666569Y-6929173D01*
X-5651131Y-6938086D01*
X-5633913Y-6942700D01*
X-5616087D01*
X-5598869Y-6938086D01*
X-5583431Y-6929173D01*
X-5570827Y-6916569D01*
X-5561914Y-6901131D01*
X-5557300Y-6883913D01*
Y-6866087D01*
X-5561914Y-6848869D01*
X-5570827Y-6833431D01*
X-5583431Y-6820827D01*
X-5598869Y-6811914D01*
X-5616087Y-6807300D01*
D02*
G37*
G36*
X-3940909Y-6854300D02*
X-3959090D01*
X-3975887Y-6861257D01*
X-3988742Y-6874113D01*
X-3995700Y-6890910D01*
Y-6909090D01*
X-3988742Y-6925887D01*
X-3975887Y-6938743D01*
X-3959090Y-6945700D01*
X-3940909D01*
X-3924113Y-6938743D01*
X-3911257Y-6925887D01*
X-3904300Y-6909090D01*
Y-6890910D01*
X-3911257Y-6874113D01*
X-3924113Y-6861257D01*
X-3940909Y-6854300D01*
D02*
G37*
G36*
X3809090Y-6904300D02*
X3790910D01*
X3774113Y-6911257D01*
X3761257Y-6924113D01*
X3754300Y-6940910D01*
Y-6959090D01*
X3761257Y-6975887D01*
X3774113Y-6988743D01*
X3790910Y-6995700D01*
X3809090D01*
X3825887Y-6988743D01*
X3838743Y-6975887D01*
X3845700Y-6959090D01*
Y-6940910D01*
X3838743Y-6924113D01*
X3825887Y-6911257D01*
X3809090Y-6904300D01*
D02*
G37*
G36*
X3707618Y-6982035D02*
X3689438D01*
X3672641Y-6988992D01*
X3659785Y-7001848D01*
X3652828Y-7018644D01*
Y-7036825D01*
X3659785Y-7053621D01*
X3672641Y-7066477D01*
X3689438Y-7073434D01*
X3707618D01*
X3724415Y-7066477D01*
X3737271Y-7053621D01*
X3744228Y-7036825D01*
Y-7018644D01*
X3737271Y-7001848D01*
X3724415Y-6988992D01*
X3707618Y-6982035D01*
D02*
G37*
G36*
X-4708863Y-6957700D02*
X-4782300D01*
Y-7079465D01*
X-4772706Y-7078202D01*
X-4751932Y-7069597D01*
X-4734092Y-7055908D01*
X-4720404Y-7038069D01*
X-4711798Y-7017294D01*
X-4708863Y-6995000D01*
Y-6957700D01*
D02*
G37*
G36*
X-4807700D02*
X-4881137D01*
Y-6995000D01*
X-4878202Y-7017294D01*
X-4869597Y-7038069D01*
X-4855908Y-7055908D01*
X-4838069Y-7069597D01*
X-4817294Y-7078202D01*
X-4807700Y-7079465D01*
Y-6957700D01*
D02*
G37*
G36*
X-548814Y-7139562D02*
X-566995D01*
X-583791Y-7146519D01*
X-596647Y-7159375D01*
X-603604Y-7176171D01*
Y-7194352D01*
X-607140Y-7195554D01*
X-608611D01*
X-625407Y-7202511D01*
X-638263Y-7215367D01*
X-645220Y-7232163D01*
Y-7250344D01*
X-638263Y-7267140D01*
X-625407Y-7279996D01*
X-608611Y-7286953D01*
X-590430D01*
X-573634Y-7279996D01*
X-560778Y-7267140D01*
X-553821Y-7250344D01*
Y-7232163D01*
X-550285Y-7230961D01*
X-548814D01*
X-532017Y-7224004D01*
X-519162Y-7211148D01*
X-512204Y-7194352D01*
Y-7176171D01*
X-519162Y-7159375D01*
X-532017Y-7146519D01*
X-548814Y-7139562D01*
D02*
G37*
G36*
X-5075000Y-7161673D02*
X-5175000D01*
X-5193978Y-7164171D01*
X-5211664Y-7171497D01*
X-5226850Y-7183150D01*
X-5238503Y-7198336D01*
X-5245829Y-7216022D01*
X-5248327Y-7235000D01*
X-5245829Y-7253978D01*
X-5238503Y-7271664D01*
X-5226850Y-7286850D01*
X-5211664Y-7298503D01*
X-5193978Y-7305829D01*
X-5175000Y-7308327D01*
X-5075000D01*
X-5056021Y-7305829D01*
X-5038336Y-7298503D01*
X-5023149Y-7286850D01*
X-5011496Y-7271664D01*
X-5004171Y-7253978D01*
X-5001672Y-7235000D01*
X-5004171Y-7216022D01*
X-5011496Y-7198336D01*
X-5023149Y-7183150D01*
X-5038336Y-7171497D01*
X-5056021Y-7164171D01*
X-5075000Y-7161673D01*
D02*
G37*
G36*
X-5287000Y-7288671D02*
X-5362300D01*
Y-7412300D01*
X-5238671D01*
Y-7337000D01*
X-5242350Y-7318505D01*
X-5252826Y-7302826D01*
X-5268505Y-7292350D01*
X-5287000Y-7288671D01*
D02*
G37*
G36*
X-5575000Y-7251673D02*
X-5675000D01*
X-5693978Y-7254171D01*
X-5711664Y-7261497D01*
X-5726850Y-7273150D01*
X-5738503Y-7288336D01*
X-5745829Y-7306022D01*
X-5748327Y-7325000D01*
X-5745829Y-7343978D01*
X-5738503Y-7361664D01*
X-5726850Y-7376850D01*
X-5711664Y-7388503D01*
X-5693978Y-7395829D01*
X-5675000Y-7398327D01*
X-5575000D01*
X-5556021Y-7395829D01*
X-5538336Y-7388503D01*
X-5524029Y-7377525D01*
X-5520158Y-7378231D01*
X-5511329Y-7382307D01*
Y-7412300D01*
X-5387700D01*
Y-7288671D01*
X-5463000D01*
X-5481494Y-7292350D01*
X-5492924Y-7299987D01*
X-5505750Y-7297810D01*
X-5508155Y-7296402D01*
X-5511496Y-7288336D01*
X-5523149Y-7273150D01*
X-5538336Y-7261497D01*
X-5556021Y-7254171D01*
X-5575000Y-7251673D01*
D02*
G37*
G36*
X339094Y-6679229D02*
X320913D01*
X304117Y-6686186D01*
X291261Y-6699042D01*
X284304Y-6715838D01*
Y-6734019D01*
X291157Y-6750565D01*
Y-6836800D01*
X72532Y-7055425D01*
X64112Y-7068027D01*
X61155Y-7082893D01*
Y-7399302D01*
X54301Y-7415848D01*
Y-7434029D01*
X61258Y-7450825D01*
X74114Y-7463681D01*
X90911Y-7470638D01*
X109091D01*
X125888Y-7463681D01*
X138744Y-7450825D01*
X145701Y-7434029D01*
Y-7415848D01*
X138848Y-7399302D01*
Y-7098984D01*
X357472Y-6880359D01*
X365893Y-6867757D01*
X368850Y-6852891D01*
Y-6750565D01*
X375704Y-6734019D01*
Y-6715838D01*
X368746Y-6699042D01*
X355891Y-6686186D01*
X339094Y-6679229D01*
D02*
G37*
G36*
X-4390910Y-7254300D02*
X-4409090D01*
X-4425887Y-7261257D01*
X-4438743Y-7274113D01*
X-4445700Y-7290909D01*
Y-7309090D01*
X-4438743Y-7325887D01*
X-4425887Y-7338742D01*
X-4415303Y-7343127D01*
Y-7356873D01*
X-4425887Y-7361257D01*
X-4438743Y-7374113D01*
X-4445700Y-7390910D01*
Y-7409090D01*
X-4438743Y-7425887D01*
X-4425887Y-7438743D01*
X-4415303Y-7443127D01*
Y-7456873D01*
X-4425887Y-7461257D01*
X-4438743Y-7474113D01*
X-4445700Y-7490910D01*
Y-7509090D01*
X-4438743Y-7525887D01*
X-4425887Y-7538743D01*
X-4409090Y-7545700D01*
X-4390910D01*
X-4374113Y-7538743D01*
X-4361257Y-7525887D01*
X-4354300Y-7509090D01*
Y-7490910D01*
X-4361257Y-7474113D01*
X-4374113Y-7461257D01*
X-4384698Y-7456873D01*
Y-7443127D01*
X-4374113Y-7438743D01*
X-4361257Y-7425887D01*
X-4354300Y-7409090D01*
Y-7390910D01*
X-4361257Y-7374113D01*
X-4374113Y-7361257D01*
X-4384698Y-7356873D01*
Y-7343127D01*
X-4374113Y-7338742D01*
X-4361257Y-7325887D01*
X-4354300Y-7309090D01*
Y-7290909D01*
X-4361257Y-7274113D01*
X-4374113Y-7261257D01*
X-4390910Y-7254300D01*
D02*
G37*
G36*
X-5238671Y-7437700D02*
X-5362300D01*
Y-7561329D01*
X-5287000D01*
X-5268505Y-7557650D01*
X-5252826Y-7547173D01*
X-5242350Y-7531494D01*
X-5238671Y-7513000D01*
Y-7437700D01*
D02*
G37*
G36*
X-5387700D02*
X-5511329D01*
Y-7513000D01*
X-5507650Y-7531494D01*
X-5497173Y-7547173D01*
X-5481494Y-7557650D01*
X-5463000Y-7561329D01*
X-5387700D01*
Y-7437700D01*
D02*
G37*
G36*
X4109090Y-7554300D02*
X4090910D01*
X4074113Y-7561257D01*
X4061257Y-7574113D01*
X4054300Y-7590910D01*
Y-7609090D01*
X4061257Y-7625887D01*
X4074113Y-7638743D01*
X4090910Y-7645700D01*
X4109090D01*
X4125887Y-7638743D01*
X4138743Y-7625887D01*
X4145700Y-7609090D01*
Y-7590910D01*
X4138743Y-7574113D01*
X4125887Y-7561257D01*
X4109090Y-7554300D01*
D02*
G37*
G36*
X949090Y-7844320D02*
X930909D01*
X914113Y-7851277D01*
X901257Y-7864133D01*
X894300Y-7880930D01*
Y-7899110D01*
X901257Y-7915907D01*
X914113Y-7928763D01*
X930909Y-7935720D01*
X949090D01*
X965887Y-7928763D01*
X978743Y-7915907D01*
X985700Y-7899110D01*
Y-7880930D01*
X978743Y-7864133D01*
X965887Y-7851277D01*
X949090Y-7844320D01*
D02*
G37*
G36*
X-2690910Y-8304300D02*
X-2709090D01*
X-2725887Y-8311257D01*
X-2738743Y-8324113D01*
X-2743127Y-8334698D01*
X-2756873D01*
X-2761257Y-8324113D01*
X-2774113Y-8311257D01*
X-2790910Y-8304300D01*
X-2809090D01*
X-2825887Y-8311257D01*
X-2838743Y-8324113D01*
X-2845700Y-8340910D01*
Y-8359090D01*
X-2838743Y-8375887D01*
X-2825887Y-8388743D01*
X-2809090Y-8395700D01*
X-2790910D01*
X-2774113Y-8388743D01*
X-2761257Y-8375887D01*
X-2756873Y-8365303D01*
X-2743127D01*
X-2738743Y-8375887D01*
X-2725887Y-8388743D01*
X-2709090Y-8395700D01*
X-2690910D01*
X-2674113Y-8388743D01*
X-2661257Y-8375887D01*
X-2654300Y-8359090D01*
Y-8340910D01*
X-2661257Y-8324113D01*
X-2674113Y-8311257D01*
X-2690910Y-8304300D01*
D02*
G37*
G36*
X32102Y-8339238D02*
X17900D01*
X4779Y-8344673D01*
X-2179Y-8351630D01*
X-47820D01*
X-54777Y-8344673D01*
X-67898Y-8339238D01*
X-82100D01*
X-95222Y-8344673D01*
X-105264Y-8354716D01*
X-110699Y-8367837D01*
Y-8382039D01*
X-105264Y-8395161D01*
X-95222Y-8405203D01*
X-82100Y-8410638D01*
X-67898D01*
X-54777Y-8405203D01*
X-47819Y-8398246D01*
X-2179D01*
X4779Y-8405203D01*
X17900Y-8410638D01*
X32102D01*
X45223Y-8405203D01*
X55266Y-8395160D01*
X60701Y-8382039D01*
Y-8367837D01*
X55266Y-8354715D01*
X45223Y-8344673D01*
X32102Y-8339238D01*
D02*
G37*
G36*
X-1990909Y-8404300D02*
X-2009090D01*
X-2025887Y-8411257D01*
X-2038742Y-8424113D01*
X-2045700Y-8440910D01*
Y-8459091D01*
X-2038742Y-8475887D01*
X-2025887Y-8488743D01*
X-2009090Y-8495700D01*
X-1990909D01*
X-1974113Y-8488743D01*
X-1961257Y-8475887D01*
X-1954300Y-8459091D01*
Y-8440910D01*
X-1961257Y-8424113D01*
X-1974113Y-8411257D01*
X-1990909Y-8404300D01*
D02*
G37*
G36*
X-3934993Y-8480554D02*
X-3953173D01*
X-3969970Y-8487511D01*
X-3981485Y-8499025D01*
X-3988750Y-8499764D01*
X-3996017Y-8499026D01*
X-4007531Y-8487511D01*
X-4024327Y-8480554D01*
X-4042508D01*
X-4059305Y-8487511D01*
X-4072161Y-8500367D01*
X-4079118Y-8517164D01*
Y-8535344D01*
X-4072161Y-8552141D01*
X-4059305Y-8564997D01*
X-4042508Y-8571954D01*
X-4024327D01*
X-4007531Y-8564997D01*
X-3996016Y-8553482D01*
X-3988751Y-8552743D01*
X-3981484Y-8553482D01*
X-3969970Y-8564996D01*
X-3953173Y-8571953D01*
X-3934993D01*
X-3918196Y-8564996D01*
X-3905340Y-8552140D01*
X-3898383Y-8535344D01*
Y-8517163D01*
X-3905340Y-8500367D01*
X-3918196Y-8487511D01*
X-3934993Y-8480554D01*
D02*
G37*
G36*
X-1659672Y-8411557D02*
X-1677852D01*
X-1694649Y-8418515D01*
X-1707505Y-8431370D01*
X-1714462Y-8448167D01*
Y-8466348D01*
X-1707505Y-8483144D01*
X-1694649Y-8496000D01*
X-1677852Y-8502957D01*
X-1659672D01*
X-1642875Y-8496000D01*
X-1630019Y-8483144D01*
X-1623062Y-8466348D01*
Y-8448167D01*
X-1630019Y-8431370D01*
X-1642875Y-8418515D01*
X-1659672Y-8411557D01*
D02*
G37*
G36*
X297992Y-8569738D02*
X280010D01*
X263397Y-8576620D01*
X250682Y-8589335D01*
X243801Y-8605947D01*
Y-8623929D01*
X250682Y-8640542D01*
X263397Y-8653257D01*
X280010Y-8660138D01*
X297992D01*
X314605Y-8653257D01*
X327320Y-8640542D01*
X334201Y-8623929D01*
Y-8605947D01*
X327320Y-8589335D01*
X314605Y-8576620D01*
X297992Y-8569738D01*
D02*
G37*
G36*
X-280008D02*
X-297990D01*
X-314603Y-8576620D01*
X-327318Y-8589335D01*
X-334199Y-8605947D01*
Y-8623929D01*
X-327318Y-8640542D01*
X-314603Y-8653257D01*
X-297990Y-8660138D01*
X-280008D01*
X-263395Y-8653257D01*
X-250680Y-8640542D01*
X-243799Y-8623929D01*
Y-8605947D01*
X-250680Y-8589335D01*
X-263395Y-8576620D01*
X-280008Y-8569738D01*
D02*
G37*
G36*
X-3151672Y-8547252D02*
X-3169853D01*
X-3186649Y-8554209D01*
X-3199505Y-8567065D01*
X-3206462Y-8583861D01*
Y-8602042D01*
X-3199505Y-8618838D01*
X-3186649Y-8631694D01*
X-3186492Y-8631759D01*
Y-8644459D01*
X-3186649Y-8644525D01*
X-3199505Y-8657380D01*
X-3206462Y-8674177D01*
Y-8692358D01*
X-3199505Y-8709154D01*
X-3186649Y-8722010D01*
X-3169853Y-8728967D01*
X-3151672D01*
X-3134875Y-8722010D01*
X-3122020Y-8709154D01*
X-3115062Y-8692358D01*
Y-8674177D01*
X-3122020Y-8657380D01*
X-3134875Y-8644525D01*
X-3135033Y-8644459D01*
Y-8631759D01*
X-3134875Y-8631694D01*
X-3122020Y-8618838D01*
X-3115062Y-8602042D01*
Y-8583861D01*
X-3122020Y-8567065D01*
X-3134875Y-8554209D01*
X-3151672Y-8547252D01*
D02*
G37*
G36*
X-2998058Y-8554801D02*
X-3016238D01*
X-3033035Y-8561758D01*
X-3045891Y-8574614D01*
X-3052848Y-8591411D01*
Y-8609591D01*
X-3045891Y-8626388D01*
X-3033035Y-8639244D01*
X-3022450Y-8643628D01*
Y-8657374D01*
X-3033035Y-8661758D01*
X-3045891Y-8674614D01*
X-3052848Y-8691411D01*
Y-8709591D01*
X-3045891Y-8726388D01*
X-3033035Y-8739244D01*
X-3016238Y-8746201D01*
X-2998058D01*
X-2981261Y-8739244D01*
X-2968405Y-8726388D01*
X-2961448Y-8709591D01*
Y-8691411D01*
X-2968405Y-8674614D01*
X-2981261Y-8661758D01*
X-2991845Y-8657374D01*
Y-8643628D01*
X-2981261Y-8639244D01*
X-2968405Y-8626388D01*
X-2961448Y-8609591D01*
Y-8591411D01*
X-2968405Y-8574614D01*
X-2981261Y-8561758D01*
X-2998058Y-8554801D01*
D02*
G37*
G36*
X-1690909Y-8954300D02*
X-1709090D01*
X-1725887Y-8961257D01*
X-1738743Y-8974113D01*
X-1745700Y-8990910D01*
Y-9009090D01*
X-1738743Y-9025887D01*
X-1725887Y-9038743D01*
X-1709090Y-9045700D01*
X-1690909D01*
X-1674113Y-9038743D01*
X-1661257Y-9025887D01*
X-1654300Y-9009090D01*
Y-8990910D01*
X-1661257Y-8974113D01*
X-1674113Y-8961257D01*
X-1690909Y-8954300D01*
D02*
G37*
G36*
X-1840909D02*
X-1859090D01*
X-1875887Y-8961257D01*
X-1888742Y-8974113D01*
X-1895700Y-8990910D01*
Y-9009090D01*
X-1888742Y-9025887D01*
X-1875887Y-9038743D01*
X-1859090Y-9045700D01*
X-1840909D01*
X-1824113Y-9038743D01*
X-1811257Y-9025887D01*
X-1804300Y-9009090D01*
Y-8990910D01*
X-1811257Y-8974113D01*
X-1824113Y-8961257D01*
X-1840909Y-8954300D01*
D02*
G37*
G36*
X-1540909Y-8954301D02*
X-1559090D01*
X-1575887Y-8961258D01*
X-1588742Y-8974114D01*
X-1595700Y-8990910D01*
Y-9009091D01*
X-1588742Y-9025888D01*
X-1575887Y-9038743D01*
X-1559090Y-9045701D01*
X-1540909D01*
X-1524113Y-9038743D01*
X-1511257Y-9025888D01*
X-1504300Y-9009091D01*
Y-8990910D01*
X-1511257Y-8974114D01*
X-1524113Y-8961258D01*
X-1540909Y-8954301D01*
D02*
G37*
G36*
X-2457300Y-6359800D02*
X-2542700D01*
Y-6440199D01*
X-2525897D01*
Y-6457291D01*
X-2542709D01*
Y-6474102D01*
X-2611268D01*
X-2624113Y-6461257D01*
X-2640910Y-6454300D01*
X-2659090D01*
X-2675887Y-6461257D01*
X-2688743Y-6474113D01*
X-2695700Y-6490910D01*
Y-6509090D01*
X-2688743Y-6525887D01*
X-2675887Y-6538743D01*
X-2659090Y-6545700D01*
X-2651904D01*
X-2643418Y-6558400D01*
X-2645700Y-6563909D01*
Y-6582089D01*
X-2638743Y-6598886D01*
X-2625887Y-6611742D01*
X-2609091Y-6618699D01*
X-2590910D01*
X-2574113Y-6611742D01*
X-2561258Y-6598886D01*
X-2555400Y-6584743D01*
X-2542700Y-6587270D01*
Y-6640200D01*
X-2457300D01*
Y-6559800D01*
X-2474102D01*
Y-6542690D01*
X-2457310D01*
Y-6457291D01*
X-2474102D01*
Y-6440199D01*
X-2457300D01*
Y-6359800D01*
D02*
G37*
G36*
X-2887410Y-6404957D02*
X-2905591D01*
X-2922387Y-6411914D01*
X-2935243Y-6424770D01*
X-2942200Y-6441566D01*
Y-6459747D01*
X-2935243Y-6476544D01*
X-2922387Y-6489400D01*
X-2905591Y-6496357D01*
X-2887410D01*
X-2870614Y-6489400D01*
X-2867130Y-6485916D01*
X-2863256Y-6486000D01*
X-2852970Y-6489717D01*
X-2847473Y-6502987D01*
X-2834617Y-6515843D01*
X-2817821Y-6522800D01*
X-2799640D01*
X-2799534Y-6522757D01*
X-2789814Y-6532477D01*
X-2793307Y-6540910D01*
Y-6559091D01*
X-2786350Y-6575887D01*
X-2774706Y-6587531D01*
Y-6607303D01*
X-2792709D01*
Y-6624103D01*
X-2809800D01*
Y-6607300D01*
X-2890199D01*
Y-6624103D01*
X-2909801D01*
Y-6607301D01*
X-2990201D01*
Y-6692701D01*
X-2909801D01*
Y-6675898D01*
X-2890199D01*
Y-6692700D01*
X-2809800D01*
Y-6675898D01*
X-2792709D01*
Y-6692703D01*
X-2707310D01*
Y-6607303D01*
X-2722911D01*
Y-6589236D01*
X-2721720Y-6588743D01*
X-2708865Y-6575887D01*
X-2701907Y-6559091D01*
Y-6540910D01*
X-2708865Y-6524113D01*
X-2721720Y-6511257D01*
X-2738517Y-6504300D01*
X-2756698D01*
X-2756803Y-6504344D01*
X-2766523Y-6494624D01*
X-2763030Y-6486191D01*
Y-6468010D01*
X-2769988Y-6451213D01*
X-2782843Y-6438358D01*
X-2799640Y-6431400D01*
X-2817821D01*
X-2834617Y-6438358D01*
X-2838100Y-6441841D01*
X-2841975Y-6441757D01*
X-2852261Y-6438041D01*
X-2857758Y-6424770D01*
X-2870614Y-6411914D01*
X-2887410Y-6404957D01*
D02*
G37*
G36*
X-2590909Y-6654300D02*
X-2609090D01*
X-2625887Y-6661257D01*
X-2638743Y-6674113D01*
X-2645700Y-6690910D01*
Y-6709090D01*
X-2638743Y-6725887D01*
X-2625887Y-6738743D01*
X-2609090Y-6745700D01*
X-2590909D01*
X-2574113Y-6738743D01*
X-2561257Y-6725887D01*
X-2554300Y-6709090D01*
Y-6690910D01*
X-2561257Y-6674113D01*
X-2574113Y-6661257D01*
X-2590909Y-6654300D01*
D02*
G37*
G36*
X-2665910Y-6904300D02*
X-2684091D01*
X-2700887Y-6911257D01*
X-2713743Y-6924113D01*
X-2720700Y-6940910D01*
Y-6959090D01*
X-2713743Y-6975887D01*
X-2700887Y-6988743D01*
X-2684091Y-6995700D01*
X-2665910D01*
X-2649114Y-6988743D01*
X-2636258Y-6975887D01*
X-2629301Y-6959090D01*
Y-6940910D01*
X-2636258Y-6924113D01*
X-2649114Y-6911257D01*
X-2665910Y-6904300D01*
D02*
G37*
G36*
X-990910Y-7904300D02*
X-1009090D01*
X-1025887Y-7911257D01*
X-1038743Y-7924113D01*
X-1045700Y-7940909D01*
Y-7959090D01*
X-1038743Y-7975887D01*
X-1025887Y-7988742D01*
X-1009090Y-7995700D01*
X-990910D01*
X-974113Y-7988742D01*
X-961257Y-7975887D01*
X-954300Y-7959090D01*
Y-7940909D01*
X-961257Y-7924113D01*
X-974113Y-7911257D01*
X-990910Y-7904300D01*
D02*
G37*
%LPD*%
D11*
X1271196Y-2811985D02*
X1360510Y-2901299D01*
X300000Y554582D02*
X1271196Y-416614D01*
Y-2811985D02*
Y-416614D01*
X3400001Y-6900000D02*
X3441148D01*
X3460776Y-6880372D01*
X73000Y-8150000D02*
X558166D01*
X1080376Y-7627790D02*
X1935953D01*
X558166Y-8150000D02*
X1080376Y-7627790D01*
X-127000Y-7950000D02*
X73000Y-8150000D01*
X1935953Y-7627790D02*
X2008163Y-7700000D01*
X2839539D01*
X2934894Y-7604645D01*
X2971901D01*
X1400001Y-7950000D02*
Y-7949999D01*
X1550000Y-7800000D01*
X2000000D01*
X2065416Y-7734584D01*
X2987309D01*
X3029970Y-7691923D01*
Y-7626690D01*
X2673343Y-7276657D02*
X2700000Y-7250000D01*
X2166344Y-7276657D02*
X2673343D01*
X2041319Y-7401682D02*
X2166344Y-7276657D01*
X887120Y-7401682D02*
X2041319D01*
X518142Y-7770661D02*
X887120Y-7401682D01*
X541146Y-7811576D02*
X902722Y-7450000D01*
X2050000D01*
X2182755Y-7317245D01*
X2717391D01*
X-495785Y-7770661D02*
X518142D01*
X-525124Y-7800000D02*
X-495785Y-7770661D01*
X-1504000Y-7800000D02*
X-525124D01*
X-1654000Y-7950000D02*
X-1504000Y-7800000D01*
X-493311Y-8078939D02*
X-225948Y-7811576D01*
X541146D01*
X-1350001Y-7999999D02*
X-1204000D01*
X1654000Y-7950000D02*
X1654001Y-7950000D01*
X1703999Y-7999999D02*
X1850000D01*
X1654000Y-7950000D02*
X1703999Y-7999999D01*
X150000Y-7950000D02*
X150000Y-7950000D01*
X199999Y-7999999D02*
X346000D01*
X150000Y-7950000D02*
X199999Y-7999999D01*
X-1400000Y-7950000D02*
X-1350001Y-7999999D01*
X-1400000Y-7950000D02*
X-1399999Y-7949999D01*
X-1928939Y-8078939D02*
X-493311D01*
X-2150000Y-8300000D02*
X-1928939Y-8078939D01*
X-700000Y-5850000D02*
X-500000Y-6050000D01*
X750000D01*
X1344215Y-6644215D01*
X300000Y554582D02*
Y2500000D01*
X1360510Y-5517724D02*
Y-2901299D01*
X2411728Y-6642855D02*
X2880265D01*
X2310336Y-6541463D02*
X2411728Y-6642855D01*
X2171756Y-6541463D02*
X2310336D01*
X1344215Y-6644215D02*
X2103894D01*
X2259679Y-6800000D02*
X2800000D01*
X2103894Y-6644215D02*
X2259679Y-6800000D01*
X2900000Y-6700000D02*
X3300000D01*
X2800000Y-6800000D02*
X2900000Y-6700000D01*
X1798466Y-6168174D02*
Y-5787375D01*
X1582123Y-5571032D02*
X1798466Y-5787375D01*
X1413819Y-5571032D02*
X1582123D01*
X1360510Y-5517724D02*
X1413819Y-5571032D01*
X300000Y2500000D02*
X350501Y2550501D01*
Y3617852D01*
X-2150000Y-8450000D02*
Y-8300000D01*
X2750000Y-7200000D02*
X2820264Y-7270264D01*
Y-7621515D02*
Y-7270264D01*
X1798466Y-6168174D02*
X2171756Y-6541463D01*
X-579999Y-6794939D02*
X-185060Y-6400000D01*
X850000D01*
X1650000Y-7200000D01*
X2750000D01*
X-228627Y-6350000D02*
X850000D01*
X1550000Y-7050000D01*
X2033570D01*
X2135516Y-7151946D01*
X3003231D01*
X-634328Y-6840610D02*
Y-6755701D01*
X-228627Y-6350000D01*
X-634328Y-6840610D02*
X-579999Y-6894938D01*
D12*
X-919170Y-369170D02*
X-660000Y-110000D01*
X-1661400Y-560801D02*
X-1469768Y-369170D01*
X-919170D01*
X-1661400Y-5593058D02*
Y-560801D01*
X-2493095Y-7056905D02*
X-1900130Y-7649870D01*
X-2950000Y-6889681D02*
X-2782777Y-7056905D01*
X-2493095D01*
X3298528Y-7314769D02*
X3488525Y-7504766D01*
Y-7647744D02*
Y-7504766D01*
X3085563Y-7527734D02*
X3298528Y-7314769D01*
X2898528Y-7527734D02*
X3085563D01*
X-2250000Y-7999741D02*
X-1900130Y-7649870D01*
X-1900000Y-7650000D01*
X-876731D01*
X-2250000Y-8500000D02*
Y-7999741D01*
X-876731Y-7650000D02*
X-725000Y-7498269D01*
X-2268341Y-6200000D02*
X-1661400Y-5593058D01*
X-2800000Y-6200000D02*
X-2268341D01*
X-2950000Y-6889681D02*
Y-6749999D01*
X-3500000Y-8000000D02*
Y-7404257D01*
X-3100000Y-7004257D01*
Y-6500000D01*
X-2800000Y-6200000D01*
X-660000Y-110000D02*
Y800000D01*
X3298528Y-7224064D02*
Y-7120394D01*
Y-7327734D02*
Y-7224064D01*
X2500000Y-6350000D02*
X3020794D01*
X3172008Y-6501215D01*
X-2250000Y-8500000D02*
X-2075000Y-8675000D01*
Y-8930000D02*
Y-8675000D01*
X3172008Y-6501215D02*
X3572008D01*
X3648528Y-6577734D01*
X330004Y-6852891D02*
Y-6724929D01*
X100001Y-7082893D02*
X330004Y-6852891D01*
X100001Y-7424938D02*
Y-7082893D01*
X3648528Y-6917408D02*
Y-6577734D01*
X3588201Y-6977734D02*
X3648528Y-6917408D01*
X3441188Y-6977734D02*
X3588201D01*
X3298528Y-7120394D02*
X3441188Y-6977734D01*
D15*
X445999Y-8000000D02*
D03*
X346000Y-7999999D02*
D03*
X-1104000Y-8000000D02*
D03*
X-1204000Y-7999999D02*
D03*
X1950000Y-8000000D02*
D03*
X1850000Y-7999999D02*
D03*
X-2400000Y-6400000D02*
D03*
X-2500000Y-6400000D02*
D03*
X-2500000Y-6600000D02*
D03*
X-2399999D02*
D03*
X3198528Y-7224064D02*
D03*
X3298528Y-7224064D02*
D03*
X3400000Y-6700000D02*
D03*
X3300000D02*
D03*
Y-6800000D02*
D03*
X3400000Y-6800000D02*
D03*
D16*
X-2850000Y-6650000D02*
D03*
Y-6750001D02*
D03*
X-2950000Y-6749999D02*
D03*
X-2950001Y-6650001D02*
D03*
D25*
X-2500009Y-6499991D02*
D03*
X-2400003D02*
D03*
X3198528Y-7124064D02*
D03*
X3098521Y-7124064D02*
D03*
X3400007Y-6900000D02*
D03*
X3300000Y-6900000D02*
D03*
D27*
X-2750009Y-6750010D02*
D03*
Y-6650003D02*
D03*
D83*
X3400000Y-6899999D02*
Y-6800000D01*
Y-6700000D01*
X-2400000Y-6400000D02*
X-2200000D01*
X-2078601Y-6278601D02*
Y-6092251D01*
X-2200000Y-6400000D02*
X-2078601Y-6278601D01*
Y-6092251D02*
X-1610600Y-5624250D01*
Y-660600D01*
X-1474337Y-524338D01*
X-274338D01*
X-150000Y-400000D01*
Y-100000D01*
X-2950000Y-6650000D02*
X-2750012D01*
X-2750009Y-6650003D02*
X-2748808Y-6648802D01*
Y-6551201D01*
X-2747607Y-6550000D01*
X-2650000Y-6500000D02*
X-2500009D01*
X-2500000Y-6499991D02*
Y-6400000D01*
X-2500009Y-6500000D02*
X-2500000Y-6499991D01*
X-2500000Y-6600000D02*
Y-6499991D01*
X3246290Y-7015608D02*
X3286542D01*
X3198528Y-7063369D02*
X3246290Y-7015608D01*
X3198528Y-7124064D02*
Y-7063369D01*
Y-7224064D02*
Y-7124064D01*
X3400000Y-6899999D02*
X3400001Y-6900000D01*
D84*
X-74999Y-8374938D02*
X25001D01*
X-74999Y-8374938D02*
X-74999Y-8374938D01*
D92*
X-1517587Y-5550000D02*
X-1171593D01*
X-1517587D02*
Y-1151661D01*
X-1367124Y-1001197D01*
X97835Y3474516D02*
Y3700000D01*
Y3474516D02*
X250501Y3321850D01*
X72110Y2772110D02*
X250501Y2950501D01*
Y3321850D01*
X72110Y1927890D02*
Y2772110D01*
X150000Y-302033D02*
Y1850000D01*
X72110Y1927890D02*
X150000Y1850000D01*
X-297967Y-750000D02*
X150000Y-302033D01*
X-1050000Y-750000D02*
X-297967D01*
X-1301197Y-1001197D02*
X-1150000Y-850000D01*
X-1367124Y-1001197D02*
X-1301197D01*
X-725000Y-7498269D02*
X-550000Y-7673269D01*
X-900000Y-7323269D02*
X-725000Y-7498269D01*
X-900000Y-7323269D02*
Y-5821593D01*
X-1171593Y-5550000D02*
X-900000Y-5821593D01*
X-550000Y-7673269D02*
X71670D01*
X550001Y-7194938D01*
D98*
X-1654000Y-7950000D02*
D03*
X-127000Y-7950000D02*
D03*
X1400001Y-7950000D02*
D03*
D99*
X-1400000Y-7950000D02*
D03*
X127000Y-7950000D02*
D03*
X1654001Y-7950000D02*
D03*
D100*
X-5125000Y-6875000D02*
D03*
X-5625000D02*
D03*
D101*
X-5375000Y-7425000D02*
D03*
X-5625000Y-6365000D02*
D03*
D102*
X-4815000Y-6425000D02*
D03*
X-5015000Y-6565000D02*
D03*
X-5625000Y-7325000D02*
D03*
X-4815000Y-6715000D02*
D03*
X-5125000Y-7235000D02*
D03*
D103*
X-4795000Y-6945000D02*
D03*
D104*
X-1400000Y4625000D02*
D03*
X1400000D02*
D03*
X-1400000Y0D02*
D03*
X1400000D02*
D03*
X-1400000Y-6000000D02*
D03*
X1400000D02*
D03*
X1000000Y-8750000D02*
D03*
X-1000000D02*
D03*
D105*
X-660000Y800000D02*
D03*
X660000Y800000D02*
D03*
D106*
X289001Y-8614938D02*
D03*
X-288999D02*
D03*
D107*
X404904Y3154618D02*
D03*
X3462533Y-6648866D02*
D03*
X3460776Y-6880372D02*
D03*
X25001Y-8374938D02*
D03*
X-74999Y-8374938D02*
D03*
X3029970Y-7626690D02*
D03*
X2971901Y-7604645D02*
D03*
X2700000Y-7250000D02*
D03*
X3135385Y-7369227D02*
D03*
X-675401Y-3105747D02*
D03*
X-550000Y-3050000D02*
D03*
X-800000D02*
D03*
X-700000D02*
D03*
X-950000Y-3200000D02*
D03*
X-1100000Y-3050000D02*
D03*
X-950000D02*
D03*
X-850000D02*
D03*
X2521428Y-6517725D02*
D03*
X2880265Y-6642855D02*
D03*
X350000Y3700000D02*
D03*
X300000D02*
D03*
X300256Y3435767D02*
D03*
X200000Y3650000D02*
D03*
X3157023Y-6359903D02*
D03*
X3467718Y-6719140D02*
D03*
X3748528Y-8262356D02*
D03*
X3608547D02*
D03*
X3748528Y-8171556D02*
D03*
X3608547D02*
D03*
X3748528Y-8080757D02*
D03*
X3608547D02*
D03*
X3748528Y-7989957D02*
D03*
X3608547D02*
D03*
X-358830Y-3833172D02*
D03*
X-3825707Y-7215001D02*
D03*
X-3312536Y-6888986D02*
D03*
X-3371872Y-6845000D02*
D03*
X-3312329Y-6786567D02*
D03*
X3606080Y-7558802D02*
D03*
X3608547Y-7899158D02*
D03*
Y-7808359D02*
D03*
Y-7717559D02*
D03*
Y-7626760D02*
D03*
X3748528D02*
D03*
Y-7717559D02*
D03*
Y-7808359D02*
D03*
Y-7899158D02*
D03*
X-3176264Y-8754044D02*
D03*
X-4110333Y-8549867D02*
D03*
X-3875501Y-8517852D02*
D03*
X3518518Y-6667744D02*
D03*
Y-6757744D02*
D03*
Y-6847744D02*
D03*
X-600000Y-5450000D02*
D03*
X-800000D02*
D03*
X3555206Y-7143841D02*
D03*
X3509311Y-7151214D02*
D03*
X3600480Y-7466971D02*
D03*
X3603280Y-7512887D02*
D03*
X3368888Y-7212358D02*
D03*
X2717391Y-7393377D02*
D03*
X3003231Y-7151946D02*
D03*
X2717391Y-7317245D02*
D03*
X250000Y3650000D02*
D03*
Y3600000D02*
D03*
X200000D02*
D03*
X450501Y3617852D02*
D03*
Y3567852D02*
D03*
X450502Y3517852D02*
D03*
X2928052Y-6417806D02*
D03*
X2876866Y-6456430D02*
D03*
X2786287Y-6420923D02*
D03*
X3286542Y-7015608D02*
D03*
X3748528Y-7535960D02*
D03*
X3487125Y-7912714D02*
D03*
Y-7786643D02*
D03*
X2938304Y-7681596D02*
D03*
X2839931Y-7786655D02*
D03*
Y-7912726D02*
D03*
X2910607Y-8010145D02*
D03*
X3021396Y-8047393D02*
D03*
X3119769D02*
D03*
X3218143D02*
D03*
X3316516D02*
D03*
X3395348Y-7998665D02*
D03*
X3371333Y-7695288D02*
D03*
X3261548Y-7657550D02*
D03*
X3109272Y-7586165D02*
D03*
X3096731Y-7667942D02*
D03*
X3227623Y-7561114D02*
D03*
X3548528Y-6577735D02*
D03*
X3744413Y-7393622D02*
D03*
X3721713Y-7354305D02*
D03*
X3690322Y-7137461D02*
D03*
X3689611Y-7322203D02*
D03*
X3657508Y-7290100D02*
D03*
X3625406Y-7257997D02*
D03*
X3541894Y-6904662D02*
D03*
X3316158Y-7528020D02*
D03*
X3565935Y-7383296D02*
D03*
X3233903Y-7468564D02*
D03*
X3588635Y-7422613D02*
D03*
X3501730Y-7319091D02*
D03*
X3469628Y-7286988D02*
D03*
X3446928Y-7247671D02*
D03*
X3414825Y-7215568D02*
D03*
X3594211Y-7117696D02*
D03*
X3533833Y-7351193D02*
D03*
X699499Y-1367852D02*
D03*
D108*
X50501Y-4480948D02*
D03*
X3300000Y-6400000D02*
D03*
X550000Y-8000000D02*
D03*
X-1189916Y-7905632D02*
D03*
X-1250000Y-1350000D02*
D03*
Y-1450000D02*
D03*
X-2675000Y-6950000D02*
D03*
X-1450000Y-8550000D02*
D03*
X-1000000Y-2050000D02*
D03*
Y-1950000D02*
D03*
X444137Y-8224565D02*
D03*
X-450000Y-8300000D02*
D03*
X940000Y-7890020D02*
D03*
X-1000000Y-7950000D02*
D03*
X-915182Y-7874129D02*
D03*
X-557904Y-7185261D02*
D03*
X-599521Y-7241253D02*
D03*
X-4400000Y-7400000D02*
D03*
Y-7500000D02*
D03*
Y-7300000D02*
D03*
X-3650000Y-6600000D02*
D03*
X-3950000Y-6900000D02*
D03*
X0Y-5950000D02*
D03*
X100000D02*
D03*
X200000D02*
D03*
X300000D02*
D03*
X-757500Y-5795000D02*
D03*
X-700000Y-5850000D02*
D03*
X-2656377Y-6759690D02*
D03*
X-2250000Y-6500000D02*
D03*
X-1197500Y-8140000D02*
D03*
X-400522Y-2842864D02*
D03*
X-750000Y-3198347D02*
D03*
Y-3100000D02*
D03*
X-425000Y-2625000D02*
D03*
X-1050000Y-3250000D02*
D03*
X-900000Y-3100000D02*
D03*
X-1000000Y2300000D02*
D03*
X-1000000Y2700001D02*
D03*
X1000000Y2700000D02*
D03*
Y2300001D02*
D03*
X-1000000Y1900000D02*
D03*
X1000000Y1900001D02*
D03*
X799492Y-442855D02*
D03*
X-2650000Y-6500000D02*
D03*
X-2747607Y-6550000D02*
D03*
X-2808730Y-6477100D02*
D03*
X-2896500Y-6450657D02*
D03*
X-3500000Y-8000000D02*
D03*
X2500000Y-7800000D02*
D03*
X1450000Y-5500000D02*
D03*
X1550000D02*
D03*
X1650000Y-5400000D02*
D03*
Y-5500000D02*
D03*
X1450000Y-5400000D02*
D03*
X1550000D02*
D03*
X201791Y2217732D02*
D03*
X650492Y2817850D02*
D03*
X-450010Y3649990D02*
D03*
X-450011Y3749990D02*
D03*
X422500Y2300000D02*
D03*
X76612Y3209783D02*
D03*
X36340Y3286259D02*
D03*
X-700000Y-4800000D02*
D03*
X5025000Y-8175000D02*
D03*
X-5025000Y-8175000D02*
D03*
X-3975000D02*
D03*
X3923530Y-8127741D02*
D03*
X-3314425Y-8262601D02*
D03*
X-2700000Y-8350000D02*
D03*
X-2800000D02*
D03*
X-1000000Y600000D02*
D03*
X-1000000Y1000001D02*
D03*
X-1000000Y1400001D02*
D03*
X1000000Y1400001D02*
D03*
Y1000001D02*
D03*
Y600000D02*
D03*
X2500000Y-6350000D02*
D03*
X4100000Y-7600000D02*
D03*
X-400498Y-442851D02*
D03*
X-600499Y-442852D02*
D03*
X1300502Y-3157149D02*
D03*
X700498Y-2957148D02*
D03*
X-250001Y3949999D02*
D03*
X-250002Y3849999D02*
D03*
X-150001Y3949999D02*
D03*
X-150000Y3849999D02*
D03*
X-50001Y3949999D02*
D03*
X-50000Y3850000D02*
D03*
X-250000Y0D02*
D03*
X-250000Y-100000D02*
D03*
X-150000Y0D02*
D03*
X-150000Y-100000D02*
D03*
X-50000Y0D02*
D03*
X-49999Y-100000D02*
D03*
X-1150000Y-850000D02*
D03*
X-1050000D02*
D03*
X-1150000Y-750000D02*
D03*
X-1050000D02*
D03*
X-1150000Y-650000D02*
D03*
X-1050000D02*
D03*
X-2400000Y-8600000D02*
D03*
X-2570157Y-8916204D02*
D03*
X-2500000Y-8600000D02*
D03*
X-2000000Y-8450000D02*
D03*
X-2150000D02*
D03*
X-1668762Y-8457257D02*
D03*
X3800000Y-6950000D02*
D03*
X3215375Y-6396975D02*
D03*
X2623504Y-6227765D02*
D03*
X2823506Y-6227764D02*
D03*
X3023508Y-6227763D02*
D03*
X3223511Y-6227761D02*
D03*
X3423513Y-6227760D02*
D03*
X3623515Y-6227759D02*
D03*
X-2075000Y-8930000D02*
D03*
X-1550000Y-9000001D02*
D03*
X-579999Y-6894938D02*
D03*
X-1700000Y-9000000D02*
D03*
X-425000Y-2700000D02*
D03*
X150000Y-5450000D02*
D03*
X1300501Y-5357147D02*
D03*
Y-5157147D02*
D03*
Y-4957147D02*
D03*
Y-4757147D02*
D03*
Y-4557147D02*
D03*
X-99499Y-4480948D02*
D03*
X-21999Y-4480947D02*
D03*
X723542Y-4422443D02*
D03*
X-216999Y-4387147D02*
D03*
X-21999Y-4381747D02*
D03*
X1300501Y-4357147D02*
D03*
X-774499Y-4307147D02*
D03*
X-1299499Y-5357147D02*
D03*
X-1099499D02*
D03*
X-899499D02*
D03*
X-1299499Y-5157147D02*
D03*
X-509606Y-4994683D02*
D03*
X-1299499Y-4957148D02*
D03*
Y-4757148D02*
D03*
Y-4557148D02*
D03*
X-774499Y-4407147D02*
D03*
X-1299499Y-4357148D02*
D03*
X800502Y-5532147D02*
D03*
X900501Y-5507147D02*
D03*
X1037209Y-5503991D02*
D03*
X-774499Y-4207147D02*
D03*
X-1299499Y-4157148D02*
D03*
X-474499Y-4107147D02*
D03*
X-899496Y-3857150D02*
D03*
X-799496D02*
D03*
X-702160Y-3658282D02*
D03*
X-499499Y-3657147D02*
D03*
X-1299499Y-3557148D02*
D03*
X-695740Y-3520120D02*
D03*
X-799496Y-3457150D02*
D03*
X-899496D02*
D03*
X-1299499Y-3357148D02*
D03*
Y-3157148D02*
D03*
Y-2957148D02*
D03*
Y-3757148D02*
D03*
Y-3957148D02*
D03*
X300501Y-4257147D02*
D03*
X-74499Y-4107147D02*
D03*
X-124499Y-4007147D02*
D03*
X180501D02*
D03*
X-199499Y-3757147D02*
D03*
X300501Y-3732147D02*
D03*
X175501Y-3657147D02*
D03*
X75501Y-3357147D02*
D03*
X-144499Y-3257148D02*
D03*
X-399499Y-3257147D02*
D03*
X-99500Y-2957148D02*
D03*
X-299500D02*
D03*
X100500D02*
D03*
X300500D02*
D03*
X1300501Y-4157148D02*
D03*
X700494Y-3957147D02*
D03*
X1300501D02*
D03*
X800501D02*
D03*
X1300501Y-3757147D02*
D03*
Y-3557147D02*
D03*
Y-3357147D02*
D03*
X500499Y-2957148D02*
D03*
X900499D02*
D03*
X1100499D02*
D03*
X1300501Y-2957147D02*
D03*
X2820264Y-7621515D02*
D03*
X-3450003Y-7021558D02*
D03*
X-3794258Y-7016062D02*
D03*
X-3344489Y-6391279D02*
D03*
X-3950000Y-6700000D02*
D03*
X-3618798Y-6399990D02*
D03*
X-4118797Y-6599991D02*
D03*
X-3326307Y-7115859D02*
D03*
X-3522828Y-6895575D02*
D03*
X-2600000Y-6572999D02*
D03*
X-2600000Y-6700000D02*
D03*
X3923530Y-7927738D02*
D03*
X1848528Y-7727734D02*
D03*
X1848532Y-7877734D02*
D03*
X400502Y3817851D02*
D03*
X500501Y3817852D02*
D03*
X600501Y3817852D02*
D03*
X350501Y3617852D02*
D03*
X3648528Y-6577734D02*
D03*
X3823518Y-6227758D02*
D03*
X3923526Y-6327733D02*
D03*
X3923528Y-6527737D02*
D03*
X3923529Y-6727739D02*
D03*
X3923520Y-6927721D02*
D03*
X3923522Y-7127724D02*
D03*
X3923524Y-7327728D02*
D03*
X3923526Y-7527731D02*
D03*
X2928528Y-7007734D02*
D03*
Y-6897734D02*
D03*
Y-6787734D02*
D03*
X3038528D02*
D03*
X3148528D02*
D03*
X3038528Y-7007734D02*
D03*
X3148528D02*
D03*
X3038528Y-6897734D02*
D03*
X1848519Y-6527713D02*
D03*
X2898528Y-7527734D02*
D03*
X2348509Y-6227743D02*
D03*
X1948504Y-6227745D02*
D03*
X1848518Y-6327711D02*
D03*
X2148506Y-6227744D02*
D03*
X3923528Y-7727735D02*
D03*
X3698528Y-7027734D02*
D03*
X1848530Y-7327739D02*
D03*
X1848529Y-7127737D02*
D03*
X1848521Y-6927718D02*
D03*
X1848520Y-6727716D02*
D03*
X3548530Y-8177734D02*
D03*
X3488525Y-7647744D02*
D03*
X3348530Y-8177734D02*
D03*
X3148530D02*
D03*
X2948530D02*
D03*
X2748530D02*
D03*
X2548530D02*
D03*
X2348530D02*
D03*
X2148530D02*
D03*
X1948528Y-8177734D02*
D03*
X1848531Y-7527742D02*
D03*
X3148528Y-6897734D02*
D03*
X898959Y-1142852D02*
D03*
X974509Y-842843D02*
D03*
X-4000501Y-8717852D02*
D03*
X-525501Y-1292852D02*
D03*
X-925501Y-1567852D02*
D03*
X-562726Y-1123112D02*
D03*
X-925501Y-1667852D02*
D03*
X-3720000Y-6400000D02*
D03*
X430011Y-6744939D02*
D03*
X475001Y-7519938D02*
D03*
X-450000Y-7550000D02*
D03*
X-99999Y-7194938D02*
D03*
X250001Y-7169938D02*
D03*
X-525501Y-1217852D02*
D03*
X-1175501Y-1192852D02*
D03*
X474499Y-742852D02*
D03*
X521934Y-1012254D02*
D03*
X249489Y-1367861D02*
D03*
X249480Y-1617851D02*
D03*
X299499Y-1167852D02*
D03*
X-375511Y-1042862D02*
D03*
Y-942862D02*
D03*
X-3300501Y-8442852D02*
D03*
X-3850510Y-8767850D02*
D03*
X-3750492Y-8767862D02*
D03*
X-3517666Y-8741105D02*
D03*
X-3425492Y-8992862D02*
D03*
X199492Y-442855D02*
D03*
X399494Y-442854D02*
D03*
X599496Y-442853D02*
D03*
X999494Y-442854D02*
D03*
X1199496Y-442853D02*
D03*
X-800526Y-442849D02*
D03*
X-1200531Y-442851D02*
D03*
X-1000529Y-442850D02*
D03*
X-1400539Y-642840D02*
D03*
X-1400540Y-442838D02*
D03*
X-1400538Y-842843D02*
D03*
X-1400535Y-1442850D02*
D03*
X-1400536Y-1242847D02*
D03*
X-1400539Y-1842840D02*
D03*
X-1400540Y-1642838D02*
D03*
X-1400537Y-2242845D02*
D03*
X-1400538Y-2042843D02*
D03*
X-1400535Y-2642850D02*
D03*
X-1400536Y-2442848D02*
D03*
X-1200531Y-2842868D02*
D03*
X-517Y-2842862D02*
D03*
X-200519Y-2842863D02*
D03*
X399488Y-2842860D02*
D03*
X199486Y-2842861D02*
D03*
X799493Y-2842858D02*
D03*
X599490Y-2842859D02*
D03*
X999495Y-2842857D02*
D03*
X1199497Y-2842856D02*
D03*
X1399500Y-2842855D02*
D03*
X1399509Y-2442876D02*
D03*
X1399508Y-2242874D02*
D03*
X1399507Y-2042871D02*
D03*
X1399506Y-1842869D02*
D03*
X1399505Y-1642867D02*
D03*
X1399504Y-1442864D02*
D03*
X1399503Y-1242862D02*
D03*
X1399502Y-1042859D02*
D03*
X1399501Y-842857D02*
D03*
X1399499Y-442852D02*
D03*
X1399500Y-642855D02*
D03*
X669498Y-2032852D02*
D03*
Y-1942852D02*
D03*
X650001Y-7194938D02*
D03*
X550002Y-7094938D02*
D03*
X650001D02*
D03*
X600001Y-7144937D02*
D03*
X-1850000Y-9000000D02*
D03*
X579498Y-2032852D02*
D03*
X489499D02*
D03*
X399499D02*
D03*
Y-1942852D02*
D03*
X489499D02*
D03*
X579498D02*
D03*
X-579999Y-6794939D02*
D03*
X550001Y-7194938D02*
D03*
X-4033418Y-8526254D02*
D03*
X-3944083Y-8526253D02*
D03*
X-3160762Y-8683267D02*
D03*
Y-8592952D02*
D03*
X795419Y-756840D02*
D03*
X706083Y-667505D02*
D03*
X795418D02*
D03*
X706083Y-578171D02*
D03*
X795418D02*
D03*
X-3007148Y-8600501D02*
D03*
Y-8700501D02*
D03*
X330004Y-6724929D02*
D03*
X150001Y-6594939D02*
D03*
X50001Y-6594938D02*
D03*
X100001Y-7424938D02*
D03*
D111*
X97835Y3700000D02*
X217151Y3819316D01*
X399037D01*
X400502Y3817851D01*
D112*
X-150000Y0D02*
Y3849999D01*
X-150000Y3850000D01*
D113*
X500497Y3819352D02*
D03*
D114*
X-151882Y3896845D02*
D03*
X-148119Y-46846D02*
D03*
D115*
X-1096845Y-751881D02*
D03*
D116*
X600001Y-7144939D02*
D03*
D117*
X750750Y-667853D02*
D03*
%TF.MD5,e8cd6d13083311cee45f1b2cc07a55da*%
M02*
