%TF.GenerationSoftware,Altium Limited,Altium Designer,22.5.1 (42)*%
G04 Layer_Color=16711935*
%FSLAX45Y45*%
%MOMM*%
%TF.SameCoordinates,09306DCC-7258-43E0-A79C-DC35209E08F8*%
%TF.FilePolarity,Negative*%
%TF.FileFunction,Soldermask,Bot*%
%TF.Part,Single*%
G01*
G75*
%TA.AperFunction,SMDPad,CuDef*%
%ADD118R,0.70000X0.65000*%
%ADD119R,0.70000X0.70000*%
%ADD120R,0.70000X0.70000*%
%ADD121R,0.65000X0.70000*%
%TA.AperFunction,ComponentPad*%
%ADD122C,2.10000*%
%ADD123R,2.10000X2.10000*%
%ADD124C,1.20000*%
G04:AMPARAMS|DCode=125|XSize=2.3mm|YSize=2.3mm|CornerRadius=0.27mm|HoleSize=0mm|Usage=FLASHONLY|Rotation=180.000|XOffset=0mm|YOffset=0mm|HoleType=Round|Shape=RoundedRectangle|*
%AMROUNDEDRECTD125*
21,1,2.30000,1.76000,0,0,180.0*
21,1,1.76000,2.30000,0,0,180.0*
1,1,0.54000,-0.88000,0.88000*
1,1,0.54000,0.88000,0.88000*
1,1,0.54000,0.88000,-0.88000*
1,1,0.54000,-0.88000,-0.88000*
%
%ADD125ROUNDEDRECTD125*%
G04:AMPARAMS|DCode=126|XSize=2.3mm|YSize=1.3mm|CornerRadius=0.65mm|HoleSize=0mm|Usage=FLASHONLY|Rotation=180.000|XOffset=0mm|YOffset=0mm|HoleType=Round|Shape=RoundedRectangle|*
%AMROUNDEDRECTD126*
21,1,2.30000,0.00000,0,0,180.0*
21,1,1.00000,1.30000,0,0,180.0*
1,1,1.30000,-0.50000,0.00000*
1,1,1.30000,0.50000,0.00000*
1,1,1.30000,0.50000,0.00000*
1,1,1.30000,-0.50000,0.00000*
%
%ADD126ROUNDEDRECTD126*%
G04:AMPARAMS|DCode=127|XSize=2.3mm|YSize=1.3mm|CornerRadius=0.65mm|HoleSize=0mm|Usage=FLASHONLY|Rotation=90.000|XOffset=0mm|YOffset=0mm|HoleType=Round|Shape=RoundedRectangle|*
%AMROUNDEDRECTD127*
21,1,2.30000,0.00000,0,0,90.0*
21,1,1.00000,1.30000,0,0,90.0*
1,1,1.30000,0.00000,0.50000*
1,1,1.30000,0.00000,-0.50000*
1,1,1.30000,0.00000,-0.50000*
1,1,1.30000,0.00000,0.50000*
%
%ADD127ROUNDEDRECTD127*%
%TA.AperFunction,ViaPad*%
%ADD128C,6.60000*%
%TA.AperFunction,ComponentPad*%
%ADD129C,4.10000*%
%ADD130C,0.75000*%
D118*
X445999Y-8000000D02*
D03*
X346000Y-7999999D02*
D03*
X-1104000Y-8000000D02*
D03*
X-1204000Y-7999999D02*
D03*
X1950000Y-8000000D02*
D03*
X1850000Y-7999999D02*
D03*
X-2400000Y-6400000D02*
D03*
X-2500000Y-6400000D02*
D03*
X-2500000Y-6600000D02*
D03*
X-2399999D02*
D03*
X3198528Y-7224064D02*
D03*
X3298528Y-7224064D02*
D03*
X3400000Y-6700000D02*
D03*
X3300000D02*
D03*
Y-6800000D02*
D03*
X3400000Y-6800000D02*
D03*
D119*
X-2750009Y-6750010D02*
D03*
Y-6650003D02*
D03*
D120*
X-2500009Y-6499991D02*
D03*
X-2400003D02*
D03*
X3198528Y-7124064D02*
D03*
X3098521Y-7124064D02*
D03*
X3400007Y-6900000D02*
D03*
X3300000Y-6900000D02*
D03*
D121*
X-2850000Y-6650000D02*
D03*
Y-6750001D02*
D03*
X-2950000Y-6749999D02*
D03*
X-2950001Y-6650001D02*
D03*
D122*
X-1654000Y-7950000D02*
D03*
X-127000Y-7950000D02*
D03*
X1400001Y-7950000D02*
D03*
D123*
X-1400000Y-7950000D02*
D03*
X127000Y-7950000D02*
D03*
X1654001Y-7950000D02*
D03*
D124*
X-5125000Y-6875000D02*
D03*
X-5625000D02*
D03*
D125*
X-5375000Y-7425000D02*
D03*
X-5625000Y-6365000D02*
D03*
D126*
X-4815000Y-6425000D02*
D03*
X-5015000Y-6565000D02*
D03*
X-5625000Y-7325000D02*
D03*
X-4815000Y-6715000D02*
D03*
X-5125000Y-7235000D02*
D03*
D127*
X-4795000Y-6945000D02*
D03*
D128*
X-1400000Y4625000D02*
D03*
X1400000D02*
D03*
X-1400000Y0D02*
D03*
X1400000D02*
D03*
X-1400000Y-6000000D02*
D03*
X1400000D02*
D03*
X1000000Y-8750000D02*
D03*
X-1000000D02*
D03*
D129*
X-660000Y800000D02*
D03*
X660000Y800000D02*
D03*
D130*
X289001Y-8614938D02*
D03*
X-288999D02*
D03*
%TF.MD5,940b35c2ddd2b894cd929d91d9826fec*%
M02*
