%TF.GenerationSoftware,Altium Limited,Altium Designer,22.5.1 (42)*%
G04 Layer_Physical_Order=2*
G04 Layer_Color=36540*
%FSLAX45Y45*%
%MOMM*%
%TF.SameCoordinates,09306DCC-7258-43E0-A79C-DC35209E08F8*%
%TF.FilePolarity,Positive*%
%TF.FileFunction,Copper,L2,Inr,Signal*%
%TF.Part,Single*%
G01*
G75*
%TA.AperFunction,Conductor*%
%ADD83C,0.25400*%
%ADD87C,0.76200*%
%TA.AperFunction,ComponentPad*%
%ADD98C,2.00000*%
%ADD99R,2.00000X2.00000*%
%ADD100C,1.10000*%
G04:AMPARAMS|DCode=101|XSize=2.2mm|YSize=2.2mm|CornerRadius=0.22mm|HoleSize=0mm|Usage=FLASHONLY|Rotation=180.000|XOffset=0mm|YOffset=0mm|HoleType=Round|Shape=RoundedRectangle|*
%AMROUNDEDRECTD101*
21,1,2.20000,1.76000,0,0,180.0*
21,1,1.76000,2.20000,0,0,180.0*
1,1,0.44000,-0.88000,0.88000*
1,1,0.44000,0.88000,0.88000*
1,1,0.44000,0.88000,-0.88000*
1,1,0.44000,-0.88000,-0.88000*
%
%ADD101ROUNDEDRECTD101*%
G04:AMPARAMS|DCode=102|XSize=2.2mm|YSize=1.2mm|CornerRadius=0.6mm|HoleSize=0mm|Usage=FLASHONLY|Rotation=180.000|XOffset=0mm|YOffset=0mm|HoleType=Round|Shape=RoundedRectangle|*
%AMROUNDEDRECTD102*
21,1,2.20000,0.00000,0,0,180.0*
21,1,1.00000,1.20000,0,0,180.0*
1,1,1.20000,-0.50000,0.00000*
1,1,1.20000,0.50000,0.00000*
1,1,1.20000,0.50000,0.00000*
1,1,1.20000,-0.50000,0.00000*
%
%ADD102ROUNDEDRECTD102*%
G04:AMPARAMS|DCode=103|XSize=2.2mm|YSize=1.2mm|CornerRadius=0.6mm|HoleSize=0mm|Usage=FLASHONLY|Rotation=90.000|XOffset=0mm|YOffset=0mm|HoleType=Round|Shape=RoundedRectangle|*
%AMROUNDEDRECTD103*
21,1,2.20000,0.00000,0,0,90.0*
21,1,1.00000,1.20000,0,0,90.0*
1,1,1.20000,0.00000,0.50000*
1,1,1.20000,0.00000,-0.50000*
1,1,1.20000,0.00000,-0.50000*
1,1,1.20000,0.00000,0.50000*
%
%ADD103ROUNDEDRECTD103*%
%TA.AperFunction,ViaPad*%
%ADD104C,6.50000*%
%TA.AperFunction,ComponentPad*%
%ADD105C,4.00000*%
%ADD106C,0.65000*%
%TA.AperFunction,ViaPad*%
%ADD107C,0.46000*%
%ADD108C,0.66000*%
G36*
X1489419Y5031729D02*
X1552253Y5016644D01*
X1611953Y4991916D01*
X1667049Y4958152D01*
X1716186Y4916186D01*
X1758152Y4867049D01*
X1791916Y4811953D01*
X1816644Y4752253D01*
X1831729Y4689419D01*
X1835803Y4637663D01*
X1835637Y4625000D01*
X1835637D01*
X1840285Y4518542D01*
X1854194Y4412894D01*
X1877258Y4308861D01*
X1909301Y4207233D01*
X1950079Y4108785D01*
X1999283Y4014266D01*
X2056537Y3924395D01*
X2121406Y3839856D01*
X2193397Y3761292D01*
X2193450Y3761345D01*
X2230606Y3724188D01*
X2232601Y3723362D01*
X2291816Y3658028D01*
X2345532Y3585601D01*
X2391890Y3508258D01*
X2430443Y3426743D01*
X2460822Y3341841D01*
X2482732Y3254371D01*
X2495963Y3165175D01*
X2500289Y3077106D01*
X2499463Y3075111D01*
Y3000000D01*
X2499462Y1013750D01*
X2500325Y1011667D01*
X2495874Y909706D01*
X2482280Y806454D01*
X2459739Y704779D01*
X2428423Y605456D01*
X2388569Y509240D01*
X2340481Y416864D01*
X2284525Y329031D01*
X2221127Y246409D01*
X2152177Y171163D01*
X2150095Y170301D01*
X2043449Y63655D01*
X2043396Y63709D01*
X1971406Y-14855D01*
X1906537Y-99395D01*
X1849282Y-189266D01*
X1800079Y-283785D01*
X1759300Y-382233D01*
X1727257Y-483861D01*
X1704193Y-587894D01*
X1690285Y-693542D01*
X1685637Y-800000D01*
X1685712D01*
X1685712Y-800000D01*
Y-5200000D01*
X1685765Y-5200128D01*
X1689920Y-5284711D01*
X1702365Y-5368605D01*
X1705665Y-5381781D01*
X1693574Y-5385775D01*
X1692302Y-5382705D01*
X1688743Y-5374113D01*
X1675887Y-5361257D01*
X1659090Y-5354300D01*
X1640910D01*
X1624113Y-5361257D01*
X1611257Y-5374113D01*
X1606873Y-5384697D01*
X1593127D01*
X1588743Y-5374113D01*
X1575887Y-5361257D01*
X1559090Y-5354300D01*
X1540910D01*
X1524113Y-5361257D01*
X1511257Y-5374113D01*
X1506873Y-5384697D01*
X1493127D01*
X1488743Y-5374113D01*
X1475887Y-5361257D01*
X1459090Y-5354300D01*
X1440909D01*
X1424113Y-5361257D01*
X1411257Y-5374113D01*
X1404300Y-5390909D01*
Y-5409090D01*
X1411257Y-5425887D01*
X1424113Y-5438742D01*
X1434697Y-5443127D01*
Y-5456873D01*
X1424113Y-5461257D01*
X1411257Y-5474113D01*
X1404300Y-5490910D01*
Y-5509090D01*
X1411257Y-5525887D01*
X1424113Y-5538743D01*
X1440909Y-5545700D01*
X1459090D01*
X1475887Y-5538743D01*
X1488743Y-5525887D01*
X1493127Y-5515302D01*
X1506873D01*
X1511257Y-5525887D01*
X1524113Y-5538743D01*
X1540910Y-5545700D01*
X1559090D01*
X1575887Y-5538743D01*
X1588743Y-5525887D01*
X1593127Y-5515302D01*
X1606873D01*
X1611257Y-5525887D01*
X1624113Y-5538743D01*
X1640910Y-5545700D01*
X1659090D01*
X1675887Y-5538743D01*
X1688743Y-5525887D01*
X1695700Y-5509090D01*
Y-5490910D01*
X1688743Y-5474113D01*
X1675887Y-5461257D01*
X1665302Y-5456873D01*
Y-5443127D01*
X1675887Y-5438742D01*
X1688743Y-5425887D01*
X1695700Y-5409090D01*
Y-5397698D01*
X1695700Y-5394265D01*
X1708400Y-5392699D01*
X1722973Y-5450876D01*
X1751545Y-5530731D01*
X1787807Y-5607401D01*
X1831410Y-5680147D01*
X1881932Y-5748269D01*
X1938889Y-5811111D01*
X2001731Y-5868068D01*
X2069853Y-5918590D01*
X2142599Y-5962193D01*
X2219269Y-5998455D01*
X2299124Y-6027027D01*
X2381395Y-6047635D01*
X2465289Y-6060080D01*
X2549872Y-6064235D01*
X2550000Y-6064288D01*
X5700000D01*
X5701396Y-6063710D01*
X5736370Y-6067155D01*
X5771343Y-6077764D01*
X5803574Y-6094991D01*
X5831824Y-6118176D01*
X5855009Y-6146426D01*
X5872236Y-6178657D01*
X5882845Y-6213630D01*
X5886290Y-6248604D01*
X5885712Y-6250000D01*
Y-8340151D01*
X1084849D01*
X1000000Y-8425000D01*
Y-9085712D01*
X-5200000D01*
X-5201909Y-9086503D01*
X-5276876Y-9082293D01*
X-5352785Y-9069395D01*
X-5426773Y-9048080D01*
X-5497909Y-9018614D01*
X-5565298Y-8981369D01*
X-5628094Y-8936813D01*
X-5685507Y-8885506D01*
X-5736813Y-8828094D01*
X-5781369Y-8765298D01*
X-5818614Y-8697909D01*
X-5848080Y-8626773D01*
X-5869395Y-8552785D01*
X-5882293Y-8476876D01*
X-5886503Y-8401909D01*
X-5885712Y-8400000D01*
Y-6250000D01*
X-5886290Y-6248604D01*
X-5882845Y-6213630D01*
X-5872236Y-6178657D01*
X-5855009Y-6146426D01*
X-5831824Y-6118176D01*
X-5803574Y-6094991D01*
X-5771343Y-6077764D01*
X-5736370Y-6067155D01*
X-5701396Y-6063710D01*
X-5700000Y-6064288D01*
X-2550000D01*
X-2549872Y-6064235D01*
X-2465289Y-6060080D01*
X-2381395Y-6047635D01*
X-2299124Y-6027027D01*
X-2219269Y-5998455D01*
X-2142599Y-5962193D01*
X-2069853Y-5918590D01*
X-2001731Y-5868068D01*
X-1938889Y-5811111D01*
X-1881932Y-5748269D01*
X-1831410Y-5680147D01*
X-1787807Y-5607401D01*
X-1751545Y-5530731D01*
X-1722973Y-5450876D01*
X-1702365Y-5368605D01*
X-1689920Y-5284711D01*
X-1685765Y-5200128D01*
X-1685712Y-5200000D01*
Y-800000D01*
X-1685712Y-800000D01*
X-1685637D01*
X-1690285Y-693542D01*
X-1704193Y-587894D01*
X-1727257Y-483861D01*
X-1759300Y-382233D01*
X-1800079Y-283785D01*
X-1849282Y-189266D01*
X-1906537Y-99395D01*
X-1971406Y-14855D01*
X-2043396Y63709D01*
X-2043449Y63655D01*
X-2150095Y170301D01*
X-2152177Y171163D01*
X-2221127Y246409D01*
X-2284525Y329031D01*
X-2340481Y416864D01*
X-2388569Y509240D01*
X-2428423Y605456D01*
X-2459739Y704779D01*
X-2482280Y806454D01*
X-2495874Y909706D01*
X-2500325Y1011667D01*
X-2499462Y1013750D01*
X-2499463Y3000000D01*
Y3075111D01*
X-2500289Y3077106D01*
X-2495963Y3165175D01*
X-2482732Y3254371D01*
X-2460822Y3341841D01*
X-2430443Y3426743D01*
X-2391890Y3508258D01*
X-2345532Y3585601D01*
X-2291816Y3658028D01*
X-2232601Y3723362D01*
X-2230606Y3724188D01*
X-2193450Y3761345D01*
X-2193397Y3761292D01*
X-2121406Y3839856D01*
X-2056537Y3924395D01*
X-1999283Y4014266D01*
X-1950079Y4108785D01*
X-1909301Y4207233D01*
X-1877258Y4308861D01*
X-1854194Y4412894D01*
X-1840285Y4518542D01*
X-1835637Y4625000D01*
X-1835637D01*
X-1835803Y4637663D01*
X-1831729Y4689419D01*
X-1816644Y4752253D01*
X-1791916Y4811953D01*
X-1758152Y4867049D01*
X-1716186Y4916186D01*
X-1667049Y4958152D01*
X-1611953Y4991916D01*
X-1552253Y5016644D01*
X-1489419Y5031729D01*
X-1427205Y5036626D01*
X-1425000Y5035712D01*
X1425000D01*
X1427205Y5036626D01*
X1489419Y5031729D01*
D02*
G37*
%LPC*%
G36*
X-40911Y3995699D02*
X-59092D01*
X-75888Y3988742D01*
X-88744Y3975886D01*
X-93128Y3965302D01*
X-106875D01*
X-111259Y3975886D01*
X-124115Y3988742D01*
X-140911Y3995699D01*
X-159092D01*
X-175888Y3988742D01*
X-188744Y3975886D01*
X-193128Y3965303D01*
X-206875D01*
X-211258Y3975886D01*
X-224114Y3988742D01*
X-240911Y3995699D01*
X-259091D01*
X-275888Y3988742D01*
X-288744Y3975886D01*
X-295701Y3959090D01*
Y3940909D01*
X-288744Y3924113D01*
X-275888Y3911257D01*
X-265304Y3906873D01*
Y3893126D01*
X-275888Y3888742D01*
X-288744Y3875886D01*
X-295701Y3859090D01*
Y3840909D01*
X-288744Y3824112D01*
X-275888Y3811257D01*
X-259092Y3804299D01*
X-240911D01*
X-224115Y3811257D01*
X-211259Y3824112D01*
X-206874Y3834698D01*
X-193128D01*
X-188743Y3824112D01*
X-175887Y3811257D01*
X-159091Y3804299D01*
X-140910D01*
X-124114Y3811257D01*
X-111258Y3824112D01*
X-106874Y3834697D01*
X-93127D01*
X-88743Y3824113D01*
X-75887Y3811257D01*
X-59091Y3804300D01*
X-40910D01*
X-24113Y3811257D01*
X-11258Y3824113D01*
X-4300Y3840909D01*
Y3859090D01*
X-11258Y3875887D01*
X-24113Y3888742D01*
X-34698Y3893127D01*
Y3906873D01*
X-24115Y3911257D01*
X-11259Y3924113D01*
X-4301Y3940909D01*
Y3959090D01*
X-11259Y3975886D01*
X-24115Y3988742D01*
X-40911Y3995699D01*
D02*
G37*
G36*
X509591Y3863552D02*
X491410D01*
X474614Y3856595D01*
X461758Y3843739D01*
X457374Y3833156D01*
X443628D01*
X439244Y3843738D01*
X426389Y3856594D01*
X409592Y3863551D01*
X391411D01*
X374615Y3856594D01*
X361759Y3843738D01*
X354802Y3826942D01*
Y3808761D01*
X361759Y3791964D01*
X374615Y3779109D01*
X391411Y3772151D01*
X409592D01*
X426389Y3779109D01*
X439244Y3791964D01*
X443628Y3802548D01*
X457374D01*
X461758Y3791965D01*
X474614Y3779110D01*
X491410Y3772152D01*
X509591D01*
X526388Y3779110D01*
X539243Y3791965D01*
X543628Y3802550D01*
X557374D01*
X561759Y3791965D01*
X574615Y3779109D01*
X591411Y3772152D01*
X609592D01*
X626388Y3779109D01*
X639244Y3791965D01*
X646201Y3808761D01*
Y3826942D01*
X639244Y3843739D01*
X626388Y3856595D01*
X609592Y3863552D01*
X591411D01*
X574615Y3856595D01*
X561759Y3843739D01*
X557374Y3833154D01*
X543628D01*
X539243Y3843739D01*
X526388Y3856595D01*
X509591Y3863552D01*
D02*
G37*
G36*
X359591Y3663552D02*
X341411D01*
X324614Y3656594D01*
X311758Y3643739D01*
X304801Y3626942D01*
Y3608761D01*
X311758Y3591965D01*
X324614Y3579109D01*
X341411Y3572152D01*
X359591D01*
X376388Y3579109D01*
X389244Y3591965D01*
X396201Y3608761D01*
Y3626942D01*
X389244Y3643739D01*
X376388Y3656594D01*
X359591Y3663552D01*
D02*
G37*
G36*
X307357Y3471467D02*
X293155D01*
X280034Y3466032D01*
X269991Y3455990D01*
X264556Y3442868D01*
Y3428666D01*
X269991Y3415545D01*
X280034Y3405502D01*
X293155Y3400067D01*
X307357D01*
X320479Y3405502D01*
X330521Y3415545D01*
X335956Y3428666D01*
Y3442868D01*
X330521Y3455990D01*
X320479Y3466032D01*
X307357Y3471467D01*
D02*
G37*
G36*
X45430Y3331959D02*
X27250D01*
X10453Y3325001D01*
X-2403Y3312146D01*
X-9360Y3295349D01*
Y3277168D01*
X-2403Y3260372D01*
X10453Y3247516D01*
X27203Y3240578D01*
X27251Y3240556D01*
X34634Y3227859D01*
X30912Y3218873D01*
Y3200692D01*
X37870Y3183896D01*
X50725Y3171040D01*
X67522Y3164083D01*
X85703D01*
X102499Y3171040D01*
X115355Y3183896D01*
X122312Y3200692D01*
Y3218873D01*
X115355Y3235669D01*
X102499Y3248525D01*
X85749Y3255463D01*
X85701Y3255485D01*
X78318Y3268183D01*
X82040Y3277168D01*
Y3295349D01*
X75083Y3312146D01*
X62227Y3325001D01*
X45430Y3331959D01*
D02*
G37*
G36*
X-990910Y2745701D02*
X-1009091D01*
X-1025887Y2738743D01*
X-1038743Y2725888D01*
X-1045700Y2709091D01*
Y2690910D01*
X-1038743Y2674114D01*
X-1025887Y2661258D01*
X-1009091Y2654301D01*
X-990910D01*
X-974113Y2661258D01*
X-961258Y2674114D01*
X-954300Y2690910D01*
Y2709091D01*
X-961258Y2725888D01*
X-974113Y2738743D01*
X-990910Y2745701D01*
D02*
G37*
G36*
X1009090Y2745700D02*
X990910D01*
X974113Y2738743D01*
X961257Y2725887D01*
X954300Y2709091D01*
Y2690910D01*
X961257Y2674114D01*
X974113Y2661258D01*
X990910Y2654301D01*
X1009090D01*
X1025887Y2661258D01*
X1038743Y2674114D01*
X1045700Y2690910D01*
Y2709091D01*
X1038743Y2725887D01*
X1025887Y2738743D01*
X1009090Y2745700D01*
D02*
G37*
G36*
Y2345701D02*
X990910D01*
X974113Y2338743D01*
X961257Y2325888D01*
X954300Y2309091D01*
Y2290910D01*
X961257Y2274114D01*
X974113Y2261258D01*
X990910Y2254301D01*
X1009090D01*
X1025887Y2261258D01*
X1038743Y2274114D01*
X1045700Y2290910D01*
Y2309091D01*
X1038743Y2325888D01*
X1025887Y2338743D01*
X1009090Y2345701D01*
D02*
G37*
G36*
X-990910Y2345700D02*
X-1009090D01*
X-1025887Y2338743D01*
X-1038743Y2325887D01*
X-1045700Y2309091D01*
Y2290910D01*
X-1038743Y2274114D01*
X-1025887Y2261258D01*
X-1009090Y2254301D01*
X-990910D01*
X-974113Y2261258D01*
X-961257Y2274114D01*
X-954300Y2290910D01*
Y2309091D01*
X-961257Y2325887D01*
X-974113Y2338743D01*
X-990910Y2345700D01*
D02*
G37*
G36*
X431590Y2345700D02*
X413409D01*
X396613Y2338743D01*
X383757Y2325887D01*
X376800Y2309091D01*
Y2290910D01*
X383757Y2274113D01*
X396613Y2261258D01*
X413409Y2254300D01*
X431590D01*
X448386Y2261258D01*
X461242Y2274113D01*
X468199Y2290910D01*
Y2309091D01*
X461242Y2325887D01*
X448386Y2338743D01*
X431590Y2345700D01*
D02*
G37*
G36*
X1009091Y1945700D02*
X990910D01*
X974113Y1938743D01*
X961258Y1925887D01*
X954300Y1909091D01*
Y1890910D01*
X961258Y1874114D01*
X974113Y1861258D01*
X990910Y1854301D01*
X1009091D01*
X1025887Y1861258D01*
X1038743Y1874114D01*
X1045700Y1890910D01*
Y1909091D01*
X1038743Y1925887D01*
X1025887Y1938743D01*
X1009091Y1945700D01*
D02*
G37*
G36*
X-990909Y1945700D02*
X-1009090D01*
X-1025887Y1938743D01*
X-1038742Y1925887D01*
X-1045700Y1909091D01*
Y1890910D01*
X-1038742Y1874113D01*
X-1025887Y1861258D01*
X-1009090Y1854300D01*
X-990909D01*
X-974113Y1861258D01*
X-961257Y1874113D01*
X-954300Y1890910D01*
Y1909091D01*
X-961257Y1925887D01*
X-974113Y1938743D01*
X-990909Y1945700D01*
D02*
G37*
G36*
X1009090Y1445701D02*
X990910D01*
X974113Y1438744D01*
X961257Y1425888D01*
X954300Y1409091D01*
Y1390911D01*
X961257Y1374114D01*
X974113Y1361258D01*
X990910Y1354301D01*
X1009090D01*
X1025887Y1361258D01*
X1038743Y1374114D01*
X1045700Y1390911D01*
Y1409091D01*
X1038743Y1425888D01*
X1025887Y1438744D01*
X1009090Y1445701D01*
D02*
G37*
G36*
X-990910Y1445701D02*
X-1009091D01*
X-1025887Y1438743D01*
X-1038743Y1425888D01*
X-1045700Y1409091D01*
Y1390910D01*
X-1038743Y1374114D01*
X-1025887Y1361258D01*
X-1009091Y1354301D01*
X-990910D01*
X-974113Y1361258D01*
X-961258Y1374114D01*
X-954300Y1390910D01*
Y1409091D01*
X-961258Y1425888D01*
X-974113Y1438743D01*
X-990910Y1445701D01*
D02*
G37*
G36*
X1009090Y1045700D02*
X990910D01*
X974113Y1038743D01*
X961257Y1025887D01*
X954300Y1009091D01*
Y990910D01*
X961257Y974114D01*
X974113Y961258D01*
X990910Y954301D01*
X1009090D01*
X1025887Y961258D01*
X1038743Y974114D01*
X1045700Y990910D01*
Y1009091D01*
X1038743Y1025887D01*
X1025887Y1038743D01*
X1009090Y1045700D01*
D02*
G37*
G36*
X-990910D02*
X-1009090D01*
X-1025887Y1038743D01*
X-1038743Y1025887D01*
X-1045700Y1009091D01*
Y990910D01*
X-1038743Y974114D01*
X-1025887Y961258D01*
X-1009090Y954301D01*
X-990910D01*
X-974113Y961258D01*
X-961257Y974114D01*
X-954300Y990910D01*
Y1009091D01*
X-961257Y1025887D01*
X-974113Y1038743D01*
X-990910Y1045700D01*
D02*
G37*
G36*
X-639051Y1012700D02*
X-680949D01*
X-722042Y1004526D01*
X-760751Y988492D01*
X-795588Y965215D01*
X-825215Y935588D01*
X-848492Y900751D01*
X-864526Y862042D01*
X-872700Y820949D01*
Y779051D01*
X-864526Y737958D01*
X-848492Y699249D01*
X-825215Y664412D01*
X-795588Y634785D01*
X-760751Y611508D01*
X-722042Y595474D01*
X-680949Y587300D01*
X-639051D01*
X-597958Y595474D01*
X-559249Y611508D01*
X-524412Y634785D01*
X-494785Y664412D01*
X-471508Y699249D01*
X-455474Y737958D01*
X-447300Y779051D01*
Y820949D01*
X-455474Y862042D01*
X-471508Y900751D01*
X-494785Y935588D01*
X-524412Y965215D01*
X-559249Y988492D01*
X-597958Y1004526D01*
X-639051Y1012700D01*
D02*
G37*
G36*
X680949Y1012700D02*
X639051D01*
X597958Y1004526D01*
X559249Y988492D01*
X524412Y965214D01*
X494785Y935588D01*
X471508Y900751D01*
X455474Y862042D01*
X447300Y820949D01*
Y779051D01*
X455474Y737957D01*
X471508Y699249D01*
X494785Y664411D01*
X524412Y634785D01*
X559249Y611508D01*
X597958Y595474D01*
X639051Y587300D01*
X680949D01*
X722042Y595474D01*
X760751Y611508D01*
X795588Y634785D01*
X825215Y664411D01*
X848492Y699249D01*
X864526Y737957D01*
X872700Y779051D01*
Y820949D01*
X864526Y862042D01*
X848492Y900751D01*
X825215Y935588D01*
X795588Y965214D01*
X760751Y988492D01*
X722042Y1004526D01*
X680949Y1012700D01*
D02*
G37*
G36*
X-990909Y645700D02*
X-1009090D01*
X-1025887Y638743D01*
X-1038742Y625887D01*
X-1045700Y609091D01*
Y590910D01*
X-1038742Y574113D01*
X-1025887Y561258D01*
X-1009090Y554300D01*
X-990909D01*
X-974113Y561258D01*
X-961257Y574113D01*
X-954300Y590910D01*
Y609091D01*
X-961257Y625887D01*
X-974113Y638743D01*
X-990909Y645700D01*
D02*
G37*
G36*
X1009090Y645700D02*
X990910D01*
X974113Y638743D01*
X961257Y625887D01*
X954300Y609090D01*
Y590910D01*
X961257Y574113D01*
X974113Y561257D01*
X990910Y554300D01*
X1009090D01*
X1025887Y561257D01*
X1038743Y574113D01*
X1045700Y590910D01*
Y609090D01*
X1038743Y625887D01*
X1025887Y638743D01*
X1009090Y645700D01*
D02*
G37*
G36*
X-40909Y45700D02*
X-59090D01*
X-75887Y38743D01*
X-88743Y25887D01*
X-93127Y15302D01*
X-106874D01*
X-111258Y25887D01*
X-124114Y38743D01*
X-140910Y45700D01*
X-159091D01*
X-175887Y38743D01*
X-188743Y25887D01*
X-193127Y15303D01*
X-206874D01*
X-211257Y25887D01*
X-224113Y38743D01*
X-240910Y45700D01*
X-259090D01*
X-275887Y38743D01*
X-288743Y25887D01*
X-295700Y9090D01*
Y-9090D01*
X-288743Y-25887D01*
X-275887Y-38743D01*
X-265302Y-43127D01*
Y-56873D01*
X-275887Y-61257D01*
X-288742Y-74113D01*
X-295700Y-90910D01*
Y-109090D01*
X-288742Y-125887D01*
X-275887Y-138743D01*
X-259090Y-145700D01*
X-240909D01*
X-224113Y-138743D01*
X-211257Y-125887D01*
X-206873Y-115303D01*
X-193126D01*
X-188742Y-125887D01*
X-175887Y-138743D01*
X-159090Y-145700D01*
X-140909D01*
X-124113Y-138743D01*
X-111257Y-125887D01*
X-106873Y-115302D01*
X-93126D01*
X-88742Y-125887D01*
X-75886Y-138742D01*
X-59090Y-145700D01*
X-40909D01*
X-24112Y-138742D01*
X-11257Y-125887D01*
X-4299Y-109090D01*
Y-90909D01*
X-11257Y-74113D01*
X-24112Y-61257D01*
X-34697Y-56873D01*
Y-43127D01*
X-24113Y-38743D01*
X-11257Y-25887D01*
X-4300Y-9090D01*
Y9090D01*
X-11257Y25887D01*
X-24113Y38743D01*
X-40909Y45700D01*
D02*
G37*
G36*
X804508Y-532471D02*
X786327D01*
X769531Y-539428D01*
X758016Y-550942D01*
X750750Y-551681D01*
X743484Y-550942D01*
X731970Y-539428D01*
X715173Y-532471D01*
X696993D01*
X680196Y-539428D01*
X667340Y-552284D01*
X660383Y-569080D01*
Y-587261D01*
X667340Y-604057D01*
X678855Y-615572D01*
X679594Y-622837D01*
X678855Y-630104D01*
X667341Y-641618D01*
X660383Y-658415D01*
Y-676596D01*
X667341Y-693392D01*
X680197Y-706248D01*
X696993Y-713205D01*
X715174D01*
X731970Y-706248D01*
X743485Y-694734D01*
X750751Y-693995D01*
X758017Y-694734D01*
X768190Y-704907D01*
X768929Y-712172D01*
X768190Y-719439D01*
X756676Y-730953D01*
X749719Y-747750D01*
Y-765931D01*
X756676Y-782727D01*
X769532Y-795583D01*
X786328Y-802540D01*
X804509D01*
X821305Y-795583D01*
X834161Y-782727D01*
X841118Y-765931D01*
Y-747750D01*
X834161Y-730953D01*
X822647Y-719439D01*
X821908Y-712174D01*
X822646Y-704907D01*
X834161Y-693392D01*
X841118Y-676596D01*
Y-658415D01*
X834161Y-641618D01*
X822646Y-630104D01*
X821907Y-622839D01*
X822646Y-615572D01*
X834160Y-604057D01*
X841117Y-587261D01*
Y-569080D01*
X834160Y-552284D01*
X821304Y-539428D01*
X804508Y-532471D01*
D02*
G37*
G36*
X-1040910Y-604300D02*
X-1059090D01*
X-1075887Y-611257D01*
X-1088743Y-624113D01*
X-1093127Y-634697D01*
X-1106873D01*
X-1111257Y-624113D01*
X-1124113Y-611257D01*
X-1140910Y-604300D01*
X-1159090D01*
X-1175887Y-611257D01*
X-1188743Y-624113D01*
X-1195700Y-640910D01*
Y-659090D01*
X-1188743Y-675887D01*
X-1175887Y-688743D01*
X-1165302Y-693127D01*
Y-706873D01*
X-1175887Y-711257D01*
X-1188743Y-724113D01*
X-1195700Y-740910D01*
Y-759090D01*
X-1188743Y-775887D01*
X-1175887Y-788743D01*
X-1165302Y-793127D01*
Y-806873D01*
X-1175887Y-811257D01*
X-1188743Y-824113D01*
X-1195700Y-840910D01*
Y-859090D01*
X-1188743Y-875887D01*
X-1175887Y-888743D01*
X-1159090Y-895700D01*
X-1140910D01*
X-1124113Y-888743D01*
X-1111257Y-875887D01*
X-1106873Y-865303D01*
X-1093127D01*
X-1088743Y-875887D01*
X-1075887Y-888743D01*
X-1059090Y-895700D01*
X-1040910D01*
X-1024113Y-888743D01*
X-1011257Y-875887D01*
X-1004300Y-859090D01*
Y-840910D01*
X-1011257Y-824113D01*
X-1024113Y-811257D01*
X-1034697Y-806873D01*
Y-793127D01*
X-1024113Y-788743D01*
X-1011257Y-775887D01*
X-1004300Y-759090D01*
Y-740910D01*
X-1011257Y-724113D01*
X-1024113Y-711257D01*
X-1034697Y-706873D01*
Y-693127D01*
X-1024113Y-688743D01*
X-1011257Y-675887D01*
X-1004300Y-659090D01*
Y-640910D01*
X-1011257Y-624113D01*
X-1024113Y-611257D01*
X-1040910Y-604300D01*
D02*
G37*
G36*
X-1240910Y-1304300D02*
X-1259090D01*
X-1275887Y-1311257D01*
X-1288743Y-1324113D01*
X-1295700Y-1340910D01*
Y-1359090D01*
X-1288743Y-1375887D01*
X-1275887Y-1388743D01*
X-1265303Y-1393127D01*
Y-1406873D01*
X-1275887Y-1411257D01*
X-1288743Y-1424113D01*
X-1295700Y-1440909D01*
Y-1459090D01*
X-1288743Y-1475887D01*
X-1275887Y-1488743D01*
X-1259090Y-1495700D01*
X-1240910D01*
X-1224113Y-1488743D01*
X-1211257Y-1475887D01*
X-1204300Y-1459090D01*
Y-1440909D01*
X-1211257Y-1424113D01*
X-1224113Y-1411257D01*
X-1234697Y-1406873D01*
Y-1393127D01*
X-1224113Y-1388743D01*
X-1211257Y-1375887D01*
X-1204300Y-1359090D01*
Y-1340910D01*
X-1211257Y-1324113D01*
X-1224113Y-1311257D01*
X-1240910Y-1304300D01*
D02*
G37*
G36*
X678589Y-1897152D02*
X660408D01*
X643611Y-1904110D01*
X631627Y-1916094D01*
X624498Y-1916558D01*
X617370Y-1916094D01*
X605385Y-1904110D01*
X588589Y-1897152D01*
X570408D01*
X553612Y-1904110D01*
X541627Y-1916094D01*
X534499Y-1916558D01*
X527370Y-1916094D01*
X515386Y-1904110D01*
X498589Y-1897152D01*
X480408D01*
X463612Y-1904110D01*
X451627Y-1916094D01*
X444499Y-1916558D01*
X437370Y-1916094D01*
X425386Y-1904110D01*
X408589Y-1897152D01*
X390408D01*
X373612Y-1904110D01*
X360756Y-1916965D01*
X353799Y-1933762D01*
Y-1951943D01*
X360756Y-1968739D01*
X372740Y-1980723D01*
X373204Y-1987852D01*
X372740Y-1994981D01*
X360756Y-2006965D01*
X353799Y-2023761D01*
Y-2041942D01*
X360756Y-2058739D01*
X373612Y-2071594D01*
X390408Y-2078552D01*
X408589D01*
X425386Y-2071594D01*
X437370Y-2059610D01*
X444499Y-2059146D01*
X451627Y-2059610D01*
X463612Y-2071594D01*
X480408Y-2078552D01*
X498589D01*
X515386Y-2071594D01*
X527370Y-2059610D01*
X534499Y-2059146D01*
X541627Y-2059610D01*
X553612Y-2071594D01*
X570408Y-2078552D01*
X588589D01*
X605385Y-2071594D01*
X617370Y-2059610D01*
X624498Y-2059146D01*
X631627Y-2059610D01*
X643611Y-2071594D01*
X660408Y-2078552D01*
X678589D01*
X695385Y-2071594D01*
X708241Y-2058739D01*
X715198Y-2041942D01*
Y-2023761D01*
X708241Y-2006965D01*
X696257Y-1994981D01*
X695793Y-1987852D01*
X696257Y-1980723D01*
X708241Y-1968739D01*
X715198Y-1951943D01*
Y-1933762D01*
X708241Y-1916965D01*
X695385Y-1904110D01*
X678589Y-1897152D01*
D02*
G37*
G36*
X-415909Y-2579300D02*
X-434090D01*
X-450887Y-2586257D01*
X-463742Y-2599113D01*
X-470700Y-2615910D01*
Y-2634090D01*
X-463742Y-2650887D01*
X-452129Y-2662500D01*
X-463743Y-2674113D01*
X-470700Y-2690910D01*
Y-2709091D01*
X-463743Y-2725887D01*
X-450887Y-2738743D01*
X-434090Y-2745700D01*
X-415910D01*
X-399113Y-2738743D01*
X-386257Y-2725887D01*
X-379300Y-2709091D01*
Y-2690910D01*
X-386257Y-2674113D01*
X-397870Y-2662500D01*
X-386257Y-2650887D01*
X-379300Y-2634090D01*
Y-2615910D01*
X-386257Y-2599113D01*
X-399113Y-2586257D01*
X-415909Y-2579300D01*
D02*
G37*
G36*
X1309592Y-2911447D02*
X1291411D01*
X1274614Y-2918405D01*
X1261759Y-2931260D01*
X1254801Y-2948057D01*
Y-2957148D01*
X1146199D01*
Y-2948058D01*
X1139242Y-2931261D01*
X1126386Y-2918406D01*
X1109589Y-2911448D01*
X1091409D01*
X1074612Y-2918406D01*
X1061756Y-2931261D01*
X1054799Y-2948058D01*
Y-2957148D01*
X946199D01*
Y-2948058D01*
X939242Y-2931261D01*
X926386Y-2918406D01*
X909589Y-2911448D01*
X891409D01*
X874612Y-2918406D01*
X861756Y-2931261D01*
X854799Y-2948058D01*
Y-2957148D01*
X746198D01*
Y-2948058D01*
X739241Y-2931261D01*
X726385Y-2918406D01*
X709588Y-2911448D01*
X691408D01*
X674611Y-2918406D01*
X661755Y-2931261D01*
X654798Y-2948058D01*
Y-2957148D01*
X546199D01*
Y-2948058D01*
X539242Y-2931261D01*
X526386Y-2918406D01*
X509590Y-2911448D01*
X491409D01*
X474612Y-2918406D01*
X461757Y-2931261D01*
X454799Y-2948058D01*
Y-2957148D01*
X346199D01*
Y-2948058D01*
X339242Y-2931261D01*
X326386Y-2918406D01*
X309590Y-2911448D01*
X291409D01*
X274613Y-2918406D01*
X261757Y-2931261D01*
X254800Y-2948058D01*
Y-2957148D01*
X146200D01*
Y-2948058D01*
X139242Y-2931261D01*
X126387Y-2918406D01*
X109590Y-2911448D01*
X91409D01*
X74613Y-2918406D01*
X61757Y-2931261D01*
X54800Y-2948058D01*
Y-2957148D01*
X-53800D01*
Y-2948058D01*
X-60758Y-2931261D01*
X-73613Y-2918406D01*
X-90410Y-2911448D01*
X-108591D01*
X-125387Y-2918406D01*
X-138243Y-2931261D01*
X-145200Y-2948058D01*
Y-2957148D01*
X-253800D01*
Y-2948058D01*
X-260757Y-2931261D01*
X-273613Y-2918406D01*
X-290410Y-2911448D01*
X-308590D01*
X-325387Y-2918406D01*
X-338243Y-2931261D01*
X-345200Y-2948058D01*
Y-2957148D01*
X-1253799D01*
Y-2948058D01*
X-1260756Y-2931261D01*
X-1273612Y-2918406D01*
X-1290408Y-2911448D01*
X-1308589D01*
X-1325386Y-2918406D01*
X-1338241Y-2931261D01*
X-1345199Y-2948058D01*
Y-2966239D01*
X-1338241Y-2983035D01*
X-1325386Y-2995891D01*
X-1308589Y-3002848D01*
X-1299499D01*
Y-3111448D01*
X-1308589D01*
X-1325386Y-3118405D01*
X-1338241Y-3131261D01*
X-1345199Y-3148058D01*
Y-3166239D01*
X-1338241Y-3183035D01*
X-1325386Y-3195891D01*
X-1308589Y-3202848D01*
X-1299499D01*
Y-3311448D01*
X-1308589D01*
X-1325386Y-3318405D01*
X-1338241Y-3331261D01*
X-1345199Y-3348058D01*
Y-3366238D01*
X-1338241Y-3383035D01*
X-1325386Y-3395891D01*
X-1308589Y-3402848D01*
X-1299499D01*
Y-3511448D01*
X-1308589D01*
X-1325386Y-3518405D01*
X-1338241Y-3531261D01*
X-1345199Y-3548057D01*
Y-3566238D01*
X-1338241Y-3583035D01*
X-1325386Y-3595890D01*
X-1308589Y-3602848D01*
X-1299499D01*
Y-3711448D01*
X-1308589D01*
X-1325386Y-3718405D01*
X-1338241Y-3731261D01*
X-1345199Y-3748057D01*
Y-3766238D01*
X-1338241Y-3783035D01*
X-1325386Y-3795890D01*
X-1308589Y-3802848D01*
X-1299499D01*
Y-3911448D01*
X-1308589D01*
X-1325386Y-3918405D01*
X-1338241Y-3931261D01*
X-1345199Y-3948057D01*
Y-3966238D01*
X-1338241Y-3983034D01*
X-1325386Y-3995890D01*
X-1308589Y-4002847D01*
X-1299499D01*
Y-4111448D01*
X-1308589D01*
X-1325385Y-4118406D01*
X-1338241Y-4131261D01*
X-1345198Y-4148058D01*
Y-4166239D01*
X-1338241Y-4183035D01*
X-1325385Y-4195891D01*
X-1308589Y-4202848D01*
X-1299499D01*
Y-4311448D01*
X-1308589D01*
X-1325385Y-4318405D01*
X-1338241Y-4331261D01*
X-1345198Y-4348058D01*
Y-4366238D01*
X-1338241Y-4383035D01*
X-1325385Y-4395891D01*
X-1308589Y-4402848D01*
X-1299499D01*
Y-4511448D01*
X-1308589D01*
X-1325385Y-4518405D01*
X-1338241Y-4531261D01*
X-1345198Y-4548057D01*
Y-4566238D01*
X-1338241Y-4583035D01*
X-1325385Y-4595890D01*
X-1308589Y-4602848D01*
X-1299499D01*
Y-4711448D01*
X-1308589D01*
X-1325385Y-4718405D01*
X-1338241Y-4731261D01*
X-1345198Y-4748057D01*
Y-4766238D01*
X-1338241Y-4783035D01*
X-1325385Y-4795890D01*
X-1308589Y-4802848D01*
X-1299499D01*
Y-4911448D01*
X-1308589D01*
X-1325385Y-4918405D01*
X-1338241Y-4931261D01*
X-1345198Y-4948057D01*
Y-4966238D01*
X-1338241Y-4983034D01*
X-1325385Y-4995890D01*
X-1308589Y-5002848D01*
X-1299499D01*
Y-5111447D01*
X-1308589D01*
X-1325385Y-5118405D01*
X-1338241Y-5131261D01*
X-1345198Y-5148057D01*
Y-5166238D01*
X-1338241Y-5183034D01*
X-1325385Y-5195890D01*
X-1308589Y-5202847D01*
X-1299499D01*
Y-5311447D01*
X-1308589D01*
X-1325386Y-5318405D01*
X-1338241Y-5331260D01*
X-1345199Y-5348057D01*
Y-5366238D01*
X-1338241Y-5383034D01*
X-1325386Y-5395890D01*
X-1308589Y-5402847D01*
X-1290408D01*
X-1273612Y-5395890D01*
X-1260756Y-5383034D01*
X-1253799Y-5366238D01*
Y-5357147D01*
X-1145199D01*
Y-5366238D01*
X-1138241Y-5383034D01*
X-1125386Y-5395890D01*
X-1108589Y-5402847D01*
X-1090408D01*
X-1073612Y-5395890D01*
X-1060756Y-5383034D01*
X-1053799Y-5366238D01*
Y-5357147D01*
X-945199D01*
Y-5366238D01*
X-938241Y-5383034D01*
X-925386Y-5395890D01*
X-908589Y-5402847D01*
X-890408D01*
X-873612Y-5395890D01*
X-860756Y-5383034D01*
X-853799Y-5366238D01*
Y-5357147D01*
X1254801D01*
Y-5366238D01*
X1261759Y-5383034D01*
X1274614Y-5395890D01*
X1291411Y-5402847D01*
X1309592D01*
X1326388Y-5395890D01*
X1339244Y-5383034D01*
X1346201Y-5366238D01*
Y-5348057D01*
X1339244Y-5331260D01*
X1326388Y-5318405D01*
X1309592Y-5311447D01*
X1300501D01*
Y-5202847D01*
X1309592D01*
X1326388Y-5195890D01*
X1339244Y-5183034D01*
X1346201Y-5166238D01*
Y-5148057D01*
X1339244Y-5131261D01*
X1326388Y-5118405D01*
X1309592Y-5111447D01*
X1300501D01*
Y-5002847D01*
X1309592D01*
X1326388Y-4995890D01*
X1339244Y-4983034D01*
X1346201Y-4966238D01*
Y-4948057D01*
X1339244Y-4931260D01*
X1326388Y-4918405D01*
X1309592Y-4911447D01*
X1300501D01*
Y-4802847D01*
X1309592D01*
X1326388Y-4795890D01*
X1339244Y-4783034D01*
X1346201Y-4766238D01*
Y-4748057D01*
X1339244Y-4731261D01*
X1326388Y-4718405D01*
X1309592Y-4711448D01*
X1300501D01*
Y-4602847D01*
X1309592D01*
X1326388Y-4595890D01*
X1339244Y-4583034D01*
X1346201Y-4566238D01*
Y-4548057D01*
X1339244Y-4531260D01*
X1326388Y-4518405D01*
X1309592Y-4511447D01*
X1300501D01*
Y-4402847D01*
X1309592D01*
X1326388Y-4395890D01*
X1339244Y-4383034D01*
X1346201Y-4366238D01*
Y-4348057D01*
X1339244Y-4331261D01*
X1326388Y-4318405D01*
X1309592Y-4311448D01*
X1300501D01*
Y-4202848D01*
X1309592D01*
X1326388Y-4195890D01*
X1339244Y-4183035D01*
X1346201Y-4166238D01*
Y-4148057D01*
X1339244Y-4131261D01*
X1326388Y-4118405D01*
X1309592Y-4111448D01*
X1300501D01*
Y-4002847D01*
X1309592D01*
X1326388Y-3995890D01*
X1339244Y-3983034D01*
X1346201Y-3966238D01*
Y-3948057D01*
X1339244Y-3931260D01*
X1326388Y-3918405D01*
X1309592Y-3911447D01*
X1300501D01*
Y-3802847D01*
X1309592D01*
X1326388Y-3795890D01*
X1339244Y-3783034D01*
X1346201Y-3766238D01*
Y-3748057D01*
X1339244Y-3731261D01*
X1326388Y-3718405D01*
X1309592Y-3711447D01*
X1300501D01*
Y-3602847D01*
X1309592D01*
X1326388Y-3595890D01*
X1339244Y-3583034D01*
X1346201Y-3566238D01*
Y-3548057D01*
X1339244Y-3531260D01*
X1326388Y-3518405D01*
X1309592Y-3511447D01*
X1300501D01*
Y-3402847D01*
X1309592D01*
X1326388Y-3395890D01*
X1339244Y-3383034D01*
X1346201Y-3366238D01*
Y-3348057D01*
X1339244Y-3331261D01*
X1326388Y-3318405D01*
X1309592Y-3311448D01*
X1300501D01*
Y-3202849D01*
X1309593D01*
X1326389Y-3195891D01*
X1339245Y-3183036D01*
X1346202Y-3166239D01*
Y-3148058D01*
X1339245Y-3131262D01*
X1326389Y-3118406D01*
X1309593Y-3111449D01*
X1300501D01*
Y-3002847D01*
X1309592D01*
X1326388Y-2995890D01*
X1339244Y-2983034D01*
X1346201Y-2966238D01*
Y-2948057D01*
X1339244Y-2931260D01*
X1326388Y-2918405D01*
X1309592Y-2911447D01*
D02*
G37*
G36*
X909592Y-5461448D02*
X891411D01*
X874614Y-5468405D01*
X861758Y-5481261D01*
X854801Y-5498057D01*
Y-5510631D01*
X842101Y-5513157D01*
X839244Y-5506260D01*
X826388Y-5493404D01*
X809592Y-5486447D01*
X791411D01*
X774615Y-5493404D01*
X761759Y-5506260D01*
X754802Y-5523057D01*
Y-5541237D01*
X761759Y-5558034D01*
X774615Y-5570890D01*
X791411Y-5577847D01*
X809592D01*
X826388Y-5570890D01*
X839244Y-5558034D01*
X846202Y-5541237D01*
Y-5528663D01*
X858902Y-5526137D01*
X861758Y-5533034D01*
X874614Y-5545890D01*
X891411Y-5552847D01*
X909592D01*
X926388Y-5545890D01*
X939244Y-5533034D01*
X946201Y-5516238D01*
Y-5498057D01*
X939244Y-5481261D01*
X926388Y-5468405D01*
X909592Y-5461448D01*
D02*
G37*
G36*
X1046300Y-5458291D02*
X1028119D01*
X1011322Y-5465249D01*
X998467Y-5478104D01*
X991509Y-5494901D01*
Y-5513082D01*
X998467Y-5529878D01*
X1011322Y-5542734D01*
X1028119Y-5549691D01*
X1046300D01*
X1063096Y-5542734D01*
X1075952Y-5529878D01*
X1082909Y-5513082D01*
Y-5494901D01*
X1075952Y-5478104D01*
X1063096Y-5465249D01*
X1046300Y-5458291D01*
D02*
G37*
G36*
X-748409Y-5749300D02*
X-766590D01*
X-783387Y-5756258D01*
X-796243Y-5769113D01*
X-803200Y-5785910D01*
Y-5804091D01*
X-796243Y-5820887D01*
X-783387Y-5833743D01*
X-766590Y-5840700D01*
X-757433D01*
X-748372Y-5840862D01*
X-745700Y-5852434D01*
Y-5859091D01*
X-738742Y-5875887D01*
X-725887Y-5888743D01*
X-709090Y-5895700D01*
X-690909D01*
X-674113Y-5888743D01*
X-661257Y-5875887D01*
X-654300Y-5859091D01*
Y-5840910D01*
X-661257Y-5824113D01*
X-674113Y-5811258D01*
X-690909Y-5804300D01*
X-700067D01*
X-709128Y-5804138D01*
X-711800Y-5792567D01*
Y-5785910D01*
X-718757Y-5769113D01*
X-731613Y-5756258D01*
X-748409Y-5749300D01*
D02*
G37*
G36*
X309090Y-5904300D02*
X290910D01*
X274113Y-5911257D01*
X261257Y-5924113D01*
X256873Y-5934697D01*
X243127D01*
X238743Y-5924113D01*
X225887Y-5911257D01*
X209091Y-5904300D01*
X190910D01*
X174113Y-5911257D01*
X161257Y-5924113D01*
X156873Y-5934698D01*
X143127D01*
X138743Y-5924113D01*
X125887Y-5911257D01*
X109090Y-5904300D01*
X90910D01*
X74113Y-5911257D01*
X61257Y-5924113D01*
X56873Y-5934698D01*
X43127D01*
X38743Y-5924113D01*
X25887Y-5911257D01*
X9090Y-5904300D01*
X-9090D01*
X-25887Y-5911257D01*
X-38743Y-5924113D01*
X-45700Y-5940910D01*
Y-5959090D01*
X-38743Y-5975887D01*
X-25887Y-5988743D01*
X-9090Y-5995700D01*
X9090D01*
X25887Y-5988743D01*
X38743Y-5975887D01*
X43127Y-5965303D01*
X56873D01*
X61257Y-5975887D01*
X74113Y-5988743D01*
X90910Y-5995700D01*
X109090D01*
X125887Y-5988743D01*
X138743Y-5975887D01*
X143127Y-5965303D01*
X156873D01*
X161257Y-5975887D01*
X174113Y-5988743D01*
X190910Y-5995700D01*
X209091D01*
X225887Y-5988743D01*
X238743Y-5975887D01*
X243127Y-5965303D01*
X256873D01*
X261257Y-5975887D01*
X274113Y-5988743D01*
X290910Y-5995700D01*
X309090D01*
X325887Y-5988743D01*
X338743Y-5975887D01*
X345700Y-5959090D01*
Y-5940910D01*
X338743Y-5924113D01*
X325887Y-5911257D01*
X309090Y-5904300D01*
D02*
G37*
G36*
X-5537000Y-6228671D02*
X-5612300D01*
Y-6352300D01*
X-5488671D01*
Y-6277000D01*
X-5492350Y-6258505D01*
X-5502826Y-6242826D01*
X-5518505Y-6232350D01*
X-5537000Y-6228671D01*
D02*
G37*
G36*
X-5637700D02*
X-5713000D01*
X-5731495Y-6232350D01*
X-5747173Y-6242826D01*
X-5757650Y-6258505D01*
X-5761329Y-6277000D01*
Y-6352300D01*
X-5637700D01*
Y-6228671D01*
D02*
G37*
G36*
X4700000Y-6385699D02*
X4691561Y-6386252D01*
X4667230Y-6386252D01*
X4666353Y-6386615D01*
X4665435Y-6386370D01*
X4641308Y-6389546D01*
X4632870Y-6390099D01*
X4624576Y-6391749D01*
X4600453Y-6394925D01*
X4599630Y-6395400D01*
X4598689Y-6395276D01*
X4575185Y-6401573D01*
X4566889Y-6403224D01*
X4558879Y-6405942D01*
X4535379Y-6412239D01*
X4534626Y-6412818D01*
X4533676D01*
X4511201Y-6422127D01*
X4503186Y-6424848D01*
X4495594Y-6428592D01*
X4473122Y-6437900D01*
X4472451Y-6438571D01*
X4471509Y-6438695D01*
X4450443Y-6450858D01*
X4442849Y-6454603D01*
X4435810Y-6459306D01*
X4414747Y-6471467D01*
X4414169Y-6472220D01*
X4413252Y-6472466D01*
X4393954Y-6487274D01*
X4386914Y-6491978D01*
X4380547Y-6497561D01*
X4361253Y-6512366D01*
X4360778Y-6513188D01*
X4359901Y-6513552D01*
X4342703Y-6530749D01*
X4336334Y-6536334D01*
X4330750Y-6542702D01*
X4313554Y-6559898D01*
X4313191Y-6560775D01*
X4312369Y-6561250D01*
X4297565Y-6580543D01*
X4291978Y-6586914D01*
X4287270Y-6593959D01*
X4272468Y-6613249D01*
X4272223Y-6614166D01*
X4271469Y-6614744D01*
X4259313Y-6635800D01*
X4254602Y-6642850D01*
X4250852Y-6650454D01*
X4238698Y-6671506D01*
X4238574Y-6672448D01*
X4237902Y-6673119D01*
X4228600Y-6695578D01*
X4224848Y-6703186D01*
X4222121Y-6711218D01*
X4212820Y-6733673D01*
Y-6734623D01*
X4212242Y-6735376D01*
X4205950Y-6758857D01*
X4203223Y-6766889D01*
X4201569Y-6775208D01*
X4195278Y-6798686D01*
X4195402Y-6799627D01*
X4194927Y-6800450D01*
X4191754Y-6824548D01*
X4190099Y-6832871D01*
X4189544Y-6841337D01*
X4186372Y-6865433D01*
X4186617Y-6866350D01*
X4186254Y-6867227D01*
X4186255Y-6891526D01*
X4185699Y-6900000D01*
X4186255Y-6908474D01*
X4186254Y-6932770D01*
X4186617Y-6933648D01*
X4186372Y-6934564D01*
X4189544Y-6958658D01*
X4190099Y-6967130D01*
X4191755Y-6975455D01*
X4194927Y-6999548D01*
X4195402Y-7000370D01*
X4195278Y-7001311D01*
X4201567Y-7024784D01*
X4203223Y-7033111D01*
X4205952Y-7041151D01*
X4212242Y-7064622D01*
X4212820Y-7065375D01*
Y-7066324D01*
X4222118Y-7088772D01*
X4224848Y-7096815D01*
X4228604Y-7104433D01*
X4237902Y-7126879D01*
X4238573Y-7127550D01*
X4238697Y-7128491D01*
X4250845Y-7149532D01*
X4254602Y-7157151D01*
X4259322Y-7164214D01*
X4271469Y-7185254D01*
X4272222Y-7185832D01*
X4272468Y-7186749D01*
X4287258Y-7206023D01*
X4291978Y-7213087D01*
X4297579Y-7219474D01*
X4312369Y-7238748D01*
X4313191Y-7239223D01*
X4313554Y-7240100D01*
X4330733Y-7257278D01*
X4336334Y-7263666D01*
X4342722Y-7269268D01*
X4359901Y-7286446D01*
X4360778Y-7286810D01*
X4361253Y-7287632D01*
X4380526Y-7302421D01*
X4386914Y-7308022D01*
X4393979Y-7312744D01*
X4413252Y-7327532D01*
X4414169Y-7327778D01*
X4414747Y-7328531D01*
X4435781Y-7340675D01*
X4442849Y-7345398D01*
X4450475Y-7349159D01*
X4471509Y-7361303D01*
X4472451Y-7361426D01*
X4473122Y-7362098D01*
X4495560Y-7371392D01*
X4503186Y-7375152D01*
X4511238Y-7377886D01*
X4533677Y-7387180D01*
X4534626D01*
X4535380Y-7387758D01*
X4558838Y-7394044D01*
X4566889Y-7396777D01*
X4575229Y-7398436D01*
X4598690Y-7404722D01*
X4599631Y-7404598D01*
X4600454Y-7405073D01*
X4624530Y-7408242D01*
X4632870Y-7409901D01*
X4641357Y-7410457D01*
X4665436Y-7413627D01*
X4666353Y-7413382D01*
X4667231Y-7413745D01*
X4691511Y-7413745D01*
X4700000Y-7414301D01*
X4708488Y-7413745D01*
X4732774Y-7413745D01*
X4733651Y-7413382D01*
X4734568Y-7413628D01*
X4758658Y-7410456D01*
X4767130Y-7409901D01*
X4775452Y-7408246D01*
X4799551Y-7405073D01*
X4800373Y-7404599D01*
X4801315Y-7404723D01*
X4824801Y-7398430D01*
X4833111Y-7396777D01*
X4841132Y-7394054D01*
X4864625Y-7387759D01*
X4865378Y-7387181D01*
X4866328D01*
X4888802Y-7377872D01*
X4896814Y-7375152D01*
X4904402Y-7371410D01*
X4926882Y-7362099D01*
X4927554Y-7361428D01*
X4928495Y-7361304D01*
X4949569Y-7349136D01*
X4957151Y-7345398D01*
X4964178Y-7340702D01*
X4985257Y-7328532D01*
X4985835Y-7327779D01*
X4986752Y-7327533D01*
X5006065Y-7312714D01*
X5013086Y-7308022D01*
X5019435Y-7302455D01*
X5038752Y-7287633D01*
X5039226Y-7286811D01*
X5040104Y-7286447D01*
X5057320Y-7269231D01*
X5063666Y-7263666D01*
X5069230Y-7257321D01*
X5086450Y-7240101D01*
X5086813Y-7239224D01*
X5087635Y-7238749D01*
X5102459Y-7219430D01*
X5108022Y-7213087D01*
X5112710Y-7206071D01*
X5127536Y-7186750D01*
X5127781Y-7185833D01*
X5128535Y-7185255D01*
X5140709Y-7164167D01*
X5145398Y-7157151D01*
X5149131Y-7149581D01*
X5161306Y-7128492D01*
X5161430Y-7127551D01*
X5162101Y-7126880D01*
X5171418Y-7104388D01*
X5175152Y-7096815D01*
X5177867Y-7088818D01*
X5187183Y-7066325D01*
Y-7065376D01*
X5187761Y-7064622D01*
X5194060Y-7041112D01*
X5196776Y-7033111D01*
X5198425Y-7024821D01*
X5204724Y-7001312D01*
X5204600Y-7000371D01*
X5205075Y-6999548D01*
X5208250Y-6975428D01*
X5209901Y-6967130D01*
X5210455Y-6958684D01*
X5213629Y-6934566D01*
X5213384Y-6933649D01*
X5213747Y-6932771D01*
X5213747Y-6908458D01*
X5214301Y-6900000D01*
X5213747Y-6891543D01*
X5213747Y-6867228D01*
X5213384Y-6866351D01*
X5213629Y-6865434D01*
X5210455Y-6841317D01*
X5209901Y-6832871D01*
X5208250Y-6824570D01*
X5205075Y-6800451D01*
X5204600Y-6799629D01*
X5204724Y-6798687D01*
X5198426Y-6775184D01*
X5196776Y-6766889D01*
X5194059Y-6758883D01*
X5187761Y-6735377D01*
X5187183Y-6734624D01*
Y-6733674D01*
X5177868Y-6711186D01*
X5175152Y-6703186D01*
X5171416Y-6695610D01*
X5162101Y-6673120D01*
X5161429Y-6672448D01*
X5161305Y-6671507D01*
X5149132Y-6650422D01*
X5145398Y-6642850D01*
X5140708Y-6635830D01*
X5128534Y-6614744D01*
X5127781Y-6614166D01*
X5127535Y-6613249D01*
X5112709Y-6593928D01*
X5108022Y-6586914D01*
X5102460Y-6580571D01*
X5087634Y-6561250D01*
X5086812Y-6560775D01*
X5086449Y-6559898D01*
X5069228Y-6542677D01*
X5063666Y-6536334D01*
X5057324Y-6530773D01*
X5040103Y-6513551D01*
X5039225Y-6513188D01*
X5038751Y-6512366D01*
X5019428Y-6497539D01*
X5013086Y-6491978D01*
X5006074Y-6487292D01*
X4986752Y-6472466D01*
X4985835Y-6472220D01*
X4985256Y-6471467D01*
X4964165Y-6459289D01*
X4957151Y-6454603D01*
X4949584Y-6450871D01*
X4928494Y-6438695D01*
X4927553Y-6438571D01*
X4926881Y-6437899D01*
X4904382Y-6428580D01*
X4896814Y-6424848D01*
X4888823Y-6422135D01*
X4866327Y-6412817D01*
X4865378D01*
X4864625Y-6412239D01*
X4841104Y-6405937D01*
X4833111Y-6403224D01*
X4824833Y-6401577D01*
X4801314Y-6395275D01*
X4800372Y-6395399D01*
X4799550Y-6394924D01*
X4775413Y-6391747D01*
X4767130Y-6390099D01*
X4758700Y-6389547D01*
X4734568Y-6386370D01*
X4733651Y-6386615D01*
X4732773Y-6386252D01*
X4708439Y-6386252D01*
X4700000Y-6385699D01*
D02*
G37*
G36*
X2509090Y-6304300D02*
X2490910D01*
X2474113Y-6311257D01*
X2461257Y-6324113D01*
X2454300Y-6340910D01*
Y-6359090D01*
X2461257Y-6375887D01*
X2474113Y-6388743D01*
X2490910Y-6395700D01*
X2509090D01*
X2525887Y-6388743D01*
X2538743Y-6375887D01*
X2545700Y-6359090D01*
Y-6340910D01*
X2538743Y-6324113D01*
X2525887Y-6311257D01*
X2509090Y-6304300D01*
D02*
G37*
G36*
X-3609707Y-6354290D02*
X-3627888D01*
X-3644685Y-6361247D01*
X-3657540Y-6374103D01*
X-3664498Y-6390900D01*
Y-6409080D01*
X-3657540Y-6425877D01*
X-3644685Y-6438733D01*
X-3627888Y-6445690D01*
X-3609707D01*
X-3592911Y-6438733D01*
X-3580055Y-6425877D01*
X-3573098Y-6409080D01*
Y-6390900D01*
X-3580055Y-6374103D01*
X-3592911Y-6361247D01*
X-3609707Y-6354290D01*
D02*
G37*
G36*
X3164124Y-6324203D02*
X3149922D01*
X3136801Y-6329638D01*
X3126758Y-6339680D01*
X3121323Y-6352802D01*
Y-6367004D01*
X3126758Y-6380125D01*
X3136801Y-6390168D01*
X3149922Y-6395603D01*
X3164124D01*
X3169675Y-6399312D01*
Y-6406065D01*
X3176633Y-6422861D01*
X3189488Y-6435717D01*
X3206285Y-6442674D01*
X3224466D01*
X3241262Y-6435717D01*
X3248560Y-6428419D01*
X3259665Y-6426205D01*
X3264472Y-6429101D01*
X3274113Y-6438743D01*
X3290910Y-6445700D01*
X3309090D01*
X3325887Y-6438743D01*
X3338743Y-6425887D01*
X3345700Y-6409090D01*
Y-6390909D01*
X3338743Y-6374113D01*
X3325887Y-6361257D01*
X3309090Y-6354300D01*
X3290910D01*
X3274113Y-6361257D01*
X3266815Y-6368555D01*
X3255710Y-6370770D01*
X3250904Y-6367873D01*
X3241262Y-6358232D01*
X3224466Y-6351275D01*
X3206285D01*
X3204457Y-6352032D01*
X3189309Y-6344560D01*
X3187288Y-6339680D01*
X3177246Y-6329638D01*
X3164124Y-6324203D01*
D02*
G37*
G36*
X2793388Y-6385223D02*
X2779186D01*
X2766064Y-6390658D01*
X2756022Y-6400701D01*
X2750587Y-6413822D01*
Y-6428024D01*
X2756022Y-6441146D01*
X2766064Y-6451189D01*
X2779186Y-6456623D01*
X2793388D01*
X2806509Y-6451189D01*
X2816552Y-6441146D01*
X2821987Y-6428024D01*
Y-6413822D01*
X2816552Y-6400701D01*
X2806509Y-6390658D01*
X2793388Y-6385223D01*
D02*
G37*
G36*
X2883967Y-6420730D02*
X2869765D01*
X2856644Y-6426165D01*
X2846601Y-6436208D01*
X2841166Y-6449329D01*
Y-6463531D01*
X2846601Y-6476653D01*
X2856644Y-6486695D01*
X2869765Y-6492130D01*
X2883967D01*
X2897089Y-6486695D01*
X2907131Y-6476653D01*
X2912566Y-6463531D01*
Y-6449329D01*
X2907131Y-6436208D01*
X2897089Y-6426165D01*
X2883967Y-6420730D01*
D02*
G37*
G36*
X-4765000Y-6351673D02*
X-4865000D01*
X-4883979Y-6354171D01*
X-4901664Y-6361497D01*
X-4916850Y-6373150D01*
X-4928503Y-6388336D01*
X-4935829Y-6406021D01*
X-4938327Y-6425000D01*
X-4935829Y-6443978D01*
X-4928503Y-6461663D01*
X-4916850Y-6476850D01*
X-4901664Y-6488503D01*
X-4883979Y-6495829D01*
X-4865000Y-6498327D01*
X-4765000D01*
X-4746021Y-6495829D01*
X-4728336Y-6488503D01*
X-4713150Y-6476850D01*
X-4701497Y-6461663D01*
X-4694171Y-6443978D01*
X-4691673Y-6425000D01*
X-4694171Y-6406021D01*
X-4701497Y-6388336D01*
X-4713150Y-6373150D01*
X-4728336Y-6361497D01*
X-4746021Y-6354171D01*
X-4765000Y-6351673D01*
D02*
G37*
G36*
X-5488671Y-6377700D02*
X-5612300D01*
Y-6501329D01*
X-5537000D01*
X-5518505Y-6497650D01*
X-5502826Y-6487173D01*
X-5492350Y-6471495D01*
X-5488671Y-6453000D01*
Y-6377700D01*
D02*
G37*
G36*
X-5637700D02*
X-5761329D01*
Y-6453000D01*
X-5757650Y-6471495D01*
X-5747173Y-6487173D01*
X-5731495Y-6497650D01*
X-5713000Y-6501329D01*
X-5637700D01*
Y-6377700D01*
D02*
G37*
G36*
X-4965000Y-6478863D02*
X-5002299D01*
Y-6552300D01*
X-4880535D01*
X-4881798Y-6542706D01*
X-4890403Y-6521932D01*
X-4904092Y-6504092D01*
X-4921931Y-6490404D01*
X-4942706Y-6481798D01*
X-4965000Y-6478863D01*
D02*
G37*
G36*
X-5027699D02*
X-5065000D01*
X-5087294Y-6481798D01*
X-5108068Y-6490404D01*
X-5125908Y-6504092D01*
X-5139597Y-6521932D01*
X-5148202Y-6542706D01*
X-5149465Y-6552300D01*
X-5027699D01*
Y-6478863D01*
D02*
G37*
G36*
X-2887410Y-6404957D02*
X-2905591D01*
X-2922387Y-6411914D01*
X-2935243Y-6424770D01*
X-2942200Y-6441566D01*
Y-6459747D01*
X-2935243Y-6476544D01*
X-2922387Y-6489400D01*
X-2905591Y-6496357D01*
X-2887410D01*
X-2870614Y-6489400D01*
X-2867130Y-6485916D01*
X-2863256Y-6486000D01*
X-2852970Y-6489717D01*
X-2847473Y-6502987D01*
X-2834617Y-6515843D01*
X-2817821Y-6522800D01*
X-2799640D01*
X-2799534Y-6522757D01*
X-2789814Y-6532477D01*
X-2793307Y-6540910D01*
Y-6559091D01*
X-2786350Y-6575887D01*
X-2773494Y-6588743D01*
X-2756698Y-6595700D01*
X-2738517D01*
X-2721720Y-6588743D01*
X-2708865Y-6575887D01*
X-2701907Y-6559091D01*
Y-6540910D01*
X-2708865Y-6524113D01*
X-2721720Y-6511257D01*
X-2738517Y-6504300D01*
X-2756698D01*
X-2756803Y-6504344D01*
X-2766523Y-6494624D01*
X-2763030Y-6486191D01*
Y-6468010D01*
X-2769988Y-6451213D01*
X-2782843Y-6438358D01*
X-2799640Y-6431400D01*
X-2817821D01*
X-2834617Y-6438358D01*
X-2838100Y-6441841D01*
X-2841975Y-6441757D01*
X-2852261Y-6438041D01*
X-2857758Y-6424770D01*
X-2870614Y-6411914D01*
X-2887410Y-6404957D01*
D02*
G37*
G36*
X-2640910Y-6454300D02*
X-2659090D01*
X-2675887Y-6461257D01*
X-2688743Y-6474113D01*
X-2695700Y-6490910D01*
Y-6509090D01*
X-2688743Y-6525887D01*
X-2675887Y-6538743D01*
X-2659090Y-6545700D01*
X-2651904D01*
X-2643418Y-6558400D01*
X-2645700Y-6563909D01*
Y-6582089D01*
X-2638743Y-6598886D01*
X-2625887Y-6611742D01*
X-2609091Y-6618699D01*
X-2590910D01*
X-2574113Y-6611742D01*
X-2561258Y-6598886D01*
X-2554300Y-6582089D01*
Y-6563909D01*
X-2561258Y-6547112D01*
X-2574113Y-6534256D01*
X-2590910Y-6527299D01*
X-2598096D01*
X-2606582Y-6514599D01*
X-2604300Y-6509090D01*
Y-6490910D01*
X-2611257Y-6474113D01*
X-2624113Y-6461257D01*
X-2640910Y-6454300D01*
D02*
G37*
G36*
X3657619Y-6532034D02*
X3639438D01*
X3622641Y-6538992D01*
X3609786Y-6551847D01*
X3602828Y-6568644D01*
Y-6586825D01*
X3609786Y-6603621D01*
X3622641Y-6616477D01*
X3639438Y-6623434D01*
X3657619D01*
X3674415Y-6616477D01*
X3687271Y-6603621D01*
X3694228Y-6586825D01*
Y-6568644D01*
X3687271Y-6551847D01*
X3674415Y-6538992D01*
X3657619Y-6532034D01*
D02*
G37*
G36*
X59091Y-6549238D02*
X40911D01*
X24114Y-6556195D01*
X11258Y-6569051D01*
X4301Y-6585848D01*
Y-6604028D01*
X11258Y-6620825D01*
X24114Y-6633681D01*
X40911Y-6640638D01*
X59091D01*
X75888Y-6633681D01*
X88744Y-6620825D01*
X93128Y-6610241D01*
X106874D01*
X111259Y-6620825D01*
X124114Y-6633681D01*
X140911Y-6640638D01*
X159092D01*
X175888Y-6633681D01*
X188744Y-6620825D01*
X195701Y-6604029D01*
Y-6585848D01*
X188744Y-6569052D01*
X175888Y-6556196D01*
X159092Y-6549239D01*
X140911D01*
X124114Y-6556196D01*
X111259Y-6569052D01*
X106874Y-6579636D01*
X93128D01*
X88744Y-6569051D01*
X75888Y-6556195D01*
X59091Y-6549238D01*
D02*
G37*
G36*
X-4109707Y-6554291D02*
X-4127888D01*
X-4144684Y-6561249D01*
X-4157540Y-6574104D01*
X-4164497Y-6590901D01*
Y-6609082D01*
X-4157540Y-6625878D01*
X-4144684Y-6638734D01*
X-4127888Y-6645691D01*
X-4109707D01*
X-4092910Y-6638734D01*
X-4080055Y-6625878D01*
X-4073097Y-6609082D01*
Y-6590901D01*
X-4080055Y-6574104D01*
X-4092910Y-6561249D01*
X-4109707Y-6554291D01*
D02*
G37*
G36*
X-3640910Y-6554300D02*
X-3659090D01*
X-3675887Y-6561257D01*
X-3688743Y-6574113D01*
X-3695700Y-6590910D01*
Y-6609090D01*
X-3688743Y-6625887D01*
X-3675887Y-6638743D01*
X-3659090Y-6645700D01*
X-3640910D01*
X-3624113Y-6638743D01*
X-3611257Y-6625887D01*
X-3604300Y-6609090D01*
Y-6590910D01*
X-3611257Y-6574113D01*
X-3624113Y-6561257D01*
X-3640910Y-6554300D01*
D02*
G37*
G36*
X-4880535Y-6577700D02*
X-5002299D01*
Y-6651137D01*
X-4965000D01*
X-4942706Y-6648202D01*
X-4921931Y-6639597D01*
X-4904092Y-6625908D01*
X-4890403Y-6608068D01*
X-4881798Y-6587294D01*
X-4880535Y-6577700D01*
D02*
G37*
G36*
X-5027699D02*
X-5149465D01*
X-5148202Y-6587294D01*
X-5139597Y-6608068D01*
X-5125908Y-6625908D01*
X-5108068Y-6639597D01*
X-5087294Y-6648202D01*
X-5065000Y-6651137D01*
X-5027699D01*
Y-6577700D01*
D02*
G37*
G36*
X2887366Y-6607155D02*
X2873164D01*
X2860043Y-6612590D01*
X2850000Y-6622633D01*
X2844565Y-6635754D01*
Y-6649956D01*
X2850000Y-6663078D01*
X2860043Y-6673121D01*
X2873164Y-6678555D01*
X2887366D01*
X2900488Y-6673121D01*
X2910530Y-6663078D01*
X2915965Y-6649956D01*
Y-6635754D01*
X2910530Y-6622633D01*
X2900488Y-6612590D01*
X2887366Y-6607155D01*
D02*
G37*
G36*
X-2590909Y-6654300D02*
X-2609090D01*
X-2625887Y-6661257D01*
X-2638743Y-6674113D01*
X-2645700Y-6690910D01*
Y-6709090D01*
X-2638743Y-6725887D01*
X-2625887Y-6738743D01*
X-2609090Y-6745700D01*
X-2590909D01*
X-2574113Y-6738743D01*
X-2561257Y-6725887D01*
X-2554300Y-6709090D01*
Y-6690910D01*
X-2561257Y-6674113D01*
X-2574113Y-6661257D01*
X-2590909Y-6654300D01*
D02*
G37*
G36*
X3469634Y-6613166D02*
X3455432D01*
X3442310Y-6618601D01*
X3432268Y-6628644D01*
X3426833Y-6641765D01*
Y-6655967D01*
X3432268Y-6669089D01*
X3441478Y-6678299D01*
X3442352Y-6679835D01*
X3443147Y-6693224D01*
X3437453Y-6698918D01*
X3432018Y-6712039D01*
Y-6726241D01*
X3437453Y-6739362D01*
X3447496Y-6749405D01*
X3460617Y-6754840D01*
X3474819D01*
X3487941Y-6749405D01*
X3497983Y-6739362D01*
X3503418Y-6726241D01*
Y-6712039D01*
X3497983Y-6698918D01*
X3488773Y-6689707D01*
X3487899Y-6688171D01*
X3487105Y-6674782D01*
X3492798Y-6669089D01*
X3498233Y-6655967D01*
Y-6641765D01*
X3492798Y-6628644D01*
X3482755Y-6618601D01*
X3469634Y-6613166D01*
D02*
G37*
G36*
X339094Y-6679229D02*
X320913D01*
X304117Y-6686186D01*
X291261Y-6699042D01*
X284304Y-6715838D01*
Y-6734019D01*
X291261Y-6750816D01*
X304117Y-6763672D01*
X320913Y-6770629D01*
X339094D01*
X355891Y-6763672D01*
X368746Y-6750816D01*
X375704Y-6734019D01*
Y-6715838D01*
X368746Y-6699042D01*
X355891Y-6686186D01*
X339094Y-6679229D01*
D02*
G37*
G36*
X-4765000Y-6641673D02*
X-4865000D01*
X-4883979Y-6644171D01*
X-4901664Y-6651497D01*
X-4916850Y-6663150D01*
X-4928503Y-6678336D01*
X-4935829Y-6696022D01*
X-4938327Y-6715000D01*
X-4935829Y-6733978D01*
X-4928503Y-6751664D01*
X-4916850Y-6766850D01*
X-4901664Y-6778503D01*
X-4883979Y-6785829D01*
X-4865000Y-6788327D01*
X-4765000D01*
X-4746021Y-6785829D01*
X-4728336Y-6778503D01*
X-4713150Y-6766850D01*
X-4701497Y-6751664D01*
X-4694171Y-6733978D01*
X-4691673Y-6715000D01*
X-4694171Y-6696022D01*
X-4701497Y-6678336D01*
X-4713150Y-6663150D01*
X-4728336Y-6651497D01*
X-4746021Y-6644171D01*
X-4765000Y-6641673D01*
D02*
G37*
G36*
X-3305228Y-6750867D02*
X-3319430D01*
X-3332551Y-6756301D01*
X-3342594Y-6766344D01*
X-3348029Y-6779465D01*
Y-6793668D01*
X-3342594Y-6806789D01*
X-3351650Y-6814735D01*
X-3364771Y-6809300D01*
X-3378973D01*
X-3392095Y-6814735D01*
X-3402137Y-6824777D01*
X-3407572Y-6837899D01*
Y-6852101D01*
X-3402137Y-6865222D01*
X-3392095Y-6875265D01*
X-3378973Y-6880700D01*
X-3364771D01*
X-3351650Y-6875265D01*
X-3341607Y-6865222D01*
X-3336172Y-6852101D01*
Y-6837899D01*
X-3341607Y-6824778D01*
X-3332551Y-6816832D01*
X-3319430Y-6822267D01*
X-3305228D01*
X-3292106Y-6816832D01*
X-3282064Y-6806789D01*
X-3276629Y-6793668D01*
Y-6779465D01*
X-3282064Y-6766344D01*
X-3292106Y-6756301D01*
X-3305228Y-6750867D01*
D02*
G37*
G36*
X3467877Y-6844672D02*
X3453675D01*
X3440554Y-6850106D01*
X3430511Y-6860149D01*
X3425076Y-6873270D01*
Y-6887473D01*
X3430511Y-6900594D01*
X3440554Y-6910637D01*
X3453675Y-6916072D01*
X3467877D01*
X3480999Y-6910637D01*
X3491041Y-6900594D01*
X3496476Y-6887473D01*
Y-6873270D01*
X3491041Y-6860149D01*
X3480999Y-6850106D01*
X3467877Y-6844672D01*
D02*
G37*
G36*
X-4782300Y-6810535D02*
Y-6932300D01*
X-4708863D01*
Y-6895000D01*
X-4711798Y-6872706D01*
X-4720404Y-6851931D01*
X-4734092Y-6834092D01*
X-4751932Y-6820403D01*
X-4772706Y-6811798D01*
X-4782300Y-6810535D01*
D02*
G37*
G36*
X-4807700D02*
X-4817294Y-6811798D01*
X-4838069Y-6820403D01*
X-4855908Y-6834092D01*
X-4869597Y-6851931D01*
X-4878202Y-6872706D01*
X-4881137Y-6895000D01*
Y-6932300D01*
X-4807700D01*
Y-6810535D01*
D02*
G37*
G36*
X-570908Y-6749239D02*
X-589089D01*
X-605886Y-6756196D01*
X-618741Y-6769052D01*
X-625699Y-6785848D01*
Y-6804029D01*
X-618741Y-6820826D01*
X-605886Y-6833681D01*
X-595302Y-6838065D01*
Y-6851812D01*
X-605886Y-6856196D01*
X-618742Y-6869052D01*
X-625699Y-6885848D01*
Y-6904029D01*
X-618742Y-6920825D01*
X-605886Y-6933681D01*
X-589089Y-6940638D01*
X-570909D01*
X-554112Y-6933681D01*
X-541256Y-6920825D01*
X-534299Y-6904029D01*
Y-6885848D01*
X-541256Y-6869052D01*
X-554112Y-6856196D01*
X-564696Y-6851812D01*
Y-6838065D01*
X-554112Y-6833681D01*
X-541256Y-6820826D01*
X-534299Y-6804029D01*
Y-6785848D01*
X-541256Y-6769052D01*
X-554112Y-6756196D01*
X-570908Y-6749239D01*
D02*
G37*
G36*
X-3513737Y-6849875D02*
X-3531918D01*
X-3548715Y-6856833D01*
X-3561570Y-6869688D01*
X-3568528Y-6886485D01*
Y-6904666D01*
X-3561570Y-6921462D01*
X-3548715Y-6934318D01*
X-3531918Y-6941275D01*
X-3513737D01*
X-3496941Y-6934318D01*
X-3484085Y-6921462D01*
X-3477128Y-6904666D01*
Y-6886485D01*
X-3484085Y-6869688D01*
X-3496941Y-6856833D01*
X-3513737Y-6849875D01*
D02*
G37*
G36*
X-5116087Y-6807300D02*
X-5133913D01*
X-5151131Y-6811914D01*
X-5166569Y-6820827D01*
X-5179173Y-6833431D01*
X-5188086Y-6848869D01*
X-5192700Y-6866087D01*
Y-6883913D01*
X-5188086Y-6901131D01*
X-5179173Y-6916569D01*
X-5166569Y-6929173D01*
X-5151131Y-6938086D01*
X-5133913Y-6942700D01*
X-5116087D01*
X-5098869Y-6938086D01*
X-5083431Y-6929173D01*
X-5070827Y-6916569D01*
X-5061914Y-6901131D01*
X-5057300Y-6883913D01*
Y-6866087D01*
X-5061914Y-6848869D01*
X-5070827Y-6833431D01*
X-5083431Y-6820827D01*
X-5098869Y-6811914D01*
X-5116087Y-6807300D01*
D02*
G37*
G36*
X-5616087D02*
X-5633913D01*
X-5651131Y-6811914D01*
X-5666569Y-6820827D01*
X-5679173Y-6833431D01*
X-5688086Y-6848869D01*
X-5692700Y-6866087D01*
Y-6883913D01*
X-5688086Y-6901131D01*
X-5679173Y-6916569D01*
X-5666569Y-6929173D01*
X-5651131Y-6938086D01*
X-5633913Y-6942700D01*
X-5616087D01*
X-5598869Y-6938086D01*
X-5583431Y-6929173D01*
X-5570827Y-6916569D01*
X-5561914Y-6901131D01*
X-5557300Y-6883913D01*
Y-6866087D01*
X-5561914Y-6848869D01*
X-5570827Y-6833431D01*
X-5583431Y-6820827D01*
X-5598869Y-6811914D01*
X-5616087Y-6807300D01*
D02*
G37*
G36*
X-3940909Y-6854300D02*
X-3959090D01*
X-3975887Y-6861257D01*
X-3988742Y-6874113D01*
X-3995700Y-6890910D01*
Y-6909090D01*
X-3988742Y-6925887D01*
X-3975887Y-6938743D01*
X-3959090Y-6945700D01*
X-3940909D01*
X-3924113Y-6938743D01*
X-3911257Y-6925887D01*
X-3904300Y-6909090D01*
Y-6890910D01*
X-3911257Y-6874113D01*
X-3924113Y-6861257D01*
X-3940909Y-6854300D01*
D02*
G37*
G36*
X3809090Y-6904300D02*
X3790910D01*
X3774113Y-6911257D01*
X3761257Y-6924113D01*
X3754300Y-6940910D01*
Y-6959090D01*
X3761257Y-6975887D01*
X3774113Y-6988743D01*
X3790910Y-6995700D01*
X3809090D01*
X3825887Y-6988743D01*
X3838743Y-6975887D01*
X3845700Y-6959090D01*
Y-6940910D01*
X3838743Y-6924113D01*
X3825887Y-6911257D01*
X3809090Y-6904300D01*
D02*
G37*
G36*
X-2665910D02*
X-2684091D01*
X-2700887Y-6911257D01*
X-2713743Y-6924113D01*
X-2720700Y-6940910D01*
Y-6959090D01*
X-2713743Y-6975887D01*
X-2700887Y-6988743D01*
X-2684091Y-6995700D01*
X-2665910D01*
X-2649114Y-6988743D01*
X-2636258Y-6975887D01*
X-2629301Y-6959090D01*
Y-6940910D01*
X-2636258Y-6924113D01*
X-2649114Y-6911257D01*
X-2665910Y-6904300D01*
D02*
G37*
G36*
X3293643Y-6979908D02*
X3279441D01*
X3266320Y-6985343D01*
X3256277Y-6995385D01*
X3250842Y-7008507D01*
Y-7022709D01*
X3256277Y-7035830D01*
X3266320Y-7045873D01*
X3279441Y-7051308D01*
X3293643D01*
X3306765Y-7045873D01*
X3316807Y-7035830D01*
X3322242Y-7022709D01*
Y-7008507D01*
X3316807Y-6995385D01*
X3306765Y-6985343D01*
X3293643Y-6979908D01*
D02*
G37*
G36*
X3707618Y-6982035D02*
X3689438D01*
X3672641Y-6988992D01*
X3659785Y-7001848D01*
X3652828Y-7018644D01*
Y-7036825D01*
X3659785Y-7053621D01*
X3672641Y-7066477D01*
X3689438Y-7073434D01*
X3707618D01*
X3724415Y-7066477D01*
X3737271Y-7053621D01*
X3744228Y-7036825D01*
Y-7018644D01*
X3737271Y-7001848D01*
X3724415Y-6988992D01*
X3707618Y-6982035D01*
D02*
G37*
G36*
X-4708863Y-6957700D02*
X-4782300D01*
Y-7079465D01*
X-4772706Y-7078202D01*
X-4751932Y-7069597D01*
X-4734092Y-7055908D01*
X-4720404Y-7038069D01*
X-4711798Y-7017294D01*
X-4708863Y-6995000D01*
Y-6957700D01*
D02*
G37*
G36*
X-4807700D02*
X-4881137D01*
Y-6995000D01*
X-4878202Y-7017294D01*
X-4869597Y-7038069D01*
X-4855908Y-7055908D01*
X-4838069Y-7069597D01*
X-4817294Y-7078202D01*
X-4807700Y-7079465D01*
Y-6957700D01*
D02*
G37*
G36*
X659092Y-7049238D02*
X640911D01*
X624115Y-7056195D01*
X611259Y-7069051D01*
X606875Y-7079635D01*
X593128D01*
X588744Y-7069051D01*
X575889Y-7056195D01*
X559092Y-7049238D01*
X540911D01*
X524115Y-7056195D01*
X511259Y-7069051D01*
X504302Y-7085847D01*
Y-7104028D01*
X511259Y-7120824D01*
X524115Y-7133680D01*
X534699Y-7138064D01*
Y-7151811D01*
X524114Y-7156195D01*
X511258Y-7169051D01*
X504301Y-7185848D01*
Y-7204029D01*
X511258Y-7220825D01*
X524114Y-7233681D01*
X540911Y-7240638D01*
X559091D01*
X575888Y-7233681D01*
X588744Y-7220825D01*
X593128Y-7210240D01*
X606874D01*
X611259Y-7220825D01*
X624114Y-7233680D01*
X640911Y-7240638D01*
X659092D01*
X675888Y-7233680D01*
X688744Y-7220825D01*
X695701Y-7204028D01*
Y-7185847D01*
X688744Y-7169051D01*
X675888Y-7156195D01*
X665304Y-7151811D01*
Y-7138064D01*
X675888Y-7133680D01*
X688744Y-7120824D01*
X695701Y-7104028D01*
Y-7085847D01*
X688744Y-7069051D01*
X675888Y-7056195D01*
X659092Y-7049238D01*
D02*
G37*
G36*
X-2900000Y-7085699D02*
X-2908470Y-7086254D01*
X-2932771Y-7086254D01*
X-2933648Y-7086617D01*
X-2934566Y-7086372D01*
X-2958663Y-7089544D01*
X-2967130Y-7090099D01*
X-2975452Y-7091754D01*
X-2999548Y-7094927D01*
X-3000371Y-7095402D01*
X-3001312Y-7095278D01*
X-3024789Y-7101568D01*
X-3033111Y-7103224D01*
X-3041145Y-7105951D01*
X-3064622Y-7112241D01*
X-3065375Y-7112819D01*
X-3066325D01*
X-3088778Y-7122120D01*
X-3096814Y-7124848D01*
X-3104427Y-7128602D01*
X-3126879Y-7137902D01*
X-3127551Y-7138573D01*
X-3128492Y-7138697D01*
X-3149540Y-7150849D01*
X-3157151Y-7154602D01*
X-3164206Y-7159316D01*
X-3185254Y-7171469D01*
X-3185832Y-7172222D01*
X-3186749Y-7172468D01*
X-3206033Y-7187265D01*
X-3213087Y-7191978D01*
X-3219464Y-7197571D01*
X-3238748Y-7212368D01*
X-3239223Y-7213190D01*
X-3240100Y-7213554D01*
X-3257289Y-7230742D01*
X-3263666Y-7236334D01*
X-3269257Y-7242710D01*
X-3286447Y-7259900D01*
X-3286810Y-7260777D01*
X-3287632Y-7261252D01*
X-3302431Y-7280538D01*
X-3308022Y-7286914D01*
X-3312733Y-7293964D01*
X-3327533Y-7313251D01*
X-3327778Y-7314168D01*
X-3328532Y-7314746D01*
X-3340687Y-7335800D01*
X-3345398Y-7342850D01*
X-3349148Y-7350454D01*
X-3361303Y-7371508D01*
X-3361427Y-7372450D01*
X-3362099Y-7373121D01*
X-3371402Y-7395580D01*
X-3375152Y-7403186D01*
X-3377878Y-7411215D01*
X-3387181Y-7433675D01*
Y-7434624D01*
X-3387759Y-7435378D01*
X-3394052Y-7458863D01*
X-3396777Y-7466889D01*
X-3398430Y-7475201D01*
X-3404723Y-7498688D01*
X-3404599Y-7499629D01*
X-3405074Y-7500452D01*
X-3408248Y-7524559D01*
X-3409901Y-7532870D01*
X-3410455Y-7541326D01*
X-3413629Y-7565434D01*
X-3413384Y-7566352D01*
X-3413747Y-7567229D01*
X-3413747Y-7591542D01*
X-3414301Y-7600000D01*
X-3413747Y-7608458D01*
X-3413747Y-7632772D01*
X-3413384Y-7633649D01*
X-3413629Y-7634566D01*
X-3410455Y-7658678D01*
X-3409901Y-7667130D01*
X-3408249Y-7675436D01*
X-3405074Y-7699549D01*
X-3404599Y-7700372D01*
X-3404723Y-7701313D01*
X-3398428Y-7724807D01*
X-3396777Y-7733111D01*
X-3394055Y-7741129D01*
X-3387760Y-7764624D01*
X-3387181Y-7765377D01*
Y-7766326D01*
X-3377874Y-7788796D01*
X-3375152Y-7796814D01*
X-3371407Y-7804409D01*
X-3362099Y-7826881D01*
X-3361428Y-7827552D01*
X-3361304Y-7828493D01*
X-3349141Y-7849559D01*
X-3345398Y-7857150D01*
X-3340695Y-7864188D01*
X-3328532Y-7885256D01*
X-3327779Y-7885834D01*
X-3327533Y-7886751D01*
X-3312724Y-7906049D01*
X-3308022Y-7913087D01*
X-3302441Y-7919451D01*
X-3287632Y-7938750D01*
X-3286810Y-7939224D01*
X-3286447Y-7940102D01*
X-3269246Y-7957303D01*
X-3263666Y-7963666D01*
X-3257303Y-7969246D01*
X-3240100Y-7986448D01*
X-3239223Y-7986812D01*
X-3238748Y-7987634D01*
X-3219448Y-8002443D01*
X-3213087Y-8008022D01*
X-3206049Y-8012725D01*
X-3186749Y-8027534D01*
X-3185832Y-8027779D01*
X-3185254Y-8028533D01*
X-3164191Y-8040694D01*
X-3157151Y-8045398D01*
X-3149556Y-8049143D01*
X-3128492Y-8061304D01*
X-3127550Y-8061428D01*
X-3126879Y-8062100D01*
X-3104409Y-8071407D01*
X-3096814Y-8075152D01*
X-3088795Y-8077875D01*
X-3066324Y-8087182D01*
X-3065375D01*
X-3064622Y-8087760D01*
X-3041130Y-8094054D01*
X-3033111Y-8096777D01*
X-3024804Y-8098429D01*
X-3001311Y-8104724D01*
X-3000370Y-8104600D01*
X-2999547Y-8105074D01*
X-2975438Y-8108248D01*
X-2967130Y-8109901D01*
X-2958675Y-8110455D01*
X-2934565Y-8113629D01*
X-2933648Y-8113384D01*
X-2932770Y-8113747D01*
X-2908458Y-8113747D01*
X-2900000Y-8114301D01*
X-2891543Y-8113747D01*
X-2867227Y-8113747D01*
X-2866350Y-8113384D01*
X-2865433Y-8113629D01*
X-2841313Y-8110454D01*
X-2832870Y-8109901D01*
X-2824576Y-8108251D01*
X-2800450Y-8105075D01*
X-2799628Y-8104601D01*
X-2798686Y-8104724D01*
X-2775173Y-8098424D01*
X-2766889Y-8096777D01*
X-2758892Y-8094062D01*
X-2735376Y-8087761D01*
X-2734623Y-8087183D01*
X-2733673D01*
X-2711177Y-8077865D01*
X-2703186Y-8075152D01*
X-2695618Y-8071420D01*
X-2673119Y-8062101D01*
X-2672448Y-8061430D01*
X-2671506Y-8061306D01*
X-2650413Y-8049128D01*
X-2642849Y-8045398D01*
X-2635838Y-8040713D01*
X-2614744Y-8028534D01*
X-2614166Y-8027781D01*
X-2613249Y-8027535D01*
X-2593922Y-8012705D01*
X-2586914Y-8008022D01*
X-2580577Y-8002465D01*
X-2561249Y-7987635D01*
X-2560775Y-7986813D01*
X-2559897Y-7986449D01*
X-2542672Y-7969224D01*
X-2536334Y-7963666D01*
X-2530777Y-7957329D01*
X-2513551Y-7940103D01*
X-2513188Y-7939226D01*
X-2512366Y-7938751D01*
X-2497536Y-7919425D01*
X-2491978Y-7913087D01*
X-2487294Y-7906077D01*
X-2472465Y-7886752D01*
X-2472220Y-7885835D01*
X-2471466Y-7885257D01*
X-2459289Y-7864164D01*
X-2454602Y-7857150D01*
X-2450871Y-7849583D01*
X-2438695Y-7828494D01*
X-2438571Y-7827553D01*
X-2437900Y-7826882D01*
X-2428583Y-7804390D01*
X-2424848Y-7796814D01*
X-2422133Y-7788815D01*
X-2412818Y-7766327D01*
Y-7765377D01*
X-2412240Y-7764624D01*
X-2405942Y-7741119D01*
X-2403224Y-7733111D01*
X-2401573Y-7724814D01*
X-2395277Y-7701314D01*
X-2395401Y-7700372D01*
X-2394926Y-7699550D01*
X-2391752Y-7675439D01*
X-2390099Y-7667130D01*
X-2389545Y-7658672D01*
X-2386372Y-7634567D01*
X-2386617Y-7633650D01*
X-2386254Y-7632773D01*
X-2386254Y-7608473D01*
X-2385699Y-7600000D01*
X-2386254Y-7591527D01*
X-2386254Y-7567230D01*
X-2386618Y-7566353D01*
X-2386372Y-7565435D01*
X-2389544Y-7541336D01*
X-2390099Y-7532870D01*
X-2391754Y-7524551D01*
X-2394926Y-7500453D01*
X-2395401Y-7499630D01*
X-2395277Y-7498689D01*
X-2401569Y-7475206D01*
X-2403224Y-7466889D01*
X-2405949Y-7458861D01*
X-2412241Y-7435379D01*
X-2412818Y-7434626D01*
Y-7433676D01*
X-2422123Y-7411211D01*
X-2424848Y-7403186D01*
X-2428596Y-7395586D01*
X-2437900Y-7373122D01*
X-2438572Y-7372450D01*
X-2438696Y-7371509D01*
X-2450856Y-7350447D01*
X-2454602Y-7342850D01*
X-2459308Y-7335808D01*
X-2471467Y-7314746D01*
X-2472220Y-7314168D01*
X-2472466Y-7313251D01*
X-2487274Y-7293953D01*
X-2491978Y-7286914D01*
X-2497560Y-7280548D01*
X-2512367Y-7261252D01*
X-2513189Y-7260777D01*
X-2513552Y-7259900D01*
X-2530750Y-7242702D01*
X-2536334Y-7236334D01*
X-2542701Y-7230751D01*
X-2559898Y-7213553D01*
X-2560776Y-7213190D01*
X-2561250Y-7212368D01*
X-2580547Y-7197561D01*
X-2586914Y-7191978D01*
X-2593954Y-7187273D01*
X-2613250Y-7172467D01*
X-2614166Y-7172222D01*
X-2614745Y-7171469D01*
X-2635806Y-7159309D01*
X-2642849Y-7154602D01*
X-2650447Y-7150856D01*
X-2671507Y-7138697D01*
X-2672448Y-7138573D01*
X-2673120Y-7137901D01*
X-2695587Y-7128595D01*
X-2703186Y-7124848D01*
X-2711210Y-7122124D01*
X-2733674Y-7112819D01*
X-2734623D01*
X-2735377Y-7112241D01*
X-2758864Y-7105947D01*
X-2766889Y-7103224D01*
X-2775201Y-7101570D01*
X-2798687Y-7095277D01*
X-2799629Y-7095401D01*
X-2800451Y-7094926D01*
X-2824555Y-7091753D01*
X-2832870Y-7090099D01*
X-2841333Y-7089544D01*
X-2865433Y-7086372D01*
X-2866350Y-7086617D01*
X-2867228Y-7086254D01*
X-2891530Y-7086254D01*
X-2900000Y-7085699D01*
D02*
G37*
G36*
X-3317217Y-7070159D02*
X-3335397D01*
X-3352194Y-7077117D01*
X-3365050Y-7089972D01*
X-3372007Y-7106769D01*
Y-7124950D01*
X-3365050Y-7141746D01*
X-3352194Y-7154602D01*
X-3335397Y-7161559D01*
X-3317217D01*
X-3300420Y-7154602D01*
X-3287564Y-7141746D01*
X-3280607Y-7124950D01*
Y-7106769D01*
X-3287564Y-7089972D01*
X-3300420Y-7077117D01*
X-3317217Y-7070159D01*
D02*
G37*
G36*
X3010332Y-7116246D02*
X2996130D01*
X2983009Y-7121681D01*
X2972966Y-7131724D01*
X2967531Y-7144845D01*
Y-7159047D01*
X2972966Y-7172169D01*
X2983009Y-7182211D01*
X2996130Y-7187646D01*
X3010332D01*
X3023454Y-7182211D01*
X3033496Y-7172169D01*
X3038931Y-7159047D01*
Y-7144845D01*
X3033496Y-7131724D01*
X3023454Y-7121681D01*
X3010332Y-7116246D01*
D02*
G37*
G36*
X-548814Y-7139562D02*
X-566995D01*
X-583791Y-7146519D01*
X-596647Y-7159375D01*
X-603604Y-7176171D01*
Y-7194352D01*
X-607140Y-7195554D01*
X-608611D01*
X-625407Y-7202511D01*
X-638263Y-7215367D01*
X-645220Y-7232163D01*
Y-7250344D01*
X-638263Y-7267140D01*
X-625407Y-7279996D01*
X-608611Y-7286953D01*
X-590430D01*
X-573634Y-7279996D01*
X-560778Y-7267140D01*
X-553821Y-7250344D01*
Y-7232163D01*
X-550285Y-7230961D01*
X-548814D01*
X-532017Y-7224004D01*
X-519162Y-7211148D01*
X-512204Y-7194352D01*
Y-7176171D01*
X-519162Y-7159375D01*
X-532017Y-7146519D01*
X-548814Y-7139562D01*
D02*
G37*
G36*
X-5075000Y-7161673D02*
X-5175000D01*
X-5193978Y-7164171D01*
X-5211664Y-7171497D01*
X-5226850Y-7183150D01*
X-5238503Y-7198336D01*
X-5245829Y-7216022D01*
X-5248327Y-7235000D01*
X-5245829Y-7253978D01*
X-5238503Y-7271664D01*
X-5226850Y-7286850D01*
X-5211664Y-7298503D01*
X-5193978Y-7305829D01*
X-5175000Y-7308327D01*
X-5075000D01*
X-5056021Y-7305829D01*
X-5038336Y-7298503D01*
X-5023149Y-7286850D01*
X-5011496Y-7271664D01*
X-5004171Y-7253978D01*
X-5001672Y-7235000D01*
X-5004171Y-7216022D01*
X-5011496Y-7198336D01*
X-5023149Y-7183150D01*
X-5038336Y-7171497D01*
X-5056021Y-7164171D01*
X-5075000Y-7161673D01*
D02*
G37*
G36*
X2707101Y-7214300D02*
X2692899D01*
X2679777Y-7219735D01*
X2669735Y-7229778D01*
X2664300Y-7242899D01*
Y-7257101D01*
X2669735Y-7270222D01*
X2679777Y-7280265D01*
X2684123Y-7282065D01*
X2687126Y-7297023D01*
X2681691Y-7310144D01*
Y-7324346D01*
X2687126Y-7337467D01*
X2697168Y-7347510D01*
X2710290Y-7352945D01*
X2724492D01*
X2737613Y-7347510D01*
X2747656Y-7337467D01*
X2753091Y-7324346D01*
Y-7310144D01*
X2747656Y-7297022D01*
X2737613Y-7286980D01*
X2733268Y-7285180D01*
X2730265Y-7270222D01*
X2735700Y-7257101D01*
Y-7242899D01*
X2730265Y-7229778D01*
X2720222Y-7219735D01*
X2707101Y-7214300D01*
D02*
G37*
G36*
X-5287000Y-7288671D02*
X-5362300D01*
Y-7412300D01*
X-5238671D01*
Y-7337000D01*
X-5242350Y-7318505D01*
X-5252826Y-7302826D01*
X-5268505Y-7292350D01*
X-5287000Y-7288671D01*
D02*
G37*
G36*
X-5575000Y-7251673D02*
X-5675000D01*
X-5693978Y-7254171D01*
X-5711664Y-7261497D01*
X-5726850Y-7273150D01*
X-5738503Y-7288336D01*
X-5745829Y-7306022D01*
X-5748327Y-7325000D01*
X-5745829Y-7343978D01*
X-5738503Y-7361664D01*
X-5726850Y-7376850D01*
X-5711664Y-7388503D01*
X-5693978Y-7395829D01*
X-5675000Y-7398327D01*
X-5575000D01*
X-5556021Y-7395829D01*
X-5538336Y-7388503D01*
X-5524029Y-7377525D01*
X-5520158Y-7378231D01*
X-5511329Y-7382307D01*
Y-7412300D01*
X-5387700D01*
Y-7288671D01*
X-5463000D01*
X-5481494Y-7292350D01*
X-5492924Y-7299987D01*
X-5505750Y-7297810D01*
X-5508155Y-7296402D01*
X-5511496Y-7288336D01*
X-5523149Y-7273150D01*
X-5538336Y-7261497D01*
X-5556021Y-7254171D01*
X-5575000Y-7251673D01*
D02*
G37*
G36*
X109091Y-7379238D02*
X90911D01*
X74114Y-7386196D01*
X61258Y-7399051D01*
X54301Y-7415848D01*
Y-7434029D01*
X61258Y-7450825D01*
X74114Y-7463681D01*
X90911Y-7470638D01*
X109091D01*
X125888Y-7463681D01*
X138744Y-7450825D01*
X145701Y-7434029D01*
Y-7415848D01*
X138744Y-7399051D01*
X125888Y-7386196D01*
X109091Y-7379238D01*
D02*
G37*
G36*
X-4390910Y-7254300D02*
X-4409090D01*
X-4425887Y-7261257D01*
X-4438743Y-7274113D01*
X-4445700Y-7290909D01*
Y-7309090D01*
X-4438743Y-7325887D01*
X-4425887Y-7338742D01*
X-4415303Y-7343127D01*
Y-7356873D01*
X-4425887Y-7361257D01*
X-4438743Y-7374113D01*
X-4445700Y-7390910D01*
Y-7409090D01*
X-4438743Y-7425887D01*
X-4425887Y-7438743D01*
X-4415303Y-7443127D01*
Y-7456873D01*
X-4425887Y-7461257D01*
X-4438743Y-7474113D01*
X-4445700Y-7490910D01*
Y-7509090D01*
X-4438743Y-7525887D01*
X-4425887Y-7538743D01*
X-4409090Y-7545700D01*
X-4390910D01*
X-4374113Y-7538743D01*
X-4361257Y-7525887D01*
X-4354300Y-7509090D01*
Y-7490910D01*
X-4361257Y-7474113D01*
X-4374113Y-7461257D01*
X-4384698Y-7456873D01*
Y-7443127D01*
X-4374113Y-7438743D01*
X-4361257Y-7425887D01*
X-4354300Y-7409090D01*
Y-7390910D01*
X-4361257Y-7374113D01*
X-4374113Y-7361257D01*
X-4384698Y-7356873D01*
Y-7343127D01*
X-4374113Y-7338742D01*
X-4361257Y-7325887D01*
X-4354300Y-7309090D01*
Y-7290909D01*
X-4361257Y-7274113D01*
X-4374113Y-7261257D01*
X-4390910Y-7254300D01*
D02*
G37*
G36*
X-5238671Y-7437700D02*
X-5362300D01*
Y-7561329D01*
X-5287000D01*
X-5268505Y-7557650D01*
X-5252826Y-7547173D01*
X-5242350Y-7531494D01*
X-5238671Y-7513000D01*
Y-7437700D01*
D02*
G37*
G36*
X-5387700D02*
X-5511329D01*
Y-7513000D01*
X-5507650Y-7531494D01*
X-5497173Y-7547173D01*
X-5481494Y-7557650D01*
X-5463000Y-7561329D01*
X-5387700D01*
Y-7437700D01*
D02*
G37*
G36*
X2907619Y-7482034D02*
X2889438D01*
X2872641Y-7488992D01*
X2859785Y-7501847D01*
X2852828Y-7518644D01*
Y-7536825D01*
X2859785Y-7553621D01*
X2872641Y-7566477D01*
X2889438Y-7573434D01*
X2907619D01*
X2924415Y-7566477D01*
X2937271Y-7553621D01*
X2944228Y-7536825D01*
Y-7518644D01*
X2937271Y-7501847D01*
X2924415Y-7488992D01*
X2907619Y-7482034D01*
D02*
G37*
G36*
X4109090Y-7554300D02*
X4090910D01*
X4074113Y-7561257D01*
X4061257Y-7574113D01*
X4054300Y-7590910D01*
Y-7609090D01*
X4061257Y-7625887D01*
X4074113Y-7638743D01*
X4090910Y-7645700D01*
X4109090D01*
X4125887Y-7638743D01*
X4138743Y-7625887D01*
X4145700Y-7609090D01*
Y-7590910D01*
X4138743Y-7574113D01*
X4125887Y-7561257D01*
X4109090Y-7554300D01*
D02*
G37*
G36*
X2979002Y-7568945D02*
X2964800D01*
X2951679Y-7574380D01*
X2941636Y-7584422D01*
X2936201Y-7597544D01*
Y-7611746D01*
X2941636Y-7624867D01*
X2951679Y-7634910D01*
X2964800Y-7640345D01*
X2979002D01*
X2992124Y-7634910D01*
X2998841Y-7644828D01*
X2999705Y-7646912D01*
X3009747Y-7656955D01*
X3022869Y-7662390D01*
X3037071D01*
X3050192Y-7656955D01*
X3060235Y-7646912D01*
X3065670Y-7633791D01*
Y-7619589D01*
X3060235Y-7606467D01*
X3050192Y-7596424D01*
X3037071Y-7590990D01*
X3022869D01*
X3009748Y-7596424D01*
X3003030Y-7586507D01*
X3002166Y-7584422D01*
X2992124Y-7574380D01*
X2979002Y-7568945D01*
D02*
G37*
G36*
X2829355Y-7575815D02*
X2811174D01*
X2794377Y-7582772D01*
X2781521Y-7595628D01*
X2774564Y-7612424D01*
Y-7630605D01*
X2781521Y-7647402D01*
X2794377Y-7660257D01*
X2811174Y-7667215D01*
X2829355D01*
X2846151Y-7660257D01*
X2859007Y-7647402D01*
X2865964Y-7630605D01*
Y-7612424D01*
X2859007Y-7595628D01*
X2846151Y-7582772D01*
X2829355Y-7575815D01*
D02*
G37*
G36*
X3497616Y-7602044D02*
X3479435D01*
X3462638Y-7609001D01*
X3449783Y-7621857D01*
X3442825Y-7638654D01*
Y-7656834D01*
X3449783Y-7673631D01*
X3462638Y-7686487D01*
X3479435Y-7693444D01*
X3497616D01*
X3514412Y-7686487D01*
X3527268Y-7673631D01*
X3534225Y-7656834D01*
Y-7638654D01*
X3527268Y-7621857D01*
X3514412Y-7609001D01*
X3497616Y-7602044D01*
D02*
G37*
G36*
X-906091Y-7828429D02*
X-924272D01*
X-941068Y-7835386D01*
X-953924Y-7848242D01*
X-960881Y-7865038D01*
Y-7883219D01*
X-953924Y-7900016D01*
X-941068Y-7912871D01*
X-924272Y-7919829D01*
X-906091D01*
X-889295Y-7912871D01*
X-876439Y-7900016D01*
X-869482Y-7883219D01*
Y-7865038D01*
X-876439Y-7848242D01*
X-889295Y-7835386D01*
X-906091Y-7828429D01*
D02*
G37*
G36*
X949090Y-7844320D02*
X930909D01*
X914113Y-7851277D01*
X901257Y-7864133D01*
X894300Y-7880930D01*
Y-7899110D01*
X901257Y-7915907D01*
X914113Y-7928763D01*
X930909Y-7935720D01*
X949090D01*
X965887Y-7928763D01*
X978743Y-7915907D01*
X985700Y-7899110D01*
Y-7880930D01*
X978743Y-7864133D01*
X965887Y-7851277D01*
X949090Y-7844320D01*
D02*
G37*
G36*
X-990910Y-7904300D02*
X-1009090D01*
X-1025887Y-7911257D01*
X-1038743Y-7924113D01*
X-1045700Y-7940909D01*
Y-7959090D01*
X-1038743Y-7975887D01*
X-1025887Y-7988742D01*
X-1009090Y-7995700D01*
X-990910D01*
X-974113Y-7988742D01*
X-961257Y-7975887D01*
X-954300Y-7959090D01*
Y-7940909D01*
X-961257Y-7924113D01*
X-974113Y-7911257D01*
X-990910Y-7904300D01*
D02*
G37*
G36*
X-3490910Y-7954300D02*
X-3509091D01*
X-3525887Y-7961257D01*
X-3538743Y-7974113D01*
X-3545700Y-7990910D01*
Y-8009090D01*
X-3538743Y-8025887D01*
X-3525887Y-8038743D01*
X-3509091Y-8045700D01*
X-3490910D01*
X-3474113Y-8038743D01*
X-3461257Y-8025887D01*
X-3454300Y-8009090D01*
Y-7990910D01*
X-3461257Y-7974113D01*
X-3474113Y-7961257D01*
X-3490910Y-7954300D01*
D02*
G37*
G36*
X1766701Y-7837300D02*
X1541300D01*
Y-8062700D01*
X1766701D01*
Y-7837300D01*
D02*
G37*
G36*
X1414838D02*
X1385163D01*
X1356500Y-7844980D01*
X1330801Y-7859817D01*
X1309818Y-7880800D01*
X1294981Y-7906499D01*
X1287300Y-7935162D01*
Y-7964837D01*
X1294981Y-7993500D01*
X1309818Y-8019199D01*
X1330801Y-8040182D01*
X1356500Y-8055019D01*
X1385163Y-8062700D01*
X1414838D01*
X1443501Y-8055019D01*
X1469200Y-8040182D01*
X1490183Y-8019199D01*
X1505020Y-7993500D01*
X1512701Y-7964837D01*
Y-7935162D01*
X1505020Y-7906499D01*
X1490183Y-7880800D01*
X1469200Y-7859817D01*
X1443501Y-7844980D01*
X1414838Y-7837300D01*
D02*
G37*
G36*
X-1287300Y-7837300D02*
X-1512700D01*
Y-8062700D01*
X-1287300D01*
Y-7837300D01*
D02*
G37*
G36*
X-1639163D02*
X-1668837D01*
X-1697501Y-7844980D01*
X-1723199Y-7859817D01*
X-1744182Y-7880800D01*
X-1759020Y-7906499D01*
X-1766700Y-7935163D01*
Y-7964837D01*
X-1759020Y-7993500D01*
X-1744182Y-8019199D01*
X-1723199Y-8040182D01*
X-1697501Y-8055020D01*
X-1668837Y-8062700D01*
X-1639163D01*
X-1610499Y-8055020D01*
X-1584800Y-8040182D01*
X-1563818Y-8019199D01*
X-1548980Y-7993500D01*
X-1541300Y-7964837D01*
Y-7935163D01*
X-1548980Y-7906499D01*
X-1563818Y-7880800D01*
X-1584800Y-7859817D01*
X-1610499Y-7844980D01*
X-1639163Y-7837300D01*
D02*
G37*
G36*
X239700Y-7837300D02*
X14300D01*
Y-8062700D01*
X239700D01*
Y-7837300D01*
D02*
G37*
G36*
X-112163D02*
X-141837D01*
X-170501Y-7844980D01*
X-196200Y-7859818D01*
X-217182Y-7880801D01*
X-232020Y-7906500D01*
X-239700Y-7935163D01*
Y-7964837D01*
X-232020Y-7993501D01*
X-217182Y-8019200D01*
X-196200Y-8040183D01*
X-170501Y-8055020D01*
X-141837Y-8062700D01*
X-112163D01*
X-83499Y-8055020D01*
X-57800Y-8040183D01*
X-36818Y-8019200D01*
X-21980Y-7993501D01*
X-14300Y-7964837D01*
Y-7935163D01*
X-21980Y-7906500D01*
X-36818Y-7880801D01*
X-57800Y-7859818D01*
X-83499Y-7844980D01*
X-112163Y-7837300D01*
D02*
G37*
G36*
X-2690910Y-8304300D02*
X-2709090D01*
X-2725887Y-8311257D01*
X-2738743Y-8324113D01*
X-2743127Y-8334698D01*
X-2756873D01*
X-2761257Y-8324113D01*
X-2774113Y-8311257D01*
X-2790910Y-8304300D01*
X-2809090D01*
X-2825887Y-8311257D01*
X-2838743Y-8324113D01*
X-2845700Y-8340910D01*
Y-8359090D01*
X-2838743Y-8375887D01*
X-2825887Y-8388743D01*
X-2809090Y-8395700D01*
X-2790910D01*
X-2774113Y-8388743D01*
X-2761257Y-8375887D01*
X-2756873Y-8365303D01*
X-2743127D01*
X-2738743Y-8375887D01*
X-2725887Y-8388743D01*
X-2709090Y-8395700D01*
X-2690910D01*
X-2674113Y-8388743D01*
X-2661257Y-8375887D01*
X-2654300Y-8359090D01*
Y-8340910D01*
X-2661257Y-8324113D01*
X-2674113Y-8311257D01*
X-2690910Y-8304300D01*
D02*
G37*
G36*
X32102Y-8339238D02*
X17900D01*
X4779Y-8344673D01*
X-5264Y-8354715D01*
X-10699Y-8367837D01*
Y-8382039D01*
X-5264Y-8395160D01*
X4779Y-8405203D01*
X17900Y-8410638D01*
X32102D01*
X45223Y-8405203D01*
X55266Y-8395160D01*
X60701Y-8382039D01*
Y-8367837D01*
X55266Y-8354715D01*
X45223Y-8344673D01*
X32102Y-8339238D01*
D02*
G37*
G36*
X-67898Y-8339238D02*
X-82100D01*
X-95222Y-8344673D01*
X-105264Y-8354716D01*
X-110699Y-8367837D01*
Y-8382039D01*
X-105264Y-8395161D01*
X-95222Y-8405203D01*
X-82100Y-8410638D01*
X-67898D01*
X-54777Y-8405203D01*
X-44734Y-8395161D01*
X-39299Y-8382039D01*
Y-8367837D01*
X-44734Y-8354716D01*
X-54777Y-8344673D01*
X-67898Y-8339238D01*
D02*
G37*
G36*
X-1990909Y-8404300D02*
X-2009090D01*
X-2025887Y-8411257D01*
X-2038742Y-8424113D01*
X-2045700Y-8440910D01*
Y-8459091D01*
X-2038742Y-8475887D01*
X-2025887Y-8488743D01*
X-2009090Y-8495700D01*
X-1990909D01*
X-1974113Y-8488743D01*
X-1961257Y-8475887D01*
X-1954300Y-8459091D01*
Y-8440910D01*
X-1961257Y-8424113D01*
X-1974113Y-8411257D01*
X-1990909Y-8404300D01*
D02*
G37*
G36*
X-2140910D02*
X-2159090D01*
X-2175887Y-8411257D01*
X-2188743Y-8424113D01*
X-2195700Y-8440910D01*
Y-8459091D01*
X-2188743Y-8475887D01*
X-2175887Y-8488743D01*
X-2159090Y-8495700D01*
X-2140910D01*
X-2124113Y-8488743D01*
X-2111257Y-8475887D01*
X-2104300Y-8459091D01*
Y-8440910D01*
X-2111257Y-8424113D01*
X-2124113Y-8411257D01*
X-2140910Y-8404300D01*
D02*
G37*
G36*
X-3934993Y-8480554D02*
X-3953173D01*
X-3969970Y-8487511D01*
X-3981485Y-8499025D01*
X-3988750Y-8499764D01*
X-3996017Y-8499026D01*
X-4007531Y-8487511D01*
X-4024327Y-8480554D01*
X-4042508D01*
X-4059305Y-8487511D01*
X-4072161Y-8500367D01*
X-4079118Y-8517164D01*
Y-8535344D01*
X-4072161Y-8552141D01*
X-4059305Y-8564997D01*
X-4042508Y-8571954D01*
X-4024327D01*
X-4007531Y-8564997D01*
X-3996016Y-8553482D01*
X-3988751Y-8552743D01*
X-3981484Y-8553482D01*
X-3969970Y-8564996D01*
X-3953173Y-8571953D01*
X-3934993D01*
X-3918196Y-8564996D01*
X-3905340Y-8552140D01*
X-3898383Y-8535344D01*
Y-8517163D01*
X-3905340Y-8500367D01*
X-3918196Y-8487511D01*
X-3934993Y-8480554D01*
D02*
G37*
G36*
X-1659672Y-8411557D02*
X-1677852D01*
X-1694649Y-8418515D01*
X-1707505Y-8431370D01*
X-1714462Y-8448167D01*
Y-8466348D01*
X-1707505Y-8483144D01*
X-1694649Y-8496000D01*
X-1677852Y-8502957D01*
X-1659672D01*
X-1642875Y-8496000D01*
X-1630019Y-8483144D01*
X-1623062Y-8466348D01*
Y-8448167D01*
X-1630019Y-8431370D01*
X-1642875Y-8418515D01*
X-1659672Y-8411557D01*
D02*
G37*
G36*
X297992Y-8569738D02*
X280010D01*
X263397Y-8576620D01*
X250682Y-8589335D01*
X243801Y-8605947D01*
Y-8623929D01*
X250682Y-8640542D01*
X263397Y-8653257D01*
X280010Y-8660138D01*
X297992D01*
X314605Y-8653257D01*
X327320Y-8640542D01*
X334201Y-8623929D01*
Y-8605947D01*
X327320Y-8589335D01*
X314605Y-8576620D01*
X297992Y-8569738D01*
D02*
G37*
G36*
X-280008D02*
X-297990D01*
X-314603Y-8576620D01*
X-327318Y-8589335D01*
X-334199Y-8605947D01*
Y-8623929D01*
X-327318Y-8640542D01*
X-314603Y-8653257D01*
X-297990Y-8660138D01*
X-280008D01*
X-263395Y-8653257D01*
X-250680Y-8640542D01*
X-243799Y-8623929D01*
Y-8605947D01*
X-250680Y-8589335D01*
X-263395Y-8576620D01*
X-280008Y-8569738D01*
D02*
G37*
G36*
X-3151672Y-8547252D02*
X-3169853D01*
X-3186649Y-8554209D01*
X-3199505Y-8567065D01*
X-3206462Y-8583861D01*
Y-8602042D01*
X-3199505Y-8618838D01*
X-3186649Y-8631694D01*
X-3186492Y-8631759D01*
Y-8644459D01*
X-3186649Y-8644525D01*
X-3199505Y-8657380D01*
X-3206462Y-8674177D01*
Y-8692358D01*
X-3199505Y-8709154D01*
X-3186649Y-8722010D01*
X-3169853Y-8728967D01*
X-3151672D01*
X-3134875Y-8722010D01*
X-3122020Y-8709154D01*
X-3115062Y-8692358D01*
Y-8674177D01*
X-3122020Y-8657380D01*
X-3134875Y-8644525D01*
X-3135033Y-8644459D01*
Y-8631759D01*
X-3134875Y-8631694D01*
X-3122020Y-8618838D01*
X-3115062Y-8602042D01*
Y-8583861D01*
X-3122020Y-8567065D01*
X-3134875Y-8554209D01*
X-3151672Y-8547252D01*
D02*
G37*
G36*
X-2998058Y-8554801D02*
X-3016238D01*
X-3033035Y-8561758D01*
X-3045891Y-8574614D01*
X-3052848Y-8591411D01*
Y-8609591D01*
X-3045891Y-8626388D01*
X-3033035Y-8639244D01*
X-3022450Y-8643628D01*
Y-8657374D01*
X-3033035Y-8661758D01*
X-3045891Y-8674614D01*
X-3052848Y-8691411D01*
Y-8709591D01*
X-3045891Y-8726388D01*
X-3033035Y-8739244D01*
X-3016238Y-8746201D01*
X-2998058D01*
X-2981261Y-8739244D01*
X-2968405Y-8726388D01*
X-2961448Y-8709591D01*
Y-8691411D01*
X-2968405Y-8674614D01*
X-2981261Y-8661758D01*
X-2991845Y-8657374D01*
Y-8643628D01*
X-2981261Y-8639244D01*
X-2968405Y-8626388D01*
X-2961448Y-8609591D01*
Y-8591411D01*
X-2968405Y-8574614D01*
X-2981261Y-8561758D01*
X-2998058Y-8554801D01*
D02*
G37*
G36*
X-2065909Y-8884300D02*
X-2084090D01*
X-2100887Y-8891258D01*
X-2113742Y-8904114D01*
X-2120700Y-8920910D01*
Y-8939091D01*
X-2113742Y-8955887D01*
X-2100887Y-8968743D01*
X-2084090Y-8975700D01*
X-2065909D01*
X-2049113Y-8968743D01*
X-2036257Y-8955887D01*
X-2029300Y-8939091D01*
Y-8920910D01*
X-2036257Y-8904114D01*
X-2049113Y-8891258D01*
X-2065909Y-8884300D01*
D02*
G37*
G36*
X-1690909Y-8954300D02*
X-1709090D01*
X-1725887Y-8961257D01*
X-1738743Y-8974113D01*
X-1745700Y-8990910D01*
Y-9009090D01*
X-1738743Y-9025887D01*
X-1725887Y-9038743D01*
X-1709090Y-9045700D01*
X-1690909D01*
X-1674113Y-9038743D01*
X-1661257Y-9025887D01*
X-1654300Y-9009090D01*
Y-8990910D01*
X-1661257Y-8974113D01*
X-1674113Y-8961257D01*
X-1690909Y-8954300D01*
D02*
G37*
G36*
X-1840909D02*
X-1859090D01*
X-1875887Y-8961257D01*
X-1888742Y-8974113D01*
X-1895700Y-8990910D01*
Y-9009090D01*
X-1888742Y-9025887D01*
X-1875887Y-9038743D01*
X-1859090Y-9045700D01*
X-1840909D01*
X-1824113Y-9038743D01*
X-1811257Y-9025887D01*
X-1804300Y-9009090D01*
Y-8990910D01*
X-1811257Y-8974113D01*
X-1824113Y-8961257D01*
X-1840909Y-8954300D01*
D02*
G37*
G36*
X-1540909Y-8954301D02*
X-1559090D01*
X-1575887Y-8961258D01*
X-1588742Y-8974114D01*
X-1595700Y-8990910D01*
Y-9009091D01*
X-1588742Y-9025888D01*
X-1575887Y-9038743D01*
X-1559090Y-9045701D01*
X-1540909D01*
X-1524113Y-9038743D01*
X-1511257Y-9025888D01*
X-1504300Y-9009091D01*
Y-8990910D01*
X-1511257Y-8974114D01*
X-1524113Y-8961258D01*
X-1540909Y-8954301D01*
D02*
G37*
%LPD*%
D83*
X-950000Y-3050000D02*
X-900000Y-3000000D01*
X-750000D01*
X-700000Y-3050000D01*
X-550000D01*
X-1100000D02*
X-950000D01*
X-1000000Y-4500000D02*
Y-3500000D01*
X-1143343Y-3356657D02*
Y-3217094D01*
Y-3356657D02*
X-1000000Y-3500000D01*
X-1100000Y-3173751D02*
Y-3050000D01*
X-1143343Y-3217094D02*
X-1100000Y-3173751D01*
X-850000Y-4750000D02*
Y-4650000D01*
X-1000000Y-4500000D02*
X-850000Y-4650000D01*
Y-4750000D02*
X-800000Y-4800000D01*
X-700000D01*
X-702160Y-3658282D02*
X-638119Y-3722323D01*
X-314591D01*
X-263221Y-3670953D01*
X-155694D01*
X180501Y-4007147D01*
X-318518Y-3767125D02*
X-216999Y-3868644D01*
X-722253Y-3767125D02*
X-318518D01*
X-782230Y-3707148D02*
X-722253Y-3767125D01*
X-782230Y-3707148D02*
Y-3635086D01*
X-216999Y-4387147D02*
Y-3868644D01*
X-581721Y-3589370D02*
X-399499Y-3407147D01*
X-782230Y-3635086D02*
X-736513Y-3589370D01*
X-399499Y-3407147D02*
Y-3257147D01*
X-736513Y-3589370D02*
X-581721D01*
X-612471Y-3520120D02*
X-499499Y-3407147D01*
Y-3257147D01*
X-218642Y-3183005D02*
X-144499Y-3257148D01*
X-499499Y-3257147D02*
X-425357Y-3183005D01*
X-218642D01*
X-695740Y-3520120D02*
X-612471D01*
D87*
X-649499Y-3282147D02*
X-474499Y-3107147D01*
X-899496Y-3407147D02*
X-774496Y-3282147D01*
X-700000Y-4800000D02*
Y-4650000D01*
X-899499Y-4450501D02*
Y-4057147D01*
Y-4450501D02*
X-700000Y-4650000D01*
X-899496Y-3457150D02*
Y-3407147D01*
X-774496Y-3282147D02*
X-649499D01*
X-474499Y-3107147D02*
X194203D01*
X800501Y-3957147D02*
Y-3713445D01*
X194203Y-3107147D02*
X800501Y-3713445D01*
X-899499Y-3857153D02*
X-899496Y-3857150D01*
X-899499Y-4057147D02*
Y-3857153D01*
Y-4057147D02*
X-582806D01*
X-358830Y-3833172D01*
X-899496Y-3857150D02*
Y-3457150D01*
D98*
X-1654000Y-7950000D02*
D03*
X-127000Y-7950000D02*
D03*
X1400001Y-7950000D02*
D03*
D99*
X-1400000Y-7950000D02*
D03*
X127000Y-7950000D02*
D03*
X1654001Y-7950000D02*
D03*
D100*
X-5125000Y-6875000D02*
D03*
X-5625000D02*
D03*
D101*
X-5375000Y-7425000D02*
D03*
X-5625000Y-6365000D02*
D03*
D102*
X-4815000Y-6425000D02*
D03*
X-5015000Y-6565000D02*
D03*
X-5625000Y-7325000D02*
D03*
X-4815000Y-6715000D02*
D03*
X-5125000Y-7235000D02*
D03*
D103*
X-4795000Y-6945000D02*
D03*
D104*
X-1400000Y4625000D02*
D03*
X1400000D02*
D03*
X-1400000Y0D02*
D03*
X1400000D02*
D03*
X-1400000Y-6000000D02*
D03*
X1400000D02*
D03*
X1000000Y-8750000D02*
D03*
X-1000000D02*
D03*
D105*
X-660000Y800000D02*
D03*
X660000Y800000D02*
D03*
D106*
X289001Y-8614938D02*
D03*
X-288999D02*
D03*
D107*
X404904Y3154618D02*
D03*
X3462533Y-6648866D02*
D03*
X3460776Y-6880372D02*
D03*
X25001Y-8374938D02*
D03*
X-74999Y-8374938D02*
D03*
X3029970Y-7626690D02*
D03*
X2971901Y-7604645D02*
D03*
X2700000Y-7250000D02*
D03*
X3135385Y-7369227D02*
D03*
X-675401Y-3105747D02*
D03*
X-550000Y-3050000D02*
D03*
X-800000D02*
D03*
X-700000D02*
D03*
X-950000Y-3200000D02*
D03*
X-1100000Y-3050000D02*
D03*
X-950000D02*
D03*
X-850000D02*
D03*
X2521428Y-6517725D02*
D03*
X2880265Y-6642855D02*
D03*
X350000Y3700000D02*
D03*
X300000D02*
D03*
X300256Y3435767D02*
D03*
X200000Y3650000D02*
D03*
X3157023Y-6359903D02*
D03*
X3467718Y-6719140D02*
D03*
X3748528Y-8262356D02*
D03*
X3608547D02*
D03*
X3748528Y-8171556D02*
D03*
X3608547D02*
D03*
X3748528Y-8080757D02*
D03*
X3608547D02*
D03*
X3748528Y-7989957D02*
D03*
X3608547D02*
D03*
X-358830Y-3833172D02*
D03*
X-3825707Y-7215001D02*
D03*
X-3312536Y-6888986D02*
D03*
X-3371872Y-6845000D02*
D03*
X-3312329Y-6786567D02*
D03*
X3606080Y-7558802D02*
D03*
X3608547Y-7899158D02*
D03*
Y-7808359D02*
D03*
Y-7717559D02*
D03*
Y-7626760D02*
D03*
X3748528D02*
D03*
Y-7717559D02*
D03*
Y-7808359D02*
D03*
Y-7899158D02*
D03*
X-3176264Y-8754044D02*
D03*
X-4110333Y-8549867D02*
D03*
X-3875501Y-8517852D02*
D03*
X3518518Y-6667744D02*
D03*
Y-6757744D02*
D03*
Y-6847744D02*
D03*
X-600000Y-5450000D02*
D03*
X-800000D02*
D03*
X3555206Y-7143841D02*
D03*
X3509311Y-7151214D02*
D03*
X3600480Y-7466971D02*
D03*
X3603280Y-7512887D02*
D03*
X3368888Y-7212358D02*
D03*
X2717391Y-7393377D02*
D03*
X3003231Y-7151946D02*
D03*
X2717391Y-7317245D02*
D03*
X250000Y3650000D02*
D03*
Y3600000D02*
D03*
X200000D02*
D03*
X450501Y3617852D02*
D03*
Y3567852D02*
D03*
X450502Y3517852D02*
D03*
X2928052Y-6417806D02*
D03*
X2876866Y-6456430D02*
D03*
X2786287Y-6420923D02*
D03*
X3286542Y-7015608D02*
D03*
X3748528Y-7535960D02*
D03*
X3487125Y-7912714D02*
D03*
Y-7786643D02*
D03*
X2938304Y-7681596D02*
D03*
X2839931Y-7786655D02*
D03*
Y-7912726D02*
D03*
X2910607Y-8010145D02*
D03*
X3021396Y-8047393D02*
D03*
X3119769D02*
D03*
X3218143D02*
D03*
X3316516D02*
D03*
X3395348Y-7998665D02*
D03*
X3371333Y-7695288D02*
D03*
X3261548Y-7657550D02*
D03*
X3109272Y-7586165D02*
D03*
X3096731Y-7667942D02*
D03*
X3227623Y-7561114D02*
D03*
X3548528Y-6577735D02*
D03*
X3744413Y-7393622D02*
D03*
X3721713Y-7354305D02*
D03*
X3690322Y-7137461D02*
D03*
X3689611Y-7322203D02*
D03*
X3657508Y-7290100D02*
D03*
X3625406Y-7257997D02*
D03*
X3541894Y-6904662D02*
D03*
X3316158Y-7528020D02*
D03*
X3565935Y-7383296D02*
D03*
X3233903Y-7468564D02*
D03*
X3588635Y-7422613D02*
D03*
X3501730Y-7319091D02*
D03*
X3469628Y-7286988D02*
D03*
X3446928Y-7247671D02*
D03*
X3414825Y-7215568D02*
D03*
X3594211Y-7117696D02*
D03*
X3533833Y-7351193D02*
D03*
X699499Y-1367852D02*
D03*
D108*
X50501Y-4480948D02*
D03*
X3300000Y-6400000D02*
D03*
X550000Y-8000000D02*
D03*
X-1189916Y-7905632D02*
D03*
X-1250000Y-1350000D02*
D03*
Y-1450000D02*
D03*
X-2675000Y-6950000D02*
D03*
X-1450000Y-8550000D02*
D03*
X-1000000Y-2050000D02*
D03*
Y-1950000D02*
D03*
X444137Y-8224565D02*
D03*
X-450000Y-8300000D02*
D03*
X940000Y-7890020D02*
D03*
X-1000000Y-7950000D02*
D03*
X-915182Y-7874129D02*
D03*
X-557904Y-7185261D02*
D03*
X-599521Y-7241253D02*
D03*
X-4400000Y-7400000D02*
D03*
Y-7500000D02*
D03*
Y-7300000D02*
D03*
X-3650000Y-6600000D02*
D03*
X-3950000Y-6900000D02*
D03*
X0Y-5950000D02*
D03*
X100000D02*
D03*
X200000D02*
D03*
X300000D02*
D03*
X-757500Y-5795000D02*
D03*
X-700000Y-5850000D02*
D03*
X-2656377Y-6759690D02*
D03*
X-2250000Y-6500000D02*
D03*
X-1197500Y-8140000D02*
D03*
X-400522Y-2842864D02*
D03*
X-750000Y-3198347D02*
D03*
Y-3100000D02*
D03*
X-425000Y-2625000D02*
D03*
X-1050000Y-3250000D02*
D03*
X-900000Y-3100000D02*
D03*
X-1000000Y2300000D02*
D03*
X-1000000Y2700001D02*
D03*
X1000000Y2700000D02*
D03*
Y2300001D02*
D03*
X-1000000Y1900000D02*
D03*
X1000000Y1900001D02*
D03*
X799492Y-442855D02*
D03*
X-2650000Y-6500000D02*
D03*
X-2747607Y-6550000D02*
D03*
X-2808730Y-6477100D02*
D03*
X-2896500Y-6450657D02*
D03*
X-3500000Y-8000000D02*
D03*
X2500000Y-7800000D02*
D03*
X1450000Y-5500000D02*
D03*
X1550000D02*
D03*
X1650000Y-5400000D02*
D03*
Y-5500000D02*
D03*
X1450000Y-5400000D02*
D03*
X1550000D02*
D03*
X201791Y2217732D02*
D03*
X650492Y2817850D02*
D03*
X-450010Y3649990D02*
D03*
X-450011Y3749990D02*
D03*
X422500Y2300000D02*
D03*
X76612Y3209783D02*
D03*
X36340Y3286259D02*
D03*
X-700000Y-4800000D02*
D03*
X5025000Y-8175000D02*
D03*
X-5025000Y-8175000D02*
D03*
X-3975000D02*
D03*
X3923530Y-8127741D02*
D03*
X-3314425Y-8262601D02*
D03*
X-2700000Y-8350000D02*
D03*
X-2800000D02*
D03*
X-1000000Y600000D02*
D03*
X-1000000Y1000001D02*
D03*
X-1000000Y1400001D02*
D03*
X1000000Y1400001D02*
D03*
Y1000001D02*
D03*
Y600000D02*
D03*
X2500000Y-6350000D02*
D03*
X4100000Y-7600000D02*
D03*
X-400498Y-442851D02*
D03*
X-600499Y-442852D02*
D03*
X1300502Y-3157149D02*
D03*
X700498Y-2957148D02*
D03*
X-250001Y3949999D02*
D03*
X-250002Y3849999D02*
D03*
X-150001Y3949999D02*
D03*
X-150000Y3849999D02*
D03*
X-50001Y3949999D02*
D03*
X-50000Y3850000D02*
D03*
X-250000Y0D02*
D03*
X-250000Y-100000D02*
D03*
X-150000Y0D02*
D03*
X-150000Y-100000D02*
D03*
X-50000Y0D02*
D03*
X-49999Y-100000D02*
D03*
X-1150000Y-850000D02*
D03*
X-1050000D02*
D03*
X-1150000Y-750000D02*
D03*
X-1050000D02*
D03*
X-1150000Y-650000D02*
D03*
X-1050000D02*
D03*
X-2400000Y-8600000D02*
D03*
X-2570157Y-8916204D02*
D03*
X-2500000Y-8600000D02*
D03*
X-2000000Y-8450000D02*
D03*
X-2150000D02*
D03*
X-1668762Y-8457257D02*
D03*
X3800000Y-6950000D02*
D03*
X3215375Y-6396975D02*
D03*
X2623504Y-6227765D02*
D03*
X2823506Y-6227764D02*
D03*
X3023508Y-6227763D02*
D03*
X3223511Y-6227761D02*
D03*
X3423513Y-6227760D02*
D03*
X3623515Y-6227759D02*
D03*
X-2075000Y-8930000D02*
D03*
X-1550000Y-9000001D02*
D03*
X-579999Y-6894938D02*
D03*
X-1700000Y-9000000D02*
D03*
X-425000Y-2700000D02*
D03*
X150000Y-5450000D02*
D03*
X1300501Y-5357147D02*
D03*
Y-5157147D02*
D03*
Y-4957147D02*
D03*
Y-4757147D02*
D03*
Y-4557147D02*
D03*
X-99499Y-4480948D02*
D03*
X-21999Y-4480947D02*
D03*
X723542Y-4422443D02*
D03*
X-216999Y-4387147D02*
D03*
X-21999Y-4381747D02*
D03*
X1300501Y-4357147D02*
D03*
X-774499Y-4307147D02*
D03*
X-1299499Y-5357147D02*
D03*
X-1099499D02*
D03*
X-899499D02*
D03*
X-1299499Y-5157147D02*
D03*
X-509606Y-4994683D02*
D03*
X-1299499Y-4957148D02*
D03*
Y-4757148D02*
D03*
Y-4557148D02*
D03*
X-774499Y-4407147D02*
D03*
X-1299499Y-4357148D02*
D03*
X800502Y-5532147D02*
D03*
X900501Y-5507147D02*
D03*
X1037209Y-5503991D02*
D03*
X-774499Y-4207147D02*
D03*
X-1299499Y-4157148D02*
D03*
X-474499Y-4107147D02*
D03*
X-899496Y-3857150D02*
D03*
X-799496D02*
D03*
X-702160Y-3658282D02*
D03*
X-499499Y-3657147D02*
D03*
X-1299499Y-3557148D02*
D03*
X-695740Y-3520120D02*
D03*
X-799496Y-3457150D02*
D03*
X-899496D02*
D03*
X-1299499Y-3357148D02*
D03*
Y-3157148D02*
D03*
Y-2957148D02*
D03*
Y-3757148D02*
D03*
Y-3957148D02*
D03*
X300501Y-4257147D02*
D03*
X-74499Y-4107147D02*
D03*
X-124499Y-4007147D02*
D03*
X180501D02*
D03*
X-199499Y-3757147D02*
D03*
X300501Y-3732147D02*
D03*
X175501Y-3657147D02*
D03*
X75501Y-3357147D02*
D03*
X-144499Y-3257148D02*
D03*
X-399499Y-3257147D02*
D03*
X-99500Y-2957148D02*
D03*
X-299500D02*
D03*
X100500D02*
D03*
X300500D02*
D03*
X1300501Y-4157148D02*
D03*
X700494Y-3957147D02*
D03*
X1300501D02*
D03*
X800501D02*
D03*
X1300501Y-3757147D02*
D03*
Y-3557147D02*
D03*
Y-3357147D02*
D03*
X500499Y-2957148D02*
D03*
X900499D02*
D03*
X1100499D02*
D03*
X1300501Y-2957147D02*
D03*
X2820264Y-7621515D02*
D03*
X-3450003Y-7021558D02*
D03*
X-3794258Y-7016062D02*
D03*
X-3344489Y-6391279D02*
D03*
X-3950000Y-6700000D02*
D03*
X-3618798Y-6399990D02*
D03*
X-4118797Y-6599991D02*
D03*
X-3326307Y-7115859D02*
D03*
X-3522828Y-6895575D02*
D03*
X-2600000Y-6572999D02*
D03*
X-2600000Y-6700000D02*
D03*
X3923530Y-7927738D02*
D03*
X1848528Y-7727734D02*
D03*
X1848532Y-7877734D02*
D03*
X400502Y3817851D02*
D03*
X500501Y3817852D02*
D03*
X600501Y3817852D02*
D03*
X350501Y3617852D02*
D03*
X3648528Y-6577734D02*
D03*
X3823518Y-6227758D02*
D03*
X3923526Y-6327733D02*
D03*
X3923528Y-6527737D02*
D03*
X3923529Y-6727739D02*
D03*
X3923520Y-6927721D02*
D03*
X3923522Y-7127724D02*
D03*
X3923524Y-7327728D02*
D03*
X3923526Y-7527731D02*
D03*
X2928528Y-7007734D02*
D03*
Y-6897734D02*
D03*
Y-6787734D02*
D03*
X3038528D02*
D03*
X3148528D02*
D03*
X3038528Y-7007734D02*
D03*
X3148528D02*
D03*
X3038528Y-6897734D02*
D03*
X1848519Y-6527713D02*
D03*
X2898528Y-7527734D02*
D03*
X2348509Y-6227743D02*
D03*
X1948504Y-6227745D02*
D03*
X1848518Y-6327711D02*
D03*
X2148506Y-6227744D02*
D03*
X3923528Y-7727735D02*
D03*
X3698528Y-7027734D02*
D03*
X1848530Y-7327739D02*
D03*
X1848529Y-7127737D02*
D03*
X1848521Y-6927718D02*
D03*
X1848520Y-6727716D02*
D03*
X3548530Y-8177734D02*
D03*
X3488525Y-7647744D02*
D03*
X3348530Y-8177734D02*
D03*
X3148530D02*
D03*
X2948530D02*
D03*
X2748530D02*
D03*
X2548530D02*
D03*
X2348530D02*
D03*
X2148530D02*
D03*
X1948528Y-8177734D02*
D03*
X1848531Y-7527742D02*
D03*
X3148528Y-6897734D02*
D03*
X898959Y-1142852D02*
D03*
X974509Y-842843D02*
D03*
X-4000501Y-8717852D02*
D03*
X-525501Y-1292852D02*
D03*
X-925501Y-1567852D02*
D03*
X-562726Y-1123112D02*
D03*
X-925501Y-1667852D02*
D03*
X-3720000Y-6400000D02*
D03*
X430011Y-6744939D02*
D03*
X475001Y-7519938D02*
D03*
X-450000Y-7550000D02*
D03*
X-99999Y-7194938D02*
D03*
X250001Y-7169938D02*
D03*
X-525501Y-1217852D02*
D03*
X-1175501Y-1192852D02*
D03*
X474499Y-742852D02*
D03*
X521934Y-1012254D02*
D03*
X249489Y-1367861D02*
D03*
X249480Y-1617851D02*
D03*
X299499Y-1167852D02*
D03*
X-375511Y-1042862D02*
D03*
Y-942862D02*
D03*
X-3300501Y-8442852D02*
D03*
X-3850510Y-8767850D02*
D03*
X-3750492Y-8767862D02*
D03*
X-3517666Y-8741105D02*
D03*
X-3425492Y-8992862D02*
D03*
X199492Y-442855D02*
D03*
X399494Y-442854D02*
D03*
X599496Y-442853D02*
D03*
X999494Y-442854D02*
D03*
X1199496Y-442853D02*
D03*
X-800526Y-442849D02*
D03*
X-1200531Y-442851D02*
D03*
X-1000529Y-442850D02*
D03*
X-1400539Y-642840D02*
D03*
X-1400540Y-442838D02*
D03*
X-1400538Y-842843D02*
D03*
X-1400535Y-1442850D02*
D03*
X-1400536Y-1242847D02*
D03*
X-1400539Y-1842840D02*
D03*
X-1400540Y-1642838D02*
D03*
X-1400537Y-2242845D02*
D03*
X-1400538Y-2042843D02*
D03*
X-1400535Y-2642850D02*
D03*
X-1400536Y-2442848D02*
D03*
X-1200531Y-2842868D02*
D03*
X-517Y-2842862D02*
D03*
X-200519Y-2842863D02*
D03*
X399488Y-2842860D02*
D03*
X199486Y-2842861D02*
D03*
X799493Y-2842858D02*
D03*
X599490Y-2842859D02*
D03*
X999495Y-2842857D02*
D03*
X1199497Y-2842856D02*
D03*
X1399500Y-2842855D02*
D03*
X1399509Y-2442876D02*
D03*
X1399508Y-2242874D02*
D03*
X1399507Y-2042871D02*
D03*
X1399506Y-1842869D02*
D03*
X1399505Y-1642867D02*
D03*
X1399504Y-1442864D02*
D03*
X1399503Y-1242862D02*
D03*
X1399502Y-1042859D02*
D03*
X1399501Y-842857D02*
D03*
X1399499Y-442852D02*
D03*
X1399500Y-642855D02*
D03*
X669498Y-2032852D02*
D03*
Y-1942852D02*
D03*
X650001Y-7194938D02*
D03*
X550002Y-7094938D02*
D03*
X650001D02*
D03*
X600001Y-7144937D02*
D03*
X-1850000Y-9000000D02*
D03*
X579498Y-2032852D02*
D03*
X489499D02*
D03*
X399499D02*
D03*
Y-1942852D02*
D03*
X489499D02*
D03*
X579498D02*
D03*
X-579999Y-6794939D02*
D03*
X550001Y-7194938D02*
D03*
X-4033418Y-8526254D02*
D03*
X-3944083Y-8526253D02*
D03*
X-3160762Y-8683267D02*
D03*
Y-8592952D02*
D03*
X795419Y-756840D02*
D03*
X706083Y-667505D02*
D03*
X795418D02*
D03*
X706083Y-578171D02*
D03*
X795418D02*
D03*
X-3007148Y-8600501D02*
D03*
Y-8700501D02*
D03*
X330004Y-6724929D02*
D03*
X150001Y-6594939D02*
D03*
X50001Y-6594938D02*
D03*
X100001Y-7424938D02*
D03*
%TF.MD5,c84bd0978726b5e493ad67f5df32c4c4*%
M02*
