%TF.GenerationSoftware,Altium Limited,Altium Designer,22.5.1 (42)*%
G04 Layer_Physical_Order=3*
G04 Layer_Color=14067636*
%FSLAX45Y45*%
%MOMM*%
%TF.SameCoordinates,09306DCC-7258-43E0-A79C-DC35209E08F8*%
%TF.FilePolarity,Positive*%
%TF.FileFunction,Copper,L3,Inr,Signal*%
%TF.Part,Single*%
G01*
G75*
%TA.AperFunction,Conductor*%
%ADD11C,0.12700*%
%ADD12C,0.50800*%
%ADD83C,0.25400*%
%ADD86C,1.01600*%
%ADD93R,0.74304X1.78190*%
%ADD94R,1.00000X3.00000*%
%ADD95R,2.88070X1.87065*%
%TA.AperFunction,ComponentPad*%
%ADD98C,2.00000*%
%ADD99R,2.00000X2.00000*%
%ADD100C,1.10000*%
G04:AMPARAMS|DCode=101|XSize=2.2mm|YSize=2.2mm|CornerRadius=0.22mm|HoleSize=0mm|Usage=FLASHONLY|Rotation=180.000|XOffset=0mm|YOffset=0mm|HoleType=Round|Shape=RoundedRectangle|*
%AMROUNDEDRECTD101*
21,1,2.20000,1.76000,0,0,180.0*
21,1,1.76000,2.20000,0,0,180.0*
1,1,0.44000,-0.88000,0.88000*
1,1,0.44000,0.88000,0.88000*
1,1,0.44000,0.88000,-0.88000*
1,1,0.44000,-0.88000,-0.88000*
%
%ADD101ROUNDEDRECTD101*%
G04:AMPARAMS|DCode=102|XSize=2.2mm|YSize=1.2mm|CornerRadius=0.6mm|HoleSize=0mm|Usage=FLASHONLY|Rotation=180.000|XOffset=0mm|YOffset=0mm|HoleType=Round|Shape=RoundedRectangle|*
%AMROUNDEDRECTD102*
21,1,2.20000,0.00000,0,0,180.0*
21,1,1.00000,1.20000,0,0,180.0*
1,1,1.20000,-0.50000,0.00000*
1,1,1.20000,0.50000,0.00000*
1,1,1.20000,0.50000,0.00000*
1,1,1.20000,-0.50000,0.00000*
%
%ADD102ROUNDEDRECTD102*%
G04:AMPARAMS|DCode=103|XSize=2.2mm|YSize=1.2mm|CornerRadius=0.6mm|HoleSize=0mm|Usage=FLASHONLY|Rotation=90.000|XOffset=0mm|YOffset=0mm|HoleType=Round|Shape=RoundedRectangle|*
%AMROUNDEDRECTD103*
21,1,2.20000,0.00000,0,0,90.0*
21,1,1.00000,1.20000,0,0,90.0*
1,1,1.20000,0.00000,0.50000*
1,1,1.20000,0.00000,-0.50000*
1,1,1.20000,0.00000,-0.50000*
1,1,1.20000,0.00000,0.50000*
%
%ADD103ROUNDEDRECTD103*%
%TA.AperFunction,ViaPad*%
%ADD104C,6.50000*%
%TA.AperFunction,ComponentPad*%
%ADD105C,4.00000*%
%ADD106C,0.65000*%
%TA.AperFunction,ViaPad*%
%ADD107C,0.46000*%
%ADD108C,0.66000*%
%TA.AperFunction,Conductor*%
%ADD109C,2.03200*%
%ADD110R,3.35000X1.61863*%
G36*
X1489419Y5031729D02*
X1552253Y5016644D01*
X1611953Y4991916D01*
X1667049Y4958152D01*
X1716186Y4916186D01*
X1758152Y4867049D01*
X1791916Y4811953D01*
X1816644Y4752253D01*
X1831729Y4689419D01*
X1835803Y4637663D01*
X1835637Y4625000D01*
X1835637D01*
X1840285Y4518542D01*
X1854194Y4412894D01*
X1877258Y4308861D01*
X1909301Y4207233D01*
X1950079Y4108785D01*
X1999283Y4014266D01*
X2056537Y3924395D01*
X2121406Y3839856D01*
X2193397Y3761292D01*
X2193450Y3761345D01*
X2230606Y3724188D01*
X2232601Y3723362D01*
X2291816Y3658028D01*
X2345532Y3585601D01*
X2391890Y3508258D01*
X2430443Y3426743D01*
X2460822Y3341841D01*
X2482732Y3254371D01*
X2495963Y3165175D01*
X2500289Y3077106D01*
X2499463Y3075111D01*
Y3000000D01*
X2499462Y1013750D01*
X2500325Y1011667D01*
X2495874Y909706D01*
X2482280Y806454D01*
X2459739Y704779D01*
X2428423Y605456D01*
X2388569Y509240D01*
X2340481Y416864D01*
X2284525Y329031D01*
X2221127Y246409D01*
X2152177Y171163D01*
X2150095Y170301D01*
X2043449Y63655D01*
X2043396Y63709D01*
X1971406Y-14855D01*
X1906537Y-99395D01*
X1849282Y-189266D01*
X1800079Y-283785D01*
X1759300Y-382233D01*
X1727257Y-483861D01*
X1704193Y-587894D01*
X1690285Y-693542D01*
X1685637Y-800000D01*
X1685712D01*
X1685712Y-800000D01*
Y-5200000D01*
X1685765Y-5200128D01*
X1689920Y-5284711D01*
X1697014Y-5332534D01*
X1685798Y-5343476D01*
X1665286D01*
Y-2777152D01*
X1665286Y-2777150D01*
X1661358Y-2747312D01*
X1649841Y-2719507D01*
X1631520Y-2695630D01*
X1631519Y-2695630D01*
X1479934Y-2544044D01*
X1456057Y-2525723D01*
X1428252Y-2514206D01*
X1398414Y-2510278D01*
X909964D01*
X694785Y-2295099D01*
Y-2082495D01*
X701999D01*
X711719Y-2078469D01*
X715745Y-2068748D01*
Y-1906886D01*
X711719Y-1897166D01*
X701999Y-1893139D01*
X366999D01*
X357278Y-1897166D01*
X353252Y-1906886D01*
Y-2068748D01*
X357278Y-2078469D01*
X366999Y-2082495D01*
X464212D01*
Y-2342852D01*
X468141Y-2372690D01*
X479658Y-2400495D01*
X497979Y-2424372D01*
X780691Y-2707084D01*
X804568Y-2725405D01*
X832372Y-2736922D01*
X862211Y-2740851D01*
X862213Y-2740850D01*
X1350661D01*
X1434714Y-2824903D01*
Y-5343476D01*
X1404699D01*
X1394979Y-5347502D01*
X1390953Y-5357222D01*
Y-5429099D01*
X1239189D01*
X1192717Y-5382627D01*
X1197577Y-5370894D01*
X1256730D01*
X1261759Y-5383034D01*
X1274614Y-5395890D01*
X1291411Y-5402847D01*
X1309592D01*
X1326388Y-5395890D01*
X1339244Y-5383034D01*
X1346201Y-5366238D01*
Y-5348057D01*
X1339244Y-5331260D01*
X1326388Y-5318405D01*
X1314248Y-5313376D01*
Y-5200919D01*
X1326388Y-5195890D01*
X1339244Y-5183034D01*
X1346201Y-5166238D01*
Y-5148057D01*
X1339244Y-5131261D01*
X1326388Y-5118405D01*
X1314248Y-5113376D01*
Y-5000919D01*
X1326388Y-4995890D01*
X1339244Y-4983034D01*
X1346201Y-4966238D01*
Y-4948057D01*
X1339244Y-4931260D01*
X1326388Y-4918405D01*
X1314248Y-4913376D01*
Y-4800919D01*
X1326388Y-4795890D01*
X1339244Y-4783034D01*
X1346201Y-4766238D01*
Y-4748057D01*
X1339244Y-4731261D01*
X1326388Y-4718405D01*
X1314248Y-4713376D01*
Y-4600919D01*
X1326388Y-4595890D01*
X1339244Y-4583034D01*
X1346201Y-4566238D01*
Y-4548057D01*
X1339244Y-4531260D01*
X1326388Y-4518405D01*
X1314248Y-4513376D01*
Y-4400919D01*
X1326388Y-4395890D01*
X1339244Y-4383034D01*
X1346201Y-4366238D01*
Y-4348057D01*
X1339244Y-4331261D01*
X1326388Y-4318405D01*
X1314248Y-4313376D01*
Y-4200919D01*
X1326388Y-4195890D01*
X1339244Y-4183035D01*
X1346201Y-4166238D01*
Y-4148057D01*
X1339244Y-4131261D01*
X1326388Y-4118405D01*
X1314248Y-4113376D01*
Y-4000919D01*
X1326388Y-3995890D01*
X1339244Y-3983034D01*
X1346201Y-3966238D01*
Y-3948057D01*
X1339244Y-3931260D01*
X1326388Y-3918405D01*
X1314248Y-3913376D01*
Y-3800919D01*
X1326388Y-3795890D01*
X1339244Y-3783034D01*
X1346201Y-3766238D01*
Y-3748057D01*
X1339244Y-3731261D01*
X1326388Y-3718405D01*
X1314248Y-3713376D01*
Y-3600919D01*
X1326388Y-3595890D01*
X1339244Y-3583034D01*
X1346201Y-3566238D01*
Y-3548057D01*
X1339244Y-3531260D01*
X1326388Y-3518405D01*
X1314248Y-3513376D01*
Y-3400919D01*
X1326388Y-3395890D01*
X1339244Y-3383034D01*
X1346201Y-3366238D01*
Y-3348057D01*
X1339244Y-3331261D01*
X1326388Y-3318405D01*
X1314248Y-3313376D01*
Y-3200920D01*
X1326389Y-3195891D01*
X1339245Y-3183036D01*
X1346202Y-3166239D01*
Y-3148058D01*
X1339245Y-3131262D01*
X1326389Y-3118406D01*
X1314248Y-3113377D01*
Y-3000919D01*
X1326388Y-2995890D01*
X1339244Y-2983034D01*
X1346201Y-2966238D01*
Y-2948057D01*
X1339244Y-2931260D01*
X1326388Y-2918405D01*
X1309592Y-2911447D01*
X1291411D01*
X1274614Y-2918405D01*
X1261759Y-2931260D01*
X1256730Y-2943401D01*
X1144270D01*
X1139242Y-2931261D01*
X1126386Y-2918406D01*
X1109589Y-2911448D01*
X1091409D01*
X1074612Y-2918406D01*
X1061756Y-2931261D01*
X1056728Y-2943401D01*
X944270D01*
X939242Y-2931261D01*
X926386Y-2918406D01*
X909589Y-2911448D01*
X891409D01*
X874612Y-2918406D01*
X861756Y-2931261D01*
X856728Y-2943401D01*
X744269D01*
X739241Y-2931261D01*
X726385Y-2918406D01*
X709588Y-2911448D01*
X691408D01*
X674611Y-2918406D01*
X661755Y-2931261D01*
X656727Y-2943401D01*
X544270D01*
X539242Y-2931261D01*
X526386Y-2918406D01*
X509590Y-2911448D01*
X491409D01*
X474612Y-2918406D01*
X461757Y-2931261D01*
X456729Y-2943401D01*
X344270D01*
X339242Y-2931261D01*
X326386Y-2918406D01*
X309590Y-2911448D01*
X291409D01*
X274613Y-2918406D01*
X261757Y-2931261D01*
X256729Y-2943401D01*
X144270D01*
X139242Y-2931261D01*
X126387Y-2918406D01*
X109590Y-2911448D01*
X91409D01*
X74613Y-2918406D01*
X61757Y-2931261D01*
X56729Y-2943401D01*
X-55729D01*
X-60758Y-2931261D01*
X-73613Y-2918406D01*
X-90410Y-2911448D01*
X-108591D01*
X-125387Y-2918406D01*
X-138243Y-2931261D01*
X-143271Y-2943401D01*
X-255729D01*
X-260757Y-2931261D01*
X-273613Y-2918406D01*
X-290410Y-2911448D01*
X-308590D01*
X-325387Y-2918406D01*
X-338243Y-2931261D01*
X-343271Y-2943401D01*
X-524102D01*
Y-2779723D01*
X-509615Y-2765236D01*
X-504001Y-2756834D01*
X-502030Y-2746923D01*
Y-2321708D01*
X158812Y-1660865D01*
X164426Y-1652464D01*
X166398Y-1642553D01*
Y-920227D01*
X558353Y-528272D01*
X563967Y-519870D01*
X565938Y-509959D01*
Y21550D01*
X918490Y374102D01*
X1050000D01*
X1059911Y376074D01*
X1068312Y381688D01*
X1168312Y481688D01*
X1173926Y490089D01*
X1175898Y500000D01*
Y950000D01*
X1173926Y959911D01*
X1168312Y968313D01*
X1025898Y1110727D01*
Y1361269D01*
X1038743Y1374114D01*
X1045700Y1390911D01*
Y1409091D01*
X1038743Y1425888D01*
X1025887Y1438744D01*
X1009090Y1445701D01*
X990910D01*
X974113Y1438744D01*
X961257Y1425888D01*
X954300Y1409091D01*
Y1390911D01*
X961257Y1374114D01*
X974102Y1361269D01*
Y1100000D01*
X976074Y1090090D01*
X981688Y1081688D01*
X1004975Y1058400D01*
X999714Y1045700D01*
X990910D01*
X974113Y1038743D01*
X961257Y1025887D01*
X954300Y1009091D01*
Y990910D01*
X961257Y974114D01*
X974102Y961269D01*
Y750000D01*
X976074Y740089D01*
X981688Y731688D01*
X1074103Y639273D01*
Y560727D01*
X989273Y475898D01*
X929116D01*
X924256Y487631D01*
X990925Y554300D01*
X1009090D01*
X1025887Y561257D01*
X1038743Y574113D01*
X1045700Y590910D01*
Y609090D01*
X1038743Y625887D01*
X1025887Y638743D01*
X1009090Y645700D01*
X990910D01*
X974113Y638743D01*
X961257Y625887D01*
X954300Y609090D01*
Y590925D01*
X445528Y82153D01*
X439915Y73751D01*
X437943Y63841D01*
Y-467669D01*
X63831Y-841781D01*
X52098Y-836921D01*
Y-490441D01*
X144512Y-398027D01*
X150126Y-389625D01*
X152097Y-379714D01*
Y1707709D01*
X318491Y1874102D01*
X961269D01*
X974113Y1861258D01*
X990910Y1854301D01*
X1009091D01*
X1025887Y1861258D01*
X1038743Y1874114D01*
X1045700Y1890910D01*
Y1909091D01*
X1038743Y1925887D01*
X1025887Y1938743D01*
X1009091Y1945700D01*
X990910D01*
X974113Y1938743D01*
X961268Y1925898D01*
X332998D01*
X328138Y1937631D01*
X664610Y2274103D01*
X961269D01*
X974113Y2261258D01*
X990910Y2254301D01*
X1009090D01*
X1025887Y2261258D01*
X1038743Y2274114D01*
X1045700Y2290910D01*
Y2309091D01*
X1038743Y2325888D01*
X1025887Y2338743D01*
X1009090Y2345701D01*
X990910D01*
X974113Y2338743D01*
X961268Y2325898D01*
X679116D01*
X674255Y2337631D01*
X990925Y2654301D01*
X1009090D01*
X1025887Y2661258D01*
X1038743Y2674114D01*
X1045700Y2690910D01*
Y2709091D01*
X1038743Y2725887D01*
X1025887Y2738743D01*
X1009090Y2745700D01*
X990910D01*
X974113Y2738743D01*
X961257Y2725887D01*
X954300Y2709091D01*
Y2690925D01*
X31688Y1768313D01*
X26074Y1759911D01*
X24102Y1750000D01*
Y-337424D01*
X-68312Y-429839D01*
X-73926Y-438240D01*
X-75897Y-448151D01*
Y-1552918D01*
X-736740Y-2213760D01*
X-742354Y-2222162D01*
X-744325Y-2232073D01*
Y-2605320D01*
X-811402Y-2672397D01*
X-824102Y-2667137D01*
Y-2630135D01*
X-775286Y-2581319D01*
X-769673Y-2572917D01*
X-767701Y-2563007D01*
Y-2503227D01*
X-767702Y-2503222D01*
Y-2211662D01*
X-106860Y-1550820D01*
X-101246Y-1542418D01*
X-99275Y-1532508D01*
Y-451707D01*
X-101246Y-441796D01*
X-106860Y-433394D01*
X-324102Y-216152D01*
Y147851D01*
X-31688Y440266D01*
X-26074Y448668D01*
X-24102Y458579D01*
Y1750000D01*
X-26074Y1759911D01*
X-31688Y1768313D01*
X-954300Y2690926D01*
Y2709091D01*
X-961258Y2725888D01*
X-974113Y2738743D01*
X-990910Y2745701D01*
X-1009091D01*
X-1025887Y2738743D01*
X-1038743Y2725888D01*
X-1045700Y2709091D01*
Y2690910D01*
X-1038743Y2674114D01*
X-1025887Y2661258D01*
X-1009091Y2654301D01*
X-990925D01*
X-674256Y2337631D01*
X-679116Y2325898D01*
X-961268D01*
X-974113Y2338743D01*
X-990910Y2345700D01*
X-1009090D01*
X-1025887Y2338743D01*
X-1038743Y2325887D01*
X-1045700Y2309091D01*
Y2290910D01*
X-1038743Y2274114D01*
X-1025887Y2261258D01*
X-1009090Y2254301D01*
X-990910D01*
X-974113Y2261258D01*
X-961268Y2274103D01*
X-664609D01*
X-328137Y1937631D01*
X-332997Y1925898D01*
X-961268D01*
X-974113Y1938743D01*
X-990909Y1945700D01*
X-1009090D01*
X-1025887Y1938743D01*
X-1038742Y1925887D01*
X-1045700Y1909091D01*
Y1890910D01*
X-1038742Y1874113D01*
X-1025887Y1861258D01*
X-1009090Y1854300D01*
X-990909D01*
X-974113Y1861258D01*
X-961268Y1874103D01*
X-318490D01*
X-152097Y1707710D01*
Y500869D01*
X-444512Y208454D01*
X-450126Y200052D01*
X-452098Y190142D01*
Y-258442D01*
X-450126Y-268353D01*
X-444512Y-276755D01*
X-227270Y-493997D01*
Y-811750D01*
X-239003Y-816610D01*
X-270087Y-785526D01*
X-270090Y-785522D01*
X-473925Y-581687D01*
X-482327Y-576073D01*
X-492238Y-574101D01*
X-535391D01*
X-636003Y-473490D01*
Y261900D01*
X-637974Y271811D01*
X-643588Y280213D01*
X-869788Y506413D01*
X-878190Y512027D01*
X-888100Y513998D01*
X-973491D01*
X-974102Y514609D01*
Y561268D01*
X-961257Y574113D01*
X-954300Y590910D01*
Y609091D01*
X-961257Y625887D01*
X-974113Y638743D01*
X-990909Y645700D01*
X-1009090D01*
X-1025887Y638743D01*
X-1038742Y625887D01*
X-1045700Y609091D01*
Y590910D01*
X-1038742Y574113D01*
X-1025897Y561268D01*
Y529116D01*
X-1037631Y524256D01*
X-1074102Y560728D01*
Y639273D01*
X-981687Y731688D01*
X-976073Y740090D01*
X-974102Y750000D01*
Y961269D01*
X-961257Y974114D01*
X-954300Y990910D01*
Y1009091D01*
X-961257Y1025887D01*
X-974113Y1038743D01*
X-990910Y1045700D01*
X-999714D01*
X-1004975Y1058400D01*
X-981687Y1081688D01*
X-976073Y1090090D01*
X-974102Y1100000D01*
Y1361269D01*
X-961258Y1374114D01*
X-954300Y1390910D01*
Y1409091D01*
X-961258Y1425888D01*
X-974113Y1438743D01*
X-990910Y1445701D01*
X-1009091D01*
X-1025887Y1438743D01*
X-1038743Y1425888D01*
X-1045700Y1409091D01*
Y1390910D01*
X-1038743Y1374114D01*
X-1025897Y1361268D01*
Y1110728D01*
X-1168312Y968313D01*
X-1173926Y959911D01*
X-1175897Y950000D01*
Y500000D01*
X-1173926Y490090D01*
X-1168312Y481688D01*
X-1068312Y381688D01*
X-1059910Y376074D01*
X-1050000Y374103D01*
X-918490D01*
X-763998Y219610D01*
Y-227799D01*
X-763997Y-227804D01*
Y-515781D01*
X-762025Y-525692D01*
X-756411Y-534094D01*
X-595994Y-694511D01*
X-587592Y-700125D01*
X-577681Y-702097D01*
X-534528D01*
X-341569Y-895056D01*
Y-1442873D01*
X-1002411Y-2103716D01*
X-1008025Y-2112117D01*
X-1009996Y-2122028D01*
Y-2473372D01*
X-1117877Y-2581252D01*
X-1119745Y-2581161D01*
X-1130577Y-2577183D01*
Y-1632150D01*
X-875007Y-1376580D01*
X-870797Y-1370278D01*
X-869318Y-1362845D01*
Y65016D01*
X-870797Y72449D01*
X-875007Y78750D01*
X-1299451Y503194D01*
Y2550756D01*
X-905049Y2945158D01*
X-168589D01*
X-161156Y2946636D01*
X-154855Y2950847D01*
X61058Y3166760D01*
X67522Y3164083D01*
X85703D01*
X102499Y3171040D01*
X115355Y3183896D01*
X122312Y3200692D01*
Y3218873D01*
X115355Y3235669D01*
X102499Y3248525D01*
X85749Y3255463D01*
X85701Y3255485D01*
X78318Y3268183D01*
X82040Y3277168D01*
Y3295349D01*
X75083Y3312146D01*
X62227Y3325001D01*
X45430Y3331959D01*
X27250D01*
X10453Y3325001D01*
X-2403Y3312146D01*
X-9360Y3295349D01*
Y3277168D01*
X-6682Y3270705D01*
X-211051Y3066337D01*
X-946418D01*
X-946419Y3066337D01*
X-953852Y3064858D01*
X-960154Y3060648D01*
X-1412980Y2607822D01*
X-1417190Y2601521D01*
X-1418669Y2594088D01*
Y529440D01*
X-1417190Y522007D01*
X-1412980Y515706D01*
X-937379Y40106D01*
Y-1313967D01*
X-1189134Y-1565722D01*
X-1193345Y-1572023D01*
X-1194823Y-1579456D01*
Y-1639479D01*
Y-2661355D01*
X-1203654Y-2668604D01*
X-1213388Y-2661232D01*
X-1211154Y-2650000D01*
Y-1501421D01*
X-1202632Y-1497891D01*
X-1198606Y-1488171D01*
Y-1309981D01*
X-1202632Y-1300261D01*
X-1212352Y-1296234D01*
X-1286657D01*
X-1296377Y-1300261D01*
X-1300403Y-1309981D01*
Y-1488171D01*
X-1296377Y-1497891D01*
X-1288847Y-1501010D01*
Y-2633909D01*
X-1559966Y-2905028D01*
X-1568386Y-2917631D01*
X-1571344Y-2932497D01*
Y-5417503D01*
X-1568386Y-5432369D01*
X-1559966Y-5444971D01*
X-1377468Y-5627469D01*
X-1364866Y-5635889D01*
X-1350000Y-5638846D01*
X-831048D01*
X-744339Y-5725555D01*
X-749199Y-5737289D01*
X-796022D01*
X-805742Y-5741315D01*
X-809769Y-5751035D01*
Y-5837999D01*
X-805742Y-5847719D01*
X-796022Y-5851745D01*
X-779716D01*
X-738846Y-5892616D01*
Y-6302434D01*
X-1243367Y-6806954D01*
X-3027494D01*
X-3042360Y-6809911D01*
X-3054962Y-6818332D01*
X-3161426Y-6924796D01*
X-3360996D01*
X-3398123Y-6887668D01*
X-3393943Y-6873888D01*
X-3393550Y-6873810D01*
X-3392095Y-6875265D01*
X-3378973Y-6880700D01*
X-3364771D01*
X-3351650Y-6875265D01*
X-3341607Y-6865222D01*
X-3341276Y-6864423D01*
X-3173710D01*
X-3166277Y-6862944D01*
X-3159976Y-6858734D01*
X-3020665Y-6719423D01*
X-2641420D01*
X-2638743Y-6725887D01*
X-2625887Y-6738743D01*
X-2609090Y-6745700D01*
X-2590909D01*
X-2574113Y-6738743D01*
X-2561257Y-6725887D01*
X-2554300Y-6709090D01*
Y-6690910D01*
X-2561257Y-6674113D01*
X-2574113Y-6661257D01*
X-2590909Y-6654300D01*
X-2609090D01*
X-2625887Y-6661257D01*
X-2638743Y-6674113D01*
X-2641420Y-6680577D01*
X-3028711D01*
X-3036144Y-6682055D01*
X-3042445Y-6686266D01*
X-3181756Y-6825577D01*
X-3282891D01*
X-3288151Y-6812877D01*
X-3282064Y-6806789D01*
X-3276629Y-6793668D01*
Y-6779465D01*
X-3276960Y-6778666D01*
X-3212029Y-6713735D01*
X-3212028Y-6713734D01*
X-3138201Y-6639908D01*
X-2647486D01*
X-2640053Y-6638429D01*
X-2633751Y-6634219D01*
X-2615554Y-6616022D01*
X-2609091Y-6618699D01*
X-2590910D01*
X-2574113Y-6611742D01*
X-2561258Y-6598886D01*
X-2554300Y-6582089D01*
Y-6563909D01*
X-2561258Y-6547112D01*
X-2574113Y-6534256D01*
X-2590910Y-6527299D01*
X-2598096D01*
X-2606582Y-6514599D01*
X-2604300Y-6509090D01*
Y-6490910D01*
X-2611257Y-6474113D01*
X-2624113Y-6461257D01*
X-2640910Y-6454300D01*
X-2659090D01*
X-2675887Y-6461257D01*
X-2688743Y-6474113D01*
X-2695700Y-6490910D01*
Y-6509090D01*
X-2688743Y-6525887D01*
X-2675887Y-6538743D01*
X-2659090Y-6545700D01*
X-2651904D01*
X-2643418Y-6558400D01*
X-2645700Y-6563909D01*
Y-6582089D01*
X-2643023Y-6588553D01*
X-2655531Y-6601061D01*
X-2718273D01*
X-2721252Y-6590417D01*
X-2721339Y-6588361D01*
X-2708865Y-6575887D01*
X-2701907Y-6559091D01*
Y-6540910D01*
X-2708865Y-6524113D01*
X-2721720Y-6511257D01*
X-2738517Y-6504300D01*
X-2756698D01*
X-2756803Y-6504344D01*
X-2766523Y-6494624D01*
X-2763030Y-6486191D01*
Y-6468010D01*
X-2769988Y-6451213D01*
X-2782843Y-6438358D01*
X-2799640Y-6431400D01*
X-2817821D01*
X-2834617Y-6438358D01*
X-2838100Y-6441841D01*
X-2841975Y-6441757D01*
X-2852261Y-6438041D01*
X-2857758Y-6424770D01*
X-2870614Y-6411914D01*
X-2887410Y-6404957D01*
X-2905591D01*
X-2922387Y-6411914D01*
X-2935243Y-6424770D01*
X-2937920Y-6431234D01*
X-3391298D01*
X-3548269Y-6274263D01*
X-3554570Y-6270052D01*
X-3562003Y-6268574D01*
X-3997522D01*
X-3997523Y-6268573D01*
X-4004956Y-6270052D01*
X-4011257Y-6274263D01*
X-4011258Y-6274263D01*
X-4540176Y-6803181D01*
X-4544386Y-6809482D01*
X-4545865Y-6816915D01*
Y-8033230D01*
X-4544386Y-8040663D01*
X-4540176Y-8046964D01*
X-4076440Y-8510700D01*
X-4079118Y-8517164D01*
Y-8535344D01*
X-4072161Y-8552141D01*
X-4059305Y-8564997D01*
X-4042508Y-8571954D01*
X-4024327D01*
X-4017864Y-8569276D01*
X-3890139Y-8697001D01*
X-3890139Y-8697002D01*
X-3883837Y-8701212D01*
X-3876404Y-8702690D01*
X-3202182D01*
X-3199505Y-8709154D01*
X-3186649Y-8722010D01*
X-3169853Y-8728967D01*
X-3151672D01*
X-3134875Y-8722010D01*
X-3122020Y-8709154D01*
X-3119885Y-8704001D01*
X-3107609Y-8702809D01*
X-3096183Y-8714235D01*
X-3089882Y-8718446D01*
X-3082448Y-8719924D01*
X-3048568D01*
X-3045891Y-8726388D01*
X-3033035Y-8739244D01*
X-3016238Y-8746201D01*
X-2998058D01*
X-2981261Y-8739244D01*
X-2968405Y-8726388D01*
X-2965728Y-8719924D01*
X-2900501D01*
X-2893068Y-8718446D01*
X-2886767Y-8714235D01*
X-2686266Y-8513735D01*
X-2686266Y-8513734D01*
X-2682055Y-8507433D01*
X-2680577Y-8500000D01*
Y-8391420D01*
X-2674113Y-8388743D01*
X-2661257Y-8375887D01*
X-2654300Y-8359090D01*
Y-8340910D01*
X-2661257Y-8324113D01*
X-2674113Y-8311257D01*
X-2690910Y-8304300D01*
X-2709090D01*
X-2725887Y-8311257D01*
X-2738743Y-8324113D01*
X-2743127Y-8334698D01*
X-2756873D01*
X-2761257Y-8324113D01*
X-2774113Y-8311257D01*
X-2790910Y-8304300D01*
X-2809090D01*
X-2825887Y-8311257D01*
X-2838743Y-8324113D01*
X-2845700Y-8340910D01*
Y-8359090D01*
X-2838743Y-8375887D01*
X-2825887Y-8388743D01*
X-2819423Y-8391420D01*
Y-8491955D01*
X-2908546Y-8581078D01*
X-2965728D01*
X-2968405Y-8574614D01*
X-2981261Y-8561758D01*
X-2998058Y-8554801D01*
X-3016238D01*
X-3033035Y-8561758D01*
X-3045891Y-8574614D01*
X-3048568Y-8581078D01*
X-3070115D01*
X-3071975Y-8579217D01*
X-3078276Y-8575007D01*
X-3085709Y-8573528D01*
X-3119342D01*
X-3122020Y-8567065D01*
X-3134875Y-8554209D01*
X-3151672Y-8547252D01*
X-3169853D01*
X-3186649Y-8554209D01*
X-3199505Y-8567065D01*
X-3202182Y-8573528D01*
X-3348386D01*
X-3355819Y-8575007D01*
X-3362120Y-8579217D01*
X-3421347Y-8638444D01*
X-3804424D01*
X-3901061Y-8541807D01*
X-3898383Y-8535344D01*
Y-8517163D01*
X-3905340Y-8500367D01*
X-3918196Y-8487511D01*
X-3934993Y-8480554D01*
X-3953173D01*
X-3959637Y-8483231D01*
X-4468616Y-7974252D01*
Y-7567418D01*
X-4455916Y-7561296D01*
X-4450000Y-7563746D01*
X-4350000D01*
X-4340280Y-7559720D01*
X-4336253Y-7550000D01*
Y-7538846D01*
X-4000000D01*
X-3985134Y-7535889D01*
X-3972532Y-7527469D01*
X-3672531Y-7227468D01*
X-3664111Y-7214866D01*
X-3661153Y-7200000D01*
Y-7004703D01*
X-3590872Y-6934422D01*
X-3548464D01*
X-3531918Y-6941275D01*
X-3513737D01*
X-3497192Y-6934422D01*
X-3461244D01*
X-3404555Y-6991111D01*
X-3391953Y-6999532D01*
X-3377087Y-7002489D01*
X-3279040D01*
X-3276978Y-7008920D01*
X-3276927Y-7015189D01*
X-3287916Y-7022531D01*
X-3335648Y-7070263D01*
X-3352194Y-7077117D01*
X-3365050Y-7089972D01*
X-3372007Y-7106769D01*
Y-7124950D01*
X-3365050Y-7141746D01*
X-3352194Y-7154602D01*
X-3335397Y-7161559D01*
X-3317217D01*
X-3300420Y-7154602D01*
X-3287564Y-7141746D01*
X-3280711Y-7125200D01*
X-3244357Y-7088846D01*
X-3050000D01*
X-3035134Y-7085889D01*
X-3022531Y-7077468D01*
X-2933909Y-6988847D01*
X-2700637D01*
X-2684091Y-6995700D01*
X-2665910D01*
X-2649364Y-6988847D01*
X-1212710D01*
X-1197844Y-6985890D01*
X-1190242Y-6980810D01*
X-1182146Y-6990675D01*
X-2163734Y-7972263D01*
X-2167945Y-7978564D01*
X-2169423Y-7985997D01*
Y-8408580D01*
X-2175887Y-8411257D01*
X-2188743Y-8424113D01*
X-2195700Y-8440910D01*
Y-8459091D01*
X-2188743Y-8475887D01*
X-2175887Y-8488743D01*
X-2159090Y-8495700D01*
X-2140910D01*
X-2124113Y-8488743D01*
X-2111257Y-8475887D01*
X-2104300Y-8459091D01*
Y-8440910D01*
X-2111257Y-8424113D01*
X-2124113Y-8411257D01*
X-2130577Y-8408580D01*
Y-7994042D01*
X-2032123Y-7895588D01*
X-2019423Y-7900849D01*
Y-8408580D01*
X-2025887Y-8411257D01*
X-2038742Y-8424113D01*
X-2045700Y-8440910D01*
Y-8459091D01*
X-2038742Y-8475887D01*
X-2025887Y-8488743D01*
X-2009090Y-8495700D01*
X-1990909D01*
X-1974113Y-8488743D01*
X-1961257Y-8475887D01*
X-1954300Y-8459091D01*
Y-8440910D01*
X-1961257Y-8424113D01*
X-1974113Y-8411257D01*
X-1980577Y-8408580D01*
Y-7891301D01*
X-1915952Y-7826677D01*
X-1904219Y-7831538D01*
Y-8965204D01*
X-1902741Y-8972637D01*
X-1898530Y-8978938D01*
X-1893022Y-8984446D01*
X-1895700Y-8990910D01*
Y-9009090D01*
X-1888742Y-9025887D01*
X-1875887Y-9038743D01*
X-1859090Y-9045700D01*
X-1840909D01*
X-1824113Y-9038743D01*
X-1811257Y-9025887D01*
X-1804300Y-9009090D01*
Y-8990910D01*
X-1811257Y-8974113D01*
X-1824113Y-8961257D01*
X-1840909Y-8954300D01*
X-1859090D01*
X-1865373Y-8950102D01*
Y-8528689D01*
X-1853640Y-8523829D01*
X-1719423Y-8658045D01*
Y-8958580D01*
X-1725887Y-8961257D01*
X-1738743Y-8974113D01*
X-1745700Y-8990910D01*
Y-9009090D01*
X-1738743Y-9025887D01*
X-1725887Y-9038743D01*
X-1709090Y-9045700D01*
X-1690909D01*
X-1674113Y-9038743D01*
X-1661257Y-9025887D01*
X-1654300Y-9009090D01*
Y-8990910D01*
X-1661257Y-8974113D01*
X-1674113Y-8961257D01*
X-1680577Y-8958580D01*
Y-8650000D01*
X-1682055Y-8642567D01*
X-1686266Y-8636266D01*
X-1839973Y-8482558D01*
Y-8132925D01*
X-1827273Y-8127664D01*
X-1707608Y-8247329D01*
Y-8431621D01*
X-1714462Y-8448167D01*
Y-8466348D01*
X-1707505Y-8483144D01*
X-1694649Y-8496000D01*
X-1677852Y-8502957D01*
X-1659672D01*
X-1642875Y-8496000D01*
X-1630019Y-8483144D01*
X-1623062Y-8466348D01*
Y-8448167D01*
X-1629915Y-8431621D01*
Y-8231238D01*
X-1632873Y-8216372D01*
X-1641293Y-8203769D01*
X-1766384Y-8078679D01*
Y-8006146D01*
X-1753684Y-8002743D01*
X-1744182Y-8019199D01*
X-1723199Y-8040182D01*
X-1697501Y-8055020D01*
X-1668837Y-8062700D01*
X-1639163D01*
X-1610499Y-8055020D01*
X-1584800Y-8040182D01*
X-1563818Y-8019199D01*
X-1548980Y-7993500D01*
X-1541300Y-7964837D01*
Y-7935163D01*
X-1548980Y-7906499D01*
X-1563818Y-7880800D01*
X-1584800Y-7859817D01*
X-1610499Y-7844980D01*
X-1639163Y-7837300D01*
X-1668837D01*
X-1697501Y-7844980D01*
X-1723199Y-7859817D01*
X-1744182Y-7880800D01*
X-1753684Y-7897256D01*
X-1766384Y-7893853D01*
Y-7860860D01*
X-1566716Y-7661193D01*
X-97407D01*
X-82541Y-7658236D01*
X-69938Y-7649815D01*
X109342Y-7470534D01*
X125888Y-7463681D01*
X138744Y-7450825D01*
X145701Y-7434029D01*
Y-7415848D01*
X138744Y-7399051D01*
X125888Y-7386196D01*
X109091Y-7379238D01*
X90911D01*
X74114Y-7386196D01*
X61258Y-7399051D01*
X54405Y-7415597D01*
X-113498Y-7583500D01*
X-1562760D01*
X-1567621Y-7571766D01*
X-1486976Y-7491121D01*
X-147841D01*
X-140408Y-7489643D01*
X-134107Y-7485433D01*
X163736Y-7187590D01*
X167946Y-7181289D01*
X169424Y-7173856D01*
Y-6636359D01*
X175888Y-6633681D01*
X188744Y-6620825D01*
X195701Y-6604029D01*
Y-6585848D01*
X188744Y-6569052D01*
X175888Y-6556196D01*
X159092Y-6549239D01*
X140911D01*
X124114Y-6556196D01*
X111259Y-6569052D01*
X106874Y-6579636D01*
X93128D01*
X88744Y-6569051D01*
X75888Y-6556195D01*
X59091Y-6549238D01*
X40911D01*
X24114Y-6556195D01*
X11258Y-6569051D01*
X4301Y-6585848D01*
Y-6604028D01*
X11258Y-6620825D01*
X24114Y-6633681D01*
X30578Y-6636358D01*
Y-7191954D01*
X-158045Y-7380577D01*
X-1453259D01*
X-1458119Y-7368844D01*
X-527443Y-6438167D01*
X-521303Y-6439193D01*
X-514743Y-6442765D01*
Y-7052429D01*
X-601794Y-7139481D01*
X-603599Y-7142182D01*
X-643628Y-7182211D01*
X-647654Y-7191931D01*
X-647654Y-7191932D01*
X-647653Y-7275733D01*
X-643627Y-7285453D01*
X-633907Y-7289479D01*
X-575733D01*
X-566013Y-7285453D01*
X-566012Y-7285453D01*
X-514360Y-7233801D01*
X-510232Y-7231042D01*
X-404218Y-7125028D01*
X-390183Y-7104024D01*
X-385254Y-7079247D01*
Y-6026816D01*
X-173182Y-5814744D01*
X350000D01*
X374776Y-5809816D01*
X395781Y-5795781D01*
X732677Y-5458885D01*
X866937D01*
X871434Y-5471585D01*
X861758Y-5481261D01*
X854801Y-5498057D01*
Y-5510631D01*
X842101Y-5513157D01*
X839244Y-5506260D01*
X826388Y-5493404D01*
X809592Y-5486447D01*
X791411D01*
X774615Y-5493404D01*
X761759Y-5506260D01*
X754802Y-5523057D01*
Y-5541237D01*
X761759Y-5558034D01*
X774615Y-5570890D01*
X791411Y-5577847D01*
X809592D01*
X816056Y-5575169D01*
X904620Y-5663734D01*
X910921Y-5667944D01*
X918355Y-5669423D01*
X1541954D01*
X2004862Y-6132331D01*
Y-6237003D01*
X2006341Y-6244436D01*
X2010551Y-6250737D01*
X2227713Y-6467899D01*
X2234015Y-6472109D01*
X2241448Y-6473588D01*
X2696119D01*
X2719676Y-6497145D01*
X2720528Y-6502193D01*
X2718717Y-6514147D01*
X2664130Y-6568735D01*
X946203D01*
X463734Y-6086265D01*
X343022Y-5965554D01*
X345700Y-5959090D01*
Y-5940910D01*
X338743Y-5924113D01*
X325887Y-5911257D01*
X309090Y-5904300D01*
X290910D01*
X274113Y-5911257D01*
X261257Y-5924113D01*
X256873Y-5934697D01*
X243127D01*
X238743Y-5924113D01*
X225887Y-5911257D01*
X209091Y-5904300D01*
X190910D01*
X174113Y-5911257D01*
X161257Y-5924113D01*
X156873Y-5934698D01*
X143127D01*
X138743Y-5924113D01*
X125887Y-5911257D01*
X109090Y-5904300D01*
X90910D01*
X74113Y-5911257D01*
X61257Y-5924113D01*
X56873Y-5934698D01*
X43127D01*
X38743Y-5924113D01*
X25887Y-5911257D01*
X9090Y-5904300D01*
X-9090D01*
X-25887Y-5911257D01*
X-38743Y-5924113D01*
X-45700Y-5940910D01*
Y-5959090D01*
X-38743Y-5975887D01*
X-25887Y-5988743D01*
X-9090Y-5995700D01*
X9090D01*
X15554Y-5993023D01*
X251888Y-6229356D01*
X251888Y-6229357D01*
X886266Y-6863734D01*
X892567Y-6867945D01*
X900000Y-6869423D01*
X2700000D01*
X2707433Y-6867945D01*
X2713734Y-6863734D01*
X2858045Y-6719423D01*
X3210732D01*
X3224183Y-6732874D01*
X3230485Y-6737085D01*
X3237918Y-6738563D01*
X3237919Y-6738563D01*
X3437122D01*
X3437453Y-6739362D01*
X3447496Y-6749405D01*
X3460617Y-6754840D01*
X3474819D01*
X3487941Y-6749405D01*
X3497983Y-6739362D01*
X3503418Y-6726241D01*
Y-6712039D01*
X3497983Y-6698918D01*
X3488773Y-6689707D01*
X3487899Y-6688171D01*
X3487105Y-6674782D01*
X3492798Y-6669089D01*
X3498233Y-6655967D01*
Y-6641765D01*
X3492798Y-6628644D01*
X3482755Y-6618601D01*
X3469634Y-6613166D01*
X3465064D01*
X3429886Y-6577988D01*
X3423584Y-6573778D01*
X3416151Y-6572299D01*
X3085480D01*
X3080219Y-6559599D01*
X3199821Y-6439997D01*
X3206285Y-6442674D01*
X3224466D01*
X3241262Y-6435717D01*
X3248560Y-6428419D01*
X3259665Y-6426205D01*
X3264472Y-6429101D01*
X3274113Y-6438743D01*
X3290910Y-6445700D01*
X3309090D01*
X3325887Y-6438743D01*
X3338743Y-6425887D01*
X3345700Y-6409090D01*
Y-6390909D01*
X3338743Y-6374113D01*
X3325887Y-6361257D01*
X3309090Y-6354300D01*
X3290910D01*
X3284446Y-6356977D01*
X3227160Y-6299692D01*
X3220859Y-6295481D01*
X3213426Y-6294003D01*
X3120405D01*
X3112972Y-6295481D01*
X3106671Y-6299692D01*
X2930721Y-6475642D01*
X2919957Y-6474815D01*
X2912566Y-6463531D01*
Y-6449329D01*
X2907131Y-6436208D01*
X2897089Y-6426165D01*
X2883967Y-6420730D01*
X2869765D01*
X2856644Y-6426165D01*
X2846601Y-6436208D01*
X2846270Y-6437007D01*
X2832013D01*
X2821987Y-6428024D01*
Y-6413822D01*
X2816552Y-6400701D01*
X2806509Y-6390658D01*
X2793388Y-6385223D01*
X2779186D01*
X2778386Y-6385554D01*
X2680961Y-6288129D01*
X2674660Y-6283919D01*
X2667227Y-6282440D01*
X2559909D01*
X2363734Y-6086266D01*
X2357433Y-6082055D01*
X2350000Y-6080577D01*
X2161345D01*
X2093382Y-6012614D01*
X1650536Y-5569768D01*
X1655396Y-5558034D01*
X1692769D01*
X1702489Y-5554008D01*
X1706515Y-5544288D01*
Y-5437048D01*
X1719119Y-5435494D01*
X1722973Y-5450876D01*
X1751545Y-5530731D01*
X1787807Y-5607401D01*
X1831410Y-5680147D01*
X1881932Y-5748269D01*
X1938889Y-5811111D01*
X2001731Y-5868068D01*
X2069853Y-5918590D01*
X2142599Y-5962193D01*
X2219269Y-5998455D01*
X2299124Y-6027027D01*
X2381395Y-6047635D01*
X2465289Y-6060080D01*
X2549872Y-6064235D01*
X2550000Y-6064288D01*
X5700000D01*
X5701396Y-6063710D01*
X5736370Y-6067155D01*
X5771343Y-6077764D01*
X5803574Y-6094991D01*
X5831824Y-6118176D01*
X5855009Y-6146426D01*
X5872236Y-6178657D01*
X5882845Y-6213630D01*
X5886290Y-6248604D01*
X5885712Y-6250000D01*
Y-8340151D01*
X1084849D01*
X1000000Y-8425000D01*
Y-9085712D01*
X-5200000D01*
X-5201909Y-9086503D01*
X-5276876Y-9082293D01*
X-5352785Y-9069395D01*
X-5426773Y-9048080D01*
X-5497909Y-9018614D01*
X-5565298Y-8981369D01*
X-5628094Y-8936813D01*
X-5685507Y-8885506D01*
X-5736813Y-8828094D01*
X-5781369Y-8765298D01*
X-5818614Y-8697909D01*
X-5848080Y-8626773D01*
X-5869395Y-8552785D01*
X-5882293Y-8476876D01*
X-5886503Y-8401909D01*
X-5885712Y-8400000D01*
Y-6250000D01*
X-5886290Y-6248604D01*
X-5882845Y-6213630D01*
X-5872236Y-6178657D01*
X-5855009Y-6146426D01*
X-5831824Y-6118176D01*
X-5803574Y-6094991D01*
X-5771343Y-6077764D01*
X-5736370Y-6067155D01*
X-5701396Y-6063710D01*
X-5700000Y-6064288D01*
X-2550000D01*
X-2549872Y-6064235D01*
X-2465289Y-6060080D01*
X-2381395Y-6047635D01*
X-2299124Y-6027027D01*
X-2219269Y-5998455D01*
X-2142599Y-5962193D01*
X-2069853Y-5918590D01*
X-2001731Y-5868068D01*
X-1938889Y-5811111D01*
X-1881932Y-5748269D01*
X-1831410Y-5680147D01*
X-1787807Y-5607401D01*
X-1751545Y-5530731D01*
X-1722973Y-5450876D01*
X-1702365Y-5368605D01*
X-1689920Y-5284711D01*
X-1685765Y-5200128D01*
X-1685712Y-5200000D01*
Y-800000D01*
X-1685712Y-800000D01*
X-1685637D01*
X-1690285Y-693542D01*
X-1704193Y-587894D01*
X-1727257Y-483861D01*
X-1759300Y-382233D01*
X-1800079Y-283785D01*
X-1849282Y-189266D01*
X-1906537Y-99395D01*
X-1971406Y-14855D01*
X-2043396Y63709D01*
X-2043449Y63655D01*
X-2150095Y170301D01*
X-2152177Y171163D01*
X-2221127Y246409D01*
X-2284525Y329031D01*
X-2340481Y416864D01*
X-2388569Y509240D01*
X-2428423Y605456D01*
X-2459739Y704779D01*
X-2482280Y806454D01*
X-2495874Y909706D01*
X-2500325Y1011667D01*
X-2499462Y1013750D01*
X-2499463Y3000000D01*
Y3075111D01*
X-2500289Y3077106D01*
X-2495963Y3165175D01*
X-2482732Y3254371D01*
X-2460822Y3341841D01*
X-2430443Y3426743D01*
X-2391890Y3508258D01*
X-2345532Y3585601D01*
X-2291816Y3658028D01*
X-2232601Y3723362D01*
X-2230606Y3724188D01*
X-2193450Y3761345D01*
X-2193397Y3761292D01*
X-2121406Y3839856D01*
X-2056537Y3924395D01*
X-1999283Y4014266D01*
X-1950079Y4108785D01*
X-1909301Y4207233D01*
X-1877258Y4308861D01*
X-1854194Y4412894D01*
X-1840285Y4518542D01*
X-1835637Y4625000D01*
X-1835637D01*
X-1835803Y4637663D01*
X-1831729Y4689419D01*
X-1816644Y4752253D01*
X-1791916Y4811953D01*
X-1758152Y4867049D01*
X-1716186Y4916186D01*
X-1667049Y4958152D01*
X-1611953Y4991916D01*
X-1552253Y5016644D01*
X-1489419Y5031729D01*
X-1427205Y5036626D01*
X-1425000Y5035712D01*
X1425000D01*
X1427205Y5036626D01*
X1489419Y5031729D01*
D02*
G37*
G36*
X-1129485Y-2718433D02*
X-1125898Y-2720918D01*
Y-2943401D01*
X-1255728D01*
X-1260756Y-2931261D01*
X-1273612Y-2918406D01*
X-1290408Y-2911448D01*
X-1308589D01*
X-1321273Y-2916702D01*
X-1328467Y-2905936D01*
X-1138598Y-2716066D01*
X-1129485Y-2718433D01*
D02*
G37*
G36*
X1300501Y-5357147D02*
X1167237D01*
X1158450Y-5348360D01*
X1137445Y-5334325D01*
X1112669Y-5329397D01*
X705859D01*
X681083Y-5334325D01*
X660078Y-5348360D01*
X651291Y-5357147D01*
X-1299499D01*
Y-2957147D01*
X-1125898D01*
Y-3025410D01*
X-1130265Y-3029778D01*
X-1135700Y-3042899D01*
Y-3057101D01*
X-1130265Y-3070222D01*
X-1120223Y-3080265D01*
X-1107101Y-3085700D01*
X-1092899D01*
X-1088598Y-3083918D01*
X-1075898Y-3092405D01*
Y-3211268D01*
X-1088743Y-3224113D01*
X-1095700Y-3240910D01*
Y-3259091D01*
X-1088743Y-3275887D01*
X-1075887Y-3288743D01*
X-1059090Y-3295700D01*
X-1040910D01*
X-1024113Y-3288743D01*
X-1011257Y-3275887D01*
X-1004300Y-3259091D01*
Y-3240910D01*
X-1011257Y-3224113D01*
X-1024102Y-3211268D01*
Y-2957147D01*
X-975897D01*
Y-3025410D01*
X-980265Y-3029778D01*
X-985700Y-3042899D01*
Y-3057101D01*
X-980265Y-3070222D01*
X-970222Y-3080265D01*
X-957261Y-3085634D01*
X-945734Y-3090859D01*
X-945700Y-3090910D01*
Y-3109090D01*
X-938743Y-3125887D01*
X-925887Y-3138743D01*
X-909090Y-3145700D01*
X-890910D01*
X-874113Y-3138743D01*
X-861257Y-3125887D01*
X-854300Y-3109090D01*
Y-3090909D01*
X-861257Y-3074113D01*
X-874102Y-3061268D01*
Y-2957147D01*
X-775898D01*
Y-3061268D01*
X-788743Y-3074113D01*
X-795700Y-3090909D01*
Y-3109090D01*
X-788743Y-3125887D01*
X-775887Y-3138743D01*
X-767298Y-3142300D01*
Y-3156047D01*
X-775887Y-3159605D01*
X-788743Y-3172460D01*
X-795700Y-3189257D01*
Y-3207438D01*
X-788743Y-3224234D01*
X-775887Y-3237090D01*
X-759090Y-3244047D01*
X-740910D01*
X-724113Y-3237090D01*
X-711268Y-3224245D01*
X-684481D01*
X-674570Y-3222273D01*
X-666168Y-3216660D01*
X-581688Y-3132179D01*
X-576074Y-3123777D01*
X-574102Y-3113867D01*
Y-3092405D01*
X-561402Y-3083918D01*
X-557101Y-3085700D01*
X-542899D01*
X-529777Y-3080265D01*
X-519735Y-3070222D01*
X-514300Y-3057101D01*
Y-3042899D01*
X-519735Y-3029778D01*
X-524102Y-3025410D01*
Y-2957147D01*
X1300501D01*
Y-5357147D01*
D02*
G37*
G36*
X-661330Y-5821799D02*
Y-5884521D01*
X-727500D01*
X-774023Y-5837999D01*
X-796022D01*
Y-5751035D01*
X-732093D01*
X-661330Y-5821799D01*
D02*
G37*
G36*
X-1339945Y-2935374D02*
X-1345199Y-2948058D01*
Y-2966239D01*
X-1338241Y-2983035D01*
X-1325386Y-2995891D01*
X-1313245Y-3000920D01*
Y-3113377D01*
X-1325386Y-3118405D01*
X-1338241Y-3131261D01*
X-1345199Y-3148058D01*
Y-3166239D01*
X-1338241Y-3183035D01*
X-1325386Y-3195891D01*
X-1313245Y-3200919D01*
Y-3313377D01*
X-1325386Y-3318405D01*
X-1338241Y-3331261D01*
X-1345199Y-3348058D01*
Y-3366238D01*
X-1338241Y-3383035D01*
X-1325386Y-3395891D01*
X-1313245Y-3400919D01*
Y-3513377D01*
X-1325386Y-3518405D01*
X-1338241Y-3531261D01*
X-1345199Y-3548057D01*
Y-3566238D01*
X-1338241Y-3583035D01*
X-1325386Y-3595890D01*
X-1313245Y-3600919D01*
Y-3713376D01*
X-1325386Y-3718405D01*
X-1338241Y-3731261D01*
X-1345199Y-3748057D01*
Y-3766238D01*
X-1338241Y-3783035D01*
X-1325386Y-3795890D01*
X-1313245Y-3800919D01*
Y-3913376D01*
X-1325386Y-3918405D01*
X-1338241Y-3931261D01*
X-1345199Y-3948057D01*
Y-3966238D01*
X-1338241Y-3983034D01*
X-1325386Y-3995890D01*
X-1313245Y-4000919D01*
Y-4113377D01*
X-1325385Y-4118406D01*
X-1338241Y-4131261D01*
X-1345198Y-4148058D01*
Y-4166239D01*
X-1338241Y-4183035D01*
X-1325385Y-4195891D01*
X-1313245Y-4200919D01*
Y-4313377D01*
X-1325385Y-4318405D01*
X-1338241Y-4331261D01*
X-1345198Y-4348058D01*
Y-4366238D01*
X-1338241Y-4383035D01*
X-1325385Y-4395891D01*
X-1313245Y-4400919D01*
Y-4513377D01*
X-1325385Y-4518405D01*
X-1338241Y-4531261D01*
X-1345198Y-4548057D01*
Y-4566238D01*
X-1338241Y-4583035D01*
X-1325385Y-4595890D01*
X-1313245Y-4600919D01*
Y-4713376D01*
X-1325385Y-4718405D01*
X-1338241Y-4731261D01*
X-1345198Y-4748057D01*
Y-4766238D01*
X-1338241Y-4783035D01*
X-1325385Y-4795890D01*
X-1313245Y-4800919D01*
Y-4913376D01*
X-1325385Y-4918405D01*
X-1338241Y-4931261D01*
X-1345198Y-4948057D01*
Y-4966238D01*
X-1338241Y-4983034D01*
X-1325385Y-4995890D01*
X-1313245Y-5000919D01*
Y-5113376D01*
X-1325385Y-5118405D01*
X-1338241Y-5131261D01*
X-1345198Y-5148057D01*
Y-5166238D01*
X-1338241Y-5183034D01*
X-1325385Y-5195890D01*
X-1313245Y-5200919D01*
Y-5313376D01*
X-1325386Y-5318405D01*
X-1338241Y-5331260D01*
X-1345199Y-5348057D01*
Y-5366238D01*
X-1338241Y-5383034D01*
X-1325386Y-5395890D01*
X-1308589Y-5402847D01*
X-1290408D01*
X-1273612Y-5395890D01*
X-1260756Y-5383034D01*
X-1255727Y-5370894D01*
X-1143270D01*
X-1138241Y-5383034D01*
X-1125386Y-5395890D01*
X-1108589Y-5402847D01*
X-1090408D01*
X-1073612Y-5395890D01*
X-1060756Y-5383034D01*
X-1055727Y-5370894D01*
X-943270D01*
X-938241Y-5383034D01*
X-925386Y-5395890D01*
X-908589Y-5402847D01*
X-890408D01*
X-873612Y-5395890D01*
X-860756Y-5383034D01*
X-855728Y-5370894D01*
X620951D01*
X625811Y-5382627D01*
X323182Y-5685256D01*
X-200000D01*
X-224777Y-5690184D01*
X-245781Y-5704219D01*
X-495780Y-5954217D01*
X-507553Y-5971837D01*
X-520253Y-5967985D01*
Y-5766826D01*
X-521731Y-5759394D01*
X-525942Y-5753092D01*
X-525943Y-5753092D01*
X-796662Y-5482372D01*
X-802963Y-5478162D01*
X-810396Y-5476683D01*
X-1263161D01*
X-1375411Y-5364432D01*
Y-2952880D01*
X-1350712Y-2928180D01*
X-1339945Y-2935374D01*
D02*
G37*
G36*
X2515909Y-6293378D02*
X2509492Y-6303657D01*
X2508871Y-6304300D01*
X2490910D01*
X2474113Y-6311257D01*
X2461257Y-6324113D01*
X2454300Y-6340910D01*
Y-6359090D01*
X2461257Y-6375887D01*
X2474113Y-6388743D01*
X2490910Y-6395700D01*
X2509090D01*
X2525887Y-6388743D01*
X2538743Y-6375887D01*
X2545700Y-6359090D01*
Y-6340910D01*
X2542134Y-6332300D01*
X2551269Y-6321168D01*
X2551863Y-6321286D01*
X2659181D01*
X2738766Y-6400871D01*
X2730796Y-6410820D01*
X2723363Y-6409342D01*
X2435777D01*
X2158558Y-6132123D01*
X2163819Y-6119423D01*
X2341954D01*
X2515909Y-6293378D01*
D02*
G37*
G36*
X2394507Y-6423008D02*
X2389646Y-6434742D01*
X2249493D01*
X2043708Y-6228957D01*
Y-6124285D01*
X2042230Y-6116852D01*
X2038020Y-6110551D01*
X1570453Y-5642985D01*
X1575714Y-5630285D01*
X1601783D01*
X2394507Y-6423008D01*
D02*
G37*
G36*
X-3642600Y-6360384D02*
X-3644685Y-6361247D01*
X-3657540Y-6374103D01*
X-3664394Y-6390649D01*
X-3834890Y-6561145D01*
X-4093161D01*
X-4109707Y-6554291D01*
X-4127888D01*
X-4144684Y-6561249D01*
X-4152621Y-6551836D01*
X-3948468Y-6347684D01*
X-3645126D01*
X-3642600Y-6360384D01*
D02*
G37*
G36*
X-3410219Y-6516441D02*
X-3410218Y-6516441D01*
X-3403917Y-6520652D01*
X-3396484Y-6522130D01*
X-3396483Y-6522130D01*
X-2874941D01*
X-2867508Y-6520652D01*
X-2861206Y-6516441D01*
X-2854988Y-6510223D01*
X-2840237D01*
X-2834617Y-6515843D01*
X-2817821Y-6522800D01*
X-2799640D01*
X-2799534Y-6522757D01*
X-2789814Y-6532477D01*
X-2793307Y-6540910D01*
Y-6559091D01*
X-2786350Y-6575887D01*
X-2773875Y-6588361D01*
X-2773963Y-6590417D01*
X-2776941Y-6601061D01*
X-3146247D01*
X-3153680Y-6602540D01*
X-3159981Y-6606750D01*
X-3239497Y-6686266D01*
X-3239497Y-6686267D01*
X-3304428Y-6751198D01*
X-3305228Y-6750867D01*
X-3319430D01*
X-3332551Y-6756301D01*
X-3342594Y-6766344D01*
X-3342925Y-6767143D01*
X-3482296D01*
X-3617405Y-6632034D01*
X-3611257Y-6625887D01*
X-3604300Y-6609090D01*
Y-6590910D01*
X-3611257Y-6574113D01*
X-3624113Y-6561257D01*
X-3640910Y-6554300D01*
X-3659090D01*
X-3675887Y-6561257D01*
X-3688743Y-6574113D01*
X-3695700Y-6590910D01*
Y-6609090D01*
X-3688743Y-6625887D01*
X-3675887Y-6638743D01*
X-3659090Y-6645700D01*
X-3658676D01*
X-3511390Y-6792986D01*
X-3516651Y-6805686D01*
X-3875109D01*
X-3882542Y-6807165D01*
X-3888843Y-6811375D01*
X-3934446Y-6856977D01*
X-3940909Y-6854300D01*
X-3959090D01*
X-3975887Y-6861257D01*
X-3988742Y-6874113D01*
X-3995700Y-6890910D01*
Y-6909090D01*
X-3988742Y-6925887D01*
X-3975887Y-6938743D01*
X-3959090Y-6945700D01*
X-3940909D01*
X-3924113Y-6938743D01*
X-3911257Y-6925887D01*
X-3904300Y-6909090D01*
Y-6890910D01*
X-3906977Y-6884446D01*
X-3867064Y-6844532D01*
X-3610746D01*
X-3609495Y-6857232D01*
X-3621828Y-6859686D01*
X-3634431Y-6868107D01*
X-3727469Y-6961144D01*
X-3735889Y-6973747D01*
X-3738846Y-6988613D01*
Y-7183909D01*
X-4016091Y-7461153D01*
X-4336253D01*
Y-7250000D01*
X-4340280Y-7240280D01*
X-4350000Y-7236253D01*
X-4361154D01*
Y-6897285D01*
X-4109456Y-6645587D01*
X-4093161Y-6638838D01*
X-3818799D01*
X-3803933Y-6635881D01*
X-3791330Y-6627460D01*
X-3609457Y-6445586D01*
X-3592911Y-6438733D01*
X-3580055Y-6425877D01*
X-3573098Y-6409080D01*
Y-6390900D01*
X-3580055Y-6374103D01*
X-3592911Y-6361247D01*
X-3594996Y-6360384D01*
X-3592469Y-6347684D01*
X-3578976D01*
X-3410219Y-6516441D01*
D02*
G37*
G36*
X372912Y-6150380D02*
X885466Y-6662934D01*
X891767Y-6667145D01*
X899200Y-6668623D01*
X2660077D01*
X2667510Y-6667145D01*
X2673812Y-6662934D01*
X2767317Y-6569429D01*
X2793183D01*
X2798443Y-6582129D01*
X2719706Y-6660866D01*
X2599995Y-6780577D01*
X958046D01*
X336813Y-6159344D01*
X336812Y-6159344D01*
X184090Y-6006622D01*
X190509Y-5996342D01*
X191129Y-5995700D01*
X209091D01*
X215554Y-5993023D01*
X372912Y-6150380D01*
D02*
G37*
G36*
X-500000Y-7200000D02*
X-575733Y-7275733D01*
X-633907D01*
X-633908Y-7191931D01*
X-591976Y-7150000D01*
X-500000D01*
Y-7200000D01*
D02*
G37*
%LPC*%
G36*
X-40911Y3995699D02*
X-59092D01*
X-75888Y3988742D01*
X-88744Y3975886D01*
X-93128Y3965302D01*
X-106875D01*
X-111259Y3975886D01*
X-124115Y3988742D01*
X-140911Y3995699D01*
X-159092D01*
X-175888Y3988742D01*
X-188744Y3975886D01*
X-193128Y3965303D01*
X-206875D01*
X-211258Y3975886D01*
X-224114Y3988742D01*
X-240911Y3995699D01*
X-259091D01*
X-275888Y3988742D01*
X-288744Y3975886D01*
X-295701Y3959090D01*
Y3940909D01*
X-288744Y3924113D01*
X-275888Y3911257D01*
X-265304Y3906873D01*
Y3893126D01*
X-275888Y3888742D01*
X-288744Y3875886D01*
X-295701Y3859090D01*
Y3840909D01*
X-288744Y3824112D01*
X-275888Y3811257D01*
X-259092Y3804299D01*
X-240911D01*
X-224115Y3811257D01*
X-211259Y3824112D01*
X-206874Y3834698D01*
X-193128D01*
X-188743Y3824112D01*
X-175887Y3811257D01*
X-159091Y3804299D01*
X-140910D01*
X-124114Y3811257D01*
X-111258Y3824112D01*
X-106874Y3834697D01*
X-93127D01*
X-88743Y3824113D01*
X-75887Y3811257D01*
X-59091Y3804300D01*
X-40910D01*
X-24113Y3811257D01*
X-11258Y3824113D01*
X-4300Y3840909D01*
Y3859090D01*
X-11258Y3875887D01*
X-24113Y3888742D01*
X-34698Y3893127D01*
Y3906873D01*
X-24115Y3911257D01*
X-11259Y3924113D01*
X-4301Y3940909D01*
Y3959090D01*
X-11259Y3975886D01*
X-24115Y3988742D01*
X-40911Y3995699D01*
D02*
G37*
G36*
X509591Y3863552D02*
X491410D01*
X474614Y3856595D01*
X461758Y3843739D01*
X457374Y3833156D01*
X443628D01*
X439244Y3843738D01*
X426389Y3856594D01*
X409592Y3863551D01*
X391411D01*
X374615Y3856594D01*
X361759Y3843738D01*
X354802Y3826942D01*
Y3808761D01*
X361759Y3791964D01*
X374615Y3779109D01*
X391411Y3772151D01*
X409592D01*
X426389Y3779109D01*
X439244Y3791964D01*
X443628Y3802548D01*
X457374D01*
X461758Y3791965D01*
X474614Y3779110D01*
X491410Y3772152D01*
X509591D01*
X526388Y3779110D01*
X539243Y3791965D01*
X543628Y3802550D01*
X557374D01*
X561759Y3791965D01*
X574615Y3779109D01*
X591411Y3772152D01*
X609592D01*
X626388Y3779109D01*
X639244Y3791965D01*
X646201Y3808761D01*
Y3826942D01*
X639244Y3843739D01*
X626388Y3856595D01*
X609592Y3863552D01*
X591411D01*
X574615Y3856595D01*
X561759Y3843739D01*
X557374Y3833154D01*
X543628D01*
X539243Y3843739D01*
X526388Y3856595D01*
X509591Y3863552D01*
D02*
G37*
G36*
X359591Y3663552D02*
X341411D01*
X324614Y3656594D01*
X311758Y3643739D01*
X304801Y3626942D01*
Y3608761D01*
X311758Y3591965D01*
X324614Y3579109D01*
X341411Y3572152D01*
X359591D01*
X376388Y3579109D01*
X389244Y3591965D01*
X396201Y3608761D01*
Y3626942D01*
X389244Y3643739D01*
X376388Y3656594D01*
X359591Y3663552D01*
D02*
G37*
G36*
X307357Y3471467D02*
X293155D01*
X280034Y3466032D01*
X269991Y3455990D01*
X264556Y3442868D01*
Y3428666D01*
X269991Y3415545D01*
X280034Y3405502D01*
X280833Y3405171D01*
Y2793779D01*
X282312Y2786346D01*
X286522Y2780045D01*
X403076Y2663490D01*
Y2341420D01*
X396613Y2338743D01*
X383757Y2325887D01*
X376800Y2309091D01*
Y2290910D01*
X383757Y2274113D01*
X396613Y2261258D01*
X413409Y2254300D01*
X431590D01*
X448386Y2261258D01*
X461242Y2274113D01*
X468199Y2290910D01*
Y2309091D01*
X461242Y2325887D01*
X448386Y2338743D01*
X441923Y2341420D01*
Y2671536D01*
X440444Y2678969D01*
X436234Y2685270D01*
X319679Y2801825D01*
Y3405171D01*
X320479Y3405502D01*
X330521Y3415545D01*
X335956Y3428666D01*
Y3442868D01*
X330521Y3455990D01*
X320479Y3466032D01*
X307357Y3471467D01*
D02*
G37*
G36*
X-639051Y1012700D02*
X-680949D01*
X-722042Y1004526D01*
X-760751Y988492D01*
X-795588Y965215D01*
X-825215Y935588D01*
X-848492Y900751D01*
X-864526Y862042D01*
X-872700Y820949D01*
Y779051D01*
X-864526Y737958D01*
X-848492Y699249D01*
X-825215Y664412D01*
X-795588Y634785D01*
X-760751Y611508D01*
X-722042Y595474D01*
X-680949Y587300D01*
X-639051D01*
X-597958Y595474D01*
X-559249Y611508D01*
X-524412Y634785D01*
X-494785Y664412D01*
X-471508Y699249D01*
X-455474Y737958D01*
X-447300Y779051D01*
Y820949D01*
X-455474Y862042D01*
X-471508Y900751D01*
X-494785Y935588D01*
X-524412Y965215D01*
X-559249Y988492D01*
X-597958Y1004526D01*
X-639051Y1012700D01*
D02*
G37*
G36*
X680949Y1012700D02*
X639051D01*
X597958Y1004526D01*
X559249Y988492D01*
X524412Y965214D01*
X494785Y935588D01*
X471508Y900751D01*
X455474Y862042D01*
X447300Y820949D01*
Y779051D01*
X455474Y737957D01*
X471508Y699249D01*
X494785Y664411D01*
X524412Y634785D01*
X559249Y611508D01*
X597958Y595474D01*
X639051Y587300D01*
X680949D01*
X722042Y595474D01*
X760751Y611508D01*
X795588Y634785D01*
X825215Y664411D01*
X848492Y699249D01*
X864526Y737957D01*
X872700Y779051D01*
Y820949D01*
X864526Y862042D01*
X848492Y900751D01*
X825215Y935588D01*
X795588Y965214D01*
X760751Y988492D01*
X722042Y1004526D01*
X680949Y1012700D01*
D02*
G37*
G36*
X-40909Y45700D02*
X-59090D01*
X-75887Y38743D01*
X-88743Y25887D01*
X-93127Y15302D01*
X-106874D01*
X-111258Y25887D01*
X-124114Y38743D01*
X-140910Y45700D01*
X-159091D01*
X-175887Y38743D01*
X-188743Y25887D01*
X-193127Y15303D01*
X-206874D01*
X-211257Y25887D01*
X-224113Y38743D01*
X-240910Y45700D01*
X-259090D01*
X-275887Y38743D01*
X-288743Y25887D01*
X-295700Y9090D01*
Y-9090D01*
X-288743Y-25887D01*
X-275887Y-38743D01*
X-265302Y-43127D01*
Y-56873D01*
X-275887Y-61257D01*
X-288742Y-74113D01*
X-295700Y-90910D01*
Y-109090D01*
X-288742Y-125887D01*
X-275887Y-138743D01*
X-259090Y-145700D01*
X-240909D01*
X-224113Y-138743D01*
X-211257Y-125887D01*
X-206873Y-115303D01*
X-193126D01*
X-188742Y-125887D01*
X-175887Y-138743D01*
X-159090Y-145700D01*
X-140909D01*
X-124113Y-138743D01*
X-111257Y-125887D01*
X-106873Y-115302D01*
X-93126D01*
X-88742Y-125887D01*
X-75886Y-138742D01*
X-59090Y-145700D01*
X-40909D01*
X-24112Y-138742D01*
X-11257Y-125887D01*
X-4299Y-109090D01*
Y-90909D01*
X-11257Y-74113D01*
X-24112Y-61257D01*
X-34697Y-56873D01*
Y-43127D01*
X-24113Y-38743D01*
X-11257Y-25887D01*
X-4300Y-9090D01*
Y9090D01*
X-11257Y25887D01*
X-24113Y38743D01*
X-40909Y45700D01*
D02*
G37*
G36*
X804508Y-532471D02*
X786327D01*
X769531Y-539428D01*
X758016Y-550942D01*
X750750Y-551681D01*
X743484Y-550942D01*
X731970Y-539428D01*
X715173Y-532471D01*
X696993D01*
X680196Y-539428D01*
X667340Y-552284D01*
X660383Y-569080D01*
Y-587261D01*
X667340Y-604057D01*
X678855Y-615572D01*
X679594Y-622837D01*
X678855Y-630104D01*
X667341Y-641618D01*
X660383Y-658415D01*
Y-676596D01*
X667341Y-693392D01*
X680197Y-706248D01*
X696993Y-713205D01*
X715174D01*
X731970Y-706248D01*
X743485Y-694734D01*
X750751Y-693995D01*
X758017Y-694734D01*
X768190Y-704907D01*
X768929Y-712172D01*
X768190Y-719439D01*
X756676Y-730953D01*
X749719Y-747750D01*
Y-765931D01*
X756676Y-782727D01*
X769532Y-795583D01*
X786328Y-802540D01*
X804509D01*
X821305Y-795583D01*
X834161Y-782727D01*
X841118Y-765931D01*
Y-747750D01*
X834161Y-730953D01*
X822647Y-719439D01*
X821908Y-712174D01*
X822646Y-704907D01*
X834161Y-693392D01*
X841118Y-676596D01*
Y-658415D01*
X834161Y-641618D01*
X822646Y-630104D01*
X821907Y-622839D01*
X822646Y-615572D01*
X834160Y-604057D01*
X841117Y-587261D01*
Y-569080D01*
X834160Y-552284D01*
X821304Y-539428D01*
X804508Y-532471D01*
D02*
G37*
G36*
X-1040910Y-604300D02*
X-1059090D01*
X-1075887Y-611257D01*
X-1088743Y-624113D01*
X-1093127Y-634697D01*
X-1106873D01*
X-1111257Y-624113D01*
X-1124113Y-611257D01*
X-1140910Y-604300D01*
X-1159090D01*
X-1175887Y-611257D01*
X-1188743Y-624113D01*
X-1195700Y-640910D01*
Y-659090D01*
X-1188743Y-675887D01*
X-1175887Y-688743D01*
X-1165302Y-693127D01*
Y-706873D01*
X-1175887Y-711257D01*
X-1188743Y-724113D01*
X-1195700Y-740910D01*
Y-759090D01*
X-1188743Y-775887D01*
X-1175887Y-788743D01*
X-1165302Y-793127D01*
Y-806873D01*
X-1175887Y-811257D01*
X-1188743Y-824113D01*
X-1195700Y-840910D01*
Y-859090D01*
X-1188743Y-875887D01*
X-1175887Y-888743D01*
X-1159090Y-895700D01*
X-1140910D01*
X-1124113Y-888743D01*
X-1111257Y-875887D01*
X-1106873Y-865303D01*
X-1093127D01*
X-1088743Y-875887D01*
X-1075887Y-888743D01*
X-1059090Y-895700D01*
X-1040910D01*
X-1024113Y-888743D01*
X-1011257Y-875887D01*
X-1004300Y-859090D01*
Y-840910D01*
X-1011257Y-824113D01*
X-1024113Y-811257D01*
X-1034697Y-806873D01*
Y-793127D01*
X-1024113Y-788743D01*
X-1011257Y-775887D01*
X-1004300Y-759090D01*
Y-740910D01*
X-1011257Y-724113D01*
X-1024113Y-711257D01*
X-1034697Y-706873D01*
Y-693127D01*
X-1024113Y-688743D01*
X-1011257Y-675887D01*
X-1004300Y-659090D01*
Y-640910D01*
X-1011257Y-624113D01*
X-1024113Y-611257D01*
X-1040910Y-604300D01*
D02*
G37*
G36*
X-415909Y-2579300D02*
X-434090D01*
X-450887Y-2586257D01*
X-463742Y-2599113D01*
X-470700Y-2615910D01*
Y-2634090D01*
X-463742Y-2650887D01*
X-452129Y-2662500D01*
X-463743Y-2674113D01*
X-470700Y-2690910D01*
Y-2709091D01*
X-463743Y-2725887D01*
X-450887Y-2738743D01*
X-434090Y-2745700D01*
X-415910D01*
X-399113Y-2738743D01*
X-386257Y-2725887D01*
X-379300Y-2709091D01*
Y-2690910D01*
X-386257Y-2674113D01*
X-397870Y-2662500D01*
X-386257Y-2650887D01*
X-379300Y-2634090D01*
Y-2615910D01*
X-386257Y-2599113D01*
X-399113Y-2586257D01*
X-415909Y-2579300D01*
D02*
G37*
G36*
X-5537000Y-6228671D02*
X-5612300D01*
Y-6352300D01*
X-5488671D01*
Y-6277000D01*
X-5492350Y-6258505D01*
X-5502826Y-6242826D01*
X-5518505Y-6232350D01*
X-5537000Y-6228671D01*
D02*
G37*
G36*
X-5637700D02*
X-5713000D01*
X-5731495Y-6232350D01*
X-5747173Y-6242826D01*
X-5757650Y-6258505D01*
X-5761329Y-6277000D01*
Y-6352300D01*
X-5637700D01*
Y-6228671D01*
D02*
G37*
G36*
X4700000Y-6385699D02*
X4691561Y-6386252D01*
X4667230Y-6386252D01*
X4666353Y-6386615D01*
X4665435Y-6386370D01*
X4641308Y-6389546D01*
X4632870Y-6390099D01*
X4624576Y-6391749D01*
X4600453Y-6394925D01*
X4599630Y-6395400D01*
X4598689Y-6395276D01*
X4575185Y-6401573D01*
X4566889Y-6403224D01*
X4558879Y-6405942D01*
X4535379Y-6412239D01*
X4534626Y-6412818D01*
X4533676D01*
X4511201Y-6422127D01*
X4503186Y-6424848D01*
X4495594Y-6428592D01*
X4473122Y-6437900D01*
X4472451Y-6438571D01*
X4471509Y-6438695D01*
X4450443Y-6450858D01*
X4442849Y-6454603D01*
X4435810Y-6459306D01*
X4414747Y-6471467D01*
X4414169Y-6472220D01*
X4413252Y-6472466D01*
X4393954Y-6487274D01*
X4386914Y-6491978D01*
X4380547Y-6497561D01*
X4361253Y-6512366D01*
X4360778Y-6513188D01*
X4359901Y-6513552D01*
X4342703Y-6530749D01*
X4336334Y-6536334D01*
X4330750Y-6542702D01*
X4313554Y-6559898D01*
X4313191Y-6560775D01*
X4312369Y-6561250D01*
X4297565Y-6580543D01*
X4291978Y-6586914D01*
X4287270Y-6593959D01*
X4272468Y-6613249D01*
X4272223Y-6614166D01*
X4271469Y-6614744D01*
X4259313Y-6635800D01*
X4254602Y-6642850D01*
X4250852Y-6650454D01*
X4238698Y-6671506D01*
X4238574Y-6672448D01*
X4237902Y-6673119D01*
X4228600Y-6695578D01*
X4224848Y-6703186D01*
X4222121Y-6711218D01*
X4212820Y-6733673D01*
Y-6734623D01*
X4212242Y-6735376D01*
X4205950Y-6758857D01*
X4203223Y-6766889D01*
X4201569Y-6775208D01*
X4195278Y-6798686D01*
X4195402Y-6799627D01*
X4194927Y-6800450D01*
X4191754Y-6824548D01*
X4190099Y-6832871D01*
X4189544Y-6841337D01*
X4186372Y-6865433D01*
X4186617Y-6866350D01*
X4186254Y-6867227D01*
X4186255Y-6891526D01*
X4185699Y-6900000D01*
X4186255Y-6908474D01*
X4186254Y-6932770D01*
X4186617Y-6933648D01*
X4186372Y-6934564D01*
X4189544Y-6958658D01*
X4190099Y-6967130D01*
X4191755Y-6975455D01*
X4194927Y-6999548D01*
X4195402Y-7000370D01*
X4195278Y-7001311D01*
X4201567Y-7024784D01*
X4203223Y-7033111D01*
X4205952Y-7041151D01*
X4212242Y-7064622D01*
X4212820Y-7065375D01*
Y-7066324D01*
X4222118Y-7088772D01*
X4224848Y-7096815D01*
X4228604Y-7104433D01*
X4237902Y-7126879D01*
X4238573Y-7127550D01*
X4238697Y-7128491D01*
X4250845Y-7149532D01*
X4254602Y-7157151D01*
X4259322Y-7164214D01*
X4271469Y-7185254D01*
X4272222Y-7185832D01*
X4272468Y-7186749D01*
X4287258Y-7206023D01*
X4291978Y-7213087D01*
X4297579Y-7219474D01*
X4312369Y-7238748D01*
X4313191Y-7239223D01*
X4313554Y-7240100D01*
X4330733Y-7257278D01*
X4336334Y-7263666D01*
X4342722Y-7269268D01*
X4359901Y-7286446D01*
X4360778Y-7286810D01*
X4361253Y-7287632D01*
X4380526Y-7302421D01*
X4386914Y-7308022D01*
X4393979Y-7312744D01*
X4413252Y-7327532D01*
X4414169Y-7327778D01*
X4414747Y-7328531D01*
X4435781Y-7340675D01*
X4442849Y-7345398D01*
X4450475Y-7349159D01*
X4471509Y-7361303D01*
X4472451Y-7361426D01*
X4473122Y-7362098D01*
X4495560Y-7371392D01*
X4503186Y-7375152D01*
X4511238Y-7377886D01*
X4533677Y-7387180D01*
X4534626D01*
X4535380Y-7387758D01*
X4558838Y-7394044D01*
X4566889Y-7396777D01*
X4575229Y-7398436D01*
X4598690Y-7404722D01*
X4599631Y-7404598D01*
X4600454Y-7405073D01*
X4624530Y-7408242D01*
X4632870Y-7409901D01*
X4641357Y-7410457D01*
X4665436Y-7413627D01*
X4666353Y-7413382D01*
X4667231Y-7413745D01*
X4691511Y-7413745D01*
X4700000Y-7414301D01*
X4708488Y-7413745D01*
X4732774Y-7413745D01*
X4733651Y-7413382D01*
X4734568Y-7413628D01*
X4758658Y-7410456D01*
X4767130Y-7409901D01*
X4775452Y-7408246D01*
X4799551Y-7405073D01*
X4800373Y-7404599D01*
X4801315Y-7404723D01*
X4824801Y-7398430D01*
X4833111Y-7396777D01*
X4841132Y-7394054D01*
X4864625Y-7387759D01*
X4865378Y-7387181D01*
X4866328D01*
X4888802Y-7377872D01*
X4896814Y-7375152D01*
X4904402Y-7371410D01*
X4926882Y-7362099D01*
X4927554Y-7361428D01*
X4928495Y-7361304D01*
X4949569Y-7349136D01*
X4957151Y-7345398D01*
X4964178Y-7340702D01*
X4985257Y-7328532D01*
X4985835Y-7327779D01*
X4986752Y-7327533D01*
X5006065Y-7312714D01*
X5013086Y-7308022D01*
X5019435Y-7302455D01*
X5038752Y-7287633D01*
X5039226Y-7286811D01*
X5040104Y-7286447D01*
X5057320Y-7269231D01*
X5063666Y-7263666D01*
X5069230Y-7257321D01*
X5086450Y-7240101D01*
X5086813Y-7239224D01*
X5087635Y-7238749D01*
X5102459Y-7219430D01*
X5108022Y-7213087D01*
X5112710Y-7206071D01*
X5127536Y-7186750D01*
X5127781Y-7185833D01*
X5128535Y-7185255D01*
X5140709Y-7164167D01*
X5145398Y-7157151D01*
X5149131Y-7149581D01*
X5161306Y-7128492D01*
X5161430Y-7127551D01*
X5162101Y-7126880D01*
X5171418Y-7104388D01*
X5175152Y-7096815D01*
X5177867Y-7088818D01*
X5187183Y-7066325D01*
Y-7065376D01*
X5187761Y-7064622D01*
X5194060Y-7041112D01*
X5196776Y-7033111D01*
X5198425Y-7024821D01*
X5204724Y-7001312D01*
X5204600Y-7000371D01*
X5205075Y-6999548D01*
X5208250Y-6975428D01*
X5209901Y-6967130D01*
X5210455Y-6958684D01*
X5213629Y-6934566D01*
X5213384Y-6933649D01*
X5213747Y-6932771D01*
X5213747Y-6908458D01*
X5214301Y-6900000D01*
X5213747Y-6891543D01*
X5213747Y-6867228D01*
X5213384Y-6866351D01*
X5213629Y-6865434D01*
X5210455Y-6841317D01*
X5209901Y-6832871D01*
X5208250Y-6824570D01*
X5205075Y-6800451D01*
X5204600Y-6799629D01*
X5204724Y-6798687D01*
X5198426Y-6775184D01*
X5196776Y-6766889D01*
X5194059Y-6758883D01*
X5187761Y-6735377D01*
X5187183Y-6734624D01*
Y-6733674D01*
X5177868Y-6711186D01*
X5175152Y-6703186D01*
X5171416Y-6695610D01*
X5162101Y-6673120D01*
X5161429Y-6672448D01*
X5161305Y-6671507D01*
X5149132Y-6650422D01*
X5145398Y-6642850D01*
X5140708Y-6635830D01*
X5128534Y-6614744D01*
X5127781Y-6614166D01*
X5127535Y-6613249D01*
X5112709Y-6593928D01*
X5108022Y-6586914D01*
X5102460Y-6580571D01*
X5087634Y-6561250D01*
X5086812Y-6560775D01*
X5086449Y-6559898D01*
X5069228Y-6542677D01*
X5063666Y-6536334D01*
X5057324Y-6530773D01*
X5040103Y-6513551D01*
X5039225Y-6513188D01*
X5038751Y-6512366D01*
X5019428Y-6497539D01*
X5013086Y-6491978D01*
X5006074Y-6487292D01*
X4986752Y-6472466D01*
X4985835Y-6472220D01*
X4985256Y-6471467D01*
X4964165Y-6459289D01*
X4957151Y-6454603D01*
X4949584Y-6450871D01*
X4928494Y-6438695D01*
X4927553Y-6438571D01*
X4926881Y-6437899D01*
X4904382Y-6428580D01*
X4896814Y-6424848D01*
X4888823Y-6422135D01*
X4866327Y-6412817D01*
X4865378D01*
X4864625Y-6412239D01*
X4841104Y-6405937D01*
X4833111Y-6403224D01*
X4824833Y-6401577D01*
X4801314Y-6395275D01*
X4800372Y-6395399D01*
X4799550Y-6394924D01*
X4775413Y-6391747D01*
X4767130Y-6390099D01*
X4758700Y-6389547D01*
X4734568Y-6386370D01*
X4733651Y-6386615D01*
X4732773Y-6386252D01*
X4708439Y-6386252D01*
X4700000Y-6385699D01*
D02*
G37*
G36*
X-4765000Y-6351673D02*
X-4865000D01*
X-4883979Y-6354171D01*
X-4901664Y-6361497D01*
X-4916850Y-6373150D01*
X-4928503Y-6388336D01*
X-4935829Y-6406021D01*
X-4938327Y-6425000D01*
X-4935829Y-6443978D01*
X-4928503Y-6461663D01*
X-4916850Y-6476850D01*
X-4901664Y-6488503D01*
X-4883979Y-6495829D01*
X-4865000Y-6498327D01*
X-4765000D01*
X-4746021Y-6495829D01*
X-4728336Y-6488503D01*
X-4713150Y-6476850D01*
X-4701497Y-6461663D01*
X-4694171Y-6443978D01*
X-4691673Y-6425000D01*
X-4694171Y-6406021D01*
X-4701497Y-6388336D01*
X-4713150Y-6373150D01*
X-4728336Y-6361497D01*
X-4746021Y-6354171D01*
X-4765000Y-6351673D01*
D02*
G37*
G36*
X-5488671Y-6377700D02*
X-5612300D01*
Y-6501329D01*
X-5537000D01*
X-5518505Y-6497650D01*
X-5502826Y-6487173D01*
X-5492350Y-6471495D01*
X-5488671Y-6453000D01*
Y-6377700D01*
D02*
G37*
G36*
X-5637700D02*
X-5761329D01*
Y-6453000D01*
X-5757650Y-6471495D01*
X-5747173Y-6487173D01*
X-5731495Y-6497650D01*
X-5713000Y-6501329D01*
X-5637700D01*
Y-6377700D01*
D02*
G37*
G36*
X-4965000Y-6478863D02*
X-5002299D01*
Y-6552300D01*
X-4880535D01*
X-4881798Y-6542706D01*
X-4890403Y-6521932D01*
X-4904092Y-6504092D01*
X-4921931Y-6490404D01*
X-4942706Y-6481798D01*
X-4965000Y-6478863D01*
D02*
G37*
G36*
X-5027699D02*
X-5065000D01*
X-5087294Y-6481798D01*
X-5108068Y-6490404D01*
X-5125908Y-6504092D01*
X-5139597Y-6521932D01*
X-5148202Y-6542706D01*
X-5149465Y-6552300D01*
X-5027699D01*
Y-6478863D01*
D02*
G37*
G36*
X3657619Y-6532034D02*
X3639438D01*
X3622641Y-6538992D01*
X3609786Y-6551847D01*
X3602828Y-6568644D01*
Y-6586825D01*
X3609786Y-6603621D01*
X3622641Y-6616477D01*
X3639438Y-6623434D01*
X3657619D01*
X3674415Y-6616477D01*
X3687271Y-6603621D01*
X3694228Y-6586825D01*
Y-6568644D01*
X3687271Y-6551847D01*
X3674415Y-6538992D01*
X3657619Y-6532034D01*
D02*
G37*
G36*
X-4880535Y-6577700D02*
X-5002299D01*
Y-6651137D01*
X-4965000D01*
X-4942706Y-6648202D01*
X-4921931Y-6639597D01*
X-4904092Y-6625908D01*
X-4890403Y-6608068D01*
X-4881798Y-6587294D01*
X-4880535Y-6577700D01*
D02*
G37*
G36*
X-5027699D02*
X-5149465D01*
X-5148202Y-6587294D01*
X-5139597Y-6608068D01*
X-5125908Y-6625908D01*
X-5108068Y-6639597D01*
X-5087294Y-6648202D01*
X-5065000Y-6651137D01*
X-5027699D01*
Y-6577700D01*
D02*
G37*
G36*
X339094Y-6679229D02*
X320913D01*
X304117Y-6686186D01*
X291261Y-6699042D01*
X284304Y-6715838D01*
Y-6734019D01*
X291261Y-6750816D01*
X304117Y-6763672D01*
X320913Y-6770629D01*
X339094D01*
X355891Y-6763672D01*
X368746Y-6750816D01*
X375704Y-6734019D01*
Y-6715838D01*
X368746Y-6699042D01*
X355891Y-6686186D01*
X339094Y-6679229D01*
D02*
G37*
G36*
X-4765000Y-6641673D02*
X-4865000D01*
X-4883979Y-6644171D01*
X-4901664Y-6651497D01*
X-4916850Y-6663150D01*
X-4928503Y-6678336D01*
X-4935829Y-6696022D01*
X-4938327Y-6715000D01*
X-4935829Y-6733978D01*
X-4928503Y-6751664D01*
X-4916850Y-6766850D01*
X-4901664Y-6778503D01*
X-4883979Y-6785829D01*
X-4865000Y-6788327D01*
X-4765000D01*
X-4746021Y-6785829D01*
X-4728336Y-6778503D01*
X-4713150Y-6766850D01*
X-4701497Y-6751664D01*
X-4694171Y-6733978D01*
X-4691673Y-6715000D01*
X-4694171Y-6696022D01*
X-4701497Y-6678336D01*
X-4713150Y-6663150D01*
X-4728336Y-6651497D01*
X-4746021Y-6644171D01*
X-4765000Y-6641673D01*
D02*
G37*
G36*
X3467877Y-6844672D02*
X3453675D01*
X3440554Y-6850106D01*
X3430511Y-6860149D01*
X3425076Y-6873270D01*
Y-6887473D01*
X3430511Y-6900594D01*
X3440554Y-6910637D01*
X3453675Y-6916072D01*
X3467877D01*
X3480999Y-6910637D01*
X3491041Y-6900594D01*
X3496476Y-6887473D01*
Y-6873270D01*
X3491041Y-6860149D01*
X3480999Y-6850106D01*
X3467877Y-6844672D01*
D02*
G37*
G36*
X-4782300Y-6810535D02*
Y-6932300D01*
X-4708863D01*
Y-6895000D01*
X-4711798Y-6872706D01*
X-4720404Y-6851931D01*
X-4734092Y-6834092D01*
X-4751932Y-6820403D01*
X-4772706Y-6811798D01*
X-4782300Y-6810535D01*
D02*
G37*
G36*
X-4807700D02*
X-4817294Y-6811798D01*
X-4838069Y-6820403D01*
X-4855908Y-6834092D01*
X-4869597Y-6851931D01*
X-4878202Y-6872706D01*
X-4881137Y-6895000D01*
Y-6932300D01*
X-4807700D01*
Y-6810535D01*
D02*
G37*
G36*
X-570908Y-6749239D02*
X-589089D01*
X-605886Y-6756196D01*
X-618741Y-6769052D01*
X-625699Y-6785848D01*
Y-6804029D01*
X-618741Y-6820826D01*
X-605886Y-6833681D01*
X-595302Y-6838065D01*
Y-6851812D01*
X-605886Y-6856196D01*
X-618742Y-6869052D01*
X-625699Y-6885848D01*
Y-6904029D01*
X-618742Y-6920825D01*
X-605886Y-6933681D01*
X-589089Y-6940638D01*
X-570909D01*
X-554112Y-6933681D01*
X-541256Y-6920825D01*
X-534299Y-6904029D01*
Y-6885848D01*
X-541256Y-6869052D01*
X-554112Y-6856196D01*
X-564696Y-6851812D01*
Y-6838065D01*
X-554112Y-6833681D01*
X-541256Y-6820826D01*
X-534299Y-6804029D01*
Y-6785848D01*
X-541256Y-6769052D01*
X-554112Y-6756196D01*
X-570908Y-6749239D01*
D02*
G37*
G36*
X-5116087Y-6807300D02*
X-5133913D01*
X-5151131Y-6811914D01*
X-5166569Y-6820827D01*
X-5179173Y-6833431D01*
X-5188086Y-6848869D01*
X-5192700Y-6866087D01*
Y-6883913D01*
X-5188086Y-6901131D01*
X-5179173Y-6916569D01*
X-5166569Y-6929173D01*
X-5151131Y-6938086D01*
X-5133913Y-6942700D01*
X-5116087D01*
X-5098869Y-6938086D01*
X-5083431Y-6929173D01*
X-5070827Y-6916569D01*
X-5061914Y-6901131D01*
X-5057300Y-6883913D01*
Y-6866087D01*
X-5061914Y-6848869D01*
X-5070827Y-6833431D01*
X-5083431Y-6820827D01*
X-5098869Y-6811914D01*
X-5116087Y-6807300D01*
D02*
G37*
G36*
X-5616087D02*
X-5633913D01*
X-5651131Y-6811914D01*
X-5666569Y-6820827D01*
X-5679173Y-6833431D01*
X-5688086Y-6848869D01*
X-5692700Y-6866087D01*
Y-6883913D01*
X-5688086Y-6901131D01*
X-5679173Y-6916569D01*
X-5666569Y-6929173D01*
X-5651131Y-6938086D01*
X-5633913Y-6942700D01*
X-5616087D01*
X-5598869Y-6938086D01*
X-5583431Y-6929173D01*
X-5570827Y-6916569D01*
X-5561914Y-6901131D01*
X-5557300Y-6883913D01*
Y-6866087D01*
X-5561914Y-6848869D01*
X-5570827Y-6833431D01*
X-5583431Y-6820827D01*
X-5598869Y-6811914D01*
X-5616087Y-6807300D01*
D02*
G37*
G36*
X3809090Y-6904300D02*
X3790910D01*
X3774113Y-6911257D01*
X3761257Y-6924113D01*
X3758580Y-6930577D01*
X3287404D01*
X3279971Y-6932055D01*
X3273670Y-6936266D01*
X3141066Y-7068870D01*
X2461707D01*
X2454274Y-7070349D01*
X2447972Y-7074559D01*
X2091954Y-7430577D01*
X1200001D01*
X1200000Y-7430577D01*
X1192567Y-7432055D01*
X1186266Y-7436266D01*
X906742Y-7715789D01*
X-879175D01*
X-886608Y-7717268D01*
X-892909Y-7721478D01*
X-892910Y-7721479D01*
X-1563734Y-8392303D01*
X-1567944Y-8398604D01*
X-1569423Y-8406037D01*
Y-8958581D01*
X-1575887Y-8961258D01*
X-1588742Y-8974114D01*
X-1595700Y-8990910D01*
Y-9009091D01*
X-1588742Y-9025888D01*
X-1575887Y-9038743D01*
X-1559090Y-9045701D01*
X-1540909D01*
X-1524113Y-9038743D01*
X-1511257Y-9025888D01*
X-1504300Y-9009091D01*
Y-8990910D01*
X-1511257Y-8974114D01*
X-1524113Y-8961258D01*
X-1530577Y-8958581D01*
Y-8414083D01*
X-1058400Y-7941906D01*
X-1045700Y-7947167D01*
Y-7959090D01*
X-1038743Y-7975887D01*
X-1025887Y-7988742D01*
X-1009090Y-7995700D01*
X-990910D01*
X-974113Y-7988742D01*
X-961257Y-7975887D01*
X-958580Y-7969423D01*
X-450000D01*
X-442567Y-7967945D01*
X-436266Y-7963734D01*
X-291955Y-7819423D01*
X541954D01*
X813200Y-8090668D01*
X813200Y-8090669D01*
X819502Y-8094879D01*
X826935Y-8096358D01*
X826936Y-8096358D01*
X1848534D01*
X1855967Y-8094879D01*
X1862268Y-8090669D01*
X2388635Y-7564302D01*
X2745870D01*
X2753303Y-7562824D01*
X2759604Y-7558613D01*
X2992948Y-7325269D01*
X3155756D01*
X3163189Y-7323791D01*
X3169490Y-7319580D01*
X3387687Y-7101384D01*
X3419900D01*
X3427333Y-7099906D01*
X3433634Y-7095695D01*
X3456772Y-7072558D01*
X3638705D01*
X3669376Y-7103229D01*
X3675678Y-7107439D01*
X3683111Y-7108918D01*
X3683112Y-7108918D01*
X3765328D01*
X4080577Y-7424167D01*
Y-7558580D01*
X4074113Y-7561257D01*
X4061257Y-7574113D01*
X4054300Y-7590910D01*
Y-7609090D01*
X4061257Y-7625887D01*
X4074113Y-7638743D01*
X4090910Y-7645700D01*
X4109090D01*
X4125887Y-7638743D01*
X4138743Y-7625887D01*
X4145700Y-7609090D01*
Y-7590910D01*
X4138743Y-7574113D01*
X4125887Y-7561257D01*
X4119423Y-7558580D01*
Y-7416121D01*
X4117945Y-7408689D01*
X4113734Y-7402387D01*
X4113733Y-7402387D01*
X3787107Y-7075760D01*
X3780806Y-7071550D01*
X3773373Y-7070071D01*
X3738781D01*
X3733521Y-7057371D01*
X3737271Y-7053621D01*
X3744228Y-7036825D01*
Y-7018644D01*
X3737271Y-7001848D01*
X3724415Y-6988992D01*
X3707619Y-6982035D01*
X3707833Y-6969423D01*
X3758580D01*
X3761257Y-6975887D01*
X3774113Y-6988743D01*
X3790910Y-6995700D01*
X3809090D01*
X3825887Y-6988743D01*
X3838743Y-6975887D01*
X3845700Y-6959090D01*
Y-6940910D01*
X3838743Y-6924113D01*
X3825887Y-6911257D01*
X3809090Y-6904300D01*
D02*
G37*
G36*
X-4708863Y-6957700D02*
X-4782300D01*
Y-7079465D01*
X-4772706Y-7078202D01*
X-4751932Y-7069597D01*
X-4734092Y-7055908D01*
X-4720404Y-7038069D01*
X-4711798Y-7017294D01*
X-4708863Y-6995000D01*
Y-6957700D01*
D02*
G37*
G36*
X-4807700D02*
X-4881137D01*
Y-6995000D01*
X-4878202Y-7017294D01*
X-4869597Y-7038069D01*
X-4855908Y-7055908D01*
X-4838069Y-7069597D01*
X-4817294Y-7078202D01*
X-4807700Y-7079465D01*
Y-6957700D01*
D02*
G37*
G36*
X659092Y-7049238D02*
X640911D01*
X624115Y-7056195D01*
X611259Y-7069051D01*
X606875Y-7079635D01*
X593128D01*
X588744Y-7069051D01*
X575889Y-7056195D01*
X559092Y-7049238D01*
X540911D01*
X524115Y-7056195D01*
X511259Y-7069051D01*
X504302Y-7085847D01*
Y-7104028D01*
X511259Y-7120824D01*
X524115Y-7133680D01*
X534699Y-7138064D01*
Y-7151811D01*
X524114Y-7156195D01*
X511258Y-7169051D01*
X504301Y-7185848D01*
Y-7204029D01*
X511258Y-7220825D01*
X524114Y-7233681D01*
X540911Y-7240638D01*
X559091D01*
X575888Y-7233681D01*
X588744Y-7220825D01*
X593128Y-7210240D01*
X606874D01*
X611259Y-7220825D01*
X624114Y-7233680D01*
X640911Y-7240638D01*
X659092D01*
X675888Y-7233680D01*
X688744Y-7220825D01*
X695701Y-7204028D01*
Y-7185847D01*
X688744Y-7169051D01*
X675888Y-7156195D01*
X665304Y-7151811D01*
Y-7138064D01*
X675888Y-7133680D01*
X688744Y-7120824D01*
X695701Y-7104028D01*
Y-7085847D01*
X688744Y-7069051D01*
X675888Y-7056195D01*
X659092Y-7049238D01*
D02*
G37*
G36*
X-2900000Y-7085699D02*
X-2908470Y-7086254D01*
X-2932771Y-7086254D01*
X-2933648Y-7086617D01*
X-2934566Y-7086372D01*
X-2958663Y-7089544D01*
X-2967130Y-7090099D01*
X-2975452Y-7091754D01*
X-2999548Y-7094927D01*
X-3000371Y-7095402D01*
X-3001312Y-7095278D01*
X-3024789Y-7101568D01*
X-3033111Y-7103224D01*
X-3041145Y-7105951D01*
X-3064622Y-7112241D01*
X-3065375Y-7112819D01*
X-3066325D01*
X-3088778Y-7122120D01*
X-3096814Y-7124848D01*
X-3104427Y-7128602D01*
X-3126879Y-7137902D01*
X-3127551Y-7138573D01*
X-3128492Y-7138697D01*
X-3149540Y-7150849D01*
X-3157151Y-7154602D01*
X-3164206Y-7159316D01*
X-3185254Y-7171469D01*
X-3185832Y-7172222D01*
X-3186749Y-7172468D01*
X-3206033Y-7187265D01*
X-3213087Y-7191978D01*
X-3219464Y-7197571D01*
X-3238748Y-7212368D01*
X-3239223Y-7213190D01*
X-3240100Y-7213554D01*
X-3257289Y-7230742D01*
X-3263666Y-7236334D01*
X-3269257Y-7242710D01*
X-3286447Y-7259900D01*
X-3286810Y-7260777D01*
X-3287632Y-7261252D01*
X-3302431Y-7280538D01*
X-3308022Y-7286914D01*
X-3312733Y-7293964D01*
X-3327533Y-7313251D01*
X-3327778Y-7314168D01*
X-3328532Y-7314746D01*
X-3340687Y-7335800D01*
X-3345398Y-7342850D01*
X-3349148Y-7350454D01*
X-3361303Y-7371508D01*
X-3361427Y-7372450D01*
X-3362099Y-7373121D01*
X-3371402Y-7395580D01*
X-3375152Y-7403186D01*
X-3377878Y-7411215D01*
X-3387181Y-7433675D01*
Y-7434624D01*
X-3387759Y-7435378D01*
X-3394052Y-7458863D01*
X-3396777Y-7466889D01*
X-3398430Y-7475201D01*
X-3404723Y-7498688D01*
X-3404599Y-7499629D01*
X-3405074Y-7500452D01*
X-3408248Y-7524559D01*
X-3409901Y-7532870D01*
X-3410455Y-7541326D01*
X-3413629Y-7565434D01*
X-3413384Y-7566352D01*
X-3413747Y-7567229D01*
X-3413747Y-7591542D01*
X-3414301Y-7600000D01*
X-3413747Y-7608458D01*
X-3413747Y-7632772D01*
X-3413384Y-7633649D01*
X-3413629Y-7634566D01*
X-3410455Y-7658678D01*
X-3409901Y-7667130D01*
X-3408249Y-7675436D01*
X-3405074Y-7699549D01*
X-3404599Y-7700372D01*
X-3404723Y-7701313D01*
X-3398428Y-7724807D01*
X-3396777Y-7733111D01*
X-3394055Y-7741129D01*
X-3387760Y-7764624D01*
X-3387181Y-7765377D01*
Y-7766326D01*
X-3377874Y-7788796D01*
X-3375152Y-7796814D01*
X-3371407Y-7804409D01*
X-3362099Y-7826881D01*
X-3361428Y-7827552D01*
X-3361304Y-7828493D01*
X-3349141Y-7849559D01*
X-3345398Y-7857150D01*
X-3340695Y-7864188D01*
X-3328532Y-7885256D01*
X-3327779Y-7885834D01*
X-3327533Y-7886751D01*
X-3312724Y-7906049D01*
X-3308022Y-7913087D01*
X-3302441Y-7919451D01*
X-3287632Y-7938750D01*
X-3286810Y-7939224D01*
X-3286447Y-7940102D01*
X-3269246Y-7957303D01*
X-3263666Y-7963666D01*
X-3257303Y-7969246D01*
X-3240100Y-7986448D01*
X-3239223Y-7986812D01*
X-3238748Y-7987634D01*
X-3219448Y-8002443D01*
X-3213087Y-8008022D01*
X-3206049Y-8012725D01*
X-3186749Y-8027534D01*
X-3185832Y-8027779D01*
X-3185254Y-8028533D01*
X-3164191Y-8040694D01*
X-3157151Y-8045398D01*
X-3149556Y-8049143D01*
X-3128492Y-8061304D01*
X-3127550Y-8061428D01*
X-3126879Y-8062100D01*
X-3104409Y-8071407D01*
X-3096814Y-8075152D01*
X-3088795Y-8077875D01*
X-3066324Y-8087182D01*
X-3065375D01*
X-3064622Y-8087760D01*
X-3041130Y-8094054D01*
X-3033111Y-8096777D01*
X-3024804Y-8098429D01*
X-3001311Y-8104724D01*
X-3000370Y-8104600D01*
X-2999547Y-8105074D01*
X-2975438Y-8108248D01*
X-2967130Y-8109901D01*
X-2958675Y-8110455D01*
X-2934565Y-8113629D01*
X-2933648Y-8113384D01*
X-2932770Y-8113747D01*
X-2908458Y-8113747D01*
X-2900000Y-8114301D01*
X-2891543Y-8113747D01*
X-2867227Y-8113747D01*
X-2866350Y-8113384D01*
X-2865433Y-8113629D01*
X-2841313Y-8110454D01*
X-2832870Y-8109901D01*
X-2824576Y-8108251D01*
X-2800450Y-8105075D01*
X-2799628Y-8104601D01*
X-2798686Y-8104724D01*
X-2775173Y-8098424D01*
X-2766889Y-8096777D01*
X-2758892Y-8094062D01*
X-2735376Y-8087761D01*
X-2734623Y-8087183D01*
X-2733673D01*
X-2711177Y-8077865D01*
X-2703186Y-8075152D01*
X-2695618Y-8071420D01*
X-2673119Y-8062101D01*
X-2672448Y-8061430D01*
X-2671506Y-8061306D01*
X-2650413Y-8049128D01*
X-2642849Y-8045398D01*
X-2635838Y-8040713D01*
X-2614744Y-8028534D01*
X-2614166Y-8027781D01*
X-2613249Y-8027535D01*
X-2593922Y-8012705D01*
X-2586914Y-8008022D01*
X-2580577Y-8002465D01*
X-2561249Y-7987635D01*
X-2560775Y-7986813D01*
X-2559897Y-7986449D01*
X-2542672Y-7969224D01*
X-2536334Y-7963666D01*
X-2530777Y-7957329D01*
X-2513551Y-7940103D01*
X-2513188Y-7939226D01*
X-2512366Y-7938751D01*
X-2497536Y-7919425D01*
X-2491978Y-7913087D01*
X-2487294Y-7906077D01*
X-2472465Y-7886752D01*
X-2472220Y-7885835D01*
X-2471466Y-7885257D01*
X-2459289Y-7864164D01*
X-2454602Y-7857150D01*
X-2450871Y-7849583D01*
X-2438695Y-7828494D01*
X-2438571Y-7827553D01*
X-2437900Y-7826882D01*
X-2428583Y-7804390D01*
X-2424848Y-7796814D01*
X-2422133Y-7788815D01*
X-2412818Y-7766327D01*
Y-7765377D01*
X-2412240Y-7764624D01*
X-2405942Y-7741119D01*
X-2403224Y-7733111D01*
X-2401573Y-7724814D01*
X-2395277Y-7701314D01*
X-2395401Y-7700372D01*
X-2394926Y-7699550D01*
X-2391752Y-7675439D01*
X-2390099Y-7667130D01*
X-2389545Y-7658672D01*
X-2386372Y-7634567D01*
X-2386617Y-7633650D01*
X-2386254Y-7632773D01*
X-2386254Y-7608473D01*
X-2385699Y-7600000D01*
X-2386254Y-7591527D01*
X-2386254Y-7567230D01*
X-2386618Y-7566353D01*
X-2386372Y-7565435D01*
X-2389544Y-7541336D01*
X-2390099Y-7532870D01*
X-2391754Y-7524551D01*
X-2394926Y-7500453D01*
X-2395401Y-7499630D01*
X-2395277Y-7498689D01*
X-2401569Y-7475206D01*
X-2403224Y-7466889D01*
X-2405949Y-7458861D01*
X-2412241Y-7435379D01*
X-2412818Y-7434626D01*
Y-7433676D01*
X-2422123Y-7411211D01*
X-2424848Y-7403186D01*
X-2428596Y-7395586D01*
X-2437900Y-7373122D01*
X-2438572Y-7372450D01*
X-2438696Y-7371509D01*
X-2450856Y-7350447D01*
X-2454602Y-7342850D01*
X-2459308Y-7335808D01*
X-2471467Y-7314746D01*
X-2472220Y-7314168D01*
X-2472466Y-7313251D01*
X-2487274Y-7293953D01*
X-2491978Y-7286914D01*
X-2497560Y-7280548D01*
X-2512367Y-7261252D01*
X-2513189Y-7260777D01*
X-2513552Y-7259900D01*
X-2530750Y-7242702D01*
X-2536334Y-7236334D01*
X-2542701Y-7230751D01*
X-2559898Y-7213553D01*
X-2560776Y-7213190D01*
X-2561250Y-7212368D01*
X-2580547Y-7197561D01*
X-2586914Y-7191978D01*
X-2593954Y-7187273D01*
X-2613250Y-7172467D01*
X-2614166Y-7172222D01*
X-2614745Y-7171469D01*
X-2635806Y-7159309D01*
X-2642849Y-7154602D01*
X-2650447Y-7150856D01*
X-2671507Y-7138697D01*
X-2672448Y-7138573D01*
X-2673120Y-7137901D01*
X-2695587Y-7128595D01*
X-2703186Y-7124848D01*
X-2711210Y-7122124D01*
X-2733674Y-7112819D01*
X-2734623D01*
X-2735377Y-7112241D01*
X-2758864Y-7105947D01*
X-2766889Y-7103224D01*
X-2775201Y-7101570D01*
X-2798687Y-7095277D01*
X-2799629Y-7095401D01*
X-2800451Y-7094926D01*
X-2824555Y-7091753D01*
X-2832870Y-7090099D01*
X-2841333Y-7089544D01*
X-2865433Y-7086372D01*
X-2866350Y-7086617D01*
X-2867228Y-7086254D01*
X-2891530Y-7086254D01*
X-2900000Y-7085699D01*
D02*
G37*
G36*
X-5075000Y-7161673D02*
X-5175000D01*
X-5193978Y-7164171D01*
X-5211664Y-7171497D01*
X-5226850Y-7183150D01*
X-5238503Y-7198336D01*
X-5245829Y-7216022D01*
X-5248327Y-7235000D01*
X-5245829Y-7253978D01*
X-5238503Y-7271664D01*
X-5226850Y-7286850D01*
X-5211664Y-7298503D01*
X-5193978Y-7305829D01*
X-5175000Y-7308327D01*
X-5075000D01*
X-5056021Y-7305829D01*
X-5038336Y-7298503D01*
X-5023149Y-7286850D01*
X-5011496Y-7271664D01*
X-5004171Y-7253978D01*
X-5001672Y-7235000D01*
X-5004171Y-7216022D01*
X-5011496Y-7198336D01*
X-5023149Y-7183150D01*
X-5038336Y-7171497D01*
X-5056021Y-7164171D01*
X-5075000Y-7161673D01*
D02*
G37*
G36*
X-5287000Y-7288671D02*
X-5362300D01*
Y-7412300D01*
X-5238671D01*
Y-7337000D01*
X-5242350Y-7318505D01*
X-5252826Y-7302826D01*
X-5268505Y-7292350D01*
X-5287000Y-7288671D01*
D02*
G37*
G36*
X-5575000Y-7251673D02*
X-5675000D01*
X-5693978Y-7254171D01*
X-5711664Y-7261497D01*
X-5726850Y-7273150D01*
X-5738503Y-7288336D01*
X-5745829Y-7306022D01*
X-5748327Y-7325000D01*
X-5745829Y-7343978D01*
X-5738503Y-7361664D01*
X-5726850Y-7376850D01*
X-5711664Y-7388503D01*
X-5693978Y-7395829D01*
X-5675000Y-7398327D01*
X-5575000D01*
X-5556021Y-7395829D01*
X-5538336Y-7388503D01*
X-5524029Y-7377525D01*
X-5520158Y-7378231D01*
X-5511329Y-7382307D01*
Y-7412300D01*
X-5387700D01*
Y-7288671D01*
X-5463000D01*
X-5481494Y-7292350D01*
X-5492924Y-7299987D01*
X-5505750Y-7297810D01*
X-5508155Y-7296402D01*
X-5511496Y-7288336D01*
X-5523149Y-7273150D01*
X-5538336Y-7261497D01*
X-5556021Y-7254171D01*
X-5575000Y-7251673D01*
D02*
G37*
G36*
X-5238671Y-7437700D02*
X-5362300D01*
Y-7561329D01*
X-5287000D01*
X-5268505Y-7557650D01*
X-5252826Y-7547173D01*
X-5242350Y-7531494D01*
X-5238671Y-7513000D01*
Y-7437700D01*
D02*
G37*
G36*
X-5387700D02*
X-5511329D01*
Y-7513000D01*
X-5507650Y-7531494D01*
X-5497173Y-7547173D01*
X-5481494Y-7557650D01*
X-5463000Y-7561329D01*
X-5387700D01*
Y-7437700D01*
D02*
G37*
G36*
X2907619Y-7482034D02*
X2889438D01*
X2872641Y-7488992D01*
X2859785Y-7501847D01*
X2852828Y-7518644D01*
Y-7536825D01*
X2859785Y-7553621D01*
X2872641Y-7566477D01*
X2889438Y-7573434D01*
X2907619D01*
X2924415Y-7566477D01*
X2937271Y-7553621D01*
X2944228Y-7536825D01*
Y-7518644D01*
X2937271Y-7501847D01*
X2924415Y-7488992D01*
X2907619Y-7482034D01*
D02*
G37*
G36*
X2979002Y-7568945D02*
X2964800D01*
X2951679Y-7574380D01*
X2941636Y-7584422D01*
X2936201Y-7597544D01*
Y-7611746D01*
X2941636Y-7624867D01*
X2951679Y-7634910D01*
X2964800Y-7640345D01*
X2979002D01*
X2992124Y-7634910D01*
X2998841Y-7644828D01*
X2999705Y-7646912D01*
X3009747Y-7656955D01*
X3022869Y-7662390D01*
X3037071D01*
X3050192Y-7656955D01*
X3060235Y-7646912D01*
X3065670Y-7633791D01*
Y-7619589D01*
X3060235Y-7606467D01*
X3050192Y-7596424D01*
X3037071Y-7590990D01*
X3022869D01*
X3009748Y-7596424D01*
X3003030Y-7586507D01*
X3002166Y-7584422D01*
X2992124Y-7574380D01*
X2979002Y-7568945D01*
D02*
G37*
G36*
X2829355Y-7575815D02*
X2811174D01*
X2794377Y-7582772D01*
X2781521Y-7595628D01*
X2774564Y-7612424D01*
Y-7630605D01*
X2781521Y-7647402D01*
X2794377Y-7660257D01*
X2811174Y-7667215D01*
X2829355D01*
X2846151Y-7660257D01*
X2859007Y-7647402D01*
X2865964Y-7630605D01*
Y-7612424D01*
X2859007Y-7595628D01*
X2846151Y-7582772D01*
X2829355Y-7575815D01*
D02*
G37*
G36*
X3497616Y-7602044D02*
X3479435D01*
X3462638Y-7609001D01*
X3449783Y-7621857D01*
X3442825Y-7638654D01*
Y-7656834D01*
X3449783Y-7673631D01*
X3462638Y-7686487D01*
X3479435Y-7693444D01*
X3497616D01*
X3514412Y-7686487D01*
X3527268Y-7673631D01*
X3534225Y-7656834D01*
Y-7638654D01*
X3527268Y-7621857D01*
X3514412Y-7609001D01*
X3497616Y-7602044D01*
D02*
G37*
G36*
X-3490910Y-7954300D02*
X-3509091D01*
X-3525887Y-7961257D01*
X-3538743Y-7974113D01*
X-3545700Y-7990910D01*
Y-8009090D01*
X-3538743Y-8025887D01*
X-3525887Y-8038743D01*
X-3509091Y-8045700D01*
X-3490910D01*
X-3474113Y-8038743D01*
X-3461257Y-8025887D01*
X-3454300Y-8009090D01*
Y-7990910D01*
X-3461257Y-7974113D01*
X-3474113Y-7961257D01*
X-3490910Y-7954300D01*
D02*
G37*
G36*
X-1287300Y-7837300D02*
X-1512700D01*
Y-8062700D01*
X-1287300D01*
Y-7837300D01*
D02*
G37*
G36*
X239700Y-7837300D02*
X14300D01*
Y-8062700D01*
X239700D01*
Y-7837300D01*
D02*
G37*
G36*
X-112163D02*
X-141837D01*
X-170501Y-7844980D01*
X-196200Y-7859818D01*
X-217182Y-7880801D01*
X-232020Y-7906500D01*
X-239700Y-7935163D01*
Y-7964837D01*
X-232020Y-7993501D01*
X-217182Y-8019200D01*
X-196200Y-8040183D01*
X-170501Y-8055020D01*
X-141837Y-8062700D01*
X-112163D01*
X-83499Y-8055020D01*
X-57800Y-8040183D01*
X-36818Y-8019200D01*
X-21980Y-7993501D01*
X-14300Y-7964837D01*
Y-7935163D01*
X-21980Y-7906500D01*
X-36818Y-7880801D01*
X-57800Y-7859818D01*
X-83499Y-7844980D01*
X-112163Y-7837300D01*
D02*
G37*
G36*
X32102Y-8339238D02*
X17900D01*
X4779Y-8344673D01*
X-5264Y-8354715D01*
X-10699Y-8367837D01*
Y-8382039D01*
X-5264Y-8395160D01*
X4779Y-8405203D01*
X17900Y-8410638D01*
X32102D01*
X45223Y-8405203D01*
X55266Y-8395160D01*
X60701Y-8382039D01*
Y-8367837D01*
X55266Y-8354715D01*
X45223Y-8344673D01*
X32102Y-8339238D01*
D02*
G37*
G36*
X-67898Y-8339238D02*
X-82100D01*
X-95222Y-8344673D01*
X-105264Y-8354716D01*
X-110699Y-8367837D01*
Y-8382039D01*
X-105264Y-8395161D01*
X-95222Y-8405203D01*
X-82100Y-8410638D01*
X-67898D01*
X-54777Y-8405203D01*
X-44734Y-8395161D01*
X-39299Y-8382039D01*
Y-8367837D01*
X-44734Y-8354716D01*
X-54777Y-8344673D01*
X-67898Y-8339238D01*
D02*
G37*
G36*
X297992Y-8569738D02*
X280010D01*
X263397Y-8576620D01*
X250682Y-8589335D01*
X243801Y-8605947D01*
Y-8623929D01*
X250682Y-8640542D01*
X263397Y-8653257D01*
X280010Y-8660138D01*
X297992D01*
X314605Y-8653257D01*
X327320Y-8640542D01*
X334201Y-8623929D01*
Y-8605947D01*
X327320Y-8589335D01*
X314605Y-8576620D01*
X297992Y-8569738D01*
D02*
G37*
G36*
X-280008D02*
X-297990D01*
X-314603Y-8576620D01*
X-327318Y-8589335D01*
X-334199Y-8605947D01*
Y-8623929D01*
X-327318Y-8640542D01*
X-314603Y-8653257D01*
X-297990Y-8660138D01*
X-280008D01*
X-263395Y-8653257D01*
X-250680Y-8640542D01*
X-243799Y-8623929D01*
Y-8605947D01*
X-250680Y-8589335D01*
X-263395Y-8576620D01*
X-280008Y-8569738D01*
D02*
G37*
G36*
X-2065909Y-8884300D02*
X-2084090D01*
X-2100887Y-8891258D01*
X-2113742Y-8904114D01*
X-2120700Y-8920910D01*
Y-8939091D01*
X-2113742Y-8955887D01*
X-2100887Y-8968743D01*
X-2084090Y-8975700D01*
X-2065909D01*
X-2049113Y-8968743D01*
X-2036257Y-8955887D01*
X-2029300Y-8939091D01*
Y-8920910D01*
X-2036257Y-8904114D01*
X-2049113Y-8891258D01*
X-2065909Y-8884300D01*
D02*
G37*
%LPD*%
G36*
X2953432Y-7232055D02*
X2947131Y-7236266D01*
X2947131Y-7236266D01*
X2702820Y-7480577D01*
X2250000D01*
X2242567Y-7482055D01*
X2236266Y-7486266D01*
X2236265Y-7486266D01*
X1941954Y-7780577D01*
X1287146D01*
X1279713Y-7782055D01*
X1273412Y-7786266D01*
X1108199Y-7951478D01*
X878946D01*
X693838Y-7766369D01*
X698698Y-7754636D01*
X914787D01*
X922220Y-7753157D01*
X928522Y-7748947D01*
X1208045Y-7469423D01*
X2100000D01*
X2106704Y-7468090D01*
X2107489Y-7468639D01*
X2112404Y-7480350D01*
X2012177Y-7580577D01*
X1230021D01*
X1230020Y-7580577D01*
X1222587Y-7582055D01*
X1216286Y-7586266D01*
X1216285Y-7586267D01*
X955554Y-7846998D01*
X949090Y-7844320D01*
X930909D01*
X914113Y-7851277D01*
X901257Y-7864133D01*
X894300Y-7880930D01*
Y-7899110D01*
X901257Y-7915907D01*
X914113Y-7928763D01*
X930909Y-7935720D01*
X949090D01*
X965887Y-7928763D01*
X978743Y-7915907D01*
X985700Y-7899110D01*
Y-7880930D01*
X983022Y-7874466D01*
X1238065Y-7619423D01*
X2020223D01*
X2027656Y-7617945D01*
X2033957Y-7613734D01*
X2428268Y-7219423D01*
X2662129D01*
X2665268Y-7223698D01*
X2668763Y-7232123D01*
X2664300Y-7242899D01*
Y-7257101D01*
X2669735Y-7270222D01*
X2679777Y-7280265D01*
X2684123Y-7282065D01*
X2687126Y-7297023D01*
X2681691Y-7310144D01*
Y-7324346D01*
X2687126Y-7337467D01*
X2697168Y-7347510D01*
X2710290Y-7352945D01*
X2724492D01*
X2737613Y-7347510D01*
X2747656Y-7337467D01*
X2753091Y-7324346D01*
Y-7310144D01*
X2747656Y-7297022D01*
X2737613Y-7286980D01*
X2733268Y-7285180D01*
X2730265Y-7270222D01*
X2735700Y-7257101D01*
Y-7242899D01*
X2731237Y-7232123D01*
X2734731Y-7223698D01*
X2737871Y-7219423D01*
X2951841D01*
X2953432Y-7232055D01*
D02*
G37*
G36*
X2365427Y-7527997D02*
X2365877Y-7532123D01*
X1840489Y-8057511D01*
X1766701D01*
Y-7837300D01*
X1541300D01*
Y-8057511D01*
X1464585D01*
X1461182Y-8044811D01*
X1469200Y-8040182D01*
X1490183Y-8019199D01*
X1505020Y-7993500D01*
X1512701Y-7964837D01*
Y-7935162D01*
X1505020Y-7906499D01*
X1490183Y-7880800D01*
X1469200Y-7859817D01*
X1443501Y-7844980D01*
X1414838Y-7837300D01*
X1385163D01*
X1356500Y-7844980D01*
X1330801Y-7859817D01*
X1309818Y-7880800D01*
X1294981Y-7906499D01*
X1287300Y-7935162D01*
Y-7964837D01*
X1294981Y-7993500D01*
X1309818Y-8019199D01*
X1330801Y-8040182D01*
X1338819Y-8044811D01*
X1335416Y-8057511D01*
X834980D01*
X576610Y-7799141D01*
X581470Y-7787408D01*
X659939D01*
X857167Y-7984635D01*
X863468Y-7988846D01*
X870901Y-7990324D01*
X870902Y-7990324D01*
X1116245D01*
X1123678Y-7988846D01*
X1129979Y-7984635D01*
X1295191Y-7819423D01*
X1950000D01*
X1957433Y-7817944D01*
X1963734Y-7813734D01*
X2258045Y-7519423D01*
X2361538D01*
X2365427Y-7527997D01*
D02*
G37*
%LPC*%
G36*
X-390408Y-3211447D02*
X-408589D01*
X-425386Y-3218405D01*
X-438241Y-3231260D01*
X-445199Y-3248057D01*
Y-3266238D01*
X-438241Y-3283034D01*
X-425386Y-3295890D01*
X-408589Y-3302847D01*
X-390408D01*
X-373612Y-3295890D01*
X-360756Y-3283034D01*
X-353799Y-3266238D01*
Y-3248057D01*
X-360756Y-3231260D01*
X-373612Y-3218405D01*
X-390408Y-3211447D01*
D02*
G37*
G36*
X-135409Y-3211448D02*
X-153590D01*
X-170386Y-3218405D01*
X-183242Y-3231261D01*
X-190199Y-3248057D01*
Y-3266238D01*
X-183242Y-3283035D01*
X-170386Y-3295890D01*
X-153590Y-3302848D01*
X-135409D01*
X-118612Y-3295890D01*
X-105757Y-3283035D01*
X-98799Y-3266238D01*
Y-3248057D01*
X-105757Y-3231261D01*
X-118612Y-3218405D01*
X-135409Y-3211448D01*
D02*
G37*
G36*
X-890406Y-3411450D02*
X-908587D01*
X-925383Y-3418407D01*
X-938239Y-3431263D01*
X-945196Y-3448059D01*
Y-3466240D01*
X-938239Y-3483037D01*
X-925383Y-3495892D01*
X-908587Y-3502850D01*
X-890406D01*
X-873609Y-3495892D01*
X-860754Y-3483037D01*
X-853796Y-3466240D01*
Y-3448059D01*
X-860754Y-3431263D01*
X-873609Y-3418407D01*
X-890406Y-3411450D01*
D02*
G37*
G36*
X-686649Y-3474420D02*
X-704830D01*
X-721626Y-3481377D01*
X-734482Y-3494233D01*
X-741439Y-3511030D01*
Y-3529210D01*
X-734482Y-3546007D01*
X-721626Y-3558863D01*
X-704830Y-3565820D01*
X-686649D01*
X-669853Y-3558863D01*
X-656997Y-3546007D01*
X-650040Y-3529210D01*
Y-3511030D01*
X-656997Y-3494233D01*
X-669853Y-3481377D01*
X-686649Y-3474420D01*
D02*
G37*
G36*
X-693069Y-3612583D02*
X-711250D01*
X-728047Y-3619540D01*
X-740903Y-3632396D01*
X-747860Y-3649192D01*
Y-3667373D01*
X-740903Y-3684169D01*
X-728047Y-3697025D01*
X-711250Y-3703982D01*
X-693069D01*
X-676273Y-3697025D01*
X-663417Y-3684169D01*
X-656460Y-3667373D01*
Y-3649192D01*
X-663417Y-3632396D01*
X-676273Y-3619540D01*
X-693069Y-3612583D01*
D02*
G37*
G36*
X-351729Y-3797472D02*
X-365931D01*
X-379053Y-3802907D01*
X-389095Y-3812949D01*
X-394530Y-3826071D01*
Y-3840273D01*
X-389095Y-3853394D01*
X-379053Y-3863437D01*
X-365931Y-3868872D01*
X-351729D01*
X-338608Y-3863437D01*
X-328565Y-3853394D01*
X-323130Y-3840273D01*
Y-3826071D01*
X-328565Y-3812949D01*
X-338608Y-3802907D01*
X-351729Y-3797472D01*
D02*
G37*
G36*
X-890406Y-3811450D02*
X-908587D01*
X-925383Y-3818407D01*
X-938239Y-3831263D01*
X-945196Y-3848060D01*
Y-3866240D01*
X-938239Y-3883037D01*
X-925383Y-3895893D01*
X-908587Y-3902850D01*
X-890406D01*
X-873609Y-3895893D01*
X-860754Y-3883037D01*
X-853796Y-3866240D01*
Y-3848060D01*
X-860754Y-3831263D01*
X-873609Y-3818407D01*
X-890406Y-3811450D01*
D02*
G37*
G36*
X809592Y-3911447D02*
X791411D01*
X774614Y-3918405D01*
X761759Y-3931260D01*
X754801Y-3948057D01*
Y-3966238D01*
X761759Y-3983034D01*
X774614Y-3995890D01*
X791411Y-4002847D01*
X809592D01*
X826388Y-3995890D01*
X839244Y-3983034D01*
X846201Y-3966238D01*
Y-3948057D01*
X839244Y-3931260D01*
X826388Y-3918405D01*
X809592Y-3911447D01*
D02*
G37*
G36*
X189591Y-3961447D02*
X171411D01*
X154614Y-3968405D01*
X141758Y-3981261D01*
X134801Y-3998057D01*
Y-4016238D01*
X141758Y-4033034D01*
X154614Y-4045890D01*
X171411Y-4052847D01*
X189591D01*
X206388Y-4045890D01*
X219244Y-4033034D01*
X226201Y-4016238D01*
Y-3998057D01*
X219244Y-3981261D01*
X206388Y-3968405D01*
X189591Y-3961447D01*
D02*
G37*
G36*
X-207908Y-4341448D02*
X-226089D01*
X-242886Y-4348405D01*
X-255741Y-4361261D01*
X-262699Y-4378057D01*
Y-4396238D01*
X-255741Y-4413034D01*
X-242886Y-4425890D01*
X-226089Y-4432847D01*
X-207908D01*
X-191112Y-4425890D01*
X-178256Y-4413034D01*
X-171299Y-4396238D01*
Y-4378057D01*
X-178256Y-4361261D01*
X-191112Y-4348405D01*
X-207908Y-4341448D01*
D02*
G37*
G36*
X-690910Y-4754300D02*
X-709091D01*
X-725887Y-4761257D01*
X-738743Y-4774113D01*
X-745700Y-4790910D01*
Y-4809090D01*
X-738743Y-4825887D01*
X-725887Y-4838743D01*
X-709091Y-4845700D01*
X-690910D01*
X-674113Y-4838743D01*
X-661258Y-4825887D01*
X-654300Y-4809090D01*
Y-4790910D01*
X-661258Y-4774113D01*
X-674113Y-4761257D01*
X-690910Y-4754300D01*
D02*
G37*
%LPD*%
D11*
X2024285Y-6237003D02*
Y-6124285D01*
X2241448Y-6454165D02*
X2704165D01*
X2024285Y-6237003D02*
X2241448Y-6454165D01*
X2667227Y-6301863D02*
X2786287Y-6420923D01*
X2551863Y-6301863D02*
X2667227D01*
X2350000Y-6100000D02*
X2551863Y-6301863D01*
X2461707Y-7088293D02*
X3149111D01*
X3287404Y-6950000D02*
X3800000D01*
X3149111Y-7088293D02*
X3287404Y-6950000D01*
X3416151Y-6591722D02*
X3462533Y-6638104D01*
Y-6648866D02*
Y-6638104D01*
X-809602Y-5536224D02*
X-568208Y-5777617D01*
X-1446858Y-5389063D02*
X-1299697Y-5536224D01*
X-809602D01*
X-1394834Y-5372478D02*
X-1271206Y-5496106D01*
X-810396D01*
X-539676Y-5766826D01*
X-1394834Y-5372478D02*
Y-2944834D01*
X-1446858Y-5389063D02*
Y-2940896D01*
X-1175400Y-2669437D01*
Y-1639479D01*
X-1394834Y-2944834D02*
X-1150000Y-2700000D01*
X-917956Y-1322012D02*
Y48151D01*
X-1175400Y-1639479D02*
Y-1579456D01*
X-917956Y-1322012D01*
X-1150000Y-1624104D02*
X-888741Y-1362845D01*
X-1150000Y-2700000D02*
Y-1624104D01*
X-888741Y-1362845D02*
Y65016D01*
X-1318874Y495148D02*
Y2558802D01*
Y495148D02*
X-888741Y65016D01*
X-1399246Y529440D02*
Y2594088D01*
Y529440D02*
X-917956Y48151D01*
X-1399246Y2594088D02*
X-946419Y3046914D01*
X-203005D02*
X36340Y3286259D01*
X-946419Y3046914D02*
X-203005D01*
X-1318874Y2558802D02*
X-913095Y2964581D01*
X-168589D02*
X76612Y3209783D01*
X-913095Y2964581D02*
X-168589D01*
X2934626Y-6499205D02*
X3120405Y-6313426D01*
X3213426D02*
X3300000Y-6400000D01*
X3120405Y-6313426D02*
X3213426D01*
X-568208Y-6404205D02*
Y-5777617D01*
X-2150000Y-7985997D02*
X-568208Y-6404205D01*
X-2000000Y-7883256D02*
X-539676Y-6422932D01*
Y-5766826D01*
X-3028711Y-6700000D02*
X-2600000D01*
X-3371872Y-6845000D02*
X-3173710D01*
X-3028711Y-6700000D01*
X-3146247Y-6620485D02*
X-2647486D01*
X-3225762Y-6700000D02*
X-3146247Y-6620485D01*
X940000Y-7890020D02*
X1230020Y-7600000D01*
X2020223D01*
X667985Y-7767985D02*
X870901Y-7970901D01*
X1116245D01*
X1287146Y-7800000D01*
X-1000000Y-7950000D02*
X-1000000Y-7950000D01*
X-450000D01*
X-300000Y-7800000D01*
X-915182Y-7874129D02*
X-809038Y-7767985D01*
X667985D01*
X2153300Y-6100000D02*
X2350000D01*
X2079648Y-6026348D02*
X2153300Y-6100000D01*
X386646Y-6136646D02*
X899200Y-6649200D01*
X2578958D01*
X1950000Y-6800000D02*
X2608041D01*
X2733441Y-6674600D01*
X2850000Y-6700000D02*
X3218778D01*
X1646380Y-6850000D02*
X2700000D01*
X2850000Y-6700000D01*
X950000Y-6800000D02*
X1659080D01*
X323078Y-6173078D02*
X950000Y-6800000D01*
X900000Y-6850000D02*
X1646380D01*
X265623Y-6215623D02*
X900000Y-6850000D01*
X938158Y-6588158D02*
X2672175D01*
X450000Y-6100000D02*
X938158Y-6588158D01*
X-1859396Y-7836073D02*
X-1495021Y-7471698D01*
X-1859396Y-8490604D02*
X-1700000Y-8650000D01*
X-1859396Y-8490604D02*
Y-7836073D01*
X-1495021Y-7471698D02*
X-147841D01*
X-1884796Y-7809692D02*
X-1475104Y-7400000D01*
X-150000D01*
X-1884796Y-8965204D02*
Y-7809692D01*
Y-8965204D02*
X-1850000Y-9000000D01*
X1950000Y-7800000D02*
X2250000Y-7500000D01*
X2710866D01*
X2960866Y-7250000D01*
X3110813D01*
X2745870Y-7544879D02*
X2984903Y-7305846D01*
X2380590Y-7544879D02*
X2745870D01*
X2984903Y-7305846D02*
X3155756D01*
X1287146Y-7800000D02*
X1950000D01*
X-879175Y-7735213D02*
X914787D01*
X1200000Y-7450000D02*
X2100000D01*
X914787Y-7735213D02*
X1200000Y-7450000D01*
X550000Y-7800000D02*
X826935Y-8076935D01*
X-300000Y-7800000D02*
X550000D01*
X-1550000Y-9000001D02*
Y-8406037D01*
X-879175Y-7735213D01*
X-2000000Y-8450000D02*
Y-7883256D01*
X-2150000Y-8450000D02*
Y-7985997D01*
X-4526442Y-8033230D02*
X-4033418Y-8526254D01*
X-4526442Y-8033230D02*
Y-6816915D01*
X-3997523Y-6287997D01*
X-4488039Y-7982297D02*
Y-6859786D01*
X-3956514Y-6328261D01*
X-4488039Y-7982297D02*
X-3944083Y-8526253D01*
X-3997523Y-6287997D02*
X-3562003D01*
X-3956514Y-6328261D02*
X-3570930D01*
X-3562003Y-6287997D02*
X-3399343Y-6450657D01*
X-3570930Y-6328261D02*
X-3396484Y-6502707D01*
X-3650000Y-6626907D02*
Y-6600000D01*
Y-6626907D02*
X-3490341Y-6786567D01*
X-3950000Y-6900000D02*
X-3875109Y-6825109D01*
X-3478114D01*
X0Y-5950000D02*
X265623Y-6215623D01*
X100000Y-5950000D02*
X323078Y-6173078D01*
X200000Y-5950000D02*
X386646Y-6136646D01*
X300000Y-5950000D02*
X450000Y-6100000D01*
X2427731Y-6428765D02*
X2723363D01*
X-1700000Y-9000000D02*
Y-8650000D01*
X-147841Y-7471698D02*
X150001Y-7173856D01*
X-3396484Y-6502707D02*
X-2874941D01*
X-2859532Y-6487299D02*
X-2818929D01*
X-2874941Y-6502707D02*
X-2859532Y-6487299D01*
X-2818929D02*
X-2808730Y-6477100D01*
X-3399343Y-6450657D02*
X-2896500D01*
X-3312329Y-6786567D02*
X-3225762Y-6700000D01*
X-2647486Y-6620485D02*
X-2600000Y-6572999D01*
X2704165Y-6454165D02*
X2749205Y-6499205D01*
X2934626D01*
X2735727Y-6524605D02*
X2992320D01*
X2672175Y-6588158D02*
X2735727Y-6524605D01*
X2660077Y-6649200D02*
X2759272Y-6550005D01*
X2578958Y-6649200D02*
X2660077D01*
X2759272Y-6550005D02*
X3062344D01*
X2816318Y-6591722D02*
X3416151D01*
X2733441Y-6674600D02*
X2816318Y-6591722D01*
X1550000Y-5650000D02*
X2024285Y-6124285D01*
X1609828Y-5610862D02*
X2427731Y-6428765D01*
X1622860Y-5569560D02*
X2079648Y-6026348D01*
X2723363Y-6428765D02*
X2757572Y-6462973D01*
X2815091D01*
X2821634Y-6456430D02*
X2876866D01*
X2815091Y-6462973D02*
X2821634Y-6456430D01*
X1037209Y-5503991D02*
X1102778Y-5569560D01*
X1622860D01*
X900501Y-5507147D02*
X1004215Y-5610862D01*
X1609828D01*
X300256Y2793779D02*
Y3435767D01*
Y2793779D02*
X422500Y2671536D01*
Y2300000D02*
Y2671536D01*
X-3007148Y-8700501D02*
X-2900501D01*
X-2700000Y-8500000D01*
Y-8350000D01*
X-2800000Y-8500000D02*
Y-8350000D01*
X-2900501Y-8600501D02*
X-2800000Y-8500000D01*
X-3007148Y-8600501D02*
X-2900501D01*
X3155756Y-7305846D02*
X3379641Y-7081961D01*
X3110813Y-7250000D02*
X3304252Y-7056561D01*
X2020223Y-7600000D02*
X2420222Y-7200000D01*
X3102150D01*
X3286542Y-7015608D01*
X2100000Y-7450000D02*
X2461707Y-7088293D01*
X4100000Y-7600000D02*
Y-7416121D01*
X3683111Y-7089495D02*
X3773373D01*
X3448727Y-7053134D02*
X3646751D01*
X3683111Y-7089495D01*
X3773373D02*
X4100000Y-7416121D01*
X3379641Y-7081961D02*
X3419900D01*
X3448727Y-7053134D01*
X1848534Y-8076935D02*
X2380590Y-7544879D01*
X826935Y-8076935D02*
X1848534D01*
X-3812469Y-8657867D02*
X-3413302D01*
X-3348386Y-8592952D02*
X-3160762D01*
X-3413302Y-8657867D02*
X-3348386Y-8592952D01*
X-3944083Y-8526253D02*
X-3812469Y-8657867D01*
X-4033418Y-8526254D02*
X-3876404Y-8683267D01*
X-3160762D01*
X-3099682D01*
X-3082448Y-8700501D01*
X-3007148D01*
X-3078160Y-8600501D02*
X-3007148D01*
X-3085709Y-8592952D02*
X-3078160Y-8600501D01*
X-3160762Y-8592952D02*
X-3085709D01*
X-150000Y-7400000D02*
X50001Y-7199999D01*
Y-6594938D01*
X150001Y-7173856D02*
Y-6594939D01*
X3237918Y-6719140D02*
X3467718D01*
X3218778Y-6700000D02*
X3237918Y-6719140D01*
X1659080Y-6800000D02*
X1950000D01*
X2992320Y-6524605D02*
X3157023Y-6359903D01*
X3062344Y-6550005D02*
X3215375Y-6396975D01*
X918355Y-5650000D02*
X1550000D01*
X800502Y-5532147D02*
X918355Y-5650000D01*
X3304252Y-7056561D02*
X3409379D01*
X3438206Y-7027734D01*
X3698528D01*
X-3478114Y-6825109D02*
X-3458224Y-6845000D01*
X-3371872D01*
X-3490341Y-6786567D02*
X-3312329D01*
X2870495Y-6462802D02*
X2876866Y-6456430D01*
D12*
X-1532497Y-5417503D02*
Y-2932497D01*
Y-5417503D02*
X-1350000Y-5600000D01*
X-1532497Y-2932497D02*
X-1250000Y-2650000D01*
Y-1450000D01*
X-1350000Y-5600000D02*
X-814957D01*
X-614064Y-5800893D01*
Y-6351354D02*
Y-5800893D01*
X-1212710Y-6950000D02*
X-614064Y-6351354D01*
X-2675000Y-6950000D02*
X-1212710D01*
X-1227276Y-6845801D02*
X-700000Y-6318524D01*
X-3027494Y-6845801D02*
X-1227276D01*
X-700000Y-6318524D02*
Y-5850000D01*
X-2950000Y-6950000D02*
X-2675000D01*
X-3050000Y-7050000D02*
X-2950000Y-6950000D01*
X-3260448Y-7050000D02*
X-3050000D01*
X-3326307Y-7115859D02*
X-3260448Y-7050000D01*
X-3145335Y-6963642D02*
X-3027494Y-6845801D01*
X-3445154Y-6895575D02*
X-3377087Y-6963642D01*
X-3145335D01*
X-1805230Y-7844769D02*
X-1582807Y-7622346D01*
X-1805230Y-8094770D02*
Y-7844769D01*
X-1582807Y-7622346D02*
X-97407D01*
X-1805230Y-8094770D02*
X-1668762Y-8231238D01*
Y-8457257D02*
Y-8231238D01*
X-3606963Y-6895575D02*
X-3522828D01*
X-3700000Y-6988613D02*
X-3606963Y-6895575D01*
X-3700000Y-7200000D02*
Y-6988613D01*
X-4000000Y-7500000D02*
X-3700000Y-7200000D01*
X-4400000Y-6881194D02*
X-4118797Y-6599991D01*
X-4400000Y-7300000D02*
Y-6881194D01*
Y-7500000D02*
X-4000000D01*
X-690174Y830174D02*
X-660000Y800000D01*
X-97407Y-7622346D02*
X100001Y-7424938D01*
X-3522828Y-6895575D02*
X-3445154D01*
X-3818799Y-6599991D02*
X-3618798Y-6399990D01*
X-4118797Y-6599991D02*
X-3818799D01*
D83*
X-684481Y-3198347D02*
X-600000Y-3113867D01*
X-750000Y-3198347D02*
X-684481D01*
X-600000Y-3113867D02*
Y-2761750D01*
X-675401Y-3105747D02*
X-650000Y-3080345D01*
X-600000Y-2761750D02*
X-566027Y-2727777D01*
X-642227Y-2647610D02*
Y-2263636D01*
X-700000Y-3050000D02*
Y-2705383D01*
X-642227Y-2647610D01*
X-750000Y-3099449D02*
Y-2701501D01*
X-680327Y-2631829D01*
Y-2247854D01*
X-800000Y-2697620D02*
X-718427Y-2616047D01*
Y-2232073D01*
X-800000Y-3050000D02*
Y-2697620D01*
X-604127Y-2711996D02*
Y-2279417D01*
X-650000Y-3080345D02*
Y-2757868D01*
X-604127Y-2711996D01*
X-566027Y-2727777D02*
Y-2295199D01*
X-550000Y-2768996D02*
X-527927Y-2746923D01*
Y-2310980D01*
X-550000Y-3050000D02*
Y-2768996D01*
X-850000Y-3050000D02*
Y-2619408D01*
X-793599Y-2563007D02*
Y-2503227D01*
X-850000Y-2619408D02*
X-793599Y-2563007D01*
X-793600Y-2503227D02*
X-793599D01*
X-900000Y-3100000D02*
Y-2615526D01*
X-831700Y-2452535D02*
X-831699Y-2452536D01*
X-831700Y-2452535D02*
Y-2185154D01*
X-831699Y-2547225D02*
Y-2452536D01*
X-900000Y-2615526D02*
X-831699Y-2547225D01*
X-869800Y-2468316D02*
Y-2169372D01*
X-869799Y-2531444D02*
Y-2468317D01*
X-950000Y-2611645D02*
X-869799Y-2531444D01*
X-869800Y-2468316D02*
X-869799Y-2468317D01*
X-950000Y-3050000D02*
Y-2611645D01*
X-1011900Y-3138100D02*
Y-2619663D01*
Y-3138100D02*
X-950000Y-3200000D01*
X-907900Y-2484098D02*
X-907899Y-2484099D01*
Y-2515662D02*
Y-2484099D01*
X-1011900Y-2619663D02*
X-907899Y-2515662D01*
X-907900Y-2484098D02*
Y-2153591D01*
X-1050000Y-2603882D02*
X-945999Y-2499880D01*
X-1050000Y-3250000D02*
Y-2603882D01*
X-1100000Y-3050000D02*
Y-2600000D01*
X-984099Y-2484099D01*
X-945999Y-2499880D02*
Y-2137810D01*
X-984099Y-2484099D02*
Y-2122028D01*
X-793600Y-2503227D02*
Y-2200935D01*
X-642227Y-2263636D02*
X26200Y-1595208D01*
X-527927Y-2310980D02*
X140500Y-1642553D01*
X-566027Y-2295199D02*
X102400Y-1626771D01*
X-604127Y-2279417D02*
X64300Y-1610990D01*
X-680327Y-2247854D02*
X-11900Y-1579427D01*
X-718427Y-2232073D02*
X-50000Y-1563645D01*
X-831700Y-2185154D02*
X-163272Y-1516726D01*
X-793600Y-2200935D02*
X-125172Y-1532508D01*
X-869800Y-2169372D02*
X-201372Y-1500945D01*
X-945999Y-2137810D02*
X-277571Y-1469382D01*
X-907900Y-2153591D02*
X-239472Y-1485163D01*
X-984099Y-2122028D02*
X-315671Y-1453601D01*
X26200Y-1595208D02*
Y-479714D01*
X126200Y-379714D02*
Y1718436D01*
X-50000Y-1563645D02*
Y-448151D01*
X-11900Y-1579427D02*
Y-463933D01*
X-50000Y-448151D02*
X50000Y-348151D01*
Y1750000D01*
X26200Y-479714D02*
X126200Y-379714D01*
X88100Y-363933D02*
Y1734218D01*
X-11900Y-463933D02*
X88100Y-363933D01*
X126200Y1718436D02*
X307764Y1900000D01*
X88100Y1734218D02*
X653883Y2300000D01*
X-426200Y190142D02*
X-126200Y490142D01*
Y1718437D01*
X-307763Y1900000D02*
X-126200Y1718437D01*
X-653882Y2300000D02*
X-88100Y1734219D01*
X-388100Y174360D02*
X-88100Y474360D01*
Y1734219D01*
X-426200Y-258442D02*
Y190142D01*
X-388100Y-242661D02*
Y174360D01*
X-426200Y-258442D02*
X-201372Y-483270D01*
X-388100Y-242661D02*
X-163272Y-467488D01*
X-201372Y-1500945D02*
Y-483270D01*
X-163272Y-1516726D02*
Y-467488D01*
X-350000Y-226879D02*
Y158579D01*
Y-226879D02*
X-125172Y-451707D01*
Y-1532508D02*
Y-451707D01*
X-239472Y-1485163D02*
Y-852766D01*
X-492238Y-599999D02*
X-288402Y-803835D01*
Y-803836D02*
Y-803835D01*
Y-803836D02*
X-239472Y-852766D01*
X-277571Y-1469382D02*
Y-868547D01*
X-508019Y-638099D02*
X-277571Y-868547D01*
X-315671Y-1453601D02*
Y-884328D01*
X-523801Y-676199D02*
X-315671Y-884328D01*
X140500Y-1642553D02*
Y-909500D01*
X540041Y-509959D01*
X102400Y-893719D02*
X501941Y-494178D01*
X102400Y-1626771D02*
Y-893719D01*
X64300Y-1610990D02*
Y-877937D01*
X463841Y-478396D01*
X-661899Y-484218D02*
X-546118Y-599999D01*
X-492238D01*
X-661900Y-484218D02*
Y261900D01*
X-699999Y-500000D02*
X-561900Y-638099D01*
X-700000Y-212018D02*
X-699999Y-212019D01*
X-700000Y-212018D02*
Y246119D01*
X-561900Y-638099D02*
X-508019D01*
X-699999Y-500000D02*
Y-212019D01*
X-577681Y-676199D02*
X-523801D01*
X-350000Y158579D02*
X-50000Y458579D01*
X-738100Y-227799D02*
X-738099Y-227800D01*
Y-515781D02*
Y-227800D01*
Y-515781D02*
X-577681Y-676199D01*
X-738100Y-227799D02*
Y230337D01*
X-907763Y400000D02*
X-738100Y230337D01*
X-1000000Y503882D02*
X-984218Y488100D01*
X-1000000Y503882D02*
Y600000D01*
X-984218Y488100D02*
X-888100D01*
X-661900Y261900D01*
X-903882Y450000D02*
X-700000Y246119D01*
X463841Y-478396D02*
Y63841D01*
X1000000Y600000D01*
X540041Y32278D02*
X907763Y400000D01*
X540041Y-509959D02*
Y32278D01*
X501941Y-494178D02*
Y48059D01*
X-1000000Y2300000D02*
X-653882D01*
X-50000Y458579D02*
Y1750000D01*
X-1000000Y2700001D02*
X-50000Y1750000D01*
X50000D02*
X1000000Y2700000D01*
X653883Y2300000D02*
X1000001D01*
X-1000000Y1900000D02*
X-307763D01*
X307764Y1900000D02*
X1000001D01*
X-1000000Y750000D02*
Y1000001D01*
X-1100000Y650000D02*
X-1000000Y750000D01*
X-1100000Y550000D02*
Y650000D01*
Y550000D02*
X-1000000Y450000D01*
X-903882D01*
X-1000000Y1100000D02*
Y1400001D01*
X-1150000Y950000D02*
X-1000000Y1100000D01*
X-1150000Y500000D02*
X-1050000Y400000D01*
X-1150000Y500000D02*
Y950000D01*
X-1050000Y400000D02*
X-907763D01*
X907763Y400000D02*
X1050000D01*
X1150000Y500000D02*
Y950000D01*
X1050000Y400000D02*
X1150000Y500000D01*
X1000000Y1100000D02*
X1150000Y950000D01*
X1000000Y1100000D02*
Y1400001D01*
X501941Y48059D02*
X903882Y450000D01*
X1000000D01*
X1100000Y550000D01*
Y650000D01*
X1000000Y750000D02*
X1100000Y650000D01*
X1000000Y750000D02*
Y1000001D01*
Y600000D02*
Y600000D01*
D86*
X-556013Y-7185261D02*
X-449999Y-7079247D01*
Y-5999998D01*
X350000Y-5750000D02*
X705859Y-5394141D01*
X1112669D02*
X1212371Y-5493843D01*
X705859Y-5394141D02*
X1112669D01*
X1212371Y-5493843D02*
X1443843D01*
X-449999Y-5999998D02*
X-200000Y-5750000D01*
X350000D01*
D93*
X-1249504Y-1399076D02*
D03*
D94*
X-4400000Y-7400000D02*
D03*
D95*
X1548734Y-5450755D02*
D03*
D98*
X-1654000Y-7950000D02*
D03*
X-127000Y-7950000D02*
D03*
X1400001Y-7950000D02*
D03*
D99*
X-1400000Y-7950000D02*
D03*
X127000Y-7950000D02*
D03*
X1654001Y-7950000D02*
D03*
D100*
X-5125000Y-6875000D02*
D03*
X-5625000D02*
D03*
D101*
X-5375000Y-7425000D02*
D03*
X-5625000Y-6365000D02*
D03*
D102*
X-4815000Y-6425000D02*
D03*
X-5015000Y-6565000D02*
D03*
X-5625000Y-7325000D02*
D03*
X-4815000Y-6715000D02*
D03*
X-5125000Y-7235000D02*
D03*
D103*
X-4795000Y-6945000D02*
D03*
D104*
X-1400000Y4625000D02*
D03*
X1400000D02*
D03*
X-1400000Y0D02*
D03*
X1400000D02*
D03*
X-1400000Y-6000000D02*
D03*
X1400000D02*
D03*
X1000000Y-8750000D02*
D03*
X-1000000D02*
D03*
D105*
X-660000Y800000D02*
D03*
X660000Y800000D02*
D03*
D106*
X289001Y-8614938D02*
D03*
X-288999D02*
D03*
D107*
X404904Y3154618D02*
D03*
X3462533Y-6648866D02*
D03*
X3460776Y-6880372D02*
D03*
X25001Y-8374938D02*
D03*
X-74999Y-8374938D02*
D03*
X3029970Y-7626690D02*
D03*
X2971901Y-7604645D02*
D03*
X2700000Y-7250000D02*
D03*
X3135385Y-7369227D02*
D03*
X-675401Y-3105747D02*
D03*
X-550000Y-3050000D02*
D03*
X-800000D02*
D03*
X-700000D02*
D03*
X-950000Y-3200000D02*
D03*
X-1100000Y-3050000D02*
D03*
X-950000D02*
D03*
X-850000D02*
D03*
X2521428Y-6517725D02*
D03*
X2880265Y-6642855D02*
D03*
X350000Y3700000D02*
D03*
X300000D02*
D03*
X300256Y3435767D02*
D03*
X200000Y3650000D02*
D03*
X3157023Y-6359903D02*
D03*
X3467718Y-6719140D02*
D03*
X3748528Y-8262356D02*
D03*
X3608547D02*
D03*
X3748528Y-8171556D02*
D03*
X3608547D02*
D03*
X3748528Y-8080757D02*
D03*
X3608547D02*
D03*
X3748528Y-7989957D02*
D03*
X3608547D02*
D03*
X-358830Y-3833172D02*
D03*
X-3825707Y-7215001D02*
D03*
X-3312536Y-6888986D02*
D03*
X-3371872Y-6845000D02*
D03*
X-3312329Y-6786567D02*
D03*
X3606080Y-7558802D02*
D03*
X3608547Y-7899158D02*
D03*
Y-7808359D02*
D03*
Y-7717559D02*
D03*
Y-7626760D02*
D03*
X3748528D02*
D03*
Y-7717559D02*
D03*
Y-7808359D02*
D03*
Y-7899158D02*
D03*
X-3176264Y-8754044D02*
D03*
X-4110333Y-8549867D02*
D03*
X-3875501Y-8517852D02*
D03*
X3518518Y-6667744D02*
D03*
Y-6757744D02*
D03*
Y-6847744D02*
D03*
X-600000Y-5450000D02*
D03*
X-800000D02*
D03*
X3555206Y-7143841D02*
D03*
X3509311Y-7151214D02*
D03*
X3600480Y-7466971D02*
D03*
X3603280Y-7512887D02*
D03*
X3368888Y-7212358D02*
D03*
X2717391Y-7393377D02*
D03*
X3003231Y-7151946D02*
D03*
X2717391Y-7317245D02*
D03*
X250000Y3650000D02*
D03*
Y3600000D02*
D03*
X200000D02*
D03*
X450501Y3617852D02*
D03*
Y3567852D02*
D03*
X450502Y3517852D02*
D03*
X2928052Y-6417806D02*
D03*
X2876866Y-6456430D02*
D03*
X2786287Y-6420923D02*
D03*
X3286542Y-7015608D02*
D03*
X3748528Y-7535960D02*
D03*
X3487125Y-7912714D02*
D03*
Y-7786643D02*
D03*
X2938304Y-7681596D02*
D03*
X2839931Y-7786655D02*
D03*
Y-7912726D02*
D03*
X2910607Y-8010145D02*
D03*
X3021396Y-8047393D02*
D03*
X3119769D02*
D03*
X3218143D02*
D03*
X3316516D02*
D03*
X3395348Y-7998665D02*
D03*
X3371333Y-7695288D02*
D03*
X3261548Y-7657550D02*
D03*
X3109272Y-7586165D02*
D03*
X3096731Y-7667942D02*
D03*
X3227623Y-7561114D02*
D03*
X3548528Y-6577735D02*
D03*
X3744413Y-7393622D02*
D03*
X3721713Y-7354305D02*
D03*
X3690322Y-7137461D02*
D03*
X3689611Y-7322203D02*
D03*
X3657508Y-7290100D02*
D03*
X3625406Y-7257997D02*
D03*
X3541894Y-6904662D02*
D03*
X3316158Y-7528020D02*
D03*
X3565935Y-7383296D02*
D03*
X3233903Y-7468564D02*
D03*
X3588635Y-7422613D02*
D03*
X3501730Y-7319091D02*
D03*
X3469628Y-7286988D02*
D03*
X3446928Y-7247671D02*
D03*
X3414825Y-7215568D02*
D03*
X3594211Y-7117696D02*
D03*
X3533833Y-7351193D02*
D03*
X699499Y-1367852D02*
D03*
D108*
X50501Y-4480948D02*
D03*
X3300000Y-6400000D02*
D03*
X550000Y-8000000D02*
D03*
X-1189916Y-7905632D02*
D03*
X-1250000Y-1350000D02*
D03*
Y-1450000D02*
D03*
X-2675000Y-6950000D02*
D03*
X-1450000Y-8550000D02*
D03*
X-1000000Y-2050000D02*
D03*
Y-1950000D02*
D03*
X444137Y-8224565D02*
D03*
X-450000Y-8300000D02*
D03*
X940000Y-7890020D02*
D03*
X-1000000Y-7950000D02*
D03*
X-915182Y-7874129D02*
D03*
X-557904Y-7185261D02*
D03*
X-599521Y-7241253D02*
D03*
X-4400000Y-7400000D02*
D03*
Y-7500000D02*
D03*
Y-7300000D02*
D03*
X-3650000Y-6600000D02*
D03*
X-3950000Y-6900000D02*
D03*
X0Y-5950000D02*
D03*
X100000D02*
D03*
X200000D02*
D03*
X300000D02*
D03*
X-757500Y-5795000D02*
D03*
X-700000Y-5850000D02*
D03*
X-2656377Y-6759690D02*
D03*
X-2250000Y-6500000D02*
D03*
X-1197500Y-8140000D02*
D03*
X-400522Y-2842864D02*
D03*
X-750000Y-3198347D02*
D03*
Y-3100000D02*
D03*
X-425000Y-2625000D02*
D03*
X-1050000Y-3250000D02*
D03*
X-900000Y-3100000D02*
D03*
X-1000000Y2300000D02*
D03*
X-1000000Y2700001D02*
D03*
X1000000Y2700000D02*
D03*
Y2300001D02*
D03*
X-1000000Y1900000D02*
D03*
X1000000Y1900001D02*
D03*
X799492Y-442855D02*
D03*
X-2650000Y-6500000D02*
D03*
X-2747607Y-6550000D02*
D03*
X-2808730Y-6477100D02*
D03*
X-2896500Y-6450657D02*
D03*
X-3500000Y-8000000D02*
D03*
X2500000Y-7800000D02*
D03*
X1450000Y-5500000D02*
D03*
X1550000D02*
D03*
X1650000Y-5400000D02*
D03*
Y-5500000D02*
D03*
X1450000Y-5400000D02*
D03*
X1550000D02*
D03*
X201791Y2217732D02*
D03*
X650492Y2817850D02*
D03*
X-450010Y3649990D02*
D03*
X-450011Y3749990D02*
D03*
X422500Y2300000D02*
D03*
X76612Y3209783D02*
D03*
X36340Y3286259D02*
D03*
X-700000Y-4800000D02*
D03*
X5025000Y-8175000D02*
D03*
X-5025000Y-8175000D02*
D03*
X-3975000D02*
D03*
X3923530Y-8127741D02*
D03*
X-3314425Y-8262601D02*
D03*
X-2700000Y-8350000D02*
D03*
X-2800000D02*
D03*
X-1000000Y600000D02*
D03*
X-1000000Y1000001D02*
D03*
X-1000000Y1400001D02*
D03*
X1000000Y1400001D02*
D03*
Y1000001D02*
D03*
Y600000D02*
D03*
X2500000Y-6350000D02*
D03*
X4100000Y-7600000D02*
D03*
X-400498Y-442851D02*
D03*
X-600499Y-442852D02*
D03*
X1300502Y-3157149D02*
D03*
X700498Y-2957148D02*
D03*
X-250001Y3949999D02*
D03*
X-250002Y3849999D02*
D03*
X-150001Y3949999D02*
D03*
X-150000Y3849999D02*
D03*
X-50001Y3949999D02*
D03*
X-50000Y3850000D02*
D03*
X-250000Y0D02*
D03*
X-250000Y-100000D02*
D03*
X-150000Y0D02*
D03*
X-150000Y-100000D02*
D03*
X-50000Y0D02*
D03*
X-49999Y-100000D02*
D03*
X-1150000Y-850000D02*
D03*
X-1050000D02*
D03*
X-1150000Y-750000D02*
D03*
X-1050000D02*
D03*
X-1150000Y-650000D02*
D03*
X-1050000D02*
D03*
X-2400000Y-8600000D02*
D03*
X-2570157Y-8916204D02*
D03*
X-2500000Y-8600000D02*
D03*
X-2000000Y-8450000D02*
D03*
X-2150000D02*
D03*
X-1668762Y-8457257D02*
D03*
X3800000Y-6950000D02*
D03*
X3215375Y-6396975D02*
D03*
X2623504Y-6227765D02*
D03*
X2823506Y-6227764D02*
D03*
X3023508Y-6227763D02*
D03*
X3223511Y-6227761D02*
D03*
X3423513Y-6227760D02*
D03*
X3623515Y-6227759D02*
D03*
X-2075000Y-8930000D02*
D03*
X-1550000Y-9000001D02*
D03*
X-579999Y-6894938D02*
D03*
X-1700000Y-9000000D02*
D03*
X-425000Y-2700000D02*
D03*
X150000Y-5450000D02*
D03*
X1300501Y-5357147D02*
D03*
Y-5157147D02*
D03*
Y-4957147D02*
D03*
Y-4757147D02*
D03*
Y-4557147D02*
D03*
X-99499Y-4480948D02*
D03*
X-21999Y-4480947D02*
D03*
X723542Y-4422443D02*
D03*
X-216999Y-4387147D02*
D03*
X-21999Y-4381747D02*
D03*
X1300501Y-4357147D02*
D03*
X-774499Y-4307147D02*
D03*
X-1299499Y-5357147D02*
D03*
X-1099499D02*
D03*
X-899499D02*
D03*
X-1299499Y-5157147D02*
D03*
X-509606Y-4994683D02*
D03*
X-1299499Y-4957148D02*
D03*
Y-4757148D02*
D03*
Y-4557148D02*
D03*
X-774499Y-4407147D02*
D03*
X-1299499Y-4357148D02*
D03*
X800502Y-5532147D02*
D03*
X900501Y-5507147D02*
D03*
X1037209Y-5503991D02*
D03*
X-774499Y-4207147D02*
D03*
X-1299499Y-4157148D02*
D03*
X-474499Y-4107147D02*
D03*
X-899496Y-3857150D02*
D03*
X-799496D02*
D03*
X-702160Y-3658282D02*
D03*
X-499499Y-3657147D02*
D03*
X-1299499Y-3557148D02*
D03*
X-695740Y-3520120D02*
D03*
X-799496Y-3457150D02*
D03*
X-899496D02*
D03*
X-1299499Y-3357148D02*
D03*
Y-3157148D02*
D03*
Y-2957148D02*
D03*
Y-3757148D02*
D03*
Y-3957148D02*
D03*
X300501Y-4257147D02*
D03*
X-74499Y-4107147D02*
D03*
X-124499Y-4007147D02*
D03*
X180501D02*
D03*
X-199499Y-3757147D02*
D03*
X300501Y-3732147D02*
D03*
X175501Y-3657147D02*
D03*
X75501Y-3357147D02*
D03*
X-144499Y-3257148D02*
D03*
X-399499Y-3257147D02*
D03*
X-99500Y-2957148D02*
D03*
X-299500D02*
D03*
X100500D02*
D03*
X300500D02*
D03*
X1300501Y-4157148D02*
D03*
X700494Y-3957147D02*
D03*
X1300501D02*
D03*
X800501D02*
D03*
X1300501Y-3757147D02*
D03*
Y-3557147D02*
D03*
Y-3357147D02*
D03*
X500499Y-2957148D02*
D03*
X900499D02*
D03*
X1100499D02*
D03*
X1300501Y-2957147D02*
D03*
X2820264Y-7621515D02*
D03*
X-3450003Y-7021558D02*
D03*
X-3794258Y-7016062D02*
D03*
X-3344489Y-6391279D02*
D03*
X-3950000Y-6700000D02*
D03*
X-3618798Y-6399990D02*
D03*
X-4118797Y-6599991D02*
D03*
X-3326307Y-7115859D02*
D03*
X-3522828Y-6895575D02*
D03*
X-2600000Y-6572999D02*
D03*
X-2600000Y-6700000D02*
D03*
X3923530Y-7927738D02*
D03*
X1848528Y-7727734D02*
D03*
X1848532Y-7877734D02*
D03*
X400502Y3817851D02*
D03*
X500501Y3817852D02*
D03*
X600501Y3817852D02*
D03*
X350501Y3617852D02*
D03*
X3648528Y-6577734D02*
D03*
X3823518Y-6227758D02*
D03*
X3923526Y-6327733D02*
D03*
X3923528Y-6527737D02*
D03*
X3923529Y-6727739D02*
D03*
X3923520Y-6927721D02*
D03*
X3923522Y-7127724D02*
D03*
X3923524Y-7327728D02*
D03*
X3923526Y-7527731D02*
D03*
X2928528Y-7007734D02*
D03*
Y-6897734D02*
D03*
Y-6787734D02*
D03*
X3038528D02*
D03*
X3148528D02*
D03*
X3038528Y-7007734D02*
D03*
X3148528D02*
D03*
X3038528Y-6897734D02*
D03*
X1848519Y-6527713D02*
D03*
X2898528Y-7527734D02*
D03*
X2348509Y-6227743D02*
D03*
X1948504Y-6227745D02*
D03*
X1848518Y-6327711D02*
D03*
X2148506Y-6227744D02*
D03*
X3923528Y-7727735D02*
D03*
X3698528Y-7027734D02*
D03*
X1848530Y-7327739D02*
D03*
X1848529Y-7127737D02*
D03*
X1848521Y-6927718D02*
D03*
X1848520Y-6727716D02*
D03*
X3548530Y-8177734D02*
D03*
X3488525Y-7647744D02*
D03*
X3348530Y-8177734D02*
D03*
X3148530D02*
D03*
X2948530D02*
D03*
X2748530D02*
D03*
X2548530D02*
D03*
X2348530D02*
D03*
X2148530D02*
D03*
X1948528Y-8177734D02*
D03*
X1848531Y-7527742D02*
D03*
X3148528Y-6897734D02*
D03*
X898959Y-1142852D02*
D03*
X974509Y-842843D02*
D03*
X-4000501Y-8717852D02*
D03*
X-525501Y-1292852D02*
D03*
X-925501Y-1567852D02*
D03*
X-562726Y-1123112D02*
D03*
X-925501Y-1667852D02*
D03*
X-3720000Y-6400000D02*
D03*
X430011Y-6744939D02*
D03*
X475001Y-7519938D02*
D03*
X-450000Y-7550000D02*
D03*
X-99999Y-7194938D02*
D03*
X250001Y-7169938D02*
D03*
X-525501Y-1217852D02*
D03*
X-1175501Y-1192852D02*
D03*
X474499Y-742852D02*
D03*
X521934Y-1012254D02*
D03*
X249489Y-1367861D02*
D03*
X249480Y-1617851D02*
D03*
X299499Y-1167852D02*
D03*
X-375511Y-1042862D02*
D03*
Y-942862D02*
D03*
X-3300501Y-8442852D02*
D03*
X-3850510Y-8767850D02*
D03*
X-3750492Y-8767862D02*
D03*
X-3517666Y-8741105D02*
D03*
X-3425492Y-8992862D02*
D03*
X199492Y-442855D02*
D03*
X399494Y-442854D02*
D03*
X599496Y-442853D02*
D03*
X999494Y-442854D02*
D03*
X1199496Y-442853D02*
D03*
X-800526Y-442849D02*
D03*
X-1200531Y-442851D02*
D03*
X-1000529Y-442850D02*
D03*
X-1400539Y-642840D02*
D03*
X-1400540Y-442838D02*
D03*
X-1400538Y-842843D02*
D03*
X-1400535Y-1442850D02*
D03*
X-1400536Y-1242847D02*
D03*
X-1400539Y-1842840D02*
D03*
X-1400540Y-1642838D02*
D03*
X-1400537Y-2242845D02*
D03*
X-1400538Y-2042843D02*
D03*
X-1400535Y-2642850D02*
D03*
X-1400536Y-2442848D02*
D03*
X-1200531Y-2842868D02*
D03*
X-517Y-2842862D02*
D03*
X-200519Y-2842863D02*
D03*
X399488Y-2842860D02*
D03*
X199486Y-2842861D02*
D03*
X799493Y-2842858D02*
D03*
X599490Y-2842859D02*
D03*
X999495Y-2842857D02*
D03*
X1199497Y-2842856D02*
D03*
X1399500Y-2842855D02*
D03*
X1399509Y-2442876D02*
D03*
X1399508Y-2242874D02*
D03*
X1399507Y-2042871D02*
D03*
X1399506Y-1842869D02*
D03*
X1399505Y-1642867D02*
D03*
X1399504Y-1442864D02*
D03*
X1399503Y-1242862D02*
D03*
X1399502Y-1042859D02*
D03*
X1399501Y-842857D02*
D03*
X1399499Y-442852D02*
D03*
X1399500Y-642855D02*
D03*
X669498Y-2032852D02*
D03*
Y-1942852D02*
D03*
X650001Y-7194938D02*
D03*
X550002Y-7094938D02*
D03*
X650001D02*
D03*
X600001Y-7144937D02*
D03*
X-1850000Y-9000000D02*
D03*
X579498Y-2032852D02*
D03*
X489499D02*
D03*
X399499D02*
D03*
Y-1942852D02*
D03*
X489499D02*
D03*
X579498D02*
D03*
X-579999Y-6794939D02*
D03*
X550001Y-7194938D02*
D03*
X-4033418Y-8526254D02*
D03*
X-3944083Y-8526253D02*
D03*
X-3160762Y-8683267D02*
D03*
Y-8592952D02*
D03*
X795419Y-756840D02*
D03*
X706083Y-667505D02*
D03*
X795418D02*
D03*
X706083Y-578171D02*
D03*
X795418D02*
D03*
X-3007148Y-8600501D02*
D03*
Y-8700501D02*
D03*
X330004Y-6724929D02*
D03*
X150001Y-6594939D02*
D03*
X50001Y-6594938D02*
D03*
X100001Y-7424938D02*
D03*
D109*
X1550000Y-5400000D02*
Y-2777150D01*
X579498Y-2342852D02*
Y-2032852D01*
X862211Y-2625564D02*
X1398414D01*
X1550000Y-2777150D01*
X579498Y-2342852D02*
X862211Y-2625564D01*
D110*
X534499Y-1987817D02*
D03*
%TF.MD5,dfcab66910b3b88809610b3f39ed5167*%
M02*
