%TF.GenerationSoftware,Altium Limited,Altium Designer,22.5.1 (42)*%
G04 Layer_Color=0*
%FSLAX45Y45*%
%MOMM*%
%TF.SameCoordinates,09306DCC-7258-43E0-A79C-DC35209E08F8*%
%TF.FilePolarity,Positive*%
%TF.FileFunction,Plated,1,4,PTH,Drill*%
%TF.Part,Single*%
G01*
G75*
%TA.AperFunction,ComponentDrill*%
%ADD209C,1.00000*%
%ADD210O,1.30000X0.80000*%
%ADD211O,0.80000X1.30000*%
%TA.AperFunction,OtherDrill,Pad Free-0 (-14mm,46.25mm)*%
%ADD212C,3.20000*%
%TA.AperFunction,OtherDrill,Pad Free-0 (14mm,46.25mm)*%
%ADD213C,3.20000*%
%TA.AperFunction,OtherDrill,Pad Free-0 (-14mm,0mm)*%
%ADD214C,3.20000*%
%TA.AperFunction,OtherDrill,Pad Free-0 (14mm,0mm)*%
%ADD215C,3.20000*%
%TA.AperFunction,OtherDrill,Pad Free-0 (-14mm,-60mm)*%
%ADD216C,3.20000*%
%TA.AperFunction,OtherDrill,Pad Free-0 (14mm,-60mm)*%
%ADD217C,3.20000*%
%TA.AperFunction,OtherDrill,Pad Free-0 (10mm,-87.5mm)*%
%ADD218C,3.20000*%
%TA.AperFunction,OtherDrill,Pad Free-0 (-10mm,-87.5mm)*%
%ADD219C,3.20000*%
%TA.AperFunction,ComponentDrill*%
%ADD220C,1.80000*%
%TA.AperFunction,ViaDrill,NotFilled*%
%ADD221C,0.20000*%
%ADD222C,0.40000*%
D209*
X-1654000Y-7950000D02*
D03*
X-1400000D02*
D03*
X127000Y-7950000D02*
D03*
X-127000D02*
D03*
X1400001Y-7950000D02*
D03*
X1654001D02*
D03*
D210*
X-5375000Y-7425000D02*
D03*
X-5625000Y-6365000D02*
D03*
X-4815000Y-6425000D02*
D03*
X-5015000Y-6565000D02*
D03*
X-5625000Y-7325000D02*
D03*
X-4815000Y-6715000D02*
D03*
X-5125000Y-7235000D02*
D03*
D211*
X-4795000Y-6945000D02*
D03*
D212*
X-1400000Y4625000D02*
D03*
D213*
X1400000D02*
D03*
D214*
X-1400000Y0D02*
D03*
D215*
X1400000D02*
D03*
D216*
X-1400000Y-6000000D02*
D03*
D217*
X1400000D02*
D03*
D218*
X1000000Y-8750000D02*
D03*
D219*
X-1000000D02*
D03*
D220*
X-660000Y800000D02*
D03*
X660000Y800000D02*
D03*
D221*
X404904Y3154618D02*
D03*
X3462533Y-6648866D02*
D03*
X3460776Y-6880372D02*
D03*
X25001Y-8374938D02*
D03*
X-74999Y-8374938D02*
D03*
X3029970Y-7626690D02*
D03*
X2971901Y-7604645D02*
D03*
X2700000Y-7250000D02*
D03*
X3135385Y-7369227D02*
D03*
X-675401Y-3105747D02*
D03*
X-550000Y-3050000D02*
D03*
X-800000D02*
D03*
X-700000D02*
D03*
X-950000Y-3200000D02*
D03*
X-1100000Y-3050000D02*
D03*
X-950000D02*
D03*
X-850000D02*
D03*
X2521428Y-6517725D02*
D03*
X2880265Y-6642855D02*
D03*
X350000Y3700000D02*
D03*
X300000D02*
D03*
X300256Y3435767D02*
D03*
X200000Y3650000D02*
D03*
X3157023Y-6359903D02*
D03*
X3467718Y-6719140D02*
D03*
X3748528Y-8262356D02*
D03*
X3608547D02*
D03*
X3748528Y-8171556D02*
D03*
X3608547D02*
D03*
X3748528Y-8080757D02*
D03*
X3608547D02*
D03*
X3748528Y-7989957D02*
D03*
X3608547D02*
D03*
X-358830Y-3833172D02*
D03*
X-3825707Y-7215001D02*
D03*
X-3312536Y-6888986D02*
D03*
X-3371872Y-6845000D02*
D03*
X-3312329Y-6786567D02*
D03*
X3606080Y-7558802D02*
D03*
X3608547Y-7899158D02*
D03*
Y-7808359D02*
D03*
Y-7717559D02*
D03*
Y-7626760D02*
D03*
X3748528D02*
D03*
Y-7717559D02*
D03*
Y-7808359D02*
D03*
Y-7899158D02*
D03*
X-3176264Y-8754044D02*
D03*
X-4110333Y-8549867D02*
D03*
X-3875501Y-8517852D02*
D03*
X3518518Y-6667744D02*
D03*
Y-6757744D02*
D03*
Y-6847744D02*
D03*
X-600000Y-5450000D02*
D03*
X-800000D02*
D03*
X3555206Y-7143841D02*
D03*
X3509311Y-7151214D02*
D03*
X3600480Y-7466971D02*
D03*
X3603280Y-7512887D02*
D03*
X3368888Y-7212358D02*
D03*
X2717391Y-7393377D02*
D03*
X3003231Y-7151946D02*
D03*
X2717391Y-7317245D02*
D03*
X250000Y3650000D02*
D03*
Y3600000D02*
D03*
X200000D02*
D03*
X450501Y3617852D02*
D03*
Y3567852D02*
D03*
X450502Y3517852D02*
D03*
X2928052Y-6417806D02*
D03*
X2876866Y-6456430D02*
D03*
X2786287Y-6420923D02*
D03*
X3286542Y-7015608D02*
D03*
X3748528Y-7535960D02*
D03*
X3487125Y-7912714D02*
D03*
Y-7786643D02*
D03*
X2938304Y-7681596D02*
D03*
X2839931Y-7786655D02*
D03*
Y-7912726D02*
D03*
X2910607Y-8010145D02*
D03*
X3021396Y-8047393D02*
D03*
X3119769D02*
D03*
X3218143D02*
D03*
X3316516D02*
D03*
X3395348Y-7998665D02*
D03*
X3371333Y-7695288D02*
D03*
X3261548Y-7657550D02*
D03*
X3109272Y-7586165D02*
D03*
X3096731Y-7667942D02*
D03*
X3227623Y-7561114D02*
D03*
X3548528Y-6577735D02*
D03*
X3744413Y-7393622D02*
D03*
X3721713Y-7354305D02*
D03*
X3690322Y-7137461D02*
D03*
X3689611Y-7322203D02*
D03*
X3657508Y-7290100D02*
D03*
X3625406Y-7257997D02*
D03*
X3541894Y-6904662D02*
D03*
X3316158Y-7528020D02*
D03*
X3565935Y-7383296D02*
D03*
X3233903Y-7468564D02*
D03*
X3588635Y-7422613D02*
D03*
X3501730Y-7319091D02*
D03*
X3469628Y-7286988D02*
D03*
X3446928Y-7247671D02*
D03*
X3414825Y-7215568D02*
D03*
X3594211Y-7117696D02*
D03*
X3533833Y-7351193D02*
D03*
X699499Y-1367852D02*
D03*
D222*
X50501Y-4480948D02*
D03*
X3300000Y-6400000D02*
D03*
X550000Y-8000000D02*
D03*
X-1189916Y-7905632D02*
D03*
X-1250000Y-1350000D02*
D03*
Y-1450000D02*
D03*
X-2675000Y-6950000D02*
D03*
X-1450000Y-8550000D02*
D03*
X-1000000Y-2050000D02*
D03*
Y-1950000D02*
D03*
X444137Y-8224565D02*
D03*
X-450000Y-8300000D02*
D03*
X940000Y-7890020D02*
D03*
X-1000000Y-7950000D02*
D03*
X-915182Y-7874129D02*
D03*
X-557904Y-7185261D02*
D03*
X-599521Y-7241253D02*
D03*
X-4400000Y-7400000D02*
D03*
Y-7500000D02*
D03*
Y-7300000D02*
D03*
X-3650000Y-6600000D02*
D03*
X-3950000Y-6900000D02*
D03*
X0Y-5950000D02*
D03*
X100000D02*
D03*
X200000D02*
D03*
X300000D02*
D03*
X-757500Y-5795000D02*
D03*
X-700000Y-5850000D02*
D03*
X-2656377Y-6759690D02*
D03*
X-2250000Y-6500000D02*
D03*
X-1197500Y-8140000D02*
D03*
X-400522Y-2842864D02*
D03*
X-750000Y-3198347D02*
D03*
Y-3100000D02*
D03*
X-425000Y-2625000D02*
D03*
X-1050000Y-3250000D02*
D03*
X-900000Y-3100000D02*
D03*
X-1000000Y2300000D02*
D03*
X-1000000Y2700001D02*
D03*
X1000000Y2700000D02*
D03*
Y2300001D02*
D03*
X-1000000Y1900000D02*
D03*
X1000000Y1900001D02*
D03*
X799492Y-442855D02*
D03*
X-2650000Y-6500000D02*
D03*
X-2747607Y-6550000D02*
D03*
X-2808730Y-6477100D02*
D03*
X-2896500Y-6450657D02*
D03*
X-3500000Y-8000000D02*
D03*
X2500000Y-7800000D02*
D03*
X1450000Y-5500000D02*
D03*
X1550000D02*
D03*
X1650000Y-5400000D02*
D03*
Y-5500000D02*
D03*
X1450000Y-5400000D02*
D03*
X1550000D02*
D03*
X201791Y2217732D02*
D03*
X650492Y2817850D02*
D03*
X-450010Y3649990D02*
D03*
X-450011Y3749990D02*
D03*
X422500Y2300000D02*
D03*
X76612Y3209783D02*
D03*
X36340Y3286259D02*
D03*
X-700000Y-4800000D02*
D03*
X5025000Y-8175000D02*
D03*
X-5025000Y-8175000D02*
D03*
X-3975000D02*
D03*
X3923530Y-8127741D02*
D03*
X-3314425Y-8262601D02*
D03*
X-2700000Y-8350000D02*
D03*
X-2800000D02*
D03*
X-1000000Y600000D02*
D03*
X-1000000Y1000001D02*
D03*
X-1000000Y1400001D02*
D03*
X1000000Y1400001D02*
D03*
Y1000001D02*
D03*
Y600000D02*
D03*
X2500000Y-6350000D02*
D03*
X4100000Y-7600000D02*
D03*
X-400498Y-442851D02*
D03*
X-600499Y-442852D02*
D03*
X1300502Y-3157149D02*
D03*
X700498Y-2957148D02*
D03*
X-250001Y3949999D02*
D03*
X-250002Y3849999D02*
D03*
X-150001Y3949999D02*
D03*
X-150000Y3849999D02*
D03*
X-50001Y3949999D02*
D03*
X-50000Y3850000D02*
D03*
X-250000Y0D02*
D03*
X-250000Y-100000D02*
D03*
X-150000Y0D02*
D03*
X-150000Y-100000D02*
D03*
X-50000Y0D02*
D03*
X-49999Y-100000D02*
D03*
X-1150000Y-850000D02*
D03*
X-1050000D02*
D03*
X-1150000Y-750000D02*
D03*
X-1050000D02*
D03*
X-1150000Y-650000D02*
D03*
X-1050000D02*
D03*
X-2400000Y-8600000D02*
D03*
X-2570157Y-8916204D02*
D03*
X-2500000Y-8600000D02*
D03*
X-2000000Y-8450000D02*
D03*
X-2150000D02*
D03*
X-1668762Y-8457257D02*
D03*
X3800000Y-6950000D02*
D03*
X3215375Y-6396975D02*
D03*
X2623504Y-6227765D02*
D03*
X2823506Y-6227764D02*
D03*
X3023508Y-6227763D02*
D03*
X3223511Y-6227761D02*
D03*
X3423513Y-6227760D02*
D03*
X3623515Y-6227759D02*
D03*
X-2075000Y-8930000D02*
D03*
X-1550000Y-9000001D02*
D03*
X-579999Y-6894938D02*
D03*
X-1700000Y-9000000D02*
D03*
X-425000Y-2700000D02*
D03*
X150000Y-5450000D02*
D03*
X1300501Y-5357147D02*
D03*
Y-5157147D02*
D03*
Y-4957147D02*
D03*
Y-4757147D02*
D03*
Y-4557147D02*
D03*
X-99499Y-4480948D02*
D03*
X-21999Y-4480947D02*
D03*
X723542Y-4422443D02*
D03*
X-216999Y-4387147D02*
D03*
X-21999Y-4381747D02*
D03*
X1300501Y-4357147D02*
D03*
X-774499Y-4307147D02*
D03*
X-1299499Y-5357147D02*
D03*
X-1099499D02*
D03*
X-899499D02*
D03*
X-1299499Y-5157147D02*
D03*
X-509606Y-4994683D02*
D03*
X-1299499Y-4957148D02*
D03*
Y-4757148D02*
D03*
Y-4557148D02*
D03*
X-774499Y-4407147D02*
D03*
X-1299499Y-4357148D02*
D03*
X800502Y-5532147D02*
D03*
X900501Y-5507147D02*
D03*
X1037209Y-5503991D02*
D03*
X-774499Y-4207147D02*
D03*
X-1299499Y-4157148D02*
D03*
X-474499Y-4107147D02*
D03*
X-899496Y-3857150D02*
D03*
X-799496D02*
D03*
X-702160Y-3658282D02*
D03*
X-499499Y-3657147D02*
D03*
X-1299499Y-3557148D02*
D03*
X-695740Y-3520120D02*
D03*
X-799496Y-3457150D02*
D03*
X-899496D02*
D03*
X-1299499Y-3357148D02*
D03*
Y-3157148D02*
D03*
Y-2957148D02*
D03*
Y-3757148D02*
D03*
Y-3957148D02*
D03*
X300501Y-4257147D02*
D03*
X-74499Y-4107147D02*
D03*
X-124499Y-4007147D02*
D03*
X180501D02*
D03*
X-199499Y-3757147D02*
D03*
X300501Y-3732147D02*
D03*
X175501Y-3657147D02*
D03*
X75501Y-3357147D02*
D03*
X-144499Y-3257148D02*
D03*
X-399499Y-3257147D02*
D03*
X-99500Y-2957148D02*
D03*
X-299500D02*
D03*
X100500D02*
D03*
X300500D02*
D03*
X1300501Y-4157148D02*
D03*
X700494Y-3957147D02*
D03*
X1300501D02*
D03*
X800501D02*
D03*
X1300501Y-3757147D02*
D03*
Y-3557147D02*
D03*
Y-3357147D02*
D03*
X500499Y-2957148D02*
D03*
X900499D02*
D03*
X1100499D02*
D03*
X1300501Y-2957147D02*
D03*
X2820264Y-7621515D02*
D03*
X-3450003Y-7021558D02*
D03*
X-3794258Y-7016062D02*
D03*
X-3344489Y-6391279D02*
D03*
X-3950000Y-6700000D02*
D03*
X-3618798Y-6399990D02*
D03*
X-4118797Y-6599991D02*
D03*
X-3326307Y-7115859D02*
D03*
X-3522828Y-6895575D02*
D03*
X-2600000Y-6572999D02*
D03*
X-2600000Y-6700000D02*
D03*
X3923530Y-7927738D02*
D03*
X1848528Y-7727734D02*
D03*
X1848532Y-7877734D02*
D03*
X400502Y3817851D02*
D03*
X500501Y3817852D02*
D03*
X600501Y3817852D02*
D03*
X350501Y3617852D02*
D03*
X3648528Y-6577734D02*
D03*
X3823518Y-6227758D02*
D03*
X3923526Y-6327733D02*
D03*
X3923528Y-6527737D02*
D03*
X3923529Y-6727739D02*
D03*
X3923520Y-6927721D02*
D03*
X3923522Y-7127724D02*
D03*
X3923524Y-7327728D02*
D03*
X3923526Y-7527731D02*
D03*
X2928528Y-7007734D02*
D03*
Y-6897734D02*
D03*
Y-6787734D02*
D03*
X3038528D02*
D03*
X3148528D02*
D03*
X3038528Y-7007734D02*
D03*
X3148528D02*
D03*
X3038528Y-6897734D02*
D03*
X1848519Y-6527713D02*
D03*
X2898528Y-7527734D02*
D03*
X2348509Y-6227743D02*
D03*
X1948504Y-6227745D02*
D03*
X1848518Y-6327711D02*
D03*
X2148506Y-6227744D02*
D03*
X3923528Y-7727735D02*
D03*
X3698528Y-7027734D02*
D03*
X1848530Y-7327739D02*
D03*
X1848529Y-7127737D02*
D03*
X1848521Y-6927718D02*
D03*
X1848520Y-6727716D02*
D03*
X3548530Y-8177734D02*
D03*
X3488525Y-7647744D02*
D03*
X3348530Y-8177734D02*
D03*
X3148530D02*
D03*
X2948530D02*
D03*
X2748530D02*
D03*
X2548530D02*
D03*
X2348530D02*
D03*
X2148530D02*
D03*
X1948528Y-8177734D02*
D03*
X1848531Y-7527742D02*
D03*
X3148528Y-6897734D02*
D03*
X898959Y-1142852D02*
D03*
X974509Y-842843D02*
D03*
X-4000501Y-8717852D02*
D03*
X-525501Y-1292852D02*
D03*
X-925501Y-1567852D02*
D03*
X-562726Y-1123112D02*
D03*
X-925501Y-1667852D02*
D03*
X-3720000Y-6400000D02*
D03*
X430011Y-6744939D02*
D03*
X475001Y-7519938D02*
D03*
X-450000Y-7550000D02*
D03*
X-99999Y-7194938D02*
D03*
X250001Y-7169938D02*
D03*
X-525501Y-1217852D02*
D03*
X-1175501Y-1192852D02*
D03*
X474499Y-742852D02*
D03*
X521934Y-1012254D02*
D03*
X249489Y-1367861D02*
D03*
X249480Y-1617851D02*
D03*
X299499Y-1167852D02*
D03*
X-375511Y-1042862D02*
D03*
Y-942862D02*
D03*
X-3300501Y-8442852D02*
D03*
X-3850510Y-8767850D02*
D03*
X-3750492Y-8767862D02*
D03*
X-3517666Y-8741105D02*
D03*
X-3425492Y-8992862D02*
D03*
X199492Y-442855D02*
D03*
X399494Y-442854D02*
D03*
X599496Y-442853D02*
D03*
X999494Y-442854D02*
D03*
X1199496Y-442853D02*
D03*
X-800526Y-442849D02*
D03*
X-1200531Y-442851D02*
D03*
X-1000529Y-442850D02*
D03*
X-1400539Y-642840D02*
D03*
X-1400540Y-442838D02*
D03*
X-1400538Y-842843D02*
D03*
X-1400535Y-1442850D02*
D03*
X-1400536Y-1242847D02*
D03*
X-1400539Y-1842840D02*
D03*
X-1400540Y-1642838D02*
D03*
X-1400537Y-2242845D02*
D03*
X-1400538Y-2042843D02*
D03*
X-1400535Y-2642850D02*
D03*
X-1400536Y-2442848D02*
D03*
X-1200531Y-2842868D02*
D03*
X-517Y-2842862D02*
D03*
X-200519Y-2842863D02*
D03*
X399488Y-2842860D02*
D03*
X199486Y-2842861D02*
D03*
X799493Y-2842858D02*
D03*
X599490Y-2842859D02*
D03*
X999495Y-2842857D02*
D03*
X1199497Y-2842856D02*
D03*
X1399500Y-2842855D02*
D03*
X1399509Y-2442876D02*
D03*
X1399508Y-2242874D02*
D03*
X1399507Y-2042871D02*
D03*
X1399506Y-1842869D02*
D03*
X1399505Y-1642867D02*
D03*
X1399504Y-1442864D02*
D03*
X1399503Y-1242862D02*
D03*
X1399502Y-1042859D02*
D03*
X1399501Y-842857D02*
D03*
X1399499Y-442852D02*
D03*
X1399500Y-642855D02*
D03*
X669498Y-2032852D02*
D03*
Y-1942852D02*
D03*
X650001Y-7194938D02*
D03*
X550002Y-7094938D02*
D03*
X650001D02*
D03*
X600001Y-7144937D02*
D03*
X-1850000Y-9000000D02*
D03*
X579498Y-2032852D02*
D03*
X489499D02*
D03*
X399499D02*
D03*
Y-1942852D02*
D03*
X489499D02*
D03*
X579498D02*
D03*
X-579999Y-6794939D02*
D03*
X550001Y-7194938D02*
D03*
X-4033418Y-8526254D02*
D03*
X-3944083Y-8526253D02*
D03*
X-3160762Y-8683267D02*
D03*
Y-8592952D02*
D03*
X795419Y-756840D02*
D03*
X706083Y-667505D02*
D03*
X795418D02*
D03*
X706083Y-578171D02*
D03*
X795418D02*
D03*
X-3007148Y-8600501D02*
D03*
Y-8700501D02*
D03*
X330004Y-6724929D02*
D03*
X150001Y-6594939D02*
D03*
X50001Y-6594938D02*
D03*
X100001Y-7424938D02*
D03*
%TF.MD5,501b9912a74aa766066724bf669b1f73*%
M02*
