%TF.GenerationSoftware,Altium Limited,Altium Designer,22.5.1 (42)*%
G04 Layer_Color=0*
%FSLAX45Y45*%
%MOMM*%
%TF.SameCoordinates,09306DCC-7258-43E0-A79C-DC35209E08F8*%
%TF.FilePolarity,Positive*%
%TF.FileFunction,NonPlated,1,4,NPTH,Drill*%
%TF.Part,Single*%
G01*
G75*
%TA.AperFunction,ComponentDrill*%
%ADD207C,1.10000*%
%ADD208C,0.65000*%
G36*
X5200000Y-6900000D02*
X5200001Y-6932772D01*
X5191446Y-6997754D01*
X5174483Y-7061065D01*
X5149401Y-7121619D01*
X5116630Y-7178382D01*
X5076729Y-7230381D01*
X5030383Y-7276727D01*
X4978384Y-7316627D01*
X4921622Y-7349399D01*
X4861067Y-7374481D01*
X4797757Y-7391444D01*
X4732774Y-7399999D01*
X4700002Y-7399998D01*
X4667231Y-7399998D01*
X4602248Y-7391444D01*
X4538937Y-7374480D01*
X4478383Y-7349398D01*
X4421620Y-7316626D01*
X4369621Y-7276726D01*
X4323275Y-7230380D01*
X4283374Y-7178381D01*
X4250602Y-7121618D01*
X4225520Y-7061064D01*
X4208556Y-6997753D01*
X4200001Y-6932770D01*
X4200001Y-6899999D01*
X4200001Y-6867227D01*
X4208556Y-6802244D01*
X4225520Y-6738934D01*
X4250602Y-6678380D01*
X4283374Y-6621617D01*
X4323275Y-6569618D01*
X4369621Y-6523272D01*
X4421620Y-6483372D01*
X4478382Y-6450600D01*
X4538937Y-6425518D01*
X4602247Y-6408554D01*
X4667230Y-6399999D01*
X4700002Y-6399999D01*
X4732773Y-6399999D01*
X4797756Y-6408553D01*
X4861066Y-6425517D01*
X4921621Y-6450599D01*
X4978383Y-6483371D01*
X5030382Y-6523272D01*
X5076729Y-6569618D01*
X5116629Y-6621617D01*
X5149400Y-6678380D01*
X5174482Y-6738935D01*
X5191446Y-6802245D01*
X5200001Y-6867228D01*
X5200000Y-6900000D01*
D01*
D02*
G37*
G36*
X-2400001Y-7600002D02*
X-2400001Y-7632773D01*
X-2408555Y-7697756D01*
X-2425518Y-7761067D01*
X-2450600Y-7821621D01*
X-2483371Y-7878384D01*
X-2523272Y-7930383D01*
X-2569618Y-7976729D01*
X-2621617Y-8016629D01*
X-2678379Y-8049401D01*
X-2738934Y-8074483D01*
X-2802244Y-8091446D01*
X-2867227Y-8100001D01*
X-2899999Y-8100000D01*
X-2932770Y-8100000D01*
X-2997753Y-8091446D01*
X-3061064Y-8074482D01*
X-3121618Y-8049400D01*
X-3178381Y-8016628D01*
X-3230380Y-7976728D01*
X-3276726Y-7930382D01*
X-3316627Y-7878383D01*
X-3349399Y-7821620D01*
X-3374481Y-7761066D01*
X-3391445Y-7697755D01*
X-3400000Y-7632772D01*
X-3400000Y-7600001D01*
X-3400000Y-7567229D01*
X-3391445Y-7502246D01*
X-3374481Y-7438936D01*
X-3349399Y-7378381D01*
X-3316627Y-7321619D01*
X-3276726Y-7269620D01*
X-3230380Y-7223274D01*
X-3178381Y-7183373D01*
X-3121619Y-7150602D01*
X-3061064Y-7125519D01*
X-2997754Y-7108556D01*
X-2932771Y-7100001D01*
X-2900000Y-7100001D01*
X-2867228Y-7100001D01*
X-2802245Y-7108555D01*
X-2738935Y-7125519D01*
X-2678380Y-7150601D01*
X-2621618Y-7183373D01*
X-2569619Y-7223274D01*
X-2523272Y-7269620D01*
X-2483372Y-7321619D01*
X-2450601Y-7378382D01*
X-2425519Y-7438937D01*
X-2408555Y-7502247D01*
X-2400001Y-7567230D01*
X-2400001Y-7600002D01*
D01*
D02*
G37*
D207*
X-5125000Y-6875000D02*
D03*
X-5625000D02*
D03*
D208*
X289001Y-8614938D02*
D03*
X-288999D02*
D03*
%TF.MD5,2878aa9ce33cd77545f5d8eab346a970*%
M02*
