%TF.GenerationSoftware,Altium Limited,Altium Designer,22.5.1 (42)*%
G04 Layer_Color=32896*
%FSLAX45Y45*%
%MOMM*%
%TF.SameCoordinates,09306DCC-7258-43E0-A79C-DC35209E08F8*%
%TF.FilePolarity,Positive*%
%TF.FileFunction,Legend,Bot*%
%TF.Part,Single*%
G01*
G75*
G36*
X25961Y-2693517D02*
X30627D01*
Y-2695850D01*
X35293D01*
Y-2693517D01*
X37626D01*
Y-2695850D01*
X44623D01*
Y-2698182D01*
X46955D01*
Y-2700515D01*
X51620D01*
Y-2702847D01*
X53954D01*
Y-2705181D01*
X60951D01*
Y-2707513D01*
X63284D01*
Y-2709846D01*
X65617D01*
Y-2712178D01*
X67949D01*
Y-2714511D01*
X70282D01*
Y-2716843D01*
X72614D01*
Y-2719175D01*
X74948D01*
Y-2721508D01*
X77280D01*
Y-2723841D01*
X79613D01*
Y-2726174D01*
X81945D01*
Y-2728506D01*
X84278D01*
Y-2730840D01*
X86610D01*
Y-2733172D01*
X88942D01*
Y-2735505D01*
X91275D01*
Y-2740169D01*
X93608D01*
Y-2744834D01*
X95941D01*
Y-2749500D01*
X98273D01*
Y-2754165D01*
X100607D01*
Y-2758831D01*
X102939D01*
Y-2763496D01*
X105272D01*
Y-2765828D01*
X102939D01*
Y-2775159D01*
X105272D01*
Y-2784489D01*
X107604D01*
Y-2786822D01*
X109937D01*
Y-2793820D01*
X107604D01*
Y-2798486D01*
X105272D01*
Y-2807816D01*
X102939D01*
Y-2828810D01*
X98273D01*
Y-2835807D01*
X95941D01*
Y-2840473D01*
X93608D01*
Y-2845138D01*
X88942D01*
Y-2847470D01*
X86610D01*
Y-2852135D01*
X84278D01*
Y-2856801D01*
X81945D01*
Y-2861466D01*
X79613D01*
Y-2863798D01*
X77280D01*
Y-2866132D01*
X74948D01*
Y-2868464D01*
X70282D01*
Y-2873129D01*
X60951D01*
Y-2875462D01*
X58619D01*
Y-2880128D01*
X53954D01*
Y-2882460D01*
X51620D01*
Y-2884793D01*
X37626D01*
Y-2889458D01*
X35293D01*
Y-2891791D01*
X28295D01*
Y-2889458D01*
X25961D01*
Y-2891791D01*
X-6695D01*
Y-2889458D01*
X-11360D01*
Y-2891791D01*
X-16026D01*
Y-2889458D01*
X-18358D01*
Y-2887125D01*
X-20691D01*
Y-2884793D01*
X-30022D01*
Y-2880128D01*
X-39351D01*
Y-2877794D01*
X-41685D01*
Y-2875462D01*
X-44017D01*
Y-2873129D01*
X-46350D01*
Y-2870797D01*
X-48682D01*
Y-2868464D01*
X-51015D01*
Y-2866132D01*
X-53347D01*
Y-2863798D01*
X-55680D01*
Y-2861466D01*
X-58013D01*
Y-2859134D01*
X-60346D01*
Y-2856801D01*
X-62678D01*
Y-2854469D01*
X-65011D01*
Y-2852135D01*
X-67343D01*
Y-2849803D01*
X-69676D01*
Y-2847470D01*
X-72009D01*
Y-2845138D01*
X-74341D01*
Y-2835807D01*
X-76674D01*
Y-2833475D01*
X-79006D01*
Y-2831142D01*
X-81339D01*
Y-2824145D01*
X-79006D01*
Y-2821811D01*
X-81339D01*
Y-2817145D01*
X-86004D01*
Y-2763496D01*
X-83672D01*
Y-2761164D01*
X-81339D01*
Y-2751833D01*
X-79006D01*
Y-2749500D01*
X-74341D01*
Y-2740169D01*
X-72009D01*
Y-2737837D01*
X-69676D01*
Y-2728506D01*
X-65011D01*
Y-2726174D01*
X-62678D01*
Y-2723841D01*
X-60346D01*
Y-2721508D01*
X-58013D01*
Y-2719175D01*
X-55680D01*
Y-2716843D01*
X-53347D01*
Y-2714511D01*
X-51015D01*
Y-2712178D01*
X-48682D01*
Y-2709846D01*
X-44017D01*
Y-2707513D01*
X-39351D01*
Y-2705181D01*
X-34687D01*
Y-2700515D01*
X-25356D01*
Y-2698182D01*
X-23023D01*
Y-2695850D01*
X-20691D01*
Y-2693517D01*
X-16026D01*
Y-2695850D01*
X-9028D01*
Y-2693517D01*
X-6695D01*
Y-2691185D01*
X-4362D01*
Y-2688852D01*
X25961D01*
Y-2693517D01*
D02*
G37*
G36*
X49288Y-2933778D02*
X53954D01*
Y-2936111D01*
X56286D01*
Y-2938443D01*
X81945D01*
Y-2940775D01*
X86610D01*
Y-2943108D01*
X91275D01*
Y-2945440D01*
X107604D01*
Y-2947774D01*
X109937D01*
Y-2950106D01*
X121600D01*
Y-2952439D01*
X126265D01*
Y-2954771D01*
X128598D01*
Y-2957105D01*
X137928D01*
Y-2959437D01*
X142594D01*
Y-2961769D01*
X147259D01*
Y-2964102D01*
X154256D01*
Y-2966434D01*
X156589D01*
Y-2968767D01*
X163587D01*
Y-2971099D01*
X168252D01*
Y-2973432D01*
X170585D01*
Y-2978098D01*
X172918D01*
Y-2980430D01*
X184581D01*
Y-2982763D01*
X186913D01*
Y-2985096D01*
X189246D01*
Y-2989761D01*
X193911D01*
Y-2992093D01*
X196244D01*
Y-2994426D01*
X200909D01*
Y-2996758D01*
X205574D01*
Y-3001424D01*
X207907D01*
Y-3003757D01*
X212572D01*
Y-3006089D01*
X214905D01*
Y-3008422D01*
X217237D01*
Y-3010754D01*
X219570D01*
Y-3013086D01*
X221902D01*
Y-3015419D01*
X224235D01*
Y-3017752D01*
X226568D01*
Y-3020085D01*
X228900D01*
Y-3022417D01*
X231233D01*
Y-3024751D01*
X233566D01*
Y-3027083D01*
X235898D01*
Y-3029416D01*
X238231D01*
Y-3031748D01*
X240564D01*
Y-3036413D01*
X242896D01*
Y-3038745D01*
X245229D01*
Y-3045744D01*
X249894D01*
Y-3048076D01*
X252226D01*
Y-3050409D01*
X254560D01*
Y-3052742D01*
X256892D01*
Y-3062072D01*
X259225D01*
Y-3064404D01*
X261558D01*
Y-3069070D01*
X263890D01*
Y-3071403D01*
X266223D01*
Y-3076068D01*
X268555D01*
Y-3080733D01*
X270888D01*
Y-3083065D01*
X273220D01*
Y-3087731D01*
X275553D01*
Y-3094729D01*
X277885D01*
Y-3099394D01*
X280219D01*
Y-3104059D01*
X282551D01*
Y-3113390D01*
X284884D01*
Y-3115722D01*
X287216D01*
Y-3120388D01*
X289549D01*
Y-3125053D01*
X287216D01*
Y-3132052D01*
X289549D01*
Y-3136716D01*
X291881D01*
Y-3139049D01*
X294214D01*
Y-3162375D01*
X296547D01*
Y-3167040D01*
X298879D01*
Y-3171705D01*
X301213D01*
Y-3274341D01*
X298879D01*
Y-3276674D01*
X296547D01*
Y-3281339D01*
X294214D01*
Y-3320994D01*
X291881D01*
Y-3323327D01*
X289549D01*
Y-3327992D01*
X287216D01*
Y-3339655D01*
X289549D01*
Y-3341987D01*
X291881D01*
Y-3344320D01*
X294214D01*
Y-3341987D01*
X310542D01*
Y-3344320D01*
X312875D01*
Y-3341987D01*
X317540D01*
Y-3339655D01*
X319872D01*
Y-3337322D01*
X343199D01*
Y-3334990D01*
X347865D01*
Y-3332657D01*
X350197D01*
Y-3330324D01*
X361860D01*
Y-3332657D01*
X364193D01*
Y-3330324D01*
X368859D01*
Y-3327992D01*
X373524D01*
Y-3325659D01*
X378189D01*
Y-3323327D01*
X380521D01*
Y-3325659D01*
X394518D01*
Y-3323327D01*
X401515D01*
Y-3320994D01*
X406180D01*
Y-3318662D01*
X424841D01*
Y-3316328D01*
X434171D01*
Y-3313996D01*
X436505D01*
Y-3311663D01*
X459830D01*
Y-3309331D01*
X464496D01*
Y-3306997D01*
X466829D01*
Y-3304665D01*
X480825D01*
Y-3306997D01*
X487822D01*
Y-3304665D01*
X492488D01*
Y-3302333D01*
X494820D01*
Y-3300000D01*
X527477D01*
Y-3297668D01*
X529809D01*
Y-3295335D01*
X532142D01*
Y-3293003D01*
X564799D01*
Y-3290670D01*
X567131D01*
Y-3288337D01*
X599789D01*
Y-3286004D01*
X602121D01*
Y-3283672D01*
X606786D01*
Y-3281339D01*
X655771D01*
Y-3279006D01*
X660436D01*
Y-3276674D01*
X800395D01*
Y-3279006D01*
X805059D01*
Y-3281339D01*
X833051D01*
Y-3283672D01*
X837716D01*
Y-3286004D01*
X842382D01*
Y-3288337D01*
X851712D01*
Y-3290670D01*
X854045D01*
Y-3293003D01*
X863375D01*
Y-3295335D01*
X865708D01*
Y-3297668D01*
X870373D01*
Y-3300000D01*
X875038D01*
Y-3302333D01*
X877370D01*
Y-3304665D01*
X882036D01*
Y-3306997D01*
X886701D01*
Y-3309331D01*
X889035D01*
Y-3313996D01*
X893700D01*
Y-3320994D01*
X896032D01*
Y-3323327D01*
X898365D01*
Y-3325659D01*
X900697D01*
Y-3330324D01*
X903029D01*
Y-3334990D01*
X905362D01*
Y-3339655D01*
X907695D01*
Y-3341987D01*
X910028D01*
Y-3346653D01*
X907695D01*
Y-3388640D01*
X903029D01*
Y-3393305D01*
X900697D01*
Y-3402636D01*
X898365D01*
Y-3409634D01*
X896032D01*
Y-3411966D01*
X893700D01*
Y-3416632D01*
X891367D01*
Y-3421297D01*
X889035D01*
Y-3423629D01*
X886701D01*
Y-3425963D01*
X884369D01*
Y-3430627D01*
X882036D01*
Y-3437625D01*
X879703D01*
Y-3439957D01*
X877370D01*
Y-3442291D01*
X875038D01*
Y-3444623D01*
X872706D01*
Y-3446956D01*
X870373D01*
Y-3451622D01*
X868041D01*
Y-3456286D01*
X865708D01*
Y-3460951D01*
X863375D01*
Y-3463284D01*
X861042D01*
Y-3465616D01*
X856377D01*
Y-3467950D01*
X854045D01*
Y-3472615D01*
X849380D01*
Y-3477280D01*
X847047D01*
Y-3479613D01*
X844714D01*
Y-3484278D01*
X842382D01*
Y-3486610D01*
X840049D01*
Y-3488943D01*
X837716D01*
Y-3491275D01*
X835383D01*
Y-3495941D01*
X833051D01*
Y-3498274D01*
X830718D01*
Y-3500606D01*
X828386D01*
Y-3502939D01*
X826054D01*
Y-3505271D01*
X823721D01*
Y-3507604D01*
X821389D01*
Y-3509937D01*
X819055D01*
Y-3512269D01*
X816723D01*
Y-3514602D01*
X814390D01*
Y-3516935D01*
X812057D01*
Y-3519268D01*
X809724D01*
Y-3521600D01*
X807392D01*
Y-3523933D01*
X805059D01*
Y-3526265D01*
X802727D01*
Y-3528598D01*
X798062D01*
Y-3530930D01*
X795729D01*
Y-3533262D01*
X788731D01*
Y-3535596D01*
X786399D01*
Y-3540261D01*
X784066D01*
Y-3542594D01*
X781733D01*
Y-3544926D01*
X777068D01*
Y-3547259D01*
X774736D01*
Y-3551924D01*
X770070D01*
Y-3556589D01*
X767737D01*
Y-3558922D01*
X765405D01*
Y-3561255D01*
X763072D01*
Y-3563587D01*
X760740D01*
Y-3565920D01*
X753742D01*
Y-3568252D01*
X751409D01*
Y-3570585D01*
X746743D01*
Y-3572917D01*
X744412D01*
Y-3575250D01*
X742078D01*
Y-3577583D01*
X739746D01*
Y-3579915D01*
X737413D01*
Y-3582248D01*
X735081D01*
Y-3584581D01*
X732748D01*
Y-3586914D01*
X730416D01*
Y-3589246D01*
X728083D01*
Y-3591579D01*
X725750D01*
Y-3593911D01*
X723418D01*
Y-3596244D01*
X718752D01*
Y-3598576D01*
X714087D01*
Y-3600909D01*
X709422D01*
Y-3605574D01*
X707089D01*
Y-3607907D01*
X704757D01*
Y-3610240D01*
X702425D01*
Y-3612573D01*
X697759D01*
Y-3617238D01*
X688429D01*
Y-3619570D01*
X686095D01*
Y-3621903D01*
X683763D01*
Y-3624235D01*
X681429D01*
Y-3626569D01*
X679097D01*
Y-3628901D01*
X676765D01*
Y-3631233D01*
X674432D01*
Y-3633566D01*
X669767D01*
Y-3635898D01*
X662770D01*
Y-3638231D01*
X660436D01*
Y-3640564D01*
X658104D01*
Y-3645229D01*
X653439D01*
Y-3647562D01*
X651106D01*
Y-3649894D01*
X648773D01*
Y-3652228D01*
X644108D01*
Y-3654560D01*
X639442D01*
Y-3656892D01*
X637110D01*
Y-3659225D01*
X634777D01*
Y-3661557D01*
X632445D01*
Y-3663890D01*
X630113D01*
Y-3666222D01*
X627780D01*
Y-3668556D01*
X618449D01*
Y-3670888D01*
X616117D01*
Y-3673221D01*
X613783D01*
Y-3675553D01*
X611451D01*
Y-3677885D01*
X609118D01*
Y-3680219D01*
X602121D01*
Y-3682551D01*
X599789D01*
Y-3684884D01*
X597455D01*
Y-3687216D01*
X595124D01*
Y-3689549D01*
X590458D01*
Y-3691881D01*
X585792D01*
Y-3694215D01*
X583460D01*
Y-3696547D01*
X578795D01*
Y-3698880D01*
X576462D01*
Y-3701212D01*
X574130D01*
Y-3703545D01*
X567131D01*
Y-3705877D01*
X564799D01*
Y-3708210D01*
X562466D01*
Y-3710543D01*
X560134D01*
Y-3712875D01*
X557801D01*
Y-3715208D01*
X553136D01*
Y-3717540D01*
X548471D01*
Y-3719874D01*
X543805D01*
Y-3722206D01*
X541472D01*
Y-3726871D01*
X536807D01*
Y-3729203D01*
X532142D01*
Y-3731536D01*
X527477D01*
Y-3733868D01*
X525144D01*
Y-3736202D01*
X522812D01*
Y-3738534D01*
X520479D01*
Y-3740867D01*
X515813D01*
Y-3743200D01*
X511148D01*
Y-3745533D01*
X508816D01*
Y-3747865D01*
X506484D01*
Y-3750198D01*
X501818D01*
Y-3752530D01*
X499485D01*
Y-3754862D01*
X497153D01*
Y-3757195D01*
X487822D01*
Y-3752530D01*
X490155D01*
Y-3750198D01*
X492488D01*
Y-3747865D01*
X494820D01*
Y-3745533D01*
X497153D01*
Y-3743200D01*
X499485D01*
Y-3740867D01*
X506484D01*
Y-3738534D01*
X511148D01*
Y-3736202D01*
X513481D01*
Y-3731536D01*
X518146D01*
Y-3729203D01*
X520479D01*
Y-3726871D01*
X522812D01*
Y-3724539D01*
X525144D01*
Y-3722206D01*
X532142D01*
Y-3719874D01*
X534475D01*
Y-3717540D01*
X539140D01*
Y-3712875D01*
X541472D01*
Y-3710543D01*
X546138D01*
Y-3708210D01*
X548471D01*
Y-3705877D01*
X550803D01*
Y-3703545D01*
X553136D01*
Y-3701212D01*
X557801D01*
Y-3698880D01*
X562466D01*
Y-3696547D01*
X564799D01*
Y-3694215D01*
X567131D01*
Y-3691881D01*
X569464D01*
Y-3689549D01*
X571796D01*
Y-3687216D01*
X574130D01*
Y-3684884D01*
X576462D01*
Y-3682551D01*
X578795D01*
Y-3680219D01*
X588125D01*
Y-3677885D01*
X590458D01*
Y-3673221D01*
X595124D01*
Y-3670888D01*
X597455D01*
Y-3668556D01*
X599789D01*
Y-3666222D01*
X602121D01*
Y-3663890D01*
X604454D01*
Y-3661557D01*
X611451D01*
Y-3659225D01*
X613783D01*
Y-3656892D01*
X616117D01*
Y-3654560D01*
X618449D01*
Y-3652228D01*
X620782D01*
Y-3649894D01*
X623115D01*
Y-3647562D01*
X627780D01*
Y-3645229D01*
X630113D01*
Y-3640564D01*
X634777D01*
Y-3638231D01*
X639442D01*
Y-3635898D01*
X641776D01*
Y-3633566D01*
X646441D01*
Y-3628901D01*
X651106D01*
Y-3626569D01*
X653439D01*
Y-3624235D01*
X655771D01*
Y-3621903D01*
X658104D01*
Y-3619570D01*
X660436D01*
Y-3617238D01*
X662770D01*
Y-3614905D01*
X665102D01*
Y-3612573D01*
X667435D01*
Y-3610240D01*
X669767D01*
Y-3607907D01*
X672100D01*
Y-3605574D01*
X676765D01*
Y-3603242D01*
X679097D01*
Y-3600909D01*
X683763D01*
Y-3598576D01*
X686095D01*
Y-3596244D01*
X688429D01*
Y-3593911D01*
X690761D01*
Y-3591579D01*
X693094D01*
Y-3589246D01*
X695426D01*
Y-3586914D01*
X697759D01*
Y-3584581D01*
X700091D01*
Y-3582248D01*
X702425D01*
Y-3579915D01*
X704757D01*
Y-3577583D01*
X707089D01*
Y-3575250D01*
X709422D01*
Y-3572917D01*
X711754D01*
Y-3570585D01*
X714087D01*
Y-3568252D01*
X716420D01*
Y-3565920D01*
X718752D01*
Y-3563587D01*
X721085D01*
Y-3561255D01*
X723418D01*
Y-3558922D01*
X725750D01*
Y-3556589D01*
X730416D01*
Y-3554256D01*
X732748D01*
Y-3551924D01*
X739746D01*
Y-3549592D01*
X742078D01*
Y-3547259D01*
X744412D01*
Y-3544926D01*
X746743D01*
Y-3542594D01*
X749077D01*
Y-3540261D01*
X751409D01*
Y-3537928D01*
X753742D01*
Y-3535596D01*
X756075D01*
Y-3533262D01*
X758407D01*
Y-3530930D01*
X760740D01*
Y-3528598D01*
X763072D01*
Y-3526265D01*
X765405D01*
Y-3523933D01*
X767737D01*
Y-3521600D01*
X770070D01*
Y-3519268D01*
X772403D01*
Y-3516935D01*
X774736D01*
Y-3514602D01*
X777068D01*
Y-3512269D01*
X779400D01*
Y-3509937D01*
X781733D01*
Y-3507604D01*
X784066D01*
Y-3505271D01*
X786399D01*
Y-3502939D01*
X788731D01*
Y-3500606D01*
X791064D01*
Y-3498274D01*
X793396D01*
Y-3495941D01*
X795729D01*
Y-3493609D01*
X798062D01*
Y-3491275D01*
X800395D01*
Y-3488943D01*
X802727D01*
Y-3486610D01*
X805059D01*
Y-3484278D01*
X807392D01*
Y-3481945D01*
X809724D01*
Y-3479613D01*
X812057D01*
Y-3477280D01*
X814390D01*
Y-3474947D01*
X816723D01*
Y-3472615D01*
X819055D01*
Y-3470282D01*
X821389D01*
Y-3467950D01*
X823721D01*
Y-3465616D01*
X826054D01*
Y-3463284D01*
X828386D01*
Y-3460951D01*
X830718D01*
Y-3451622D01*
X833051D01*
Y-3449289D01*
X835383D01*
Y-3446956D01*
X837716D01*
Y-3444623D01*
X840049D01*
Y-3442291D01*
X842382D01*
Y-3439957D01*
X844714D01*
Y-3437625D01*
X847047D01*
Y-3432960D01*
X849380D01*
Y-3428295D01*
X851712D01*
Y-3425963D01*
X854045D01*
Y-3423629D01*
X856377D01*
Y-3421297D01*
X858710D01*
Y-3414299D01*
X861042D01*
Y-3409634D01*
X863375D01*
Y-3407301D01*
X865708D01*
Y-3404969D01*
X868041D01*
Y-3402636D01*
X870373D01*
Y-3400304D01*
X872706D01*
Y-3393305D01*
X870373D01*
Y-3388640D01*
X872706D01*
Y-3386308D01*
X875038D01*
Y-3383974D01*
X877370D01*
Y-3355983D01*
X879703D01*
Y-3353651D01*
X877370D01*
Y-3348986D01*
X875038D01*
Y-3346653D01*
X872706D01*
Y-3344320D01*
X870373D01*
Y-3341987D01*
X868041D01*
Y-3339655D01*
X863375D01*
Y-3337322D01*
X854045D01*
Y-3334990D01*
X849380D01*
Y-3332657D01*
X847047D01*
Y-3330324D01*
X842382D01*
Y-3327992D01*
X840049D01*
Y-3330324D01*
X833051D01*
Y-3327992D01*
X830718D01*
Y-3325659D01*
X828386D01*
Y-3323327D01*
X667435D01*
Y-3325659D01*
X665102D01*
Y-3327992D01*
X662770D01*
Y-3330324D01*
X651106D01*
Y-3327992D01*
X632445D01*
Y-3330324D01*
X627780D01*
Y-3332657D01*
X623115D01*
Y-3334990D01*
X588125D01*
Y-3337322D01*
X585792D01*
Y-3339655D01*
X581127D01*
Y-3341987D01*
X553136D01*
Y-3344320D01*
X550803D01*
Y-3346653D01*
X548471D01*
Y-3348986D01*
X534475D01*
Y-3346653D01*
X532142D01*
Y-3348986D01*
X520479D01*
Y-3351318D01*
X518146D01*
Y-3353651D01*
X492488D01*
Y-3355983D01*
X487822D01*
Y-3358315D01*
X485490D01*
Y-3360649D01*
X457498D01*
Y-3362981D01*
X455166D01*
Y-3365314D01*
X427174D01*
Y-3367646D01*
X424841D01*
Y-3369979D01*
X422509D01*
Y-3372311D01*
X396850D01*
Y-3374645D01*
X394518D01*
Y-3376976D01*
X373524D01*
Y-3379310D01*
X368859D01*
Y-3381642D01*
X366525D01*
Y-3383974D01*
X345531D01*
Y-3386308D01*
X343199D01*
Y-3388640D01*
X322206D01*
Y-3390973D01*
X317540D01*
Y-3393305D01*
X315207D01*
Y-3395638D01*
X294214D01*
Y-3397970D01*
X289549D01*
Y-3400304D01*
X280219D01*
Y-3402636D01*
X275553D01*
Y-3418964D01*
X273220D01*
Y-3421297D01*
X270888D01*
Y-3423629D01*
X268555D01*
Y-3430627D01*
X270888D01*
Y-3439957D01*
X268555D01*
Y-3446956D01*
X266223D01*
Y-3451622D01*
X263890D01*
Y-3472615D01*
X261558D01*
Y-3474947D01*
X259225D01*
Y-3477280D01*
X256892D01*
Y-3495941D01*
X254560D01*
Y-3500606D01*
X252226D01*
Y-3502939D01*
X249894D01*
Y-3512269D01*
X252226D01*
Y-3519268D01*
X249894D01*
Y-3521600D01*
X247561D01*
Y-3523933D01*
X245229D01*
Y-3542594D01*
X242896D01*
Y-3544926D01*
X240564D01*
Y-3547259D01*
X238231D01*
Y-3565920D01*
X233566D01*
Y-3584581D01*
X231233D01*
Y-3586914D01*
X228900D01*
Y-3591579D01*
X226568D01*
Y-3598576D01*
X228900D01*
Y-3600909D01*
X226568D01*
Y-3605574D01*
X224235D01*
Y-3607907D01*
X221902D01*
Y-3621903D01*
X219570D01*
Y-3624235D01*
X217237D01*
Y-3626569D01*
X214905D01*
Y-3635898D01*
X217237D01*
Y-3638231D01*
X214905D01*
Y-3642896D01*
X212572D01*
Y-3645229D01*
X210239D01*
Y-3656892D01*
X207907D01*
Y-3661557D01*
X205574D01*
Y-3666222D01*
X203242D01*
Y-3677885D01*
X200909D01*
Y-3682551D01*
X198577D01*
Y-3691881D01*
X196244D01*
Y-3694215D01*
X193911D01*
Y-3703545D01*
X191578D01*
Y-3705877D01*
X189246D01*
Y-3708210D01*
X186913D01*
Y-3705877D01*
X184581D01*
Y-3696547D01*
X186913D01*
Y-3691881D01*
X189246D01*
Y-3689549D01*
X191578D01*
Y-3670888D01*
X193911D01*
Y-3666222D01*
X196244D01*
Y-3663890D01*
X198577D01*
Y-3645229D01*
X200909D01*
Y-3642896D01*
X203242D01*
Y-3638231D01*
X205574D01*
Y-3633566D01*
X203242D01*
Y-3624235D01*
X205574D01*
Y-3619570D01*
X207907D01*
Y-3617238D01*
X210239D01*
Y-3596244D01*
X212572D01*
Y-3593911D01*
X214905D01*
Y-3591579D01*
X217237D01*
Y-3584581D01*
X214905D01*
Y-3577583D01*
X217237D01*
Y-3575250D01*
X214905D01*
Y-3570585D01*
X217237D01*
Y-3565920D01*
X219570D01*
Y-3563587D01*
X221902D01*
Y-3535596D01*
X226568D01*
Y-3533262D01*
X228900D01*
Y-3516935D01*
X226568D01*
Y-3509937D01*
X228900D01*
Y-3505271D01*
X231233D01*
Y-3502939D01*
X233566D01*
Y-3477280D01*
X235898D01*
Y-3474947D01*
X238231D01*
Y-3472615D01*
X240564D01*
Y-3460951D01*
X238231D01*
Y-3458619D01*
X240564D01*
Y-3446956D01*
X238231D01*
Y-3437625D01*
X240564D01*
Y-3432960D01*
X242896D01*
Y-3430627D01*
X245229D01*
Y-3423629D01*
X247561D01*
Y-3418964D01*
X245229D01*
Y-3414299D01*
X221902D01*
Y-3411966D01*
X219570D01*
Y-3414299D01*
X214905D01*
Y-3416632D01*
X212572D01*
Y-3418964D01*
X210239D01*
Y-3421297D01*
X191578D01*
Y-3423629D01*
X189246D01*
Y-3425963D01*
X184581D01*
Y-3428295D01*
X182248D01*
Y-3425963D01*
X170585D01*
Y-3428295D01*
X168252D01*
Y-3430627D01*
X165919D01*
Y-3432960D01*
X144926D01*
Y-3435292D01*
X142594D01*
Y-3437625D01*
X137928D01*
Y-3439957D01*
X130930D01*
Y-3437625D01*
X121600D01*
Y-3439957D01*
X119266D01*
Y-3442291D01*
X116934D01*
Y-3444623D01*
X95941D01*
Y-3446956D01*
X93608D01*
Y-3449289D01*
X91275D01*
Y-3451622D01*
X84278D01*
Y-3449289D01*
X77280D01*
Y-3451622D01*
X74948D01*
Y-3453954D01*
X70282D01*
Y-3456286D01*
X51620D01*
Y-3458619D01*
X49288D01*
Y-3460951D01*
X32960D01*
Y-3463284D01*
X28295D01*
Y-3465616D01*
X25961D01*
Y-3467950D01*
X7301D01*
Y-3470282D01*
X4968D01*
Y-3472615D01*
X-2030D01*
Y-3474947D01*
X-16026D01*
Y-3477280D01*
X-18358D01*
Y-3479613D01*
X-34687D01*
Y-3481945D01*
X-37019D01*
Y-3484278D01*
X-39351D01*
Y-3486610D01*
X-58013D01*
Y-3488943D01*
X-60346D01*
Y-3491275D01*
X-65011D01*
Y-3493609D01*
X-72009D01*
Y-3491275D01*
X-76674D01*
Y-3493609D01*
X-81339D01*
Y-3495941D01*
X-83672D01*
Y-3498274D01*
X-100000D01*
Y-3500606D01*
X-104665D01*
Y-3502939D01*
X-106999D01*
Y-3505271D01*
X-123326D01*
Y-3507604D01*
X-125659D01*
Y-3509937D01*
X-141987D01*
Y-3512269D01*
X-146652D01*
Y-3514602D01*
X-148985D01*
Y-3516935D01*
X-165313D01*
Y-3519268D01*
X-167646D01*
Y-3521600D01*
X-172311D01*
Y-3523933D01*
X-181642D01*
Y-3521600D01*
X-183974D01*
Y-3523933D01*
X-188639D01*
Y-3526265D01*
X-190972D01*
Y-3528598D01*
X-207301D01*
Y-3540261D01*
X-204969D01*
Y-3547259D01*
X-207301D01*
Y-3554256D01*
X-204969D01*
Y-3561255D01*
X-202636D01*
Y-3563587D01*
X-200303D01*
Y-3568252D01*
X-197970D01*
Y-3575250D01*
X-200303D01*
Y-3589246D01*
X-197970D01*
Y-3593911D01*
X-195638D01*
Y-3596244D01*
X-193305D01*
Y-3619570D01*
X-188639D01*
Y-3624235D01*
X-186307D01*
Y-3628901D01*
X-188639D01*
Y-3635898D01*
X-186307D01*
Y-3645229D01*
X-183974D01*
Y-3647562D01*
X-181642D01*
Y-3666222D01*
X-179310D01*
Y-3668556D01*
X-176977D01*
Y-3673221D01*
X-174645D01*
Y-3689549D01*
X-172311D01*
Y-3691881D01*
X-169979D01*
Y-3708210D01*
X-174645D01*
Y-3703545D01*
X-176977D01*
Y-3696547D01*
X-179310D01*
Y-3694215D01*
X-181642D01*
Y-3680219D01*
X-183974D01*
Y-3677885D01*
X-186307D01*
Y-3666222D01*
X-188639D01*
Y-3661557D01*
X-190972D01*
Y-3659225D01*
X-193305D01*
Y-3645229D01*
X-195638D01*
Y-3642896D01*
X-197970D01*
Y-3631233D01*
X-200303D01*
Y-3626569D01*
X-202636D01*
Y-3624235D01*
X-204969D01*
Y-3607907D01*
X-209633D01*
Y-3605574D01*
X-211966D01*
Y-3591579D01*
X-214298D01*
Y-3586914D01*
X-216632D01*
Y-3582248D01*
X-218964D01*
Y-3577583D01*
X-216632D01*
Y-3568252D01*
X-218964D01*
Y-3565920D01*
X-221297D01*
Y-3563587D01*
X-223629D01*
Y-3549592D01*
X-225962D01*
Y-3544926D01*
X-228294D01*
Y-3542594D01*
X-230627D01*
Y-3540261D01*
X-251621D01*
Y-3542594D01*
X-253953D01*
Y-3544926D01*
X-258618D01*
Y-3547259D01*
X-272615D01*
Y-3549592D01*
X-274947D01*
Y-3551924D01*
X-293608D01*
Y-3554256D01*
X-295941D01*
Y-3556589D01*
X-298273D01*
Y-3558922D01*
X-314602D01*
Y-3561255D01*
X-319267D01*
Y-3563587D01*
X-335596D01*
Y-3565920D01*
X-337928D01*
Y-3568252D01*
X-340261D01*
Y-3570585D01*
X-356589D01*
Y-3572917D01*
X-358921D01*
Y-3575250D01*
X-361254D01*
Y-3577583D01*
X-379916D01*
Y-3579915D01*
X-382248D01*
Y-3582248D01*
X-384580D01*
Y-3584581D01*
X-389245D01*
Y-3582248D01*
X-396244D01*
Y-3584581D01*
X-400910D01*
Y-3586914D01*
X-403242D01*
Y-3589246D01*
X-419570D01*
Y-3591579D01*
X-421903D01*
Y-3593911D01*
X-426568D01*
Y-3596244D01*
X-435898D01*
Y-3593911D01*
X-438231D01*
Y-3596244D01*
X-442896D01*
Y-3598576D01*
X-445229D01*
Y-3600909D01*
X-461557D01*
Y-3603242D01*
X-463890D01*
Y-3605574D01*
X-468556D01*
Y-3607907D01*
X-473221D01*
Y-3605574D01*
X-477886D01*
Y-3607907D01*
X-484883D01*
Y-3610240D01*
X-487216D01*
Y-3612573D01*
X-503545D01*
Y-3614905D01*
X-505877D01*
Y-3617238D01*
X-510543D01*
Y-3619570D01*
X-524538D01*
Y-3621903D01*
X-529204D01*
Y-3624235D01*
X-543199D01*
Y-3626569D01*
X-545532D01*
Y-3628901D01*
X-550198D01*
Y-3631233D01*
X-559527D01*
Y-3628901D01*
X-561861D01*
Y-3631233D01*
X-566526D01*
Y-3633566D01*
X-568858D01*
Y-3635898D01*
X-582854D01*
Y-3638231D01*
X-585186D01*
Y-3640564D01*
X-589851D01*
Y-3642896D01*
X-606180D01*
Y-3645229D01*
X-608513D01*
Y-3647562D01*
X-624842D01*
Y-3649894D01*
X-627174D01*
Y-3652228D01*
X-629507D01*
Y-3654560D01*
X-645835D01*
Y-3656892D01*
X-648168D01*
Y-3659225D01*
X-650500D01*
Y-3661557D01*
X-666828D01*
Y-3663890D01*
X-669162D01*
Y-3666222D01*
X-671494D01*
Y-3668556D01*
X-680824D01*
Y-3666222D01*
X-683156D01*
Y-3668556D01*
X-687822D01*
Y-3670888D01*
X-690155D01*
Y-3673221D01*
X-704150D01*
Y-3675553D01*
X-708815D01*
Y-3677885D01*
X-711149D01*
Y-3680219D01*
X-720479D01*
Y-3677885D01*
X-725144D01*
Y-3680219D01*
X-729809D01*
Y-3684884D01*
X-746138D01*
Y-3687216D01*
X-748470D01*
Y-3689549D01*
X-753136D01*
Y-3691881D01*
X-767132D01*
Y-3694215D01*
X-769464D01*
Y-3696547D01*
X-788125D01*
Y-3698880D01*
X-790458D01*
Y-3701212D01*
X-792791D01*
Y-3703545D01*
X-806786D01*
Y-3705877D01*
X-809119D01*
Y-3708210D01*
X-825447D01*
Y-3710543D01*
X-827779D01*
Y-3712875D01*
X-834778D01*
Y-3715208D01*
X-848774D01*
Y-3717540D01*
X-851106D01*
Y-3719874D01*
X-865102D01*
Y-3722206D01*
X-867434D01*
Y-3724539D01*
X-872100D01*
Y-3726871D01*
X-888428D01*
Y-3729203D01*
X-890761D01*
Y-3731536D01*
X-895427D01*
Y-3733868D01*
X-909421D01*
Y-3736202D01*
X-911755D01*
Y-3738534D01*
X-930415D01*
Y-3743200D01*
X-932748D01*
Y-3745533D01*
X-951409D01*
Y-3747865D01*
X-953742D01*
Y-3750198D01*
X-956074D01*
Y-3752530D01*
X-965405D01*
Y-3750198D01*
X-967738D01*
Y-3752530D01*
X-970070D01*
Y-3754862D01*
X-972403D01*
Y-3757195D01*
X-986399D01*
Y-3759527D01*
X-991064D01*
Y-3761861D01*
X-995729D01*
Y-3764193D01*
X-1009725D01*
Y-3766526D01*
X-1012057D01*
Y-3768858D01*
X-1016722D01*
Y-3771191D01*
X-1019055D01*
Y-3768858D01*
X-1026053D01*
Y-3771191D01*
X-1030719D01*
Y-3773524D01*
X-1033051D01*
Y-3775856D01*
X-1049379D01*
Y-3778189D01*
X-1054045D01*
Y-3780521D01*
X-1056378D01*
Y-3782855D01*
X-1061043D01*
Y-3780521D01*
X-1065708D01*
Y-3775856D01*
X-1054045D01*
Y-3771191D01*
X-1051712D01*
Y-3768858D01*
X-1035384D01*
Y-3766526D01*
X-1033051D01*
Y-3764193D01*
X-1026053D01*
Y-3761861D01*
X-1023720D01*
Y-3759527D01*
X-1021388D01*
Y-3757195D01*
X-1007392D01*
Y-3754862D01*
X-1005060D01*
Y-3752530D01*
X-988732D01*
Y-3750198D01*
X-986399D01*
Y-3747865D01*
X-984066D01*
Y-3745533D01*
X-974735D01*
Y-3743200D01*
X-972403D01*
Y-3740867D01*
X-960740D01*
Y-3738534D01*
X-958407D01*
Y-3736202D01*
X-953742D01*
Y-3733868D01*
X-939746D01*
Y-3731536D01*
X-937414D01*
Y-3729203D01*
X-930415D01*
Y-3726871D01*
X-921085D01*
Y-3724539D01*
X-918752D01*
Y-3722206D01*
X-914087D01*
Y-3719874D01*
X-909421D01*
Y-3717540D01*
X-907089D01*
Y-3715208D01*
X-900091D01*
Y-3717540D01*
X-895427D01*
Y-3715208D01*
X-890761D01*
Y-3712875D01*
X-888428D01*
Y-3710543D01*
X-879097D01*
Y-3708210D01*
X-872100D01*
Y-3705877D01*
X-869768D01*
Y-3703545D01*
X-855772D01*
Y-3701212D01*
X-853438D01*
Y-3698880D01*
X-848774D01*
Y-3696547D01*
X-844109D01*
Y-3694215D01*
X-839443D01*
Y-3691881D01*
X-825447D01*
Y-3689549D01*
X-823115D01*
Y-3687216D01*
X-820782D01*
Y-3684884D01*
X-809119D01*
Y-3682551D01*
X-806786D01*
Y-3680219D01*
X-790458D01*
Y-3677885D01*
X-788125D01*
Y-3675553D01*
X-785792D01*
Y-3673221D01*
X-776461D01*
Y-3670888D01*
X-774129D01*
Y-3668556D01*
X-762467D01*
Y-3666222D01*
X-757801D01*
Y-3663890D01*
X-755468D01*
Y-3661557D01*
X-741473D01*
Y-3659225D01*
X-739140D01*
Y-3656892D01*
X-727477D01*
Y-3654560D01*
X-722812D01*
Y-3652228D01*
X-720479D01*
Y-3649894D01*
X-706483D01*
Y-3647562D01*
X-704150D01*
Y-3645229D01*
X-699486D01*
Y-3642896D01*
X-694821D01*
Y-3640564D01*
X-690155D01*
Y-3638231D01*
X-678491D01*
Y-3635898D01*
X-673827D01*
Y-3633566D01*
X-671494D01*
Y-3631233D01*
X-657498D01*
Y-3628901D01*
X-655165D01*
Y-3626569D01*
X-652832D01*
Y-3624235D01*
X-638837D01*
Y-3621903D01*
X-636504D01*
Y-3619570D01*
X-622509D01*
Y-3617238D01*
X-620176D01*
Y-3614905D01*
X-617844D01*
Y-3612573D01*
X-601516D01*
Y-3607907D01*
X-587519D01*
Y-3605574D01*
X-585186D01*
Y-3603242D01*
X-580521D01*
Y-3600909D01*
X-566526D01*
Y-3598576D01*
X-564193D01*
Y-3596244D01*
X-552530D01*
Y-3593911D01*
X-550198D01*
Y-3591579D01*
X-545532D01*
Y-3589246D01*
X-531536D01*
Y-3586914D01*
X-529204D01*
Y-3584581D01*
X-515208D01*
Y-3582248D01*
X-512875D01*
Y-3579915D01*
X-510543D01*
Y-3577583D01*
X-494214D01*
Y-3572917D01*
X-480218D01*
Y-3570585D01*
X-477886D01*
Y-3568252D01*
X-473221D01*
Y-3565920D01*
X-461557D01*
Y-3563587D01*
X-459224D01*
Y-3561255D01*
X-454559D01*
Y-3558922D01*
X-440563D01*
Y-3556589D01*
X-438231D01*
Y-3554256D01*
X-435898D01*
Y-3551924D01*
X-421903D01*
Y-3549592D01*
X-419570D01*
Y-3547259D01*
X-405575D01*
Y-3544926D01*
X-403242D01*
Y-3542594D01*
X-400910D01*
Y-3540261D01*
X-386913D01*
Y-3537928D01*
X-384580D01*
Y-3535596D01*
X-370585D01*
Y-3533262D01*
X-365920D01*
Y-3528598D01*
X-349592D01*
Y-3526265D01*
X-347258D01*
Y-3523933D01*
X-344926D01*
Y-3521600D01*
X-340261D01*
Y-3523933D01*
X-335596D01*
Y-3521600D01*
X-330931D01*
Y-3516935D01*
X-314602D01*
Y-3514602D01*
X-312269D01*
Y-3512269D01*
X-305271D01*
Y-3509937D01*
X-293608D01*
Y-3507604D01*
X-288943D01*
Y-3505271D01*
X-272615D01*
Y-3502939D01*
X-270282D01*
Y-3500606D01*
X-267950D01*
Y-3498274D01*
X-263284D01*
Y-3500606D01*
X-256287D01*
Y-3498274D01*
X-253953D01*
Y-3495941D01*
X-251621D01*
Y-3493609D01*
X-244623D01*
Y-3491275D01*
X-242291D01*
Y-3474947D01*
X-244623D01*
Y-3472615D01*
X-246956D01*
Y-3470282D01*
X-249288D01*
Y-3463284D01*
X-246956D01*
Y-3456286D01*
X-249288D01*
Y-3451622D01*
X-251621D01*
Y-3449289D01*
X-253953D01*
Y-3421297D01*
X-256287D01*
Y-3418964D01*
X-258618D01*
Y-3414299D01*
X-260951D01*
Y-3407301D01*
X-258618D01*
Y-3397970D01*
X-260951D01*
Y-3390973D01*
X-263284D01*
Y-3388640D01*
X-265616D01*
Y-3360649D01*
X-270282D01*
Y-3327992D01*
X-272615D01*
Y-3325659D01*
X-274947D01*
Y-3320994D01*
X-277280D01*
Y-3279006D01*
X-279612D01*
Y-3274341D01*
X-281946D01*
Y-3269676D01*
X-284278D01*
Y-3262678D01*
X-281946D01*
Y-3258013D01*
X-284278D01*
Y-3248683D01*
X-281946D01*
Y-3223024D01*
X-284278D01*
Y-3192699D01*
X-281946D01*
Y-3178704D01*
X-284278D01*
Y-3171705D01*
X-281946D01*
Y-3167040D01*
X-279612D01*
Y-3164708D01*
X-277280D01*
Y-3139049D01*
X-274947D01*
Y-3136716D01*
X-272615D01*
Y-3134384D01*
X-270282D01*
Y-3122721D01*
X-272615D01*
Y-3120388D01*
X-270282D01*
Y-3115722D01*
X-267950D01*
Y-3113390D01*
X-265616D01*
Y-3104059D01*
X-263284D01*
Y-3101727D01*
X-260951D01*
Y-3097062D01*
X-258618D01*
Y-3085398D01*
X-256287D01*
Y-3083065D01*
X-253953D01*
Y-3073735D01*
X-251621D01*
Y-3071403D01*
X-249288D01*
Y-3066738D01*
X-246956D01*
Y-3064404D01*
X-242291D01*
Y-3057407D01*
X-239957D01*
Y-3052742D01*
X-237625D01*
Y-3050409D01*
X-235292D01*
Y-3048076D01*
X-232960D01*
Y-3045744D01*
X-230627D01*
Y-3041078D01*
X-228294D01*
Y-3036413D01*
X-225962D01*
Y-3034081D01*
X-223629D01*
Y-3031748D01*
X-221297D01*
Y-3027083D01*
X-216632D01*
Y-3024751D01*
X-214298D01*
Y-3020085D01*
X-211966D01*
Y-3017752D01*
X-209633D01*
Y-3015419D01*
X-207301D01*
Y-3013086D01*
X-202636D01*
Y-3008422D01*
X-200303D01*
Y-3006089D01*
X-197970D01*
Y-3003757D01*
X-195638D01*
Y-3001424D01*
X-193305D01*
Y-2999092D01*
X-190972D01*
Y-2996758D01*
X-188639D01*
Y-2994426D01*
X-186307D01*
Y-2992093D01*
X-176977D01*
Y-2989761D01*
X-174645D01*
Y-2987428D01*
X-172311D01*
Y-2985096D01*
X-167646D01*
Y-2982763D01*
X-165313D01*
Y-2980430D01*
X-158316D01*
Y-2978098D01*
X-155983D01*
Y-2975765D01*
X-153651D01*
Y-2973432D01*
X-151318D01*
Y-2971099D01*
X-148985D01*
Y-2968767D01*
X-141987D01*
Y-2966434D01*
X-137322D01*
Y-2964102D01*
X-134990D01*
Y-2961769D01*
X-130324D01*
Y-2964102D01*
X-125659D01*
Y-2961769D01*
X-120993D01*
Y-2957105D01*
X-111663D01*
Y-2954771D01*
X-109331D01*
Y-2952439D01*
X-104665D01*
Y-2950106D01*
X-93002D01*
Y-2947774D01*
X-90669D01*
Y-2945440D01*
X-76674D01*
Y-2943108D01*
X-72009D01*
Y-2940775D01*
X-69676D01*
Y-2938443D01*
X-39351D01*
Y-2936111D01*
X-37019D01*
Y-2933778D01*
X-32354D01*
Y-2931445D01*
X-25356D01*
Y-2933778D01*
X44623D01*
Y-2931445D01*
X49288D01*
Y-2933778D01*
D02*
G37*
G36*
X184581Y-3712875D02*
X186913D01*
Y-3722206D01*
X184581D01*
Y-3724539D01*
X179915D01*
Y-3719874D01*
Y-3717540D01*
Y-3712875D01*
X182248D01*
Y-3710543D01*
X184581D01*
Y-3712875D01*
D02*
G37*
G36*
X-162981Y-3724539D02*
X-165313D01*
Y-3726871D01*
X-169979D01*
Y-3717540D01*
Y-3715208D01*
X-162981D01*
Y-3724539D01*
D02*
G37*
G36*
X177583Y-3738534D02*
X175250D01*
Y-3736202D01*
X177583D01*
Y-3738534D01*
D02*
G37*
G36*
X-160648Y-3736202D02*
X-158316D01*
Y-3738534D01*
X-162981D01*
Y-3733868D01*
X-160648D01*
Y-3736202D01*
D02*
G37*
G36*
X487822Y-3759527D02*
X485490D01*
Y-3764193D01*
X483157D01*
Y-3766526D01*
X478492D01*
Y-3768858D01*
X473826D01*
Y-3771191D01*
X469161D01*
Y-3773524D01*
X466829D01*
Y-3775856D01*
X464496D01*
Y-3771191D01*
X466829D01*
Y-3768858D01*
X469161D01*
Y-3764193D01*
X473826D01*
Y-3759527D01*
X478492D01*
Y-3757195D01*
X487822D01*
Y-3759527D01*
D02*
G37*
G36*
X455166Y-3782855D02*
X452832D01*
Y-3785186D01*
X445835D01*
Y-3782855D01*
X448167D01*
Y-3780521D01*
X450500D01*
Y-3778189D01*
X455166D01*
Y-3782855D01*
D02*
G37*
G36*
X-754456Y-3986027D02*
X-752946D01*
Y-4244335D01*
X-754456D01*
Y-4245846D01*
X-781646D01*
Y-4146148D01*
X-783157D01*
Y-4141616D01*
X-784668D01*
Y-4140106D01*
X-783157D01*
Y-4137084D01*
X-784668D01*
Y-4134063D01*
X-783157D01*
Y-4131042D01*
X-784668D01*
Y-4128021D01*
X-786178D01*
Y-4121979D01*
X-787689D01*
Y-4117447D01*
X-789199D01*
Y-4115936D01*
X-790710D01*
Y-4112915D01*
X-792220D01*
Y-4111405D01*
X-793731D01*
Y-4106873D01*
X-795242D01*
Y-4105362D01*
X-796752D01*
Y-4103852D01*
X-798263D01*
Y-4102341D01*
X-799773D01*
Y-4100831D01*
X-801284D01*
Y-4099320D01*
X-804305D01*
Y-4097810D01*
X-805816D01*
Y-4096299D01*
X-808837D01*
Y-4094788D01*
X-810347D01*
Y-4093278D01*
X-813368D01*
Y-4091767D01*
X-816390D01*
Y-4090257D01*
X-823942D01*
Y-4088746D01*
X-826964D01*
Y-4087236D01*
X-828474D01*
Y-4088746D01*
X-839048D01*
Y-4087236D01*
X-851133D01*
Y-4088746D01*
X-855665D01*
Y-4087236D01*
X-858686D01*
Y-4088746D01*
X-863217D01*
Y-4090257D01*
X-867749D01*
Y-4091767D01*
X-873791D01*
Y-4093278D01*
X-875302D01*
Y-4094788D01*
X-876813D01*
Y-4096299D01*
X-878323D01*
Y-4097810D01*
X-881344D01*
Y-4099320D01*
X-882855D01*
Y-4100831D01*
X-884366D01*
Y-4102341D01*
X-885876D01*
Y-4103852D01*
X-887387D01*
Y-4106873D01*
X-888897D01*
Y-4108384D01*
X-890408D01*
Y-4111405D01*
X-891918D01*
Y-4114426D01*
X-893429D01*
Y-4117447D01*
X-894940D01*
Y-4125000D01*
X-896450D01*
Y-4140106D01*
X-897961D01*
Y-4245846D01*
X-923641D01*
Y-4244335D01*
X-925151D01*
Y-4117447D01*
X-923641D01*
Y-4108384D01*
X-922130D01*
Y-4105362D01*
X-920619D01*
Y-4100831D01*
X-919109D01*
Y-4096299D01*
X-917598D01*
Y-4094788D01*
X-916088D01*
Y-4091767D01*
X-914577D01*
Y-4088746D01*
X-913066D01*
Y-4087236D01*
X-911556D01*
Y-4085725D01*
X-910045D01*
Y-4084214D01*
X-908535D01*
Y-4081193D01*
X-907024D01*
Y-4078172D01*
X-905514D01*
Y-4076662D01*
X-902492D01*
Y-4075151D01*
X-900982D01*
Y-4073640D01*
X-897961D01*
Y-4072130D01*
X-896450D01*
Y-4070619D01*
X-894940D01*
Y-4069109D01*
X-891918D01*
Y-4067598D01*
X-887387D01*
Y-4066088D01*
X-885876D01*
Y-4064577D01*
X-884366D01*
Y-4063066D01*
X-881344D01*
Y-4061556D01*
X-872281D01*
Y-4060045D01*
X-863217D01*
Y-4058535D01*
X-860196D01*
Y-4057024D01*
X-842069D01*
Y-4058535D01*
X-837538D01*
Y-4060045D01*
X-828474D01*
Y-4061556D01*
X-822432D01*
Y-4063066D01*
X-817900D01*
Y-4064577D01*
X-814879D01*
Y-4066088D01*
X-811858D01*
Y-4067598D01*
X-808837D01*
Y-4069109D01*
X-805816D01*
Y-4070619D01*
X-804305D01*
Y-4072130D01*
X-801284D01*
Y-4073640D01*
X-799773D01*
Y-4075151D01*
X-798263D01*
Y-4076662D01*
X-795242D01*
Y-4078172D01*
X-793731D01*
Y-4081193D01*
X-790710D01*
Y-4082704D01*
X-789199D01*
Y-4084214D01*
X-787689D01*
Y-4085725D01*
X-786178D01*
Y-4084214D01*
X-784668D01*
Y-4085725D01*
X-781646D01*
Y-3984517D01*
X-754456D01*
Y-3986027D01*
D02*
G37*
G36*
X904154Y-3998112D02*
X916239D01*
Y-3999622D01*
X925302D01*
Y-4001133D01*
X926813D01*
Y-4002644D01*
X932855D01*
Y-4004154D01*
X937387D01*
Y-4005665D01*
X940408D01*
Y-4007175D01*
X943429D01*
Y-4008686D01*
X946450D01*
Y-4010196D01*
X949471D01*
Y-4011707D01*
X952493D01*
Y-4013218D01*
X954003D01*
Y-4014728D01*
X957024D01*
Y-4016239D01*
X958535D01*
Y-4017749D01*
X960045D01*
Y-4019260D01*
X961556D01*
Y-4020770D01*
X963067D01*
Y-4022281D01*
X964577D01*
Y-4023792D01*
X966088D01*
Y-4025302D01*
X967598D01*
Y-4026813D01*
X969109D01*
Y-4028323D01*
X970619D01*
Y-4029834D01*
X972130D01*
Y-4032855D01*
X973641D01*
Y-4034366D01*
X975151D01*
Y-4037387D01*
X976662D01*
Y-4041918D01*
X978172D01*
Y-4044940D01*
X979683D01*
Y-4049471D01*
X981193D01*
Y-4060045D01*
X982704D01*
Y-4064577D01*
X984215D01*
Y-4073640D01*
X982704D01*
Y-4078172D01*
X981193D01*
Y-4087236D01*
X979683D01*
Y-4091767D01*
X978172D01*
Y-4094788D01*
X976662D01*
Y-4097810D01*
X975151D01*
Y-4100831D01*
X973641D01*
Y-4102341D01*
X972130D01*
Y-4105362D01*
X970619D01*
Y-4106873D01*
X969109D01*
Y-4108384D01*
X967598D01*
Y-4109894D01*
X966088D01*
Y-4111405D01*
X964577D01*
Y-4112915D01*
X963067D01*
Y-4114426D01*
X960045D01*
Y-4115936D01*
X958535D01*
Y-4117447D01*
X955514D01*
Y-4118958D01*
X952493D01*
Y-4120468D01*
X950982D01*
Y-4121979D01*
X949471D01*
Y-4123489D01*
X944940D01*
Y-4125000D01*
X938897D01*
Y-4126510D01*
X934366D01*
Y-4128021D01*
X931345D01*
Y-4129532D01*
X925302D01*
Y-4131042D01*
X920771D01*
Y-4132553D01*
X914728D01*
Y-4134063D01*
X911707D01*
Y-4135574D01*
X904154D01*
Y-4137084D01*
X896601D01*
Y-4138595D01*
X890559D01*
Y-4140106D01*
X887538D01*
Y-4141616D01*
X881496D01*
Y-4143127D01*
X875453D01*
Y-4144637D01*
X870922D01*
Y-4146148D01*
X867900D01*
Y-4147658D01*
X864879D01*
Y-4149169D01*
X861858D01*
Y-4150680D01*
X858837D01*
Y-4152190D01*
X855816D01*
Y-4153701D01*
X854305D01*
Y-4155211D01*
X852795D01*
Y-4156722D01*
X851284D01*
Y-4158232D01*
X849774D01*
Y-4161254D01*
X848263D01*
Y-4167296D01*
X846752D01*
Y-4168806D01*
X848263D01*
Y-4176359D01*
X849774D01*
Y-4177870D01*
X851284D01*
Y-4180891D01*
X852795D01*
Y-4182402D01*
X854305D01*
Y-4183912D01*
X855816D01*
Y-4185423D01*
X858837D01*
Y-4186933D01*
X860348D01*
Y-4188444D01*
X864879D01*
Y-4189955D01*
X869411D01*
Y-4191465D01*
X872432D01*
Y-4192976D01*
X884517D01*
Y-4194486D01*
X904154D01*
Y-4192976D01*
X919260D01*
Y-4191465D01*
X922281D01*
Y-4189955D01*
X928323D01*
Y-4188444D01*
X937387D01*
Y-4186933D01*
X941919D01*
Y-4185423D01*
X943429D01*
Y-4183912D01*
X949471D01*
Y-4182402D01*
X952493D01*
Y-4180891D01*
X955514D01*
Y-4179381D01*
X958535D01*
Y-4177870D01*
X961556D01*
Y-4176359D01*
X964577D01*
Y-4174849D01*
X966088D01*
Y-4173338D01*
X972130D01*
Y-4176359D01*
X973641D01*
Y-4180891D01*
X975151D01*
Y-4182402D01*
X976662D01*
Y-4186933D01*
X978172D01*
Y-4189955D01*
X979683D01*
Y-4192976D01*
X981193D01*
Y-4197507D01*
X982704D01*
Y-4200529D01*
X984215D01*
Y-4203550D01*
X985725D01*
Y-4206571D01*
X987236D01*
Y-4211103D01*
X984215D01*
Y-4212613D01*
X982704D01*
Y-4214124D01*
X979683D01*
Y-4215634D01*
X976662D01*
Y-4217145D01*
X973641D01*
Y-4218656D01*
X972130D01*
Y-4220166D01*
X969109D01*
Y-4221677D01*
X964577D01*
Y-4223187D01*
X961556D01*
Y-4224698D01*
X955514D01*
Y-4226208D01*
X952493D01*
Y-4227719D01*
X947961D01*
Y-4229230D01*
X940408D01*
Y-4230740D01*
X932855D01*
Y-4232251D01*
X929834D01*
Y-4233761D01*
X920771D01*
Y-4235272D01*
X870922D01*
Y-4233761D01*
X861858D01*
Y-4232251D01*
X860348D01*
Y-4230740D01*
X852795D01*
Y-4229230D01*
X846752D01*
Y-4227719D01*
X845242D01*
Y-4226208D01*
X842221D01*
Y-4224698D01*
X839199D01*
Y-4223187D01*
X834668D01*
Y-4221677D01*
X833157D01*
Y-4220166D01*
X830136D01*
Y-4218656D01*
X828625D01*
Y-4217145D01*
X825604D01*
Y-4215634D01*
X822583D01*
Y-4212613D01*
X819562D01*
Y-4209592D01*
X818051D01*
Y-4208081D01*
X815030D01*
Y-4205060D01*
X812009D01*
Y-4202039D01*
X810499D01*
Y-4199018D01*
X808988D01*
Y-4197507D01*
X807477D01*
Y-4194486D01*
X805967D01*
Y-4191465D01*
X804456D01*
Y-4188444D01*
X802946D01*
Y-4185423D01*
X801435D01*
Y-4177870D01*
X799924D01*
Y-4149169D01*
X801435D01*
Y-4143127D01*
X802946D01*
Y-4140106D01*
X804456D01*
Y-4137084D01*
X805967D01*
Y-4134063D01*
X807477D01*
Y-4132553D01*
X808988D01*
Y-4129532D01*
X810499D01*
Y-4126510D01*
X812009D01*
Y-4125000D01*
X813520D01*
Y-4123489D01*
X815030D01*
Y-4121979D01*
X818051D01*
Y-4120468D01*
X821073D01*
Y-4118958D01*
X822583D01*
Y-4117447D01*
X824094D01*
Y-4115936D01*
X825604D01*
Y-4114426D01*
X828625D01*
Y-4112915D01*
X831647D01*
Y-4111405D01*
X834668D01*
Y-4109894D01*
X837689D01*
Y-4108384D01*
X840710D01*
Y-4106873D01*
X846752D01*
Y-4105362D01*
X848263D01*
Y-4103852D01*
X854305D01*
Y-4102341D01*
X858837D01*
Y-4100831D01*
X866390D01*
Y-4099320D01*
X869411D01*
Y-4097810D01*
X870922D01*
Y-4099320D01*
X872432D01*
Y-4097810D01*
X875453D01*
Y-4096299D01*
X883006D01*
Y-4094788D01*
X890559D01*
Y-4093278D01*
X892070D01*
Y-4091767D01*
X898112D01*
Y-4090257D01*
X905665D01*
Y-4088746D01*
X911707D01*
Y-4087236D01*
X913218D01*
Y-4085725D01*
X919260D01*
Y-4084214D01*
X922281D01*
Y-4082704D01*
X923792D01*
Y-4081193D01*
X925302D01*
Y-4079683D01*
X928323D01*
Y-4078172D01*
X929834D01*
Y-4076662D01*
X931345D01*
Y-4075151D01*
X932855D01*
Y-4072130D01*
X934366D01*
Y-4060045D01*
X932855D01*
Y-4054003D01*
X931345D01*
Y-4052492D01*
X929834D01*
Y-4050982D01*
X928323D01*
Y-4049471D01*
X926813D01*
Y-4047961D01*
X925302D01*
Y-4046450D01*
X923792D01*
Y-4044940D01*
X920771D01*
Y-4043429D01*
X917749D01*
Y-4041918D01*
X916239D01*
Y-4040408D01*
X908686D01*
Y-4038897D01*
X864879D01*
Y-4040408D01*
X857326D01*
Y-4041918D01*
X854305D01*
Y-4043429D01*
X848263D01*
Y-4044940D01*
X843731D01*
Y-4046450D01*
X840710D01*
Y-4047961D01*
X836178D01*
Y-4049471D01*
X833157D01*
Y-4050982D01*
X830136D01*
Y-4052492D01*
X827115D01*
Y-4054003D01*
X825604D01*
Y-4052492D01*
X824094D01*
Y-4050982D01*
X822583D01*
Y-4044940D01*
X821073D01*
Y-4043429D01*
X819562D01*
Y-4040408D01*
X818051D01*
Y-4037387D01*
X816541D01*
Y-4031344D01*
X815030D01*
Y-4028323D01*
X813520D01*
Y-4026813D01*
X812009D01*
Y-4020770D01*
X810499D01*
Y-4014728D01*
X813520D01*
Y-4013218D01*
X816541D01*
Y-4011707D01*
X819562D01*
Y-4010196D01*
X822583D01*
Y-4008686D01*
X825604D01*
Y-4007175D01*
X831647D01*
Y-4005665D01*
X833157D01*
Y-4004154D01*
X839199D01*
Y-4002644D01*
X843731D01*
Y-4001133D01*
X845242D01*
Y-3999622D01*
X857326D01*
Y-3998112D01*
X872432D01*
Y-3996601D01*
X904154D01*
Y-3998112D01*
D02*
G37*
G36*
X-9743D02*
X2341D01*
Y-3999622D01*
X9894D01*
Y-4001133D01*
X12915D01*
Y-4002644D01*
X17447D01*
Y-4004154D01*
X21979D01*
Y-4005665D01*
X25000D01*
Y-4007175D01*
X28021D01*
Y-4008686D01*
X31042D01*
Y-4010196D01*
X34063D01*
Y-4011707D01*
X37085D01*
Y-4013218D01*
X40106D01*
Y-4014728D01*
X41616D01*
Y-4016239D01*
X43127D01*
Y-4017749D01*
X46148D01*
Y-4019260D01*
X47659D01*
Y-4020770D01*
X49169D01*
Y-4022281D01*
X50680D01*
Y-4023792D01*
X52190D01*
Y-4025302D01*
X53701D01*
Y-4028323D01*
X55211D01*
Y-4029834D01*
X56722D01*
Y-4031344D01*
X58233D01*
Y-4034366D01*
X59743D01*
Y-4035876D01*
X61254D01*
Y-4040408D01*
X62764D01*
Y-4043429D01*
X64275D01*
Y-4047961D01*
X65785D01*
Y-4054003D01*
X67296D01*
Y-4057024D01*
X68807D01*
Y-4081193D01*
X67296D01*
Y-4082704D01*
X65785D01*
Y-4090257D01*
X64275D01*
Y-4093278D01*
X62764D01*
Y-4094788D01*
X61254D01*
Y-4099320D01*
X59743D01*
Y-4102341D01*
X58233D01*
Y-4103852D01*
X56722D01*
Y-4105362D01*
X55211D01*
Y-4106873D01*
X53701D01*
Y-4108384D01*
X52190D01*
Y-4109894D01*
X50680D01*
Y-4111405D01*
X49169D01*
Y-4112915D01*
X47659D01*
Y-4114426D01*
X46148D01*
Y-4115936D01*
X43127D01*
Y-4117447D01*
X41616D01*
Y-4118958D01*
X38595D01*
Y-4120468D01*
X35574D01*
Y-4121979D01*
X34063D01*
Y-4123489D01*
X29532D01*
Y-4125000D01*
X25000D01*
Y-4126510D01*
X20468D01*
Y-4128021D01*
X17447D01*
Y-4129532D01*
X11405D01*
Y-4131042D01*
X5363D01*
Y-4132553D01*
X-680D01*
Y-4134063D01*
X-2190D01*
Y-4135574D01*
X-9743D01*
Y-4137084D01*
X-17296D01*
Y-4138595D01*
X-24849D01*
Y-4140106D01*
X-27870D01*
Y-4141616D01*
X-33912D01*
Y-4143127D01*
X-39955D01*
Y-4144637D01*
X-44486D01*
Y-4146148D01*
X-47507D01*
Y-4147658D01*
X-50529D01*
Y-4149169D01*
X-53550D01*
Y-4150680D01*
X-55060D01*
Y-4152190D01*
X-58081D01*
Y-4153701D01*
X-61103D01*
Y-4155211D01*
X-62613D01*
Y-4156722D01*
X-64124D01*
Y-4159743D01*
X-65634D01*
Y-4162764D01*
X-67145D01*
Y-4174849D01*
X-65634D01*
Y-4176359D01*
X-64124D01*
Y-4179381D01*
X-62613D01*
Y-4182402D01*
X-61103D01*
Y-4183912D01*
X-58081D01*
Y-4185423D01*
X-56571D01*
Y-4186933D01*
X-55060D01*
Y-4188444D01*
X-50529D01*
Y-4189955D01*
X-44486D01*
Y-4191465D01*
X-42976D01*
Y-4192976D01*
X-30891D01*
Y-4194486D01*
X-11254D01*
Y-4192976D01*
X5363D01*
Y-4191465D01*
X8384D01*
Y-4189955D01*
X15937D01*
Y-4188444D01*
X23489D01*
Y-4186933D01*
X28021D01*
Y-4185423D01*
X31042D01*
Y-4183912D01*
X34063D01*
Y-4182402D01*
X37085D01*
Y-4180891D01*
X43127D01*
Y-4179381D01*
X44637D01*
Y-4177870D01*
X47659D01*
Y-4176359D01*
X49169D01*
Y-4174849D01*
X50680D01*
Y-4173338D01*
X56722D01*
Y-4174849D01*
X58233D01*
Y-4177870D01*
X59743D01*
Y-4182402D01*
X61254D01*
Y-4185423D01*
X62764D01*
Y-4188444D01*
X64275D01*
Y-4192976D01*
X65785D01*
Y-4195997D01*
X67296D01*
Y-4199018D01*
X68807D01*
Y-4202039D01*
X70317D01*
Y-4205060D01*
X71828D01*
Y-4211103D01*
X70317D01*
Y-4212613D01*
X67296D01*
Y-4214124D01*
X64275D01*
Y-4215634D01*
X62764D01*
Y-4217145D01*
X59743D01*
Y-4218656D01*
X56722D01*
Y-4220166D01*
X53701D01*
Y-4221677D01*
X50680D01*
Y-4223187D01*
X46148D01*
Y-4224698D01*
X41616D01*
Y-4226208D01*
X38595D01*
Y-4227719D01*
X32553D01*
Y-4229230D01*
X26511D01*
Y-4230740D01*
X17447D01*
Y-4232251D01*
X15937D01*
Y-4233761D01*
X5363D01*
Y-4235272D01*
X-44486D01*
Y-4233761D01*
X-53550D01*
Y-4232251D01*
X-55060D01*
Y-4230740D01*
X-62613D01*
Y-4229230D01*
X-65634D01*
Y-4227719D01*
X-71677D01*
Y-4226208D01*
X-74698D01*
Y-4224698D01*
X-76208D01*
Y-4223187D01*
X-80740D01*
Y-4221677D01*
X-82251D01*
Y-4220166D01*
X-83761D01*
Y-4218656D01*
X-86782D01*
Y-4217145D01*
X-88293D01*
Y-4215634D01*
X-91314D01*
Y-4214124D01*
X-92825D01*
Y-4212613D01*
X-95846D01*
Y-4211103D01*
X-97356D01*
Y-4209592D01*
X-98867D01*
Y-4208081D01*
X-100377D01*
Y-4205060D01*
X-101888D01*
Y-4202039D01*
X-103399D01*
Y-4200529D01*
X-104909D01*
Y-4197507D01*
X-106420D01*
Y-4195997D01*
X-107930D01*
Y-4194486D01*
X-109441D01*
Y-4189955D01*
X-110952D01*
Y-4186933D01*
X-112462D01*
Y-4183912D01*
X-113973D01*
Y-4176359D01*
X-115483D01*
Y-4152190D01*
X-113973D01*
Y-4144637D01*
X-112462D01*
Y-4141616D01*
X-110952D01*
Y-4138595D01*
X-109441D01*
Y-4135574D01*
X-107930D01*
Y-4132553D01*
X-106420D01*
Y-4131042D01*
X-104909D01*
Y-4128021D01*
X-103399D01*
Y-4126510D01*
X-100377D01*
Y-4123489D01*
X-98867D01*
Y-4121979D01*
X-97356D01*
Y-4120468D01*
X-95846D01*
Y-4118958D01*
X-92825D01*
Y-4117447D01*
X-91314D01*
Y-4115936D01*
X-88293D01*
Y-4114426D01*
X-86782D01*
Y-4112915D01*
X-83761D01*
Y-4111405D01*
X-80740D01*
Y-4109894D01*
X-77719D01*
Y-4108384D01*
X-73187D01*
Y-4106873D01*
X-67145D01*
Y-4105362D01*
X-65634D01*
Y-4103852D01*
X-61103D01*
Y-4102341D01*
X-56571D01*
Y-4100831D01*
X-49018D01*
Y-4099320D01*
X-45997D01*
Y-4097810D01*
X-42976D01*
Y-4099320D01*
X-41465D01*
Y-4097810D01*
X-39955D01*
Y-4096299D01*
X-32402D01*
Y-4094788D01*
X-24849D01*
Y-4093278D01*
X-23338D01*
Y-4091767D01*
X-15785D01*
Y-4090257D01*
X-9743D01*
Y-4088746D01*
X-3701D01*
Y-4087236D01*
X-680D01*
Y-4085725D01*
X2341D01*
Y-4084214D01*
X6873D01*
Y-4082704D01*
X9894D01*
Y-4081193D01*
X11405D01*
Y-4079683D01*
X12915D01*
Y-4078172D01*
X14426D01*
Y-4076662D01*
X15937D01*
Y-4075151D01*
X17447D01*
Y-4073640D01*
X18958D01*
Y-4057024D01*
X17447D01*
Y-4054003D01*
X15937D01*
Y-4052492D01*
X14426D01*
Y-4050982D01*
X12915D01*
Y-4049471D01*
X11405D01*
Y-4047961D01*
X9894D01*
Y-4046450D01*
X8384D01*
Y-4044940D01*
X5363D01*
Y-4043429D01*
X3852D01*
Y-4041918D01*
X2341D01*
Y-4040408D01*
X-5211D01*
Y-4038897D01*
X-49018D01*
Y-4040408D01*
X-58081D01*
Y-4041918D01*
X-59592D01*
Y-4043429D01*
X-65634D01*
Y-4044940D01*
X-70166D01*
Y-4046450D01*
X-74698D01*
Y-4047961D01*
X-79229D01*
Y-4049471D01*
X-80740D01*
Y-4050982D01*
X-85272D01*
Y-4052492D01*
X-91314D01*
Y-4049471D01*
X-92825D01*
Y-4044940D01*
X-94335D01*
Y-4041918D01*
X-95846D01*
Y-4038897D01*
X-97356D01*
Y-4035876D01*
X-98867D01*
Y-4029834D01*
X-100377D01*
Y-4026813D01*
X-101888D01*
Y-4023792D01*
X-103399D01*
Y-4019260D01*
X-104909D01*
Y-4014728D01*
X-101888D01*
Y-4013218D01*
X-98867D01*
Y-4011707D01*
X-97356D01*
Y-4010196D01*
X-92825D01*
Y-4008686D01*
X-88293D01*
Y-4007175D01*
X-85272D01*
Y-4005665D01*
X-82251D01*
Y-4004154D01*
X-76208D01*
Y-4002644D01*
X-70166D01*
Y-4001133D01*
X-68655D01*
Y-3999622D01*
X-56571D01*
Y-3998112D01*
X-42976D01*
Y-3996601D01*
X-9743D01*
Y-3998112D01*
D02*
G37*
G36*
X-405514Y-4058535D02*
X-402492D01*
Y-4060045D01*
X-391918D01*
Y-4061556D01*
X-384365D01*
Y-4063066D01*
X-381344D01*
Y-4064577D01*
X-376813D01*
Y-4066088D01*
X-373791D01*
Y-4067598D01*
X-369260D01*
Y-4069109D01*
X-367749D01*
Y-4070619D01*
X-364728D01*
Y-4072130D01*
X-363217D01*
Y-4073640D01*
X-360196D01*
Y-4075151D01*
X-358686D01*
Y-4076662D01*
X-355665D01*
Y-4078172D01*
X-354154D01*
Y-4079683D01*
X-352643D01*
Y-4081193D01*
X-351133D01*
Y-4082704D01*
X-349622D01*
Y-4084214D01*
X-348112D01*
Y-4085725D01*
X-346601D01*
Y-4087236D01*
X-345090D01*
Y-4088746D01*
X-343580D01*
Y-4090257D01*
X-342069D01*
Y-4093278D01*
X-340559D01*
Y-4094788D01*
X-339048D01*
Y-4097810D01*
X-337538D01*
Y-4099320D01*
X-336027D01*
Y-4102341D01*
X-334516D01*
Y-4103852D01*
X-333006D01*
Y-4108384D01*
X-331495D01*
Y-4109894D01*
X-329985D01*
Y-4114426D01*
X-328474D01*
Y-4117447D01*
X-326964D01*
Y-4125000D01*
X-325453D01*
Y-4128021D01*
X-323942D01*
Y-4135574D01*
X-322432D01*
Y-4168806D01*
X-323942D01*
Y-4176359D01*
X-325453D01*
Y-4179381D01*
X-326964D01*
Y-4186933D01*
X-328474D01*
Y-4189955D01*
X-329985D01*
Y-4194486D01*
X-331495D01*
Y-4195997D01*
X-333006D01*
Y-4199018D01*
X-334516D01*
Y-4202039D01*
X-336027D01*
Y-4205060D01*
X-337538D01*
Y-4206571D01*
X-339048D01*
Y-4209592D01*
X-340559D01*
Y-4211103D01*
X-342069D01*
Y-4214124D01*
X-343580D01*
Y-4215634D01*
X-345090D01*
Y-4217145D01*
X-346601D01*
Y-4218656D01*
X-348112D01*
Y-4220166D01*
X-349622D01*
Y-4221677D01*
X-351133D01*
Y-4223187D01*
X-352643D01*
Y-4224698D01*
X-354154D01*
Y-4226208D01*
X-355665D01*
Y-4227719D01*
X-358686D01*
Y-4229230D01*
X-361707D01*
Y-4230740D01*
X-363217D01*
Y-4232251D01*
X-366239D01*
Y-4233761D01*
X-367749D01*
Y-4235272D01*
X-370770D01*
Y-4236782D01*
X-375302D01*
Y-4238293D01*
X-378323D01*
Y-4239804D01*
X-381344D01*
Y-4241314D01*
X-387387D01*
Y-4242825D01*
X-390408D01*
Y-4244335D01*
X-391918D01*
Y-4242825D01*
X-394940D01*
Y-4244335D01*
X-396450D01*
Y-4245846D01*
X-408535D01*
Y-4247357D01*
X-432704D01*
Y-4245846D01*
X-444789D01*
Y-4244335D01*
X-446299D01*
Y-4242825D01*
X-452341D01*
Y-4241314D01*
X-458384D01*
Y-4239804D01*
X-461405D01*
Y-4238293D01*
X-464426D01*
Y-4236782D01*
X-467447D01*
Y-4235272D01*
X-470468D01*
Y-4233761D01*
X-471979D01*
Y-4232251D01*
X-475000D01*
Y-4230740D01*
X-478021D01*
Y-4229230D01*
X-479532D01*
Y-4227719D01*
X-481042D01*
Y-4226208D01*
X-482553D01*
Y-4224698D01*
X-484063D01*
Y-4223187D01*
X-485574D01*
Y-4221677D01*
X-487085D01*
Y-4220166D01*
X-488595D01*
Y-4218656D01*
X-490106D01*
Y-4215634D01*
X-488595D01*
Y-4214124D01*
X-487085D01*
Y-4212613D01*
X-485574D01*
Y-4211103D01*
X-484063D01*
Y-4209592D01*
X-482553D01*
Y-4208081D01*
X-481042D01*
Y-4205060D01*
X-479532D01*
Y-4203550D01*
X-478021D01*
Y-4202039D01*
X-476511D01*
Y-4200529D01*
X-475000D01*
Y-4199018D01*
X-473489D01*
Y-4200529D01*
X-471979D01*
Y-4202039D01*
X-470468D01*
Y-4203550D01*
X-468958D01*
Y-4205060D01*
X-467447D01*
Y-4206571D01*
X-464426D01*
Y-4208081D01*
X-461405D01*
Y-4209592D01*
X-458384D01*
Y-4211103D01*
X-456873D01*
Y-4212613D01*
X-452341D01*
Y-4214124D01*
X-450831D01*
Y-4215634D01*
X-443278D01*
Y-4217145D01*
X-434215D01*
Y-4218656D01*
X-411556D01*
Y-4217145D01*
X-397961D01*
Y-4215634D01*
X-393429D01*
Y-4214124D01*
X-390408D01*
Y-4212613D01*
X-384365D01*
Y-4211103D01*
X-382855D01*
Y-4209592D01*
X-379834D01*
Y-4208081D01*
X-378323D01*
Y-4206571D01*
X-375302D01*
Y-4205060D01*
X-373791D01*
Y-4203550D01*
X-372281D01*
Y-4202039D01*
X-370770D01*
Y-4200529D01*
X-369260D01*
Y-4199018D01*
X-367749D01*
Y-4197507D01*
X-366239D01*
Y-4195997D01*
X-364728D01*
Y-4194486D01*
X-363217D01*
Y-4192976D01*
X-361707D01*
Y-4191465D01*
X-360196D01*
Y-4189955D01*
X-358686D01*
Y-4186933D01*
X-357175D01*
Y-4183912D01*
X-355665D01*
Y-4180891D01*
X-354154D01*
Y-4176359D01*
X-352643D01*
Y-4170317D01*
X-351133D01*
Y-4164275D01*
X-500680D01*
Y-4162764D01*
X-502190D01*
Y-4155211D01*
X-503701D01*
Y-4152190D01*
X-502190D01*
Y-4134063D01*
X-500680D01*
Y-4131042D01*
X-499169D01*
Y-4128021D01*
X-500680D01*
Y-4126510D01*
X-499169D01*
Y-4125000D01*
X-497659D01*
Y-4117447D01*
X-496148D01*
Y-4112915D01*
X-494637D01*
Y-4111405D01*
X-493127D01*
Y-4108384D01*
X-491616D01*
Y-4102341D01*
X-490106D01*
Y-4100831D01*
X-488595D01*
Y-4099320D01*
X-487085D01*
Y-4096299D01*
X-485574D01*
Y-4094788D01*
X-484063D01*
Y-4091767D01*
X-482553D01*
Y-4088746D01*
X-479532D01*
Y-4085725D01*
X-478021D01*
Y-4084214D01*
X-476511D01*
Y-4082704D01*
X-475000D01*
Y-4081193D01*
X-473489D01*
Y-4079683D01*
X-471979D01*
Y-4078172D01*
X-470468D01*
Y-4076662D01*
X-467447D01*
Y-4075151D01*
X-464426D01*
Y-4073640D01*
X-462915D01*
Y-4072130D01*
X-461405D01*
Y-4070619D01*
X-458384D01*
Y-4069109D01*
X-456873D01*
Y-4067598D01*
X-453852D01*
Y-4066088D01*
X-447810D01*
Y-4064577D01*
X-444789D01*
Y-4063066D01*
X-441767D01*
Y-4061556D01*
X-434215D01*
Y-4060045D01*
X-425151D01*
Y-4058535D01*
X-423641D01*
Y-4057024D01*
X-405514D01*
Y-4058535D01*
D02*
G37*
G36*
X-626057D02*
X-621526D01*
Y-4060045D01*
X-610952D01*
Y-4061556D01*
X-603399D01*
Y-4063066D01*
X-598867D01*
Y-4064577D01*
X-594335D01*
Y-4066088D01*
X-592825D01*
Y-4067598D01*
X-588293D01*
Y-4069109D01*
X-585272D01*
Y-4070619D01*
X-583761D01*
Y-4072130D01*
X-579229D01*
Y-4073640D01*
X-577719D01*
Y-4075151D01*
X-576208D01*
Y-4076662D01*
X-573187D01*
Y-4078172D01*
X-571677D01*
Y-4079683D01*
X-570166D01*
Y-4081193D01*
X-568655D01*
Y-4082704D01*
X-567145D01*
Y-4084214D01*
X-565634D01*
Y-4085725D01*
X-564124D01*
Y-4087236D01*
X-562613D01*
Y-4088746D01*
X-561103D01*
Y-4090257D01*
X-559592D01*
Y-4091767D01*
X-558081D01*
Y-4093278D01*
X-556571D01*
Y-4094788D01*
X-555060D01*
Y-4097810D01*
X-553550D01*
Y-4099320D01*
X-552039D01*
Y-4100831D01*
X-550529D01*
Y-4103852D01*
X-549018D01*
Y-4108384D01*
X-547507D01*
Y-4112915D01*
X-545997D01*
Y-4114426D01*
X-544486D01*
Y-4117447D01*
X-542976D01*
Y-4123489D01*
X-541465D01*
Y-4129532D01*
X-539955D01*
Y-4132553D01*
X-538444D01*
Y-4171828D01*
X-539955D01*
Y-4174849D01*
X-541465D01*
Y-4180891D01*
X-542976D01*
Y-4186933D01*
X-544486D01*
Y-4191465D01*
X-545997D01*
Y-4192976D01*
X-547507D01*
Y-4195997D01*
X-549018D01*
Y-4200529D01*
X-550529D01*
Y-4203550D01*
X-552039D01*
Y-4205060D01*
X-553550D01*
Y-4206571D01*
X-555060D01*
Y-4209592D01*
X-556571D01*
Y-4211103D01*
X-558081D01*
Y-4212613D01*
X-559592D01*
Y-4215634D01*
X-561103D01*
Y-4217145D01*
X-564124D01*
Y-4220166D01*
X-565634D01*
Y-4221677D01*
X-568655D01*
Y-4224698D01*
X-571677D01*
Y-4226208D01*
X-573187D01*
Y-4227719D01*
X-576208D01*
Y-4229230D01*
X-577719D01*
Y-4230740D01*
X-579229D01*
Y-4232251D01*
X-582251D01*
Y-4233761D01*
X-583761D01*
Y-4235272D01*
X-586782D01*
Y-4236782D01*
X-589803D01*
Y-4238293D01*
X-592825D01*
Y-4239804D01*
X-597356D01*
Y-4241314D01*
X-601888D01*
Y-4242825D01*
X-607930D01*
Y-4244335D01*
X-612462D01*
Y-4245846D01*
X-623036D01*
Y-4247357D01*
X-644184D01*
Y-4245846D01*
X-654758D01*
Y-4244335D01*
X-656269D01*
Y-4242825D01*
X-659290D01*
Y-4244335D01*
X-662311D01*
Y-4242825D01*
X-663822D01*
Y-4241314D01*
X-669864D01*
Y-4239804D01*
X-672885D01*
Y-4238293D01*
X-675906D01*
Y-4236782D01*
X-677417D01*
Y-4235272D01*
X-681949D01*
Y-4233761D01*
X-683459D01*
Y-4232251D01*
X-686480D01*
Y-4230740D01*
X-687991D01*
Y-4229230D01*
X-689502D01*
Y-4227719D01*
X-691012D01*
Y-4226208D01*
X-692523D01*
Y-4224698D01*
X-694033D01*
Y-4223187D01*
X-695544D01*
Y-4221677D01*
X-697054D01*
Y-4220166D01*
X-698565D01*
Y-4218656D01*
X-700076D01*
Y-4217145D01*
X-701586D01*
Y-4214124D01*
X-703097D01*
Y-4212613D01*
X-704607D01*
Y-4211103D01*
X-706118D01*
Y-4206571D01*
X-704607D01*
Y-4205060D01*
X-700076D01*
Y-4203550D01*
X-698565D01*
Y-4202039D01*
X-697054D01*
Y-4200529D01*
X-694033D01*
Y-4199018D01*
X-692523D01*
Y-4197507D01*
X-691012D01*
Y-4195997D01*
X-687991D01*
Y-4194486D01*
X-684970D01*
Y-4195997D01*
X-683459D01*
Y-4197507D01*
X-681949D01*
Y-4199018D01*
X-680438D01*
Y-4200529D01*
X-678928D01*
Y-4202039D01*
X-677417D01*
Y-4203550D01*
X-675906D01*
Y-4205060D01*
X-674396D01*
Y-4206571D01*
X-671375D01*
Y-4208081D01*
X-669864D01*
Y-4209592D01*
X-666843D01*
Y-4211103D01*
X-665332D01*
Y-4212613D01*
X-660801D01*
Y-4214124D01*
X-657779D01*
Y-4215634D01*
X-653248D01*
Y-4217145D01*
X-642674D01*
Y-4218656D01*
X-620015D01*
Y-4217145D01*
X-612462D01*
Y-4215634D01*
X-607930D01*
Y-4214124D01*
X-604909D01*
Y-4212613D01*
X-600378D01*
Y-4211103D01*
X-598867D01*
Y-4209592D01*
X-595846D01*
Y-4208081D01*
X-592825D01*
Y-4206571D01*
X-591314D01*
Y-4205060D01*
X-588293D01*
Y-4203550D01*
X-586782D01*
Y-4202039D01*
X-585272D01*
Y-4200529D01*
X-583761D01*
Y-4199018D01*
X-582251D01*
Y-4197507D01*
X-580740D01*
Y-4195997D01*
X-579229D01*
Y-4192976D01*
X-577719D01*
Y-4191465D01*
X-576208D01*
Y-4186933D01*
X-574698D01*
Y-4185423D01*
X-573187D01*
Y-4180891D01*
X-571677D01*
Y-4176359D01*
X-570166D01*
Y-4174849D01*
X-568655D01*
Y-4167296D01*
X-567145D01*
Y-4137084D01*
X-568655D01*
Y-4131042D01*
X-570166D01*
Y-4128021D01*
X-571677D01*
Y-4123489D01*
X-573187D01*
Y-4118958D01*
X-574698D01*
Y-4117447D01*
X-576208D01*
Y-4114426D01*
X-577719D01*
Y-4112915D01*
X-579229D01*
Y-4109894D01*
X-580740D01*
Y-4106873D01*
X-583761D01*
Y-4103852D01*
X-586782D01*
Y-4100831D01*
X-589803D01*
Y-4099320D01*
X-592825D01*
Y-4097810D01*
X-594335D01*
Y-4096299D01*
X-597356D01*
Y-4094788D01*
X-598867D01*
Y-4093278D01*
X-600378D01*
Y-4091767D01*
X-606420D01*
Y-4090257D01*
X-612462D01*
Y-4088746D01*
X-613973D01*
Y-4087236D01*
X-615483D01*
Y-4088746D01*
X-618504D01*
Y-4087236D01*
X-621526D01*
Y-4085725D01*
X-641163D01*
Y-4087236D01*
X-645695D01*
Y-4088746D01*
X-650227D01*
Y-4087236D01*
X-651737D01*
Y-4088746D01*
X-654758D01*
Y-4090257D01*
X-660801D01*
Y-4091767D01*
X-665332D01*
Y-4093278D01*
X-666843D01*
Y-4094788D01*
X-668354D01*
Y-4096299D01*
X-669864D01*
Y-4097810D01*
X-672885D01*
Y-4099320D01*
X-674396D01*
Y-4100831D01*
X-675906D01*
Y-4102341D01*
X-677417D01*
Y-4103852D01*
X-678928D01*
Y-4105362D01*
X-680438D01*
Y-4106873D01*
X-681949D01*
Y-4108384D01*
X-683459D01*
Y-4109894D01*
X-684970D01*
Y-4111405D01*
X-686480D01*
Y-4109894D01*
X-687991D01*
Y-4108384D01*
X-689502D01*
Y-4106873D01*
X-692523D01*
Y-4105362D01*
X-694033D01*
Y-4103852D01*
X-697054D01*
Y-4102341D01*
X-700076D01*
Y-4100831D01*
X-701586D01*
Y-4099320D01*
X-703097D01*
Y-4097810D01*
X-706118D01*
Y-4094788D01*
X-704607D01*
Y-4091767D01*
X-703097D01*
Y-4088746D01*
X-701586D01*
Y-4087236D01*
X-700076D01*
Y-4085725D01*
X-698565D01*
Y-4084214D01*
X-697054D01*
Y-4082704D01*
X-695544D01*
Y-4081193D01*
X-694033D01*
Y-4079683D01*
X-692523D01*
Y-4078172D01*
X-691012D01*
Y-4076662D01*
X-689502D01*
Y-4075151D01*
X-687991D01*
Y-4073640D01*
X-686480D01*
Y-4072130D01*
X-681949D01*
Y-4070619D01*
X-680438D01*
Y-4069109D01*
X-678928D01*
Y-4067598D01*
X-675906D01*
Y-4066088D01*
X-671375D01*
Y-4064577D01*
X-668354D01*
Y-4063066D01*
X-663822D01*
Y-4061556D01*
X-657779D01*
Y-4060045D01*
X-650227D01*
Y-4058535D01*
X-648716D01*
Y-4057024D01*
X-626057D01*
Y-4058535D01*
D02*
G37*
G36*
X786329Y-4002644D02*
X787840D01*
Y-4035876D01*
X786329D01*
Y-4037387D01*
X787840D01*
Y-4041918D01*
X786329D01*
Y-4043429D01*
X712311D01*
Y-4230740D01*
X710801D01*
Y-4232251D01*
X663973D01*
Y-4230740D01*
X662462D01*
Y-4043429D01*
X589955D01*
Y-4037387D01*
Y-4035876D01*
Y-3999622D01*
X786329D01*
Y-4002644D01*
D02*
G37*
G36*
X553701Y-4232251D02*
X506873D01*
Y-4230740D01*
X505363D01*
Y-4168806D01*
X503852D01*
Y-4167296D01*
X450982D01*
Y-4168806D01*
X449471D01*
Y-4170317D01*
X447961D01*
Y-4173338D01*
X446450D01*
Y-4174849D01*
X444940D01*
Y-4177870D01*
X443429D01*
Y-4180891D01*
X441919D01*
Y-4182402D01*
X440408D01*
Y-4183912D01*
X438897D01*
Y-4186933D01*
X437387D01*
Y-4188444D01*
X435876D01*
Y-4189955D01*
X434366D01*
Y-4192976D01*
X432855D01*
Y-4194486D01*
X431345D01*
Y-4197507D01*
X429834D01*
Y-4199018D01*
X428323D01*
Y-4202039D01*
X426813D01*
Y-4203550D01*
X425302D01*
Y-4206571D01*
X423792D01*
Y-4208081D01*
X422281D01*
Y-4209592D01*
X420771D01*
Y-4211103D01*
Y-4212613D01*
X419260D01*
Y-4215634D01*
X417749D01*
Y-4217145D01*
X416239D01*
Y-4218656D01*
X414728D01*
Y-4221677D01*
X413218D01*
Y-4223187D01*
X411707D01*
Y-4226208D01*
X410197D01*
Y-4227719D01*
X408686D01*
Y-4229230D01*
X407175D01*
Y-4230740D01*
X405665D01*
Y-4232251D01*
X354305D01*
Y-4229230D01*
X355816D01*
Y-4227719D01*
X357326D01*
Y-4226208D01*
X358837D01*
Y-4223187D01*
X360348D01*
Y-4221677D01*
X361858D01*
Y-4218656D01*
X363369D01*
Y-4217145D01*
X364879D01*
Y-4215634D01*
X366390D01*
Y-4214124D01*
X367900D01*
Y-4211103D01*
X369411D01*
Y-4208081D01*
X370922D01*
Y-4206571D01*
X372432D01*
Y-4203550D01*
X373943D01*
Y-4202039D01*
X375453D01*
Y-4200529D01*
X376964D01*
Y-4197507D01*
X378474D01*
Y-4195997D01*
X379985D01*
Y-4192976D01*
X383006D01*
Y-4188444D01*
X384517D01*
Y-4186933D01*
X386027D01*
Y-4185423D01*
X387538D01*
Y-4182402D01*
X389048D01*
Y-4180891D01*
X390559D01*
Y-4177870D01*
X392070D01*
Y-4174849D01*
X393580D01*
Y-4173338D01*
X395091D01*
Y-4170317D01*
X396601D01*
Y-4168806D01*
X398112D01*
Y-4167296D01*
X399623D01*
Y-4165785D01*
X401133D01*
Y-4162764D01*
X402644D01*
Y-4161254D01*
X404154D01*
Y-4156722D01*
X402644D01*
Y-4155211D01*
X399623D01*
Y-4153701D01*
X395091D01*
Y-4152190D01*
X393580D01*
Y-4150680D01*
X392070D01*
Y-4149169D01*
X389048D01*
Y-4147658D01*
X387538D01*
Y-4146148D01*
X386027D01*
Y-4144637D01*
X383006D01*
Y-4143127D01*
X381496D01*
Y-4141616D01*
X379985D01*
Y-4140106D01*
X378474D01*
Y-4138595D01*
X376964D01*
Y-4137084D01*
X375453D01*
Y-4134063D01*
X373943D01*
Y-4132553D01*
X372432D01*
Y-4131042D01*
X370922D01*
Y-4129532D01*
X369411D01*
Y-4126510D01*
X367900D01*
Y-4125000D01*
X366390D01*
Y-4120468D01*
X364879D01*
Y-4117447D01*
X363369D01*
Y-4114426D01*
X361858D01*
Y-4112915D01*
X363369D01*
Y-4111405D01*
X361858D01*
Y-4109894D01*
X360348D01*
Y-4102341D01*
X358837D01*
Y-4066088D01*
X360348D01*
Y-4058535D01*
X361858D01*
Y-4055514D01*
X363369D01*
Y-4049471D01*
X364879D01*
Y-4047961D01*
X366390D01*
Y-4043429D01*
X367900D01*
Y-4041918D01*
X369411D01*
Y-4038897D01*
X370922D01*
Y-4037387D01*
X372432D01*
Y-4034366D01*
X373943D01*
Y-4031344D01*
X375453D01*
Y-4029834D01*
X376964D01*
Y-4028323D01*
X378474D01*
Y-4026813D01*
X379985D01*
Y-4025302D01*
X381496D01*
Y-4023792D01*
X383006D01*
Y-4022281D01*
X386027D01*
Y-4020770D01*
X389048D01*
Y-4019260D01*
X390559D01*
Y-4017749D01*
X392070D01*
Y-4016239D01*
X395091D01*
Y-4014728D01*
X398112D01*
Y-4013218D01*
X401133D01*
Y-4011707D01*
X402644D01*
Y-4010196D01*
X407175D01*
Y-4008686D01*
X410197D01*
Y-4007175D01*
X413218D01*
Y-4005665D01*
X416239D01*
Y-4004154D01*
X423792D01*
Y-4002644D01*
X435876D01*
Y-4001133D01*
X437387D01*
Y-3999622D01*
X553701D01*
Y-4232251D01*
D02*
G37*
G36*
X236480Y-4001133D02*
X237991D01*
Y-4004154D01*
X239502D01*
Y-4007175D01*
X241012D01*
Y-4010196D01*
X242523D01*
Y-4014728D01*
X244033D01*
Y-4017749D01*
X245544D01*
Y-4022281D01*
X247054D01*
Y-4025302D01*
X248565D01*
Y-4026813D01*
X250076D01*
Y-4031344D01*
X251586D01*
Y-4035876D01*
X253097D01*
Y-4037387D01*
X254607D01*
Y-4041918D01*
X256118D01*
Y-4044940D01*
X257628D01*
Y-4047961D01*
X259139D01*
Y-4050982D01*
X260650D01*
Y-4055514D01*
X262160D01*
Y-4060045D01*
X263671D01*
Y-4061556D01*
X265181D01*
Y-4064577D01*
X266692D01*
Y-4067598D01*
X268202D01*
Y-4072130D01*
X269713D01*
Y-4075151D01*
X271224D01*
Y-4079683D01*
X272734D01*
Y-4082704D01*
X274245D01*
Y-4085725D01*
X275755D01*
Y-4088746D01*
X277266D01*
Y-4091767D01*
X278776D01*
Y-4096299D01*
X280287D01*
Y-4099320D01*
X281798D01*
Y-4102341D01*
X283308D01*
Y-4105362D01*
X284819D01*
Y-4109894D01*
X286329D01*
Y-4114426D01*
X287840D01*
Y-4115936D01*
X289350D01*
Y-4118958D01*
X290861D01*
Y-4123489D01*
X292372D01*
Y-4126510D01*
X293882D01*
Y-4129532D01*
X295393D01*
Y-4134063D01*
X296903D01*
Y-4137084D01*
X298414D01*
Y-4140106D01*
X299924D01*
Y-4143127D01*
X301435D01*
Y-4146148D01*
X302946D01*
Y-4150680D01*
X304456D01*
Y-4153701D01*
X305967D01*
Y-4156722D01*
X307477D01*
Y-4158232D01*
Y-4159743D01*
X308988D01*
Y-4164275D01*
X310498D01*
Y-4168806D01*
X312009D01*
Y-4171828D01*
X313520D01*
Y-4173338D01*
X315030D01*
Y-4177870D01*
X316541D01*
Y-4179381D01*
X318051D01*
Y-4183912D01*
X319562D01*
Y-4188444D01*
X321073D01*
Y-4191465D01*
X322583D01*
Y-4194486D01*
X324094D01*
Y-4197507D01*
X325604D01*
Y-4202039D01*
X327115D01*
Y-4206571D01*
X328625D01*
Y-4208081D01*
X330136D01*
Y-4211103D01*
X331647D01*
Y-4214124D01*
X333157D01*
Y-4218656D01*
X334668D01*
Y-4221677D01*
X336178D01*
Y-4224698D01*
X337689D01*
Y-4229230D01*
X339199D01*
Y-4232251D01*
X290861D01*
Y-4230740D01*
X289350D01*
Y-4227719D01*
X287840D01*
Y-4226208D01*
X286329D01*
Y-4223187D01*
X284819D01*
Y-4217145D01*
X283308D01*
Y-4214124D01*
X281798D01*
Y-4211103D01*
X280287D01*
Y-4206571D01*
X278776D01*
Y-4203550D01*
X277266D01*
Y-4197507D01*
X275755D01*
Y-4195997D01*
X274245D01*
Y-4191465D01*
X272734D01*
Y-4188444D01*
X271224D01*
Y-4183912D01*
X269713D01*
Y-4182402D01*
X156420D01*
Y-4185423D01*
X154910D01*
Y-4186933D01*
X153399D01*
Y-4191465D01*
X151888D01*
Y-4195997D01*
X150378D01*
Y-4199018D01*
X148867D01*
Y-4202039D01*
X147357D01*
Y-4206571D01*
X145846D01*
Y-4209592D01*
X144335D01*
Y-4212613D01*
X142825D01*
Y-4217145D01*
X141314D01*
Y-4221677D01*
X139804D01*
Y-4224698D01*
X138293D01*
Y-4227719D01*
X136783D01*
Y-4230740D01*
X135272D01*
Y-4232251D01*
X85423D01*
Y-4227719D01*
X86934D01*
Y-4224698D01*
X88444D01*
Y-4221677D01*
X89955D01*
Y-4217145D01*
X91465D01*
Y-4214124D01*
X92976D01*
Y-4211103D01*
X94486D01*
Y-4208081D01*
X95997D01*
Y-4205060D01*
X97508D01*
Y-4202039D01*
X99018D01*
Y-4197507D01*
X100529D01*
Y-4192976D01*
X102039D01*
Y-4191465D01*
X103550D01*
Y-4188444D01*
X105060D01*
Y-4183912D01*
X106571D01*
Y-4180891D01*
X108082D01*
Y-4177870D01*
X109592D01*
Y-4173338D01*
X111103D01*
Y-4170317D01*
X112613D01*
Y-4167296D01*
X114124D01*
Y-4164275D01*
X115635D01*
Y-4161254D01*
X117145D01*
Y-4156722D01*
X118656D01*
Y-4153701D01*
X120166D01*
Y-4150680D01*
X121677D01*
Y-4147658D01*
X123187D01*
Y-4144637D01*
X124698D01*
Y-4141616D01*
X126209D01*
Y-4140106D01*
X124698D01*
Y-4138595D01*
X126209D01*
Y-4137084D01*
X127719D01*
Y-4132553D01*
X129230D01*
Y-4129532D01*
X130740D01*
Y-4128021D01*
X132251D01*
Y-4125000D01*
X133761D01*
Y-4118958D01*
X135272D01*
Y-4115936D01*
X136783D01*
Y-4112915D01*
X138293D01*
Y-4109894D01*
X139804D01*
Y-4106873D01*
X141314D01*
Y-4100831D01*
X142825D01*
Y-4099320D01*
X144335D01*
Y-4096299D01*
X145846D01*
Y-4091767D01*
X147357D01*
Y-4090257D01*
X148867D01*
Y-4087236D01*
X150378D01*
Y-4081193D01*
X151888D01*
Y-4078172D01*
X153399D01*
Y-4075151D01*
X154910D01*
Y-4073640D01*
X156420D01*
Y-4069109D01*
X157931D01*
Y-4066088D01*
X159441D01*
Y-4063066D01*
X160952D01*
Y-4058535D01*
X162462D01*
Y-4055514D01*
X163973D01*
Y-4052492D01*
X165484D01*
Y-4049471D01*
X166994D01*
Y-4046450D01*
X168505D01*
Y-4041918D01*
X170015D01*
Y-4037387D01*
X171526D01*
Y-4035876D01*
X173036D01*
Y-4032855D01*
X174547D01*
Y-4028323D01*
X176058D01*
Y-4023792D01*
X177568D01*
Y-4020770D01*
X179079D01*
Y-4017749D01*
X180589D01*
Y-4014728D01*
X182100D01*
Y-4011707D01*
X183610D01*
Y-4010196D01*
X185121D01*
Y-4004154D01*
X186632D01*
Y-4001133D01*
X188142D01*
Y-3999622D01*
X236480D01*
Y-4001133D01*
D02*
G37*
G36*
X-121526Y-4028323D02*
X-204607D01*
Y-4029834D01*
X-206118D01*
Y-4245846D01*
X-234819D01*
Y-4244335D01*
X-236329D01*
Y-4028323D01*
X-319411D01*
Y-3999622D01*
X-121526D01*
Y-4028323D01*
D02*
G37*
G36*
X133307Y-4383987D02*
X136241Y-4384456D01*
X138823Y-4385160D01*
X141052Y-4385864D01*
X143047Y-4386686D01*
X143751Y-4387038D01*
X144455Y-4387272D01*
X145042Y-4387624D01*
X145394Y-4387742D01*
X145629Y-4387976D01*
X145746D01*
X148328Y-4389619D01*
X150557Y-4391497D01*
X152435Y-4393492D01*
X154078Y-4395369D01*
X155369Y-4397130D01*
X156308Y-4398420D01*
X156542Y-4399007D01*
X156777Y-4399359D01*
X157012Y-4399594D01*
Y-4399711D01*
X158302Y-4402528D01*
X159359Y-4405461D01*
X160063Y-4408160D01*
X160532Y-4410625D01*
X160649Y-4411798D01*
X160767Y-4412854D01*
X160884Y-4413793D01*
Y-4414497D01*
X161001Y-4415201D01*
Y-4415671D01*
Y-4415905D01*
Y-4416023D01*
Y-4423650D01*
X160767Y-4426701D01*
X160297Y-4429635D01*
X159593Y-4432217D01*
X158772Y-4434564D01*
X157950Y-4436441D01*
X157598Y-4437263D01*
X157246Y-4437849D01*
X156894Y-4438436D01*
X156777Y-4438788D01*
X156542Y-4439023D01*
Y-4439140D01*
X154782Y-4441605D01*
X152904Y-4443717D01*
X151027Y-4445477D01*
X149267Y-4446885D01*
X147741Y-4448059D01*
X146568Y-4448880D01*
X146098Y-4449115D01*
X145746Y-4449349D01*
X145629Y-4449467D01*
X145512D01*
X142460Y-4450758D01*
X139409Y-4451814D01*
X136358Y-4452518D01*
X133542Y-4452987D01*
X132369Y-4453105D01*
X131195Y-4453222D01*
X130256Y-4453339D01*
X129317D01*
X128613Y-4453457D01*
X127675D01*
X124506Y-4453339D01*
X121573Y-4452988D01*
X118991Y-4452518D01*
X116644Y-4451931D01*
X114766Y-4451462D01*
X113945Y-4451227D01*
X113241Y-4450993D01*
X112771Y-4450758D01*
X112419Y-4450641D01*
X112185Y-4450523D01*
X112067D01*
X110190Y-4449702D01*
X108547Y-4448646D01*
X107021Y-4447707D01*
X105848Y-4446768D01*
X104792Y-4445829D01*
X104088Y-4445125D01*
X103618Y-4444656D01*
X103501Y-4444538D01*
X102679Y-4443600D01*
X102093Y-4442661D01*
X101741Y-4441839D01*
X101389Y-4441135D01*
X101271Y-4440431D01*
X101154Y-4439962D01*
Y-4439727D01*
Y-4439610D01*
X101271Y-4438788D01*
X101389Y-4437967D01*
X101975Y-4436676D01*
X102327Y-4436207D01*
X102679Y-4435855D01*
X102797Y-4435737D01*
X102914Y-4435620D01*
X103501Y-4435033D01*
X104205Y-4434564D01*
X104909Y-4434329D01*
X105496Y-4434095D01*
X105965Y-4433977D01*
X106435Y-4433860D01*
X106787D01*
X107725Y-4433977D01*
X108430Y-4434095D01*
X108899Y-4434329D01*
X109134Y-4434447D01*
X109486Y-4434681D01*
X109955Y-4435033D01*
X110777Y-4435737D01*
X111481Y-4436441D01*
X111715Y-4436559D01*
X111833Y-4436676D01*
X112889Y-4437732D01*
X113828Y-4438554D01*
X114766Y-4439258D01*
X115470Y-4439727D01*
X116175Y-4440197D01*
X116644Y-4440431D01*
X116996Y-4440666D01*
X117113D01*
X118756Y-4441253D01*
X120634Y-4441605D01*
X122394Y-4441957D01*
X124037Y-4442074D01*
X125445Y-4442191D01*
X126618Y-4442309D01*
X127675D01*
X129552Y-4442191D01*
X131312Y-4442074D01*
X134598Y-4441487D01*
X136124Y-4441018D01*
X137415Y-4440548D01*
X138588Y-4440079D01*
X139761Y-4439610D01*
X140700Y-4439140D01*
X141522Y-4438671D01*
X142343Y-4438201D01*
X142930Y-4437732D01*
X143399Y-4437380D01*
X143751Y-4437145D01*
X143869Y-4436911D01*
X143986D01*
X145042Y-4435854D01*
X145864Y-4434798D01*
X146685Y-4433625D01*
X147389Y-4432569D01*
X148445Y-4430222D01*
X149149Y-4428110D01*
X149501Y-4426232D01*
X149619Y-4425411D01*
X149736Y-4424706D01*
X149853Y-4424237D01*
Y-4423768D01*
Y-4423533D01*
Y-4423416D01*
Y-4416140D01*
X149736Y-4413676D01*
X149384Y-4411446D01*
X148797Y-4409451D01*
X148211Y-4407691D01*
X147741Y-4406283D01*
X147154Y-4405227D01*
X146802Y-4404640D01*
X146685Y-4404405D01*
X145394Y-4402645D01*
X144103Y-4401237D01*
X142930Y-4399946D01*
X141756Y-4399007D01*
X140818Y-4398186D01*
X139996Y-4397716D01*
X139527Y-4397364D01*
X139292Y-4397247D01*
X137649Y-4396543D01*
X136006Y-4395956D01*
X134481Y-4395604D01*
X133073Y-4395252D01*
X131782Y-4395135D01*
X130843Y-4395017D01*
X130022D01*
X128496Y-4395135D01*
X126971Y-4395252D01*
X125680Y-4395487D01*
X124389Y-4395721D01*
X123450Y-4396074D01*
X122629Y-4396308D01*
X122042Y-4396426D01*
X121925Y-4396543D01*
X120516Y-4397130D01*
X119226Y-4397834D01*
X118169Y-4398421D01*
X117348Y-4399125D01*
X116644Y-4399712D01*
X116057Y-4400064D01*
X115822Y-4400416D01*
X115705Y-4400533D01*
X115001Y-4401589D01*
X114414Y-4402763D01*
X114297Y-4403232D01*
X114180Y-4403701D01*
X114062Y-4403936D01*
Y-4404053D01*
X113828Y-4405227D01*
X113476Y-4406166D01*
X113123Y-4406987D01*
X112889Y-4407691D01*
X112537Y-4408161D01*
X112302Y-4408513D01*
X112067Y-4408630D01*
Y-4408747D01*
X111011Y-4409451D01*
X109838Y-4409803D01*
X109368D01*
X108899Y-4409921D01*
X108547D01*
X107608Y-4409803D01*
X106904Y-4409686D01*
X105613Y-4409099D01*
X105144Y-4408747D01*
X104792Y-4408513D01*
X104674Y-4408395D01*
X104557Y-4408278D01*
X103970Y-4407574D01*
X103618Y-4406635D01*
X103149Y-4404758D01*
X103032Y-4403936D01*
X102914Y-4403232D01*
Y-4402645D01*
Y-4402528D01*
Y-4393023D01*
X103032Y-4391615D01*
X103149Y-4390441D01*
X103384Y-4389385D01*
X103736Y-4388563D01*
X104088Y-4387977D01*
X104322Y-4387625D01*
X104440Y-4387390D01*
X104557Y-4387273D01*
X105144Y-4386686D01*
X105848Y-4386217D01*
X106435Y-4385982D01*
X107139Y-4385747D01*
X107725Y-4385630D01*
X108078Y-4385512D01*
X108547D01*
X109603Y-4385630D01*
X110424Y-4385864D01*
X111011Y-4386217D01*
X111129Y-4386334D01*
X111246D01*
X112067Y-4386921D01*
X112771Y-4387625D01*
X113241Y-4388211D01*
X113358Y-4388329D01*
Y-4388446D01*
X116175Y-4386921D01*
X117583Y-4386334D01*
X118756Y-4385864D01*
X119812Y-4385512D01*
X120634Y-4385278D01*
X121103Y-4385043D01*
X121338D01*
X124506Y-4384339D01*
X126032Y-4384104D01*
X127440Y-4383987D01*
X128613Y-4383869D01*
X130374D01*
X133307Y-4383987D01*
D02*
G37*
G36*
X-537923Y-4383987D02*
X-534990Y-4384456D01*
X-532408Y-4385160D01*
X-530178Y-4385864D01*
X-528183Y-4386686D01*
X-527479Y-4387038D01*
X-526775Y-4387273D01*
X-526188Y-4387625D01*
X-525836Y-4387742D01*
X-525602Y-4387977D01*
X-525484D01*
X-522903Y-4389620D01*
X-520673Y-4391497D01*
X-518796Y-4393492D01*
X-517153Y-4395370D01*
X-515862Y-4397130D01*
X-514923Y-4398421D01*
X-514688Y-4399007D01*
X-514454Y-4399360D01*
X-514219Y-4399594D01*
Y-4399712D01*
X-512928Y-4402528D01*
X-511872Y-4405462D01*
X-511168Y-4408161D01*
X-510698Y-4410625D01*
X-510581Y-4411798D01*
X-510464Y-4412855D01*
X-510346Y-4413793D01*
Y-4414497D01*
X-510229Y-4415201D01*
Y-4415671D01*
Y-4415906D01*
Y-4416023D01*
Y-4423651D01*
X-510464Y-4426702D01*
X-510933Y-4429635D01*
X-511637Y-4432217D01*
X-512459Y-4434564D01*
X-513280Y-4436441D01*
X-513632Y-4437263D01*
X-513984Y-4437850D01*
X-514336Y-4438436D01*
X-514454Y-4438788D01*
X-514688Y-4439023D01*
Y-4439140D01*
X-516449Y-4441605D01*
X-518326Y-4443717D01*
X-520204Y-4445477D01*
X-521964Y-4446885D01*
X-523489Y-4448059D01*
X-524663Y-4448880D01*
X-525132Y-4449115D01*
X-525484Y-4449350D01*
X-525602Y-4449467D01*
X-525719D01*
X-528770Y-4450758D01*
X-531821Y-4451814D01*
X-534872Y-4452518D01*
X-537689Y-4452988D01*
X-538862Y-4453105D01*
X-540035Y-4453222D01*
X-540974Y-4453340D01*
X-541913D01*
X-542617Y-4453457D01*
X-543556D01*
X-546724Y-4453340D01*
X-549658Y-4452988D01*
X-552240Y-4452518D01*
X-554587Y-4451931D01*
X-556464Y-4451462D01*
X-557286Y-4451227D01*
X-557990Y-4450993D01*
X-558459Y-4450758D01*
X-558811Y-4450641D01*
X-559046Y-4450523D01*
X-559163D01*
X-561041Y-4449702D01*
X-562684Y-4448646D01*
X-564209Y-4447707D01*
X-565383Y-4446768D01*
X-566439Y-4445829D01*
X-567143Y-4445125D01*
X-567612Y-4444656D01*
X-567730Y-4444538D01*
X-568551Y-4443600D01*
X-569138Y-4442661D01*
X-569490Y-4441839D01*
X-569842Y-4441135D01*
X-569959Y-4440431D01*
X-570077Y-4439962D01*
Y-4439727D01*
Y-4439610D01*
X-569959Y-4438788D01*
X-569842Y-4437967D01*
X-569255Y-4436676D01*
X-568903Y-4436207D01*
X-568551Y-4435855D01*
X-568434Y-4435737D01*
X-568316Y-4435620D01*
X-567730Y-4435033D01*
X-567026Y-4434564D01*
X-566321Y-4434329D01*
X-565735Y-4434095D01*
X-565265Y-4433977D01*
X-564796Y-4433860D01*
X-564444D01*
X-563505Y-4433977D01*
X-562801Y-4434095D01*
X-562332Y-4434329D01*
X-562097Y-4434447D01*
X-561745Y-4434681D01*
X-561275Y-4435033D01*
X-560454Y-4435737D01*
X-559750Y-4436441D01*
X-559515Y-4436559D01*
X-559398Y-4436676D01*
X-558342Y-4437732D01*
X-557403Y-4438554D01*
X-556464Y-4439258D01*
X-555760Y-4439727D01*
X-555056Y-4440197D01*
X-554587Y-4440431D01*
X-554235Y-4440666D01*
X-554117D01*
X-552474Y-4441253D01*
X-550597Y-4441605D01*
X-548837Y-4441957D01*
X-547194Y-4442074D01*
X-545786Y-4442192D01*
X-544612Y-4442309D01*
X-543556D01*
X-541678Y-4442192D01*
X-539918Y-4442074D01*
X-536632Y-4441487D01*
X-535107Y-4441018D01*
X-533816Y-4440549D01*
X-532643Y-4440079D01*
X-531469Y-4439610D01*
X-530530Y-4439140D01*
X-529709Y-4438671D01*
X-528887Y-4438202D01*
X-528301Y-4437732D01*
X-527831Y-4437380D01*
X-527479Y-4437146D01*
X-527362Y-4436911D01*
X-527245D01*
X-526188Y-4435855D01*
X-525367Y-4434799D01*
X-524546Y-4433625D01*
X-523841Y-4432569D01*
X-522785Y-4430222D01*
X-522081Y-4428110D01*
X-521729Y-4426232D01*
X-521612Y-4425411D01*
X-521495Y-4424707D01*
X-521377Y-4424237D01*
Y-4423768D01*
Y-4423533D01*
Y-4423416D01*
Y-4416140D01*
X-521495Y-4413676D01*
X-521847Y-4411446D01*
X-522433Y-4409451D01*
X-523020Y-4407691D01*
X-523489Y-4406283D01*
X-524076Y-4405227D01*
X-524428Y-4404640D01*
X-524546Y-4404405D01*
X-525836Y-4402645D01*
X-527127Y-4401237D01*
X-528301Y-4399946D01*
X-529474Y-4399007D01*
X-530413Y-4398186D01*
X-531234Y-4397717D01*
X-531704Y-4397365D01*
X-531938Y-4397247D01*
X-533581Y-4396543D01*
X-535224Y-4395956D01*
X-536750Y-4395604D01*
X-538158Y-4395252D01*
X-539449Y-4395135D01*
X-540388Y-4395018D01*
X-541209D01*
X-542734Y-4395135D01*
X-544260Y-4395252D01*
X-545551Y-4395487D01*
X-546842Y-4395722D01*
X-547780Y-4396074D01*
X-548602Y-4396308D01*
X-549189Y-4396426D01*
X-549306Y-4396543D01*
X-550714Y-4397130D01*
X-552005Y-4397834D01*
X-553061Y-4398421D01*
X-553883Y-4399125D01*
X-554587Y-4399712D01*
X-555173Y-4400064D01*
X-555408Y-4400416D01*
X-555525Y-4400533D01*
X-556230Y-4401589D01*
X-556816Y-4402763D01*
X-556934Y-4403232D01*
X-557051Y-4403701D01*
X-557168Y-4403936D01*
Y-4404053D01*
X-557403Y-4405227D01*
X-557755Y-4406166D01*
X-558107Y-4406987D01*
X-558342Y-4407691D01*
X-558694Y-4408161D01*
X-558929Y-4408513D01*
X-559163Y-4408630D01*
Y-4408747D01*
X-560219Y-4409451D01*
X-561393Y-4409803D01*
X-561862D01*
X-562332Y-4409921D01*
X-562684D01*
X-563622Y-4409803D01*
X-564327Y-4409686D01*
X-565617Y-4409099D01*
X-566087Y-4408747D01*
X-566439Y-4408513D01*
X-566556Y-4408395D01*
X-566673Y-4408278D01*
X-567260Y-4407574D01*
X-567612Y-4406635D01*
X-568082Y-4404758D01*
X-568199Y-4403936D01*
X-568316Y-4403232D01*
Y-4402645D01*
Y-4402528D01*
Y-4393023D01*
X-568199Y-4391615D01*
X-568082Y-4390441D01*
X-567847Y-4389385D01*
X-567495Y-4388563D01*
X-567143Y-4387977D01*
X-566908Y-4387625D01*
X-566791Y-4387390D01*
X-566673Y-4387273D01*
X-566087Y-4386686D01*
X-565383Y-4386217D01*
X-564796Y-4385982D01*
X-564092Y-4385747D01*
X-563505Y-4385630D01*
X-563153Y-4385512D01*
X-562684D01*
X-561628Y-4385630D01*
X-560806Y-4385864D01*
X-560219Y-4386217D01*
X-560102Y-4386334D01*
X-559985D01*
X-559163Y-4386921D01*
X-558459Y-4387625D01*
X-557990Y-4388211D01*
X-557872Y-4388329D01*
Y-4388446D01*
X-555056Y-4386921D01*
X-553648Y-4386334D01*
X-552474Y-4385864D01*
X-551418Y-4385512D01*
X-550597Y-4385278D01*
X-550127Y-4385043D01*
X-549893D01*
X-546724Y-4384339D01*
X-545199Y-4384104D01*
X-543791Y-4383987D01*
X-542617Y-4383870D01*
X-540857D01*
X-537923Y-4383987D01*
D02*
G37*
G36*
X408840Y-4392670D02*
X395463D01*
Y-4380818D01*
X408840D01*
Y-4392670D01*
D02*
G37*
G36*
X469979Y-4400767D02*
X471270Y-4400885D01*
X472560Y-4401002D01*
X473617Y-4401119D01*
X474438Y-4401237D01*
X474907Y-4401354D01*
X475142D01*
X478310Y-4401941D01*
X479719Y-4402293D01*
X481009Y-4402528D01*
X482066Y-4402762D01*
X482887Y-4402997D01*
X483356Y-4403232D01*
X483591D01*
X484647Y-4403584D01*
X485469Y-4403818D01*
X486173Y-4404053D01*
X486760Y-4404288D01*
X487229Y-4404523D01*
X487464Y-4404640D01*
X487698Y-4404757D01*
X488285Y-4405227D01*
X488754Y-4405813D01*
X489106Y-4406165D01*
X489224Y-4406400D01*
X489459Y-4407222D01*
X489576Y-4408043D01*
X489693Y-4408630D01*
Y-4408747D01*
Y-4408864D01*
X489576Y-4409803D01*
X489459Y-4410507D01*
X488872Y-4411798D01*
X488637Y-4412268D01*
X488402Y-4412620D01*
X488285Y-4412854D01*
X488168Y-4412972D01*
X487581Y-4413441D01*
X486877Y-4413793D01*
X485703Y-4414262D01*
X485234Y-4414380D01*
X484765Y-4414497D01*
X483708D01*
X483004Y-4414380D01*
X481479Y-4414145D01*
X480892Y-4414028D01*
X480305Y-4413910D01*
X479953Y-4413793D01*
X479836D01*
X477020Y-4413089D01*
X474438Y-4412620D01*
X472208Y-4412268D01*
X470331Y-4412033D01*
X468923Y-4411915D01*
X467866Y-4411798D01*
X466928D01*
X464815Y-4411915D01*
X463055Y-4412033D01*
X461647Y-4412268D01*
X460474Y-4412620D01*
X459652Y-4412972D01*
X459183Y-4413206D01*
X458831Y-4413324D01*
X458713Y-4413441D01*
X458009Y-4414145D01*
X457423Y-4414732D01*
X457070Y-4415553D01*
X456718Y-4416140D01*
X456601Y-4416727D01*
X456484Y-4417196D01*
Y-4417548D01*
Y-4417666D01*
Y-4420365D01*
X458948Y-4420012D01*
X461178Y-4419660D01*
X463173Y-4419426D01*
X464933Y-4419308D01*
X466341Y-4419191D01*
X468336D01*
X470683Y-4419308D01*
X472795Y-4419426D01*
X474907Y-4419778D01*
X476785Y-4420130D01*
X478545Y-4420599D01*
X480188Y-4421069D01*
X481714Y-4421655D01*
X483004Y-4422242D01*
X484178Y-4422829D01*
X485234Y-4423416D01*
X486173Y-4423885D01*
X486877Y-4424354D01*
X487464Y-4424706D01*
X487816Y-4425058D01*
X488050Y-4425176D01*
X488168Y-4425293D01*
X489459Y-4426467D01*
X490515Y-4427523D01*
X491453Y-4428696D01*
X492275Y-4429870D01*
X492979Y-4430926D01*
X493566Y-4431982D01*
X494387Y-4433977D01*
X494974Y-4435737D01*
X495209Y-4437028D01*
X495326Y-4437497D01*
Y-4437849D01*
Y-4438084D01*
Y-4438201D01*
X495209Y-4439258D01*
X495091Y-4440314D01*
X494387Y-4442309D01*
X493566Y-4444069D01*
X492510Y-4445712D01*
X491453Y-4447003D01*
X490515Y-4447941D01*
X489928Y-4448528D01*
X489811Y-4448763D01*
X489693D01*
X487464Y-4450288D01*
X484999Y-4451462D01*
X482652Y-4452283D01*
X480305Y-4452870D01*
X478310Y-4453222D01*
X477372Y-4453339D01*
X476668D01*
X475963Y-4453457D01*
X475142D01*
X471856Y-4453339D01*
X470331Y-4453105D01*
X468923Y-4452870D01*
X467632Y-4452753D01*
X466693Y-4452518D01*
X466106Y-4452401D01*
X465872D01*
X463994Y-4451931D01*
X462234Y-4451462D01*
X460591Y-4450875D01*
X459183Y-4450406D01*
X458127Y-4449819D01*
X457188Y-4449467D01*
X456718Y-4449232D01*
X456484Y-4449115D01*
Y-4451696D01*
X443458D01*
X442050Y-4451579D01*
X440759Y-4451462D01*
X439820Y-4451227D01*
X438999Y-4450875D01*
X438412Y-4450640D01*
X437943Y-4450406D01*
X437708Y-4450288D01*
X437591Y-4450171D01*
X437004Y-4449584D01*
X436535Y-4448880D01*
X436300Y-4448176D01*
X436065Y-4447589D01*
X435948Y-4447003D01*
X435830Y-4446533D01*
Y-4446298D01*
Y-4446181D01*
X435948Y-4445242D01*
X436065Y-4444538D01*
X436652Y-4443247D01*
X437004Y-4442778D01*
X437356Y-4442426D01*
X437473Y-4442309D01*
X437591Y-4442191D01*
X438295Y-4441605D01*
X439234Y-4441252D01*
X441228Y-4440783D01*
X442050Y-4440666D01*
X442754Y-4440548D01*
X445336D01*
Y-4417548D01*
X445453Y-4416140D01*
X445570Y-4414732D01*
X446274Y-4412268D01*
X447213Y-4410155D01*
X448269Y-4408395D01*
X449325Y-4407104D01*
X450264Y-4406048D01*
X450968Y-4405461D01*
X451086Y-4405227D01*
X451203D01*
X453550Y-4403701D01*
X456132Y-4402528D01*
X458831Y-4401706D01*
X461412Y-4401237D01*
X463759Y-4400885D01*
X464698Y-4400767D01*
X465520D01*
X466341Y-4400650D01*
X467280D01*
X469979Y-4400767D01*
D02*
G37*
G36*
X563857Y-4385630D02*
X565148Y-4385747D01*
X566204Y-4385982D01*
X566908Y-4386334D01*
X567612Y-4386686D01*
X567964Y-4386920D01*
X568199Y-4387038D01*
X568316Y-4387155D01*
X568903Y-4387742D01*
X569372Y-4388446D01*
X569607Y-4389033D01*
X569842Y-4389737D01*
X569959Y-4390323D01*
X570077Y-4390675D01*
Y-4391028D01*
Y-4391145D01*
X569959Y-4391966D01*
X569842Y-4392788D01*
X569138Y-4394079D01*
X568903Y-4394548D01*
X568551Y-4394900D01*
X568434Y-4395017D01*
X568316Y-4395135D01*
X567612Y-4395604D01*
X566673Y-4395956D01*
X564796Y-4396426D01*
X563857Y-4396543D01*
X563153Y-4396660D01*
X562449D01*
Y-4440548D01*
X563857Y-4440666D01*
X565148Y-4440783D01*
X566204Y-4441018D01*
X566908Y-4441370D01*
X567612Y-4441722D01*
X567964Y-4441957D01*
X568199Y-4442074D01*
X568316Y-4442191D01*
X568903Y-4442778D01*
X569372Y-4443482D01*
X569607Y-4444069D01*
X569842Y-4444773D01*
X569959Y-4445360D01*
X570077Y-4445712D01*
Y-4446064D01*
Y-4446181D01*
X569959Y-4447003D01*
X569842Y-4447824D01*
X569138Y-4449115D01*
X568903Y-4449584D01*
X568551Y-4449936D01*
X568434Y-4450054D01*
X568316Y-4450171D01*
X567612Y-4450640D01*
X566673Y-4450992D01*
X564796Y-4451462D01*
X563857Y-4451579D01*
X563153Y-4451696D01*
X547311D01*
X545903Y-4451579D01*
X544612Y-4451462D01*
X543673Y-4451227D01*
X542852Y-4450875D01*
X542265Y-4450640D01*
X541796Y-4450406D01*
X541561Y-4450288D01*
X541444Y-4450171D01*
X540857Y-4449584D01*
X540388Y-4448880D01*
X540153Y-4448176D01*
X539918Y-4447589D01*
X539801Y-4447003D01*
X539683Y-4446533D01*
Y-4446298D01*
Y-4446181D01*
X539801Y-4445242D01*
X539918Y-4444538D01*
X540505Y-4443247D01*
X540857Y-4442778D01*
X541209Y-4442426D01*
X541326Y-4442309D01*
X541444Y-4442191D01*
X542148Y-4441605D01*
X543087Y-4441252D01*
X545081Y-4440783D01*
X545903Y-4440666D01*
X546607Y-4440548D01*
X551301D01*
Y-4407222D01*
X538158Y-4435972D01*
X528535D01*
X515510Y-4407222D01*
Y-4440548D01*
X519617D01*
X521025Y-4440666D01*
X522316Y-4440783D01*
X523372Y-4441018D01*
X524194Y-4441370D01*
X524780Y-4441722D01*
X525250Y-4441957D01*
X525484Y-4442074D01*
X525602Y-4442191D01*
X526188Y-4442778D01*
X526540Y-4443482D01*
X527010Y-4444773D01*
X527127Y-4445360D01*
X527245Y-4445712D01*
Y-4446064D01*
Y-4446181D01*
X527127Y-4447003D01*
X527010Y-4447824D01*
X526423Y-4449115D01*
X526071Y-4449584D01*
X525836Y-4449936D01*
X525719Y-4450054D01*
X525602Y-4450171D01*
X524780Y-4450640D01*
X523959Y-4450992D01*
X521964Y-4451462D01*
X521025Y-4451579D01*
X520321Y-4451696D01*
X504362D01*
X502954Y-4451579D01*
X501663Y-4451462D01*
X500724Y-4451227D01*
X499902Y-4450875D01*
X499316Y-4450640D01*
X498846Y-4450406D01*
X498612Y-4450288D01*
X498494Y-4450171D01*
X497908Y-4449584D01*
X497438Y-4448880D01*
X497203Y-4448176D01*
X496969Y-4447589D01*
X496851Y-4447003D01*
X496734Y-4446533D01*
Y-4446298D01*
Y-4446181D01*
X496851Y-4445242D01*
X496969Y-4444538D01*
X497556Y-4443247D01*
X497908Y-4442778D01*
X498260Y-4442426D01*
X498377Y-4442309D01*
X498494Y-4442191D01*
X499198Y-4441605D01*
X500137Y-4441252D01*
X502132Y-4440783D01*
X502954Y-4440666D01*
X503658Y-4440548D01*
X504362D01*
Y-4396660D01*
X502954Y-4396543D01*
X501663Y-4396426D01*
X500724Y-4396191D01*
X499902Y-4395839D01*
X499316Y-4395604D01*
X498846Y-4395369D01*
X498612Y-4395252D01*
X498494Y-4395135D01*
X497908Y-4394548D01*
X497438Y-4393844D01*
X497203Y-4393140D01*
X496969Y-4392553D01*
X496851Y-4391966D01*
X496734Y-4391497D01*
Y-4391262D01*
Y-4391145D01*
X496851Y-4390206D01*
X496969Y-4389502D01*
X497556Y-4388211D01*
X497908Y-4387742D01*
X498260Y-4387390D01*
X498377Y-4387272D01*
X498494Y-4387155D01*
X499198Y-4386568D01*
X500137Y-4386216D01*
X502132Y-4385747D01*
X502954Y-4385630D01*
X503658Y-4385512D01*
X518209D01*
X533347Y-4419191D01*
X548719Y-4385512D01*
X562449D01*
X563857Y-4385630D01*
D02*
G37*
G36*
X-311207Y-4402176D02*
X-309916Y-4402293D01*
X-308860Y-4402528D01*
X-308038Y-4402880D01*
X-307452Y-4403232D01*
X-306982Y-4403467D01*
X-306748Y-4403584D01*
X-306630Y-4403701D01*
X-306044Y-4404288D01*
X-305692Y-4404992D01*
X-305222Y-4406283D01*
X-305105Y-4406870D01*
X-304987Y-4407222D01*
Y-4407574D01*
Y-4407691D01*
X-305105Y-4408513D01*
X-305222Y-4409334D01*
X-305809Y-4410625D01*
X-306161Y-4411094D01*
X-306396Y-4411446D01*
X-306513Y-4411564D01*
X-306630Y-4411681D01*
X-307452Y-4412150D01*
X-308273Y-4412502D01*
X-310268Y-4412972D01*
X-311207Y-4413089D01*
X-311911Y-4413207D01*
X-314258D01*
X-333034Y-4451697D01*
X-344768D01*
X-363544Y-4413207D01*
X-365422D01*
X-366947Y-4413089D01*
X-368121Y-4412972D01*
X-369177Y-4412737D01*
X-369998Y-4412385D01*
X-370585Y-4412150D01*
X-371054Y-4411916D01*
X-371289Y-4411798D01*
X-371406Y-4411681D01*
X-371993Y-4411094D01*
X-372463Y-4410390D01*
X-372697Y-4409686D01*
X-372932Y-4409099D01*
X-373049Y-4408513D01*
X-373167Y-4408043D01*
Y-4407809D01*
Y-4407691D01*
X-373049Y-4406752D01*
X-372932Y-4406048D01*
X-372345Y-4404758D01*
X-371993Y-4404288D01*
X-371641Y-4403936D01*
X-371524Y-4403819D01*
X-371406Y-4403701D01*
X-370702Y-4403115D01*
X-369764Y-4402763D01*
X-367769Y-4402293D01*
X-366830Y-4402176D01*
X-366126Y-4402059D01*
X-351105D01*
X-349697Y-4402176D01*
X-348406Y-4402293D01*
X-347467Y-4402528D01*
X-346646Y-4402880D01*
X-346059Y-4403232D01*
X-345590Y-4403467D01*
X-345355Y-4403584D01*
X-345238Y-4403701D01*
X-344651Y-4404288D01*
X-344299Y-4404992D01*
X-343830Y-4406283D01*
X-343712Y-4406870D01*
X-343595Y-4407222D01*
Y-4407574D01*
Y-4407691D01*
X-343712Y-4408630D01*
X-343947Y-4409451D01*
X-344768Y-4410860D01*
X-345238Y-4411446D01*
X-345590Y-4411916D01*
X-345825Y-4412150D01*
X-345942Y-4412268D01*
X-346529Y-4412620D01*
X-347233Y-4412855D01*
X-348054Y-4412972D01*
X-348876Y-4413089D01*
X-349697Y-4413207D01*
X-351105D01*
X-338901Y-4438319D01*
X-326697Y-4413207D01*
X-328105D01*
X-329278Y-4413089D01*
X-330217Y-4412855D01*
X-330921Y-4412737D01*
X-331391Y-4412502D01*
X-331743Y-4412385D01*
X-331977Y-4412268D01*
X-332799Y-4411446D01*
X-333386Y-4410625D01*
X-333738Y-4409921D01*
X-334090Y-4409217D01*
X-334207Y-4408630D01*
X-334324Y-4408161D01*
Y-4407809D01*
Y-4407691D01*
X-334207Y-4406752D01*
X-334090Y-4406048D01*
X-333503Y-4404758D01*
X-333151Y-4404288D01*
X-332799Y-4403936D01*
X-332682Y-4403819D01*
X-332564Y-4403701D01*
X-331860Y-4403115D01*
X-330921Y-4402763D01*
X-328926Y-4402293D01*
X-328105Y-4402176D01*
X-327401Y-4402059D01*
X-312615D01*
X-311207Y-4402176D01*
D02*
G37*
G36*
X-268492Y-4400768D02*
X-266497Y-4401002D01*
X-264502Y-4401354D01*
X-262625Y-4401824D01*
X-259222Y-4402997D01*
X-257696Y-4403701D01*
X-256288Y-4404288D01*
X-254997Y-4404992D01*
X-253941Y-4405696D01*
X-252885Y-4406283D01*
X-252064Y-4406870D01*
X-251359Y-4407339D01*
X-250890Y-4407691D01*
X-250655Y-4407926D01*
X-250538Y-4408043D01*
X-249012Y-4409451D01*
X-247722Y-4410977D01*
X-246548Y-4412502D01*
X-245492Y-4414145D01*
X-244671Y-4415788D01*
X-243966Y-4417431D01*
X-243380Y-4418957D01*
X-242910Y-4420482D01*
X-242558Y-4421890D01*
X-242324Y-4423181D01*
X-242089Y-4424355D01*
X-241972Y-4425293D01*
Y-4426115D01*
X-241854Y-4426819D01*
Y-4427171D01*
Y-4427288D01*
X-241972Y-4429283D01*
X-242206Y-4431278D01*
X-242558Y-4433156D01*
X-243145Y-4434799D01*
X-244436Y-4438084D01*
X-245140Y-4439493D01*
X-245844Y-4440783D01*
X-246548Y-4441957D01*
X-247370Y-4442896D01*
X-247956Y-4443834D01*
X-248543Y-4444538D01*
X-249130Y-4445125D01*
X-249482Y-4445595D01*
X-249717Y-4445829D01*
X-249834Y-4445947D01*
X-251359Y-4447237D01*
X-253120Y-4448411D01*
X-254880Y-4449467D01*
X-256640Y-4450289D01*
X-258400Y-4450993D01*
X-260161Y-4451579D01*
X-263564Y-4452518D01*
X-265206Y-4452870D01*
X-266615Y-4453105D01*
X-267905Y-4453222D01*
X-269079Y-4453340D01*
X-270018Y-4453457D01*
X-271309D01*
X-274242Y-4453340D01*
X-277176Y-4453222D01*
X-279875Y-4452870D01*
X-282457Y-4452518D01*
X-283513Y-4452401D01*
X-284569Y-4452283D01*
X-285390Y-4452049D01*
X-286212Y-4451931D01*
X-286799Y-4451814D01*
X-287268D01*
X-287503Y-4451697D01*
X-287620D01*
X-289145Y-4451345D01*
X-290554Y-4450993D01*
X-291727Y-4450641D01*
X-292901Y-4450289D01*
X-293839Y-4449936D01*
X-294661Y-4449584D01*
X-296186Y-4448998D01*
X-297125Y-4448528D01*
X-297829Y-4448176D01*
X-298181Y-4447942D01*
X-298299Y-4447824D01*
X-298885Y-4447237D01*
X-299237Y-4446651D01*
X-299707Y-4445477D01*
X-299824Y-4444891D01*
X-299941Y-4444538D01*
Y-4444304D01*
Y-4444186D01*
X-299824Y-4443248D01*
X-299707Y-4442544D01*
X-299120Y-4441253D01*
X-298768Y-4440783D01*
X-298533Y-4440431D01*
X-298416Y-4440314D01*
X-298299Y-4440197D01*
X-297712Y-4439610D01*
X-297125Y-4439258D01*
X-295834Y-4438788D01*
X-295365Y-4438671D01*
X-294896Y-4438554D01*
X-293839D01*
X-292901Y-4438788D01*
X-291023Y-4439140D01*
X-290084Y-4439375D01*
X-289380Y-4439493D01*
X-288911Y-4439727D01*
X-288676D01*
X-285038Y-4440549D01*
X-281753Y-4441253D01*
X-278936Y-4441722D01*
X-277645Y-4441839D01*
X-276589Y-4441957D01*
X-275533Y-4442074D01*
X-274594Y-4442192D01*
X-273890D01*
X-273303Y-4442309D01*
X-272130D01*
X-269431Y-4442192D01*
X-267084Y-4441957D01*
X-264972Y-4441487D01*
X-263212Y-4441018D01*
X-261803Y-4440549D01*
X-260865Y-4440079D01*
X-260278Y-4439845D01*
X-260043Y-4439727D01*
X-258518Y-4438671D01*
X-257227Y-4437498D01*
X-256171Y-4436324D01*
X-255349Y-4435151D01*
X-254645Y-4434095D01*
X-254293Y-4433273D01*
X-254058Y-4432804D01*
X-253941Y-4432569D01*
X-299941D01*
X-299824Y-4427875D01*
X-299707Y-4425880D01*
X-299589Y-4424120D01*
X-299237Y-4422477D01*
X-299003Y-4421069D01*
X-298651Y-4419895D01*
X-298299Y-4418957D01*
X-298181Y-4418487D01*
X-298064Y-4418253D01*
X-297008Y-4416140D01*
X-295952Y-4414263D01*
X-294896Y-4412502D01*
X-293839Y-4411094D01*
X-293018Y-4409921D01*
X-292314Y-4408982D01*
X-291727Y-4408513D01*
X-291610Y-4408278D01*
X-290436Y-4407222D01*
X-289145Y-4406283D01*
X-287620Y-4405344D01*
X-286329Y-4404640D01*
X-285038Y-4404053D01*
X-283982Y-4403467D01*
X-283278Y-4403232D01*
X-283161Y-4403115D01*
X-283043D01*
X-280931Y-4402293D01*
X-278701Y-4401706D01*
X-276589Y-4401237D01*
X-274712Y-4401002D01*
X-273069Y-4400768D01*
X-271778Y-4400650D01*
X-270604D01*
X-268492Y-4400768D01*
D02*
G37*
G36*
X415529Y-4402176D02*
X416820Y-4402293D01*
X417876Y-4402528D01*
X418698Y-4402880D01*
X419284Y-4403232D01*
X419754Y-4403466D01*
X419988Y-4403584D01*
X420106Y-4403701D01*
X420693Y-4404288D01*
X421045Y-4404992D01*
X421514Y-4406283D01*
X421631Y-4406870D01*
X421749Y-4407222D01*
Y-4407574D01*
Y-4407691D01*
X421631Y-4408512D01*
X421514Y-4409334D01*
X420927Y-4410625D01*
X420575Y-4411094D01*
X420341Y-4411446D01*
X420223Y-4411563D01*
X420106Y-4411681D01*
X419284Y-4412150D01*
X418463Y-4412502D01*
X416468Y-4412972D01*
X415529Y-4413089D01*
X414825Y-4413206D01*
X405085D01*
Y-4440548D01*
X418463D01*
X419871Y-4440666D01*
X421162Y-4440783D01*
X422218Y-4441018D01*
X423040Y-4441370D01*
X423626Y-4441722D01*
X424096Y-4441957D01*
X424330Y-4442074D01*
X424448Y-4442191D01*
X425034Y-4442778D01*
X425387Y-4443482D01*
X425856Y-4444773D01*
X425973Y-4445360D01*
X426091Y-4445712D01*
Y-4446064D01*
Y-4446181D01*
X425973Y-4447003D01*
X425856Y-4447824D01*
X425269Y-4449115D01*
X424917Y-4449584D01*
X424682Y-4449936D01*
X424565Y-4450054D01*
X424448Y-4450171D01*
X423626Y-4450640D01*
X422805Y-4450992D01*
X420810Y-4451462D01*
X419871Y-4451579D01*
X419167Y-4451696D01*
X380560D01*
X379151Y-4451579D01*
X377861Y-4451462D01*
X376922Y-4451227D01*
X376100Y-4450875D01*
X375514Y-4450640D01*
X375044Y-4450406D01*
X374810Y-4450288D01*
X374692Y-4450171D01*
X374105Y-4449584D01*
X373636Y-4448880D01*
X373401Y-4448176D01*
X373167Y-4447589D01*
X373049Y-4447003D01*
X372932Y-4446533D01*
Y-4446298D01*
Y-4446181D01*
X373049Y-4445242D01*
X373167Y-4444538D01*
X373753Y-4443247D01*
X374105Y-4442778D01*
X374457Y-4442426D01*
X374575Y-4442309D01*
X374692Y-4442191D01*
X375396Y-4441605D01*
X376335Y-4441252D01*
X378330Y-4440783D01*
X379151Y-4440666D01*
X379855Y-4440548D01*
X393937D01*
Y-4402058D01*
X414121D01*
X415529Y-4402176D01*
D02*
G37*
G36*
X332095Y-4400885D02*
X333503Y-4401119D01*
X334676Y-4401354D01*
X335615Y-4401589D01*
X336437Y-4401824D01*
X336906Y-4401941D01*
X337023Y-4402058D01*
X338314Y-4402645D01*
X339605Y-4403232D01*
X340779Y-4403818D01*
X341717Y-4404523D01*
X342539Y-4404992D01*
X343126Y-4405461D01*
X343595Y-4405813D01*
X343712Y-4405931D01*
Y-4402058D01*
X354860D01*
X356269Y-4402176D01*
X357559Y-4402293D01*
X358615Y-4402528D01*
X359437Y-4402880D01*
X360024Y-4403232D01*
X360493Y-4403466D01*
X360728Y-4403584D01*
X360845Y-4403701D01*
X361432Y-4404288D01*
X361784Y-4404992D01*
X362253Y-4406283D01*
X362371Y-4406870D01*
X362488Y-4407222D01*
Y-4407574D01*
Y-4407691D01*
X362371Y-4408512D01*
X362253Y-4409334D01*
X361667Y-4410625D01*
X361314Y-4411094D01*
X361080Y-4411446D01*
X360962Y-4411563D01*
X360845Y-4411681D01*
X360024Y-4412150D01*
X359202Y-4412502D01*
X357207Y-4412972D01*
X356269Y-4413089D01*
X355564Y-4413206D01*
X354860D01*
Y-4440548D01*
X356269D01*
X357442Y-4440666D01*
X358381Y-4440900D01*
X359085Y-4441018D01*
X359672Y-4441252D01*
X360024Y-4441487D01*
X360141Y-4441605D01*
X360258D01*
X360962Y-4442426D01*
X361549Y-4443247D01*
X361901Y-4443951D01*
X362253Y-4444656D01*
X362371Y-4445242D01*
X362488Y-4445712D01*
Y-4446064D01*
Y-4446181D01*
X362371Y-4447003D01*
X362253Y-4447824D01*
X361667Y-4449115D01*
X361314Y-4449584D01*
X361080Y-4449936D01*
X360962Y-4450054D01*
X360845Y-4450171D01*
X360024Y-4450640D01*
X359202Y-4450992D01*
X357207Y-4451462D01*
X356269Y-4451579D01*
X355564Y-4451696D01*
X343712D01*
X342304Y-4451579D01*
X341013Y-4451462D01*
X340075Y-4451227D01*
X339253Y-4450875D01*
X338666Y-4450640D01*
X338197Y-4450406D01*
X337962Y-4450288D01*
X337845Y-4450171D01*
X337258Y-4449584D01*
X336789Y-4448880D01*
X336554Y-4448176D01*
X336319Y-4447589D01*
X336202Y-4447003D01*
X336085Y-4446533D01*
Y-4446298D01*
Y-4446181D01*
X336202Y-4445242D01*
X336437Y-4444421D01*
X337258Y-4443013D01*
X337728Y-4442426D01*
X338080Y-4441957D01*
X338314Y-4441722D01*
X338432Y-4441605D01*
X339018Y-4441252D01*
X339722Y-4441018D01*
X341483Y-4440666D01*
X342304Y-4440548D01*
X343712D01*
Y-4419778D01*
X342069Y-4418135D01*
X340661Y-4416727D01*
X339370Y-4415553D01*
X338314Y-4414732D01*
X337493Y-4414028D01*
X336789Y-4413676D01*
X336437Y-4413441D01*
X336319Y-4413324D01*
X335146Y-4412854D01*
X333972Y-4412385D01*
X332916Y-4412150D01*
X331860Y-4412033D01*
X330921Y-4411915D01*
X330217Y-4411798D01*
X329513D01*
X327636Y-4411915D01*
X326110Y-4412150D01*
X324819Y-4412502D01*
X323646Y-4412854D01*
X322824Y-4413324D01*
X322238Y-4413676D01*
X321886Y-4413910D01*
X321768Y-4414028D01*
X321064Y-4414732D01*
X320595Y-4415553D01*
X320243Y-4416492D01*
X320008Y-4417431D01*
X319891Y-4418135D01*
X319773Y-4418839D01*
Y-4419308D01*
Y-4419426D01*
Y-4440548D01*
X321181Y-4440666D01*
X322472Y-4440783D01*
X323528Y-4441018D01*
X324350Y-4441370D01*
X324937Y-4441722D01*
X325406Y-4441957D01*
X325641Y-4442074D01*
X325758Y-4442191D01*
X326345Y-4442778D01*
X326697Y-4443482D01*
X327166Y-4444773D01*
X327284Y-4445360D01*
X327401Y-4445712D01*
Y-4446064D01*
Y-4446181D01*
X327284Y-4447003D01*
X327166Y-4447824D01*
X326579Y-4449115D01*
X326227Y-4449584D01*
X325993Y-4449936D01*
X325875Y-4450054D01*
X325758Y-4450171D01*
X324937Y-4450640D01*
X324115Y-4450992D01*
X322120Y-4451462D01*
X321181Y-4451579D01*
X320477Y-4451696D01*
X308625D01*
X307217Y-4451579D01*
X305926Y-4451462D01*
X304987Y-4451227D01*
X304166Y-4450875D01*
X303579Y-4450640D01*
X303110Y-4450406D01*
X302875Y-4450288D01*
X302758Y-4450171D01*
X302171Y-4449584D01*
X301702Y-4448880D01*
X301467Y-4448176D01*
X301232Y-4447589D01*
X301115Y-4447003D01*
X300998Y-4446533D01*
Y-4446298D01*
Y-4446181D01*
X301115Y-4445242D01*
X301232Y-4444538D01*
X301819Y-4443247D01*
X302171Y-4442778D01*
X302523Y-4442426D01*
X302640Y-4442309D01*
X302758Y-4442191D01*
X303462Y-4441605D01*
X304401Y-4441252D01*
X306396Y-4440783D01*
X307217Y-4440666D01*
X307921Y-4440548D01*
X308625D01*
Y-4419778D01*
X308860Y-4416961D01*
X309329Y-4414380D01*
X310151Y-4412150D01*
X310972Y-4410273D01*
X311794Y-4408864D01*
X312615Y-4407808D01*
X313084Y-4407104D01*
X313319Y-4406870D01*
X314493Y-4405813D01*
X315666Y-4404757D01*
X316957Y-4403936D01*
X318248Y-4403232D01*
X320829Y-4402176D01*
X323294Y-4401472D01*
X325523Y-4401002D01*
X326579Y-4400885D01*
X327401Y-4400767D01*
X328105Y-4400650D01*
X330687D01*
X332095Y-4400885D01*
D02*
G37*
G36*
X218971Y-4385630D02*
X220262Y-4385747D01*
X221318Y-4385982D01*
X222140Y-4386334D01*
X222727Y-4386686D01*
X223196Y-4386920D01*
X223431Y-4387038D01*
X223548Y-4387155D01*
X224135Y-4387742D01*
X224487Y-4388446D01*
X224956Y-4389737D01*
X225073Y-4390323D01*
X225191Y-4390675D01*
Y-4391028D01*
Y-4391145D01*
X225073Y-4391966D01*
X224956Y-4392788D01*
X224369Y-4394079D01*
X224017Y-4394548D01*
X223783Y-4394900D01*
X223665Y-4395017D01*
X223548Y-4395135D01*
X222727Y-4395604D01*
X221905Y-4395956D01*
X219910Y-4396426D01*
X218971Y-4396543D01*
X218267Y-4396660D01*
X215803D01*
Y-4440548D01*
X217563D01*
X218971Y-4440666D01*
X220262Y-4440783D01*
X221318Y-4441018D01*
X222140Y-4441370D01*
X222727Y-4441722D01*
X223196Y-4441957D01*
X223431Y-4442074D01*
X223548Y-4442191D01*
X224135Y-4442778D01*
X224487Y-4443482D01*
X224956Y-4444773D01*
X225073Y-4445360D01*
X225191Y-4445712D01*
Y-4446064D01*
Y-4446181D01*
X225073Y-4447003D01*
X224956Y-4447824D01*
X224369Y-4449115D01*
X224017Y-4449584D01*
X223783Y-4449936D01*
X223665Y-4450054D01*
X223548Y-4450171D01*
X222727Y-4450640D01*
X221905Y-4450992D01*
X219910Y-4451462D01*
X218971Y-4451579D01*
X218267Y-4451696D01*
X193390D01*
X191981Y-4451579D01*
X190690Y-4451462D01*
X189752Y-4451227D01*
X188930Y-4450875D01*
X188344Y-4450640D01*
X187874Y-4450406D01*
X187639Y-4450288D01*
X187522Y-4450171D01*
X186935Y-4449584D01*
X186466Y-4448880D01*
X186231Y-4448176D01*
X185997Y-4447589D01*
X185879Y-4447003D01*
X185762Y-4446533D01*
Y-4446298D01*
Y-4446181D01*
X185879Y-4445242D01*
X185997Y-4444538D01*
X186583Y-4443247D01*
X186935Y-4442778D01*
X187287Y-4442426D01*
X187405Y-4442309D01*
X187522Y-4442191D01*
X188226Y-4441605D01*
X189165Y-4441252D01*
X191160Y-4440783D01*
X191981Y-4440666D01*
X192685Y-4440548D01*
X204655D01*
Y-4429048D01*
X194094D01*
X191629Y-4428931D01*
X189517Y-4428814D01*
X187639Y-4428579D01*
X186114Y-4428227D01*
X184823Y-4427992D01*
X183884Y-4427757D01*
X183415Y-4427640D01*
X183180Y-4427523D01*
X181655Y-4426819D01*
X180129Y-4426115D01*
X178721Y-4425293D01*
X177548Y-4424472D01*
X176491Y-4423768D01*
X175787Y-4423181D01*
X175201Y-4422829D01*
X175083Y-4422711D01*
X173675Y-4421538D01*
X172502Y-4420247D01*
X171563Y-4419191D01*
X170741Y-4418135D01*
X170155Y-4417313D01*
X169803Y-4416727D01*
X169568Y-4416257D01*
X169451Y-4416140D01*
X168629Y-4414497D01*
X168042Y-4412854D01*
X167690Y-4411329D01*
X167338Y-4409921D01*
X167221Y-4408630D01*
X167104Y-4407691D01*
Y-4407104D01*
Y-4406870D01*
X167221Y-4405227D01*
X167338Y-4403701D01*
X167690Y-4402176D01*
X168160Y-4400767D01*
X169216Y-4398186D01*
X170389Y-4395956D01*
X171680Y-4394196D01*
X172267Y-4393492D01*
X172736Y-4392788D01*
X173206Y-4392318D01*
X173558Y-4391966D01*
X173675Y-4391849D01*
X173792Y-4391732D01*
X175083Y-4390675D01*
X176491Y-4389619D01*
X177900Y-4388798D01*
X179425Y-4388094D01*
X182476Y-4387038D01*
X185292Y-4386334D01*
X186701Y-4385982D01*
X187874Y-4385864D01*
X189048Y-4385747D01*
X189986Y-4385630D01*
X190808Y-4385512D01*
X217563D01*
X218971Y-4385630D01*
D02*
G37*
G36*
X89889Y-4385630D02*
X91179Y-4385747D01*
X92236Y-4385982D01*
X93057Y-4386334D01*
X93644Y-4386686D01*
X94113Y-4386921D01*
X94348Y-4387038D01*
X94465Y-4387155D01*
X95052Y-4387742D01*
X95404Y-4388446D01*
X95873Y-4389737D01*
X95991Y-4390324D01*
X96108Y-4390676D01*
Y-4391028D01*
Y-4391145D01*
X95991Y-4391967D01*
X95873Y-4392788D01*
X95287Y-4394079D01*
X94935Y-4394548D01*
X94700Y-4394900D01*
X94582Y-4395018D01*
X94465Y-4395135D01*
X93644Y-4395604D01*
X92822Y-4395956D01*
X90827Y-4396426D01*
X89889Y-4396543D01*
X89184Y-4396660D01*
X86720D01*
Y-4440549D01*
X88480D01*
X89889Y-4440666D01*
X91179Y-4440783D01*
X92236Y-4441018D01*
X93057Y-4441370D01*
X93644Y-4441722D01*
X94113Y-4441957D01*
X94348Y-4442074D01*
X94465Y-4442192D01*
X95052Y-4442778D01*
X95404Y-4443482D01*
X95873Y-4444773D01*
X95991Y-4445360D01*
X96108Y-4445712D01*
Y-4446064D01*
Y-4446181D01*
X95991Y-4447003D01*
X95873Y-4447824D01*
X95287Y-4449115D01*
X94935Y-4449584D01*
X94700Y-4449936D01*
X94582Y-4450054D01*
X94465Y-4450171D01*
X93644Y-4450641D01*
X92822Y-4450993D01*
X90827Y-4451462D01*
X89889Y-4451579D01*
X89184Y-4451697D01*
X55623D01*
X53393Y-4451579D01*
X51516Y-4451462D01*
X49756Y-4451227D01*
X48230Y-4450993D01*
X47057Y-4450758D01*
X46235Y-4450523D01*
X45766Y-4450289D01*
X45531D01*
X44006Y-4449702D01*
X42715Y-4449115D01*
X41541Y-4448528D01*
X40602Y-4447824D01*
X39781Y-4447355D01*
X39194Y-4446885D01*
X38842Y-4446651D01*
X38725Y-4446533D01*
X37317Y-4445125D01*
X36143Y-4443717D01*
X35791Y-4443130D01*
X35439Y-4442661D01*
X35322Y-4442309D01*
X35204Y-4442192D01*
X34500Y-4440783D01*
X34031Y-4439375D01*
X33679Y-4438084D01*
X33444Y-4436911D01*
X33327Y-4435855D01*
X33209Y-4435033D01*
Y-4434564D01*
Y-4434329D01*
X33327Y-4432334D01*
X33679Y-4430574D01*
X34031Y-4428931D01*
X34500Y-4427523D01*
X35087Y-4426350D01*
X35439Y-4425411D01*
X35791Y-4424941D01*
X35908Y-4424707D01*
X36965Y-4423181D01*
X38255Y-4421773D01*
X39546Y-4420482D01*
X40837Y-4419426D01*
X42011Y-4418487D01*
X42949Y-4417900D01*
X43536Y-4417431D01*
X43653Y-4417314D01*
X43771D01*
X42832Y-4416258D01*
X41893Y-4415201D01*
X41189Y-4414263D01*
X40602Y-4413324D01*
X40133Y-4412620D01*
X39781Y-4412033D01*
X39664Y-4411564D01*
X39546Y-4411446D01*
X39077Y-4410156D01*
X38607Y-4408982D01*
X38373Y-4407809D01*
X38255Y-4406752D01*
X38138Y-4405814D01*
X38021Y-4405110D01*
Y-4404640D01*
Y-4404523D01*
X38138Y-4403115D01*
X38255Y-4401706D01*
X38960Y-4399125D01*
X40016Y-4396895D01*
X41072Y-4394900D01*
X42245Y-4393375D01*
X43301Y-4392084D01*
X43653Y-4391732D01*
X44006Y-4391380D01*
X44123Y-4391262D01*
X44240Y-4391145D01*
X45414Y-4390206D01*
X46705Y-4389268D01*
X49286Y-4387859D01*
X51985Y-4386921D01*
X54567Y-4386217D01*
X56914Y-4385747D01*
X57853Y-4385630D01*
X58791D01*
X59495Y-4385512D01*
X88480D01*
X89889Y-4385630D01*
D02*
G37*
G36*
X-178721D02*
X-177430Y-4385747D01*
X-176374Y-4385982D01*
X-175553Y-4386334D01*
X-174966Y-4386686D01*
X-174496Y-4386921D01*
X-174262Y-4387038D01*
X-174144Y-4387155D01*
X-173558Y-4387742D01*
X-173206Y-4388446D01*
X-172736Y-4389737D01*
X-172619Y-4390324D01*
X-172502Y-4390676D01*
Y-4391028D01*
Y-4391145D01*
X-172619Y-4391967D01*
X-172736Y-4392788D01*
X-173323Y-4394079D01*
X-173675Y-4394548D01*
X-173910Y-4394900D01*
X-174027Y-4395018D01*
X-174144Y-4395135D01*
X-174966Y-4395604D01*
X-175787Y-4395956D01*
X-177782Y-4396426D01*
X-178721Y-4396543D01*
X-179425Y-4396660D01*
X-181889D01*
Y-4440549D01*
X-180129D01*
X-178721Y-4440666D01*
X-177430Y-4440783D01*
X-176374Y-4441018D01*
X-175553Y-4441370D01*
X-174966Y-4441722D01*
X-174496Y-4441957D01*
X-174262Y-4442074D01*
X-174144Y-4442192D01*
X-173558Y-4442778D01*
X-173206Y-4443482D01*
X-172736Y-4444773D01*
X-172619Y-4445360D01*
X-172502Y-4445712D01*
Y-4446064D01*
Y-4446181D01*
X-172619Y-4447003D01*
X-172736Y-4447824D01*
X-173323Y-4449115D01*
X-173675Y-4449584D01*
X-173910Y-4449936D01*
X-174027Y-4450054D01*
X-174144Y-4450171D01*
X-174966Y-4450641D01*
X-175787Y-4450993D01*
X-177782Y-4451462D01*
X-178721Y-4451579D01*
X-179425Y-4451697D01*
X-197027D01*
X-198435Y-4451579D01*
X-199726Y-4451462D01*
X-200665Y-4451227D01*
X-201487Y-4450875D01*
X-202073Y-4450641D01*
X-202543Y-4450406D01*
X-202777Y-4450289D01*
X-202895Y-4450171D01*
X-203481Y-4449584D01*
X-203951Y-4448880D01*
X-204186Y-4448176D01*
X-204420Y-4447590D01*
X-204538Y-4447003D01*
X-204655Y-4446533D01*
Y-4446299D01*
Y-4446181D01*
X-204538Y-4445243D01*
X-204420Y-4444538D01*
X-203833Y-4443248D01*
X-203481Y-4442778D01*
X-203129Y-4442426D01*
X-203012Y-4442309D01*
X-202895Y-4442192D01*
X-202191Y-4441605D01*
X-201252Y-4441253D01*
X-199257Y-4440783D01*
X-198435Y-4440666D01*
X-197731Y-4440549D01*
X-193037D01*
Y-4426350D01*
X-204068D01*
X-205828Y-4427288D01*
X-207589Y-4428697D01*
X-209466Y-4430339D01*
X-211344Y-4432100D01*
X-213221Y-4434095D01*
X-215099Y-4436324D01*
X-218737Y-4440666D01*
X-220262Y-4442778D01*
X-221788Y-4444773D01*
X-223196Y-4446651D01*
X-224369Y-4448294D01*
X-225308Y-4449702D01*
X-226012Y-4450758D01*
X-226482Y-4451462D01*
X-226599Y-4451579D01*
Y-4451697D01*
X-232349D01*
X-233757Y-4451579D01*
X-235048Y-4451462D01*
X-235987Y-4451227D01*
X-236808Y-4450875D01*
X-237395Y-4450641D01*
X-237864Y-4450406D01*
X-238099Y-4450289D01*
X-238216Y-4450171D01*
X-238803Y-4449584D01*
X-239273Y-4448880D01*
X-239507Y-4448176D01*
X-239742Y-4447590D01*
X-239859Y-4447003D01*
X-239977Y-4446533D01*
Y-4446299D01*
Y-4446181D01*
X-239859Y-4445243D01*
X-239625Y-4444421D01*
X-238921Y-4443013D01*
X-238451Y-4442426D01*
X-238099Y-4441957D01*
X-237864Y-4441722D01*
X-237747Y-4441605D01*
X-237160Y-4441253D01*
X-236339Y-4441018D01*
X-234579Y-4440666D01*
X-233757Y-4440549D01*
X-232349D01*
X-230824Y-4438202D01*
X-229415Y-4436207D01*
X-228242Y-4434564D01*
X-227303Y-4433156D01*
X-226599Y-4432100D01*
X-226012Y-4431396D01*
X-225660Y-4430926D01*
X-225543Y-4430809D01*
X-224017Y-4429049D01*
X-222609Y-4427523D01*
X-221318Y-4426115D01*
X-220145Y-4425059D01*
X-219206Y-4424120D01*
X-218502Y-4423416D01*
X-218033Y-4422946D01*
X-217915Y-4422829D01*
X-220145Y-4421538D01*
X-222022Y-4420247D01*
X-223548Y-4418957D01*
X-224839Y-4417783D01*
X-225895Y-4416844D01*
X-226599Y-4416023D01*
X-227068Y-4415554D01*
X-227186Y-4415319D01*
X-228242Y-4413676D01*
X-229063Y-4412033D01*
X-229533Y-4410390D01*
X-230002Y-4408865D01*
X-230237Y-4407574D01*
X-230354Y-4406635D01*
Y-4405931D01*
Y-4405696D01*
X-230237Y-4404171D01*
X-230119Y-4402645D01*
X-229298Y-4399946D01*
X-228242Y-4397482D01*
X-227068Y-4395370D01*
X-225895Y-4393727D01*
X-225308Y-4393023D01*
X-224839Y-4392436D01*
X-224369Y-4391967D01*
X-224017Y-4391615D01*
X-223900Y-4391497D01*
X-223783Y-4391380D01*
X-222492Y-4390324D01*
X-221084Y-4389385D01*
X-219675Y-4388681D01*
X-218150Y-4387977D01*
X-215099Y-4386921D01*
X-212165Y-4386217D01*
X-210757Y-4385982D01*
X-209466Y-4385864D01*
X-208293Y-4385630D01*
X-207354D01*
X-206532Y-4385512D01*
X-180129D01*
X-178721Y-4385630D01*
D02*
G37*
G36*
X-404616Y-4438671D02*
X-403442Y-4438906D01*
X-402386Y-4439258D01*
X-401565Y-4439610D01*
X-400861Y-4440079D01*
X-400391Y-4440431D01*
X-400039Y-4440666D01*
X-399922Y-4440783D01*
X-399218Y-4441605D01*
X-398631Y-4442544D01*
X-398279Y-4443365D01*
X-397927Y-4444186D01*
X-397810Y-4444891D01*
X-397692Y-4445477D01*
Y-4445947D01*
Y-4446064D01*
X-397810Y-4447237D01*
X-398044Y-4448176D01*
X-398396Y-4449115D01*
X-398866Y-4449936D01*
X-399218Y-4450523D01*
X-399570Y-4450993D01*
X-399805Y-4451227D01*
X-399922Y-4451345D01*
X-400861Y-4452049D01*
X-401800Y-4452518D01*
X-402856Y-4452988D01*
X-403794Y-4453222D01*
X-404733Y-4453340D01*
X-405437Y-4453457D01*
X-406024D01*
X-407432Y-4453340D01*
X-408606Y-4453105D01*
X-409662Y-4452753D01*
X-410483Y-4452401D01*
X-411187Y-4452049D01*
X-411774Y-4451697D01*
X-412009Y-4451462D01*
X-412126Y-4451345D01*
X-412948Y-4450523D01*
X-413534Y-4449584D01*
X-413886Y-4448763D01*
X-414238Y-4447942D01*
X-414356Y-4447120D01*
X-414473Y-4446533D01*
Y-4446181D01*
Y-4446064D01*
X-414356Y-4444891D01*
X-414121Y-4443952D01*
X-413769Y-4443013D01*
X-413300Y-4442192D01*
X-412830Y-4441605D01*
X-412478Y-4441135D01*
X-412244Y-4440901D01*
X-412126Y-4440783D01*
X-411187Y-4440079D01*
X-410249Y-4439493D01*
X-409192Y-4439140D01*
X-408254Y-4438788D01*
X-407315Y-4438671D01*
X-406611Y-4438554D01*
X-406024D01*
X-404616Y-4438671D01*
D02*
G37*
G36*
X-68883Y-4381288D02*
X-67827Y-4381640D01*
X-67358Y-4381875D01*
X-67006Y-4381992D01*
X-66888Y-4382227D01*
X-66771D01*
X-65832Y-4383165D01*
X-65245Y-4384104D01*
X-65011Y-4384808D01*
X-64893Y-4384926D01*
Y-4385043D01*
Y-4385630D01*
X-64776Y-4386569D01*
Y-4387625D01*
Y-4388798D01*
Y-4389972D01*
Y-4390910D01*
Y-4391615D01*
Y-4391732D01*
Y-4391849D01*
Y-4458386D01*
Y-4460263D01*
Y-4461906D01*
X-64893Y-4463079D01*
Y-4463901D01*
Y-4464488D01*
X-65011Y-4464840D01*
Y-4465074D01*
X-65480Y-4466248D01*
X-66184Y-4467187D01*
X-66654Y-4467773D01*
X-66888Y-4468008D01*
X-68062Y-4468712D01*
X-69118Y-4469064D01*
X-69587D01*
X-69939Y-4469182D01*
X-70291D01*
X-71582Y-4468947D01*
X-72756Y-4468595D01*
X-73460Y-4468243D01*
X-73577Y-4468008D01*
X-73695D01*
X-74633Y-4467069D01*
X-75220Y-4466131D01*
X-75572Y-4465426D01*
X-75689Y-4465309D01*
Y-4465192D01*
Y-4464605D01*
X-75807Y-4463666D01*
Y-4462610D01*
Y-4461437D01*
Y-4460263D01*
Y-4459324D01*
Y-4458620D01*
Y-4458503D01*
Y-4458386D01*
Y-4391849D01*
Y-4389972D01*
Y-4388446D01*
Y-4387273D01*
Y-4386334D01*
X-75689Y-4385747D01*
Y-4385278D01*
Y-4385043D01*
X-75220Y-4383870D01*
X-74516Y-4383048D01*
X-73929Y-4382461D01*
X-73812Y-4382227D01*
X-73695D01*
X-72521Y-4381523D01*
X-71465Y-4381171D01*
X-70996Y-4381053D01*
X-70291D01*
X-68883Y-4381288D01*
D02*
G37*
%LPC*%
G36*
X25961Y-2985096D02*
X21296D01*
Y-2987428D01*
X-23023D01*
Y-2985096D01*
X-25356D01*
Y-2987428D01*
X-30022D01*
Y-2989761D01*
X-34687D01*
Y-2992093D01*
X-67343D01*
Y-2994426D01*
X-69676D01*
Y-2996758D01*
X-72009D01*
Y-2999092D01*
X-81339D01*
Y-2996758D01*
X-86004D01*
Y-2999092D01*
X-90669D01*
Y-3001424D01*
X-93002D01*
Y-3003757D01*
X-104665D01*
Y-3006089D01*
X-106999D01*
Y-3008422D01*
X-109331D01*
Y-3010754D01*
X-118661D01*
Y-3013086D01*
X-120993D01*
Y-3015419D01*
X-130324D01*
Y-3017752D01*
X-132657D01*
Y-3020085D01*
X-137322D01*
Y-3022417D01*
X-141987D01*
Y-3024751D01*
X-146652D01*
Y-3027083D01*
X-148985D01*
Y-3029416D01*
X-151318D01*
Y-3031748D01*
X-153651D01*
Y-3034081D01*
X-155983D01*
Y-3036413D01*
X-162981D01*
Y-3038745D01*
X-165313D01*
Y-3041078D01*
X-167646D01*
Y-3043411D01*
X-169979D01*
Y-3045744D01*
X-172311D01*
Y-3048076D01*
X-174645D01*
Y-3050409D01*
X-176977D01*
Y-3052742D01*
X-179310D01*
Y-3055075D01*
X-181642D01*
Y-3057407D01*
X-183974D01*
Y-3059740D01*
X-186307D01*
Y-3062072D01*
X-188639D01*
Y-3064404D01*
X-190972D01*
Y-3066738D01*
X-193305D01*
Y-3069070D01*
X-195638D01*
Y-3071403D01*
X-197970D01*
Y-3076068D01*
X-200303D01*
Y-3078400D01*
X-202636D01*
Y-3083065D01*
X-204969D01*
Y-3085398D01*
X-207301D01*
Y-3087731D01*
X-209633D01*
Y-3092397D01*
X-211966D01*
Y-3097062D01*
X-214298D01*
Y-3101727D01*
X-216632D01*
Y-3104059D01*
X-218964D01*
Y-3108725D01*
X-221297D01*
Y-3111057D01*
X-223629D01*
Y-3118056D01*
X-225962D01*
Y-3122721D01*
X-228294D01*
Y-3125053D01*
X-230627D01*
Y-3136716D01*
X-232960D01*
Y-3139049D01*
X-235292D01*
Y-3153045D01*
X-237625D01*
Y-3157711D01*
X-239957D01*
Y-3160043D01*
X-242291D01*
Y-3188034D01*
X-244623D01*
Y-3192699D01*
X-246956D01*
Y-3281339D01*
X-244623D01*
Y-3286004D01*
X-242291D01*
Y-3339655D01*
X-239957D01*
Y-3344320D01*
X-237625D01*
Y-3351318D01*
X-235292D01*
Y-3381642D01*
X-232960D01*
Y-3386308D01*
X-230627D01*
Y-3418964D01*
X-228294D01*
Y-3423629D01*
X-225962D01*
Y-3428295D01*
X-223629D01*
Y-3460951D01*
X-221297D01*
Y-3465616D01*
X-218964D01*
Y-3479613D01*
X-209633D01*
Y-3477280D01*
X-204969D01*
Y-3474947D01*
X-195638D01*
Y-3472615D01*
X-188639D01*
Y-3470282D01*
X-186307D01*
Y-3467950D01*
X-169979D01*
Y-3465616D01*
X-167646D01*
Y-3463284D01*
X-162981D01*
Y-3460951D01*
X-148985D01*
Y-3458619D01*
X-146652D01*
Y-3456286D01*
X-130324D01*
Y-3453954D01*
X-127992D01*
Y-3451622D01*
X-123326D01*
Y-3449289D01*
X-109331D01*
Y-3446956D01*
X-106999D01*
Y-3444623D01*
X-90669D01*
Y-3442291D01*
X-86004D01*
Y-3439957D01*
X-81339D01*
Y-3437625D01*
X-67343D01*
Y-3435292D01*
X-65011D01*
Y-3432960D01*
X-48682D01*
Y-3430627D01*
X-46350D01*
Y-3428295D01*
X-41685D01*
Y-3425963D01*
X-25356D01*
Y-3423629D01*
X-23023D01*
Y-3421297D01*
X-11360D01*
Y-3418964D01*
X-6695D01*
Y-3416632D01*
X-2030D01*
Y-3414299D01*
X14299D01*
Y-3411966D01*
X18964D01*
Y-3409634D01*
X28295D01*
Y-3407301D01*
X35293D01*
Y-3404969D01*
X39958D01*
Y-3402636D01*
X56286D01*
Y-3400304D01*
X60951D01*
Y-3397970D01*
X65617D01*
Y-3395638D01*
X81945D01*
Y-3393305D01*
X86610D01*
Y-3390973D01*
X88942D01*
Y-3388640D01*
X105272D01*
Y-3386308D01*
X109937D01*
Y-3383974D01*
X123932D01*
Y-3381642D01*
X128598D01*
Y-3379310D01*
X133263D01*
Y-3376976D01*
X149591D01*
Y-3374645D01*
X151924D01*
Y-3372311D01*
X168252D01*
Y-3369979D01*
X172918D01*
Y-3367646D01*
X177583D01*
Y-3365314D01*
X193911D01*
Y-3362981D01*
X196244D01*
Y-3360649D01*
X217237D01*
Y-3358315D01*
X221902D01*
Y-3355983D01*
X228900D01*
Y-3353651D01*
X238231D01*
Y-3351318D01*
X240564D01*
Y-3348986D01*
X242896D01*
Y-3344320D01*
X245229D01*
Y-3300000D01*
X247561D01*
Y-3286004D01*
X249894D01*
Y-3281339D01*
X252226D01*
Y-3192699D01*
X249894D01*
Y-3185702D01*
X247561D01*
Y-3178704D01*
X245229D01*
Y-3157711D01*
X242896D01*
Y-3153045D01*
X240564D01*
Y-3139049D01*
X238231D01*
Y-3136716D01*
X235898D01*
Y-3134384D01*
X233566D01*
Y-3122721D01*
X231233D01*
Y-3120388D01*
X228900D01*
Y-3113390D01*
X226568D01*
Y-3111057D01*
Y-3108725D01*
X224235D01*
Y-3106393D01*
X221902D01*
Y-3101727D01*
X219570D01*
Y-3097062D01*
X217237D01*
Y-3092397D01*
X214905D01*
Y-3087731D01*
X210239D01*
Y-3085398D01*
X207907D01*
Y-3080733D01*
X205574D01*
Y-3076068D01*
X203242D01*
Y-3071403D01*
X200909D01*
Y-3069070D01*
X198577D01*
Y-3066738D01*
X196244D01*
Y-3064404D01*
X193911D01*
Y-3062072D01*
X191578D01*
Y-3059740D01*
X189246D01*
Y-3057407D01*
X186913D01*
Y-3055075D01*
X184581D01*
Y-3052742D01*
X182248D01*
Y-3050409D01*
X179915D01*
Y-3048076D01*
X177583D01*
Y-3045744D01*
X175250D01*
Y-3043411D01*
X172918D01*
Y-3041078D01*
X168252D01*
Y-3038745D01*
X165919D01*
Y-3036413D01*
X161255D01*
Y-3034081D01*
X156589D01*
Y-3031748D01*
X154256D01*
Y-3029416D01*
X151924D01*
Y-3027083D01*
X149591D01*
Y-3024751D01*
X147259D01*
Y-3022417D01*
X140260D01*
Y-3020085D01*
X137928D01*
Y-3017752D01*
X135596D01*
Y-3015419D01*
X126265D01*
Y-3013086D01*
X123932D01*
Y-3010754D01*
X116934D01*
Y-3008422D01*
X112269D01*
Y-3006089D01*
X107604D01*
Y-3003757D01*
X95941D01*
Y-3001424D01*
X93608D01*
Y-2999092D01*
X88942D01*
Y-2996758D01*
X86610D01*
Y-2999092D01*
X77280D01*
Y-2996758D01*
X72614D01*
Y-2994426D01*
X70282D01*
Y-2992093D01*
X39958D01*
Y-2989761D01*
X35293D01*
Y-2987428D01*
X25961D01*
Y-2985096D01*
D02*
G37*
%LPD*%
G36*
X7301Y-3090063D02*
X18964D01*
Y-3092397D01*
X23629D01*
Y-3094729D01*
X25961D01*
Y-3092397D01*
X32960D01*
Y-3094729D01*
X42290D01*
Y-3097062D01*
X46955D01*
Y-3099394D01*
X51620D01*
Y-3101727D01*
X58619D01*
Y-3104059D01*
X60951D01*
Y-3106393D01*
X67949D01*
Y-3108725D01*
X70282D01*
Y-3111057D01*
X72614D01*
Y-3113390D01*
X77280D01*
Y-3115722D01*
X79613D01*
Y-3118056D01*
X84278D01*
Y-3120388D01*
X86610D01*
Y-3122721D01*
X88942D01*
Y-3125053D01*
X93608D01*
Y-3127386D01*
X95941D01*
Y-3129718D01*
X98273D01*
Y-3132052D01*
X100607D01*
Y-3136716D01*
X102939D01*
Y-3139049D01*
X105272D01*
Y-3141381D01*
X107604D01*
Y-3146046D01*
X109937D01*
Y-3148380D01*
X112269D01*
Y-3150712D01*
X114601D01*
Y-3155377D01*
X116934D01*
Y-3160043D01*
X119266D01*
Y-3162375D01*
X121600D01*
Y-3169373D01*
X123932D01*
Y-3171705D01*
X126265D01*
Y-3183369D01*
X128598D01*
Y-3190367D01*
X130930D01*
Y-3192699D01*
X133263D01*
Y-3248683D01*
X130930D01*
Y-3253348D01*
X128598D01*
Y-3258013D01*
X126265D01*
Y-3269676D01*
X123932D01*
Y-3272009D01*
X121600D01*
Y-3279006D01*
X119266D01*
Y-3283672D01*
X116934D01*
Y-3288337D01*
X114601D01*
Y-3293003D01*
X112269D01*
Y-3295335D01*
X109937D01*
Y-3297668D01*
X107604D01*
Y-3300000D01*
X105272D01*
Y-3304665D01*
X102939D01*
Y-3306997D01*
X100607D01*
Y-3309331D01*
X98273D01*
Y-3313996D01*
X95941D01*
Y-3316328D01*
X91275D01*
Y-3318662D01*
X88942D01*
Y-3320994D01*
X86610D01*
Y-3323327D01*
X81945D01*
Y-3325659D01*
X79613D01*
Y-3327992D01*
X77280D01*
Y-3330324D01*
X74948D01*
Y-3332657D01*
X72614D01*
Y-3334990D01*
X67949D01*
Y-3337322D01*
X60951D01*
Y-3339655D01*
X58619D01*
Y-3341987D01*
X53954D01*
Y-3344320D01*
X44623D01*
Y-3346653D01*
X42290D01*
Y-3348986D01*
X18964D01*
Y-3351318D01*
X11967D01*
Y-3353651D01*
X-6695D01*
Y-3351318D01*
X-11360D01*
Y-3348986D01*
X-37019D01*
Y-3346653D01*
X-39351D01*
Y-3344320D01*
X-51015D01*
Y-3341987D01*
X-53347D01*
Y-3339655D01*
X-55680D01*
Y-3337322D01*
X-62678D01*
Y-3334990D01*
X-65011D01*
Y-3332657D01*
X-69676D01*
Y-3330324D01*
X-72009D01*
Y-3327992D01*
X-74341D01*
Y-3325659D01*
X-76674D01*
Y-3323327D01*
X-81339D01*
Y-3320994D01*
X-83672D01*
Y-3318662D01*
X-86004D01*
Y-3316328D01*
X-90669D01*
Y-3313996D01*
X-93002D01*
Y-3311663D01*
X-95334D01*
Y-3309331D01*
X-97667D01*
Y-3304665D01*
X-100000D01*
Y-3300000D01*
X-102333D01*
Y-3297668D01*
X-104665D01*
Y-3295335D01*
X-106999D01*
Y-3293003D01*
X-109331D01*
Y-3286004D01*
X-111663D01*
Y-3283672D01*
X-113996D01*
Y-3276674D01*
X-116328D01*
Y-3274341D01*
X-118661D01*
Y-3269676D01*
X-120993D01*
Y-3258013D01*
X-123326D01*
Y-3253348D01*
X-125659D01*
Y-3246350D01*
X-127992D01*
Y-3234686D01*
X-125659D01*
Y-3232354D01*
X-127992D01*
Y-3195032D01*
X-125659D01*
Y-3188034D01*
X-123326D01*
Y-3183369D01*
X-120993D01*
Y-3171705D01*
X-118661D01*
Y-3169373D01*
X-116328D01*
Y-3167040D01*
X-113996D01*
Y-3157711D01*
X-111663D01*
Y-3155377D01*
X-109331D01*
Y-3148380D01*
X-106999D01*
Y-3146046D01*
X-104665D01*
Y-3143714D01*
X-102333D01*
Y-3141381D01*
X-100000D01*
Y-3139049D01*
X-97667D01*
Y-3132052D01*
X-93002D01*
Y-3127386D01*
X-90669D01*
Y-3125053D01*
X-86004D01*
Y-3122721D01*
X-83672D01*
Y-3120388D01*
X-76674D01*
Y-3118056D01*
X-74341D01*
Y-3115722D01*
X-72009D01*
Y-3113390D01*
X-69676D01*
Y-3111057D01*
X-67343D01*
Y-3108725D01*
X-60346D01*
Y-3106393D01*
X-58013D01*
Y-3104059D01*
X-53347D01*
Y-3101727D01*
X-48682D01*
Y-3099394D01*
X-41685D01*
Y-3097062D01*
X-37019D01*
Y-3094729D01*
X-34687D01*
Y-3092397D01*
X-30022D01*
Y-3094729D01*
X-20691D01*
Y-3092397D01*
X-13692D01*
Y-3090063D01*
X2636D01*
Y-3087731D01*
X7301D01*
Y-3090063D01*
D02*
G37*
%LPC*%
G36*
X-399471Y-4085725D02*
X-431193D01*
Y-4087236D01*
X-434215D01*
Y-4088746D01*
X-438746D01*
Y-4090257D01*
X-443278D01*
Y-4091767D01*
X-444789D01*
Y-4093278D01*
X-447810D01*
Y-4094788D01*
X-449320D01*
Y-4096299D01*
X-450831D01*
Y-4097810D01*
X-452341D01*
Y-4099320D01*
X-455363D01*
Y-4100831D01*
X-456873D01*
Y-4102341D01*
X-458384D01*
Y-4103852D01*
X-459894D01*
Y-4105362D01*
X-461405D01*
Y-4106873D01*
X-462915D01*
Y-4108384D01*
X-464426D01*
Y-4111405D01*
X-465937D01*
Y-4112915D01*
X-467447D01*
Y-4115936D01*
X-468958D01*
Y-4118958D01*
X-470468D01*
Y-4121979D01*
X-471979D01*
Y-4126510D01*
X-473489D01*
Y-4134063D01*
X-475000D01*
Y-4140106D01*
X-357175D01*
Y-4138595D01*
X-354154D01*
Y-4134063D01*
X-355665D01*
Y-4131042D01*
X-357175D01*
Y-4125000D01*
X-358686D01*
Y-4120468D01*
X-360196D01*
Y-4118958D01*
X-361707D01*
Y-4115936D01*
X-363217D01*
Y-4112915D01*
X-364728D01*
Y-4109894D01*
X-366239D01*
Y-4106873D01*
X-367749D01*
Y-4105362D01*
X-369260D01*
Y-4103852D01*
X-370770D01*
Y-4102341D01*
X-372281D01*
Y-4100831D01*
X-375302D01*
Y-4097810D01*
X-378323D01*
Y-4096299D01*
X-379834D01*
Y-4094788D01*
X-382855D01*
Y-4093278D01*
X-384365D01*
Y-4091767D01*
X-387387D01*
Y-4090257D01*
X-391918D01*
Y-4088746D01*
X-396450D01*
Y-4087236D01*
X-399471D01*
Y-4085725D01*
D02*
G37*
G36*
X500831Y-4043429D02*
X440408D01*
Y-4044940D01*
X434366D01*
Y-4046450D01*
X431345D01*
Y-4047961D01*
X426813D01*
Y-4049471D01*
X425302D01*
Y-4050982D01*
X422281D01*
Y-4052492D01*
X420771D01*
Y-4054003D01*
X419260D01*
Y-4055514D01*
X417749D01*
Y-4057024D01*
X416239D01*
Y-4058535D01*
X414728D01*
Y-4060045D01*
X413218D01*
Y-4061556D01*
X411707D01*
Y-4064577D01*
X410197D01*
Y-4069109D01*
X408686D01*
Y-4073640D01*
X407175D01*
Y-4094788D01*
X408686D01*
Y-4099320D01*
X410197D01*
Y-4102341D01*
X411707D01*
Y-4105362D01*
X413218D01*
Y-4108384D01*
X414728D01*
Y-4109894D01*
X416239D01*
Y-4111405D01*
X417749D01*
Y-4112915D01*
X419260D01*
Y-4114426D01*
X420771D01*
Y-4115936D01*
X422281D01*
Y-4117447D01*
X425302D01*
Y-4118958D01*
X428323D01*
Y-4120468D01*
X432855D01*
Y-4121979D01*
X434366D01*
Y-4123489D01*
X440408D01*
Y-4125000D01*
X500831D01*
Y-4096299D01*
Y-4094788D01*
Y-4043429D01*
D02*
G37*
G36*
X212311Y-4054003D02*
X209290D01*
Y-4057024D01*
X207780D01*
Y-4058535D01*
X206269D01*
Y-4063066D01*
X204758D01*
Y-4067598D01*
X203248D01*
Y-4070619D01*
X201737D01*
Y-4075151D01*
X200227D01*
Y-4078172D01*
X198716D01*
Y-4081193D01*
X197206D01*
Y-4085725D01*
X195695D01*
Y-4088746D01*
X194184D01*
Y-4091767D01*
X192674D01*
Y-4096299D01*
X191163D01*
Y-4100831D01*
X189653D01*
Y-4103852D01*
X188142D01*
Y-4106873D01*
X186632D01*
Y-4111405D01*
X185121D01*
Y-4114426D01*
X183610D01*
Y-4117447D01*
X182100D01*
Y-4121979D01*
X180589D01*
Y-4126510D01*
X179079D01*
Y-4129532D01*
X177568D01*
Y-4132553D01*
X176058D01*
Y-4137084D01*
X174547D01*
Y-4141616D01*
X176058D01*
Y-4143127D01*
X177568D01*
Y-4141616D01*
X180589D01*
Y-4143127D01*
X183610D01*
Y-4141616D01*
X188142D01*
Y-4143127D01*
X189653D01*
Y-4141616D01*
X244033D01*
Y-4143127D01*
X245544D01*
Y-4141616D01*
X247054D01*
Y-4137084D01*
X245544D01*
Y-4132553D01*
X244033D01*
Y-4129532D01*
X242523D01*
Y-4125000D01*
X241012D01*
Y-4121979D01*
X239502D01*
Y-4118958D01*
X237991D01*
Y-4114426D01*
X236480D01*
Y-4109894D01*
X234970D01*
Y-4108384D01*
X233459D01*
Y-4103852D01*
X231949D01*
Y-4099320D01*
X230438D01*
Y-4094788D01*
X228928D01*
Y-4093278D01*
X227417D01*
Y-4088746D01*
X225906D01*
Y-4084214D01*
X224396D01*
Y-4082704D01*
X222885D01*
Y-4079683D01*
X221375D01*
Y-4073640D01*
X219864D01*
Y-4070619D01*
X218354D01*
Y-4067598D01*
X216843D01*
Y-4064577D01*
X215332D01*
Y-4060045D01*
X213822D01*
Y-4055514D01*
X212311D01*
Y-4054003D01*
D02*
G37*
G36*
X470096Y-4430339D02*
X466810D01*
X464581Y-4430574D01*
X462468Y-4430809D01*
X460591Y-4431043D01*
X458948Y-4431278D01*
X457657Y-4431513D01*
X457188Y-4431630D01*
X456836D01*
X456601Y-4431747D01*
X456484D01*
Y-4436441D01*
X458009Y-4437380D01*
X459652Y-4438319D01*
X461178Y-4439023D01*
X462703Y-4439610D01*
X463877Y-4440196D01*
X464933Y-4440548D01*
X465520Y-4440666D01*
X465637Y-4440783D01*
X465754D01*
X467632Y-4441252D01*
X469275Y-4441605D01*
X470800Y-4441957D01*
X472208Y-4442074D01*
X473264Y-4442191D01*
X474086Y-4442309D01*
X474790D01*
X476433Y-4442191D01*
X477958Y-4442074D01*
X479249Y-4441722D01*
X480305Y-4441370D01*
X481244Y-4441135D01*
X481831Y-4440783D01*
X482183Y-4440666D01*
X482300Y-4440548D01*
X482770Y-4440196D01*
X483122Y-4439727D01*
X483474Y-4438906D01*
X483708Y-4438201D01*
Y-4438084D01*
Y-4437967D01*
X483591Y-4437145D01*
X483239Y-4436441D01*
X482770Y-4435737D01*
X482183Y-4435033D01*
X481596Y-4434564D01*
X481127Y-4434094D01*
X480775Y-4433860D01*
X480657Y-4433742D01*
X478780Y-4432569D01*
X476785Y-4431747D01*
X474790Y-4431161D01*
X472912Y-4430809D01*
X471387Y-4430456D01*
X470096Y-4430339D01*
D02*
G37*
G36*
X-269900Y-4411798D02*
X-270839D01*
X-272951Y-4411916D01*
X-274829Y-4412150D01*
X-276472Y-4412620D01*
X-277880Y-4412972D01*
X-279054Y-4413441D01*
X-279992Y-4413911D01*
X-280462Y-4414145D01*
X-280696Y-4414263D01*
X-282222Y-4415201D01*
X-283513Y-4416375D01*
X-284686Y-4417548D01*
X-285742Y-4418722D01*
X-286446Y-4419778D01*
X-287033Y-4420599D01*
X-287385Y-4421186D01*
X-287503Y-4421421D01*
X-254293D01*
X-255349Y-4419778D01*
X-256405Y-4418253D01*
X-257579Y-4417079D01*
X-258635Y-4416023D01*
X-259574Y-4415201D01*
X-260278Y-4414732D01*
X-260747Y-4414380D01*
X-260982Y-4414263D01*
X-262625Y-4413441D01*
X-264268Y-4412855D01*
X-265911Y-4412385D01*
X-267553Y-4412150D01*
X-268844Y-4411916D01*
X-269900Y-4411798D01*
D02*
G37*
G36*
X204655Y-4396660D02*
X191747D01*
X189517Y-4396778D01*
X187405Y-4397130D01*
X185762Y-4397599D01*
X184354Y-4398186D01*
X183180Y-4398773D01*
X182476Y-4399242D01*
X181889Y-4399594D01*
X181772Y-4399711D01*
X180599Y-4400885D01*
X179777Y-4402058D01*
X179073Y-4403232D01*
X178721Y-4404288D01*
X178486Y-4405227D01*
X178252Y-4405931D01*
Y-4406400D01*
Y-4406635D01*
X178486Y-4408278D01*
X178956Y-4409803D01*
X179660Y-4411211D01*
X180364Y-4412385D01*
X181185Y-4413324D01*
X181889Y-4414028D01*
X182359Y-4414497D01*
X182593Y-4414614D01*
X184354Y-4415671D01*
X186231Y-4416492D01*
X188226Y-4417079D01*
X190104Y-4417431D01*
X191747Y-4417666D01*
X193155Y-4417900D01*
X204655D01*
Y-4396660D01*
D02*
G37*
G36*
X75572Y-4396660D02*
X60904D01*
X58791Y-4396778D01*
X56914Y-4397013D01*
X55388Y-4397365D01*
X54097Y-4397834D01*
X53159Y-4398303D01*
X52572Y-4398655D01*
X52103Y-4398890D01*
X51985Y-4399007D01*
X51046Y-4399829D01*
X50342Y-4400768D01*
X49873Y-4401589D01*
X49521Y-4402411D01*
X49286Y-4403115D01*
X49169Y-4403701D01*
Y-4404053D01*
Y-4404171D01*
X49286Y-4405344D01*
X49638Y-4406518D01*
X50108Y-4407457D01*
X50694Y-4408278D01*
X51281Y-4408865D01*
X51750Y-4409451D01*
X52103Y-4409686D01*
X52220Y-4409803D01*
X53980Y-4410860D01*
X55740Y-4411681D01*
X57618Y-4412268D01*
X59378Y-4412620D01*
X60904Y-4412855D01*
X62077Y-4413089D01*
X75572D01*
Y-4396660D01*
D02*
G37*
G36*
Y-4424237D02*
X60786D01*
X57970Y-4424355D01*
X55506Y-4424707D01*
X53393Y-4425293D01*
X51633Y-4425880D01*
X50342Y-4426467D01*
X49404Y-4427054D01*
X48817Y-4427406D01*
X48582Y-4427523D01*
X47174Y-4428697D01*
X46118Y-4429987D01*
X45414Y-4431043D01*
X44827Y-4432100D01*
X44592Y-4432921D01*
X44475Y-4433625D01*
X44358Y-4434095D01*
Y-4434212D01*
X44475Y-4435151D01*
X44710Y-4436089D01*
X45062Y-4436794D01*
X45414Y-4437380D01*
X45883Y-4437967D01*
X46235Y-4438319D01*
X46470Y-4438436D01*
X46587Y-4438554D01*
X47761Y-4439258D01*
X49286Y-4439727D01*
X50812Y-4440079D01*
X52455Y-4440314D01*
X53863Y-4440431D01*
X55154Y-4440549D01*
X75572D01*
Y-4424237D01*
D02*
G37*
G36*
X-193037Y-4396660D02*
X-205828D01*
X-208175Y-4396778D01*
X-210170Y-4397130D01*
X-211930Y-4397599D01*
X-213339Y-4398069D01*
X-214395Y-4398538D01*
X-215216Y-4399007D01*
X-215686Y-4399360D01*
X-215803Y-4399477D01*
X-216976Y-4400533D01*
X-217798Y-4401472D01*
X-218385Y-4402528D01*
X-218737Y-4403467D01*
X-219089Y-4404171D01*
X-219206Y-4404758D01*
Y-4405227D01*
Y-4405344D01*
X-219089Y-4406166D01*
X-218971Y-4406870D01*
X-218267Y-4408278D01*
X-217915Y-4408865D01*
X-217681Y-4409334D01*
X-217446Y-4409569D01*
X-217328Y-4409686D01*
X-216507Y-4410508D01*
X-215451Y-4411212D01*
X-214395Y-4411916D01*
X-213221Y-4412502D01*
X-212165Y-4413089D01*
X-211226Y-4413441D01*
X-210640Y-4413676D01*
X-210522Y-4413793D01*
X-210405D01*
X-208997Y-4414263D01*
X-207471Y-4414615D01*
X-206063Y-4414849D01*
X-204655Y-4414967D01*
X-203481Y-4415084D01*
X-202543Y-4415201D01*
X-193037D01*
Y-4396660D01*
D02*
G37*
%LPD*%
%TF.MD5,cc880e0b0dcd31ede3470abc2e84085c*%
M02*
