%TF.GenerationSoftware,Altium Limited,Altium Designer,22.5.1 (42)*%
G04 Layer_Color=8388736*
%FSLAX45Y45*%
%MOMM*%
%TF.SameCoordinates,B0F14D10-A82B-43C6-BF60-515EF57ECD05*%
%TF.FilePolarity,Negative*%
%TF.FileFunction,Soldermask,Top*%
%TF.Part,Single*%
G01*
G75*
%TA.AperFunction,SMDPad,CuDef*%
%ADD23R,0.76200X0.20320*%
%ADD38R,0.20320X0.76200*%
%ADD39R,4.01320X4.01320*%
%ADD58R,2.48920X1.52400*%
%ADD120R,0.75320X0.80320*%
%ADD122R,0.80320X0.80320*%
%ADD123R,0.80320X0.75320*%
%TA.AperFunction,ComponentPad*%
G04:AMPARAMS|DCode=124|XSize=2.132mm|YSize=2.132mm|CornerRadius=0.558mm|HoleSize=0mm|Usage=FLASHONLY|Rotation=270.000|XOffset=0mm|YOffset=0mm|HoleType=Round|Shape=RoundedRectangle|*
%AMROUNDEDRECTD124*
21,1,2.13200,1.01600,0,0,270.0*
21,1,1.01600,2.13200,0,0,270.0*
1,1,1.11600,-0.50800,-0.50800*
1,1,1.11600,-0.50800,0.50800*
1,1,1.11600,0.50800,0.50800*
1,1,1.11600,0.50800,-0.50800*
%
%ADD124ROUNDEDRECTD124*%
%ADD125C,2.13200*%
%ADD126C,4.10000*%
G04:AMPARAMS|DCode=127|XSize=2.3mm|YSize=1.3mm|CornerRadius=0.65mm|HoleSize=0mm|Usage=FLASHONLY|Rotation=180.000|XOffset=0mm|YOffset=0mm|HoleType=Round|Shape=RoundedRectangle|*
%AMROUNDEDRECTD127*
21,1,2.30000,0.00000,0,0,180.0*
21,1,1.00000,1.30000,0,0,180.0*
1,1,1.30000,-0.50000,0.00000*
1,1,1.30000,0.50000,0.00000*
1,1,1.30000,0.50000,0.00000*
1,1,1.30000,-0.50000,0.00000*
%
%ADD127ROUNDEDRECTD127*%
G04:AMPARAMS|DCode=128|XSize=2.3mm|YSize=1.3mm|CornerRadius=0.65mm|HoleSize=0mm|Usage=FLASHONLY|Rotation=270.000|XOffset=0mm|YOffset=0mm|HoleType=Round|Shape=RoundedRectangle|*
%AMROUNDEDRECTD128*
21,1,2.30000,0.00000,0,0,270.0*
21,1,1.00000,1.30000,0,0,270.0*
1,1,1.30000,0.00000,-0.50000*
1,1,1.30000,0.00000,0.50000*
1,1,1.30000,0.00000,0.50000*
1,1,1.30000,0.00000,-0.50000*
%
%ADD128ROUNDEDRECTD128*%
G04:AMPARAMS|DCode=129|XSize=2.3mm|YSize=2.3mm|CornerRadius=0.27mm|HoleSize=0mm|Usage=FLASHONLY|Rotation=270.000|XOffset=0mm|YOffset=0mm|HoleType=Round|Shape=RoundedRectangle|*
%AMROUNDEDRECTD129*
21,1,2.30000,1.76000,0,0,270.0*
21,1,1.76000,2.30000,0,0,270.0*
1,1,0.54000,-0.88000,-0.88000*
1,1,0.54000,-0.88000,0.88000*
1,1,0.54000,0.88000,0.88000*
1,1,0.54000,0.88000,-0.88000*
%
%ADD129ROUNDEDRECTD129*%
%ADD130C,1.30320*%
%ADD131C,0.10000*%
%ADD132C,0.85320*%
%TA.AperFunction,ViaPad*%
%ADD133C,6.60000*%
%TA.AperFunction,NonConductor*%
%ADD148C,0.76200*%
%ADD149R,1.82500X1.05000*%
%TA.AperFunction,SMDPad,CuDef*%
%ADD150R,0.90000X0.55000*%
%ADD151R,0.40320X0.54320*%
%ADD152R,0.46320X0.54320*%
%ADD153R,0.80320X0.80320*%
%ADD154R,7.10000X7.10000*%
%ADD155R,1.30000X0.40000*%
%ADD156R,4.20000X2.60000*%
%ADD157R,0.80320X1.25320*%
G04:AMPARAMS|DCode=158|XSize=1.65mm|YSize=0.7mm|CornerRadius=0.08mm|HoleSize=0mm|Usage=FLASHONLY|Rotation=180.000|XOffset=0mm|YOffset=0mm|HoleType=Round|Shape=RoundedRectangle|*
%AMROUNDEDRECTD158*
21,1,1.65000,0.54000,0,0,180.0*
21,1,1.49000,0.70000,0,0,180.0*
1,1,0.16000,-0.74500,0.27000*
1,1,0.16000,0.74500,0.27000*
1,1,0.16000,0.74500,-0.27000*
1,1,0.16000,-0.74500,-0.27000*
%
%ADD158ROUNDEDRECTD158*%
%ADD159R,0.90000X0.90000*%
%ADD160R,1.90000X1.40000*%
%ADD161R,1.60000X4.10000*%
%ADD162R,1.40000X0.35000*%
%ADD163R,0.35000X0.80000*%
%ADD164R,0.70000X0.90000*%
%ADD165R,2.30000X1.15000*%
%ADD166R,1.15000X1.10000*%
%ADD167R,1.10320X1.20320*%
%ADD168R,0.60320X0.70320*%
G04:AMPARAMS|DCode=169|XSize=0.6032mm|YSize=0.7032mm|CornerRadius=0mm|HoleSize=0mm|Usage=FLASHONLY|Rotation=45.000|XOffset=0mm|YOffset=0mm|HoleType=Round|Shape=Rectangle|*
%AMROTATEDRECTD169*
4,1,4,0.03535,-0.46188,-0.46188,0.03535,-0.03535,0.46188,0.46188,-0.03535,0.03535,-0.46188,0.0*
%
%ADD169ROTATEDRECTD169*%

%ADD170P,1.13590X4X90.0*%
%ADD171R,0.90000X0.30000*%
%ADD172R,0.30000X0.90000*%
%ADD173R,2.50000X0.86000*%
%ADD174R,1.80000X1.80000*%
%ADD175C,1.20320*%
%ADD176R,1.50000X0.72000*%
%ADD177R,2.50000X1.20000*%
%ADD178R,0.70000X1.20000*%
%ADD179R,3.55320X2.20320*%
%ADD180R,2.20320X3.55320*%
%ADD181R,2.00000X1.30000*%
%ADD182R,2.65320X2.65320*%
G04:AMPARAMS|DCode=183|XSize=1.0632mm|YSize=0.4732mm|CornerRadius=0.13535mm|HoleSize=0mm|Usage=FLASHONLY|Rotation=0.000|XOffset=0mm|YOffset=0mm|HoleType=Round|Shape=RoundedRectangle|*
%AMROUNDEDRECTD183*
21,1,1.06320,0.20250,0,0,0.0*
21,1,0.79250,0.47320,0,0,0.0*
1,1,0.27070,0.39625,-0.10125*
1,1,0.27070,-0.39625,-0.10125*
1,1,0.27070,-0.39625,0.10125*
1,1,0.27070,0.39625,0.10125*
%
%ADD183ROUNDEDRECTD183*%
G04:AMPARAMS|DCode=184|XSize=1.0632mm|YSize=0.4732mm|CornerRadius=0.13535mm|HoleSize=0mm|Usage=FLASHONLY|Rotation=90.000|XOffset=0mm|YOffset=0mm|HoleType=Round|Shape=RoundedRectangle|*
%AMROUNDEDRECTD184*
21,1,1.06320,0.20250,0,0,90.0*
21,1,0.79250,0.47320,0,0,90.0*
1,1,0.27070,0.10125,0.39625*
1,1,0.27070,0.10125,-0.39625*
1,1,0.27070,-0.10125,-0.39625*
1,1,0.27070,-0.10125,0.39625*
%
%ADD184ROUNDEDRECTD184*%
%ADD185R,4.10000X1.60000*%
G04:AMPARAMS|DCode=186|XSize=1.7mm|YSize=0.51mm|CornerRadius=0.0705mm|HoleSize=0mm|Usage=FLASHONLY|Rotation=90.000|XOffset=0mm|YOffset=0mm|HoleType=Round|Shape=RoundedRectangle|*
%AMROUNDEDRECTD186*
21,1,1.70000,0.36900,0,0,90.0*
21,1,1.55900,0.51000,0,0,90.0*
1,1,0.14100,0.18450,0.77950*
1,1,0.14100,0.18450,-0.77950*
1,1,0.14100,-0.18450,-0.77950*
1,1,0.14100,-0.18450,0.77950*
%
%ADD186ROUNDEDRECTD186*%
%ADD187R,1.00320X1.70320*%
%ADD188R,0.35400X0.91280*%
%ADD189R,0.45560X0.68420*%
%ADD190R,0.68420X0.45560*%
%ADD191C,0.33000*%
G04:AMPARAMS|DCode=192|XSize=1.7mm|YSize=0.45mm|CornerRadius=0.0675mm|HoleSize=0mm|Usage=FLASHONLY|Rotation=270.000|XOffset=0mm|YOffset=0mm|HoleType=Round|Shape=RoundedRectangle|*
%AMROUNDEDRECTD192*
21,1,1.70000,0.31500,0,0,270.0*
21,1,1.56500,0.45000,0,0,270.0*
1,1,0.13500,-0.15750,-0.78250*
1,1,0.13500,-0.15750,0.78250*
1,1,0.13500,0.15750,0.78250*
1,1,0.13500,0.15750,-0.78250*
%
%ADD192ROUNDEDRECTD192*%
%ADD193R,0.57500X0.50000*%
%ADD194R,0.76000X0.50000*%
G04:AMPARAMS|DCode=195|XSize=1.55mm|YSize=0.55mm|CornerRadius=0.0725mm|HoleSize=0mm|Usage=FLASHONLY|Rotation=90.000|XOffset=0mm|YOffset=0mm|HoleType=Round|Shape=RoundedRectangle|*
%AMROUNDEDRECTD195*
21,1,1.55000,0.40500,0,0,90.0*
21,1,1.40500,0.55000,0,0,90.0*
1,1,0.14500,0.20250,0.70250*
1,1,0.14500,0.20250,-0.70250*
1,1,0.14500,-0.20250,-0.70250*
1,1,0.14500,-0.20250,0.70250*
%
%ADD195ROUNDEDRECTD195*%
%TA.AperFunction,ConnectorPad*%
%ADD196R,2.20320X2.38320*%
%ADD197R,1.35320X0.50320*%
%ADD198R,1.35320X0.80320*%
%TA.AperFunction,SMDPad,CuDef*%
%ADD199P,2.54558X4X180.0*%
G04:AMPARAMS|DCode=200|XSize=0.8532mm|YSize=0.4532mm|CornerRadius=0mm|HoleSize=0mm|Usage=FLASHONLY|Rotation=315.000|XOffset=0mm|YOffset=0mm|HoleType=Round|Shape=Rectangle|*
%AMROTATEDRECTD200*
4,1,4,-0.46188,0.14142,-0.14142,0.46188,0.46188,-0.14142,0.14142,-0.46188,-0.46188,0.14142,0.0*
%
%ADD200ROTATEDRECTD200*%

G04:AMPARAMS|DCode=201|XSize=0.8532mm|YSize=0.4532mm|CornerRadius=0mm|HoleSize=0mm|Usage=FLASHONLY|Rotation=45.000|XOffset=0mm|YOffset=0mm|HoleType=Round|Shape=Rectangle|*
%AMROTATEDRECTD201*
4,1,4,-0.14142,-0.46188,-0.46188,-0.14142,0.14142,0.46188,0.46188,0.14142,-0.14142,-0.46188,0.0*
%
%ADD201ROTATEDRECTD201*%

%ADD202R,1.40320X2.70320*%
%ADD203R,1.55000X0.70000*%
G04:AMPARAMS|DCode=204|XSize=0.6032mm|YSize=0.7032mm|CornerRadius=0mm|HoleSize=0mm|Usage=FLASHONLY|Rotation=315.000|XOffset=0mm|YOffset=0mm|HoleType=Round|Shape=Rectangle|*
%AMROTATEDRECTD204*
4,1,4,-0.46188,-0.03535,0.03535,0.46188,0.46188,0.03535,-0.03535,-0.46188,-0.46188,-0.03535,0.0*
%
%ADD204ROTATEDRECTD204*%

%ADD205R,0.70320X0.60320*%
%ADD206R,0.54320X0.40320*%
%ADD207R,0.54320X0.46320*%
%ADD208R,1.30000X2.00000*%
D23*
X-234560Y4430000D02*
D03*
X-234560Y4470000D02*
D03*
Y4510000D02*
D03*
X-925440Y4870000D02*
D03*
Y4830000D02*
D03*
Y4790000D02*
D03*
X-925440Y4950000D02*
D03*
X-925440Y4910000D02*
D03*
X-925440Y4750000D02*
D03*
X-925440Y4709999D02*
D03*
Y4670000D02*
D03*
X-925440Y4630000D02*
D03*
X-925440Y4590000D02*
D03*
Y4550000D02*
D03*
Y4510000D02*
D03*
Y4470000D02*
D03*
Y4430000D02*
D03*
X-234560Y4550000D02*
D03*
Y4590000D02*
D03*
X-234560Y4630000D02*
D03*
X-234560Y4670000D02*
D03*
Y4710000D02*
D03*
X-234560Y4750000D02*
D03*
X-234560Y4790000D02*
D03*
Y4830000D02*
D03*
Y4870000D02*
D03*
Y4910000D02*
D03*
Y4950000D02*
D03*
D38*
X-320000Y5035440D02*
D03*
X-360000D02*
D03*
X-400000D02*
D03*
X-440000D02*
D03*
X-480000D02*
D03*
X-520000D02*
D03*
X-560000D02*
D03*
X-600000D02*
D03*
X-680000D02*
D03*
X-720000D02*
D03*
X-760000D02*
D03*
X-800000D02*
D03*
X-840000Y5035440D02*
D03*
Y4344560D02*
D03*
X-800000Y4344560D02*
D03*
X-760000D02*
D03*
X-720000D02*
D03*
X-680000D02*
D03*
X-640000Y4344560D02*
D03*
X-600000D02*
D03*
X-560000Y4344560D02*
D03*
X-520000Y4344560D02*
D03*
X-480000Y4344560D02*
D03*
X-440000D02*
D03*
X-400000D02*
D03*
X-360000D02*
D03*
X-320000Y4344560D02*
D03*
X-640000Y5035440D02*
D03*
D39*
X-580000Y4690000D02*
D03*
D58*
X2300000Y-3250000D02*
D03*
X-200000Y-1700000D02*
D03*
D120*
X1100122Y-5170000D02*
D03*
Y-5270000D02*
D03*
X400000Y-4500000D02*
D03*
Y-4599999D02*
D03*
X2050000Y1650000D02*
D03*
X2050000Y1750000D02*
D03*
X2150000Y1650000D02*
D03*
X2150001Y1750000D02*
D03*
X350000Y3750000D02*
D03*
X350000Y3650000D02*
D03*
X-124999Y4650000D02*
D03*
X-124999Y4750000D02*
D03*
X450000Y-5550000D02*
D03*
Y-5450000D02*
D03*
X2150001Y1949999D02*
D03*
X2150000Y1850000D02*
D03*
X2050000Y1949999D02*
D03*
X2050000Y1849999D02*
D03*
X-1900000Y-1850000D02*
D03*
Y-1950000D02*
D03*
X-1050000Y550000D02*
D03*
X-1050000Y450000D02*
D03*
X-1150000Y550000D02*
D03*
Y450000D02*
D03*
X-1700000Y-200000D02*
D03*
Y-300000D02*
D03*
Y150000D02*
D03*
Y250000D02*
D03*
X200000Y1650000D02*
D03*
X200000Y1750001D02*
D03*
X100000Y1650000D02*
D03*
Y1750000D02*
D03*
X0Y1650000D02*
D03*
Y1750000D02*
D03*
X-100000Y1650000D02*
D03*
X-100000Y1750001D02*
D03*
X-200000Y1650000D02*
D03*
Y1750000D02*
D03*
X-300000Y1650000D02*
D03*
Y1750000D02*
D03*
X-400000Y1650000D02*
D03*
Y1750000D02*
D03*
X1500000Y150000D02*
D03*
Y50000D02*
D03*
X400000Y550000D02*
D03*
Y450000D02*
D03*
X1400000Y50000D02*
D03*
X1400000Y150000D02*
D03*
X400000Y1250000D02*
D03*
Y1350000D02*
D03*
X600000Y1750000D02*
D03*
X600000Y1650000D02*
D03*
X1100000Y1650000D02*
D03*
Y1750000D02*
D03*
X1000000Y1650000D02*
D03*
Y1750000D02*
D03*
X900000Y1650000D02*
D03*
Y1750000D02*
D03*
X1500000Y-150000D02*
D03*
Y-50000D02*
D03*
X800000Y1650000D02*
D03*
Y1750000D02*
D03*
X1000000Y-550000D02*
D03*
X1000000Y-450000D02*
D03*
X1400000Y-50000D02*
D03*
X1400000Y-150000D02*
D03*
X2300000Y-2800000D02*
D03*
Y-2900000D02*
D03*
X2400000Y-2800000D02*
D03*
Y-2900000D02*
D03*
X-1400000Y-1497500D02*
D03*
Y-1597500D02*
D03*
X1300000Y1550000D02*
D03*
Y1650000D02*
D03*
X-200000Y-1300000D02*
D03*
Y-1400000D02*
D03*
X-350000D02*
D03*
Y-1300000D02*
D03*
X-600000Y-1650000D02*
D03*
Y-1550000D02*
D03*
X-1850000Y-3850000D02*
D03*
X-1850000Y-3750000D02*
D03*
X450000Y-5300000D02*
D03*
Y-5200000D02*
D03*
X550000Y-5050000D02*
D03*
X549999Y-4950000D02*
D03*
X550000Y-5200000D02*
D03*
Y-5300000D02*
D03*
D122*
X1870309Y-2960000D02*
D03*
X1870308Y-2859993D02*
D03*
X-449990Y3200009D02*
D03*
Y3100002D02*
D03*
X119840Y2226154D02*
D03*
Y2326161D02*
D03*
X-739990Y3759997D02*
D03*
Y3659990D02*
D03*
X3Y5330009D02*
D03*
Y5430016D02*
D03*
X90010Y5139997D02*
D03*
Y5039990D02*
D03*
X-119990Y4549997D02*
D03*
Y4449990D02*
D03*
X-29990Y4549997D02*
D03*
Y4449990D02*
D03*
X-629990Y5299997D02*
D03*
Y5199990D02*
D03*
X-719990Y5299997D02*
D03*
Y5199990D02*
D03*
X-809990Y5299997D02*
D03*
Y5199990D02*
D03*
X-1039990Y4749997D02*
D03*
Y4649990D02*
D03*
X-1599990Y-200010D02*
D03*
Y-100003D02*
D03*
X-1499991Y-200010D02*
D03*
Y-100003D02*
D03*
X700009Y149990D02*
D03*
Y249997D02*
D03*
X800009Y349990D02*
D03*
X800009Y449997D02*
D03*
X1249990Y-3199990D02*
D03*
X1249991Y-3299997D02*
D03*
X1350009Y-3300009D02*
D03*
Y-3200002D02*
D03*
X1600009Y-3600010D02*
D03*
X1600009Y-3500003D02*
D03*
X1500009Y-3600010D02*
D03*
Y-3500003D02*
D03*
X1500010Y-3300010D02*
D03*
X1500009Y-3200002D02*
D03*
X-1350009Y-1949991D02*
D03*
Y-2049997D02*
D03*
X-450009Y-1549990D02*
D03*
Y-1649997D02*
D03*
X-299991Y-4500010D02*
D03*
Y-4400003D02*
D03*
D123*
X710546Y-4590475D02*
D03*
X810546Y-4590476D02*
D03*
X834949Y1942207D02*
D03*
X734950Y1942207D02*
D03*
X-319991Y2100000D02*
D03*
X-419991D02*
D03*
X-1550000Y3050000D02*
D03*
X-1650000Y3050000D02*
D03*
X-550000Y2250000D02*
D03*
X-650000D02*
D03*
X-550000Y2050000D02*
D03*
X-650000D02*
D03*
X-550000Y1850000D02*
D03*
X-650000D02*
D03*
X-550000Y2350000D02*
D03*
X-650000D02*
D03*
X-1080001Y-430010D02*
D03*
X-1180000Y-430009D02*
D03*
X935000Y-4065000D02*
D03*
X1034999Y-4065000D02*
D03*
X1034999Y-4165000D02*
D03*
X934999D02*
D03*
X1135000Y-4165000D02*
D03*
X1235000Y-4165000D02*
D03*
Y-4065000D02*
D03*
X1135000D02*
D03*
X-2200000Y-3800000D02*
D03*
X-2300000Y-3800000D02*
D03*
X500000Y-100000D02*
D03*
X600000D02*
D03*
X-1280000Y-530000D02*
D03*
X-1180000D02*
D03*
X-1500000Y-1600000D02*
D03*
X-1600000D02*
D03*
X-2000000Y-1750000D02*
D03*
X-1900000D02*
D03*
X-1378454Y557527D02*
D03*
X-1278454Y557526D02*
D03*
X-1650000Y3350000D02*
D03*
X-1550000Y3350000D02*
D03*
X-1550000Y800000D02*
D03*
X-1650000D02*
D03*
X-1550000Y950000D02*
D03*
X-1650000D02*
D03*
X-1060000Y-330000D02*
D03*
X-1160000D02*
D03*
X-1180000Y772500D02*
D03*
X-1080000D02*
D03*
Y672500D02*
D03*
X-1180000D02*
D03*
X500000Y250000D02*
D03*
X600000D02*
D03*
X400000D02*
D03*
X300000D02*
D03*
X600000Y150000D02*
D03*
X500000D02*
D03*
X800000Y-300000D02*
D03*
X900000Y-300000D02*
D03*
X800000Y-100000D02*
D03*
X700000D02*
D03*
X1400001Y350000D02*
D03*
X1300001Y350000D02*
D03*
X1700000Y150000D02*
D03*
X1600000D02*
D03*
X1700000Y50000D02*
D03*
X1600000Y50000D02*
D03*
X500000Y350000D02*
D03*
X600000D02*
D03*
X1000000D02*
D03*
X900000D02*
D03*
X1350000Y-350000D02*
D03*
X1250000Y-350000D02*
D03*
X1700000Y-50000D02*
D03*
X1600000D02*
D03*
X1700000Y-150000D02*
D03*
X1600000Y-150000D02*
D03*
X800000Y-400000D02*
D03*
X900000Y-400000D02*
D03*
X1100000Y-350000D02*
D03*
X1000000Y-350000D02*
D03*
X1000000Y450000D02*
D03*
X900000D02*
D03*
X1650000Y-3700000D02*
D03*
X1550000D02*
D03*
X1775000D02*
D03*
X1875000D02*
D03*
X-550000Y2650000D02*
D03*
X-650000Y2650000D02*
D03*
X-1550000Y3200000D02*
D03*
X-1650000Y3200000D02*
D03*
X850000Y2400000D02*
D03*
X750000D02*
D03*
X-1600000Y-4250001D02*
D03*
X-1500000Y-4250001D02*
D03*
X699100Y-4200000D02*
D03*
X599101Y-4200000D02*
D03*
D124*
X2209000Y381000D02*
D03*
D125*
Y127000D02*
D03*
Y-127000D02*
D03*
Y-381000D02*
D03*
X1955000D02*
D03*
Y-127000D02*
D03*
Y127000D02*
D03*
Y381000D02*
D03*
D126*
X1600000Y-1090000D02*
D03*
Y-2410000D02*
D03*
D127*
X-230000Y-4820000D02*
D03*
D128*
X60000Y-5150000D02*
D03*
X-460000Y-4840000D02*
D03*
X150000Y-5650000D02*
D03*
X-610000Y-5040000D02*
D03*
X-750000Y-4840000D02*
D03*
D129*
X-810000Y-5650000D02*
D03*
X250000Y-5400000D02*
D03*
D130*
X-300000Y-5650000D02*
D03*
Y-5150000D02*
D03*
D131*
X800016Y2760000D02*
D03*
X-799984Y-2760000D02*
D03*
X800016Y-3580000D02*
D03*
X-1992000Y1718000D02*
D03*
X-1992000Y2398000D02*
D03*
D132*
X-1995000Y-289000D02*
D03*
Y289000D02*
D03*
D133*
X-2100000Y-4500000D02*
D03*
X2300000D02*
D03*
Y4500000D02*
D03*
X-2100000D02*
D03*
D148*
X-1050000Y-5800000D02*
Y-3900000D01*
X850000D01*
X1250000D02*
X1550000D01*
Y-5800000D02*
Y-3900000D01*
X349985Y-5800004D02*
X1550000Y-5800000D01*
X750000Y5475000D02*
Y5575000D01*
X-150007D02*
X750000D01*
X-1249993Y5575000D02*
X-123189D01*
X-1249993Y4199983D02*
Y5575000D01*
X-1250000Y3500006D02*
Y3999973D01*
X-1250000D01*
X-1250000Y3500006D02*
X-1250000D01*
X-1250000D02*
X749981D01*
Y3599992D01*
X749999Y3800002D02*
Y5200002D01*
X-700000Y-700000D02*
X2500000D01*
Y1700000D01*
X1500000D02*
X2500000D01*
X350000D02*
X450000D01*
X-700000Y1700000D02*
X-550000D01*
X-700000Y-700000D02*
Y1700000D01*
X-2300000Y-1000000D02*
X-1700025D01*
X-2300000Y-3400000D02*
Y-1000000D01*
Y-3400000D02*
X500000D01*
Y-1000000D01*
X-700007D02*
X500000D01*
D149*
X-1300006Y-3832503D02*
D03*
X-1299999Y-4067502D02*
D03*
D150*
X585000Y-4350000D02*
D03*
X785000D02*
D03*
X785000Y-4415000D02*
D03*
X785000Y-4480000D02*
D03*
X585000D02*
D03*
X585000Y-4830000D02*
D03*
X785000D02*
D03*
Y-4765000D02*
D03*
X785000Y-4700000D02*
D03*
X585000Y-4700000D02*
D03*
D151*
X731000Y2207000D02*
D03*
X769000D02*
D03*
D152*
X750000Y2293000D02*
D03*
D153*
X399991Y1449990D02*
D03*
X499997Y1449991D02*
D03*
X129993Y2029999D02*
D03*
X230000Y2030000D02*
D03*
X-860002Y4239991D02*
D03*
X-960009D02*
D03*
X429997Y5044990D02*
D03*
X329991Y5044990D02*
D03*
X330003Y4585009D02*
D03*
X430010D02*
D03*
X-410002Y5159990D02*
D03*
X-510009D02*
D03*
X-109997Y5040009D02*
D03*
X-9990D02*
D03*
X-109997Y4940009D02*
D03*
X-9990D02*
D03*
X400003Y-4199991D02*
D03*
X500010Y-4199990D02*
D03*
X350003Y-4949990D02*
D03*
X450010Y-4949991D02*
D03*
X1084997Y-4915009D02*
D03*
X984990Y-4915009D02*
D03*
X1084997Y-5015009D02*
D03*
X984990Y-5015010D02*
D03*
X-419995Y2226155D02*
D03*
X-319987Y2226154D02*
D03*
X-1380009Y-430009D02*
D03*
X-1280003D02*
D03*
X-1380009Y-330009D02*
D03*
X-1280003D02*
D03*
X-99990Y475010D02*
D03*
X-199997Y475009D02*
D03*
X-99990Y375009D02*
D03*
X-199997D02*
D03*
X807614Y176024D02*
D03*
X907621Y176025D02*
D03*
X299990Y149990D02*
D03*
X399997Y149991D02*
D03*
X600010Y10D02*
D03*
X500003Y9D02*
D03*
X799991Y-200010D02*
D03*
X899997D02*
D03*
X599990Y-300009D02*
D03*
X699997D02*
D03*
X600009Y450010D02*
D03*
X500003D02*
D03*
X400010Y700010D02*
D03*
X300003Y700010D02*
D03*
X600009Y1350009D02*
D03*
X500003D02*
D03*
X-279756Y2732067D02*
D03*
X-179749Y2732067D02*
D03*
X129993Y2129999D02*
D03*
X230000Y2129999D02*
D03*
X-319990Y2326144D02*
D03*
X-419997Y2326145D02*
D03*
X-1200010Y-1600009D02*
D03*
X-1100003D02*
D03*
X-1200010Y-1500009D02*
D03*
X-1100003D02*
D03*
X10Y-1399990D02*
D03*
X-99997D02*
D03*
X-650010Y-2000009D02*
D03*
X-550003D02*
D03*
X-650010Y-2100009D02*
D03*
X-550003D02*
D03*
X-1700010Y-3650011D02*
D03*
X-1600003Y-3650010D02*
D03*
D154*
X1600000Y-1750000D02*
D03*
D155*
X1167500Y2875000D02*
D03*
Y2825000D02*
D03*
Y2775000D02*
D03*
Y2725000D02*
D03*
X1167500Y2675000D02*
D03*
X1167500Y2625000D02*
D03*
Y2575000D02*
D03*
Y2525000D02*
D03*
Y2475000D02*
D03*
Y2425000D02*
D03*
Y2375000D02*
D03*
Y2325000D02*
D03*
Y2925000D02*
D03*
Y2975000D02*
D03*
Y3025000D02*
D03*
Y3075000D02*
D03*
Y3125000D02*
D03*
X1167500Y3175000D02*
D03*
Y3225000D02*
D03*
X1167500Y3275000D02*
D03*
Y3325000D02*
D03*
Y3375000D02*
D03*
X1167500Y3425000D02*
D03*
X1167500Y3475000D02*
D03*
D156*
X1432500Y3687000D02*
D03*
Y2113000D02*
D03*
D157*
X950000Y1990000D02*
D03*
X855000Y2210000D02*
D03*
X1045000D02*
D03*
X1505000Y-2959999D02*
D03*
X1695000Y-2960000D02*
D03*
X1600000Y-2740000D02*
D03*
D158*
X187000Y3759500D02*
D03*
Y3886500D02*
D03*
Y4013500D02*
D03*
Y4140500D02*
D03*
X-587000D02*
D03*
Y4013500D02*
D03*
Y3886500D02*
D03*
Y3759500D02*
D03*
D159*
X-2330000Y3050000D02*
D03*
X-2170000Y3050000D02*
D03*
X-2330000Y3350000D02*
D03*
X-2170000Y3350000D02*
D03*
Y800000D02*
D03*
X-2330000Y800000D02*
D03*
X-2170000Y950000D02*
D03*
X-2330000Y950000D02*
D03*
Y3200000D02*
D03*
X-2170000D02*
D03*
Y-3650000D02*
D03*
X-2330000Y-3650000D02*
D03*
D160*
X350000Y2625000D02*
D03*
Y2275000D02*
D03*
D161*
X-280000Y3050000D02*
D03*
X80000Y3050000D02*
D03*
X-380000Y-2200000D02*
D03*
X-20000D02*
D03*
D162*
X-215000Y2500000D02*
D03*
Y2450000D02*
D03*
Y2400000D02*
D03*
X15000Y2500000D02*
D03*
Y2450000D02*
D03*
Y2400000D02*
D03*
D163*
X-200000Y2305000D02*
D03*
X-150000D02*
D03*
X-100000D02*
D03*
X-50000D02*
D03*
X-0D02*
D03*
Y2595000D02*
D03*
X-50000D02*
D03*
X-100000D02*
D03*
X-150000D02*
D03*
X-200000D02*
D03*
D164*
X2000000Y-2950000D02*
D03*
X2169999Y-2950000D02*
D03*
D165*
X1200000Y5202506D02*
D03*
X1200000Y5497500D02*
D03*
D166*
X1047500Y5350000D02*
D03*
D167*
X315001Y4730000D02*
D03*
Y4900000D02*
D03*
X445001Y4900000D02*
D03*
Y4730000D02*
D03*
D168*
X-420000Y5250000D02*
D03*
X-500000D02*
D03*
D169*
X-101716Y5298284D02*
D03*
X-158284Y5241716D02*
D03*
D170*
X-230000Y5190000D02*
D03*
X-300716Y5260716D02*
D03*
D171*
X1230000Y-4575000D02*
D03*
X940000Y-4615000D02*
D03*
Y-4575000D02*
D03*
X940000Y-4695000D02*
D03*
X940000Y-4655000D02*
D03*
X1230000Y-4535000D02*
D03*
Y-4655000D02*
D03*
Y-4615000D02*
D03*
Y-4694999D02*
D03*
X940000Y-4535000D02*
D03*
D172*
X1165000Y-4470000D02*
D03*
X1125000D02*
D03*
X1005000Y-4470000D02*
D03*
X1045000Y-4470000D02*
D03*
X1085000D02*
D03*
X1165000Y-4760000D02*
D03*
X1125000D02*
D03*
X1045000Y-4760000D02*
D03*
X1085000Y-4760000D02*
D03*
X1005000D02*
D03*
D173*
X705000Y-5373000D02*
D03*
X705000Y-5500001D02*
D03*
X704999Y-5627000D02*
D03*
X1095000Y-5627000D02*
D03*
X1095000Y-5499999D02*
D03*
X1094999Y-5372999D02*
D03*
D174*
X1085000Y-4615000D02*
D03*
D175*
X1335000Y-4115000D02*
D03*
X400000Y-4800000D02*
D03*
X835000Y-4115000D02*
D03*
X-1900000Y-1600000D02*
D03*
X-1750000D02*
D03*
X-2025000Y-1950000D02*
D03*
X-1550000Y325000D02*
D03*
X-900000Y300000D02*
D03*
X-1250000Y450000D02*
D03*
X-1400000Y325000D02*
D03*
X695738Y1622871D02*
D03*
X622500Y1500000D02*
D03*
X1300000Y-2850000D02*
D03*
X1750000Y-3500000D02*
D03*
X2100000Y-3100000D02*
D03*
X-600000Y-1250000D02*
D03*
X-450000Y-1400000D02*
D03*
X-600000D02*
D03*
X-500000Y-1850000D02*
D03*
X1800000Y1350000D02*
D03*
D176*
X-850000Y2680000D02*
D03*
X-850000Y2570000D02*
D03*
X-850000Y2460000D02*
D03*
X-850000Y2350000D02*
D03*
X-850000Y2240000D02*
D03*
Y2130000D02*
D03*
Y2020000D02*
D03*
Y1910000D02*
D03*
Y1800000D02*
D03*
D177*
X-1050000Y2818000D02*
D03*
X-1950000Y2818000D02*
D03*
X-1950000Y1203000D02*
D03*
X-1050000Y1203000D02*
D03*
D178*
X-1695000Y-3820000D02*
D03*
X-1600000Y-3820002D02*
D03*
X-1505000Y-3820000D02*
D03*
X-1505000Y-4080000D02*
D03*
X-1600000Y-4080001D02*
D03*
X-1695000Y-4080001D02*
D03*
D179*
X-365000Y-2750000D02*
D03*
X165000D02*
D03*
D180*
X-1900000Y-3015000D02*
D03*
Y-2485000D02*
D03*
X1549999Y1164999D02*
D03*
Y635000D02*
D03*
D181*
X-1050000Y-830000D02*
D03*
Y-1270000D02*
D03*
X-1400000D02*
D03*
Y-830000D02*
D03*
D182*
X-1150000Y0D02*
D03*
D183*
X-956500Y125000D02*
D03*
Y75000D02*
D03*
Y25000D02*
D03*
Y-25000D02*
D03*
Y-75000D02*
D03*
Y-125000D02*
D03*
X-1343500D02*
D03*
Y-75000D02*
D03*
Y-25000D02*
D03*
Y25000D02*
D03*
Y75000D02*
D03*
Y125000D02*
D03*
D184*
X-1275000Y193500D02*
D03*
X-1225000D02*
D03*
X-1175000D02*
D03*
X-1125000D02*
D03*
X-1075000D02*
D03*
X-1025000D02*
D03*
Y-193500D02*
D03*
X-1075000D02*
D03*
X-1125000D02*
D03*
X-1175000D02*
D03*
X-1225000D02*
D03*
X-1275000D02*
D03*
D185*
X-1000000Y-1820000D02*
D03*
Y-2180000D02*
D03*
D186*
X-322250Y630000D02*
D03*
X-4750D02*
D03*
X-68250D02*
D03*
X-131750D02*
D03*
X-195250Y630000D02*
D03*
X-258750Y630000D02*
D03*
X58750D02*
D03*
X122250D02*
D03*
Y1170000D02*
D03*
X58750D02*
D03*
X-4750D02*
D03*
X-68250D02*
D03*
X-131750D02*
D03*
X-195250D02*
D03*
X-258750D02*
D03*
X-322250D02*
D03*
D187*
X2175000Y-3650000D02*
D03*
X2325000Y-3650000D02*
D03*
D188*
X2200000Y-3110300D02*
D03*
X2250000D02*
D03*
X2300000D02*
D03*
X2350000D02*
D03*
X2400000D02*
D03*
Y-3389700D02*
D03*
X2350000D02*
D03*
X2300000D02*
D03*
X2250000D02*
D03*
X2200000Y-3389700D02*
D03*
X-100000Y-1839700D02*
D03*
X-150000D02*
D03*
X-200000D02*
D03*
X-250000D02*
D03*
X-300000D02*
D03*
Y-1560300D02*
D03*
X-250000D02*
D03*
X-200000D02*
D03*
X-150000D02*
D03*
X-100000D02*
D03*
D189*
X1825019Y-3129350D02*
D03*
X1775007Y-3129350D02*
D03*
X1724994Y-3129350D02*
D03*
X1674981D02*
D03*
Y-3370650D02*
D03*
X1724994D02*
D03*
X1775007Y-3370650D02*
D03*
X1825019Y-3370650D02*
D03*
D190*
X1654130Y-3199987D02*
D03*
X1654130Y-3250000D02*
D03*
X1654130Y-3300013D02*
D03*
X1845870Y-3300012D02*
D03*
X1845870Y-3250000D02*
D03*
Y-3199987D02*
D03*
D191*
X1116419Y-3262736D02*
D03*
X1116419Y-3222737D02*
D03*
X1156418Y-3262736D02*
D03*
X1156419Y-3222736D02*
D03*
D192*
X817500Y1200000D02*
D03*
X882500D02*
D03*
X1012500Y600000D02*
D03*
X1077500D02*
D03*
X1142500Y600000D02*
D03*
Y1200000D02*
D03*
X1077500Y1199999D02*
D03*
X1012500Y1200000D02*
D03*
X947500D02*
D03*
X947500Y600000D02*
D03*
X882500D02*
D03*
X817500D02*
D03*
X752499Y600000D02*
D03*
X687500Y600000D02*
D03*
X622500Y600000D02*
D03*
X557500D02*
D03*
X752499Y1200000D02*
D03*
X687500Y1200000D02*
D03*
X622500Y1199999D02*
D03*
X557500Y1200000D02*
D03*
D193*
X-1208750Y-3865001D02*
D03*
X-1208750Y-3800001D02*
D03*
X-1208750Y-3735000D02*
D03*
X-1391250Y-3735000D02*
D03*
X-1391250Y-3800001D02*
D03*
X-1391250Y-3865000D02*
D03*
X-1391250Y-4035001D02*
D03*
X-1391250Y-4100001D02*
D03*
Y-4165001D02*
D03*
X-1208750Y-4165001D02*
D03*
X-1208750Y-4100001D02*
D03*
X-1208750Y-4035001D02*
D03*
D194*
X-1300000Y-3735001D02*
D03*
X-1300000Y-4165001D02*
D03*
D195*
X-1502500Y-1780000D02*
D03*
X-1567500D02*
D03*
X-1632500D02*
D03*
X-1697500D02*
D03*
Y-2220000D02*
D03*
X-1632500D02*
D03*
X-1567500D02*
D03*
X-1502500D02*
D03*
D196*
X-2338000Y-511000D02*
D03*
Y511000D02*
D03*
X-1945000Y-511000D02*
D03*
Y511000D02*
D03*
D197*
X-1887500Y-25000D02*
D03*
Y25000D02*
D03*
Y-75000D02*
D03*
Y75000D02*
D03*
Y-125000D02*
D03*
Y125000D02*
D03*
Y-175000D02*
D03*
Y175000D02*
D03*
D198*
Y-320000D02*
D03*
Y-240000D02*
D03*
Y240000D02*
D03*
Y320000D02*
D03*
D199*
X1100000Y0D02*
D03*
D200*
X1253796Y-47730D02*
D03*
X1218441Y-83085D02*
D03*
X1183086Y-118441D02*
D03*
X1147730Y-153796D02*
D03*
X946205Y47730D02*
D03*
X981560Y83085D02*
D03*
X1016915Y118440D02*
D03*
X1052271Y153796D02*
D03*
D201*
X1253796Y47730D02*
D03*
X1052270Y-153796D02*
D03*
X1016915Y-118440D02*
D03*
X981560Y-83085D02*
D03*
X946205Y-47729D02*
D03*
X1218441Y83085D02*
D03*
X1183086Y118440D02*
D03*
X1147730Y153796D02*
D03*
D202*
X-500000Y-4400000D02*
D03*
X-800000D02*
D03*
X-100000Y-4400000D02*
D03*
X200000Y-4400000D02*
D03*
D203*
X400000Y980000D02*
D03*
Y820000D02*
D03*
D204*
X-1600000Y-450000D02*
D03*
X-1543432Y-506568D02*
D03*
D205*
X1300000Y1840000D02*
D03*
X1300000Y1760000D02*
D03*
D206*
X-973000Y741500D02*
D03*
X-973000Y703500D02*
D03*
X-1287000Y703500D02*
D03*
X-1287000Y741500D02*
D03*
D207*
X-887001Y722500D02*
D03*
X-1373000Y722500D02*
D03*
D208*
X-1520000Y-2550000D02*
D03*
X-1080000D02*
D03*
%TF.MD5,3883d38488446d287884ab01b9812972*%
M02*
