%TF.GenerationSoftware,Altium Limited,Altium Designer,22.5.1 (42)*%
G04 Layer_Color=16711935*
%FSLAX45Y45*%
%MOMM*%
%TF.SameCoordinates,B0F14D10-A82B-43C6-BF60-515EF57ECD05*%
%TF.FilePolarity,Negative*%
%TF.FileFunction,Soldermask,Bot*%
%TF.Part,Single*%
G01*
G75*
%TA.AperFunction,SMDPad,CuDef*%
%ADD119R,12.10000X7.40000*%
%ADD120R,0.75320X0.80320*%
%ADD121R,1.70000X1.10000*%
%ADD122R,0.80320X0.80320*%
%ADD123R,0.80320X0.75320*%
%TA.AperFunction,ComponentPad*%
G04:AMPARAMS|DCode=124|XSize=2.132mm|YSize=2.132mm|CornerRadius=0.558mm|HoleSize=0mm|Usage=FLASHONLY|Rotation=270.000|XOffset=0mm|YOffset=0mm|HoleType=Round|Shape=RoundedRectangle|*
%AMROUNDEDRECTD124*
21,1,2.13200,1.01600,0,0,270.0*
21,1,1.01600,2.13200,0,0,270.0*
1,1,1.11600,-0.50800,-0.50800*
1,1,1.11600,-0.50800,0.50800*
1,1,1.11600,0.50800,0.50800*
1,1,1.11600,0.50800,-0.50800*
%
%ADD124ROUNDEDRECTD124*%
%ADD125C,2.13200*%
%ADD126C,4.10000*%
G04:AMPARAMS|DCode=127|XSize=2.3mm|YSize=1.3mm|CornerRadius=0.65mm|HoleSize=0mm|Usage=FLASHONLY|Rotation=180.000|XOffset=0mm|YOffset=0mm|HoleType=Round|Shape=RoundedRectangle|*
%AMROUNDEDRECTD127*
21,1,2.30000,0.00000,0,0,180.0*
21,1,1.00000,1.30000,0,0,180.0*
1,1,1.30000,-0.50000,0.00000*
1,1,1.30000,0.50000,0.00000*
1,1,1.30000,0.50000,0.00000*
1,1,1.30000,-0.50000,0.00000*
%
%ADD127ROUNDEDRECTD127*%
G04:AMPARAMS|DCode=128|XSize=2.3mm|YSize=1.3mm|CornerRadius=0.65mm|HoleSize=0mm|Usage=FLASHONLY|Rotation=270.000|XOffset=0mm|YOffset=0mm|HoleType=Round|Shape=RoundedRectangle|*
%AMROUNDEDRECTD128*
21,1,2.30000,0.00000,0,0,270.0*
21,1,1.00000,1.30000,0,0,270.0*
1,1,1.30000,0.00000,-0.50000*
1,1,1.30000,0.00000,0.50000*
1,1,1.30000,0.00000,0.50000*
1,1,1.30000,0.00000,-0.50000*
%
%ADD128ROUNDEDRECTD128*%
G04:AMPARAMS|DCode=129|XSize=2.3mm|YSize=2.3mm|CornerRadius=0.27mm|HoleSize=0mm|Usage=FLASHONLY|Rotation=270.000|XOffset=0mm|YOffset=0mm|HoleType=Round|Shape=RoundedRectangle|*
%AMROUNDEDRECTD129*
21,1,2.30000,1.76000,0,0,270.0*
21,1,1.76000,2.30000,0,0,270.0*
1,1,0.54000,-0.88000,-0.88000*
1,1,0.54000,-0.88000,0.88000*
1,1,0.54000,0.88000,0.88000*
1,1,0.54000,0.88000,-0.88000*
%
%ADD129ROUNDEDRECTD129*%
%ADD130C,1.30320*%
%ADD131C,0.10000*%
%ADD132C,0.85320*%
%TA.AperFunction,ViaPad*%
%ADD133C,6.60000*%
D119*
X16Y-3935000D02*
D03*
Y3935000D02*
D03*
D120*
X-370000Y1450000D02*
D03*
X-369999Y1550000D02*
D03*
X-1400000Y3850000D02*
D03*
X-1400000Y3950000D02*
D03*
X-370000Y1650000D02*
D03*
X-369999Y1750000D02*
D03*
D121*
X-1580000Y3390000D02*
D03*
Y3010000D02*
D03*
X-2220000D02*
D03*
Y3390000D02*
D03*
X-1580000Y3990000D02*
D03*
Y3610000D02*
D03*
X-2220000D02*
D03*
Y3990000D02*
D03*
D122*
X-1549991Y3150003D02*
D03*
Y3250010D02*
D03*
D123*
X-1450000Y4200000D02*
D03*
X-1550000Y4200000D02*
D03*
D124*
X2209000Y381000D02*
D03*
D125*
Y127000D02*
D03*
Y-127000D02*
D03*
Y-381000D02*
D03*
X1955000D02*
D03*
Y-127000D02*
D03*
Y127000D02*
D03*
Y381000D02*
D03*
D126*
X1600000Y-1090000D02*
D03*
Y-2410000D02*
D03*
D127*
X-230000Y-4820000D02*
D03*
D128*
X60000Y-5150000D02*
D03*
X-460000Y-4840000D02*
D03*
X150000Y-5650000D02*
D03*
X-610000Y-5040000D02*
D03*
X-750000Y-4840000D02*
D03*
D129*
X-810000Y-5650000D02*
D03*
X250000Y-5400000D02*
D03*
D130*
X-300000Y-5650000D02*
D03*
Y-5150000D02*
D03*
D131*
X800016Y2760000D02*
D03*
X-799984Y-2760000D02*
D03*
X800016Y-3580000D02*
D03*
X-1992000Y1718000D02*
D03*
X-1992000Y2398000D02*
D03*
D132*
X-1995000Y-289000D02*
D03*
Y289000D02*
D03*
D133*
X-2100000Y-4500000D02*
D03*
X2300000D02*
D03*
Y4500000D02*
D03*
X-2100000D02*
D03*
%TF.MD5,55fad9da878d794c1c83f7bd21e817e0*%
M02*
