%TF.GenerationSoftware,Altium Limited,Altium Designer,22.5.1 (42)*%
G04 Layer_Color=32896*
%FSLAX45Y45*%
%MOMM*%
%TF.SameCoordinates,B0F14D10-A82B-43C6-BF60-515EF57ECD05*%
%TF.FilePolarity,Positive*%
%TF.FileFunction,Legend,Bot*%
%TF.Part,Single*%
G01*
G75*
%TA.AperFunction,NonConductor*%
%ADD115C,0.30000*%
%ADD116C,1.50000*%
%ADD117C,0.50000*%
%ADD118C,0.20000*%
G36*
X-95811Y1161450D02*
X-102291Y1147562D01*
X-108772Y1133675D01*
X-115253Y1120713D01*
X-120808Y1109603D01*
X-125437Y1100345D01*
X-129140Y1094790D01*
X-130066Y1093864D01*
Y1092938D01*
X-140250Y1076273D01*
X-150435Y1061460D01*
X-159693Y1048499D01*
X-168025Y1038314D01*
X-174506Y1029056D01*
X-180061Y1023501D01*
X-183764Y1018872D01*
X-184690Y1017946D01*
X316184D01*
Y939251D01*
X-327268D01*
Y990171D01*
X-311529Y999430D01*
X-296716Y1009614D01*
X-281902Y1021649D01*
X-268941Y1032759D01*
X-257831Y1043869D01*
X-248573Y1052202D01*
X-245795Y1055905D01*
X-243018Y1058683D01*
X-242092Y1059608D01*
X-241166Y1060534D01*
X-225427Y1079977D01*
X-210613Y1099419D01*
X-197652Y1117936D01*
X-187468Y1136452D01*
X-178209Y1152191D01*
X-174506Y1158672D01*
X-171729Y1164227D01*
X-168951Y1168856D01*
X-168025Y1172560D01*
X-166174Y1174411D01*
Y1175337D01*
X-90256D01*
X-95811Y1161450D01*
D02*
G37*
G36*
X146757Y737420D02*
X161570Y735568D01*
X175458Y732791D01*
X189345Y729087D01*
X212491Y719829D01*
X223601Y715200D01*
X232859Y709645D01*
X242117Y704090D01*
X249524Y699461D01*
X256005Y693906D01*
X261560Y690202D01*
X266189Y686499D01*
X268966Y683722D01*
X270818Y681870D01*
X271744Y680944D01*
X281928Y669834D01*
X290261Y657798D01*
X297667Y644837D01*
X304148Y631875D01*
X308777Y619839D01*
X313406Y606878D01*
X319887Y581880D01*
X322665Y570770D01*
X324516Y560586D01*
X325442Y551328D01*
X326368Y542995D01*
X327294Y536515D01*
Y527256D01*
X326368Y509665D01*
X324516Y493926D01*
X321739Y478187D01*
X318961Y463374D01*
X314332Y450412D01*
X309703Y437451D01*
X305074Y425415D01*
X299519Y415231D01*
X293964Y405973D01*
X289335Y397640D01*
X284706Y391159D01*
X280076Y384678D01*
X277299Y380049D01*
X274521Y377272D01*
X272670Y375420D01*
X271744Y374494D01*
X260634Y364310D01*
X249524Y355052D01*
X238414Y347645D01*
X226378Y341164D01*
X215268Y334684D01*
X203233Y330054D01*
X181938Y323574D01*
X171754Y320796D01*
X162496Y318944D01*
X154164Y318019D01*
X147683Y317093D01*
X142128Y316167D01*
X137499D01*
X134721D01*
X133795D01*
X112501Y317093D01*
X93059Y320796D01*
X75468Y326351D01*
X60655Y331906D01*
X48619Y337461D01*
X39361Y343016D01*
X33806Y346719D01*
X32880Y347645D01*
X31954D01*
X17141Y360607D01*
X4179Y374494D01*
X-6005Y389308D01*
X-15263Y403195D01*
X-21744Y416157D01*
X-26373Y427267D01*
X-28225Y430970D01*
X-29151Y433747D01*
X-30077Y435599D01*
Y436525D01*
X-37483Y419860D01*
X-45816Y405973D01*
X-54148Y393937D01*
X-62481Y383753D01*
X-69887Y376346D01*
X-75442Y370791D01*
X-79146Y367088D01*
X-80997Y366162D01*
X-93959Y357829D01*
X-106921Y352274D01*
X-119882Y347645D01*
X-132844Y344868D01*
X-143028Y343016D01*
X-151360Y342090D01*
X-156915D01*
X-157841D01*
X-158767D01*
X-171729Y343016D01*
X-183764Y343942D01*
X-206910Y350423D01*
X-227278Y358755D01*
X-244869Y368013D01*
X-258757Y377272D01*
X-264312Y381901D01*
X-269867Y385604D01*
X-273570Y389308D01*
X-276347Y392085D01*
X-277273Y393011D01*
X-278199Y393937D01*
X-286532Y404121D01*
X-294864Y414305D01*
X-301345Y425415D01*
X-306900Y436525D01*
X-315232Y458745D01*
X-320787Y480965D01*
X-323565Y490223D01*
X-324491Y499481D01*
X-325416Y507814D01*
X-326342Y515220D01*
X-327268Y520775D01*
Y529108D01*
X-326342Y543921D01*
X-325416Y558734D01*
X-319861Y584658D01*
X-316158Y596693D01*
X-312455Y607803D01*
X-307826Y617988D01*
X-303196Y627246D01*
X-298567Y634653D01*
X-293938Y642059D01*
X-290235Y648540D01*
X-286532Y653169D01*
X-283754Y656872D01*
X-280977Y659650D01*
X-280051Y661502D01*
X-279125Y662427D01*
X-269867Y670760D01*
X-260608Y679092D01*
X-250424Y685573D01*
X-240240Y691128D01*
X-220798Y700386D01*
X-202281Y705941D01*
X-186542Y709645D01*
X-179135Y710571D01*
X-173580Y711496D01*
X-168025Y712422D01*
X-164322D01*
X-162470D01*
X-161545D01*
X-144880Y711496D01*
X-129140Y708719D01*
X-115253Y705016D01*
X-103217Y700386D01*
X-93959Y696683D01*
X-86552Y692980D01*
X-82849Y690202D01*
X-80997Y689276D01*
X-69887Y679092D01*
X-59703Y667982D01*
X-50445Y655947D01*
X-43038Y643911D01*
X-37483Y632801D01*
X-33780Y624468D01*
X-31928Y620765D01*
X-31002Y617988D01*
X-30077Y617062D01*
Y616136D01*
X-23596Y637430D01*
X-15263Y655021D01*
X-5079Y670760D01*
X4179Y683722D01*
X13437Y693906D01*
X20844Y701312D01*
X25473Y705016D01*
X26399Y706867D01*
X27325D01*
X43990Y717051D01*
X61581Y725384D01*
X78245Y730939D01*
X94910Y734642D01*
X109724Y736494D01*
X116204Y737420D01*
X121759D01*
X125463Y738345D01*
X129166D01*
X131018D01*
X131944D01*
X146757Y737420D01*
D02*
G37*
G36*
X46767Y242101D02*
X74542Y240249D01*
X100465Y237471D01*
X124537Y232842D01*
X145831Y228213D01*
X165273Y223584D01*
X182864Y218029D01*
X198603Y211548D01*
X211565Y205993D01*
X223601Y200438D01*
X232859Y195809D01*
X241192Y190254D01*
X247672Y186551D01*
X251376Y183773D01*
X254153Y181922D01*
X255079Y180996D01*
X268041Y168960D01*
X279151Y155998D01*
X288409Y143037D01*
X296741Y130075D01*
X304148Y116188D01*
X309703Y103226D01*
X314332Y90264D01*
X318035Y77303D01*
X320813Y66193D01*
X323590Y55083D01*
X325442Y45825D01*
X326368Y37492D01*
Y30086D01*
X327294Y25456D01*
Y20827D01*
X326368Y-467D01*
X322665Y-19909D01*
X318961Y-37500D01*
X313406Y-53239D01*
X308777Y-65275D01*
X304148Y-74533D01*
X303222Y-78237D01*
X301370Y-81014D01*
X300445Y-81940D01*
Y-82866D01*
X289335Y-98605D01*
X276373Y-113418D01*
X263411Y-125454D01*
X250450Y-135638D01*
X238414Y-143971D01*
X229156Y-149525D01*
X225452Y-151377D01*
X222675Y-153229D01*
X221749Y-154155D01*
X220823D01*
X201381Y-163413D01*
X181013Y-169894D01*
X162496Y-174523D01*
X144905Y-177300D01*
X130092Y-180078D01*
X124537D01*
X118982Y-181004D01*
X114353D01*
X111575D01*
X109724D01*
X108798D01*
X92133Y-180078D01*
X76394Y-178226D01*
X60655Y-175449D01*
X46767Y-172671D01*
X33806Y-168042D01*
X20844Y-163413D01*
X9734Y-158784D01*
X-450Y-153229D01*
X-9708Y-147674D01*
X-18041Y-143045D01*
X-24522Y-138416D01*
X-31002Y-133786D01*
X-35632Y-131009D01*
X-38409Y-128231D01*
X-40261Y-126380D01*
X-41187Y-125454D01*
X-51371Y-115270D01*
X-60629Y-104160D01*
X-68036Y-92124D01*
X-74516Y-81014D01*
X-80997Y-69904D01*
X-85626Y-58794D01*
X-92107Y-37500D01*
X-94885Y-28242D01*
X-96736Y-18983D01*
X-97662Y-11577D01*
X-98588Y-4170D01*
X-99514Y1385D01*
Y8791D01*
X-98588Y25456D01*
X-95811Y41195D01*
X-93033Y56009D01*
X-89330Y68970D01*
X-84701Y80080D01*
X-81923Y88413D01*
X-79146Y93968D01*
X-78220Y94894D01*
Y95819D01*
X-68962Y110633D01*
X-58777Y123594D01*
X-48593Y135630D01*
X-37483Y144888D01*
X-28225Y153221D01*
X-20818Y159702D01*
X-15263Y163405D01*
X-14338Y164331D01*
X-31002D01*
X-47667Y163405D01*
X-62481Y162479D01*
X-77294Y160628D01*
X-90256Y159702D01*
X-102291Y157850D01*
X-113401Y155998D01*
X-123585Y153221D01*
X-132844Y151369D01*
X-140250Y149518D01*
X-146731Y147666D01*
X-152286Y146740D01*
X-155990Y144888D01*
X-158767Y143963D01*
X-160619Y143037D01*
X-161545D01*
X-180061Y133778D01*
X-196726Y124520D01*
X-209688Y114336D01*
X-220798Y105078D01*
X-230056Y96745D01*
X-236537Y90264D01*
X-240240Y85635D01*
X-241166Y83784D01*
X-248573Y72674D01*
X-253202Y61564D01*
X-256905Y50454D01*
X-259682Y39344D01*
X-261534Y31011D01*
X-262460Y23605D01*
Y17124D01*
X-260608Y459D01*
X-256905Y-15280D01*
X-251350Y-28242D01*
X-245795Y-40278D01*
X-239314Y-49536D01*
X-233759Y-56017D01*
X-230056Y-59720D01*
X-228204Y-61572D01*
X-219872Y-68052D01*
X-209688Y-74533D01*
X-198578Y-80088D01*
X-187468Y-83792D01*
X-177284Y-87495D01*
X-168951Y-90272D01*
X-163396Y-91198D01*
X-162470Y-92124D01*
X-161545D01*
X-168025Y-170820D01*
X-193949Y-165265D01*
X-217094Y-156932D01*
X-237463Y-147674D01*
X-254128Y-137490D01*
X-267089Y-127306D01*
X-272644Y-123602D01*
X-277273Y-118973D01*
X-280051Y-116196D01*
X-282828Y-113418D01*
X-283754Y-112492D01*
X-284680Y-111566D01*
X-292087Y-102308D01*
X-298567Y-92124D01*
X-309677Y-71756D01*
X-317084Y-51388D01*
X-321713Y-31945D01*
X-325416Y-14354D01*
X-326342Y-6948D01*
Y-467D01*
X-327268Y5088D01*
Y12495D01*
X-326342Y31011D01*
X-324491Y48602D01*
X-320787Y65267D01*
X-316158Y81006D01*
X-309677Y94894D01*
X-304122Y108781D01*
X-296716Y120817D01*
X-290235Y131927D01*
X-283754Y141185D01*
X-276347Y150443D01*
X-270792Y157850D01*
X-265237Y163405D01*
X-259682Y168034D01*
X-255979Y171738D01*
X-254128Y173589D01*
X-253202Y174515D01*
X-236537Y186551D01*
X-217094Y196735D01*
X-196726Y205993D01*
X-175432Y214326D01*
X-153212Y220807D01*
X-130992Y226361D01*
X-107846Y230991D01*
X-86552Y234694D01*
X-65258Y237471D01*
X-45816Y239323D01*
X-28225Y241175D01*
X-13412Y242101D01*
X-450D01*
X8808Y243026D01*
X12512D01*
X15289D01*
X16215D01*
X17141D01*
X46767Y242101D01*
D02*
G37*
G36*
X163422Y-260625D02*
X177309Y-263403D01*
X203233Y-271735D01*
X225452Y-281919D01*
X235637Y-287474D01*
X243969Y-293029D01*
X252302Y-297658D01*
X259708Y-303213D01*
X265263Y-307842D01*
X269892Y-312472D01*
X273596Y-316175D01*
X277299Y-318027D01*
X278225Y-319878D01*
X279151Y-320804D01*
X287483Y-331914D01*
X294890Y-343024D01*
X301370Y-355060D01*
X306925Y-367096D01*
X315258Y-390241D01*
X320813Y-413387D01*
X323590Y-423571D01*
X324516Y-433755D01*
X325442Y-442088D01*
X326368Y-449494D01*
X327294Y-455975D01*
Y-464308D01*
X326368Y-483750D01*
X323590Y-502267D01*
X319887Y-519857D01*
X315258Y-535597D01*
X308777Y-550410D01*
X302296Y-564297D01*
X295816Y-577259D01*
X288409Y-588369D01*
X281002Y-598553D01*
X274521Y-607811D01*
X267115Y-615218D01*
X261560Y-621699D01*
X256931Y-626328D01*
X253227Y-630031D01*
X250450Y-631883D01*
X249524Y-632809D01*
X237488Y-642067D01*
X224527Y-649474D01*
X212491Y-656880D01*
X199529Y-662435D01*
X174532Y-671694D01*
X150460Y-677249D01*
X140276Y-679100D01*
X130092Y-680952D01*
X121759Y-681878D01*
X114353Y-682804D01*
X107872Y-683729D01*
X103243D01*
X100465D01*
X99540D01*
X82875Y-682804D01*
X67136Y-680952D01*
X51396Y-678174D01*
X37509Y-674471D01*
X24547Y-669842D01*
X11586Y-665213D01*
X476Y-659658D01*
X-9708Y-655029D01*
X-18967Y-649474D01*
X-27299Y-643919D01*
X-33780Y-639290D01*
X-40261Y-634660D01*
X-44890Y-630957D01*
X-47667Y-628180D01*
X-49519Y-626328D01*
X-50445Y-625402D01*
X-60629Y-614292D01*
X-69887Y-603182D01*
X-77294Y-591146D01*
X-83775Y-579111D01*
X-90256Y-567075D01*
X-94885Y-555039D01*
X-101366Y-532819D01*
X-104143Y-522635D01*
X-105995Y-513377D01*
X-106921Y-505044D01*
X-107846Y-497638D01*
X-108772Y-492083D01*
Y-471714D01*
X-106921Y-460604D01*
X-102291Y-438384D01*
X-95811Y-418016D01*
X-88404Y-399500D01*
X-80997Y-384686D01*
X-77294Y-378205D01*
X-74516Y-372651D01*
X-71739Y-368021D01*
X-69887Y-365244D01*
X-68962Y-363392D01*
X-68036Y-362466D01*
X-241166Y-396722D01*
Y-653177D01*
X-316158D01*
Y-334691D01*
X13437Y-272661D01*
X23621Y-346727D01*
X13437Y-353208D01*
X5105Y-361541D01*
X-3228Y-368947D01*
X-9708Y-376354D01*
X-14338Y-383760D01*
X-18967Y-389315D01*
X-20818Y-393019D01*
X-21744Y-393945D01*
X-27299Y-405980D01*
X-31928Y-418016D01*
X-34706Y-429126D01*
X-37483Y-440236D01*
X-38409Y-449494D01*
X-39335Y-456901D01*
Y-474492D01*
X-37483Y-485602D01*
X-32854Y-505044D01*
X-26373Y-521709D01*
X-19893Y-536522D01*
X-12486Y-547632D01*
X-6005Y-555965D01*
X-1376Y-560594D01*
X-450Y-562446D01*
X476D01*
X16215Y-575407D01*
X32880Y-584666D01*
X50471Y-591146D01*
X68061Y-595776D01*
X82875Y-598553D01*
X89355Y-599479D01*
X94910D01*
X99540Y-600405D01*
X103243D01*
X105095D01*
X106020D01*
X118982D01*
X131018Y-598553D01*
X154164Y-593924D01*
X173606Y-587443D01*
X189345Y-580962D01*
X202307Y-573556D01*
X212491Y-567075D01*
X215268Y-564297D01*
X218046Y-562446D01*
X218972Y-561520D01*
X219897Y-560594D01*
X227304Y-553187D01*
X233785Y-545781D01*
X244895Y-529116D01*
X252302Y-513377D01*
X256931Y-497638D01*
X260634Y-484676D01*
X261560Y-473566D01*
X262486Y-469863D01*
Y-464308D01*
X261560Y-446717D01*
X257856Y-430978D01*
X253227Y-417090D01*
X247672Y-405980D01*
X242117Y-395796D01*
X237488Y-388390D01*
X233785Y-384686D01*
X232859Y-382835D01*
X219897Y-371725D01*
X206010Y-362466D01*
X190271Y-355060D01*
X176383Y-349505D01*
X162496Y-345801D01*
X152312Y-343024D01*
X147683Y-342098D01*
X144905Y-341172D01*
X143054D01*
X142128D01*
X148609Y-258773D01*
X163422Y-260625D01*
D02*
G37*
G36*
X32880Y-757796D02*
X63432Y-759647D01*
X91207Y-762425D01*
X117130Y-767054D01*
X141202Y-771683D01*
X162496Y-777238D01*
X181938Y-782793D01*
X198603Y-788348D01*
X213417Y-793903D01*
X226378Y-800384D01*
X237488Y-805013D01*
X245821Y-809642D01*
X253227Y-814271D01*
X257856Y-817049D01*
X260634Y-818901D01*
X261560Y-819826D01*
X272670Y-830011D01*
X282854Y-841120D01*
X292112Y-853156D01*
X299519Y-865192D01*
X306000Y-877228D01*
X311555Y-889264D01*
X315258Y-901299D01*
X318961Y-912409D01*
X321739Y-923519D01*
X323590Y-933703D01*
X325442Y-942962D01*
X326368Y-950368D01*
X327294Y-956849D01*
Y-966108D01*
X325442Y-991105D01*
X321739Y-1014251D01*
X315258Y-1033693D01*
X308777Y-1050358D01*
X302296Y-1064246D01*
X298593Y-1068875D01*
X295816Y-1073504D01*
X293964Y-1077207D01*
X292112Y-1079985D01*
X290261Y-1080910D01*
Y-1081836D01*
X274521Y-1098501D01*
X257856Y-1112389D01*
X239340Y-1124424D01*
X222675Y-1133683D01*
X206936Y-1141089D01*
X200455Y-1144793D01*
X193974Y-1146644D01*
X189345Y-1148496D01*
X185642Y-1150348D01*
X183790Y-1151274D01*
X182864D01*
X168977Y-1155903D01*
X155089Y-1159606D01*
X125463Y-1165161D01*
X94910Y-1169790D01*
X65284Y-1172568D01*
X52322Y-1173493D01*
X40286Y-1174419D01*
X29176D01*
X18992Y-1175345D01*
X11586D01*
X5105D01*
X1402D01*
X476D01*
X-17115D01*
X-33780Y-1174419D01*
X-48593D01*
X-63407Y-1173493D01*
X-76368Y-1171642D01*
X-89330Y-1170716D01*
X-100440Y-1169790D01*
X-110624Y-1167938D01*
X-119882Y-1167013D01*
X-128215Y-1165161D01*
X-134695Y-1164235D01*
X-140250Y-1163309D01*
X-144880Y-1162384D01*
X-147657Y-1161458D01*
X-149509Y-1160532D01*
X-150435D01*
X-170803Y-1154977D01*
X-189319Y-1148496D01*
X-205059Y-1141089D01*
X-218946Y-1135534D01*
X-230982Y-1129054D01*
X-239314Y-1125350D01*
X-243943Y-1121647D01*
X-245795Y-1120721D01*
X-259682Y-1110537D01*
X-271718Y-1100353D01*
X-281902Y-1089243D01*
X-291161Y-1079059D01*
X-297642Y-1069801D01*
X-302271Y-1062394D01*
X-305048Y-1057765D01*
X-305974Y-1056839D01*
Y-1055913D01*
X-313381Y-1041100D01*
X-318010Y-1025361D01*
X-321713Y-1010547D01*
X-324491Y-996660D01*
X-326342Y-984624D01*
X-327268Y-974440D01*
Y-966108D01*
X-325416Y-941110D01*
X-321713Y-917964D01*
X-315232Y-898522D01*
X-308751Y-881857D01*
X-301345Y-867970D01*
X-298567Y-862415D01*
X-294864Y-857785D01*
X-293012Y-854082D01*
X-291161Y-851305D01*
X-289309Y-850379D01*
Y-849453D01*
X-274496Y-832788D01*
X-256905Y-818901D01*
X-239314Y-806865D01*
X-222649Y-797606D01*
X-206910Y-790200D01*
X-200429Y-786497D01*
X-193949Y-784645D01*
X-189319Y-782793D01*
X-185616Y-780942D01*
X-183764Y-780016D01*
X-182839D01*
X-168951Y-776312D01*
X-155064Y-772609D01*
X-124511Y-767054D01*
X-93959Y-762425D01*
X-65258Y-759647D01*
X-51371Y-758722D01*
X-39335Y-757796D01*
X-28225D01*
X-18041Y-756870D01*
X-10634D01*
X-4153D01*
X-450D01*
X476D01*
X32880Y-757796D01*
D02*
G37*
%LPC*%
G36*
X-161545Y631875D02*
X-162470D01*
X-163396D01*
X-178209Y630949D01*
X-191171Y627246D01*
X-203207Y622617D01*
X-213391Y617062D01*
X-221723Y612433D01*
X-228204Y607803D01*
X-231908Y604100D01*
X-232833Y603174D01*
X-243018Y591139D01*
X-250424Y579103D01*
X-255053Y566141D01*
X-258757Y554105D01*
X-260608Y542995D01*
X-262460Y534663D01*
Y527256D01*
X-261534Y511517D01*
X-257831Y496704D01*
X-253202Y484668D01*
X-247647Y473558D01*
X-242092Y465226D01*
X-237463Y458745D01*
X-233759Y454116D01*
X-232833Y453190D01*
X-220798Y443006D01*
X-208762Y435599D01*
X-196726Y430044D01*
X-185616Y426341D01*
X-175432Y424489D01*
X-167099Y422637D01*
X-161545D01*
X-160619D01*
X-159693D01*
X-144880Y423563D01*
X-130992Y427267D01*
X-118956Y431896D01*
X-108772Y437451D01*
X-100440Y443006D01*
X-94885Y447635D01*
X-90256Y451338D01*
X-89330Y452264D01*
X-80071Y463374D01*
X-72665Y476336D01*
X-68036Y488371D01*
X-64332Y500407D01*
X-62481Y511517D01*
X-61555Y519850D01*
X-60629Y525405D01*
Y527256D01*
X-61555Y543921D01*
X-65258Y558734D01*
X-69887Y571696D01*
X-75442Y582806D01*
X-80071Y591139D01*
X-84701Y597619D01*
X-88404Y602248D01*
X-89330Y603174D01*
X-100440Y612433D01*
X-113401Y619839D01*
X-125437Y624468D01*
X-137473Y628172D01*
X-147657Y630023D01*
X-155990Y630949D01*
X-161545Y631875D01*
D02*
G37*
G36*
X137499Y657798D02*
X133795D01*
X131944D01*
X112501Y655947D01*
X94910Y652243D01*
X79171Y646688D01*
X65284Y639282D01*
X55100Y632801D01*
X46767Y627246D01*
X42138Y623543D01*
X40286Y621691D01*
X28251Y607803D01*
X18992Y592064D01*
X12512Y577251D01*
X7882Y562438D01*
X5105Y549476D01*
X4179Y539292D01*
X3253Y535589D01*
Y530034D01*
X5105Y509665D01*
X8808Y491149D01*
X15289Y474484D01*
X21770Y460596D01*
X29176Y449487D01*
X35657Y441154D01*
X39361Y436525D01*
X41212Y434673D01*
X56026Y421712D01*
X71765Y412453D01*
X87504Y405973D01*
X101391Y401343D01*
X115279Y398566D01*
X125463Y397640D01*
X129166Y396714D01*
X131944D01*
X133795D01*
X134721D01*
X154164Y398566D01*
X172680Y402269D01*
X188419Y408750D01*
X201381Y415231D01*
X211565Y421712D01*
X219897Y428192D01*
X224527Y431896D01*
X226378Y433747D01*
X238414Y448561D01*
X247672Y463374D01*
X253227Y479113D01*
X257856Y493926D01*
X260634Y506888D01*
X261560Y517998D01*
X262486Y521701D01*
Y527256D01*
X261560Y540218D01*
X259708Y553179D01*
X256931Y565215D01*
X254153Y575399D01*
X251376Y583732D01*
X248598Y590213D01*
X246747Y593916D01*
X245821Y595768D01*
X238414Y606878D01*
X231007Y616136D01*
X222675Y624468D01*
X214342Y630949D01*
X207862Y636504D01*
X202307Y640208D01*
X197678Y642059D01*
X196752Y642985D01*
X184716Y647614D01*
X173606Y651317D01*
X162496Y654095D01*
X152312Y655947D01*
X143979Y656872D01*
X137499Y657798D01*
D02*
G37*
G36*
X115279Y152295D02*
X110650D01*
X108798D01*
X86578Y150443D01*
X67136Y146740D01*
X49545Y140259D01*
X35657Y133778D01*
X23621Y127298D01*
X15289Y120817D01*
X10660Y117114D01*
X8808Y115262D01*
X-4153Y100449D01*
X-13412Y85635D01*
X-20818Y69896D01*
X-25447Y56009D01*
X-28225Y43047D01*
X-29151Y33789D01*
X-30077Y30086D01*
Y24531D01*
X-28225Y5088D01*
X-23596Y-12503D01*
X-18041Y-27316D01*
X-10634Y-40278D01*
X-3228Y-50462D01*
X2327Y-57868D01*
X6957Y-62497D01*
X8808Y-64349D01*
X24547Y-76385D01*
X41212Y-85643D01*
X58803Y-92124D01*
X75468Y-95827D01*
X90281Y-98605D01*
X96762Y-99531D01*
X102317D01*
X106946Y-100456D01*
X110650D01*
X112501D01*
X113427D01*
X138424Y-98605D01*
X159719Y-94902D01*
X178235Y-89347D01*
X193974Y-82866D01*
X206010Y-75459D01*
X215268Y-69904D01*
X220823Y-66201D01*
X221749Y-64349D01*
X222675D01*
X230082Y-57868D01*
X235637Y-50462D01*
X245821Y-35648D01*
X252302Y-20835D01*
X257856Y-7873D01*
X260634Y4162D01*
X261560Y13421D01*
X262486Y17124D01*
Y21753D01*
X261560Y34715D01*
X259708Y46750D01*
X256005Y57860D01*
X252302Y67119D01*
X249524Y75451D01*
X245821Y81932D01*
X243969Y85635D01*
X243043Y87487D01*
X234711Y98597D01*
X226378Y107855D01*
X216194Y116188D01*
X207862Y122669D01*
X199529Y128224D01*
X193048Y131927D01*
X188419Y134704D01*
X186568Y135630D01*
X172680Y141185D01*
X158793Y144888D01*
X145831Y148592D01*
X133795Y150443D01*
X123611Y151369D01*
X115279Y152295D01*
D02*
G37*
G36*
X15289Y-837417D02*
X6957D01*
X2327D01*
X476D01*
X-28225Y-838343D01*
X-54148Y-839269D01*
X-78220Y-841120D01*
X-100440Y-843898D01*
X-119882Y-846675D01*
X-137473Y-850379D01*
X-153212Y-854082D01*
X-167099Y-857785D01*
X-179135Y-861489D01*
X-189319Y-864266D01*
X-197652Y-867970D01*
X-205059Y-870747D01*
X-209688Y-873525D01*
X-213391Y-875376D01*
X-215243Y-877228D01*
X-216168D01*
X-224501Y-883709D01*
X-231908Y-890189D01*
X-237463Y-897596D01*
X-243018Y-905003D01*
X-251350Y-919816D01*
X-256905Y-933703D01*
X-259682Y-945739D01*
X-261534Y-955923D01*
X-262460Y-959627D01*
Y-965182D01*
X-261534Y-975366D01*
X-260608Y-985550D01*
X-257831Y-994808D01*
X-254128Y-1003141D01*
X-245795Y-1018880D01*
X-236537Y-1032767D01*
X-226353Y-1042951D01*
X-218020Y-1051284D01*
X-214317Y-1054061D01*
X-211539Y-1055913D01*
X-210613Y-1057765D01*
X-209688D01*
X-198578Y-1064246D01*
X-185616Y-1069801D01*
X-170803Y-1075355D01*
X-155064Y-1079059D01*
X-138399Y-1082762D01*
X-120808Y-1085540D01*
X-85626Y-1090169D01*
X-68036Y-1092020D01*
X-52297Y-1092946D01*
X-37483Y-1093872D01*
X-25447D01*
X-14338Y-1094798D01*
X-6005D01*
X-1376D01*
X-450D01*
X476D01*
X29176D01*
X55100Y-1092946D01*
X78245Y-1091095D01*
X100465Y-1089243D01*
X118982Y-1086465D01*
X136573Y-1082762D01*
X151386Y-1079059D01*
X165273Y-1076281D01*
X176383Y-1072578D01*
X185642Y-1068875D01*
X193974Y-1066097D01*
X200455Y-1062394D01*
X205084Y-1060542D01*
X207862Y-1058691D01*
X209713Y-1056839D01*
X210639D01*
X219897Y-1049432D01*
X227304Y-1042026D01*
X234711Y-1034619D01*
X240266Y-1027212D01*
X249524Y-1011473D01*
X256005Y-997586D01*
X259708Y-984624D01*
X261560Y-975366D01*
X262486Y-971663D01*
Y-966108D01*
X261560Y-955923D01*
X260634Y-946665D01*
X254153Y-929074D01*
X245821Y-913335D01*
X236562Y-899448D01*
X227304Y-889264D01*
X218972Y-880931D01*
X212491Y-876302D01*
X211565Y-874450D01*
X210639D01*
X199529Y-867970D01*
X186568Y-862415D01*
X171754Y-856860D01*
X156015Y-853156D01*
X139350Y-849453D01*
X121759Y-846675D01*
X85652Y-842046D01*
X68987Y-840195D01*
X53248Y-839269D01*
X38435Y-838343D01*
X26399D01*
X15289Y-837417D01*
D02*
G37*
%LPD*%
D115*
X2312738Y-508000D02*
X2336000D01*
Y508000D01*
X1828000D02*
X2336000D01*
X1828000Y-508000D02*
Y508000D01*
Y-508000D02*
X2336000D01*
D116*
X33Y-2920983D02*
Y-1904984D01*
X16Y1905000D02*
Y2921000D01*
X-507984Y2413000D02*
X508016D01*
D117*
X-1032494Y-3900000D02*
Y3900000D01*
X-656442D01*
X-1032494Y-3900000D02*
X-656442D01*
X1032543Y-3899984D02*
Y3900016D01*
X656490Y-3899984D02*
X1032543D01*
X656491Y3900016D02*
X1032543Y3900016D01*
D118*
X-2100000Y2975000D02*
X-1700000D01*
Y3425000D01*
X-2100000D02*
X-1700000D01*
X-2100000Y2975000D02*
Y3425000D01*
Y3575000D02*
X-1700000D01*
Y4025000D01*
X-2100000D02*
X-1700000D01*
X-2100000Y3575000D02*
Y4025000D01*
%TF.MD5,2791491b8b6e8c0d26eefb0744ee043b*%
M02*
