%TF.GenerationSoftware,Altium Limited,Altium Designer,22.5.1 (42)*%
G04 Layer_Physical_Order=4*
G04 Layer_Color=15441517*
%FSLAX45Y45*%
%MOMM*%
%TF.SameCoordinates,B0F14D10-A82B-43C6-BF60-515EF57ECD05*%
%TF.FilePolarity,Positive*%
%TF.FileFunction,Copper,L4,Bot,Signal*%
%TF.Part,Single*%
G01*
G75*
%TA.AperFunction,Conductor*%
%ADD10C,0.50800*%
%ADD12C,0.12700*%
%TA.AperFunction,SMDPad,CuDef*%
%ADD14R,0.55000X0.60000*%
%ADD15R,0.60000X0.55000*%
%ADD19R,0.60000X0.60000*%
%TA.AperFunction,Conductor*%
%ADD80C,0.25400*%
%ADD81C,0.76200*%
%ADD82C,0.38100*%
%ADD83C,0.20320*%
%ADD84C,0.63500*%
%ADD88C,1.27000*%
%ADD89C,1.01600*%
%TA.AperFunction,ComponentPad*%
G04:AMPARAMS|DCode=93|XSize=2.032mm|YSize=2.032mm|CornerRadius=0.508mm|HoleSize=0mm|Usage=FLASHONLY|Rotation=270.000|XOffset=0mm|YOffset=0mm|HoleType=Round|Shape=RoundedRectangle|*
%AMROUNDEDRECTD93*
21,1,2.03200,1.01600,0,0,270.0*
21,1,1.01600,2.03200,0,0,270.0*
1,1,1.01600,-0.50800,-0.50800*
1,1,1.01600,-0.50800,0.50800*
1,1,1.01600,0.50800,0.50800*
1,1,1.01600,0.50800,-0.50800*
%
%ADD93ROUNDEDRECTD93*%
%ADD94C,2.03200*%
%ADD95C,4.00000*%
G04:AMPARAMS|DCode=96|XSize=2.2mm|YSize=1.2mm|CornerRadius=0.6mm|HoleSize=0mm|Usage=FLASHONLY|Rotation=180.000|XOffset=0mm|YOffset=0mm|HoleType=Round|Shape=RoundedRectangle|*
%AMROUNDEDRECTD96*
21,1,2.20000,0.00000,0,0,180.0*
21,1,1.00000,1.20000,0,0,180.0*
1,1,1.20000,-0.50000,0.00000*
1,1,1.20000,0.50000,0.00000*
1,1,1.20000,0.50000,0.00000*
1,1,1.20000,-0.50000,0.00000*
%
%ADD96ROUNDEDRECTD96*%
G04:AMPARAMS|DCode=97|XSize=2.2mm|YSize=1.2mm|CornerRadius=0.6mm|HoleSize=0mm|Usage=FLASHONLY|Rotation=270.000|XOffset=0mm|YOffset=0mm|HoleType=Round|Shape=RoundedRectangle|*
%AMROUNDEDRECTD97*
21,1,2.20000,0.00000,0,0,270.0*
21,1,1.00000,1.20000,0,0,270.0*
1,1,1.20000,0.00000,-0.50000*
1,1,1.20000,0.00000,0.50000*
1,1,1.20000,0.00000,0.50000*
1,1,1.20000,0.00000,-0.50000*
%
%ADD97ROUNDEDRECTD97*%
G04:AMPARAMS|DCode=98|XSize=2.2mm|YSize=2.2mm|CornerRadius=0.22mm|HoleSize=0mm|Usage=FLASHONLY|Rotation=270.000|XOffset=0mm|YOffset=0mm|HoleType=Round|Shape=RoundedRectangle|*
%AMROUNDEDRECTD98*
21,1,2.20000,1.76000,0,0,270.0*
21,1,1.76000,2.20000,0,0,270.0*
1,1,0.44000,-0.88000,-0.88000*
1,1,0.44000,-0.88000,0.88000*
1,1,0.44000,0.88000,0.88000*
1,1,0.44000,0.88000,-0.88000*
%
%ADD98ROUNDEDRECTD98*%
%ADD99C,1.10000*%
%ADD100C,0.65000*%
%TA.AperFunction,ViaPad*%
%ADD101C,6.50000*%
%ADD102C,0.66000*%
%ADD103C,0.46000*%
%TA.AperFunction,SMDPad,CuDef*%
%ADD106R,12.00000X7.30000*%
%ADD107R,1.60000X1.00000*%
%TA.AperFunction,Conductor*%
%ADD108R,3.00000X1.00000*%
%ADD109R,3.49934X1.68673*%
%ADD110R,2.91892X1.00000*%
%ADD111R,2.00000X2.00000*%
%ADD112R,1.85314X1.49862*%
%ADD113R,1.57503X2.50000*%
%ADD114R,2.00000X3.00000*%
G36*
X1723323Y5887542D02*
X1745056Y5878540D01*
X1763718Y5864219D01*
X1778039Y5845557D01*
X1787041Y5823824D01*
X1790045Y5801005D01*
X1789836Y5800501D01*
X1789837Y5250501D01*
X1789344D01*
X1794400Y5186260D01*
X1809443Y5123601D01*
X1834103Y5064067D01*
X1867773Y5009124D01*
X1909623Y4960124D01*
X1958623Y4918274D01*
X2013566Y4884604D01*
X2073101Y4859944D01*
X2135760Y4844901D01*
X2200000Y4839845D01*
Y4840338D01*
X2300000D01*
X2301122Y4840802D01*
X2353249Y4836700D01*
X2405186Y4824231D01*
X2454534Y4803790D01*
X2500076Y4775882D01*
X2540692Y4741193D01*
X2575381Y4700577D01*
X2603289Y4655035D01*
X2623730Y4605687D01*
X2636199Y4553750D01*
X2639404Y4513022D01*
X2639836Y4500501D01*
D01*
X2639837Y4487833D01*
Y-4486831D01*
X2639836Y-4499498D01*
X2639836D01*
X2639404Y-4512020D01*
X2636199Y-4552747D01*
X2623730Y-4604685D01*
X2603289Y-4654032D01*
X2575381Y-4699575D01*
X2540692Y-4740190D01*
X2500076Y-4774880D01*
X2454534Y-4802788D01*
X2405186Y-4823228D01*
X2353249Y-4835697D01*
X2301122Y-4839800D01*
X2300000Y-4839335D01*
X2200000D01*
Y-4838843D01*
X2135760Y-4843899D01*
X2073101Y-4858942D01*
X2013566Y-4883602D01*
X1958623Y-4917271D01*
X1909623Y-4959121D01*
X1867773Y-5008121D01*
X1834103Y-5063065D01*
X1809443Y-5122599D01*
X1794400Y-5185258D01*
X1789344Y-5249499D01*
X1789837D01*
X1789836Y-5799499D01*
X1790045Y-5800002D01*
X1787041Y-5822821D01*
X1778039Y-5844554D01*
X1763718Y-5863217D01*
X1745056Y-5877537D01*
X1723323Y-5886540D01*
X1700504Y-5889544D01*
X1700000Y-5889335D01*
X-1300000D01*
X-1300503Y-5889544D01*
X-1323322Y-5886540D01*
X-1345055Y-5877537D01*
X-1363718Y-5863217D01*
X-1378038Y-5844554D01*
X-1387041Y-5822821D01*
X-1390045Y-5800002D01*
X-1389836Y-5799499D01*
X-1389837Y-5262199D01*
X-1389344Y-5249499D01*
X-1389344D01*
X-1394400Y-5185258D01*
X-1409443Y-5122599D01*
X-1434103Y-5063065D01*
X-1467773Y-5008121D01*
X-1509623Y-4959121D01*
X-1558622Y-4917271D01*
X-1613566Y-4883602D01*
X-1673100Y-4858942D01*
X-1735759Y-4843899D01*
X-1800000Y-4838843D01*
Y-4839335D01*
X-2100000D01*
X-2101122Y-4839800D01*
X-2153248Y-4835697D01*
X-2205186Y-4823228D01*
X-2254533Y-4802788D01*
X-2300076Y-4774880D01*
X-2340692Y-4740190D01*
X-2375381Y-4699575D01*
X-2403289Y-4654032D01*
X-2423729Y-4604685D01*
X-2436199Y-4552747D01*
X-2440301Y-4500621D01*
X-2439836Y-4499499D01*
X-2439836Y4500501D01*
X-2440301Y4501623D01*
X-2436199Y4553750D01*
X-2423729Y4605687D01*
X-2403289Y4655035D01*
X-2375381Y4700577D01*
X-2340692Y4741193D01*
X-2300076Y4775882D01*
X-2254533Y4803790D01*
X-2205186Y4824231D01*
X-2153248Y4836700D01*
X-2101122Y4840802D01*
X-2100000Y4840338D01*
X-1800000D01*
Y4839845D01*
X-1735759Y4844901D01*
X-1673100Y4859944D01*
X-1613566Y4884604D01*
X-1558622Y4918274D01*
X-1509623Y4960124D01*
X-1467773Y5009124D01*
X-1434103Y5064067D01*
X-1409443Y5123601D01*
X-1394400Y5186260D01*
X-1389344Y5250501D01*
X-1389836D01*
Y5800501D01*
X-1390045Y5801004D01*
X-1387041Y5823824D01*
X-1378038Y5845557D01*
X-1363718Y5864219D01*
X-1345055Y5878540D01*
X-1323322Y5887542D01*
X-1300503Y5890546D01*
X-1300000Y5890337D01*
X1700000D01*
X1700504Y5890546D01*
X1723323Y5887542D01*
D02*
G37*
%LPC*%
G36*
X-441667Y5391890D02*
X-458332D01*
X-473729Y5385512D01*
X-485512Y5373729D01*
X-491890Y5358332D01*
Y5341667D01*
X-485512Y5326271D01*
X-473729Y5314487D01*
X-458332Y5308110D01*
X-441667D01*
X-426271Y5314487D01*
X-414487Y5326271D01*
X-408110Y5341667D01*
Y5358332D01*
X-414487Y5373729D01*
X-426271Y5385512D01*
X-441667Y5391890D01*
D02*
G37*
G36*
X-1091668Y5341890D02*
X-1108333D01*
X-1123729Y5335513D01*
X-1135513Y5323729D01*
X-1141890Y5308333D01*
Y5291668D01*
X-1135513Y5276271D01*
X-1123729Y5264488D01*
X-1108333Y5258110D01*
X-1091668D01*
X-1076271Y5264488D01*
X-1064488Y5276271D01*
X-1058110Y5291668D01*
Y5308333D01*
X-1064488Y5323729D01*
X-1076271Y5335513D01*
X-1091668Y5341890D01*
D02*
G37*
G36*
X-600549Y5151080D02*
X-613236D01*
X-624957Y5146225D01*
X-633928Y5137254D01*
X-638783Y5125534D01*
X-650854D01*
X-655709Y5137254D01*
X-664679Y5146225D01*
X-676400Y5151080D01*
X-689087D01*
X-700808Y5146225D01*
X-709779Y5137254D01*
X-714633Y5125534D01*
X-726705D01*
X-731559Y5137254D01*
X-740530Y5146225D01*
X-752251Y5151080D01*
X-764938D01*
X-776659Y5146225D01*
X-785629Y5137254D01*
X-790484Y5125534D01*
X-802555D01*
X-807410Y5137254D01*
X-816381Y5146225D01*
X-828102Y5151080D01*
X-840789D01*
X-852509Y5146225D01*
X-861480Y5137254D01*
X-866335Y5125534D01*
Y5112847D01*
X-861480Y5101126D01*
X-852509Y5092155D01*
X-850941Y5091505D01*
Y4935972D01*
X-913993Y4872919D01*
X-918825Y4861255D01*
Y4696734D01*
Y3541136D01*
X-913993Y3529472D01*
X-902175Y3517654D01*
Y3487334D01*
X-897343Y3475670D01*
X-366496Y2944822D01*
Y2150000D01*
X-361664Y2138336D01*
X-310632Y2087304D01*
X-298968Y2082472D01*
X-182060D01*
X-170944Y2071356D01*
X-175804Y2059623D01*
X-393781D01*
X-400000Y2060859D01*
X-488689D01*
X-488691Y2060860D01*
X-511981Y2056227D01*
X-531725Y2043034D01*
X-685867Y1888892D01*
X-696634Y1896086D01*
X-694322Y1901668D01*
Y1918332D01*
X-700699Y1933729D01*
X-712483Y1945512D01*
X-727879Y1951890D01*
X-744544D01*
X-759940Y1945512D01*
X-771724Y1933729D01*
X-778102Y1918332D01*
Y1901668D01*
X-771724Y1886271D01*
X-763924Y1878471D01*
X-769184Y1865771D01*
X-1395087D01*
X-1395089Y1865771D01*
X-1418379Y1861138D01*
X-1438123Y1847946D01*
X-1438123Y1847945D01*
X-1613734Y1672334D01*
X-2328564Y2387164D01*
Y3190572D01*
X-2328110Y3191667D01*
Y3208332D01*
X-2334488Y3223729D01*
X-2346272Y3235512D01*
X-2361668Y3241890D01*
X-2378333D01*
X-2393729Y3235512D01*
X-2405513Y3223729D01*
X-2411890Y3208332D01*
Y3191667D01*
X-2411437Y3190572D01*
Y2370000D01*
X-2408282Y2354143D01*
X-2399300Y2340700D01*
X-1672334Y1613734D01*
X-2049152Y1236916D01*
X-2062345Y1217172D01*
X-2066978Y1193882D01*
X-2066977Y1193881D01*
Y677300D01*
X-2066978Y677299D01*
X-2062345Y654009D01*
X-2049152Y634265D01*
X-1936723Y521835D01*
Y-124135D01*
X-1936723Y-124137D01*
X-1932090Y-147427D01*
X-1918897Y-167171D01*
X-1509623Y-576445D01*
Y-700000D01*
X-1506804Y-706804D01*
X-1500000Y-709623D01*
X-1300000D01*
X-1293196Y-706804D01*
X-1290377Y-700000D01*
Y-500000D01*
X-1293196Y-493196D01*
X-1300000Y-490377D01*
X-1423554D01*
X-1815004Y-98928D01*
Y-53056D01*
X-1802304Y-47795D01*
X-1798064Y-52035D01*
X-1786343Y-56890D01*
X-1773656D01*
X-1761936Y-52035D01*
X-1752965Y-43064D01*
X-1748110Y-31343D01*
Y-18657D01*
X-1752965Y-6936D01*
X-1760577Y676D01*
Y49324D01*
X-1752965Y56936D01*
X-1748110Y68657D01*
Y81343D01*
X-1752965Y93064D01*
X-1761936Y102035D01*
X-1773656Y106890D01*
X-1786343D01*
X-1798064Y102035D01*
X-1802304Y97795D01*
X-1815004Y103056D01*
Y547043D01*
X-1815003Y547044D01*
X-1819636Y570334D01*
X-1832829Y590078D01*
X-1832830Y590079D01*
X-1945258Y702508D01*
Y1168673D01*
X-1556967Y1556965D01*
X-1556966Y1556966D01*
X-1369880Y1744052D01*
X-733150D01*
X-727889Y1731352D01*
X-735513Y1723729D01*
X-741890Y1708332D01*
Y1691667D01*
X-735513Y1676271D01*
X-723729Y1664487D01*
X-708333Y1658110D01*
X-691668D01*
X-676271Y1664487D01*
X-664488Y1676271D01*
X-658110Y1691667D01*
Y1708332D01*
X-664488Y1723729D01*
X-673839Y1733080D01*
X-672340Y1743503D01*
X-670799Y1746634D01*
X-660489Y1748685D01*
X-640745Y1761877D01*
X-463482Y1939141D01*
X-400000D01*
X-393783Y1940377D01*
X-175912D01*
X-170651Y1927677D01*
X-184435Y1913894D01*
X-191668Y1916889D01*
X-208333D01*
X-223729Y1910512D01*
X-235513Y1898728D01*
X-241890Y1883332D01*
Y1866667D01*
X-235513Y1851271D01*
X-223729Y1839487D01*
X-208333Y1833110D01*
X-191668D01*
X-176272Y1839487D01*
X-164488Y1851271D01*
X-158110Y1866667D01*
Y1883332D01*
X-161106Y1890565D01*
X-125657Y1926014D01*
X-120826Y1937679D01*
Y2061062D01*
X-125657Y2072726D01*
X-163563Y2110632D01*
X-175227Y2115464D01*
X-292136D01*
X-333504Y2156833D01*
Y2931158D01*
X-321771Y2936019D01*
X-166496Y2780743D01*
Y2238508D01*
X-173729Y2235512D01*
X-185512Y2223729D01*
X-191890Y2208332D01*
Y2191667D01*
X-185512Y2176271D01*
X-173729Y2164487D01*
X-158332Y2158110D01*
X-141667D01*
X-126271Y2164487D01*
X-114487Y2176271D01*
X-108110Y2191667D01*
Y2208332D01*
X-114487Y2223729D01*
X-126271Y2235512D01*
X-133504Y2238508D01*
Y2787576D01*
X-138336Y2799240D01*
X-843783Y3504687D01*
Y3535007D01*
X-848615Y3546671D01*
X-860433Y3558490D01*
Y4492124D01*
X-847733Y4499070D01*
X-841222Y4496373D01*
X-828536D01*
X-816815Y4501228D01*
X-807844Y4510199D01*
X-802989Y4521920D01*
Y4534606D01*
X-807844Y4546327D01*
X-816815Y4555298D01*
X-828536Y4560153D01*
X-841222D01*
X-847733Y4557456D01*
X-860433Y4564402D01*
Y4679381D01*
X-842791Y4697023D01*
X-841222Y4696373D01*
X-828536D01*
X-816815Y4701228D01*
X-807844Y4710199D01*
X-802989Y4721920D01*
Y4734606D01*
X-807844Y4746327D01*
X-816815Y4755298D01*
X-828536Y4760153D01*
X-841222D01*
X-852943Y4755298D01*
X-861914Y4746327D01*
X-866769Y4734606D01*
Y4721920D01*
X-866566Y4721431D01*
X-874806Y4713191D01*
X-885833Y4717758D01*
Y4854422D01*
X-822781Y4917474D01*
X-817949Y4929139D01*
Y5091505D01*
X-816381Y5092155D01*
X-807410Y5101126D01*
X-802555Y5112846D01*
X-790484D01*
X-785629Y5101126D01*
X-776659Y5092155D01*
X-764938Y5087300D01*
X-752251D01*
X-740530Y5092155D01*
X-731559Y5101126D01*
X-726705Y5112846D01*
X-714633D01*
X-709779Y5101126D01*
X-700808Y5092155D01*
X-689087Y5087300D01*
X-676400D01*
X-664679Y5092155D01*
X-655709Y5101126D01*
X-650854Y5112846D01*
X-638783D01*
X-633928Y5101126D01*
X-624957Y5092155D01*
X-613236Y5087300D01*
X-600549D01*
X-588829Y5092155D01*
X-579858Y5101126D01*
X-575003Y5112847D01*
Y5125534D01*
X-579858Y5137254D01*
X-588829Y5146225D01*
X-600549Y5151080D01*
D02*
G37*
G36*
X-1141667Y5191890D02*
X-1158332D01*
X-1173728Y5185512D01*
X-1185512Y5173729D01*
X-1191890Y5158332D01*
Y5141667D01*
X-1185512Y5126271D01*
X-1173728Y5114487D01*
X-1158332Y5108110D01*
X-1141667D01*
X-1126271Y5114487D01*
X-1114487Y5126271D01*
X-1108110Y5141667D01*
Y5158332D01*
X-1114487Y5173729D01*
X-1126271Y5185512D01*
X-1141667Y5191890D01*
D02*
G37*
G36*
X-891668Y5341890D02*
X-908332D01*
X-923729Y5335513D01*
X-935512Y5323729D01*
X-941890Y5308333D01*
Y5307554D01*
X-1001242Y5248202D01*
X-1008820Y5236860D01*
X-1011482Y5223480D01*
Y4837962D01*
X-1114482Y4734962D01*
X-1349999D01*
X-1350000Y4734962D01*
X-1363379Y4732300D01*
X-1374722Y4724722D01*
X-1474722Y4624722D01*
X-1482301Y4613379D01*
X-1484962Y4600000D01*
Y4236390D01*
X-1488890D01*
Y4163610D01*
X-1478488D01*
Y4145799D01*
X-1478488Y4145798D01*
X-1476319Y4134896D01*
X-1470144Y4125654D01*
X-1443991Y4099501D01*
Y4089566D01*
X-1437614Y4074170D01*
X-1429538Y4066094D01*
Y3988890D01*
X-1436390D01*
Y3911110D01*
X-1363610D01*
Y3988890D01*
X-1372563D01*
Y4068196D01*
X-1366589Y4074170D01*
X-1360211Y4089566D01*
Y4106231D01*
X-1366589Y4121627D01*
X-1378373Y4133411D01*
X-1393769Y4139789D01*
X-1403704D01*
X-1414825Y4150910D01*
X-1411110Y4163610D01*
X-1411110D01*
Y4236390D01*
X-1415039D01*
Y4585518D01*
X-1335518Y4665038D01*
X-1100000D01*
X-1086621Y4667700D01*
X-1075278Y4675278D01*
X-951798Y4798758D01*
X-944219Y4810101D01*
X-941558Y4823480D01*
Y5208998D01*
X-892447Y5258110D01*
X-891668D01*
X-876271Y5264488D01*
X-875721Y5265038D01*
X-574809D01*
X-534962Y5225192D01*
Y5092660D01*
X-532300Y5079280D01*
X-524722Y5067938D01*
X-382062Y4925278D01*
X-370720Y4917700D01*
X-357340Y4915038D01*
X-164482D01*
X-108650Y4859206D01*
Y4820706D01*
X-114551Y4817111D01*
X-121350Y4814544D01*
X-131531Y4818762D01*
X-144218D01*
X-155939Y4813907D01*
X-164910Y4804936D01*
X-169765Y4793215D01*
Y4780528D01*
X-164910Y4768808D01*
X-155939Y4759837D01*
X-154371Y4759187D01*
Y4732246D01*
X-447304Y4439312D01*
X-511315D01*
X-522979Y4434481D01*
X-636674Y4320786D01*
X-641506Y4309122D01*
Y3502076D01*
X-636674Y3490412D01*
X149188Y2704550D01*
Y1637545D01*
X-296870Y1191486D01*
X-875009D01*
X-886674Y1186655D01*
X-1061664Y1011664D01*
X-1066496Y1000000D01*
Y618508D01*
X-1073729Y615512D01*
X-1085513Y603728D01*
X-1091890Y588332D01*
Y571667D01*
X-1085513Y556271D01*
X-1073729Y544487D01*
X-1058333Y538110D01*
X-1041668D01*
X-1026272Y544487D01*
X-1014488Y556271D01*
X-1008110Y571667D01*
Y588332D01*
X-1014488Y603728D01*
X-1026272Y615512D01*
X-1033504Y618508D01*
Y993167D01*
X-868177Y1158495D01*
X-290038D01*
X-278374Y1163326D01*
X177348Y1619048D01*
X182180Y1630712D01*
Y1987619D01*
X194880Y1992498D01*
X200000Y1990378D01*
X276985D01*
Y1679647D01*
X-523714Y878947D01*
X-535318Y863826D01*
X-542612Y846216D01*
X-545100Y827318D01*
Y-297671D01*
X-732997Y-485568D01*
X-908583D01*
X-927480Y-488056D01*
X-945090Y-495350D01*
X-960212Y-506954D01*
X-993635Y-540377D01*
X-1100000D01*
X-1106804Y-543196D01*
X-1206804Y-643196D01*
X-1209622Y-650000D01*
Y-710179D01*
X-1924722Y-1425278D01*
X-1932300Y-1436621D01*
X-1934962Y-1450000D01*
Y-2935518D01*
X-2074722Y-3075278D01*
X-2082300Y-3086620D01*
X-2084962Y-3100000D01*
Y-3350000D01*
X-2082300Y-3363380D01*
X-2074722Y-3374722D01*
X-1884961Y-3564482D01*
Y-3625721D01*
X-1885512Y-3626272D01*
X-1891890Y-3641668D01*
Y-3658333D01*
X-1885512Y-3673729D01*
X-1873728Y-3685513D01*
X-1858332Y-3691890D01*
X-1841667D01*
X-1826271Y-3685513D01*
X-1814487Y-3673729D01*
X-1808110Y-3658333D01*
Y-3641668D01*
X-1814487Y-3626272D01*
X-1815038Y-3625721D01*
Y-3550001D01*
X-1817699Y-3536621D01*
X-1825278Y-3525279D01*
X-2015038Y-3335518D01*
Y-3114482D01*
X-1875278Y-2974722D01*
X-1867700Y-2963379D01*
X-1865038Y-2950000D01*
Y-1464482D01*
X-1160179Y-759623D01*
X-900000D01*
X-893196Y-756804D01*
X-890377Y-750000D01*
Y-643636D01*
X-878339Y-631597D01*
X-702753D01*
X-683856Y-629110D01*
X-666246Y-621815D01*
X-651124Y-610212D01*
X-420456Y-379544D01*
X-410715Y-366849D01*
X-400593Y-368809D01*
X-398015Y-370178D01*
Y-375000D01*
X-395527Y-393897D01*
X-388233Y-411507D01*
X-376629Y-426629D01*
X-223015Y-580243D01*
Y-1090378D01*
X-227500D01*
X-234304Y-1093196D01*
X-237122Y-1100000D01*
Y-1151639D01*
X-299157D01*
X-327425Y-1123371D01*
X-342547Y-1111767D01*
X-360157Y-1104473D01*
X-379054Y-1101985D01*
X-1125000D01*
X-1143898Y-1104473D01*
X-1161507Y-1111767D01*
X-1176629Y-1123371D01*
X-1751629Y-1698370D01*
X-1760958Y-1690208D01*
X-1758110Y-1683332D01*
Y-1666667D01*
X-1764487Y-1651271D01*
X-1776271Y-1639487D01*
X-1791667Y-1633110D01*
X-1808332D01*
X-1823729Y-1639487D01*
X-1835512Y-1651271D01*
X-1841890Y-1666667D01*
Y-1683332D01*
X-1835512Y-1698729D01*
X-1823729Y-1710512D01*
X-1808332Y-1716890D01*
X-1791667D01*
X-1776271Y-1710512D01*
X-1775372Y-1709613D01*
X-1764606Y-1716807D01*
X-1770527Y-1731102D01*
X-1773014Y-1750000D01*
Y-2340378D01*
X-1800000D01*
X-1806804Y-2343196D01*
X-1809622Y-2350000D01*
Y-2650000D01*
X-1806804Y-2656804D01*
X-1800000Y-2659623D01*
X-1600000D01*
X-1593196Y-2656804D01*
X-1590378Y-2650000D01*
Y-2573015D01*
X-1530279D01*
X-844537Y-3258757D01*
X-829415Y-3270360D01*
X-811805Y-3277655D01*
X-792908Y-3280143D01*
X772480D01*
X965249Y-3472912D01*
Y-3927568D01*
X967736Y-3946466D01*
X975031Y-3964075D01*
X986634Y-3979197D01*
X1252848Y-4245410D01*
X1247587Y-4258110D01*
X1241667D01*
X1226271Y-4264488D01*
X1214487Y-4276272D01*
X1208110Y-4291668D01*
Y-4308333D01*
X1214487Y-4323729D01*
X1226271Y-4335513D01*
X1231782Y-4337795D01*
Y-4351542D01*
X1226271Y-4353824D01*
X1214487Y-4365608D01*
X1208110Y-4381004D01*
Y-4397669D01*
X1214487Y-4413066D01*
X1226271Y-4424849D01*
X1231782Y-4427132D01*
Y-4440879D01*
X1226271Y-4443161D01*
X1214487Y-4454945D01*
X1208110Y-4470341D01*
Y-4487006D01*
X1214487Y-4502402D01*
X1226271Y-4514186D01*
X1241667Y-4520563D01*
X1258332D01*
X1273728Y-4514186D01*
X1285512Y-4502402D01*
X1291890Y-4487006D01*
Y-4470341D01*
X1285512Y-4454945D01*
X1273728Y-4443161D01*
X1268218Y-4440879D01*
Y-4427132D01*
X1273728Y-4424849D01*
X1285512Y-4413066D01*
X1291890Y-4397669D01*
Y-4381004D01*
X1285512Y-4365608D01*
X1273728Y-4353824D01*
X1268218Y-4351542D01*
Y-4337795D01*
X1273728Y-4335513D01*
X1285512Y-4323729D01*
X1291890Y-4308333D01*
Y-4302413D01*
X1304590Y-4297152D01*
X1343502Y-4336065D01*
Y-4569756D01*
X1261096Y-4652162D01*
X1116175D01*
X1097278Y-4654650D01*
X1079668Y-4661944D01*
X1064546Y-4673547D01*
X992204Y-4745890D01*
X980601Y-4761011D01*
X973307Y-4778621D01*
X971162Y-4794911D01*
X708894D01*
X708344Y-4794360D01*
X692947Y-4787983D01*
X692169D01*
X519961Y-4615776D01*
Y-4504280D01*
X520512Y-4503729D01*
X526890Y-4488333D01*
Y-4471668D01*
X520512Y-4456272D01*
X508728Y-4444488D01*
X493332Y-4438110D01*
X476667D01*
X461271Y-4444488D01*
X460720Y-4445038D01*
X144482D01*
X74722Y-4375278D01*
X63379Y-4367700D01*
X50000Y-4365038D01*
X-140377D01*
Y-4350000D01*
X-143196Y-4343196D01*
X-150000Y-4340377D01*
X-450000D01*
X-456804Y-4343196D01*
X-459623Y-4350000D01*
Y-4450000D01*
X-456804Y-4456804D01*
X-450000Y-4459623D01*
X-150000D01*
X-143196Y-4456804D01*
X-140377Y-4450000D01*
Y-4434962D01*
X35518D01*
X105278Y-4504722D01*
X116621Y-4512301D01*
X130000Y-4514962D01*
X450038D01*
Y-4630257D01*
X452699Y-4643637D01*
X460278Y-4654979D01*
X635171Y-4829873D01*
X425278Y-5039766D01*
X417699Y-5051109D01*
X415038Y-5064488D01*
Y-5350721D01*
X414487Y-5351271D01*
X408110Y-5366668D01*
Y-5383333D01*
X414487Y-5398729D01*
X426271Y-5410513D01*
X441667Y-5416890D01*
X458332D01*
X473728Y-5410513D01*
X485512Y-5398729D01*
X491890Y-5383333D01*
Y-5366668D01*
X485512Y-5351271D01*
X484961Y-5350721D01*
Y-5078970D01*
X692168Y-4871763D01*
X692947D01*
X708344Y-4865385D01*
X708894Y-4864835D01*
X970819D01*
Y-4923845D01*
X973307Y-4942743D01*
X980601Y-4960353D01*
X992204Y-4975474D01*
X1033368Y-5016638D01*
X1048490Y-5028242D01*
X1066100Y-5035536D01*
X1084997Y-5038024D01*
X1103895Y-5035536D01*
X1121505Y-5028242D01*
X1136626Y-5016638D01*
X1148230Y-5001517D01*
X1155524Y-4983907D01*
X1158012Y-4965009D01*
X1155524Y-4946112D01*
X1148230Y-4928502D01*
X1136626Y-4913380D01*
X1116848Y-4893602D01*
Y-4827762D01*
X1146419Y-4798191D01*
X1201785D01*
X1204311Y-4810891D01*
X1198410Y-4813336D01*
X1187762Y-4823984D01*
X1180529Y-4820988D01*
X1163864D01*
X1148468Y-4827365D01*
X1136684Y-4839149D01*
X1130307Y-4854545D01*
Y-4871210D01*
X1136684Y-4886606D01*
X1148468Y-4898390D01*
X1163864Y-4904767D01*
X1180529D01*
X1195925Y-4898390D01*
X1208110Y-4904166D01*
Y-4908333D01*
X1214487Y-4923729D01*
X1226271Y-4935513D01*
X1241667Y-4941890D01*
X1258332D01*
X1273728Y-4935513D01*
X1285512Y-4923729D01*
X1288508Y-4916496D01*
X1598510D01*
X1610175Y-4911664D01*
X1780126Y-4741713D01*
X1784957Y-4730049D01*
Y-4443224D01*
X2110024Y-4118157D01*
X2114856Y-4106493D01*
Y-3575996D01*
X2581130Y-3109721D01*
X2585962Y-3098057D01*
Y-2640701D01*
X2581130Y-2629036D01*
X1944398Y-1992305D01*
Y-828104D01*
X1939567Y-816440D01*
X1867850Y-744723D01*
X1876272Y-735512D01*
X1891668Y-741889D01*
X1908333D01*
X1923729Y-735512D01*
X1935513Y-723728D01*
X1941890Y-708332D01*
Y-691667D01*
X1935513Y-676270D01*
X1923729Y-664487D01*
X1908333Y-658109D01*
X1891668D01*
X1876272Y-664487D01*
X1864488Y-676270D01*
X1858111Y-691667D01*
Y-708332D01*
X1864488Y-723728D01*
X1855276Y-732150D01*
X1810042Y-686915D01*
Y2006454D01*
X1805210Y2018119D01*
X1699441Y2123888D01*
Y3092055D01*
X1694610Y3103719D01*
X1463894Y3334435D01*
X1466890Y3341667D01*
Y3358332D01*
X1460512Y3373729D01*
X1448729Y3385512D01*
X1433332Y3391890D01*
X1416667D01*
X1401271Y3385512D01*
X1389487Y3373729D01*
X1386261Y3365940D01*
X1374169Y3360703D01*
X1371667Y3361367D01*
X1358333Y3366890D01*
X1341668D01*
X1326271Y3360512D01*
X1314488Y3348729D01*
X1308110Y3333332D01*
Y3316667D01*
X1308262Y3316301D01*
X1299488Y3306189D01*
X1282823D01*
X1267427Y3299812D01*
X1255643Y3288028D01*
X1249266Y3272632D01*
Y3255967D01*
X1255643Y3240570D01*
X1267427Y3228787D01*
X1282823Y3222409D01*
X1299488D01*
X1314884Y3228787D01*
X1320804Y3234707D01*
X1333504Y3229446D01*
Y3199152D01*
X1320804Y3193891D01*
X1314884Y3199811D01*
X1299488Y3206189D01*
X1282823D01*
X1267427Y3199811D01*
X1255643Y3188028D01*
X1249265Y3172631D01*
Y3155967D01*
X1255643Y3140570D01*
X1267427Y3128786D01*
X1282823Y3122409D01*
X1299488D01*
X1314884Y3128786D01*
X1320804Y3134707D01*
X1333504Y3129446D01*
Y1600000D01*
X1338336Y1588336D01*
X1558504Y1368167D01*
Y-700000D01*
X1563336Y-711664D01*
X1833504Y-981833D01*
Y-2050000D01*
X1838336Y-2061664D01*
X2490517Y-2713845D01*
Y-3036155D01*
X1988336Y-3538336D01*
X1983504Y-3550000D01*
Y-4068167D01*
X1613336Y-4438336D01*
X1608504Y-4450000D01*
Y-4643167D01*
X1543167Y-4708504D01*
X1450000D01*
X1438335Y-4713336D01*
X1343167Y-4808504D01*
X1310306D01*
X1309473Y-4795804D01*
X1310237Y-4795704D01*
X1327847Y-4788409D01*
X1342969Y-4776806D01*
X1468146Y-4651629D01*
X1479749Y-4636507D01*
X1487044Y-4618897D01*
X1489531Y-4600000D01*
Y-4305821D01*
X1487043Y-4286924D01*
X1479749Y-4269314D01*
X1468146Y-4254192D01*
X1111278Y-3897324D01*
Y-3442668D01*
X1108790Y-3423771D01*
X1101496Y-3406161D01*
X1089892Y-3391039D01*
X854352Y-3155499D01*
X839230Y-3143895D01*
X821621Y-3136601D01*
X802723Y-3134113D01*
X726603D01*
X721342Y-3121413D01*
X794845Y-3047911D01*
X1205065D01*
X1391132Y-3233977D01*
X1406675Y-3244363D01*
X1425010Y-3248010D01*
X1792236D01*
X1810570Y-3244363D01*
X1826113Y-3233977D01*
X2212180Y-2847910D01*
X2350000D01*
X2368335Y-2844264D01*
X2383878Y-2833878D01*
X2394264Y-2818334D01*
X2397911Y-2800000D01*
X2394264Y-2781666D01*
X2383878Y-2766122D01*
X2368335Y-2755736D01*
X2350000Y-2752089D01*
X2192335D01*
X2174000Y-2755736D01*
X2158457Y-2766122D01*
X1772391Y-3152189D01*
X1444855D01*
X1258788Y-2966122D01*
X1243245Y-2955737D01*
X1224910Y-2952090D01*
X775000D01*
X756665Y-2955737D01*
X741122Y-2966122D01*
X662327Y-3044917D01*
X110329D01*
X21533Y-2956122D01*
X5990Y-2945736D01*
X-12345Y-2942089D01*
X-178906D01*
Y-2860910D01*
X-181725Y-2854106D01*
X-188529Y-2851288D01*
X-272090D01*
Y-1789845D01*
X18342Y-1499413D01*
X28728Y-1483870D01*
X32375Y-1465535D01*
Y839620D01*
X333878Y1141122D01*
X344263Y1156665D01*
X347910Y1175000D01*
X344263Y1193335D01*
X333878Y1208878D01*
X318335Y1219263D01*
X300000Y1222910D01*
X292671Y1221453D01*
X286415Y1233157D01*
X690849Y1637591D01*
X702452Y1652712D01*
X709746Y1670322D01*
X712234Y1689220D01*
Y2208976D01*
X780244Y2276986D01*
X856546D01*
Y2263998D01*
X859364Y2257194D01*
X866168Y2254376D01*
X1051483D01*
X1058287Y2257194D01*
X1061105Y2263998D01*
Y2413860D01*
X1058287Y2420664D01*
X1051483Y2423483D01*
X866168D01*
X865038Y2423015D01*
X750000D01*
X731102Y2420527D01*
X713493Y2413233D01*
X698371Y2401629D01*
X587591Y2290849D01*
X575987Y2275727D01*
X568693Y2258117D01*
X566205Y2239220D01*
Y1719463D01*
X-376629Y776629D01*
X-386371Y763934D01*
X-396492Y765893D01*
X-399071Y767263D01*
Y797075D01*
X401629Y1597775D01*
X413233Y1612896D01*
X420527Y1630506D01*
X423015Y1649404D01*
Y1990378D01*
X500000D01*
X506804Y1993196D01*
X509623Y2000000D01*
Y2200000D01*
X506804Y2206804D01*
X500000Y2209622D01*
X423015D01*
Y2821041D01*
X574395Y2972422D01*
X585999Y2987543D01*
X593293Y3005153D01*
X595781Y3024051D01*
Y3561110D01*
X608906D01*
Y4013892D01*
X621606Y4019153D01*
X626272Y4014487D01*
X641668Y4008110D01*
X658333D01*
X673729Y4014487D01*
X685513Y4026271D01*
X691890Y4041667D01*
Y4058332D01*
X685513Y4073728D01*
X673729Y4085512D01*
X658333Y4091890D01*
X641668D01*
X626272Y4085512D01*
X621606Y4080847D01*
X608906Y4086107D01*
Y4213892D01*
X621606Y4219153D01*
X626272Y4214487D01*
X641668Y4208110D01*
X658333D01*
X673729Y4214487D01*
X685513Y4226271D01*
X691890Y4241667D01*
Y4258332D01*
X685513Y4273729D01*
X673729Y4285512D01*
X658333Y4291890D01*
X641668D01*
X626272Y4285512D01*
X621606Y4280847D01*
X608906Y4286108D01*
Y4308890D01*
X-585320D01*
X-590180Y4320623D01*
X-504483Y4406321D01*
X-440471D01*
X-428807Y4411152D01*
X-126210Y4713749D01*
X-121379Y4725413D01*
Y4759187D01*
X-119811Y4759837D01*
X-110840Y4768808D01*
X-107260Y4777450D01*
X-97601Y4781127D01*
X-93285Y4781435D01*
X-69448Y4757598D01*
X-58105Y4750020D01*
X-44726Y4747358D01*
X-22400D01*
X15038Y4709920D01*
Y4574279D01*
X14487Y4573729D01*
X8110Y4558333D01*
Y4541668D01*
X14487Y4526271D01*
X26271Y4514488D01*
X41667Y4508110D01*
X58332D01*
X73729Y4514488D01*
X85512Y4526271D01*
X91890Y4541668D01*
Y4558333D01*
X85512Y4573729D01*
X84962Y4574279D01*
Y4724401D01*
X84962Y4724402D01*
X82300Y4737781D01*
X74722Y4749124D01*
X74721Y4749124D01*
X16804Y4807042D01*
X5461Y4814621D01*
X-7918Y4817282D01*
X-30244D01*
X-38726Y4825764D01*
Y4873688D01*
X-41387Y4887067D01*
X-48966Y4898410D01*
X-100556Y4950000D01*
X54479Y5105036D01*
X145730D01*
X146281Y5104485D01*
X161677Y5098107D01*
X178342D01*
X193738Y5104485D01*
X205522Y5116269D01*
X211899Y5131665D01*
Y5148330D01*
X205522Y5163726D01*
X193738Y5175510D01*
X178342Y5181887D01*
X161677D01*
X146281Y5175510D01*
X145730Y5174959D01*
X39997D01*
X26618Y5172298D01*
X15276Y5164719D01*
X15275Y5164718D01*
X-164482Y4984962D01*
X-342858D01*
X-465038Y5107142D01*
Y5239672D01*
X-465038Y5239673D01*
X-467700Y5253052D01*
X-475278Y5264395D01*
X-475279Y5264396D01*
X-535605Y5324722D01*
X-546947Y5332300D01*
X-560327Y5334962D01*
X-875721D01*
X-876271Y5335513D01*
X-891668Y5341890D01*
D02*
G37*
G36*
X-455783Y4969904D02*
X-468470D01*
X-480191Y4965049D01*
X-489162Y4956078D01*
X-494016Y4944358D01*
X-506088D01*
X-510942Y4956078D01*
X-519913Y4965049D01*
X-531634Y4969904D01*
X-544321D01*
X-556042Y4965049D01*
X-565012Y4956078D01*
X-569867Y4944358D01*
X-581938D01*
X-586793Y4956078D01*
X-595764Y4965049D01*
X-607485Y4969904D01*
X-620171D01*
X-631892Y4965049D01*
X-640863Y4956078D01*
X-645718Y4944358D01*
X-657789D01*
X-662644Y4956078D01*
X-671615Y4965049D01*
X-683335Y4969904D01*
X-696022D01*
X-707743Y4965049D01*
X-716714Y4956078D01*
X-721569Y4944357D01*
Y4931671D01*
X-716714Y4919950D01*
X-707743Y4910979D01*
X-696022Y4906124D01*
X-683335D01*
X-671615Y4910979D01*
X-662644Y4919950D01*
X-657789Y4931670D01*
X-645718D01*
X-640863Y4919950D01*
X-631892Y4910979D01*
X-620171Y4906124D01*
X-607485D01*
X-595764Y4910979D01*
X-586793Y4919950D01*
X-581938Y4931670D01*
X-569867D01*
X-565012Y4919950D01*
X-556042Y4910979D01*
X-544321Y4906124D01*
X-531634D01*
X-519913Y4910979D01*
X-510942Y4919950D01*
X-506088Y4931670D01*
X-494016D01*
X-489162Y4919950D01*
X-480191Y4910979D01*
X-468470Y4906124D01*
X-455783D01*
X-444062Y4910979D01*
X-435092Y4919950D01*
X-430237Y4931671D01*
Y4944357D01*
X-435092Y4956078D01*
X-444062Y4965049D01*
X-455783Y4969904D01*
D02*
G37*
G36*
X-1091668Y5091890D02*
X-1108333D01*
X-1123729Y5085513D01*
X-1135513Y5073729D01*
X-1141890Y5058333D01*
Y5041668D01*
X-1135513Y5026271D01*
X-1123729Y5014488D01*
X-1112834Y5009975D01*
X-1112476Y4996377D01*
X-1115700Y4995041D01*
X-1127483Y4983257D01*
X-1133861Y4967861D01*
Y4951196D01*
X-1127483Y4935800D01*
X-1115700Y4924016D01*
X-1100546Y4917739D01*
X-1100161Y4916753D01*
X-1098262Y4904939D01*
X-1104489Y4902360D01*
X-1116272Y4890576D01*
X-1122650Y4875180D01*
Y4858515D01*
X-1120401Y4853085D01*
X-1121338Y4849932D01*
X-1128197Y4838719D01*
X-1135896Y4835530D01*
X-1144867Y4826559D01*
X-1149722Y4814838D01*
Y4802152D01*
X-1144867Y4790431D01*
X-1135896Y4781460D01*
X-1124175Y4776605D01*
X-1111488D01*
X-1099767Y4781460D01*
X-1090797Y4790431D01*
X-1085942Y4802152D01*
Y4814838D01*
X-1076386Y4824957D01*
X-1072427D01*
X-1057031Y4831335D01*
X-1045247Y4843119D01*
X-1038870Y4858515D01*
Y4875180D01*
X-1045247Y4890576D01*
X-1057031Y4902360D01*
X-1072185Y4908637D01*
X-1072570Y4909623D01*
X-1074469Y4921437D01*
X-1068242Y4924016D01*
X-1056458Y4935800D01*
X-1050081Y4951196D01*
Y4967861D01*
X-1056458Y4983257D01*
X-1068242Y4995041D01*
X-1079137Y4999554D01*
X-1079495Y5013152D01*
X-1076271Y5014488D01*
X-1064488Y5026271D01*
X-1058110Y5041668D01*
Y5058333D01*
X-1064488Y5073729D01*
X-1076271Y5085513D01*
X-1091668Y5091890D01*
D02*
G37*
G36*
X-319445Y4686593D02*
X-332132D01*
X-343852Y4681738D01*
X-352823Y4672767D01*
X-357678Y4661047D01*
Y4648360D01*
X-357028Y4646791D01*
X-469233Y4534587D01*
X-525972D01*
X-537636Y4529755D01*
X-710765Y4356626D01*
X-715596Y4344962D01*
Y3450990D01*
X-710765Y3439325D01*
X83073Y2645487D01*
Y2286308D01*
X70373Y2281047D01*
X68064Y2283356D01*
X56343Y2288211D01*
X43657D01*
X31936Y2283356D01*
X22965Y2274386D01*
X18110Y2262665D01*
Y2249978D01*
X22965Y2238257D01*
X31936Y2229286D01*
X33504Y2228637D01*
Y2141961D01*
Y1908261D01*
Y1803254D01*
X-303254Y1466496D01*
X-333610D01*
Y1488890D01*
X-406389D01*
Y1411110D01*
X-333610D01*
Y1433505D01*
X-296421D01*
X-284757Y1438336D01*
X61664Y1784757D01*
X66496Y1796421D01*
Y1908261D01*
Y2141961D01*
Y2219455D01*
X70373Y2222046D01*
X83073Y2215257D01*
Y1672418D01*
X-205322Y1384022D01*
X-782474D01*
X-794138Y1379191D01*
X-1161664Y1011664D01*
X-1166496Y1000000D01*
Y618508D01*
X-1173729Y615512D01*
X-1185512Y603729D01*
X-1191890Y588332D01*
Y571667D01*
X-1185512Y556271D01*
X-1173729Y544487D01*
X-1158332Y538110D01*
X-1141668D01*
X-1126271Y544487D01*
X-1114487Y556271D01*
X-1108110Y571667D01*
Y588332D01*
X-1114487Y603729D01*
X-1126271Y615512D01*
X-1133504Y618508D01*
Y993167D01*
X-775641Y1351030D01*
X-719452D01*
X-716926Y1338330D01*
X-723729Y1335512D01*
X-735513Y1323729D01*
X-741890Y1308332D01*
Y1291667D01*
X-735513Y1276271D01*
X-723729Y1264487D01*
X-708333Y1258110D01*
X-691668D01*
X-676271Y1264487D01*
X-664488Y1276271D01*
X-658110Y1291667D01*
Y1308332D01*
X-664488Y1323729D01*
X-676271Y1335512D01*
X-683074Y1338330D01*
X-680548Y1351030D01*
X-198490D01*
X-186826Y1355862D01*
X111233Y1653921D01*
X116065Y1665585D01*
Y2652320D01*
X111233Y2663984D01*
X-682605Y3457822D01*
Y4338129D01*
X-519139Y4501595D01*
X-462401D01*
X-450736Y4506427D01*
X-333700Y4623463D01*
X-332132Y4622813D01*
X-319445D01*
X-307724Y4627668D01*
X-298753Y4636639D01*
X-293898Y4648360D01*
Y4661047D01*
X-298753Y4672767D01*
X-307724Y4681738D01*
X-319445Y4686593D01*
D02*
G37*
G36*
X-1014961Y4560228D02*
X-1027647D01*
X-1039368Y4555373D01*
X-1048339Y4546402D01*
X-1053194Y4534682D01*
Y4521995D01*
X-1048339Y4510274D01*
X-1039368Y4501303D01*
X-1027647Y4496448D01*
X-1014961D01*
X-1003240Y4501303D01*
X-994269Y4510274D01*
X-989414Y4521995D01*
Y4534682D01*
X-994269Y4546402D01*
X-1003240Y4555373D01*
X-1014961Y4560228D01*
D02*
G37*
G36*
X-1050468Y4469649D02*
X-1063154D01*
X-1074875Y4464794D01*
X-1083846Y4455823D01*
X-1088701Y4444102D01*
Y4431415D01*
X-1083846Y4419694D01*
X-1074875Y4410724D01*
X-1063154Y4405869D01*
X-1050468D01*
X-1038747Y4410724D01*
X-1029776Y4419694D01*
X-1024921Y4431415D01*
Y4444102D01*
X-1029776Y4455823D01*
X-1038747Y4464794D01*
X-1050468Y4469649D01*
D02*
G37*
G36*
X-154146Y4400753D02*
X-166833D01*
X-178554Y4395898D01*
X-187524Y4386927D01*
X-192379Y4375206D01*
Y4362519D01*
X-187524Y4350799D01*
X-178554Y4341828D01*
X-166833Y4336973D01*
X-154146D01*
X-142425Y4341828D01*
X-133454Y4350799D01*
X-128599Y4362519D01*
Y4375206D01*
X-133454Y4386927D01*
X-142425Y4395898D01*
X-154146Y4400753D01*
D02*
G37*
G36*
X-1191667Y4141890D02*
X-1208332D01*
X-1223729Y4135512D01*
X-1235512Y4123729D01*
X-1241890Y4108332D01*
Y4091667D01*
X-1235512Y4076271D01*
X-1223729Y4064487D01*
X-1208332Y4058110D01*
X-1191667D01*
X-1176271Y4064487D01*
X-1164487Y4076271D01*
X-1158110Y4091667D01*
Y4108332D01*
X-1164487Y4123729D01*
X-1176271Y4135512D01*
X-1191667Y4141890D01*
D02*
G37*
G36*
X-1291667D02*
X-1308332D01*
X-1323729Y4135512D01*
X-1335512Y4123729D01*
X-1341890Y4108332D01*
Y4091667D01*
X-1335512Y4076271D01*
X-1323729Y4064487D01*
X-1308332Y4058110D01*
X-1291667D01*
X-1276271Y4064487D01*
X-1264487Y4076271D01*
X-1258110Y4091667D01*
Y4108332D01*
X-1264487Y4123729D01*
X-1276271Y4135512D01*
X-1291667Y4141890D01*
D02*
G37*
G36*
X-1511110Y4236390D02*
X-1588890D01*
Y4163610D01*
X-1566495D01*
Y4116833D01*
X-1591664Y4091664D01*
X-1596496Y4080000D01*
Y4048890D01*
X-1668890D01*
Y4006496D01*
X-2131110D01*
Y4048890D01*
X-2308890D01*
Y3931110D01*
X-2254234D01*
X-2249374Y3919377D01*
X-2261664Y3907086D01*
X-2266496Y3895422D01*
Y3888508D01*
X-2273729Y3885512D01*
X-2285513Y3873729D01*
X-2291890Y3858332D01*
Y3841667D01*
X-2285513Y3826271D01*
X-2273729Y3814487D01*
X-2258333Y3808110D01*
X-2241668D01*
X-2226271Y3814487D01*
X-2214488Y3826271D01*
X-2208110Y3841667D01*
Y3858332D01*
X-2214488Y3873729D01*
X-2222446Y3881687D01*
X-2224333Y3895674D01*
X-2223841Y3898252D01*
X-2208336Y3913758D01*
X-2203504Y3925422D01*
Y3931110D01*
X-2131110D01*
Y3973504D01*
X-1668890D01*
Y3931110D01*
X-1491110D01*
Y4048890D01*
X-1563504D01*
Y4073167D01*
X-1538336Y4098336D01*
X-1533504Y4110000D01*
Y4163610D01*
X-1511110D01*
Y4236390D01*
D02*
G37*
G36*
X-2361668Y3391890D02*
X-2378333D01*
X-2393729Y3385512D01*
X-2405513Y3373728D01*
X-2411890Y3358332D01*
Y3341667D01*
X-2405513Y3326271D01*
X-2393729Y3314487D01*
X-2378333Y3308110D01*
X-2361668D01*
X-2346272Y3314487D01*
X-2334488Y3326271D01*
X-2328110Y3341667D01*
Y3358332D01*
X-2334488Y3373728D01*
X-2346272Y3385512D01*
X-2361668Y3391890D01*
D02*
G37*
G36*
X-1363610Y3888890D02*
X-1436390D01*
Y3811110D01*
X-1416496D01*
Y3206833D01*
X-1456832Y3166496D01*
X-1511101D01*
Y3188893D01*
X-1588880D01*
Y3111113D01*
X-1566486D01*
Y3068890D01*
X-1668890D01*
Y3026496D01*
X-2131110D01*
Y3068890D01*
X-2308890D01*
Y2951110D01*
X-2131110D01*
Y2993504D01*
X-1668890D01*
Y2951110D01*
X-1566496D01*
Y2938508D01*
X-1573729Y2935513D01*
X-1585512Y2923729D01*
X-1591890Y2908333D01*
Y2891668D01*
X-1585512Y2876271D01*
X-1573729Y2864488D01*
X-1558332Y2858110D01*
X-1541667D01*
X-1526271Y2864488D01*
X-1514487Y2876271D01*
X-1508110Y2891668D01*
Y2908333D01*
X-1514487Y2923729D01*
X-1526271Y2935513D01*
X-1533504Y2938508D01*
Y2951110D01*
X-1491110D01*
Y3068890D01*
X-1533495D01*
Y3111113D01*
X-1511101D01*
Y3133504D01*
X-1450000D01*
X-1438336Y3138336D01*
X-1388336Y3188336D01*
X-1383504Y3200000D01*
Y3811110D01*
X-1363610D01*
Y3888890D01*
D02*
G37*
G36*
X958332Y3233267D02*
X941667D01*
X926271Y3226889D01*
X914487Y3215105D01*
X908110Y3199709D01*
Y3183044D01*
X914487Y3167648D01*
X926271Y3155864D01*
X934244Y3152562D01*
Y3138815D01*
X926271Y3135512D01*
X914487Y3123729D01*
X908110Y3108332D01*
Y3091667D01*
X914487Y3076271D01*
X926271Y3064487D01*
X941667Y3058110D01*
X958332D01*
X973729Y3064487D01*
X985512Y3076271D01*
X991890Y3091667D01*
Y3108332D01*
X985512Y3123729D01*
X973729Y3135512D01*
X965755Y3138815D01*
Y3152562D01*
X973729Y3155864D01*
X985512Y3167648D01*
X991890Y3183044D01*
Y3199709D01*
X985512Y3215105D01*
X973729Y3226889D01*
X958332Y3233267D01*
D02*
G37*
G36*
Y3041890D02*
X941667D01*
X926271Y3035513D01*
X914487Y3023729D01*
X908110Y3008333D01*
Y2991668D01*
X914487Y2976271D01*
X926271Y2964488D01*
X941667Y2958110D01*
X958332D01*
X972238Y2963870D01*
X976885Y2961215D01*
X982481Y2955413D01*
X982206Y2954748D01*
Y2938084D01*
X988583Y2922687D01*
X1000367Y2910904D01*
Y2897576D01*
X988583Y2885792D01*
X982206Y2870396D01*
Y2853731D01*
X988583Y2838335D01*
X1000367Y2826551D01*
X1015763Y2820174D01*
X1032428D01*
X1047824Y2826551D01*
X1059608Y2838335D01*
X1065986Y2853731D01*
Y2870396D01*
X1059608Y2885792D01*
X1047825Y2897576D01*
Y2910904D01*
X1059608Y2922687D01*
X1065986Y2938084D01*
Y2954748D01*
X1059608Y2970145D01*
X1047824Y2981929D01*
X1032428Y2988306D01*
X1015763D01*
X1001858Y2982546D01*
X997211Y2985201D01*
X991615Y2991003D01*
X991890Y2991668D01*
Y3008333D01*
X985512Y3023729D01*
X973729Y3035513D01*
X958332Y3041890D01*
D02*
G37*
G36*
X818128Y2943890D02*
X781905D01*
X746377Y2936823D01*
X712912Y2922961D01*
X682793Y2902837D01*
X657180Y2877223D01*
X637055Y2847105D01*
X623193Y2813639D01*
X616126Y2778112D01*
Y2741889D01*
X623193Y2706361D01*
X637055Y2672896D01*
X657180Y2642777D01*
X682793Y2617163D01*
X712912Y2597039D01*
X746377Y2583177D01*
X781905Y2576110D01*
X818128D01*
X853655Y2583177D01*
X887121Y2597039D01*
X917239Y2617163D01*
X942853Y2642777D01*
X962977Y2672896D01*
X975236Y2702490D01*
X987518Y2703402D01*
X988746Y2703061D01*
X989487Y2701271D01*
X1001271Y2689487D01*
X1016668Y2683110D01*
X1033332D01*
X1048729Y2689487D01*
X1060512Y2701271D01*
X1066890Y2716667D01*
Y2733332D01*
X1060512Y2748729D01*
X1048729Y2760512D01*
X1033332Y2766890D01*
X1016668D01*
X1001271Y2760512D01*
X996606Y2755847D01*
X983906Y2761108D01*
Y2778112D01*
X976839Y2813639D01*
X962977Y2847105D01*
X942853Y2877223D01*
X917239Y2902837D01*
X887121Y2922961D01*
X853655Y2936823D01*
X818128Y2943890D01*
D02*
G37*
G36*
X-727879Y2721890D02*
X-744544D01*
X-759940Y2715513D01*
X-771724Y2703729D01*
X-778101Y2688333D01*
Y2671668D01*
X-771724Y2656272D01*
X-759940Y2644488D01*
X-744544Y2638111D01*
X-727879D01*
X-712483Y2644488D01*
X-700699Y2656272D01*
X-694321Y2671668D01*
Y2688333D01*
X-700699Y2703729D01*
X-712483Y2715513D01*
X-727879Y2721890D01*
D02*
G37*
G36*
X-969781Y2506718D02*
X-986446D01*
X-1001842Y2500340D01*
X-1013626Y2488557D01*
X-1020003Y2473160D01*
Y2456495D01*
X-1013626Y2441099D01*
X-1001842Y2429315D01*
X-986446Y2422938D01*
X-969781D01*
X-954385Y2429315D01*
X-942601Y2441099D01*
X-936223Y2456495D01*
Y2473160D01*
X-942601Y2488557D01*
X-954385Y2500340D01*
X-969781Y2506718D01*
D02*
G37*
G36*
X-727879Y2501890D02*
X-744544D01*
X-759940Y2495513D01*
X-771724Y2483729D01*
X-778101Y2468333D01*
Y2451668D01*
X-771724Y2436272D01*
X-759940Y2424488D01*
X-744544Y2418110D01*
X-727879D01*
X-712483Y2424488D01*
X-700699Y2436272D01*
X-694321Y2451668D01*
Y2468333D01*
X-700699Y2483729D01*
X-712483Y2495513D01*
X-727879Y2501890D01*
D02*
G37*
G36*
X-1980783Y2454390D02*
X-2003217D01*
X-2023942Y2445805D01*
X-2039805Y2429942D01*
X-2048390Y2409216D01*
Y2386783D01*
X-2039805Y2366057D01*
X-2023942Y2350195D01*
X-2003217Y2341610D01*
X-1980783D01*
X-1960058Y2350195D01*
X-1944195Y2366057D01*
X-1935610Y2386783D01*
Y2409216D01*
X-1944195Y2429942D01*
X-1960058Y2445805D01*
X-1980783Y2454390D01*
D02*
G37*
G36*
X-1450121Y2171890D02*
X-1466786D01*
X-1482182Y2165513D01*
X-1493966Y2153729D01*
X-1500343Y2138333D01*
Y2121668D01*
X-1493966Y2106271D01*
X-1482182Y2094488D01*
X-1466786Y2088110D01*
X-1450121D01*
X-1434725Y2094488D01*
X-1422941Y2106271D01*
X-1416564Y2121668D01*
Y2138333D01*
X-1422941Y2153729D01*
X-1434725Y2165513D01*
X-1450121Y2171890D01*
D02*
G37*
G36*
X958332Y2141890D02*
X941667D01*
X926271Y2135513D01*
X914487Y2123729D01*
X908110Y2108333D01*
Y2091668D01*
X914487Y2076271D01*
X926271Y2064488D01*
X941667Y2058110D01*
X958332D01*
X973729Y2064488D01*
X985512Y2076271D01*
X991890Y2091668D01*
Y2108333D01*
X985512Y2123729D01*
X973729Y2135513D01*
X958332Y2141890D01*
D02*
G37*
G36*
X-727879Y2091890D02*
X-744544D01*
X-759940Y2085512D01*
X-771724Y2073729D01*
X-778102Y2058332D01*
Y2041667D01*
X-771724Y2026271D01*
X-759940Y2014487D01*
X-744544Y2008110D01*
X-727879D01*
X-712483Y2014487D01*
X-700699Y2026271D01*
X-694322Y2041667D01*
Y2058332D01*
X-700699Y2073729D01*
X-712483Y2085512D01*
X-727879Y2091890D01*
D02*
G37*
G36*
X-291667Y1891890D02*
X-308332D01*
X-323729Y1885513D01*
X-335512Y1873729D01*
X-341890Y1858333D01*
Y1841668D01*
X-335512Y1826271D01*
X-323729Y1814488D01*
X-308332Y1808110D01*
X-291667D01*
X-276271Y1814488D01*
X-264487Y1826271D01*
X-258110Y1841668D01*
Y1858333D01*
X-264487Y1873729D01*
X-276271Y1885513D01*
X-291667Y1891890D01*
D02*
G37*
G36*
X-428376Y1888734D02*
X-445041D01*
X-460437Y1882356D01*
X-472221Y1870573D01*
X-478598Y1855176D01*
Y1838511D01*
X-472221Y1823115D01*
X-460437Y1811331D01*
X-445041Y1804954D01*
X-428376D01*
X-412979Y1811331D01*
X-401196Y1823115D01*
X-394818Y1838511D01*
Y1855176D01*
X-401196Y1870573D01*
X-412979Y1882356D01*
X-428376Y1888734D01*
D02*
G37*
G36*
X808332Y1871890D02*
X791667D01*
X776271Y1865513D01*
X764487Y1853729D01*
X758110Y1838333D01*
Y1821668D01*
X764487Y1806271D01*
X776271Y1794488D01*
X791667Y1788110D01*
X808332D01*
X823728Y1794488D01*
X835512Y1806271D01*
X841890Y1821668D01*
Y1838333D01*
X835512Y1853729D01*
X823728Y1865513D01*
X808332Y1871890D01*
D02*
G37*
G36*
X1108333Y1871890D02*
X1091668D01*
X1076271Y1865512D01*
X1064488Y1853728D01*
X1058110Y1838332D01*
Y1821667D01*
X1064488Y1806271D01*
X1076271Y1794487D01*
X1091668Y1788110D01*
X1108333D01*
X1123729Y1794487D01*
X1135513Y1806271D01*
X1141890Y1821667D01*
Y1838332D01*
X1135513Y1853728D01*
X1123729Y1865512D01*
X1108333Y1871890D01*
D02*
G37*
G36*
X1008333D02*
X991668D01*
X976271Y1865512D01*
X964488Y1853728D01*
X958110Y1838332D01*
Y1821667D01*
X964488Y1806271D01*
X976271Y1794487D01*
X991668Y1788110D01*
X1008333D01*
X1023729Y1794487D01*
X1035513Y1806271D01*
X1041890Y1821667D01*
Y1838332D01*
X1035513Y1853728D01*
X1023729Y1865512D01*
X1008333Y1871890D01*
D02*
G37*
G36*
X908332D02*
X891668D01*
X876271Y1865512D01*
X864487Y1853728D01*
X858110Y1838332D01*
Y1821667D01*
X864487Y1806271D01*
X876271Y1794487D01*
X891668Y1788110D01*
X908332D01*
X923729Y1794487D01*
X935512Y1806271D01*
X941890Y1821667D01*
Y1838332D01*
X935512Y1853728D01*
X923729Y1865512D01*
X908332Y1871890D01*
D02*
G37*
G36*
X-43657Y2710715D02*
X-56344D01*
X-68064Y2705860D01*
X-77035Y2696889D01*
X-81890Y2685168D01*
Y2672482D01*
X-81240Y2670913D01*
X-84214Y2667940D01*
X-89046Y2656275D01*
Y2139479D01*
Y1983681D01*
Y1834637D01*
X-257186Y1666496D01*
X-333610D01*
Y1688890D01*
X-406389D01*
Y1611110D01*
X-386495D01*
Y1588890D01*
X-406389D01*
Y1511110D01*
X-333609D01*
Y1588890D01*
X-353503D01*
Y1611110D01*
X-333610D01*
Y1633504D01*
X-250354D01*
X-238689Y1638336D01*
X-60885Y1816140D01*
X-56054Y1827804D01*
Y1983681D01*
Y2139479D01*
Y2646935D01*
X-43657D01*
X-31936Y2651790D01*
X-22965Y2660761D01*
X-18110Y2672482D01*
Y2685168D01*
X-22965Y2696889D01*
X-31936Y2705860D01*
X-43657Y2710715D01*
D02*
G37*
G36*
X-1980784Y1774390D02*
X-2003217D01*
X-2023943Y1765805D01*
X-2039805Y1749942D01*
X-2048390Y1729216D01*
Y1706783D01*
X-2039805Y1686057D01*
X-2023943Y1670195D01*
X-2003217Y1661610D01*
X-1980784D01*
X-1960058Y1670195D01*
X-1944195Y1686057D01*
X-1935610Y1706783D01*
Y1729216D01*
X-1944195Y1749942D01*
X-1960058Y1765805D01*
X-1980784Y1774390D01*
D02*
G37*
G36*
X-541667Y1741890D02*
X-558332D01*
X-573729Y1735513D01*
X-585512Y1723729D01*
X-591890Y1708333D01*
Y1691668D01*
X-585512Y1676272D01*
X-573729Y1664488D01*
X-558332Y1658110D01*
X-541667D01*
X-526271Y1664488D01*
X-514487Y1676272D01*
X-508110Y1691668D01*
Y1708333D01*
X-514487Y1723729D01*
X-526271Y1735513D01*
X-541667Y1741890D01*
D02*
G37*
G36*
X2508332Y1741890D02*
X2491667D01*
X2476271Y1735512D01*
X2464487Y1723729D01*
X2458110Y1708332D01*
Y1691667D01*
X2464487Y1676271D01*
X2476271Y1664487D01*
X2491667Y1658110D01*
X2508332D01*
X2523729Y1664487D01*
X2535512Y1676271D01*
X2541890Y1691667D01*
Y1708332D01*
X2535512Y1723729D01*
X2523729Y1735512D01*
X2508332Y1741890D01*
D02*
G37*
G36*
X2308332D02*
X2291668D01*
X2276271Y1735512D01*
X2264487Y1723729D01*
X2258110Y1708332D01*
Y1691667D01*
X2264487Y1676271D01*
X2276271Y1664487D01*
X2291668Y1658110D01*
X2308332D01*
X2323729Y1664487D01*
X2335512Y1676271D01*
X2341890Y1691667D01*
Y1708332D01*
X2335512Y1723729D01*
X2323729Y1735512D01*
X2308332Y1741890D01*
D02*
G37*
G36*
X1908332D02*
X1891668D01*
X1876271Y1735512D01*
X1864488Y1723729D01*
X1858110Y1708332D01*
Y1691667D01*
X1864488Y1676271D01*
X1876271Y1664487D01*
X1891668Y1658110D01*
X1908332D01*
X1923729Y1664487D01*
X1935513Y1676271D01*
X1941890Y1691667D01*
Y1708332D01*
X1935513Y1723729D01*
X1923729Y1735512D01*
X1908332Y1741890D01*
D02*
G37*
G36*
X2508332Y1541890D02*
X2491667D01*
X2476271Y1535513D01*
X2464487Y1523729D01*
X2458110Y1508333D01*
Y1491668D01*
X2464487Y1476271D01*
X2476271Y1464488D01*
X2491667Y1458110D01*
X2508332D01*
X2523729Y1464488D01*
X2535512Y1476271D01*
X2541890Y1491668D01*
Y1508333D01*
X2535512Y1523729D01*
X2523729Y1535513D01*
X2508332Y1541890D01*
D02*
G37*
G36*
X-691668D02*
X-708333D01*
X-723729Y1535513D01*
X-735513Y1523729D01*
X-741890Y1508333D01*
Y1491668D01*
X-735513Y1476271D01*
X-723729Y1464488D01*
X-708333Y1458110D01*
X-691668D01*
X-676271Y1464488D01*
X-664488Y1476271D01*
X-658110Y1491668D01*
Y1508333D01*
X-664488Y1523729D01*
X-676271Y1535513D01*
X-691668Y1541890D01*
D02*
G37*
G36*
X1358333Y1491890D02*
X1341668D01*
X1326271Y1485512D01*
X1314488Y1473729D01*
X1308110Y1458332D01*
Y1441667D01*
X1314488Y1426271D01*
X1326271Y1414487D01*
X1341668Y1408110D01*
X1358333D01*
X1373729Y1414487D01*
X1385513Y1426271D01*
X1391890Y1441667D01*
Y1458332D01*
X1385513Y1473729D01*
X1373729Y1485512D01*
X1358333Y1491890D01*
D02*
G37*
G36*
X1118439Y1379425D02*
X1101775D01*
X1086378Y1373048D01*
X1074594Y1361264D01*
X1068217Y1345868D01*
Y1329203D01*
X1074594Y1313807D01*
X1086378Y1302023D01*
X1101775Y1295645D01*
X1118439D01*
X1133836Y1302023D01*
X1145620Y1313807D01*
X1151997Y1329203D01*
Y1345868D01*
X1145620Y1361264D01*
X1133836Y1373048D01*
X1118439Y1379425D01*
D02*
G37*
G36*
X2508332Y1341890D02*
X2491667D01*
X2476271Y1335513D01*
X2464487Y1323729D01*
X2458110Y1308333D01*
Y1291668D01*
X2464487Y1276272D01*
X2476271Y1264488D01*
X2491667Y1258110D01*
X2508332D01*
X2523729Y1264488D01*
X2535512Y1276272D01*
X2541890Y1291668D01*
Y1308333D01*
X2535512Y1323729D01*
X2523729Y1335513D01*
X2508332Y1341890D01*
D02*
G37*
G36*
Y1141890D02*
X2491667D01*
X2476271Y1135513D01*
X2464487Y1123729D01*
X2458110Y1108333D01*
Y1091668D01*
X2464487Y1076272D01*
X2476271Y1064488D01*
X2491667Y1058110D01*
X2508332D01*
X2523729Y1064488D01*
X2535512Y1076272D01*
X2541890Y1091668D01*
Y1108333D01*
X2535512Y1123729D01*
X2523729Y1135513D01*
X2508332Y1141890D01*
D02*
G37*
G36*
X-691668Y1141890D02*
X-708333D01*
X-723729Y1135513D01*
X-735513Y1123729D01*
X-741890Y1108333D01*
Y1091668D01*
X-735513Y1076271D01*
X-723729Y1064488D01*
X-708333Y1058110D01*
X-691668D01*
X-676271Y1064488D01*
X-664488Y1076271D01*
X-658110Y1091668D01*
Y1108333D01*
X-664488Y1123729D01*
X-676271Y1135513D01*
X-691668Y1141890D01*
D02*
G37*
G36*
X2508332Y941890D02*
X2491667D01*
X2476271Y935513D01*
X2464487Y923729D01*
X2458110Y908333D01*
Y891668D01*
X2464487Y876272D01*
X2476271Y864488D01*
X2491667Y858111D01*
X2508332D01*
X2523729Y864488D01*
X2535512Y876272D01*
X2541890Y891668D01*
Y908333D01*
X2535512Y923729D01*
X2523729Y935513D01*
X2508332Y941890D01*
D02*
G37*
G36*
X-691668Y941890D02*
X-708333D01*
X-723729Y935512D01*
X-735513Y923729D01*
X-741890Y908332D01*
Y891668D01*
X-735513Y876271D01*
X-723729Y864487D01*
X-708333Y858110D01*
X-691668D01*
X-676271Y864487D01*
X-664488Y876271D01*
X-658110Y891668D01*
Y908332D01*
X-664488Y923729D01*
X-676271Y935512D01*
X-691668Y941890D01*
D02*
G37*
G36*
X708333Y865691D02*
X691668D01*
X676271Y859313D01*
X669547Y852588D01*
X661251Y848949D01*
X652953Y852588D01*
X646229Y859312D01*
X630833Y865690D01*
X614168D01*
X598771Y859312D01*
X594547Y855088D01*
X586250Y848146D01*
X577954Y855088D01*
X573729Y859313D01*
X558332Y865691D01*
X541667D01*
X526271Y859313D01*
X514487Y847529D01*
X508110Y832133D01*
Y815468D01*
X514487Y800072D01*
X526271Y788288D01*
X541667Y781911D01*
X558332D01*
X573729Y788288D01*
X577953Y792513D01*
X586251Y799454D01*
X594546Y792513D01*
X598771Y788287D01*
X614168Y781910D01*
X630833D01*
X646229Y788287D01*
X652954Y795012D01*
X661250Y798651D01*
X669547Y795012D01*
X676271Y788288D01*
X691668Y781911D01*
X708333D01*
X723729Y788288D01*
X735513Y800072D01*
X741890Y815468D01*
Y832133D01*
X735513Y847529D01*
X723729Y859313D01*
X708333Y865691D01*
D02*
G37*
G36*
X1383333Y791890D02*
X1366668D01*
X1351271Y785513D01*
X1339488Y773729D01*
X1333110Y758332D01*
Y741668D01*
X1339488Y726271D01*
X1351271Y714488D01*
X1366668Y708110D01*
X1383333D01*
X1398729Y714488D01*
X1410513Y726271D01*
X1416890Y741668D01*
Y758332D01*
X1410513Y773729D01*
X1398729Y785513D01*
X1383333Y791890D01*
D02*
G37*
G36*
X825832Y771890D02*
X809168D01*
X793771Y765513D01*
X781988Y753729D01*
X775610Y738333D01*
Y721668D01*
X781988Y706271D01*
X793771Y694488D01*
X809168Y688110D01*
X825832D01*
X841229Y694488D01*
X853013Y706271D01*
X859390Y721668D01*
Y738333D01*
X853013Y753729D01*
X841229Y765513D01*
X825832Y771890D01*
D02*
G37*
G36*
X630833Y766490D02*
X614168D01*
X598771Y760113D01*
X586988Y748329D01*
X580610Y732932D01*
Y716268D01*
X586988Y700871D01*
X598771Y689088D01*
X614168Y682710D01*
X630833D01*
X646229Y689088D01*
X658013Y700871D01*
X664390Y716268D01*
Y732932D01*
X658013Y748329D01*
X646229Y760113D01*
X630833Y766490D01*
D02*
G37*
G36*
X2508332Y741891D02*
X2491667D01*
X2476271Y735513D01*
X2464487Y723729D01*
X2458110Y708333D01*
Y691668D01*
X2464487Y676272D01*
X2476271Y664488D01*
X2491667Y658111D01*
X2508332D01*
X2523729Y664488D01*
X2535512Y676272D01*
X2541890Y691668D01*
Y708333D01*
X2535512Y723729D01*
X2523729Y735513D01*
X2508332Y741891D01*
D02*
G37*
G36*
X-691668Y741890D02*
X-708333D01*
X-723729Y735513D01*
X-735513Y723729D01*
X-741890Y708333D01*
Y691668D01*
X-735513Y676271D01*
X-723729Y664488D01*
X-708333Y658110D01*
X-691668D01*
X-676271Y664488D01*
X-664488Y676271D01*
X-658110Y691668D01*
Y708333D01*
X-664488Y723729D01*
X-676271Y735513D01*
X-691668Y741890D01*
D02*
G37*
G36*
X1383333Y691890D02*
X1366668D01*
X1351271Y685512D01*
X1339488Y673729D01*
X1333110Y658332D01*
Y641667D01*
X1339488Y626271D01*
X1351271Y614487D01*
X1366668Y608110D01*
X1383333D01*
X1398729Y614487D01*
X1410513Y626271D01*
X1416890Y641667D01*
Y658332D01*
X1410513Y673729D01*
X1398729Y685512D01*
X1383333Y691890D01*
D02*
G37*
G36*
X308332Y641890D02*
X291667D01*
X276271Y635513D01*
X264487Y623729D01*
X258110Y608333D01*
Y591668D01*
X264487Y576271D01*
X276271Y564488D01*
X291667Y558110D01*
X308332D01*
X323729Y564488D01*
X335512Y576271D01*
X341890Y591668D01*
Y608333D01*
X335512Y623729D01*
X323729Y635513D01*
X308332Y641890D01*
D02*
G37*
G36*
X-1450121Y599417D02*
X-1466786D01*
X-1482182Y593039D01*
X-1493966Y581255D01*
X-1500343Y565859D01*
Y549194D01*
X-1493966Y533798D01*
X-1482182Y522014D01*
X-1466786Y515637D01*
X-1450121D01*
X-1434725Y522014D01*
X-1422941Y533798D01*
X-1416564Y549194D01*
Y565859D01*
X-1422941Y581255D01*
X-1434725Y593039D01*
X-1450121Y599417D01*
D02*
G37*
G36*
X1383333Y591890D02*
X1366668D01*
X1351271Y585512D01*
X1339488Y573729D01*
X1333110Y558332D01*
Y541667D01*
X1339488Y526271D01*
X1351271Y514487D01*
X1366668Y508110D01*
X1383333D01*
X1398729Y514487D01*
X1410513Y526271D01*
X1416890Y541667D01*
Y558332D01*
X1410513Y573729D01*
X1398729Y585512D01*
X1383333Y591890D01*
D02*
G37*
G36*
X2508332Y541891D02*
X2491667D01*
X2476271Y535513D01*
X2464487Y523729D01*
X2458110Y508333D01*
Y491668D01*
X2464487Y476272D01*
X2476271Y464488D01*
X2491667Y458111D01*
X2508332D01*
X2523729Y464488D01*
X2535512Y476272D01*
X2541890Y491668D01*
Y508333D01*
X2535512Y523729D01*
X2523729Y535513D01*
X2508332Y541891D01*
D02*
G37*
G36*
X-691668Y541890D02*
X-708333D01*
X-723729Y535513D01*
X-735513Y523729D01*
X-741890Y508333D01*
Y491668D01*
X-735513Y476272D01*
X-723729Y464488D01*
X-708333Y458110D01*
X-691668D01*
X-676271Y464488D01*
X-664488Y476272D01*
X-658110Y491668D01*
Y508333D01*
X-664488Y523729D01*
X-676271Y535513D01*
X-691668Y541890D01*
D02*
G37*
G36*
X1083332Y491890D02*
X1066667D01*
X1051271Y485513D01*
X1039487Y473729D01*
X1033110Y458333D01*
Y441668D01*
X1039487Y426271D01*
X1051271Y414488D01*
X1066667Y408110D01*
X1083332D01*
X1098729Y414488D01*
X1110512Y426271D01*
X1116890Y441668D01*
Y458333D01*
X1110512Y473729D01*
X1098729Y485513D01*
X1083332Y491890D01*
D02*
G37*
G36*
X683332D02*
X666667D01*
X651271Y485513D01*
X639487Y473729D01*
X633110Y458333D01*
Y441668D01*
X639487Y426271D01*
X651271Y414488D01*
X666667Y408110D01*
X683332D01*
X698729Y414488D01*
X710512Y426271D01*
X716890Y441668D01*
Y458333D01*
X710512Y473729D01*
X698729Y485513D01*
X683332Y491890D01*
D02*
G37*
G36*
X733333Y391890D02*
X716668D01*
X701271Y385513D01*
X689488Y373729D01*
X683110Y358333D01*
Y341668D01*
X689488Y326271D01*
X701271Y314488D01*
X716668Y308110D01*
X733333D01*
X748729Y314488D01*
X760513Y326271D01*
X766890Y341668D01*
Y358333D01*
X760513Y373729D01*
X748729Y385513D01*
X733333Y391890D01*
D02*
G37*
G36*
X428333D02*
X411668D01*
X396271Y385513D01*
X384488Y373729D01*
X378110Y358333D01*
Y341668D01*
X384488Y326271D01*
X396271Y314488D01*
X411668Y308110D01*
X428333D01*
X443729Y314488D01*
X455513Y326271D01*
X461890Y341668D01*
Y358333D01*
X455513Y373729D01*
X443729Y385513D01*
X428333Y391890D01*
D02*
G37*
G36*
X1969546Y491490D02*
X1940454D01*
X1912353Y483960D01*
X1887158Y469414D01*
X1866586Y448842D01*
X1852040Y423647D01*
X1844510Y395546D01*
Y366453D01*
X1852040Y338352D01*
X1866586Y313157D01*
X1887158Y292586D01*
X1912353Y278039D01*
X1940454Y270510D01*
X1969546D01*
X1997648Y278039D01*
X2022843Y292586D01*
X2043414Y313157D01*
X2057961Y338352D01*
X2065490Y366453D01*
Y395546D01*
X2057961Y423647D01*
X2043414Y448842D01*
X2022843Y469414D01*
X1997648Y483960D01*
X1969546Y491490D01*
D02*
G37*
G36*
X2259800Y492659D02*
X2158200D01*
X2134910Y488026D01*
X2115166Y474834D01*
X2101973Y455090D01*
X2097341Y431800D01*
Y330200D01*
X2101973Y306910D01*
X2115166Y287166D01*
X2134910Y273973D01*
X2158200Y269340D01*
X2259800D01*
X2283090Y273973D01*
X2302834Y287166D01*
X2316027Y306910D01*
X2320660Y330200D01*
Y431800D01*
X2316027Y455090D01*
X2302834Y474834D01*
X2283090Y488026D01*
X2259800Y492659D01*
D02*
G37*
G36*
X2508333Y341890D02*
X2491668D01*
X2476271Y335513D01*
X2464488Y323729D01*
X2458110Y308333D01*
Y291668D01*
X2464488Y276271D01*
X2476271Y264488D01*
X2491668Y258110D01*
X2508333D01*
X2523729Y264488D01*
X2535513Y276271D01*
X2541890Y291668D01*
Y308333D01*
X2535513Y323729D01*
X2523729Y335513D01*
X2508333Y341890D01*
D02*
G37*
G36*
X-691668Y341890D02*
X-708333D01*
X-723729Y335512D01*
X-735513Y323729D01*
X-741890Y308332D01*
Y291667D01*
X-735513Y276271D01*
X-723729Y264487D01*
X-708333Y258110D01*
X-691668D01*
X-676271Y264487D01*
X-664488Y276271D01*
X-658110Y291667D01*
Y308332D01*
X-664488Y323729D01*
X-676271Y335512D01*
X-691668Y341890D01*
D02*
G37*
G36*
X-1986767Y330390D02*
X-2003233D01*
X-2018445Y324089D01*
X-2030089Y312445D01*
X-2036390Y297233D01*
Y280767D01*
X-2030089Y265554D01*
X-2018445Y253911D01*
X-2003233Y247610D01*
X-1986767D01*
X-1971554Y253911D01*
X-1959911Y265554D01*
X-1953610Y280767D01*
Y297233D01*
X-1959911Y312445D01*
X-1971554Y324089D01*
X-1986767Y330390D01*
D02*
G37*
G36*
X1508330Y241893D02*
X1491665D01*
X1476269Y235515D01*
X1464485Y223731D01*
X1458108Y208335D01*
Y191670D01*
X1464485Y176274D01*
X1476269Y164490D01*
X1491665Y158113D01*
X1508330D01*
X1523726Y164490D01*
X1535510Y176274D01*
X1541887Y191670D01*
Y208335D01*
X1535510Y223731D01*
X1523726Y235515D01*
X1508330Y241893D01*
D02*
G37*
G36*
X1408330D02*
X1391665D01*
X1376269Y235515D01*
X1364485Y223731D01*
X1358108Y208335D01*
Y191670D01*
X1364485Y176274D01*
X1376269Y164490D01*
X1391665Y158113D01*
X1408330D01*
X1423726Y164490D01*
X1435510Y176274D01*
X1441887Y191670D01*
Y208335D01*
X1435510Y223731D01*
X1423726Y235515D01*
X1408330Y241893D01*
D02*
G37*
G36*
X965675Y207914D02*
X952988D01*
X941267Y203060D01*
X932296Y194089D01*
X927441Y182368D01*
Y169681D01*
X932296Y157960D01*
X941267Y148990D01*
X952988Y144135D01*
X965675D01*
X977396Y148990D01*
X986366Y157960D01*
X991221Y169681D01*
Y182368D01*
X986366Y194089D01*
X977396Y203060D01*
X965675Y207914D01*
D02*
G37*
G36*
X2508333Y141890D02*
X2491668D01*
X2476271Y135513D01*
X2464488Y123729D01*
X2458110Y108333D01*
Y91668D01*
X2464488Y76272D01*
X2476271Y64488D01*
X2491668Y58110D01*
X2508333D01*
X2523729Y64488D01*
X2535513Y76272D01*
X2541890Y91668D01*
Y108333D01*
X2535513Y123729D01*
X2523729Y135513D01*
X2508333Y141890D01*
D02*
G37*
G36*
X808332Y141890D02*
X791667D01*
X776271Y135513D01*
X764487Y123729D01*
X758110Y108333D01*
Y91668D01*
X764487Y76271D01*
X776271Y64488D01*
X791667Y58110D01*
X808332D01*
X823729Y64488D01*
X835512Y76271D01*
X841890Y91668D01*
Y108333D01*
X835512Y123729D01*
X823729Y135513D01*
X808332Y141890D01*
D02*
G37*
G36*
X-691668D02*
X-708333D01*
X-723729Y135513D01*
X-735513Y123729D01*
X-741890Y108333D01*
Y91668D01*
X-735513Y76271D01*
X-723729Y64488D01*
X-708333Y58110D01*
X-691668D01*
X-676271Y64488D01*
X-664488Y76271D01*
X-658110Y91668D01*
Y108333D01*
X-664488Y123729D01*
X-676271Y135513D01*
X-691668Y141890D01*
D02*
G37*
G36*
X308332Y116890D02*
X291667D01*
X276271Y110513D01*
X264487Y98729D01*
X258110Y83333D01*
Y66668D01*
X264487Y51271D01*
X276271Y39488D01*
X291667Y33110D01*
X308332D01*
X323729Y39488D01*
X335512Y51271D01*
X341890Y66668D01*
Y83333D01*
X335512Y98729D01*
X323729Y110513D01*
X308332Y116890D01*
D02*
G37*
G36*
X2223546Y237490D02*
X2194454D01*
X2166353Y229960D01*
X2141158Y215414D01*
X2120586Y194842D01*
X2106040Y169647D01*
X2098510Y141546D01*
Y112453D01*
X2106040Y84352D01*
X2120586Y59157D01*
X2141158Y38586D01*
X2166353Y24039D01*
X2194454Y16510D01*
X2223546D01*
X2251648Y24039D01*
X2276843Y38586D01*
X2297414Y59157D01*
X2311961Y84352D01*
X2319490Y112453D01*
Y141546D01*
X2311961Y169647D01*
X2297414Y194842D01*
X2276843Y215414D01*
X2251648Y229960D01*
X2223546Y237490D01*
D02*
G37*
G36*
X1969546D02*
X1940454D01*
X1912353Y229960D01*
X1887158Y215414D01*
X1866586Y194842D01*
X1852040Y169647D01*
X1844510Y141546D01*
Y112453D01*
X1852040Y84352D01*
X1866586Y59157D01*
X1887158Y38586D01*
X1912353Y24039D01*
X1940454Y16510D01*
X1969546D01*
X1997648Y24039D01*
X2022843Y38586D01*
X2043414Y59157D01*
X2057961Y84352D01*
X2065490Y112453D01*
Y141546D01*
X2057961Y169647D01*
X2043414Y194842D01*
X2022843Y215414D01*
X1997648Y229960D01*
X1969546Y237490D01*
D02*
G37*
G36*
X1310994Y43025D02*
X1294329D01*
X1278932Y36648D01*
X1267149Y24864D01*
X1260771Y9468D01*
Y-7197D01*
X1267149Y-22594D01*
X1278932Y-34377D01*
X1294329Y-40755D01*
X1310994D01*
X1326390Y-34377D01*
X1338174Y-22594D01*
X1344551Y-7197D01*
Y9468D01*
X1338174Y24864D01*
X1326390Y36648D01*
X1310994Y43025D01*
D02*
G37*
G36*
X1108333Y41890D02*
X1091668D01*
X1076271Y35513D01*
X1064488Y23729D01*
X1058110Y8332D01*
Y-8332D01*
X1064488Y-23729D01*
X1076271Y-35513D01*
X1091668Y-41890D01*
X1108333D01*
X1123729Y-35513D01*
X1135513Y-23729D01*
X1141890Y-8332D01*
Y8332D01*
X1135513Y23729D01*
X1123729Y35513D01*
X1108333Y41890D01*
D02*
G37*
G36*
X433332D02*
X416667D01*
X401271Y35513D01*
X389487Y23729D01*
X383110Y8332D01*
Y-8332D01*
X389487Y-23729D01*
X401271Y-35513D01*
X416667Y-41890D01*
X433332D01*
X448729Y-35513D01*
X460512Y-23729D01*
X466890Y-8332D01*
Y8332D01*
X460512Y23729D01*
X448729Y35513D01*
X433332Y41890D01*
D02*
G37*
G36*
X-1841668Y1091890D02*
X-1858333D01*
X-1873729Y1085512D01*
X-1885513Y1073729D01*
X-1891890Y1058332D01*
Y1041667D01*
X-1885513Y1026271D01*
X-1873729Y1014487D01*
X-1858333Y1008110D01*
X-1841668D01*
X-1839952Y1008821D01*
X-1734513Y903382D01*
Y662500D01*
X-1732837Y654076D01*
X-1728065Y646935D01*
X-1465566Y384435D01*
X-1458424Y379663D01*
X-1450000Y377987D01*
X-1309118D01*
X-891179Y-39952D01*
X-891890Y-41667D01*
Y-58332D01*
X-891405Y-59504D01*
X-902171Y-66698D01*
X-1314550Y345680D01*
X-1321691Y350452D01*
X-1330115Y352128D01*
X-1470997D01*
X-1808821Y689952D01*
X-1808110Y691668D01*
Y708333D01*
X-1814488Y723729D01*
X-1826271Y735513D01*
X-1841668Y741890D01*
X-1858333D01*
X-1873729Y735513D01*
X-1885513Y723729D01*
X-1891890Y708333D01*
Y691668D01*
X-1885513Y676271D01*
X-1873729Y664488D01*
X-1858333Y658110D01*
X-1841668D01*
X-1839952Y658821D01*
X-1495680Y314549D01*
X-1488539Y309778D01*
X-1480115Y308102D01*
X-1339233D01*
X-891179Y-139951D01*
X-891890Y-141667D01*
Y-158332D01*
X-885513Y-173729D01*
X-873729Y-185512D01*
X-858333Y-191890D01*
X-841668D01*
X-826271Y-185512D01*
X-821057Y-180298D01*
X-808357Y-185559D01*
Y-258914D01*
X-844484Y-295041D01*
X-955711D01*
X-956262Y-294490D01*
X-971658Y-288113D01*
X-988323D01*
X-1003719Y-294490D01*
X-1004270Y-295041D01*
X-1093471D01*
X-1313233Y-75278D01*
X-1324575Y-67700D01*
X-1337955Y-65038D01*
X-1655721D01*
X-1656271Y-64488D01*
X-1671667Y-58110D01*
X-1688332D01*
X-1703729Y-64488D01*
X-1715512Y-76271D01*
X-1721890Y-91668D01*
Y-108333D01*
X-1715512Y-123729D01*
X-1703729Y-135513D01*
X-1688332Y-141890D01*
X-1671667D01*
X-1656271Y-135513D01*
X-1655721Y-134962D01*
X-1352437D01*
X-1132675Y-354724D01*
X-1132674Y-354724D01*
X-1121332Y-362303D01*
X-1107952Y-364964D01*
X-1004270D01*
X-1003719Y-365515D01*
X-988323Y-371893D01*
X-971658D01*
X-956262Y-365515D01*
X-955711Y-364964D01*
X-830003D01*
X-816623Y-362303D01*
X-805281Y-354724D01*
X-754590Y-304034D01*
X-741890Y-308333D01*
X-735513Y-323729D01*
X-723729Y-335512D01*
X-708333Y-341890D01*
X-691668D01*
X-676271Y-335512D01*
X-664488Y-323729D01*
X-658110Y-308332D01*
Y-291667D01*
X-664488Y-276271D01*
X-676271Y-264487D01*
X-691668Y-258110D01*
X-708333D01*
X-723729Y-264487D01*
X-725734Y-266492D01*
X-738434Y-261232D01*
Y-138768D01*
X-725734Y-133508D01*
X-723729Y-135513D01*
X-708333Y-141890D01*
X-691668D01*
X-676271Y-135513D01*
X-664488Y-123729D01*
X-658110Y-108333D01*
Y-91668D01*
X-664488Y-76271D01*
X-676271Y-64488D01*
X-691668Y-58110D01*
X-708333D01*
X-723729Y-64488D01*
X-725734Y-66492D01*
X-738434Y-61232D01*
Y4130D01*
X-741095Y17509D01*
X-748674Y28851D01*
X-1515038Y795216D01*
Y850721D01*
X-1514487Y851271D01*
X-1508110Y866668D01*
Y883332D01*
X-1514487Y898729D01*
X-1526271Y910513D01*
X-1541667Y916890D01*
X-1558332D01*
X-1573729Y910513D01*
X-1585512Y898729D01*
X-1591890Y883332D01*
Y866668D01*
X-1585512Y851271D01*
X-1584962Y850721D01*
Y780734D01*
X-1582300Y767355D01*
X-1574722Y756012D01*
X-815187Y-3523D01*
X-815865Y-6933D01*
X-818685Y-8980D01*
X-830008Y-12940D01*
X-841668Y-8110D01*
X-858333D01*
X-860048Y-8821D01*
X-1284435Y415565D01*
X-1291576Y420337D01*
X-1300000Y422013D01*
X-1440882D01*
X-1690487Y671618D01*
Y912500D01*
X-1692163Y920924D01*
X-1696935Y928065D01*
X-1808821Y1039951D01*
X-1808110Y1041667D01*
Y1058332D01*
X-1814488Y1073729D01*
X-1826271Y1085512D01*
X-1841668Y1091890D01*
D02*
G37*
G36*
X2508333Y-58110D02*
X2491668D01*
X2476271Y-64487D01*
X2464488Y-76271D01*
X2458110Y-91667D01*
Y-108332D01*
X2464488Y-123728D01*
X2476271Y-135512D01*
X2491668Y-141889D01*
X2508333D01*
X2523729Y-135512D01*
X2535513Y-123728D01*
X2541890Y-108332D01*
Y-91667D01*
X2535513Y-76271D01*
X2523729Y-64487D01*
X2508333Y-58110D01*
D02*
G37*
G36*
X1304573Y-95137D02*
X1287908D01*
X1272512Y-101515D01*
X1260728Y-113299D01*
X1254351Y-128695D01*
Y-145360D01*
X1260728Y-160756D01*
X1272512Y-172540D01*
X1287908Y-178917D01*
X1304573D01*
X1319969Y-172540D01*
X1331753Y-160756D01*
X1338131Y-145360D01*
Y-128695D01*
X1331753Y-113299D01*
X1319969Y-101515D01*
X1304573Y-95137D01*
D02*
G37*
G36*
X2223546Y-16510D02*
X2194454D01*
X2166353Y-24040D01*
X2141158Y-38586D01*
X2120586Y-59158D01*
X2106040Y-84353D01*
X2098510Y-112454D01*
Y-141547D01*
X2106040Y-169648D01*
X2120586Y-194843D01*
X2141158Y-215414D01*
X2166353Y-229961D01*
X2194454Y-237490D01*
X2223546D01*
X2251648Y-229961D01*
X2276843Y-215414D01*
X2297414Y-194843D01*
X2311961Y-169648D01*
X2319490Y-141547D01*
Y-112454D01*
X2311961Y-84353D01*
X2297414Y-59158D01*
X2276843Y-38586D01*
X2251648Y-24040D01*
X2223546Y-16510D01*
D02*
G37*
G36*
X1969546D02*
X1940454D01*
X1912353Y-24040D01*
X1887158Y-38586D01*
X1866586Y-59158D01*
X1852040Y-84353D01*
X1844510Y-112454D01*
Y-141547D01*
X1852040Y-169648D01*
X1866586Y-194843D01*
X1887158Y-215414D01*
X1912353Y-229961D01*
X1940454Y-237490D01*
X1969546D01*
X1997648Y-229961D01*
X2022843Y-215414D01*
X2043414Y-194843D01*
X2057961Y-169648D01*
X2065490Y-141547D01*
Y-112454D01*
X2057961Y-84353D01*
X2043414Y-59158D01*
X2022843Y-38586D01*
X1997648Y-24040D01*
X1969546Y-16510D01*
D02*
G37*
G36*
X1508330Y-158108D02*
X1491665D01*
X1476269Y-164485D01*
X1464485Y-176269D01*
X1458108Y-191665D01*
Y-208330D01*
X1464485Y-223726D01*
X1476269Y-235510D01*
X1491665Y-241888D01*
X1508330D01*
X1523726Y-235510D01*
X1535510Y-223726D01*
X1541887Y-208330D01*
Y-191665D01*
X1535510Y-176269D01*
X1523726Y-164485D01*
X1508330Y-158108D01*
D02*
G37*
G36*
X1408330D02*
X1391665D01*
X1376269Y-164485D01*
X1364485Y-176269D01*
X1358108Y-191665D01*
Y-208330D01*
X1364485Y-223726D01*
X1376269Y-235510D01*
X1391665Y-241888D01*
X1408330D01*
X1423726Y-235510D01*
X1435510Y-223726D01*
X1441887Y-208330D01*
Y-191665D01*
X1435510Y-176269D01*
X1423726Y-164485D01*
X1408330Y-158108D01*
D02*
G37*
G36*
X-1986767Y-247610D02*
X-2003233D01*
X-2018445Y-253911D01*
X-2030089Y-265554D01*
X-2036390Y-280767D01*
Y-297233D01*
X-2030089Y-312445D01*
X-2018445Y-324089D01*
X-2003233Y-330390D01*
X-1986767D01*
X-1971554Y-324089D01*
X-1959911Y-312445D01*
X-1953610Y-297233D01*
Y-280767D01*
X-1959911Y-265554D01*
X-1971554Y-253911D01*
X-1986767Y-247610D01*
D02*
G37*
G36*
X2508333Y-258109D02*
X2491668D01*
X2476271Y-264487D01*
X2464488Y-276271D01*
X2458110Y-291667D01*
Y-308332D01*
X2464488Y-323728D01*
X2476271Y-335512D01*
X2491668Y-341889D01*
X2508333D01*
X2523729Y-335512D01*
X2535513Y-323728D01*
X2541890Y-308332D01*
Y-291667D01*
X2535513Y-276271D01*
X2523729Y-264487D01*
X2508333Y-258109D01*
D02*
G37*
G36*
X533332Y-258110D02*
X516667D01*
X501271Y-264487D01*
X489487Y-276271D01*
X483110Y-291667D01*
Y-308332D01*
X489487Y-323729D01*
X501271Y-335512D01*
X516667Y-341890D01*
X533332D01*
X548729Y-335512D01*
X560512Y-323729D01*
X566890Y-308332D01*
Y-291667D01*
X560512Y-276271D01*
X548729Y-264487D01*
X533332Y-258110D01*
D02*
G37*
G36*
X753333Y-358110D02*
X736668D01*
X721272Y-364487D01*
X709488Y-376271D01*
X703111Y-391667D01*
Y-408332D01*
X709488Y-423728D01*
X721272Y-435512D01*
X736668Y-441890D01*
X753333D01*
X768729Y-435512D01*
X780513Y-423728D01*
X786890Y-408332D01*
Y-391667D01*
X780513Y-376271D01*
X768729Y-364487D01*
X753333Y-358110D01*
D02*
G37*
G36*
X1008333Y-358110D02*
X991668D01*
X976271Y-364487D01*
X964488Y-376271D01*
X958110Y-391667D01*
Y-408332D01*
X964488Y-423729D01*
X976271Y-435512D01*
X991668Y-441890D01*
X1008333D01*
X1023729Y-435512D01*
X1035513Y-423729D01*
X1041890Y-408332D01*
Y-391667D01*
X1035513Y-376271D01*
X1023729Y-364487D01*
X1008333Y-358110D01*
D02*
G37*
G36*
X2223546Y-270510D02*
X2194454D01*
X2166353Y-278040D01*
X2141158Y-292586D01*
X2120586Y-313158D01*
X2106040Y-338353D01*
X2098510Y-366454D01*
Y-395547D01*
X2106040Y-423648D01*
X2120586Y-448843D01*
X2141158Y-469414D01*
X2166353Y-483961D01*
X2194454Y-491490D01*
X2223546D01*
X2251648Y-483961D01*
X2276843Y-469414D01*
X2297414Y-448843D01*
X2311961Y-423648D01*
X2319490Y-395547D01*
Y-366454D01*
X2311961Y-338353D01*
X2297414Y-313158D01*
X2276843Y-292586D01*
X2251648Y-278040D01*
X2223546Y-270510D01*
D02*
G37*
G36*
X1969546D02*
X1940454D01*
X1912353Y-278040D01*
X1887158Y-292586D01*
X1866586Y-313158D01*
X1852040Y-338353D01*
X1844510Y-366454D01*
Y-395547D01*
X1852040Y-423648D01*
X1866586Y-448843D01*
X1887158Y-469414D01*
X1912353Y-483961D01*
X1940454Y-491490D01*
X1969546D01*
X1997648Y-483961D01*
X2022843Y-469414D01*
X2043414Y-448843D01*
X2057961Y-423648D01*
X2065490Y-395547D01*
Y-366454D01*
X2057961Y-338353D01*
X2043414Y-313158D01*
X2022843Y-292586D01*
X1997648Y-278040D01*
X1969546Y-270510D01*
D02*
G37*
G36*
X2508333Y-458109D02*
X2491668D01*
X2476271Y-464487D01*
X2464488Y-476271D01*
X2458110Y-491667D01*
Y-508332D01*
X2464488Y-523728D01*
X2476271Y-535512D01*
X2491668Y-541889D01*
X2508333D01*
X2523729Y-535512D01*
X2535513Y-523728D01*
X2541890Y-508332D01*
Y-491667D01*
X2535513Y-476271D01*
X2523729Y-464487D01*
X2508333Y-458109D01*
D02*
G37*
G36*
Y-658109D02*
X2491668D01*
X2476271Y-664487D01*
X2464488Y-676270D01*
X2458110Y-691667D01*
Y-708332D01*
X2464488Y-723728D01*
X2476271Y-735512D01*
X2491668Y-741889D01*
X2508333D01*
X2523729Y-735512D01*
X2535513Y-723728D01*
X2541890Y-708332D01*
Y-691667D01*
X2535513Y-676270D01*
X2523729Y-664487D01*
X2508333Y-658109D01*
D02*
G37*
G36*
X2308333D02*
X2291668D01*
X2276272Y-664487D01*
X2264488Y-676270D01*
X2258110Y-691667D01*
Y-708332D01*
X2264488Y-723728D01*
X2276272Y-735512D01*
X2291668Y-741889D01*
X2308333D01*
X2323729Y-735512D01*
X2335513Y-723728D01*
X2341890Y-708332D01*
Y-691667D01*
X2335513Y-676270D01*
X2323729Y-664487D01*
X2308333Y-658109D01*
D02*
G37*
G36*
X2108333D02*
X2091668D01*
X2076272Y-664487D01*
X2064488Y-676270D01*
X2058110Y-691667D01*
Y-708332D01*
X2064488Y-723728D01*
X2076272Y-735512D01*
X2091668Y-741889D01*
X2108333D01*
X2123729Y-735512D01*
X2135513Y-723728D01*
X2141890Y-708332D01*
Y-691667D01*
X2135513Y-676270D01*
X2123729Y-664487D01*
X2108333Y-658109D01*
D02*
G37*
G36*
X1508333D02*
X1491668D01*
X1476272Y-664487D01*
X1464488Y-676270D01*
X1458111Y-691667D01*
Y-708332D01*
X1464488Y-723728D01*
X1476272Y-735512D01*
X1491668Y-741889D01*
X1508333D01*
X1523729Y-735512D01*
X1535513Y-723728D01*
X1541891Y-708332D01*
Y-691667D01*
X1535513Y-676270D01*
X1523729Y-664487D01*
X1508333Y-658109D01*
D02*
G37*
G36*
X1308333D02*
X1291668D01*
X1276272Y-664487D01*
X1264488Y-676270D01*
X1258111Y-691667D01*
Y-708332D01*
X1264488Y-723728D01*
X1276272Y-735512D01*
X1291668Y-741889D01*
X1308333D01*
X1323730Y-735512D01*
X1335513Y-723728D01*
X1341891Y-708332D01*
Y-691667D01*
X1335513Y-676270D01*
X1323730Y-664487D01*
X1308333Y-658109D01*
D02*
G37*
G36*
X1108334D02*
X1091669D01*
X1076272Y-664487D01*
X1064489Y-676270D01*
X1058111Y-691667D01*
Y-708332D01*
X1064489Y-723728D01*
X1076272Y-735512D01*
X1091669Y-741889D01*
X1108334D01*
X1123730Y-735512D01*
X1135514Y-723728D01*
X1141891Y-708332D01*
Y-691667D01*
X1135514Y-676270D01*
X1123730Y-664487D01*
X1108334Y-658109D01*
D02*
G37*
G36*
X908334D02*
X891669D01*
X876273Y-664487D01*
X864489Y-676270D01*
X858111Y-691667D01*
Y-708332D01*
X864489Y-723728D01*
X876273Y-735512D01*
X891669Y-741889D01*
X908334D01*
X923730Y-735512D01*
X935514Y-723728D01*
X941891Y-708332D01*
Y-691667D01*
X935514Y-676270D01*
X923730Y-664487D01*
X908334Y-658109D01*
D02*
G37*
G36*
X708334D02*
X691669D01*
X676273Y-664487D01*
X664489Y-676270D01*
X658111Y-691667D01*
Y-708332D01*
X664489Y-723728D01*
X676273Y-735512D01*
X691669Y-741889D01*
X708334D01*
X723730Y-735512D01*
X735514Y-723728D01*
X741891Y-708332D01*
Y-691667D01*
X735514Y-676270D01*
X723730Y-664487D01*
X708334Y-658109D01*
D02*
G37*
G36*
X508334D02*
X491669D01*
X476273Y-664487D01*
X464489Y-676270D01*
X458112Y-691667D01*
Y-708332D01*
X464489Y-723728D01*
X476273Y-735512D01*
X491669Y-741889D01*
X508334D01*
X523730Y-735512D01*
X535514Y-723728D01*
X541891Y-708332D01*
Y-691667D01*
X535514Y-676270D01*
X523730Y-664487D01*
X508334Y-658109D01*
D02*
G37*
G36*
X308334D02*
X291669D01*
X276273Y-664487D01*
X264489Y-676270D01*
X258112Y-691667D01*
Y-708332D01*
X264489Y-723728D01*
X276273Y-735512D01*
X291669Y-741889D01*
X308334D01*
X323730Y-735512D01*
X335514Y-723728D01*
X341892Y-708332D01*
Y-691667D01*
X335514Y-676270D01*
X323730Y-664487D01*
X308334Y-658109D01*
D02*
G37*
G36*
X108334D02*
X91669D01*
X76273Y-664487D01*
X64489Y-676270D01*
X58112Y-691667D01*
Y-708332D01*
X64489Y-723728D01*
X76273Y-735512D01*
X91669Y-741889D01*
X108334D01*
X123731Y-735512D01*
X135514Y-723728D01*
X141892Y-708332D01*
Y-691667D01*
X135514Y-676270D01*
X123731Y-664487D01*
X108334Y-658109D01*
D02*
G37*
G36*
X-291665D02*
X-308330D01*
X-323727Y-664487D01*
X-335510Y-676270D01*
X-341888Y-691667D01*
Y-708332D01*
X-335510Y-723728D01*
X-323727Y-735512D01*
X-308330Y-741889D01*
X-291665D01*
X-276269Y-735512D01*
X-264485Y-723728D01*
X-258108Y-708332D01*
Y-691667D01*
X-264485Y-676270D01*
X-276269Y-664487D01*
X-291665Y-658109D01*
D02*
G37*
G36*
X-491665D02*
X-508330D01*
X-523726Y-664487D01*
X-535510Y-676270D01*
X-541888Y-691667D01*
Y-708332D01*
X-535510Y-723728D01*
X-523726Y-735512D01*
X-508330Y-741889D01*
X-491665D01*
X-476269Y-735512D01*
X-464485Y-723728D01*
X-458108Y-708332D01*
Y-691667D01*
X-464485Y-676270D01*
X-476269Y-664487D01*
X-491665Y-658109D01*
D02*
G37*
G36*
X-691668Y-658110D02*
X-708333D01*
X-723729Y-664488D01*
X-735513Y-676271D01*
X-741890Y-691668D01*
Y-708333D01*
X-735513Y-723729D01*
X-723729Y-735513D01*
X-708333Y-741890D01*
X-691668D01*
X-676271Y-735513D01*
X-664488Y-723729D01*
X-658110Y-708333D01*
Y-691668D01*
X-664488Y-676271D01*
X-676271Y-664488D01*
X-691668Y-658110D01*
D02*
G37*
G36*
X1620574Y-881110D02*
X1579426D01*
X1539069Y-889138D01*
X1501054Y-904884D01*
X1466841Y-927745D01*
X1437745Y-956841D01*
X1414884Y-991054D01*
X1399138Y-1029069D01*
X1391110Y-1069426D01*
Y-1110574D01*
X1399138Y-1150931D01*
X1414884Y-1188947D01*
X1437745Y-1223160D01*
X1466841Y-1252255D01*
X1501054Y-1275116D01*
X1526986Y-1285857D01*
Y-2214143D01*
X1501054Y-2224884D01*
X1466841Y-2247745D01*
X1437745Y-2276841D01*
X1414884Y-2311054D01*
X1399138Y-2349069D01*
X1391110Y-2389426D01*
Y-2430574D01*
X1399138Y-2470931D01*
X1414884Y-2508946D01*
X1437745Y-2543160D01*
X1466841Y-2572255D01*
X1501054Y-2595116D01*
X1539069Y-2610862D01*
X1579426Y-2618890D01*
X1620574D01*
X1660931Y-2610862D01*
X1698947Y-2595116D01*
X1733160Y-2572255D01*
X1762255Y-2543160D01*
X1785116Y-2508946D01*
X1800862Y-2470931D01*
X1808890Y-2430574D01*
Y-2389426D01*
X1800862Y-2349069D01*
X1785116Y-2311054D01*
X1762255Y-2276841D01*
X1733160Y-2247745D01*
X1698947Y-2224884D01*
X1673015Y-2214143D01*
Y-1285857D01*
X1698947Y-1275116D01*
X1733160Y-1252255D01*
X1762255Y-1223160D01*
X1785116Y-1188947D01*
X1800862Y-1150931D01*
X1808890Y-1110574D01*
Y-1069426D01*
X1800862Y-1029069D01*
X1785116Y-991054D01*
X1762255Y-956841D01*
X1733160Y-927745D01*
X1698947Y-904884D01*
X1660931Y-889138D01*
X1620574Y-881110D01*
D02*
G37*
G36*
X2408332Y-2958110D02*
X2391668D01*
X2376271Y-2964487D01*
X2364488Y-2976271D01*
X2358110Y-2991667D01*
Y-3008332D01*
X2364488Y-3023729D01*
X2376271Y-3035512D01*
X2391668Y-3041890D01*
X2408332D01*
X2423729Y-3035512D01*
X2435513Y-3023729D01*
X2441890Y-3008332D01*
Y-2991667D01*
X2435513Y-2976271D01*
X2423729Y-2964487D01*
X2408332Y-2958110D01*
D02*
G37*
G36*
X2308332D02*
X2291668D01*
X2276271Y-2964487D01*
X2264487Y-2976271D01*
X2258110Y-2991667D01*
Y-3008332D01*
X2264487Y-3023729D01*
X2276271Y-3035512D01*
X2291668Y-3041890D01*
X2308332D01*
X2323729Y-3035512D01*
X2335512Y-3023729D01*
X2341890Y-3008332D01*
Y-2991667D01*
X2335512Y-2976271D01*
X2323729Y-2964487D01*
X2308332Y-2958110D01*
D02*
G37*
G36*
X1164751Y-3091511D02*
X1148086D01*
X1132689Y-3097889D01*
X1120906Y-3109672D01*
X1118624Y-3115181D01*
X1104877D01*
X1102596Y-3109673D01*
X1090812Y-3097889D01*
X1075416Y-3091512D01*
X1058751D01*
X1043355Y-3097889D01*
X1031571Y-3109673D01*
X1025193Y-3125069D01*
Y-3141734D01*
X1031571Y-3157130D01*
X1043355Y-3168914D01*
X1058751Y-3175292D01*
X1075416D01*
X1090812Y-3168914D01*
X1102596Y-3157130D01*
X1104877Y-3151622D01*
X1118624D01*
X1120906Y-3157130D01*
X1132689Y-3168914D01*
X1148086Y-3175291D01*
X1164751D01*
X1180147Y-3168914D01*
X1191931Y-3157130D01*
X1198308Y-3141734D01*
Y-3125069D01*
X1191931Y-3109672D01*
X1180147Y-3097889D01*
X1164751Y-3091511D01*
D02*
G37*
G36*
X1948071Y-3158209D02*
X1931406D01*
X1916010Y-3164587D01*
X1904226Y-3176371D01*
X1897849Y-3191767D01*
Y-3208432D01*
X1904226Y-3223828D01*
X1916010Y-3235612D01*
X1922703Y-3238384D01*
Y-3252130D01*
X1916010Y-3254903D01*
X1904226Y-3266686D01*
X1897849Y-3282083D01*
Y-3298748D01*
X1904226Y-3314144D01*
X1916010Y-3325928D01*
X1931406Y-3332305D01*
X1948071D01*
X1963467Y-3325928D01*
X1975251Y-3314144D01*
X1981629Y-3298748D01*
Y-3282083D01*
X1975251Y-3266686D01*
X1963467Y-3254903D01*
X1956775Y-3252130D01*
Y-3238384D01*
X1963467Y-3235612D01*
X1975251Y-3223828D01*
X1981629Y-3208432D01*
Y-3191767D01*
X1975251Y-3176371D01*
X1963467Y-3164587D01*
X1948071Y-3158209D01*
D02*
G37*
G36*
X-2091668Y-3608110D02*
X-2108333D01*
X-2123729Y-3614488D01*
X-2135513Y-3626271D01*
X-2141890Y-3641668D01*
Y-3658333D01*
X-2135513Y-3673729D01*
X-2123729Y-3685513D01*
X-2108333Y-3691890D01*
X-2091668D01*
X-2076271Y-3685513D01*
X-2064488Y-3673729D01*
X-2058110Y-3658333D01*
Y-3641668D01*
X-2064488Y-3626271D01*
X-2076271Y-3614488D01*
X-2091668Y-3608110D01*
D02*
G37*
G36*
X816985Y-3451110D02*
X783047D01*
X750266Y-3459894D01*
X720876Y-3476862D01*
X696878Y-3500860D01*
X679910Y-3530250D01*
X671126Y-3563031D01*
Y-3596969D01*
X679910Y-3629750D01*
X696878Y-3659140D01*
X720876Y-3683138D01*
X750266Y-3700106D01*
X783047Y-3708890D01*
X816985D01*
X849766Y-3700106D01*
X879156Y-3683138D01*
X903154Y-3659140D01*
X920123Y-3629750D01*
X928906Y-3596969D01*
Y-3563031D01*
X920123Y-3530250D01*
X903154Y-3500860D01*
X879156Y-3476862D01*
X849766Y-3459894D01*
X816985Y-3451110D01*
D02*
G37*
G36*
X-1124326Y-3925453D02*
X-1140991D01*
X-1156387Y-3931830D01*
X-1168171Y-3943614D01*
X-1174548Y-3959010D01*
Y-3975675D01*
X-1168171Y-3991071D01*
X-1156387Y-4002855D01*
X-1140991Y-4009233D01*
X-1124326D01*
X-1108930Y-4002855D01*
X-1097146Y-3991071D01*
X-1090768Y-3975675D01*
Y-3959010D01*
X-1097146Y-3943614D01*
X-1108930Y-3931830D01*
X-1124326Y-3925453D01*
D02*
G37*
G36*
X-1691668Y-4158111D02*
X-1708333D01*
X-1723729Y-4164488D01*
X-1735513Y-4176272D01*
X-1741890Y-4191669D01*
Y-4208333D01*
X-1735513Y-4223730D01*
X-1723729Y-4235513D01*
X-1708333Y-4241891D01*
X-1691668D01*
X-1676271Y-4235513D01*
X-1664488Y-4223730D01*
X-1658110Y-4208333D01*
Y-4191669D01*
X-1664488Y-4176272D01*
X-1676271Y-4164488D01*
X-1691668Y-4158111D01*
D02*
G37*
G36*
X600016Y-3490378D02*
X-1750000D01*
X-1756804Y-3493196D01*
X-1759623Y-3500000D01*
Y-3700000D01*
X-1756804Y-3706804D01*
X-1750000Y-3709623D01*
X-1203970D01*
X-608874Y-4304719D01*
Y-4308890D01*
X-601752D01*
X-599984Y-4309623D01*
X600016D01*
X601785Y-4308890D01*
X608906D01*
Y-4301769D01*
X609639Y-4300000D01*
Y-3500000D01*
X606820Y-3493196D01*
X600016Y-3490378D01*
D02*
G37*
G36*
X717607Y-4229292D02*
X700942D01*
X685546Y-4235669D01*
X673762Y-4247453D01*
X667384Y-4262849D01*
Y-4279514D01*
X673762Y-4294910D01*
X685546Y-4306694D01*
X700942Y-4313071D01*
X717607D01*
X733003Y-4306694D01*
X744787Y-4294910D01*
X751164Y-4279514D01*
Y-4262849D01*
X744787Y-4247453D01*
X733003Y-4235669D01*
X717607Y-4229292D01*
D02*
G37*
G36*
X1158332Y-4258110D02*
X1141667D01*
X1126271Y-4264488D01*
X1114487Y-4276271D01*
X1108110Y-4291668D01*
Y-4308333D01*
X1114487Y-4323729D01*
X1126271Y-4335513D01*
X1141667Y-4341890D01*
X1158332D01*
X1173728Y-4335513D01*
X1185512Y-4323729D01*
X1191890Y-4308333D01*
Y-4291668D01*
X1185512Y-4276271D01*
X1173728Y-4264488D01*
X1158332Y-4258110D01*
D02*
G37*
G36*
X1058332D02*
X1041667D01*
X1026271Y-4264488D01*
X1014487Y-4276271D01*
X1008110Y-4291668D01*
Y-4308333D01*
X1014487Y-4323729D01*
X1026271Y-4335513D01*
X1041667Y-4341890D01*
X1058332D01*
X1073729Y-4335513D01*
X1085512Y-4323729D01*
X1091890Y-4308333D01*
Y-4291668D01*
X1085512Y-4276271D01*
X1073729Y-4264488D01*
X1058332Y-4258110D01*
D02*
G37*
G36*
X958332D02*
X941667D01*
X926271Y-4264488D01*
X914487Y-4276271D01*
X908110Y-4291668D01*
Y-4308333D01*
X914487Y-4323729D01*
X918794Y-4328036D01*
X915815Y-4343016D01*
X911181Y-4344936D01*
X899397Y-4356720D01*
X893020Y-4372116D01*
Y-4388781D01*
X899397Y-4404177D01*
X911181Y-4415961D01*
X918657Y-4419058D01*
X916131Y-4431758D01*
X915801D01*
X900405Y-4438135D01*
X888621Y-4449919D01*
X882243Y-4465315D01*
Y-4481980D01*
X888621Y-4497376D01*
X900405Y-4509160D01*
X915801Y-4515538D01*
X932466D01*
X947862Y-4509160D01*
X959646Y-4497376D01*
X966023Y-4481980D01*
Y-4465315D01*
X959646Y-4449919D01*
X947862Y-4438135D01*
X940386Y-4435038D01*
X942912Y-4422338D01*
X943242D01*
X958638Y-4415961D01*
X970422Y-4404177D01*
X976799Y-4388781D01*
Y-4372116D01*
X970422Y-4356720D01*
X966115Y-4352413D01*
X969095Y-4337432D01*
X973729Y-4335513D01*
X985512Y-4323729D01*
X991890Y-4308333D01*
Y-4291668D01*
X985512Y-4276271D01*
X973729Y-4264488D01*
X958332Y-4258110D01*
D02*
G37*
G36*
X871035Y-4684362D02*
X858348D01*
X846627Y-4689217D01*
X837657Y-4698188D01*
X832802Y-4709909D01*
Y-4722596D01*
X837657Y-4734316D01*
X846627Y-4743287D01*
X858348Y-4748142D01*
X871035D01*
X882756Y-4743287D01*
X891727Y-4734316D01*
X896582Y-4722596D01*
Y-4709909D01*
X891727Y-4698188D01*
X882756Y-4689217D01*
X871035Y-4684362D01*
D02*
G37*
G36*
X-180000Y-4733863D02*
X-217300D01*
Y-4807300D01*
X-95535D01*
X-96798Y-4797706D01*
X-105403Y-4776932D01*
X-119092Y-4759092D01*
X-136932Y-4745404D01*
X-157706Y-4736798D01*
X-180000Y-4733863D01*
D02*
G37*
G36*
X-242700D02*
X-280000D01*
X-302294Y-4736798D01*
X-323068Y-4745404D01*
X-340908Y-4759092D01*
X-354597Y-4776932D01*
X-363202Y-4797706D01*
X-364465Y-4807300D01*
X-242700D01*
Y-4733863D01*
D02*
G37*
G36*
X-95535Y-4832700D02*
X-217300D01*
Y-4906137D01*
X-180000D01*
X-157706Y-4903202D01*
X-136932Y-4894597D01*
X-119092Y-4880908D01*
X-105403Y-4863069D01*
X-96798Y-4842294D01*
X-95535Y-4832700D01*
D02*
G37*
G36*
X-242700D02*
X-364465D01*
X-363202Y-4842294D01*
X-354597Y-4863069D01*
X-340908Y-4880908D01*
X-323068Y-4894597D01*
X-302294Y-4903202D01*
X-280000Y-4906137D01*
X-242700D01*
Y-4832700D01*
D02*
G37*
G36*
X-460000Y-4720516D02*
X-477984Y-4722883D01*
X-494742Y-4729825D01*
X-509133Y-4740867D01*
X-520175Y-4755258D01*
X-527117Y-4772016D01*
X-529484Y-4790000D01*
Y-4890000D01*
X-527117Y-4907984D01*
X-520175Y-4924742D01*
X-509133Y-4939133D01*
X-494742Y-4950175D01*
X-477984Y-4957117D01*
X-460000Y-4959484D01*
X-442016Y-4957117D01*
X-425258Y-4950175D01*
X-410867Y-4939133D01*
X-399825Y-4924742D01*
X-392883Y-4907984D01*
X-390516Y-4890000D01*
Y-4790000D01*
X-392883Y-4772016D01*
X-399825Y-4755258D01*
X-410867Y-4740867D01*
X-425258Y-4729825D01*
X-442016Y-4722883D01*
X-460000Y-4720516D01*
D02*
G37*
G36*
X-750000D02*
X-767984Y-4722883D01*
X-784742Y-4729825D01*
X-799133Y-4740867D01*
X-810175Y-4755258D01*
X-817117Y-4772016D01*
X-819485Y-4790000D01*
Y-4890000D01*
X-817117Y-4907984D01*
X-810175Y-4924742D01*
X-799133Y-4939133D01*
X-784742Y-4950175D01*
X-767984Y-4957117D01*
X-750000Y-4959484D01*
X-732016Y-4957117D01*
X-715258Y-4950175D01*
X-700868Y-4939133D01*
X-689825Y-4924742D01*
X-682884Y-4907984D01*
X-680516Y-4890000D01*
Y-4790000D01*
X-682884Y-4772016D01*
X-689825Y-4755258D01*
X-700868Y-4740867D01*
X-715258Y-4729825D01*
X-732016Y-4722883D01*
X-750000Y-4720516D01*
D02*
G37*
G36*
X808332Y-5008110D02*
X791667D01*
X776271Y-5014488D01*
X764487Y-5026271D01*
X758110Y-5041668D01*
Y-5058333D01*
X764487Y-5073729D01*
X776271Y-5085513D01*
X791667Y-5091890D01*
X808332D01*
X823729Y-5085513D01*
X835512Y-5073729D01*
X841890Y-5058333D01*
Y-5041668D01*
X835512Y-5026271D01*
X823729Y-5014488D01*
X808332Y-5008110D01*
D02*
G37*
G36*
X-610000Y-4920515D02*
X-627984Y-4922883D01*
X-644742Y-4929825D01*
X-659133Y-4940867D01*
X-670175Y-4955258D01*
X-677117Y-4972016D01*
X-679484Y-4990000D01*
Y-5090000D01*
X-677117Y-5107984D01*
X-670175Y-5124742D01*
X-659133Y-5139133D01*
X-644742Y-5150175D01*
X-627984Y-5157117D01*
X-610000Y-5159484D01*
X-592016Y-5157117D01*
X-575258Y-5150175D01*
X-560867Y-5139133D01*
X-549825Y-5124742D01*
X-542883Y-5107984D01*
X-540516Y-5090000D01*
Y-4990000D01*
X-542883Y-4972016D01*
X-549825Y-4955258D01*
X-560867Y-4940867D01*
X-575258Y-4929825D01*
X-592016Y-4922883D01*
X-610000Y-4920515D01*
D02*
G37*
G36*
X558332Y-5082449D02*
X541667D01*
X526271Y-5088826D01*
X514487Y-5100610D01*
X508110Y-5116007D01*
Y-5132671D01*
X514487Y-5148068D01*
X526271Y-5159852D01*
X541667Y-5166229D01*
X558332D01*
X573729Y-5159852D01*
X585512Y-5148068D01*
X591890Y-5132671D01*
Y-5116007D01*
X585512Y-5100610D01*
X573729Y-5088826D01*
X558332Y-5082449D01*
D02*
G37*
G36*
X-287292Y-5086110D02*
X-312709D01*
X-336191Y-5095837D01*
X-354163Y-5113809D01*
X-363890Y-5137291D01*
Y-5162708D01*
X-354163Y-5186191D01*
X-336191Y-5204163D01*
X-312709Y-5213890D01*
X-287292D01*
X-263809Y-5204163D01*
X-245837Y-5186191D01*
X-236110Y-5162708D01*
Y-5137291D01*
X-245837Y-5113809D01*
X-263809Y-5095837D01*
X-287292Y-5086110D01*
D02*
G37*
G36*
X60000Y-5030515D02*
X42016Y-5032883D01*
X25258Y-5039825D01*
X10867Y-5050867D01*
X-175Y-5065258D01*
X-7117Y-5082016D01*
X-9484Y-5100000D01*
Y-5200000D01*
X-7117Y-5217984D01*
X-175Y-5234742D01*
X10867Y-5249133D01*
X25258Y-5260175D01*
X42016Y-5267117D01*
X60000Y-5269484D01*
X77984Y-5267117D01*
X94742Y-5260175D01*
X109133Y-5249133D01*
X120175Y-5234742D01*
X127117Y-5217984D01*
X129484Y-5200000D01*
Y-5100000D01*
X127117Y-5082016D01*
X120175Y-5065258D01*
X109133Y-5050867D01*
X94742Y-5039825D01*
X77984Y-5032883D01*
X60000Y-5030515D01*
D02*
G37*
G36*
X338000Y-5263671D02*
X262700D01*
Y-5387300D01*
X386328D01*
Y-5312000D01*
X382650Y-5293505D01*
X372173Y-5277826D01*
X356494Y-5267350D01*
X338000Y-5263671D01*
D02*
G37*
G36*
X237300D02*
X162000D01*
X143505Y-5267350D01*
X127826Y-5277826D01*
X117350Y-5293505D01*
X113671Y-5312000D01*
Y-5387300D01*
X237300D01*
Y-5263671D01*
D02*
G37*
G36*
X386328Y-5412700D02*
X262700D01*
Y-5536329D01*
X338000D01*
X356494Y-5532650D01*
X372173Y-5522173D01*
X382650Y-5506494D01*
X386328Y-5488000D01*
Y-5412700D01*
D02*
G37*
G36*
X-722000Y-5513671D02*
X-797300D01*
Y-5637300D01*
X-673671D01*
Y-5562000D01*
X-677350Y-5543505D01*
X-687827Y-5527826D01*
X-703506Y-5517350D01*
X-722000Y-5513671D01*
D02*
G37*
G36*
X-822700D02*
X-898000D01*
X-916495Y-5517350D01*
X-932174Y-5527826D01*
X-942650Y-5543505D01*
X-946329Y-5562000D01*
Y-5637300D01*
X-822700D01*
Y-5513671D01*
D02*
G37*
G36*
X-287292Y-5586110D02*
X-312709D01*
X-336191Y-5595837D01*
X-354163Y-5613809D01*
X-363890Y-5637291D01*
Y-5662708D01*
X-354163Y-5686191D01*
X-336191Y-5704163D01*
X-312709Y-5713890D01*
X-287292D01*
X-263809Y-5704163D01*
X-245837Y-5686191D01*
X-236110Y-5662708D01*
Y-5637291D01*
X-245837Y-5613809D01*
X-263809Y-5595837D01*
X-287292Y-5586110D01*
D02*
G37*
G36*
X237300Y-5412700D02*
X113671D01*
Y-5488000D01*
X117350Y-5506494D01*
X127145Y-5521154D01*
X127625Y-5523215D01*
X125212Y-5535701D01*
X115258Y-5539825D01*
X100867Y-5550867D01*
X89825Y-5565258D01*
X82883Y-5582016D01*
X80516Y-5600000D01*
Y-5700000D01*
X82883Y-5717984D01*
X89825Y-5734742D01*
X100867Y-5749133D01*
X115258Y-5760175D01*
X132016Y-5767117D01*
X150000Y-5769484D01*
X167984Y-5767117D01*
X184742Y-5760175D01*
X199133Y-5749133D01*
X210175Y-5734742D01*
X217117Y-5717984D01*
X219484Y-5700000D01*
Y-5600000D01*
X217117Y-5582016D01*
X210175Y-5565258D01*
X199133Y-5550867D01*
X196737Y-5549029D01*
X201048Y-5536329D01*
X237300D01*
Y-5412700D01*
D02*
G37*
G36*
X-673671Y-5662700D02*
X-797300D01*
Y-5786329D01*
X-722000D01*
X-703506Y-5782650D01*
X-687827Y-5772173D01*
X-677350Y-5756494D01*
X-673671Y-5738000D01*
Y-5662700D01*
D02*
G37*
G36*
X-822700D02*
X-946329D01*
Y-5738000D01*
X-942650Y-5756494D01*
X-932174Y-5772173D01*
X-916495Y-5782650D01*
X-898000Y-5786329D01*
X-822700D01*
Y-5662700D01*
D02*
G37*
%LPD*%
G36*
X449752Y3054294D02*
X298371Y2902914D01*
X286768Y2887792D01*
X279473Y2870182D01*
X276985Y2851285D01*
Y2209622D01*
X200000D01*
X194880Y2207502D01*
X182180Y2212381D01*
Y2711382D01*
X177348Y2723047D01*
X-608514Y3508909D01*
Y3561110D01*
X449752D01*
Y3054294D01*
D02*
G37*
G36*
X500000Y2000000D02*
X200000D01*
Y2200000D01*
X500000D01*
Y2000000D01*
D02*
G37*
G36*
X-900000Y-750000D02*
X-1200000D01*
Y-650000D01*
X-1100000Y-550000D01*
X-900000D01*
Y-750000D01*
D02*
G37*
G36*
X-381030Y-1276282D02*
X-365909Y-1287886D01*
X-348299Y-1295180D01*
X-329401Y-1297668D01*
X-237122D01*
Y-1350000D01*
X-234304Y-1356804D01*
X-227500Y-1359623D01*
X-69998D01*
X-63446Y-1364000D01*
Y-1445690D01*
X-353878Y-1736123D01*
X-364264Y-1751666D01*
X-367911Y-1770000D01*
Y-2851288D01*
X-538463D01*
X-545267Y-2854106D01*
X-548086Y-2860910D01*
Y-3029583D01*
X-545267Y-3036388D01*
X-538463Y-3039206D01*
X-188529D01*
X-185399Y-3037910D01*
X-32190D01*
X51314Y-3121413D01*
X46053Y-3134113D01*
X-762664D01*
X-1448407Y-2448371D01*
X-1463528Y-2436768D01*
X-1481138Y-2429473D01*
X-1500036Y-2426985D01*
X-1590378D01*
Y-2350000D01*
X-1593196Y-2343196D01*
X-1600000Y-2340378D01*
X-1626985D01*
Y-1780243D01*
X-1094757Y-1248015D01*
X-409298D01*
X-381030Y-1276282D01*
D02*
G37*
G36*
X1403333Y3313633D02*
X1416667Y3308110D01*
X1433332D01*
X1440565Y3311106D01*
X1666450Y3085222D01*
Y2117055D01*
X1671281Y2105391D01*
X1777050Y1999621D01*
Y-693748D01*
X1781882Y-705412D01*
X1911407Y-834937D01*
Y-1999137D01*
X1916238Y-2010801D01*
X2552970Y-2647533D01*
Y-3091224D01*
X2086696Y-3557499D01*
X2081864Y-3569163D01*
Y-4099660D01*
X1756797Y-4424727D01*
X1751966Y-4436391D01*
Y-4723216D01*
X1591678Y-4883504D01*
X1288508D01*
X1285512Y-4876271D01*
X1273728Y-4864488D01*
X1258332Y-4858110D01*
X1241667D01*
X1232781Y-4861791D01*
X1219286Y-4854879D01*
X1218859Y-4852950D01*
X1227946Y-4841496D01*
X1350000D01*
X1361664Y-4836664D01*
X1456833Y-4741496D01*
X1550000D01*
X1561664Y-4736664D01*
X1636664Y-4661664D01*
X1641496Y-4650000D01*
Y-4456832D01*
X2011664Y-4086664D01*
X2016496Y-4075000D01*
Y-3556833D01*
X2518677Y-3054651D01*
X2523509Y-3042987D01*
Y-2707013D01*
X2518677Y-2695348D01*
X1866496Y-2043167D01*
Y-975000D01*
X1861664Y-963336D01*
X1591496Y-693168D01*
Y1375000D01*
X1586664Y1386664D01*
X1366496Y1606832D01*
Y3286492D01*
X1373729Y3289487D01*
X1385513Y3301271D01*
X1388739Y3309059D01*
X1400831Y3314297D01*
X1403333Y3313633D01*
D02*
G37*
%LPC*%
G36*
X-68530Y3372850D02*
X-85195D01*
X-100592Y3366472D01*
X-112375Y3354688D01*
X-118753Y3339292D01*
Y3322627D01*
X-112375Y3307231D01*
X-100592Y3295447D01*
X-85195Y3289070D01*
X-68530D01*
X-53134Y3295447D01*
X-41350Y3307231D01*
X-34973Y3322627D01*
Y3339292D01*
X-41350Y3354688D01*
X-53134Y3366472D01*
X-68530Y3372850D01*
D02*
G37*
G36*
X-491668Y-1308110D02*
X-508332D01*
X-523729Y-1314488D01*
X-535513Y-1326271D01*
X-541890Y-1341668D01*
Y-1358333D01*
X-535513Y-1373729D01*
X-523729Y-1385513D01*
X-508332Y-1391890D01*
X-491668D01*
X-476271Y-1385513D01*
X-464488Y-1373729D01*
X-458110Y-1358333D01*
Y-1341668D01*
X-464488Y-1326271D01*
X-476271Y-1314488D01*
X-491668Y-1308110D01*
D02*
G37*
G36*
X-691668Y-1583110D02*
X-708333D01*
X-723729Y-1589488D01*
X-735513Y-1601271D01*
X-741890Y-1616668D01*
Y-1633333D01*
X-735513Y-1648729D01*
X-723729Y-1660513D01*
X-708333Y-1666890D01*
X-691668D01*
X-676271Y-1660513D01*
X-664488Y-1648729D01*
X-658110Y-1633333D01*
Y-1616668D01*
X-664488Y-1601271D01*
X-676271Y-1589488D01*
X-691668Y-1583110D01*
D02*
G37*
G36*
X-1291667Y-1658110D02*
X-1308332D01*
X-1323729Y-1664487D01*
X-1335512Y-1676271D01*
X-1341890Y-1691667D01*
Y-1708332D01*
X-1335512Y-1723729D01*
X-1323729Y-1735512D01*
X-1308332Y-1741890D01*
X-1291667D01*
X-1276271Y-1735512D01*
X-1264487Y-1723729D01*
X-1258110Y-1708332D01*
Y-1691667D01*
X-1264487Y-1676271D01*
X-1276271Y-1664487D01*
X-1291667Y-1658110D01*
D02*
G37*
G36*
X-781872Y-2576110D02*
X-818095D01*
X-853622Y-2583177D01*
X-887088Y-2597039D01*
X-917207Y-2617163D01*
X-942820Y-2642777D01*
X-962945Y-2672896D01*
X-976807Y-2706361D01*
X-983874Y-2741889D01*
Y-2778112D01*
X-976807Y-2813639D01*
X-962945Y-2847105D01*
X-942820Y-2877223D01*
X-917207Y-2902837D01*
X-887088Y-2922961D01*
X-853622Y-2936823D01*
X-818095Y-2943890D01*
X-781872D01*
X-746345Y-2936823D01*
X-712879Y-2922961D01*
X-682761Y-2902837D01*
X-657147Y-2877223D01*
X-637023Y-2847105D01*
X-623161Y-2813639D01*
X-616094Y-2778112D01*
Y-2741889D01*
X-623161Y-2706361D01*
X-637023Y-2672896D01*
X-657147Y-2642777D01*
X-682761Y-2617163D01*
X-712879Y-2597039D01*
X-746345Y-2583177D01*
X-781872Y-2576110D01*
D02*
G37*
G36*
X1708332Y1741890D02*
X1691667D01*
X1676271Y1735512D01*
X1664487Y1723729D01*
X1658110Y1708332D01*
Y1691667D01*
X1664487Y1676271D01*
X1676271Y1664487D01*
X1691667Y1658110D01*
X1708332D01*
X1723729Y1664487D01*
X1735512Y1676271D01*
X1741890Y1691667D01*
Y1708332D01*
X1735512Y1723729D01*
X1723729Y1735512D01*
X1708332Y1741890D01*
D02*
G37*
G36*
X1508333D02*
X1491668D01*
X1476271Y1735512D01*
X1464488Y1723729D01*
X1458110Y1708332D01*
Y1691667D01*
X1464488Y1676271D01*
X1476271Y1664487D01*
X1491668Y1658110D01*
X1508333D01*
X1523729Y1664487D01*
X1535513Y1676271D01*
X1541890Y1691667D01*
Y1708332D01*
X1535513Y1723729D01*
X1523729Y1735512D01*
X1508333Y1741890D01*
D02*
G37*
G36*
X1708333Y-658109D02*
X1691668D01*
X1676272Y-664487D01*
X1664488Y-676270D01*
X1658111Y-691667D01*
Y-708332D01*
X1664488Y-723728D01*
X1676272Y-735512D01*
X1691668Y-741889D01*
X1708333D01*
X1723729Y-735512D01*
X1735513Y-723728D01*
X1741891Y-708332D01*
Y-691667D01*
X1735513Y-676270D01*
X1723729Y-664487D01*
X1708333Y-658109D01*
D02*
G37*
%LPD*%
G36*
X600016Y-4300000D02*
X-599984D01*
X-1199984Y-3700000D01*
X-1750000D01*
Y-3500000D01*
X600016D01*
Y-4300000D01*
D02*
G37*
D10*
X-200000Y-4400000D02*
X50000D01*
X1011479Y-4829873D02*
X1043833Y-4797519D01*
X684615Y-4829873D02*
X1011479D01*
X485000Y-4480000D02*
X485000D01*
X130000D02*
X485000D01*
X50000Y-4400000D02*
X130000Y-4480000D01*
X-1850000Y-3650000D02*
Y-3550001D01*
X-2050000Y-3350000D02*
X-1850000Y-3550001D01*
X-2050000Y-3350000D02*
Y-3100000D01*
X-1900000Y-2950000D01*
Y-1450000D01*
X-1150000Y-700000D01*
X485000Y-4630257D02*
Y-4480000D01*
Y-4630257D02*
X684615Y-4829873D01*
X450000Y-5064488D02*
X684615Y-4829873D01*
X450000Y-5375000D02*
Y-5064488D01*
X-150000Y4950000D02*
X-73688Y4873688D01*
Y4811282D02*
Y4873688D01*
Y4811282D02*
X-44726Y4782320D01*
X50000Y4550000D02*
Y4724402D01*
X-7918Y4782320D02*
X50000Y4724402D01*
X-44726Y4782320D02*
X-7918D01*
X-1350000Y4700000D02*
X-1100000D01*
X-976520Y4823480D02*
Y5223480D01*
X-1100000Y4700000D02*
X-976520Y4823480D01*
Y5223480D02*
X-900000Y5300000D01*
X-1107952Y-330003D02*
X-979991D01*
X-1337955Y-100000D02*
X-1107952Y-330003D01*
X-1680000Y-100000D02*
X-1337955D01*
X-773395Y-273395D02*
Y4130D01*
X-1550000Y780734D02*
Y875000D01*
Y780734D02*
X-773395Y4130D01*
X-900000Y5300000D02*
X-560327D01*
X-500000Y5239673D01*
Y5092660D02*
Y5239673D01*
Y5092660D02*
X-357340Y4950000D01*
X-150000D01*
X-1450000Y4200000D02*
Y4600000D01*
X-1350000Y4700000D01*
X-150000Y4950000D02*
X39997Y5139997D01*
X170010D01*
X-830003Y-330003D02*
X-773395Y-273395D01*
X-979991Y-330003D02*
X-830003D01*
D12*
X1682945Y2117055D02*
Y3092055D01*
X1425000Y3350000D02*
X1682945Y3092055D01*
X1793546Y-693748D02*
Y2006454D01*
X1682945Y2117055D02*
X1793546Y2006454D01*
Y-693748D02*
X1927902Y-828104D01*
Y-1999137D02*
Y-828104D01*
Y-1999137D02*
X2569466Y-2640701D01*
Y-3098057D02*
Y-2640701D01*
X2098360Y-3569163D02*
X2569466Y-3098057D01*
X2098360Y-4106493D02*
Y-3569163D01*
X1768462Y-4436391D02*
X2098360Y-4106493D01*
X1768462Y-4730049D02*
Y-4436391D01*
X1598510Y-4900000D02*
X1768462Y-4730049D01*
X1250000Y-4900000D02*
X1598510D01*
X-511315Y4422816D02*
X-440471D01*
X-137875Y4725413D02*
Y4786872D01*
X-440471Y4422816D02*
X-137875Y4725413D01*
X-625010Y4309122D02*
X-511315Y4422816D01*
X-625010Y3502076D02*
Y4309122D01*
X-699101Y4344962D02*
X-525972Y4518091D01*
X-462401D02*
X-325788Y4654703D01*
X-525972Y4518091D02*
X-462401D01*
X-699101Y3450990D02*
Y4344962D01*
Y3450990D02*
X99569Y2652320D01*
Y1665585D02*
Y2652320D01*
X-290038Y1174991D02*
X165684Y1630712D01*
X-875009Y1174991D02*
X-290038D01*
X165684Y1630712D02*
Y2711382D01*
X-198490Y1367526D02*
X99569Y1665585D01*
X50000Y1796421D02*
Y1908261D01*
X-296421Y1450000D02*
X50000Y1796421D01*
Y1908261D02*
Y2141961D01*
X-370000Y1450000D02*
X-296421D01*
X-250354Y1650000D02*
X-72550Y1827804D01*
Y1983681D01*
X-370000Y1650000D02*
X-250354D01*
X-72550Y2139479D02*
Y2656275D01*
Y1983681D02*
Y2139479D01*
Y2656275D02*
X-50000Y2678825D01*
X-782474Y1367526D02*
X-198490D01*
X-1150000Y1000000D02*
X-782474Y1367526D01*
X1850000Y-2050000D02*
X2507013Y-2707013D01*
X2000000Y-3550000D02*
X2507013Y-3042987D01*
Y-2707013D01*
X1625000Y-4650000D02*
Y-4450000D01*
X1172197Y-4862877D02*
X1210074Y-4825000D01*
X1350000D01*
X1450000Y-4725000D01*
X1550000D01*
X1625000Y-4650000D01*
Y-4450000D02*
X2000000Y-4075000D01*
Y-3550000D01*
X1850000Y-2050000D02*
Y-975000D01*
X1575000Y-700000D02*
X1850000Y-975000D01*
X1575000Y-700000D02*
Y1375000D01*
X1350000Y1600000D02*
X1575000Y1375000D01*
X1350000Y1600000D02*
Y3325000D01*
X-1150000Y580000D02*
Y1000000D01*
X-1050000Y580000D02*
Y1000000D01*
X-875009Y1174991D01*
X-625010Y3502076D02*
X165684Y2711382D01*
X-902329Y4696734D02*
Y4861255D01*
X-834445Y4929139D02*
Y5119190D01*
X-902329Y4861255D02*
X-834445Y4929139D01*
X-350000Y2150000D02*
Y2951655D01*
X-885679Y3487334D02*
X-350000Y2951655D01*
Y2150000D02*
X-298968Y2098968D01*
X-902329Y3541136D02*
X-885679Y3524486D01*
Y3487334D02*
Y3524486D01*
X-902329Y3541136D02*
Y4696734D01*
X50000Y2141961D02*
Y2256321D01*
X-370000Y1650000D02*
X-369999Y1650000D01*
Y1550000D02*
Y1650000D01*
X-175227Y2098968D02*
X-137321Y2061062D01*
Y1937679D02*
Y2061062D01*
X-298968Y2098968D02*
X-175227D01*
X-200000Y1875000D02*
X-137321Y1937679D01*
X-150000Y2200000D02*
Y2787576D01*
X-860279Y3497855D02*
Y3535007D01*
Y3497855D02*
X-150000Y2787576D01*
X-876929Y3551657D02*
Y4686213D01*
Y3551657D02*
X-860279Y3535007D01*
X-1549988Y3150000D02*
X-1450000D01*
X-1549991Y3150003D02*
X-1549988Y3150000D01*
X-1450000D02*
X-1400000Y3200000D01*
Y3850000D01*
X-876929Y4686213D02*
X-834879Y4728263D01*
X-1550000Y4110000D02*
Y4200000D01*
X-1580000Y4080000D02*
X-1550000Y4110000D01*
X-1580000Y3990000D02*
Y4080000D01*
X-1549991Y3040009D02*
Y3150003D01*
X-1580000Y3010000D02*
X-1550000Y2980000D01*
Y2900000D02*
Y2980000D01*
X-2250000Y3895422D02*
X-2220000Y3925422D01*
X-2250000Y3850000D02*
Y3895422D01*
X-2220000Y3925422D02*
Y3990000D01*
X-1580000D01*
X-2220000Y3010000D02*
X-1580000D01*
D14*
X-370000Y1450000D02*
D03*
X-369999Y1550000D02*
D03*
X-1400000Y3850000D02*
D03*
X-1400000Y3950000D02*
D03*
X-370000Y1650000D02*
D03*
X-369999Y1750000D02*
D03*
D15*
X-1450000Y4200000D02*
D03*
X-1550000Y4200000D02*
D03*
D19*
X-1549991Y3150003D02*
D03*
Y3250010D02*
D03*
D80*
X-1480115Y330115D02*
X-1330115D01*
X-1850000Y700000D02*
X-1480115Y330115D01*
X-1330115D02*
X-850000Y-150000D01*
X-1850000Y1050000D02*
X-1712500Y912500D01*
Y662500D02*
Y912500D01*
Y662500D02*
X-1450000Y400000D01*
X-1300000D01*
X-850000Y-50000D01*
D81*
X-12345Y-2989999D02*
X90484Y-3092828D01*
X682172D02*
X775000Y-3000000D01*
X90484Y-3092828D02*
X682172D01*
X775000Y-3000000D02*
X1224910D01*
X-230001Y-2989999D02*
X-12345D01*
X1792236Y-3200099D02*
X2192335Y-2800000D01*
X1425010Y-3200099D02*
X1792236D01*
X2192335Y-2800000D02*
X2350000D01*
X1224910Y-3000000D02*
X1425010Y-3200099D01*
X-320000Y-2900000D02*
Y-1770000D01*
X-15535Y-1465535D01*
Y859465D01*
X300000Y1175000D01*
D82*
X-1401051Y3951051D02*
Y4096848D01*
Y3951051D02*
X-1400000Y3950000D01*
X-1402101Y4097899D02*
X-1401051Y4096848D01*
X-1450000Y4145798D02*
X-1402101Y4097899D01*
X-1450000Y4145798D02*
Y4200000D01*
X-1580000Y3010000D02*
X-1549991Y3040009D01*
D83*
X-1780000Y-25000D02*
Y75000D01*
D84*
X-2370000Y2370000D02*
X-1600000Y1600000D01*
X-2370000Y2370000D02*
Y3200000D01*
D88*
X750000Y2350000D02*
X950000D01*
X-150000Y-1200000D02*
Y-550000D01*
X-329401Y-1224653D02*
X-193415D01*
X-1700000Y-2450000D02*
Y-1750000D01*
X1416517Y-4600000D02*
Y-4305821D01*
X1291340Y-4725177D02*
X1416517Y-4600000D01*
X1116175Y-4725177D02*
X1291340D01*
X1043833Y-4797519D02*
X1116175Y-4725177D01*
X1043833Y-4923845D02*
Y-4797519D01*
Y-4923845D02*
X1084997Y-4965009D01*
X1038263Y-3927568D02*
X1416517Y-4305821D01*
X522766Y3024051D02*
Y4031200D01*
X1038263Y-3927568D02*
Y-3442668D01*
X96216Y4031200D02*
X522766D01*
X350000Y2851285D02*
X522766Y3024051D01*
X350000Y2150000D02*
Y2851285D01*
Y2050000D02*
Y2150000D01*
Y1649404D02*
Y2050000D01*
X-472085Y827318D02*
X350000Y1649404D01*
X639220Y1689220D02*
Y2239220D01*
X-325000Y-375000D02*
X-150000Y-550000D01*
X-325000Y-375000D02*
Y725000D01*
X639220Y1689220D01*
X-702753Y-558583D02*
X-472085Y-327915D01*
Y827318D01*
X-1125000Y-1175000D02*
X-379054D01*
X-329401Y-1224653D01*
X-1700000Y-1750000D02*
X-1125000Y-1175000D01*
X-1500036Y-2500000D02*
X-792908Y-3207128D01*
X802723D02*
X1038263Y-3442668D01*
X-792908Y-3207128D02*
X802723D01*
X-908583Y-558583D02*
X-702753D01*
X639220Y2239220D02*
X750000Y2350000D01*
X1600000Y-2410000D02*
Y-1090000D01*
X-950000Y-600000D02*
X-908583Y-558583D01*
X-1650000Y-2500000D02*
X-1500036D01*
X16Y3935000D02*
X96216Y4031200D01*
D89*
X-1600000Y1600000D02*
X-1395089Y1804912D01*
X-2006118Y1193882D02*
X-1600000Y1600000D01*
X-1875863Y-124137D02*
X-1450000Y-550000D01*
X-2006118Y677299D02*
Y1193882D01*
Y677299D02*
X-1875863Y547044D01*
Y-124137D02*
Y547044D01*
X-488691Y2000000D02*
X-400000D01*
X-683779Y1804912D02*
X-488691Y2000000D01*
X-1395089Y1804912D02*
X-683779D01*
D93*
X2209000Y381000D02*
D03*
D94*
Y127000D02*
D03*
Y-127000D02*
D03*
Y-381000D02*
D03*
X1955000D02*
D03*
Y-127000D02*
D03*
Y127000D02*
D03*
Y381000D02*
D03*
D95*
X1600000Y-1090000D02*
D03*
Y-2410000D02*
D03*
D96*
X-230000Y-4820000D02*
D03*
D97*
X60000Y-5150000D02*
D03*
X-460000Y-4840000D02*
D03*
X150000Y-5650000D02*
D03*
X-610000Y-5040000D02*
D03*
X-750000Y-4840000D02*
D03*
D98*
X-810000Y-5650000D02*
D03*
X250000Y-5400000D02*
D03*
D99*
X-300000Y-5650000D02*
D03*
Y-5150000D02*
D03*
D100*
X-1995000Y-289000D02*
D03*
Y289000D02*
D03*
D101*
X-2100000Y-4500000D02*
D03*
X2300000D02*
D03*
Y4500000D02*
D03*
X-2100000D02*
D03*
D102*
X-400000Y-4400000D02*
D03*
X-200000D02*
D03*
X1291155Y3164299D02*
D03*
X1291156Y3264299D02*
D03*
X1350000Y3325000D02*
D03*
X1425000Y3350000D02*
D03*
X1025000Y2725000D02*
D03*
X950000Y2100000D02*
D03*
X-1100000Y5050000D02*
D03*
X650000Y-3500000D02*
D03*
Y-3700000D02*
D03*
Y-3900000D02*
D03*
X850000D02*
D03*
X-1850000Y-3650000D02*
D03*
X-1600000Y-4700000D02*
D03*
X-1500000D02*
D03*
X-1400000D02*
D03*
X-1300000D02*
D03*
X-1200000D02*
D03*
X-1700000D02*
D03*
X-1600000Y-4600000D02*
D03*
X-1500000D02*
D03*
X-1400000D02*
D03*
X-1300000D02*
D03*
X-1200000D02*
D03*
X-1700000D02*
D03*
X-1100000Y-3750001D02*
D03*
X-1000000D02*
D03*
X-900000D02*
D03*
Y-3550001D02*
D03*
Y-3650001D02*
D03*
X-1000000Y-3550001D02*
D03*
Y-3650001D02*
D03*
X-1100000Y-3550001D02*
D03*
Y-3650001D02*
D03*
X-2100000Y-3650000D02*
D03*
X934909Y-4380448D02*
D03*
X1250000Y-3900000D02*
D03*
X1450000D02*
D03*
X549987Y-5800003D02*
D03*
X349985Y-5800004D02*
D03*
X949992Y-5800001D02*
D03*
X749989Y-5800002D02*
D03*
X1349997Y-5799999D02*
D03*
X1149994Y-5800000D02*
D03*
X1549995Y-4199988D02*
D03*
X1549994Y-3999986D02*
D03*
X1549997Y-4599993D02*
D03*
X1549996Y-4399990D02*
D03*
X1549999Y-4999998D02*
D03*
X1549998Y-4799995D02*
D03*
X1549997Y-5399993D02*
D03*
X1549996Y-5199990D02*
D03*
X1549999Y-5799998D02*
D03*
X1549998Y-5599995D02*
D03*
X-1050008Y-4199981D02*
D03*
X-1050009Y-3999979D02*
D03*
X-1050006Y-4599986D02*
D03*
X-1050007Y-4399984D02*
D03*
X-1050004Y-4999991D02*
D03*
X-1050005Y-4799988D02*
D03*
X-1050002Y-5399995D02*
D03*
X-1050003Y-5199993D02*
D03*
X-1050000Y-5800000D02*
D03*
X-1050001Y-5599998D02*
D03*
X500000Y1800000D02*
D03*
X-1700000Y-3550001D02*
D03*
X-1700000Y-4400001D02*
D03*
Y-4500001D02*
D03*
X-1500000Y-3550001D02*
D03*
X709274Y-4271181D02*
D03*
X924133Y-4473648D02*
D03*
X450000Y-5375000D02*
D03*
X485000Y-4480000D02*
D03*
X-300000Y-4400000D02*
D03*
X684615Y-4829873D02*
D03*
X550000Y-5124339D02*
D03*
X-200000Y-4575000D02*
D03*
X-300000D02*
D03*
X1024096Y2862064D02*
D03*
Y2946416D02*
D03*
X1172197Y-4862877D02*
D03*
X650000Y4250000D02*
D03*
X-76863Y3330960D02*
D03*
X250000Y3500000D02*
D03*
X400000Y3500004D02*
D03*
X-300000Y1850000D02*
D03*
X-200000Y1875000D02*
D03*
X250000Y2050000D02*
D03*
Y2150000D02*
D03*
X350000Y2050000D02*
D03*
X450000Y2150000D02*
D03*
X350000D02*
D03*
X-200000Y2000000D02*
D03*
X-300000D02*
D03*
X-400000D02*
D03*
X-150000Y2200000D02*
D03*
X-1100000Y5300000D02*
D03*
X-736212Y2050000D02*
D03*
X2100000D02*
D03*
X-436708Y1846844D02*
D03*
X-900000Y5300000D02*
D03*
X-1249976Y5474990D02*
D03*
X-1150001Y5574998D02*
D03*
X-949998Y5575000D02*
D03*
X-749995Y5575001D02*
D03*
X-550013Y5574992D02*
D03*
X-350010Y5574994D02*
D03*
X-150007Y5574996D02*
D03*
X49997Y5574998D02*
D03*
X450004Y5575002D02*
D03*
X-470000Y4580000D02*
D03*
X-580000D02*
D03*
X-690000D02*
D03*
Y4690000D02*
D03*
Y4800000D02*
D03*
X-470000Y4690000D02*
D03*
Y4800000D02*
D03*
X-580000Y4690000D02*
D03*
X-1091971Y4959529D02*
D03*
X-1200000Y4100000D02*
D03*
X-1300000D02*
D03*
X-950021Y3499991D02*
D03*
X50000Y4550000D02*
D03*
X-1249994Y4399986D02*
D03*
X-1249993Y4199983D02*
D03*
X-1249992Y3999981D02*
D03*
X-1249998Y5199995D02*
D03*
X-1249997Y4999993D02*
D03*
X-1080760Y4866847D02*
D03*
X-1249996Y4799990D02*
D03*
X-1249995Y4599988D02*
D03*
X-1150000Y5150000D02*
D03*
X-1249990Y3599976D02*
D03*
X-1150024Y3499990D02*
D03*
X-1249991Y3799978D02*
D03*
X250000Y5575000D02*
D03*
X650024Y5575010D02*
D03*
X750000Y5475000D02*
D03*
X-450000Y5350000D02*
D03*
X-149995Y3500002D02*
D03*
X-349997Y3500001D02*
D03*
X-550016Y3499993D02*
D03*
X-750019Y3499992D02*
D03*
X749999Y5200002D02*
D03*
X170010Y5139997D02*
D03*
X749999Y5000002D02*
D03*
Y4800002D02*
D03*
Y4600002D02*
D03*
Y4400002D02*
D03*
Y4200002D02*
D03*
X650000Y4050000D02*
D03*
X749999Y4000002D02*
D03*
Y3800002D02*
D03*
X750000Y3600000D02*
D03*
X650015Y3500006D02*
D03*
X50008Y3500003D02*
D03*
X-580000Y4800000D02*
D03*
X-540Y-1700000D02*
D03*
X75010Y-1399990D02*
D03*
X700000Y823801D02*
D03*
X550000D02*
D03*
X622500Y823800D02*
D03*
Y724600D02*
D03*
X1750000Y-1875000D02*
D03*
X1450000D02*
D03*
Y-1625000D02*
D03*
X1750000D02*
D03*
Y-1750000D02*
D03*
X1450000D02*
D03*
X-700000Y-1625000D02*
D03*
X1100000Y0D02*
D03*
X725000Y350000D02*
D03*
X800000Y100000D02*
D03*
X-123041Y765296D02*
D03*
X-1575000Y3500000D02*
D03*
X300000Y600000D02*
D03*
X1110107Y1337535D02*
D03*
X1375000Y550000D02*
D03*
Y650000D02*
D03*
Y750000D02*
D03*
X1100000Y-3325000D02*
D03*
X1085000Y-4615000D02*
D03*
X811661Y-4283028D02*
D03*
X1085361Y-4165000D02*
D03*
X800000Y-5050000D02*
D03*
X900000Y-5025000D02*
D03*
Y-4925000D02*
D03*
X550000Y-5375000D02*
D03*
X-400000Y-4575000D02*
D03*
X1075000Y450000D02*
D03*
X675000D02*
D03*
X300000Y75000D02*
D03*
X525000Y-300000D02*
D03*
X425000Y0D02*
D03*
X-99993Y300000D02*
D03*
X300000Y1175000D02*
D03*
X-736211Y2350000D02*
D03*
X-1425000Y-1850000D02*
D03*
X-1800000Y-1675000D02*
D03*
X-1825000Y-2125000D02*
D03*
X-1462224Y-1680260D02*
D03*
X-1825000Y-2225000D02*
D03*
X-2200000Y-3875000D02*
D03*
X-1000001Y-430010D02*
D03*
X-1775000Y475000D02*
D03*
Y-475000D02*
D03*
Y300000D02*
D03*
X-1450000Y100000D02*
D03*
X-1425000Y-250000D02*
D03*
X400000Y-2825000D02*
D03*
Y-2750000D02*
D03*
X-1425000Y-1775000D02*
D03*
X-2075000Y-1750000D02*
D03*
X-1975000Y-3250000D02*
D03*
X-1900000D02*
D03*
X-1825000D02*
D03*
X-425000Y-1300000D02*
D03*
X-377565Y-1569402D02*
D03*
X-725010Y-2000009D02*
D03*
X-725000Y-2100000D02*
D03*
X-600000Y-1725000D02*
D03*
X-1275010Y-1600009D02*
D03*
Y-1500009D02*
D03*
X1800000Y-3050000D02*
D03*
X2500000Y-3250000D02*
D03*
X1249991Y-3374997D02*
D03*
X1350009Y-3375010D02*
D03*
X1583104Y-3339308D02*
D03*
X1675009Y-3600010D02*
D03*
X1950000Y-3700000D02*
D03*
X-978113Y2464828D02*
D03*
X-700007Y-1000003D02*
D03*
X-500005Y-1000002D02*
D03*
X-300002Y-1000001D02*
D03*
X99995Y-1000002D02*
D03*
X299998Y-1000001D02*
D03*
X-1700025Y-999997D02*
D03*
X-2100030Y-999999D02*
D03*
X-1900028Y-999998D02*
D03*
X-2300038Y-1199988D02*
D03*
X-2300039Y-999986D02*
D03*
X-2300036Y-1599993D02*
D03*
X-2300037Y-1399990D02*
D03*
X-2300033Y-1999998D02*
D03*
X-2300035Y-1799995D02*
D03*
X-2300038Y-2399988D02*
D03*
X-2300039Y-2199986D02*
D03*
X-2300036Y-2799993D02*
D03*
X-2300037Y-2599990D02*
D03*
X-2300033Y-3199998D02*
D03*
X-2300035Y-2999995D02*
D03*
X-2100030Y-3400016D02*
D03*
X-2300032Y-3400017D02*
D03*
X-1700025Y-3400014D02*
D03*
X-1900028Y-3400015D02*
D03*
X-1300021Y-3400011D02*
D03*
X-1500023Y-3400013D02*
D03*
X-900016Y-3400009D02*
D03*
X-1100018Y-3400010D02*
D03*
X-500011Y-3400007D02*
D03*
X-700013Y-3400008D02*
D03*
X-100006Y-3400005D02*
D03*
X-300009Y-3400006D02*
D03*
X99996Y-3400004D02*
D03*
X299999Y-3400003D02*
D03*
X500001Y-3400002D02*
D03*
X500010Y-3000024D02*
D03*
X500009Y-2800022D02*
D03*
X500008Y-2600019D02*
D03*
X500007Y-2400017D02*
D03*
X500006Y-2200014D02*
D03*
X500005Y-2000012D02*
D03*
X500004Y-1800010D02*
D03*
X500003Y-1600007D02*
D03*
X500002Y-1400005D02*
D03*
X500000Y-1000000D02*
D03*
X500001Y-1200002D02*
D03*
X-1458454Y2130000D02*
D03*
Y557527D02*
D03*
X-1402101Y4097899D02*
D03*
X-230001Y-2989999D02*
D03*
Y-2900000D02*
D03*
X1425010Y-3200099D02*
D03*
X2350000Y-2800000D02*
D03*
X1350000Y1450000D02*
D03*
X-200000Y300000D02*
D03*
X-1449999Y-650000D02*
D03*
X-1350000Y-550000D02*
D03*
Y-650000D02*
D03*
X-1400000Y-600000D02*
D03*
X-1850000Y700000D02*
D03*
Y1050000D02*
D03*
X-550000Y1700000D02*
D03*
X1500000Y1700000D02*
D03*
X1900000D02*
D03*
X1700000D02*
D03*
X2300000D02*
D03*
X-700000Y-300000D02*
D03*
Y-100000D02*
D03*
Y100000D02*
D03*
Y500000D02*
D03*
Y700000D02*
D03*
Y900000D02*
D03*
Y1100000D02*
D03*
Y1500000D02*
D03*
X-299998Y-699999D02*
D03*
X-499998D02*
D03*
X500002D02*
D03*
X300002D02*
D03*
X100002D02*
D03*
X700001D02*
D03*
X900001D02*
D03*
X1100001D02*
D03*
X1300001D02*
D03*
X1500001D02*
D03*
X1700001D02*
D03*
X1900001D02*
D03*
X2100000D02*
D03*
X2300000D02*
D03*
X2500000D02*
D03*
Y-499999D02*
D03*
Y-299999D02*
D03*
Y-100000D02*
D03*
Y100000D02*
D03*
Y300000D02*
D03*
X2500000Y500001D02*
D03*
Y700001D02*
D03*
Y900000D02*
D03*
Y1100000D02*
D03*
Y1300000D02*
D03*
Y1500000D02*
D03*
Y1700000D02*
D03*
X-700000D02*
D03*
Y1300000D02*
D03*
Y300000D02*
D03*
Y-700000D02*
D03*
X-1300000Y-1700000D02*
D03*
X-500000Y-1350000D02*
D03*
X1250000Y-4478674D02*
D03*
Y-4389337D02*
D03*
X1084997Y-4965009D02*
D03*
X-320000Y-2989999D02*
D03*
X-410000D02*
D03*
X-500000D02*
D03*
Y-2900000D02*
D03*
X-410000D02*
D03*
X-320000D02*
D03*
X-1050000Y580000D02*
D03*
X-1150000Y580000D02*
D03*
X-2250000Y3850000D02*
D03*
X950000Y3191377D02*
D03*
Y3000000D02*
D03*
Y3100000D02*
D03*
X-1550000Y2900000D02*
D03*
X-1450000Y-550000D02*
D03*
X950000Y2350000D02*
D03*
X900000Y2300000D02*
D03*
X1011250Y2375000D02*
D03*
X-2370000Y3200000D02*
D03*
Y3350000D02*
D03*
X-950000Y-600000D02*
D03*
X-1050000D02*
D03*
X-1100000Y-650000D02*
D03*
X-1000000D02*
D03*
X-950000Y-700000D02*
D03*
X-1050000D02*
D03*
X-1150000D02*
D03*
X1302661Y1135D02*
D03*
X420000Y350000D02*
D03*
X1067083Y-3133402D02*
D03*
X1156418Y-3133401D02*
D03*
X1939739Y-3290415D02*
D03*
Y-3200099D02*
D03*
X-104080Y-1313988D02*
D03*
X-193415Y-1224653D02*
D03*
X-104081D02*
D03*
X-193416Y-1135318D02*
D03*
X-104081D02*
D03*
X-1650000Y-2600000D02*
D03*
X-1750000D02*
D03*
X-1650000Y-2500000D02*
D03*
X-1750000D02*
D03*
X-1650000Y-2400000D02*
D03*
X-1750000D02*
D03*
X2400000Y-3000000D02*
D03*
X2300000D02*
D03*
X1250000Y-4900000D02*
D03*
X950000Y-4300000D02*
D03*
X1050000D02*
D03*
X1150000D02*
D03*
X1250000Y-4300000D02*
D03*
X-1550000Y875000D02*
D03*
X-979991Y-330003D02*
D03*
X-736211Y2680000D02*
D03*
Y2460000D02*
D03*
X-736212Y1910000D02*
D03*
X1100000Y1830000D02*
D03*
X1000000D02*
D03*
X900000D02*
D03*
X800000Y1830000D02*
D03*
X745001Y-400000D02*
D03*
X1296241Y-137027D02*
D03*
X1000000Y-400000D02*
D03*
X817500Y730000D02*
D03*
X-1200000Y-4500001D02*
D03*
X-1200000Y-4400001D02*
D03*
X-1300000Y-4500001D02*
D03*
X-1400000D02*
D03*
X-1500000D02*
D03*
X-1600000D02*
D03*
Y-4400001D02*
D03*
X-1500000D02*
D03*
X-1400001Y-4400001D02*
D03*
X-1300001Y-4400001D02*
D03*
X-1400000Y-4300001D02*
D03*
X-1300000D02*
D03*
X-1200000Y-4300001D02*
D03*
X-1700000Y-4200001D02*
D03*
X-1132658Y-3967343D02*
D03*
X-1500000Y-3650001D02*
D03*
X-1400000Y-3550001D02*
D03*
X-1200000Y-3650001D02*
D03*
Y-3550001D02*
D03*
X-1300000D02*
D03*
Y-3650001D02*
D03*
X-1400000Y-3650001D02*
D03*
X-850000Y-150000D02*
D03*
Y-50000D02*
D03*
X1399997Y-199998D02*
D03*
X1499998D02*
D03*
X1399997Y200003D02*
D03*
X1499998D02*
D03*
X-1680000Y-100000D02*
D03*
D103*
X2462902Y-2963894D02*
D03*
X1924237Y-3361192D02*
D03*
X1000000Y-3125000D02*
D03*
X1225000D02*
D03*
X1063837Y2791302D02*
D03*
X1300000Y2875000D02*
D03*
Y2975000D02*
D03*
X1275000Y3350000D02*
D03*
X950000Y2925000D02*
D03*
X875000Y3150000D02*
D03*
Y3050000D02*
D03*
X-809990Y5169990D02*
D03*
X-719990D02*
D03*
X-629990D02*
D03*
X849999Y1875001D02*
D03*
X1050000Y1875000D02*
D03*
X950000D02*
D03*
X775870Y2112558D02*
D03*
X-1117832Y4808495D02*
D03*
X769892Y-4653438D02*
D03*
X864692Y-4716252D02*
D03*
X-333893Y5206678D02*
D03*
X-326520Y5160783D02*
D03*
X-10763Y5251952D02*
D03*
X76776Y5274349D02*
D03*
X35153Y5254752D02*
D03*
X-265376Y5020360D02*
D03*
X-834879Y4528263D02*
D03*
X-84358Y4368863D02*
D03*
X-325788Y4654703D02*
D03*
X-160489Y4368863D02*
D03*
X50000Y2256321D02*
D03*
X0Y2100000D02*
D03*
Y2150000D02*
D03*
Y2200000D02*
D03*
X-250000D02*
D03*
Y2250000D02*
D03*
Y2300000D02*
D03*
X-205798Y2665303D02*
D03*
X-50000Y2678825D02*
D03*
X-1059928Y4579524D02*
D03*
X-1021304Y4528338D02*
D03*
X-1056811Y4437759D02*
D03*
X-462127Y4938014D02*
D03*
X58226Y5400000D02*
D03*
X149025Y5300000D02*
D03*
Y5400000D02*
D03*
X239825Y5300000D02*
D03*
Y5400000D02*
D03*
X330624Y5300000D02*
D03*
Y5400000D02*
D03*
X421424Y5300000D02*
D03*
Y5400000D02*
D03*
X512223Y5300000D02*
D03*
Y5400000D02*
D03*
X603022Y5300000D02*
D03*
Y5400000D02*
D03*
X693822Y5300000D02*
D03*
Y5400000D02*
D03*
X434979Y5138597D02*
D03*
X308908D02*
D03*
X203862Y4589776D02*
D03*
X308921Y4491402D02*
D03*
X434992D02*
D03*
X532410Y4562079D02*
D03*
X569658Y4672868D02*
D03*
Y4771241D02*
D03*
Y4869615D02*
D03*
Y4967988D02*
D03*
X520931Y5046820D02*
D03*
X217554Y5022805D02*
D03*
X179815Y4913020D02*
D03*
X-31622Y4720985D02*
D03*
X120302Y4714131D02*
D03*
X190207Y4748203D02*
D03*
X96163Y4837728D02*
D03*
X1025000Y5450000D02*
D03*
X875421Y5400000D02*
D03*
X940800D02*
D03*
X1150000D02*
D03*
X1250000D02*
D03*
X1200000D02*
D03*
X1150000Y5350000D02*
D03*
X1250000D02*
D03*
X1200000D02*
D03*
X940800Y5300000D02*
D03*
X875421D02*
D03*
X1200000Y5300000D02*
D03*
X1250000D02*
D03*
X1150000D02*
D03*
X1025000Y5250000D02*
D03*
X-900000Y5200000D02*
D03*
X-834879Y4728263D02*
D03*
X784621Y5400000D02*
D03*
Y5300000D02*
D03*
X-84112Y5395885D02*
D03*
X-123429Y5373185D02*
D03*
X-350000Y5350000D02*
D03*
X-155532Y5341083D02*
D03*
X-187634Y5308980D02*
D03*
X-219737Y5276878D02*
D03*
X-568102Y5190228D02*
D03*
X-606893Y5119190D02*
D03*
X-758594D02*
D03*
X-682744D02*
D03*
X-689679Y4938014D02*
D03*
X-834445Y5119190D02*
D03*
X50285Y4967630D02*
D03*
X-94438Y5217407D02*
D03*
X7217Y4839610D02*
D03*
X-55121Y5240107D02*
D03*
X-158644Y5153202D02*
D03*
X-190746Y5121099D02*
D03*
X-230064Y5098400D02*
D03*
X-262166Y5066297D02*
D03*
X-360038Y5245683D02*
D03*
X-126541Y5185305D02*
D03*
X-537977Y4938014D02*
D03*
X-137875Y4786872D02*
D03*
X-613828Y4938014D02*
D03*
X-200000Y-1925000D02*
D03*
X1075000Y2675000D02*
D03*
Y2475000D02*
D03*
X-1780000Y75000D02*
D03*
Y-25000D02*
D03*
X959331Y176025D02*
D03*
D106*
X16Y-3935000D02*
D03*
Y3935000D02*
D03*
D107*
X-1580000Y3390000D02*
D03*
Y3010000D02*
D03*
X-2220000D02*
D03*
Y3390000D02*
D03*
X-1580000Y3990000D02*
D03*
Y3610000D02*
D03*
X-2220000D02*
D03*
Y3990000D02*
D03*
D108*
X-300000Y-4400000D02*
D03*
D109*
X-363496Y-2945247D02*
D03*
D110*
X-304054Y2000000D02*
D03*
D111*
X-1400000Y-600000D02*
D03*
D112*
X958825Y2338929D02*
D03*
D113*
X-148749Y-1225000D02*
D03*
D114*
X-1700000Y-2500000D02*
D03*
%TF.MD5,2d8e54dc778282b010d8d9cc1e6d9b57*%
M02*
