%TF.GenerationSoftware,Altium Limited,Altium Designer,22.5.1 (42)*%
G04 Layer_Color=65535*
%FSLAX45Y45*%
%MOMM*%
%TF.SameCoordinates,B0F14D10-A82B-43C6-BF60-515EF57ECD05*%
%TF.FilePolarity,Positive*%
%TF.FileFunction,Legend,Top*%
%TF.Part,Single*%
G01*
G75*
%TA.AperFunction,NonConductor*%
%ADD115C,0.30000*%
%ADD117C,0.50000*%
%ADD118C,0.20000*%
%ADD134C,0.25400*%
%ADD135C,0.20320*%
%ADD136C,0.25000*%
%ADD137C,0.15240*%
%ADD138C,0.35000*%
%ADD139C,0.15000*%
%ADD140C,0.12700*%
%ADD141R,1.58450X19.20000*%
%ADD142R,0.40000X0.80000*%
%ADD143R,1.70734X16.44000*%
%ADD144R,0.85000X1.35000*%
%ADD145R,1.34999X0.85000*%
%ADD146R,2.69996X1.08379*%
%ADD147R,1.08379X2.69996*%
G36*
X2050000Y3400000D02*
X2000000Y3500000D01*
X1950000Y3400000D01*
X2050000D01*
D02*
G37*
G36*
X-1901070Y3408760D02*
X-1899918D01*
X-1896790Y3408430D01*
X-1893334Y3407937D01*
X-1889713Y3407114D01*
X-1885763Y3406126D01*
X-1882142Y3404809D01*
X-1881977D01*
X-1881648Y3404645D01*
X-1881154Y3404316D01*
X-1880496Y3403986D01*
X-1878850Y3403163D01*
X-1876710Y3401682D01*
X-1874241Y3400036D01*
X-1871772Y3397896D01*
X-1869468Y3395428D01*
X-1867328Y3392629D01*
Y3392465D01*
X-1867164Y3392300D01*
X-1866835Y3391807D01*
X-1866506Y3391313D01*
X-1865683Y3389667D01*
X-1864695Y3387527D01*
X-1863543Y3384894D01*
X-1862720Y3381766D01*
X-1861897Y3378475D01*
X-1861568Y3374854D01*
X-1876052Y3373701D01*
Y3373866D01*
Y3374195D01*
X-1876216Y3374689D01*
X-1876381Y3375512D01*
X-1876875Y3377322D01*
X-1877533Y3379791D01*
X-1878521Y3382425D01*
X-1880002Y3385058D01*
X-1881813Y3387527D01*
X-1884117Y3389831D01*
X-1884446Y3389996D01*
X-1885269Y3390654D01*
X-1886915Y3391642D01*
X-1889055Y3392629D01*
X-1891853Y3393617D01*
X-1895145Y3394605D01*
X-1899259Y3395263D01*
X-1903868Y3395428D01*
X-1906172D01*
X-1907160Y3395263D01*
X-1908476Y3395098D01*
X-1911439Y3394769D01*
X-1914731Y3394111D01*
X-1918023Y3393288D01*
X-1921150Y3391971D01*
X-1922467Y3391148D01*
X-1923784Y3390325D01*
X-1924113Y3390161D01*
X-1924771Y3389502D01*
X-1925759Y3388350D01*
X-1926746Y3387033D01*
X-1927898Y3385223D01*
X-1928886Y3383248D01*
X-1929544Y3380943D01*
X-1929873Y3378310D01*
Y3377981D01*
Y3377322D01*
X-1929709Y3376170D01*
X-1929380Y3374854D01*
X-1928886Y3373208D01*
X-1928063Y3371562D01*
X-1927075Y3369916D01*
X-1925594Y3368270D01*
X-1925429Y3368105D01*
X-1924607Y3367612D01*
X-1923948Y3367118D01*
X-1923290Y3366789D01*
X-1922302Y3366295D01*
X-1921150Y3365636D01*
X-1919669Y3365143D01*
X-1918023Y3364484D01*
X-1916212Y3363826D01*
X-1914073Y3363003D01*
X-1911768Y3362345D01*
X-1909135Y3361522D01*
X-1906172Y3360863D01*
X-1902880Y3360040D01*
X-1902716D01*
X-1902057Y3359876D01*
X-1901070Y3359711D01*
X-1899918Y3359382D01*
X-1898436Y3359053D01*
X-1896626Y3358559D01*
X-1894815Y3358065D01*
X-1892840Y3357571D01*
X-1888561Y3356419D01*
X-1884446Y3355267D01*
X-1882471Y3354609D01*
X-1880660Y3353950D01*
X-1879015Y3353457D01*
X-1877698Y3352798D01*
X-1877533D01*
X-1877204Y3352634D01*
X-1876710Y3352304D01*
X-1876052Y3351975D01*
X-1874241Y3350988D01*
X-1872102Y3349671D01*
X-1869633Y3347860D01*
X-1867164Y3345885D01*
X-1864860Y3343581D01*
X-1862885Y3341112D01*
X-1862720Y3340783D01*
X-1862062Y3339960D01*
X-1861403Y3338479D01*
X-1860416Y3336504D01*
X-1859593Y3334199D01*
X-1858770Y3331401D01*
X-1858276Y3328274D01*
X-1858111Y3324982D01*
Y3324818D01*
Y3324653D01*
Y3324159D01*
Y3323501D01*
X-1858441Y3321690D01*
X-1858770Y3319386D01*
X-1859428Y3316753D01*
X-1860251Y3313955D01*
X-1861568Y3310992D01*
X-1863378Y3307865D01*
Y3307700D01*
X-1863543Y3307535D01*
X-1864366Y3306548D01*
X-1865518Y3305067D01*
X-1867164Y3303421D01*
X-1869304Y3301446D01*
X-1871937Y3299306D01*
X-1874900Y3297331D01*
X-1878356Y3295520D01*
X-1878521D01*
X-1878850Y3295356D01*
X-1879344Y3295191D01*
X-1880002Y3294862D01*
X-1880990Y3294533D01*
X-1882142Y3294039D01*
X-1884775Y3293381D01*
X-1887902Y3292558D01*
X-1891688Y3291735D01*
X-1895803Y3291241D01*
X-1900247Y3291076D01*
X-1902880D01*
X-1904197Y3291241D01*
X-1905678D01*
X-1907324Y3291405D01*
X-1909299Y3291570D01*
X-1913414Y3292228D01*
X-1917694Y3292887D01*
X-1921973Y3294039D01*
X-1926088Y3295520D01*
X-1926252D01*
X-1926582Y3295685D01*
X-1927075Y3296014D01*
X-1927734Y3296343D01*
X-1929709Y3297331D01*
X-1932013Y3298812D01*
X-1934647Y3300787D01*
X-1937445Y3303091D01*
X-1940078Y3305890D01*
X-1942547Y3309017D01*
Y3309181D01*
X-1942876Y3309511D01*
X-1943041Y3310004D01*
X-1943535Y3310663D01*
X-1943864Y3311486D01*
X-1944358Y3312473D01*
X-1945510Y3314942D01*
X-1946662Y3318069D01*
X-1947649Y3321526D01*
X-1948308Y3325476D01*
X-1948637Y3329591D01*
X-1934482Y3330907D01*
Y3330743D01*
Y3330578D01*
X-1934317Y3330085D01*
Y3329426D01*
X-1933988Y3327945D01*
X-1933494Y3325805D01*
X-1932836Y3323665D01*
X-1932178Y3321197D01*
X-1931026Y3318892D01*
X-1929873Y3316753D01*
X-1929709Y3316588D01*
X-1929215Y3315930D01*
X-1928392Y3314777D01*
X-1927075Y3313625D01*
X-1925429Y3312144D01*
X-1923619Y3310663D01*
X-1921150Y3309181D01*
X-1918517Y3307865D01*
X-1918352D01*
X-1918187Y3307700D01*
X-1917694Y3307535D01*
X-1917200Y3307371D01*
X-1915554Y3306877D01*
X-1913414Y3306219D01*
X-1910781Y3305560D01*
X-1907818Y3305067D01*
X-1904526Y3304737D01*
X-1900905Y3304573D01*
X-1899424D01*
X-1897778Y3304737D01*
X-1895803Y3304902D01*
X-1893499Y3305231D01*
X-1890865Y3305560D01*
X-1888232Y3306219D01*
X-1885763Y3307042D01*
X-1885434Y3307206D01*
X-1884611Y3307535D01*
X-1883459Y3308194D01*
X-1881977Y3308852D01*
X-1880496Y3310004D01*
X-1878850Y3311156D01*
X-1877204Y3312473D01*
X-1875887Y3314119D01*
X-1875723Y3314284D01*
X-1875394Y3314942D01*
X-1874900Y3315765D01*
X-1874241Y3317082D01*
X-1873583Y3318398D01*
X-1873089Y3320044D01*
X-1872760Y3321855D01*
X-1872595Y3323830D01*
Y3323995D01*
Y3324818D01*
X-1872760Y3325805D01*
X-1872925Y3327122D01*
X-1873418Y3328439D01*
X-1873912Y3330085D01*
X-1874735Y3331730D01*
X-1875887Y3333212D01*
X-1876052Y3333376D01*
X-1876546Y3333870D01*
X-1877204Y3334529D01*
X-1878356Y3335516D01*
X-1879673Y3336504D01*
X-1881483Y3337656D01*
X-1883623Y3338808D01*
X-1886092Y3339795D01*
X-1886257Y3339960D01*
X-1887080Y3340125D01*
X-1888396Y3340618D01*
X-1889219Y3340783D01*
X-1890371Y3341112D01*
X-1891524Y3341606D01*
X-1893005Y3341935D01*
X-1894651Y3342429D01*
X-1896626Y3342923D01*
X-1898601Y3343416D01*
X-1900905Y3344075D01*
X-1903539Y3344733D01*
X-1906337Y3345392D01*
X-1906501D01*
X-1906995Y3345556D01*
X-1907818Y3345721D01*
X-1908806Y3346050D01*
X-1910122Y3346379D01*
X-1911604Y3346708D01*
X-1914896Y3347696D01*
X-1918517Y3348848D01*
X-1922302Y3350000D01*
X-1925594Y3351152D01*
X-1927075Y3351811D01*
X-1928392Y3352469D01*
X-1928557D01*
X-1928721Y3352634D01*
X-1929709Y3353292D01*
X-1931190Y3354115D01*
X-1932836Y3355432D01*
X-1934811Y3356913D01*
X-1936786Y3358724D01*
X-1938761Y3360863D01*
X-1940407Y3363168D01*
X-1940572Y3363497D01*
X-1941066Y3364320D01*
X-1941724Y3365636D01*
X-1942382Y3367282D01*
X-1943041Y3369422D01*
X-1943699Y3371891D01*
X-1944193Y3374524D01*
X-1944358Y3377322D01*
Y3377487D01*
Y3377652D01*
Y3378145D01*
Y3378804D01*
X-1944028Y3380450D01*
X-1943699Y3382589D01*
X-1943205Y3385058D01*
X-1942382Y3387856D01*
X-1941230Y3390654D01*
X-1939584Y3393452D01*
Y3393617D01*
X-1939420Y3393782D01*
X-1938597Y3394769D01*
X-1937445Y3396086D01*
X-1935963Y3397732D01*
X-1933988Y3399542D01*
X-1931519Y3401517D01*
X-1928557Y3403328D01*
X-1925265Y3404974D01*
X-1925100D01*
X-1924771Y3405138D01*
X-1924277Y3405303D01*
X-1923619Y3405632D01*
X-1922796Y3405961D01*
X-1921644Y3406291D01*
X-1919175Y3406949D01*
X-1916048Y3407607D01*
X-1912427Y3408266D01*
X-1908641Y3408760D01*
X-1904362Y3408924D01*
X-1902222D01*
X-1901070Y3408760D01*
D02*
G37*
G36*
X-1788160Y3406784D02*
X-1785362Y3406620D01*
X-1782399Y3406455D01*
X-1779601Y3406126D01*
X-1777132Y3405797D01*
X-1776803D01*
X-1775651Y3405468D01*
X-1774169Y3405138D01*
X-1772194Y3404645D01*
X-1770055Y3403822D01*
X-1767750Y3402834D01*
X-1765281Y3401682D01*
X-1763142Y3400365D01*
X-1762813Y3400201D01*
X-1762154Y3399707D01*
X-1761167Y3398719D01*
X-1759850Y3397567D01*
X-1758369Y3396086D01*
X-1756887Y3394111D01*
X-1755241Y3391971D01*
X-1753925Y3389502D01*
X-1753760Y3389173D01*
X-1753431Y3388350D01*
X-1752772Y3386869D01*
X-1752114Y3384894D01*
X-1751620Y3382589D01*
X-1750962Y3379956D01*
X-1750633Y3376993D01*
X-1750468Y3373866D01*
Y3373701D01*
Y3373208D01*
Y3372549D01*
X-1750633Y3371397D01*
X-1750797Y3370245D01*
X-1750962Y3368764D01*
X-1751291Y3367118D01*
X-1751620Y3365307D01*
X-1752772Y3361522D01*
X-1753431Y3359546D01*
X-1754418Y3357407D01*
X-1755571Y3355267D01*
X-1756723Y3353292D01*
X-1758204Y3351317D01*
X-1759850Y3349342D01*
X-1760015Y3349177D01*
X-1760344Y3348848D01*
X-1760837Y3348354D01*
X-1761660Y3347860D01*
X-1762648Y3347038D01*
X-1763965Y3346215D01*
X-1765611Y3345227D01*
X-1767421Y3344404D01*
X-1769561Y3343416D01*
X-1772030Y3342429D01*
X-1774663Y3341606D01*
X-1777790Y3340948D01*
X-1781082Y3340289D01*
X-1784703Y3339795D01*
X-1788818Y3339466D01*
X-1793098Y3339302D01*
X-1822230D01*
Y3293051D01*
X-1837373D01*
Y3406949D01*
X-1790629D01*
X-1788160Y3406784D01*
D02*
G37*
G36*
X-1967071Y3393452D02*
X-2034389D01*
Y3358724D01*
X-1971351D01*
Y3345227D01*
X-2034389D01*
Y3306548D01*
X-1964438D01*
Y3293051D01*
X-2049532D01*
Y3406949D01*
X-1967071D01*
Y3393452D01*
D02*
G37*
G36*
X-2145914Y-3941241D02*
X-2144432Y-3941405D01*
X-2142622Y-3941570D01*
X-2140811Y-3941734D01*
X-2138672Y-3942228D01*
X-2134228Y-3943216D01*
X-2129290Y-3944697D01*
X-2126821Y-3945685D01*
X-2124517Y-3946837D01*
X-2122212Y-3948318D01*
X-2119908Y-3949799D01*
X-2119744Y-3949964D01*
X-2119414Y-3950128D01*
X-2118756Y-3950622D01*
X-2117933Y-3951445D01*
X-2117110Y-3952268D01*
X-2115958Y-3953420D01*
X-2114806Y-3954737D01*
X-2113489Y-3956054D01*
X-2112172Y-3957700D01*
X-2110856Y-3959675D01*
X-2109374Y-3961650D01*
X-2108058Y-3963790D01*
X-2106905Y-3966259D01*
X-2105589Y-3968727D01*
X-2104601Y-3971361D01*
X-2103614Y-3974324D01*
X-2118427Y-3977780D01*
Y-3977615D01*
X-2118591Y-3977286D01*
X-2118921Y-3976628D01*
X-2119250Y-3975805D01*
X-2119579Y-3974817D01*
X-2120073Y-3973501D01*
X-2121389Y-3970867D01*
X-2123035Y-3967904D01*
X-2125010Y-3964942D01*
X-2127479Y-3962144D01*
X-2130113Y-3959675D01*
X-2130442Y-3959346D01*
X-2131430Y-3958687D01*
X-2133075Y-3957864D01*
X-2135215Y-3956712D01*
X-2138013Y-3955725D01*
X-2141140Y-3954737D01*
X-2144926Y-3954079D01*
X-2149041Y-3953914D01*
X-2150358D01*
X-2151181Y-3954079D01*
X-2152333D01*
X-2153649Y-3954243D01*
X-2156777Y-3954737D01*
X-2160233Y-3955395D01*
X-2163854Y-3956548D01*
X-2167640Y-3958194D01*
X-2171096Y-3960333D01*
X-2171261D01*
X-2171425Y-3960662D01*
X-2172578Y-3961485D01*
X-2174059Y-3962802D01*
X-2175869Y-3964777D01*
X-2178009Y-3967246D01*
X-2179984Y-3970044D01*
X-2181795Y-3973501D01*
X-2183441Y-3977286D01*
Y-3977451D01*
X-2183605Y-3977780D01*
X-2183770Y-3978274D01*
X-2183934Y-3979097D01*
X-2184264Y-3980084D01*
X-2184593Y-3981236D01*
X-2185087Y-3984034D01*
X-2185745Y-3987326D01*
X-2186403Y-3990947D01*
X-2186732Y-3994898D01*
X-2186897Y-3999177D01*
Y-3999342D01*
Y-3999835D01*
Y-4000658D01*
Y-4001646D01*
X-2186732Y-4002798D01*
Y-4004279D01*
X-2186568Y-4005925D01*
X-2186403Y-4007736D01*
X-2185910Y-4011686D01*
X-2185087Y-4015965D01*
X-2184099Y-4020245D01*
X-2182782Y-4024524D01*
Y-4024689D01*
X-2182618Y-4025018D01*
X-2182288Y-4025512D01*
X-2181959Y-4026335D01*
X-2180972Y-4028310D01*
X-2179490Y-4030614D01*
X-2177680Y-4033247D01*
X-2175376Y-4036046D01*
X-2172742Y-4038514D01*
X-2169615Y-4040819D01*
X-2169450D01*
X-2169121Y-4040983D01*
X-2168627Y-4041312D01*
X-2167969Y-4041642D01*
X-2167146Y-4041971D01*
X-2166158Y-4042465D01*
X-2163854Y-4043452D01*
X-2160892Y-4044440D01*
X-2157600Y-4045263D01*
X-2153979Y-4045921D01*
X-2150193Y-4046086D01*
X-2149041D01*
X-2148053Y-4045921D01*
X-2146901D01*
X-2145749Y-4045756D01*
X-2142786Y-4045098D01*
X-2139330Y-4044275D01*
X-2135874Y-4042958D01*
X-2132253Y-4041148D01*
X-2130442Y-4040160D01*
X-2128796Y-4038844D01*
X-2128632Y-4038679D01*
X-2128467Y-4038514D01*
X-2127973Y-4038021D01*
X-2127315Y-4037527D01*
X-2126656Y-4036704D01*
X-2125833Y-4035716D01*
X-2124846Y-4034729D01*
X-2124023Y-4033412D01*
X-2123035Y-4031931D01*
X-2121883Y-4030285D01*
X-2120896Y-4028639D01*
X-2119908Y-4026664D01*
X-2119085Y-4024524D01*
X-2118262Y-4022220D01*
X-2117439Y-4019751D01*
X-2116781Y-4017117D01*
X-2101638Y-4020903D01*
Y-4021068D01*
X-2101803Y-4021726D01*
X-2102132Y-4022714D01*
X-2102626Y-4024030D01*
X-2103120Y-4025512D01*
X-2103778Y-4027322D01*
X-2104601Y-4029297D01*
X-2105589Y-4031437D01*
X-2107893Y-4036046D01*
X-2110856Y-4040654D01*
X-2112666Y-4042958D01*
X-2114477Y-4045263D01*
X-2116452Y-4047238D01*
X-2118756Y-4049213D01*
X-2118921Y-4049377D01*
X-2119250Y-4049707D01*
X-2120073Y-4050036D01*
X-2120896Y-4050694D01*
X-2122212Y-4051517D01*
X-2123529Y-4052340D01*
X-2125340Y-4053163D01*
X-2127150Y-4053986D01*
X-2129290Y-4054974D01*
X-2131594Y-4055797D01*
X-2134063Y-4056620D01*
X-2136697Y-4057442D01*
X-2139495Y-4058101D01*
X-2142457Y-4058430D01*
X-2145584Y-4058759D01*
X-2148876Y-4058924D01*
X-2150687D01*
X-2152004Y-4058759D01*
X-2153485D01*
X-2155295Y-4058595D01*
X-2157271Y-4058265D01*
X-2159575Y-4057936D01*
X-2164348Y-4057113D01*
X-2169286Y-4055797D01*
X-2174223Y-4053986D01*
X-2176528Y-4052834D01*
X-2178832Y-4051517D01*
X-2178997Y-4051353D01*
X-2179326Y-4051188D01*
X-2179984Y-4050694D01*
X-2180643Y-4050036D01*
X-2181630Y-4049377D01*
X-2182782Y-4048390D01*
X-2184099Y-4047238D01*
X-2185416Y-4045921D01*
X-2186732Y-4044440D01*
X-2188214Y-4042958D01*
X-2191176Y-4039173D01*
X-2193975Y-4034729D01*
X-2196443Y-4029791D01*
Y-4029626D01*
X-2196773Y-4029133D01*
X-2196937Y-4028310D01*
X-2197431Y-4027322D01*
X-2197760Y-4026005D01*
X-2198254Y-4024359D01*
X-2198912Y-4022549D01*
X-2199406Y-4020574D01*
X-2199900Y-4018434D01*
X-2200558Y-4015965D01*
X-2201381Y-4010863D01*
X-2202040Y-4005102D01*
X-2202369Y-3999177D01*
Y-3999012D01*
Y-3998354D01*
Y-3997366D01*
X-2202204Y-3996214D01*
Y-3994568D01*
X-2202040Y-3992922D01*
X-2201875Y-3990783D01*
X-2201546Y-3988643D01*
X-2200723Y-3983870D01*
X-2199571Y-3978603D01*
X-2197925Y-3973336D01*
X-2195620Y-3968234D01*
X-2195456Y-3968069D01*
X-2195291Y-3967575D01*
X-2194962Y-3966917D01*
X-2194304Y-3966094D01*
X-2193645Y-3964942D01*
X-2192822Y-3963625D01*
X-2190683Y-3960662D01*
X-2187885Y-3957371D01*
X-2184593Y-3954079D01*
X-2180807Y-3950787D01*
X-2176363Y-3947989D01*
X-2176199Y-3947824D01*
X-2175705Y-3947660D01*
X-2175046Y-3947330D01*
X-2174223Y-3946837D01*
X-2172907Y-3946343D01*
X-2171590Y-3945849D01*
X-2169944Y-3945191D01*
X-2168134Y-3944532D01*
X-2166158Y-3943874D01*
X-2164019Y-3943216D01*
X-2159410Y-3942228D01*
X-2154143Y-3941405D01*
X-2148712Y-3941076D01*
X-2147066D01*
X-2145914Y-3941241D01*
D02*
G37*
G36*
X-2224589Y-4056949D02*
X-2239731D01*
Y-3943051D01*
X-2224589D01*
Y-4056949D01*
D02*
G37*
G36*
X-2299149Y-3943216D02*
X-2296351Y-3943380D01*
X-2293388Y-3943545D01*
X-2290590Y-3943874D01*
X-2288121Y-3944203D01*
X-2287792D01*
X-2286640Y-3944532D01*
X-2285158Y-3944862D01*
X-2283183Y-3945355D01*
X-2281044Y-3946178D01*
X-2278739Y-3947166D01*
X-2276271Y-3948318D01*
X-2274131Y-3949635D01*
X-2273802Y-3949799D01*
X-2273143Y-3950293D01*
X-2272156Y-3951281D01*
X-2270839Y-3952433D01*
X-2269358Y-3953914D01*
X-2267876Y-3955889D01*
X-2266230Y-3958029D01*
X-2264914Y-3960498D01*
X-2264749Y-3960827D01*
X-2264420Y-3961650D01*
X-2263762Y-3963131D01*
X-2263103Y-3965106D01*
X-2262609Y-3967411D01*
X-2261951Y-3970044D01*
X-2261622Y-3973007D01*
X-2261457Y-3976134D01*
Y-3976299D01*
Y-3976792D01*
Y-3977451D01*
X-2261622Y-3978603D01*
X-2261786Y-3979755D01*
X-2261951Y-3981236D01*
X-2262280Y-3982882D01*
X-2262609Y-3984693D01*
X-2263762Y-3988478D01*
X-2264420Y-3990454D01*
X-2265407Y-3992593D01*
X-2266560Y-3994733D01*
X-2267712Y-3996708D01*
X-2269193Y-3998683D01*
X-2270839Y-4000658D01*
X-2271004Y-4000823D01*
X-2271333Y-4001152D01*
X-2271827Y-4001646D01*
X-2272650Y-4002140D01*
X-2273637Y-4002963D01*
X-2274954Y-4003785D01*
X-2276600Y-4004773D01*
X-2278410Y-4005596D01*
X-2280550Y-4006584D01*
X-2283019Y-4007571D01*
X-2285652Y-4008394D01*
X-2288780Y-4009052D01*
X-2292071Y-4009711D01*
X-2295692Y-4010205D01*
X-2299807Y-4010534D01*
X-2304087Y-4010698D01*
X-2333219D01*
Y-4056949D01*
X-2348362D01*
Y-3943051D01*
X-2301618D01*
X-2299149Y-3943216D01*
D02*
G37*
G36*
X2155725Y-3791241D02*
X2157206Y-3791405D01*
X2159017Y-3791570D01*
X2160827Y-3791734D01*
X2162967Y-3792228D01*
X2167411Y-3793216D01*
X2172348Y-3794697D01*
X2174817Y-3795685D01*
X2177122Y-3796837D01*
X2179426Y-3798318D01*
X2181730Y-3799799D01*
X2181895Y-3799964D01*
X2182224Y-3800129D01*
X2182882Y-3800622D01*
X2183705Y-3801445D01*
X2184528Y-3802268D01*
X2185680Y-3803420D01*
X2186833Y-3804737D01*
X2188149Y-3806054D01*
X2189466Y-3807700D01*
X2190783Y-3809675D01*
X2192264Y-3811650D01*
X2193581Y-3813790D01*
X2194733Y-3816259D01*
X2196050Y-3818727D01*
X2197037Y-3821361D01*
X2198025Y-3824324D01*
X2183212Y-3827780D01*
Y-3827615D01*
X2183047Y-3827286D01*
X2182718Y-3826628D01*
X2182389Y-3825805D01*
X2182059Y-3824817D01*
X2181566Y-3823501D01*
X2180249Y-3820867D01*
X2178603Y-3817904D01*
X2176628Y-3814942D01*
X2174159Y-3812144D01*
X2171526Y-3809675D01*
X2171196Y-3809346D01*
X2170209Y-3808687D01*
X2168563Y-3807864D01*
X2166423Y-3806712D01*
X2163625Y-3805725D01*
X2160498Y-3804737D01*
X2156712Y-3804079D01*
X2152597Y-3803914D01*
X2151281D01*
X2150458Y-3804079D01*
X2149306D01*
X2147989Y-3804243D01*
X2144862Y-3804737D01*
X2141405Y-3805395D01*
X2137784Y-3806548D01*
X2133999Y-3808194D01*
X2130542Y-3810333D01*
X2130378D01*
X2130213Y-3810662D01*
X2129061Y-3811485D01*
X2127579Y-3812802D01*
X2125769Y-3814777D01*
X2123629Y-3817246D01*
X2121654Y-3820044D01*
X2119844Y-3823501D01*
X2118198Y-3827286D01*
Y-3827451D01*
X2118033Y-3827780D01*
X2117869Y-3828274D01*
X2117704Y-3829097D01*
X2117375Y-3830084D01*
X2117046Y-3831236D01*
X2116552Y-3834034D01*
X2115893Y-3837326D01*
X2115235Y-3840947D01*
X2114906Y-3844898D01*
X2114741Y-3849177D01*
Y-3849342D01*
Y-3849835D01*
Y-3850658D01*
Y-3851646D01*
X2114906Y-3852798D01*
Y-3854279D01*
X2115070Y-3855925D01*
X2115235Y-3857736D01*
X2115729Y-3861686D01*
X2116552Y-3865965D01*
X2117539Y-3870245D01*
X2118856Y-3874524D01*
Y-3874689D01*
X2119021Y-3875018D01*
X2119350Y-3875512D01*
X2119679Y-3876335D01*
X2120667Y-3878310D01*
X2122148Y-3880614D01*
X2123958Y-3883248D01*
X2126263Y-3886046D01*
X2128896Y-3888514D01*
X2132023Y-3890819D01*
X2132188D01*
X2132517Y-3890983D01*
X2133011Y-3891313D01*
X2133669Y-3891642D01*
X2134492Y-3891971D01*
X2135480Y-3892465D01*
X2137784Y-3893452D01*
X2140747Y-3894440D01*
X2144039Y-3895263D01*
X2147660Y-3895921D01*
X2151445Y-3896086D01*
X2152597D01*
X2153585Y-3895921D01*
X2154737D01*
X2155889Y-3895756D01*
X2158852Y-3895098D01*
X2162308Y-3894275D01*
X2165765Y-3892958D01*
X2169386Y-3891148D01*
X2171196Y-3890160D01*
X2172842Y-3888844D01*
X2173007Y-3888679D01*
X2173171Y-3888514D01*
X2173665Y-3888021D01*
X2174324Y-3887527D01*
X2174982Y-3886704D01*
X2175805Y-3885716D01*
X2176792Y-3884729D01*
X2177615Y-3883412D01*
X2178603Y-3881931D01*
X2179755Y-3880285D01*
X2180743Y-3878639D01*
X2181730Y-3876664D01*
X2182553Y-3874524D01*
X2183376Y-3872220D01*
X2184199Y-3869751D01*
X2184857Y-3867117D01*
X2200000Y-3870903D01*
Y-3871068D01*
X2199835Y-3871726D01*
X2199506Y-3872714D01*
X2199012Y-3874030D01*
X2198519Y-3875512D01*
X2197860Y-3877322D01*
X2197037Y-3879297D01*
X2196050Y-3881437D01*
X2193745Y-3886046D01*
X2190783Y-3890654D01*
X2188972Y-3892958D01*
X2187162Y-3895263D01*
X2185187Y-3897238D01*
X2182882Y-3899213D01*
X2182718Y-3899378D01*
X2182389Y-3899707D01*
X2181566Y-3900036D01*
X2180743Y-3900694D01*
X2179426Y-3901517D01*
X2178109Y-3902340D01*
X2176299Y-3903163D01*
X2174488Y-3903986D01*
X2172348Y-3904974D01*
X2170044Y-3905797D01*
X2167575Y-3906620D01*
X2164942Y-3907443D01*
X2162144Y-3908101D01*
X2159181Y-3908430D01*
X2156054Y-3908759D01*
X2152762Y-3908924D01*
X2150952D01*
X2149635Y-3908759D01*
X2148153D01*
X2146343Y-3908595D01*
X2144368Y-3908265D01*
X2142064Y-3907936D01*
X2137290Y-3907113D01*
X2132353Y-3905797D01*
X2127415Y-3903986D01*
X2125111Y-3902834D01*
X2122806Y-3901517D01*
X2122642Y-3901353D01*
X2122312Y-3901188D01*
X2121654Y-3900694D01*
X2120996Y-3900036D01*
X2120008Y-3899378D01*
X2118856Y-3898390D01*
X2117539Y-3897238D01*
X2116223Y-3895921D01*
X2114906Y-3894440D01*
X2113425Y-3892958D01*
X2110462Y-3889173D01*
X2107664Y-3884729D01*
X2105195Y-3879791D01*
Y-3879626D01*
X2104866Y-3879133D01*
X2104701Y-3878310D01*
X2104207Y-3877322D01*
X2103878Y-3876005D01*
X2103384Y-3874360D01*
X2102726Y-3872549D01*
X2102232Y-3870574D01*
X2101738Y-3868434D01*
X2101080Y-3865965D01*
X2100257Y-3860863D01*
X2099599Y-3855102D01*
X2099270Y-3849177D01*
Y-3849012D01*
Y-3848354D01*
Y-3847366D01*
X2099434Y-3846214D01*
Y-3844568D01*
X2099599Y-3842922D01*
X2099763Y-3840783D01*
X2100093Y-3838643D01*
X2100916Y-3833870D01*
X2102068Y-3828603D01*
X2103714Y-3823336D01*
X2106018Y-3818234D01*
X2106182Y-3818069D01*
X2106347Y-3817575D01*
X2106676Y-3816917D01*
X2107335Y-3816094D01*
X2107993Y-3814942D01*
X2108816Y-3813625D01*
X2110956Y-3810662D01*
X2113754Y-3807371D01*
X2117046Y-3804079D01*
X2120831Y-3800787D01*
X2125275Y-3797989D01*
X2125440Y-3797824D01*
X2125934Y-3797660D01*
X2126592Y-3797330D01*
X2127415Y-3796837D01*
X2128732Y-3796343D01*
X2130048Y-3795849D01*
X2131694Y-3795191D01*
X2133505Y-3794532D01*
X2135480Y-3793874D01*
X2137620Y-3793216D01*
X2142228Y-3792228D01*
X2147495Y-3791405D01*
X2152927Y-3791076D01*
X2154573D01*
X2155725Y-3791241D01*
D02*
G37*
G36*
X2049892Y-3792722D02*
X2051209Y-3792886D01*
X2052855Y-3793051D01*
X2054665Y-3793380D01*
X2056476Y-3793709D01*
X2060755Y-3794862D01*
X2065034Y-3796508D01*
X2067174Y-3797495D01*
X2069314Y-3798647D01*
X2071289Y-3800129D01*
X2073099Y-3801774D01*
X2073264Y-3801939D01*
X2073593Y-3802104D01*
X2073922Y-3802762D01*
X2074581Y-3803420D01*
X2075404Y-3804243D01*
X2076227Y-3805395D01*
X2077050Y-3806548D01*
X2078037Y-3808029D01*
X2079683Y-3811156D01*
X2081329Y-3815106D01*
X2081987Y-3817082D01*
X2082317Y-3819386D01*
X2082646Y-3821690D01*
X2082810Y-3824159D01*
Y-3824488D01*
Y-3825311D01*
X2082646Y-3826628D01*
X2082481Y-3828438D01*
X2082152Y-3830413D01*
X2081494Y-3832718D01*
X2080835Y-3835187D01*
X2079848Y-3837656D01*
X2079683Y-3837985D01*
X2079354Y-3838808D01*
X2078696Y-3840124D01*
X2077708Y-3841935D01*
X2076391Y-3843910D01*
X2074745Y-3846379D01*
X2072770Y-3848848D01*
X2070466Y-3851646D01*
X2070137Y-3851975D01*
X2069314Y-3852963D01*
X2068491Y-3853786D01*
X2067668Y-3854608D01*
X2066680Y-3855596D01*
X2065364Y-3856913D01*
X2064047Y-3858230D01*
X2062401Y-3859711D01*
X2060755Y-3861357D01*
X2058780Y-3863167D01*
X2056640Y-3864978D01*
X2054336Y-3867117D01*
X2051703Y-3869257D01*
X2049069Y-3871561D01*
X2048904Y-3871726D01*
X2048575Y-3872055D01*
X2047917Y-3872549D01*
X2047094Y-3873207D01*
X2046106Y-3874195D01*
X2044954Y-3875182D01*
X2042321Y-3877322D01*
X2039523Y-3879791D01*
X2036889Y-3882260D01*
X2034585Y-3884400D01*
X2033597Y-3885223D01*
X2032774Y-3886046D01*
X2032610Y-3886210D01*
X2032116Y-3886704D01*
X2031458Y-3887362D01*
X2030635Y-3888350D01*
X2029812Y-3889502D01*
X2028824Y-3890654D01*
X2026849Y-3893452D01*
X2082975D01*
Y-3906949D01*
X2007427D01*
Y-3906784D01*
Y-3906126D01*
Y-3905138D01*
X2007592Y-3903822D01*
X2007756Y-3902340D01*
X2008086Y-3900694D01*
X2008415Y-3899048D01*
X2009073Y-3897238D01*
Y-3897073D01*
X2009238Y-3896909D01*
X2009567Y-3895921D01*
X2010225Y-3894440D01*
X2011213Y-3892465D01*
X2012530Y-3890160D01*
X2014176Y-3887527D01*
X2015986Y-3884893D01*
X2018290Y-3882095D01*
Y-3881931D01*
X2018620Y-3881766D01*
X2019442Y-3880779D01*
X2020924Y-3879297D01*
X2023064Y-3877158D01*
X2025532Y-3874689D01*
X2028660Y-3871726D01*
X2032445Y-3868434D01*
X2036560Y-3864978D01*
X2036725Y-3864813D01*
X2037383Y-3864319D01*
X2038371Y-3863496D01*
X2039523Y-3862509D01*
X2041004Y-3861192D01*
X2042815Y-3859711D01*
X2044625Y-3858065D01*
X2046765Y-3856254D01*
X2050880Y-3852304D01*
X2054994Y-3848354D01*
X2056969Y-3846379D01*
X2058780Y-3844404D01*
X2060426Y-3842593D01*
X2061743Y-3840783D01*
Y-3840618D01*
X2062072Y-3840454D01*
X2062401Y-3839960D01*
X2062730Y-3839301D01*
X2063882Y-3837491D01*
X2065199Y-3835351D01*
X2066351Y-3832718D01*
X2067503Y-3829920D01*
X2068162Y-3826792D01*
X2068491Y-3823830D01*
Y-3823665D01*
Y-3823501D01*
X2068326Y-3822513D01*
X2068162Y-3820867D01*
X2067668Y-3819057D01*
X2067010Y-3816752D01*
X2065857Y-3814448D01*
X2064376Y-3812144D01*
X2062401Y-3809839D01*
X2062072Y-3809510D01*
X2061249Y-3808852D01*
X2060097Y-3808029D01*
X2058286Y-3806877D01*
X2055982Y-3805889D01*
X2053348Y-3804902D01*
X2050221Y-3804243D01*
X2046765Y-3804079D01*
X2045777D01*
X2045119Y-3804243D01*
X2043144Y-3804408D01*
X2040839Y-3804902D01*
X2038371Y-3805560D01*
X2035573Y-3806712D01*
X2032939Y-3808194D01*
X2030470Y-3810169D01*
X2030141Y-3810498D01*
X2029483Y-3811321D01*
X2028495Y-3812638D01*
X2027508Y-3814613D01*
X2026355Y-3816917D01*
X2025368Y-3819880D01*
X2024709Y-3823171D01*
X2024380Y-3826957D01*
X2010061Y-3825476D01*
Y-3825311D01*
X2010225Y-3824817D01*
Y-3823994D01*
X2010390Y-3822842D01*
X2010719Y-3821526D01*
X2011048Y-3820044D01*
X2011542Y-3818234D01*
X2012036Y-3816423D01*
X2013353Y-3812473D01*
X2015328Y-3808523D01*
X2016480Y-3806548D01*
X2017961Y-3804573D01*
X2019442Y-3802762D01*
X2021088Y-3801116D01*
X2021253Y-3800952D01*
X2021582Y-3800787D01*
X2022076Y-3800293D01*
X2022899Y-3799799D01*
X2023886Y-3799141D01*
X2025039Y-3798483D01*
X2026355Y-3797660D01*
X2028001Y-3796837D01*
X2029812Y-3796014D01*
X2031787Y-3795191D01*
X2033927Y-3794532D01*
X2036231Y-3793874D01*
X2038700Y-3793380D01*
X2041333Y-3792886D01*
X2044131Y-3792722D01*
X2047094Y-3792557D01*
X2048740D01*
X2049892Y-3792722D01*
D02*
G37*
G36*
X1988499Y-3906949D02*
X1973357D01*
Y-3793051D01*
X1988499D01*
Y-3906949D01*
D02*
G37*
G36*
X1663595D02*
X1649604D01*
Y-3817904D01*
X1649440Y-3818069D01*
X1648617Y-3818727D01*
X1647629Y-3819715D01*
X1645983Y-3820867D01*
X1644173Y-3822348D01*
X1641868Y-3823994D01*
X1639235Y-3825805D01*
X1636272Y-3827615D01*
X1636108D01*
X1635943Y-3827780D01*
X1634956Y-3828438D01*
X1633310Y-3829261D01*
X1631335Y-3830249D01*
X1629030Y-3831401D01*
X1626561Y-3832553D01*
X1624093Y-3833705D01*
X1621624Y-3834693D01*
Y-3821196D01*
X1621788D01*
X1622117Y-3820867D01*
X1622776Y-3820703D01*
X1623599Y-3820209D01*
X1624586Y-3819715D01*
X1625738Y-3819057D01*
X1628536Y-3817411D01*
X1631828Y-3815600D01*
X1635120Y-3813296D01*
X1638577Y-3810662D01*
X1642033Y-3807864D01*
X1642198Y-3807700D01*
X1642362Y-3807535D01*
X1642856Y-3807041D01*
X1643514Y-3806548D01*
X1644996Y-3804902D01*
X1646971Y-3802927D01*
X1648946Y-3800622D01*
X1651086Y-3797989D01*
X1652896Y-3795355D01*
X1654542Y-3792557D01*
X1663595D01*
Y-3906949D01*
D02*
G37*
G36*
X1828516Y-3792722D02*
X1830655Y-3793051D01*
X1833124Y-3793545D01*
X1835758Y-3794203D01*
X1838556Y-3795026D01*
X1841189Y-3796343D01*
X1841354D01*
X1841519Y-3796508D01*
X1842342Y-3797001D01*
X1843658Y-3797824D01*
X1845304Y-3798976D01*
X1847115Y-3800622D01*
X1849090Y-3802433D01*
X1850900Y-3804573D01*
X1852711Y-3807041D01*
X1852875Y-3807371D01*
X1853534Y-3808194D01*
X1854192Y-3809675D01*
X1855344Y-3811815D01*
X1856332Y-3814283D01*
X1857649Y-3817082D01*
X1858801Y-3820373D01*
X1859788Y-3823994D01*
Y-3824159D01*
X1859953Y-3824488D01*
X1860117Y-3824982D01*
X1860282Y-3825805D01*
X1860447Y-3826792D01*
X1860611Y-3827945D01*
X1860940Y-3829426D01*
X1861105Y-3831072D01*
X1861434Y-3832882D01*
X1861599Y-3834857D01*
X1861763Y-3837162D01*
X1862093Y-3839466D01*
X1862257Y-3842100D01*
Y-3844733D01*
X1862422Y-3847696D01*
Y-3850823D01*
Y-3850987D01*
Y-3851646D01*
Y-3852798D01*
Y-3854115D01*
X1862257Y-3855925D01*
Y-3857900D01*
X1862093Y-3860040D01*
X1861928Y-3862344D01*
X1861434Y-3867611D01*
X1860611Y-3873043D01*
X1859624Y-3878310D01*
X1858965Y-3880779D01*
X1858142Y-3883248D01*
Y-3883412D01*
X1857978Y-3883741D01*
X1857649Y-3884400D01*
X1857319Y-3885223D01*
X1856990Y-3886375D01*
X1856332Y-3887527D01*
X1855015Y-3890325D01*
X1853369Y-3893288D01*
X1851229Y-3896579D01*
X1848761Y-3899542D01*
X1845798Y-3902340D01*
X1845633D01*
X1845469Y-3902669D01*
X1844975Y-3902999D01*
X1844317Y-3903328D01*
X1843494Y-3903822D01*
X1842671Y-3904480D01*
X1840202Y-3905632D01*
X1837239Y-3906784D01*
X1833783Y-3907936D01*
X1829668Y-3908595D01*
X1825224Y-3908924D01*
X1823578D01*
X1822426Y-3908759D01*
X1821109Y-3908595D01*
X1819463Y-3908265D01*
X1817653Y-3907936D01*
X1815678Y-3907443D01*
X1813702Y-3906784D01*
X1811563Y-3906126D01*
X1809423Y-3905138D01*
X1807283Y-3903986D01*
X1805144Y-3902669D01*
X1803004Y-3901023D01*
X1801029Y-3899213D01*
X1799218Y-3897238D01*
X1799054Y-3897073D01*
X1798725Y-3896579D01*
X1798231Y-3895756D01*
X1797408Y-3894440D01*
X1796585Y-3892958D01*
X1795762Y-3890983D01*
X1794610Y-3888679D01*
X1793622Y-3886046D01*
X1792635Y-3883083D01*
X1791647Y-3879626D01*
X1790660Y-3875841D01*
X1789837Y-3871561D01*
X1789014Y-3866953D01*
X1788520Y-3862015D01*
X1788191Y-3856584D01*
X1788026Y-3850823D01*
Y-3850658D01*
Y-3850000D01*
Y-3848848D01*
Y-3847531D01*
X1788191Y-3845721D01*
Y-3843745D01*
X1788355Y-3841606D01*
X1788520Y-3839137D01*
X1789014Y-3834034D01*
X1789837Y-3828603D01*
X1790824Y-3823171D01*
X1791483Y-3820703D01*
X1792141Y-3818234D01*
Y-3818069D01*
X1792306Y-3817740D01*
X1792635Y-3817082D01*
X1792964Y-3816259D01*
X1793293Y-3815106D01*
X1793951Y-3813954D01*
X1795268Y-3811156D01*
X1796914Y-3808194D01*
X1799054Y-3805066D01*
X1801523Y-3801939D01*
X1804485Y-3799306D01*
X1804650D01*
X1804815Y-3798976D01*
X1805308Y-3798647D01*
X1805967Y-3798318D01*
X1806790Y-3797660D01*
X1807777Y-3797166D01*
X1810246Y-3795849D01*
X1813209Y-3794697D01*
X1816665Y-3793545D01*
X1820780Y-3792886D01*
X1825224Y-3792557D01*
X1826705D01*
X1828516Y-3792722D01*
D02*
G37*
G36*
X-1895968Y3108759D02*
X-1894815D01*
X-1891688Y3108430D01*
X-1888232Y3107936D01*
X-1884611Y3107113D01*
X-1880660Y3106126D01*
X-1877039Y3104809D01*
X-1876875D01*
X-1876546Y3104645D01*
X-1876052Y3104315D01*
X-1875394Y3103986D01*
X-1873748Y3103163D01*
X-1871608Y3101682D01*
X-1869139Y3100036D01*
X-1866670Y3097896D01*
X-1864366Y3095427D01*
X-1862226Y3092629D01*
Y3092465D01*
X-1862062Y3092300D01*
X-1861732Y3091806D01*
X-1861403Y3091313D01*
X-1860580Y3089667D01*
X-1859593Y3087527D01*
X-1858441Y3084893D01*
X-1857618Y3081766D01*
X-1856795Y3078474D01*
X-1856465Y3074853D01*
X-1870950Y3073701D01*
Y3073866D01*
Y3074195D01*
X-1871114Y3074689D01*
X-1871279Y3075512D01*
X-1871772Y3077322D01*
X-1872431Y3079791D01*
X-1873418Y3082425D01*
X-1874900Y3085058D01*
X-1876710Y3087527D01*
X-1879015Y3089831D01*
X-1879344Y3089996D01*
X-1880167Y3090654D01*
X-1881813Y3091642D01*
X-1883952Y3092629D01*
X-1886750Y3093617D01*
X-1890042Y3094604D01*
X-1894157Y3095263D01*
X-1898766Y3095427D01*
X-1901070D01*
X-1902057Y3095263D01*
X-1903374Y3095098D01*
X-1906337Y3094769D01*
X-1909629Y3094111D01*
X-1912920Y3093288D01*
X-1916048Y3091971D01*
X-1917364Y3091148D01*
X-1918681Y3090325D01*
X-1919010Y3090160D01*
X-1919669Y3089502D01*
X-1920656Y3088350D01*
X-1921644Y3087033D01*
X-1922796Y3085223D01*
X-1923784Y3083248D01*
X-1924442Y3080943D01*
X-1924771Y3078310D01*
Y3077981D01*
Y3077322D01*
X-1924607Y3076170D01*
X-1924277Y3074853D01*
X-1923784Y3073207D01*
X-1922961Y3071562D01*
X-1921973Y3069916D01*
X-1920492Y3068270D01*
X-1920327Y3068105D01*
X-1919504Y3067611D01*
X-1918846Y3067118D01*
X-1918187Y3066788D01*
X-1917200Y3066295D01*
X-1916048Y3065636D01*
X-1914566Y3065142D01*
X-1912920Y3064484D01*
X-1911110Y3063826D01*
X-1908970Y3063003D01*
X-1906666Y3062344D01*
X-1904033Y3061521D01*
X-1901070Y3060863D01*
X-1897778Y3060040D01*
X-1897613D01*
X-1896955Y3059876D01*
X-1895968Y3059711D01*
X-1894815Y3059382D01*
X-1893334Y3059053D01*
X-1891524Y3058559D01*
X-1889713Y3058065D01*
X-1887738Y3057571D01*
X-1883459Y3056419D01*
X-1879344Y3055267D01*
X-1877369Y3054609D01*
X-1875558Y3053950D01*
X-1873912Y3053456D01*
X-1872595Y3052798D01*
X-1872431D01*
X-1872102Y3052633D01*
X-1871608Y3052304D01*
X-1870950Y3051975D01*
X-1869139Y3050988D01*
X-1866999Y3049671D01*
X-1864530Y3047860D01*
X-1862062Y3045885D01*
X-1859757Y3043581D01*
X-1857782Y3041112D01*
X-1857618Y3040783D01*
X-1856959Y3039960D01*
X-1856301Y3038479D01*
X-1855313Y3036503D01*
X-1854490Y3034199D01*
X-1853667Y3031401D01*
X-1853174Y3028274D01*
X-1853009Y3024982D01*
Y3024817D01*
Y3024653D01*
Y3024159D01*
Y3023501D01*
X-1853338Y3021690D01*
X-1853667Y3019386D01*
X-1854326Y3016752D01*
X-1855149Y3013954D01*
X-1856465Y3010992D01*
X-1858276Y3007864D01*
Y3007700D01*
X-1858441Y3007535D01*
X-1859263Y3006548D01*
X-1860416Y3005066D01*
X-1862062Y3003420D01*
X-1864201Y3001445D01*
X-1866835Y2999306D01*
X-1869797Y2997331D01*
X-1873254Y2995520D01*
X-1873418D01*
X-1873748Y2995355D01*
X-1874241Y2995191D01*
X-1874900Y2994862D01*
X-1875887Y2994532D01*
X-1877039Y2994039D01*
X-1879673Y2993380D01*
X-1882800Y2992557D01*
X-1886586Y2991734D01*
X-1890701Y2991241D01*
X-1895145Y2991076D01*
X-1897778D01*
X-1899095Y2991241D01*
X-1900576D01*
X-1902222Y2991405D01*
X-1904197Y2991570D01*
X-1908312Y2992228D01*
X-1912591Y2992887D01*
X-1916871Y2994039D01*
X-1920985Y2995520D01*
X-1921150D01*
X-1921479Y2995685D01*
X-1921973Y2996014D01*
X-1922631Y2996343D01*
X-1924607Y2997331D01*
X-1926911Y2998812D01*
X-1929544Y3000787D01*
X-1932342Y3003091D01*
X-1934976Y3005889D01*
X-1937445Y3009017D01*
Y3009181D01*
X-1937774Y3009510D01*
X-1937938Y3010004D01*
X-1938432Y3010663D01*
X-1938761Y3011485D01*
X-1939255Y3012473D01*
X-1940407Y3014942D01*
X-1941559Y3018069D01*
X-1942547Y3021526D01*
X-1943205Y3025476D01*
X-1943535Y3029591D01*
X-1929380Y3030907D01*
Y3030743D01*
Y3030578D01*
X-1929215Y3030084D01*
Y3029426D01*
X-1928886Y3027945D01*
X-1928392Y3025805D01*
X-1927734Y3023665D01*
X-1927075Y3021196D01*
X-1925923Y3018892D01*
X-1924771Y3016752D01*
X-1924607Y3016588D01*
X-1924113Y3015929D01*
X-1923290Y3014777D01*
X-1921973Y3013625D01*
X-1920327Y3012144D01*
X-1918517Y3010663D01*
X-1916048Y3009181D01*
X-1913414Y3007864D01*
X-1913250D01*
X-1913085Y3007700D01*
X-1912591Y3007535D01*
X-1912098Y3007371D01*
X-1910452Y3006877D01*
X-1908312Y3006219D01*
X-1905678Y3005560D01*
X-1902716Y3005066D01*
X-1899424Y3004737D01*
X-1895803Y3004573D01*
X-1894322D01*
X-1892676Y3004737D01*
X-1890701Y3004902D01*
X-1888396Y3005231D01*
X-1885763Y3005560D01*
X-1883129Y3006219D01*
X-1880660Y3007041D01*
X-1880331Y3007206D01*
X-1879508Y3007535D01*
X-1878356Y3008194D01*
X-1876875Y3008852D01*
X-1875394Y3010004D01*
X-1873748Y3011156D01*
X-1872102Y3012473D01*
X-1870785Y3014119D01*
X-1870620Y3014284D01*
X-1870291Y3014942D01*
X-1869797Y3015765D01*
X-1869139Y3017082D01*
X-1868481Y3018398D01*
X-1867987Y3020044D01*
X-1867658Y3021855D01*
X-1867493Y3023830D01*
Y3023994D01*
Y3024817D01*
X-1867658Y3025805D01*
X-1867822Y3027122D01*
X-1868316Y3028438D01*
X-1868810Y3030084D01*
X-1869633Y3031730D01*
X-1870785Y3033212D01*
X-1870950Y3033376D01*
X-1871443Y3033870D01*
X-1872102Y3034528D01*
X-1873254Y3035516D01*
X-1874571Y3036503D01*
X-1876381Y3037656D01*
X-1878521Y3038808D01*
X-1880990Y3039795D01*
X-1881154Y3039960D01*
X-1881977Y3040124D01*
X-1883294Y3040618D01*
X-1884117Y3040783D01*
X-1885269Y3041112D01*
X-1886421Y3041606D01*
X-1887902Y3041935D01*
X-1889548Y3042429D01*
X-1891524Y3042923D01*
X-1893499Y3043416D01*
X-1895803Y3044075D01*
X-1898436Y3044733D01*
X-1901234Y3045391D01*
X-1901399D01*
X-1901893Y3045556D01*
X-1902716Y3045721D01*
X-1903703Y3046050D01*
X-1905020Y3046379D01*
X-1906501Y3046708D01*
X-1909793Y3047696D01*
X-1913414Y3048848D01*
X-1917200Y3050000D01*
X-1920492Y3051152D01*
X-1921973Y3051811D01*
X-1923290Y3052469D01*
X-1923454D01*
X-1923619Y3052633D01*
X-1924607Y3053292D01*
X-1926088Y3054115D01*
X-1927734Y3055432D01*
X-1929709Y3056913D01*
X-1931684Y3058723D01*
X-1933659Y3060863D01*
X-1935305Y3063167D01*
X-1935470Y3063497D01*
X-1935963Y3064320D01*
X-1936622Y3065636D01*
X-1937280Y3067282D01*
X-1937938Y3069422D01*
X-1938597Y3071891D01*
X-1939091Y3074524D01*
X-1939255Y3077322D01*
Y3077487D01*
Y3077651D01*
Y3078145D01*
Y3078804D01*
X-1938926Y3080450D01*
X-1938597Y3082589D01*
X-1938103Y3085058D01*
X-1937280Y3087856D01*
X-1936128Y3090654D01*
X-1934482Y3093452D01*
Y3093617D01*
X-1934317Y3093781D01*
X-1933494Y3094769D01*
X-1932342Y3096086D01*
X-1930861Y3097732D01*
X-1928886Y3099542D01*
X-1926417Y3101517D01*
X-1923454Y3103328D01*
X-1920163Y3104974D01*
X-1919998D01*
X-1919669Y3105138D01*
X-1919175Y3105303D01*
X-1918517Y3105632D01*
X-1917694Y3105961D01*
X-1916542Y3106290D01*
X-1914073Y3106949D01*
X-1910945Y3107607D01*
X-1907324Y3108266D01*
X-1903539Y3108759D01*
X-1899259Y3108924D01*
X-1897120D01*
X-1895968Y3108759D01*
D02*
G37*
G36*
X-1963615Y3041112D02*
Y3040947D01*
Y3040289D01*
Y3039466D01*
Y3038314D01*
X-1963779Y3036833D01*
Y3035187D01*
X-1963944Y3033212D01*
X-1964109Y3031237D01*
X-1964602Y3026793D01*
X-1965261Y3022184D01*
X-1966248Y3017740D01*
X-1966907Y3015600D01*
X-1967565Y3013625D01*
Y3013461D01*
X-1967730Y3013131D01*
X-1968059Y3012638D01*
X-1968388Y3011979D01*
X-1969376Y3010169D01*
X-1970857Y3007864D01*
X-1972832Y3005231D01*
X-1975136Y3002597D01*
X-1978099Y2999799D01*
X-1981720Y2997331D01*
X-1981885D01*
X-1982214Y2997001D01*
X-1982707Y2996837D01*
X-1983530Y2996343D01*
X-1984518Y2995849D01*
X-1985835Y2995355D01*
X-1987151Y2994862D01*
X-1988797Y2994203D01*
X-1990608Y2993545D01*
X-1992583Y2993051D01*
X-1994723Y2992557D01*
X-1997192Y2992064D01*
X-1999660Y2991734D01*
X-2002294Y2991405D01*
X-2008219Y2991076D01*
X-2009701D01*
X-2010853Y2991241D01*
X-2012169D01*
X-2013815Y2991405D01*
X-2015626Y2991570D01*
X-2017436Y2991734D01*
X-2021551Y2992393D01*
X-2025995Y2993380D01*
X-2030275Y2994697D01*
X-2034389Y2996508D01*
X-2034554D01*
X-2034883Y2996837D01*
X-2035377Y2997166D01*
X-2036035Y2997495D01*
X-2037846Y2998812D01*
X-2039986Y3000622D01*
X-2042454Y3002927D01*
X-2044759Y3005560D01*
X-2047063Y3008852D01*
X-2048873Y3012473D01*
Y3012638D01*
X-2049038Y3012967D01*
X-2049203Y3013625D01*
X-2049532Y3014448D01*
X-2049861Y3015436D01*
X-2050190Y3016752D01*
X-2050684Y3018234D01*
X-2051013Y3020044D01*
X-2051342Y3022019D01*
X-2051836Y3024159D01*
X-2052165Y3026463D01*
X-2052494Y3028932D01*
X-2052824Y3031730D01*
X-2052988Y3034693D01*
X-2053153Y3037820D01*
Y3041112D01*
Y3106949D01*
X-2038010D01*
Y3041112D01*
Y3040947D01*
Y3040454D01*
Y3039631D01*
Y3038643D01*
X-2037846Y3037491D01*
Y3036010D01*
X-2037681Y3032882D01*
X-2037352Y3029261D01*
X-2036858Y3025640D01*
X-2036200Y3022184D01*
X-2035871Y3020703D01*
X-2035377Y3019221D01*
X-2035212Y3018892D01*
X-2034883Y3018069D01*
X-2034060Y3016917D01*
X-2033073Y3015271D01*
X-2031920Y3013625D01*
X-2030275Y3011815D01*
X-2028299Y3010004D01*
X-2025995Y3008523D01*
X-2025666Y3008358D01*
X-2024843Y3007864D01*
X-2023362Y3007371D01*
X-2021387Y3006712D01*
X-2019082Y3005889D01*
X-2016120Y3005396D01*
X-2012992Y3004902D01*
X-2009536Y3004737D01*
X-2007890D01*
X-2006903Y3004902D01*
X-2005421D01*
X-2003940Y3005066D01*
X-2000319Y3005725D01*
X-1996369Y3006548D01*
X-1992583Y3007864D01*
X-1988962Y3009675D01*
X-1987316Y3010827D01*
X-1985835Y3012144D01*
X-1985670Y3012308D01*
X-1985506Y3012473D01*
X-1985176Y3012967D01*
X-1984683Y3013625D01*
X-1984189Y3014613D01*
X-1983530Y3015600D01*
X-1982872Y3017082D01*
X-1982214Y3018563D01*
X-1981555Y3020373D01*
X-1981062Y3022513D01*
X-1980403Y3024982D01*
X-1979909Y3027615D01*
X-1979416Y3030578D01*
X-1979086Y3033705D01*
X-1978757Y3037326D01*
Y3041112D01*
Y3106949D01*
X-1963615D01*
Y3041112D01*
D02*
G37*
G36*
X-1787008Y3106784D02*
X-1785691D01*
X-1782728Y3106455D01*
X-1779436Y3106126D01*
X-1775980Y3105467D01*
X-1772524Y3104645D01*
X-1769396Y3103492D01*
X-1769232D01*
X-1769067Y3103328D01*
X-1768080Y3102834D01*
X-1766598Y3102011D01*
X-1764952Y3100859D01*
X-1762977Y3099378D01*
X-1760837Y3097567D01*
X-1758862Y3095263D01*
X-1757052Y3092794D01*
X-1756887Y3092465D01*
X-1756393Y3091477D01*
X-1755571Y3090160D01*
X-1754748Y3088185D01*
X-1753925Y3085881D01*
X-1753102Y3083412D01*
X-1752608Y3080614D01*
X-1752443Y3077816D01*
Y3077487D01*
Y3076664D01*
X-1752608Y3075183D01*
X-1752937Y3073372D01*
X-1753431Y3071232D01*
X-1754254Y3068928D01*
X-1755241Y3066624D01*
X-1756558Y3064155D01*
X-1756723Y3063826D01*
X-1757216Y3063167D01*
X-1758204Y3061851D01*
X-1759521Y3060534D01*
X-1761167Y3058888D01*
X-1763142Y3057077D01*
X-1765611Y3055432D01*
X-1768409Y3053786D01*
X-1768244D01*
X-1767915Y3053621D01*
X-1767421Y3053456D01*
X-1766763Y3053127D01*
X-1764788Y3052469D01*
X-1762483Y3051317D01*
X-1760015Y3049835D01*
X-1757216Y3048025D01*
X-1754748Y3045885D01*
X-1752443Y3043252D01*
X-1752279Y3042923D01*
X-1751620Y3041935D01*
X-1750633Y3040454D01*
X-1749645Y3038479D01*
X-1748658Y3035845D01*
X-1747670Y3033047D01*
X-1747012Y3029755D01*
X-1746847Y3026134D01*
Y3025970D01*
Y3025805D01*
Y3024817D01*
X-1747012Y3023171D01*
X-1747341Y3021196D01*
X-1747670Y3018892D01*
X-1748328Y3016423D01*
X-1749151Y3013790D01*
X-1750304Y3011156D01*
X-1750468Y3010827D01*
X-1750962Y3010004D01*
X-1751620Y3008852D01*
X-1752608Y3007206D01*
X-1753925Y3005560D01*
X-1755241Y3003750D01*
X-1756887Y3001939D01*
X-1758698Y3000458D01*
X-1758862Y3000293D01*
X-1759521Y2999799D01*
X-1760673Y2999141D01*
X-1762154Y2998483D01*
X-1763965Y2997495D01*
X-1766104Y2996508D01*
X-1768409Y2995685D01*
X-1771207Y2994862D01*
X-1771536D01*
X-1772524Y2994532D01*
X-1774169Y2994368D01*
X-1776309Y2994039D01*
X-1778943Y2993710D01*
X-1782070Y2993380D01*
X-1785526Y2993216D01*
X-1789476Y2993051D01*
X-1832929D01*
Y3106949D01*
X-1788160D01*
X-1787008Y3106784D01*
D02*
G37*
G36*
X1492100Y4178003D02*
X1493581Y4177839D01*
X1495391Y4177674D01*
X1497202Y4177510D01*
X1499342Y4177016D01*
X1503786Y4176028D01*
X1508723Y4174547D01*
X1511192Y4173559D01*
X1513497Y4172407D01*
X1515801Y4170926D01*
X1518105Y4169445D01*
X1518270Y4169280D01*
X1518599Y4169115D01*
X1519257Y4168622D01*
X1520080Y4167799D01*
X1520903Y4166976D01*
X1522055Y4165824D01*
X1523208Y4164507D01*
X1524524Y4163190D01*
X1525841Y4161544D01*
X1527158Y4159569D01*
X1528639Y4157594D01*
X1529956Y4155454D01*
X1531108Y4152985D01*
X1532425Y4150516D01*
X1533412Y4147883D01*
X1534400Y4144920D01*
X1519586Y4141464D01*
Y4141628D01*
X1519422Y4141958D01*
X1519093Y4142616D01*
X1518764Y4143439D01*
X1518434Y4144427D01*
X1517941Y4145743D01*
X1516624Y4148377D01*
X1514978Y4151339D01*
X1513003Y4154302D01*
X1510534Y4157100D01*
X1507900Y4159569D01*
X1507571Y4159898D01*
X1506584Y4160557D01*
X1504938Y4161380D01*
X1502798Y4162532D01*
X1500000Y4163519D01*
X1496873Y4164507D01*
X1493087Y4165165D01*
X1488972Y4165330D01*
X1487656D01*
X1486833Y4165165D01*
X1485681D01*
X1484364Y4165001D01*
X1481237Y4164507D01*
X1477780Y4163848D01*
X1474159Y4162696D01*
X1470373Y4161050D01*
X1466917Y4158911D01*
X1466752D01*
X1466588Y4158581D01*
X1465436Y4157759D01*
X1463954Y4156442D01*
X1462144Y4154467D01*
X1460004Y4151998D01*
X1458029Y4149200D01*
X1456219Y4145743D01*
X1454573Y4141958D01*
Y4141793D01*
X1454408Y4141464D01*
X1454243Y4140970D01*
X1454079Y4140147D01*
X1453750Y4139160D01*
X1453421Y4138007D01*
X1452927Y4135209D01*
X1452268Y4131918D01*
X1451610Y4128297D01*
X1451281Y4124346D01*
X1451116Y4120067D01*
Y4119902D01*
Y4119409D01*
Y4118586D01*
Y4117598D01*
X1451281Y4116446D01*
Y4114965D01*
X1451445Y4113319D01*
X1451610Y4111508D01*
X1452104Y4107558D01*
X1452927Y4103279D01*
X1453914Y4098999D01*
X1455231Y4094720D01*
Y4094555D01*
X1455396Y4094226D01*
X1455725Y4093732D01*
X1456054Y4092909D01*
X1457042Y4090934D01*
X1458523Y4088630D01*
X1460333Y4085996D01*
X1462638Y4083198D01*
X1465271Y4080729D01*
X1468398Y4078425D01*
X1468563D01*
X1468892Y4078261D01*
X1469386Y4077931D01*
X1470044Y4077602D01*
X1470867Y4077273D01*
X1471855Y4076779D01*
X1474159Y4075792D01*
X1477122Y4074804D01*
X1480414Y4073981D01*
X1484035Y4073323D01*
X1487820Y4073158D01*
X1488972D01*
X1489960Y4073323D01*
X1491112D01*
X1492264Y4073487D01*
X1495227Y4074146D01*
X1498683Y4074969D01*
X1502140Y4076285D01*
X1505761Y4078096D01*
X1507571Y4079084D01*
X1509217Y4080400D01*
X1509382Y4080565D01*
X1509546Y4080729D01*
X1510040Y4081223D01*
X1510699Y4081717D01*
X1511357Y4082540D01*
X1512180Y4083528D01*
X1513167Y4084515D01*
X1513990Y4085832D01*
X1514978Y4087313D01*
X1516130Y4088959D01*
X1517118Y4090605D01*
X1518105Y4092580D01*
X1518928Y4094720D01*
X1519751Y4097024D01*
X1520574Y4099493D01*
X1521232Y4102126D01*
X1536375Y4098341D01*
Y4098176D01*
X1536210Y4097518D01*
X1535881Y4096530D01*
X1535387Y4095214D01*
X1534894Y4093732D01*
X1534235Y4091922D01*
X1533412Y4089947D01*
X1532425Y4087807D01*
X1530120Y4083198D01*
X1527158Y4078590D01*
X1525347Y4076285D01*
X1523537Y4073981D01*
X1521562Y4072006D01*
X1519257Y4070031D01*
X1519093Y4069866D01*
X1518764Y4069537D01*
X1517941Y4069208D01*
X1517118Y4068550D01*
X1515801Y4067727D01*
X1514484Y4066904D01*
X1512674Y4066081D01*
X1510863Y4065258D01*
X1508723Y4064270D01*
X1506419Y4063447D01*
X1503950Y4062624D01*
X1501317Y4061801D01*
X1498519Y4061143D01*
X1495556Y4060814D01*
X1492429Y4060485D01*
X1489137Y4060320D01*
X1487326D01*
X1486010Y4060485D01*
X1484528D01*
X1482718Y4060649D01*
X1480743Y4060978D01*
X1478438Y4061308D01*
X1473665Y4062131D01*
X1468728Y4063447D01*
X1463790Y4065258D01*
X1461486Y4066410D01*
X1459181Y4067727D01*
X1459017Y4067891D01*
X1458687Y4068056D01*
X1458029Y4068550D01*
X1457371Y4069208D01*
X1456383Y4069866D01*
X1455231Y4070854D01*
X1453914Y4072006D01*
X1452598Y4073323D01*
X1451281Y4074804D01*
X1449799Y4076285D01*
X1446837Y4080071D01*
X1444039Y4084515D01*
X1441570Y4089453D01*
Y4089617D01*
X1441241Y4090111D01*
X1441076Y4090934D01*
X1440582Y4091922D01*
X1440253Y4093238D01*
X1439759Y4094884D01*
X1439101Y4096695D01*
X1438607Y4098670D01*
X1438113Y4100810D01*
X1437455Y4103279D01*
X1436632Y4108381D01*
X1435974Y4114142D01*
X1435645Y4120067D01*
Y4120232D01*
Y4120890D01*
Y4121877D01*
X1435809Y4123030D01*
Y4124676D01*
X1435974Y4126321D01*
X1436138Y4128461D01*
X1436468Y4130601D01*
X1437290Y4135374D01*
X1438443Y4140641D01*
X1440089Y4145908D01*
X1442393Y4151010D01*
X1442557Y4151175D01*
X1442722Y4151669D01*
X1443051Y4152327D01*
X1443710Y4153150D01*
X1444368Y4154302D01*
X1445191Y4155619D01*
X1447331Y4158581D01*
X1450129Y4161873D01*
X1453421Y4165165D01*
X1457206Y4168457D01*
X1461650Y4171255D01*
X1461815Y4171420D01*
X1462308Y4171584D01*
X1462967Y4171913D01*
X1463790Y4172407D01*
X1465107Y4172901D01*
X1466423Y4173395D01*
X1468069Y4174053D01*
X1469880Y4174711D01*
X1471855Y4175370D01*
X1473995Y4176028D01*
X1478603Y4177016D01*
X1483870Y4177839D01*
X1489302Y4178168D01*
X1490947D01*
X1492100Y4178003D01*
D02*
G37*
G36*
X1601718Y4176028D02*
X1605010Y4175864D01*
X1608302Y4175534D01*
X1611593Y4175041D01*
X1614391Y4174547D01*
X1614556D01*
X1614885Y4174382D01*
X1615379D01*
X1616037Y4174053D01*
X1617848Y4173559D01*
X1620152Y4172736D01*
X1622786Y4171584D01*
X1625584Y4170103D01*
X1628382Y4168457D01*
X1631015Y4166317D01*
X1631180Y4166153D01*
X1631344Y4165988D01*
X1631838Y4165494D01*
X1632497Y4165001D01*
X1634143Y4163355D01*
X1636118Y4161050D01*
X1638257Y4158252D01*
X1640562Y4154960D01*
X1642701Y4151175D01*
X1644512Y4146895D01*
Y4146731D01*
X1644676Y4146402D01*
X1645006Y4145743D01*
X1645170Y4144756D01*
X1645664Y4143604D01*
X1645993Y4142287D01*
X1646322Y4140806D01*
X1646816Y4138995D01*
X1647310Y4137185D01*
X1647639Y4135045D01*
X1648462Y4130436D01*
X1648956Y4125334D01*
X1649120Y4119738D01*
Y4119573D01*
Y4119244D01*
Y4118421D01*
Y4117598D01*
X1648956Y4116446D01*
Y4115129D01*
X1648791Y4112002D01*
X1648297Y4108381D01*
X1647804Y4104595D01*
X1646981Y4100645D01*
X1645993Y4096695D01*
Y4096530D01*
X1645829Y4096201D01*
X1645664Y4095707D01*
X1645499Y4095049D01*
X1644841Y4093238D01*
X1643853Y4090934D01*
X1642866Y4088301D01*
X1641549Y4085667D01*
X1639903Y4082869D01*
X1638257Y4080236D01*
X1638093Y4079906D01*
X1637434Y4079084D01*
X1636447Y4077931D01*
X1635130Y4076450D01*
X1633649Y4074804D01*
X1631838Y4073158D01*
X1630028Y4071348D01*
X1627888Y4069866D01*
X1627559Y4069702D01*
X1626900Y4069208D01*
X1625748Y4068550D01*
X1624102Y4067727D01*
X1622127Y4066739D01*
X1619823Y4065916D01*
X1617190Y4064929D01*
X1614227Y4064106D01*
X1613898D01*
X1613404Y4063941D01*
X1612910Y4063776D01*
X1611264Y4063612D01*
X1608960Y4063283D01*
X1606326Y4062954D01*
X1603199Y4062624D01*
X1599743Y4062460D01*
X1595957Y4062295D01*
X1554974D01*
Y4176193D01*
X1598755D01*
X1601718Y4176028D01*
D02*
G37*
G36*
X1366022Y4075792D02*
X1422148D01*
Y4062295D01*
X1350880D01*
Y4176193D01*
X1366022D01*
Y4075792D01*
D02*
G37*
G36*
X1700720Y3923643D02*
X1687717D01*
Y3934012D01*
X1687553Y3933848D01*
X1687388Y3933518D01*
X1686894Y3932860D01*
X1686236Y3932037D01*
X1685413Y3931214D01*
X1684425Y3930227D01*
X1683273Y3929074D01*
X1681792Y3927922D01*
X1680311Y3926770D01*
X1678665Y3925618D01*
X1676690Y3924630D01*
X1674550Y3923807D01*
X1672410Y3922985D01*
X1669941Y3922326D01*
X1667308Y3921997D01*
X1664510Y3921832D01*
X1663522D01*
X1662864Y3921997D01*
X1660889Y3922162D01*
X1658584Y3922491D01*
X1655786Y3923149D01*
X1652659Y3924137D01*
X1649532Y3925453D01*
X1646405Y3927264D01*
X1646240D01*
X1646075Y3927593D01*
X1645088Y3928251D01*
X1643607Y3929568D01*
X1641796Y3931214D01*
X1639656Y3933354D01*
X1637517Y3935987D01*
X1635377Y3938950D01*
X1633566Y3942406D01*
Y3942571D01*
X1633402Y3942900D01*
X1633237Y3943394D01*
X1632908Y3944052D01*
X1632579Y3945040D01*
X1632085Y3946192D01*
X1631756Y3947344D01*
X1631427Y3948825D01*
X1630604Y3952117D01*
X1629781Y3955903D01*
X1629287Y3960182D01*
X1629122Y3964791D01*
Y3964955D01*
Y3965285D01*
Y3965943D01*
Y3966931D01*
X1629287Y3967918D01*
Y3969235D01*
X1629616Y3972198D01*
X1630110Y3975654D01*
X1630933Y3979440D01*
X1631921Y3983390D01*
X1633237Y3987175D01*
Y3987340D01*
X1633402Y3987669D01*
X1633731Y3988163D01*
X1634060Y3988821D01*
X1635048Y3990632D01*
X1636365Y3992936D01*
X1638010Y3995405D01*
X1640150Y3997874D01*
X1642619Y4000507D01*
X1645582Y4002647D01*
X1645746D01*
X1645911Y4002812D01*
X1646405Y4003141D01*
X1647063Y4003470D01*
X1648709Y4004293D01*
X1651013Y4005445D01*
X1653647Y4006433D01*
X1656774Y4007256D01*
X1660230Y4007914D01*
X1663851Y4008079D01*
X1665168D01*
X1666485Y4007914D01*
X1668295Y4007749D01*
X1670435Y4007256D01*
X1672739Y4006762D01*
X1675044Y4005939D01*
X1677183Y4004787D01*
X1677513Y4004622D01*
X1678171Y4004293D01*
X1679158Y4003470D01*
X1680475Y4002647D01*
X1682121Y4001495D01*
X1683602Y4000014D01*
X1685248Y3998532D01*
X1686730Y3996722D01*
Y4037541D01*
X1700720D01*
Y3923643D01*
D02*
G37*
G36*
X1614309Y4007914D02*
X1616120Y4007585D01*
X1618259Y4006926D01*
X1620564Y4006103D01*
X1623197Y4004951D01*
X1625995Y4003470D01*
X1620893Y3990632D01*
X1620728Y3990796D01*
X1620070Y3991126D01*
X1619082Y3991619D01*
X1617766Y3992113D01*
X1616284Y3992607D01*
X1614474Y3993101D01*
X1612663Y3993430D01*
X1610853Y3993595D01*
X1610030D01*
X1609207Y3993430D01*
X1608055Y3993265D01*
X1606903Y3992936D01*
X1605421Y3992442D01*
X1603940Y3991784D01*
X1602623Y3990796D01*
X1602459Y3990632D01*
X1601965Y3990303D01*
X1601471Y3989644D01*
X1600648Y3988821D01*
X1599825Y3987669D01*
X1599002Y3986352D01*
X1598179Y3984871D01*
X1597521Y3983061D01*
X1597356Y3982731D01*
X1597192Y3981744D01*
X1596862Y3980263D01*
X1596369Y3978287D01*
X1595875Y3975819D01*
X1595546Y3973021D01*
X1595381Y3970058D01*
X1595217Y3966766D01*
Y3923643D01*
X1581226D01*
Y4006268D01*
X1593900D01*
Y3993759D01*
X1594064Y3993924D01*
X1594723Y3995076D01*
X1595546Y3996557D01*
X1596862Y3998368D01*
X1598179Y4000178D01*
X1599661Y4002153D01*
X1601142Y4003799D01*
X1602623Y4005116D01*
X1602788Y4005281D01*
X1603282Y4005610D01*
X1604269Y4006103D01*
X1605257Y4006597D01*
X1606573Y4007091D01*
X1608219Y4007585D01*
X1609865Y4007914D01*
X1611676Y4008079D01*
X1612828D01*
X1614309Y4007914D01*
D02*
G37*
G36*
X1531355D02*
X1533824Y4007749D01*
X1536622Y4007420D01*
X1539420Y4006926D01*
X1542218Y4006268D01*
X1544851Y4005445D01*
X1545181Y4005281D01*
X1546004Y4004951D01*
X1547156Y4004458D01*
X1548637Y4003799D01*
X1550283Y4002812D01*
X1551929Y4001824D01*
X1553410Y4000507D01*
X1554727Y3999191D01*
X1554891Y3999026D01*
X1555221Y3998532D01*
X1555714Y3997709D01*
X1556373Y3996722D01*
X1557196Y3995240D01*
X1557854Y3993759D01*
X1558513Y3991949D01*
X1559006Y3989809D01*
Y3989644D01*
X1559171Y3989151D01*
X1559335Y3988163D01*
X1559500Y3986846D01*
Y3985036D01*
X1559665Y3982896D01*
X1559829Y3980098D01*
Y3976971D01*
Y3958207D01*
Y3958043D01*
Y3957384D01*
Y3956397D01*
Y3955080D01*
Y3953599D01*
Y3951788D01*
X1559994Y3947838D01*
Y3943723D01*
X1560158Y3939608D01*
X1560323Y3937798D01*
Y3936152D01*
X1560488Y3934671D01*
X1560652Y3933518D01*
Y3933354D01*
X1560817Y3932695D01*
X1560981Y3931708D01*
X1561475Y3930391D01*
X1561804Y3928910D01*
X1562463Y3927264D01*
X1563286Y3925453D01*
X1564109Y3923643D01*
X1549460D01*
X1549295Y3923807D01*
X1549131Y3924466D01*
X1548802Y3925289D01*
X1548308Y3926606D01*
X1547814Y3928087D01*
X1547485Y3929897D01*
X1547156Y3931873D01*
X1546826Y3934012D01*
X1546662D01*
X1546497Y3933683D01*
X1545510Y3932860D01*
X1544028Y3931708D01*
X1542053Y3930227D01*
X1539584Y3928745D01*
X1537116Y3927099D01*
X1534482Y3925618D01*
X1531684Y3924466D01*
X1531355Y3924301D01*
X1530367Y3924137D01*
X1528886Y3923643D01*
X1527075Y3923149D01*
X1524771Y3922655D01*
X1522138Y3922326D01*
X1519175Y3921997D01*
X1516212Y3921832D01*
X1514896D01*
X1513908Y3921997D01*
X1512756D01*
X1511439Y3922162D01*
X1508477Y3922655D01*
X1505185Y3923478D01*
X1501564Y3924630D01*
X1498272Y3926276D01*
X1495309Y3928416D01*
X1494980Y3928745D01*
X1494157Y3929568D01*
X1493005Y3931050D01*
X1491688Y3933025D01*
X1490371Y3935494D01*
X1489219Y3938292D01*
X1488396Y3941748D01*
X1488232Y3943394D01*
X1488067Y3945369D01*
Y3945698D01*
Y3946357D01*
X1488232Y3947509D01*
X1488396Y3948990D01*
X1488725Y3950801D01*
X1489219Y3952611D01*
X1489878Y3954586D01*
X1490701Y3956397D01*
X1490865Y3956561D01*
X1491194Y3957220D01*
X1491853Y3958207D01*
X1492676Y3959359D01*
X1493663Y3960676D01*
X1494980Y3961993D01*
X1496297Y3963310D01*
X1497943Y3964462D01*
X1498107Y3964626D01*
X1498766Y3964955D01*
X1499589Y3965614D01*
X1500905Y3966272D01*
X1502387Y3966931D01*
X1504197Y3967754D01*
X1506008Y3968412D01*
X1508147Y3969070D01*
X1508312D01*
X1508970Y3969235D01*
X1509958Y3969564D01*
X1511275Y3969729D01*
X1512921Y3970058D01*
X1515060Y3970387D01*
X1517529Y3970881D01*
X1520492Y3971210D01*
X1520656D01*
X1521315Y3971375D01*
X1522138D01*
X1523290Y3971539D01*
X1524607Y3971704D01*
X1526252Y3972033D01*
X1528063Y3972198D01*
X1530038Y3972527D01*
X1533988Y3973350D01*
X1538268Y3974173D01*
X1542053Y3975160D01*
X1543864Y3975654D01*
X1545510Y3976148D01*
Y3976312D01*
Y3976642D01*
X1545674Y3977629D01*
Y3978781D01*
Y3979440D01*
Y3979769D01*
Y3979933D01*
Y3980098D01*
Y3981086D01*
X1545510Y3982731D01*
X1545181Y3984542D01*
X1544687Y3986517D01*
X1543864Y3988492D01*
X1542876Y3990303D01*
X1541560Y3991784D01*
X1541395Y3991949D01*
X1540572Y3992607D01*
X1539255Y3993265D01*
X1537609Y3994253D01*
X1535305Y3995076D01*
X1532672Y3995899D01*
X1529380Y3996393D01*
X1525594Y3996557D01*
X1523948D01*
X1522302Y3996393D01*
X1519998Y3996063D01*
X1517694Y3995734D01*
X1515225Y3995076D01*
X1512921Y3994253D01*
X1510945Y3993101D01*
X1510781Y3992936D01*
X1510122Y3992442D01*
X1509299Y3991619D01*
X1508312Y3990303D01*
X1507324Y3988657D01*
X1506172Y3986517D01*
X1505185Y3983884D01*
X1504197Y3980921D01*
X1490536Y3982731D01*
Y3982896D01*
X1490701Y3983061D01*
Y3983554D01*
X1490865Y3984213D01*
X1491359Y3985694D01*
X1492017Y3987834D01*
X1492840Y3989973D01*
X1493828Y3992278D01*
X1495145Y3994582D01*
X1496626Y3996722D01*
X1496791Y3996886D01*
X1497449Y3997545D01*
X1498436Y3998532D01*
X1499753Y3999849D01*
X1501564Y4001166D01*
X1503703Y4002482D01*
X1506172Y4003964D01*
X1508970Y4005116D01*
X1509135D01*
X1509299Y4005281D01*
X1509793Y4005445D01*
X1510452Y4005610D01*
X1512098Y4006103D01*
X1514402Y4006597D01*
X1517035Y4007091D01*
X1520327Y4007585D01*
X1523784Y4007914D01*
X1527734Y4008079D01*
X1529544D01*
X1531355Y4007914D01*
D02*
G37*
G36*
X1345201Y4037376D02*
X1346518D01*
X1349481Y4037047D01*
X1352773Y4036718D01*
X1356229Y4036059D01*
X1359685Y4035236D01*
X1362813Y4034084D01*
X1362977D01*
X1363142Y4033920D01*
X1364129Y4033426D01*
X1365611Y4032603D01*
X1367257Y4031451D01*
X1369232Y4029969D01*
X1371371Y4028159D01*
X1373347Y4025855D01*
X1375157Y4023386D01*
X1375322Y4023056D01*
X1375815Y4022069D01*
X1376638Y4020752D01*
X1377461Y4018777D01*
X1378284Y4016473D01*
X1379107Y4014004D01*
X1379601Y4011206D01*
X1379766Y4008408D01*
Y4008079D01*
Y4007256D01*
X1379601Y4005774D01*
X1379272Y4003964D01*
X1378778Y4001824D01*
X1377955Y3999520D01*
X1376968Y3997216D01*
X1375651Y3994747D01*
X1375486Y3994417D01*
X1374992Y3993759D01*
X1374005Y3992442D01*
X1372688Y3991126D01*
X1371042Y3989480D01*
X1369067Y3987669D01*
X1366598Y3986023D01*
X1363800Y3984377D01*
X1363965D01*
X1364294Y3984213D01*
X1364788Y3984048D01*
X1365446Y3983719D01*
X1367421Y3983061D01*
X1369725Y3981908D01*
X1372194Y3980427D01*
X1374992Y3978617D01*
X1377461Y3976477D01*
X1379766Y3973843D01*
X1379930Y3973514D01*
X1380589Y3972527D01*
X1381576Y3971045D01*
X1382564Y3969070D01*
X1383551Y3966437D01*
X1384539Y3963639D01*
X1385197Y3960347D01*
X1385362Y3956726D01*
Y3956561D01*
Y3956397D01*
Y3955409D01*
X1385197Y3953763D01*
X1384868Y3951788D01*
X1384539Y3949484D01*
X1383880Y3947015D01*
X1383057Y3944381D01*
X1381905Y3941748D01*
X1381741Y3941419D01*
X1381247Y3940596D01*
X1380589Y3939444D01*
X1379601Y3937798D01*
X1378284Y3936152D01*
X1376968Y3934341D01*
X1375322Y3932531D01*
X1373511Y3931050D01*
X1373347Y3930885D01*
X1372688Y3930391D01*
X1371536Y3929733D01*
X1370055Y3929074D01*
X1368244Y3928087D01*
X1366104Y3927099D01*
X1363800Y3926276D01*
X1361002Y3925453D01*
X1360673D01*
X1359685Y3925124D01*
X1358039Y3924960D01*
X1355900Y3924630D01*
X1353266Y3924301D01*
X1350139Y3923972D01*
X1346683Y3923807D01*
X1342732Y3923643D01*
X1299280D01*
Y4037541D01*
X1344049D01*
X1345201Y4037376D01*
D02*
G37*
G36*
X1440500Y4007914D02*
X1441981Y4007749D01*
X1443627Y4007420D01*
X1445438Y4007091D01*
X1447577Y4006762D01*
X1452021Y4005281D01*
X1454326Y4004458D01*
X1456630Y4003305D01*
X1458934Y4002153D01*
X1461239Y4000507D01*
X1463378Y3998861D01*
X1465518Y3996886D01*
X1465683Y3996722D01*
X1466012Y3996393D01*
X1466506Y3995734D01*
X1467164Y3994911D01*
X1467987Y3993759D01*
X1468974Y3992278D01*
X1469962Y3990632D01*
X1470950Y3988821D01*
X1471937Y3986846D01*
X1472925Y3984377D01*
X1473912Y3981908D01*
X1474735Y3979110D01*
X1475394Y3976148D01*
X1475887Y3973021D01*
X1476217Y3969729D01*
X1476381Y3966108D01*
Y3965943D01*
Y3965449D01*
Y3964626D01*
Y3963474D01*
X1476217Y3962157D01*
X1476052Y3960512D01*
Y3958866D01*
X1475723Y3957055D01*
X1475229Y3952940D01*
X1474241Y3948825D01*
X1473089Y3944711D01*
X1471443Y3940925D01*
Y3940760D01*
X1471279Y3940596D01*
X1470950Y3940102D01*
X1470620Y3939444D01*
X1469468Y3937798D01*
X1467987Y3935823D01*
X1466012Y3933518D01*
X1463543Y3931214D01*
X1460745Y3928910D01*
X1457453Y3926770D01*
X1457288D01*
X1457124Y3926606D01*
X1456630Y3926276D01*
X1455807Y3925947D01*
X1454984Y3925618D01*
X1453997Y3925289D01*
X1451528Y3924301D01*
X1448730Y3923478D01*
X1445273Y3922655D01*
X1441652Y3921997D01*
X1437702Y3921832D01*
X1436056D01*
X1434739Y3921997D01*
X1433258Y3922162D01*
X1431612Y3922491D01*
X1429637Y3922820D01*
X1427662Y3923149D01*
X1423218Y3924466D01*
X1420749Y3925453D01*
X1418445Y3926441D01*
X1416140Y3927758D01*
X1413836Y3929239D01*
X1411696Y3930885D01*
X1409557Y3932860D01*
X1409392Y3933025D01*
X1409063Y3933354D01*
X1408569Y3934012D01*
X1407911Y3935000D01*
X1407088Y3936152D01*
X1406265Y3937469D01*
X1405277Y3939115D01*
X1404290Y3941090D01*
X1403302Y3943229D01*
X1402315Y3945698D01*
X1401492Y3948332D01*
X1400669Y3951130D01*
X1400010Y3954257D01*
X1399517Y3957549D01*
X1399187Y3961170D01*
X1399023Y3964955D01*
Y3965285D01*
Y3965943D01*
X1399187Y3967095D01*
Y3968741D01*
X1399352Y3970552D01*
X1399681Y3972856D01*
X1400010Y3975160D01*
X1400669Y3977794D01*
X1401327Y3980427D01*
X1402150Y3983225D01*
X1403138Y3986188D01*
X1404454Y3988986D01*
X1405771Y3991619D01*
X1407582Y3994253D01*
X1409392Y3996722D01*
X1411696Y3998861D01*
X1411861Y3999026D01*
X1412190Y3999191D01*
X1412849Y3999684D01*
X1413672Y4000343D01*
X1414659Y4001001D01*
X1415976Y4001824D01*
X1417293Y4002647D01*
X1418938Y4003470D01*
X1420749Y4004293D01*
X1422724Y4005116D01*
X1427168Y4006597D01*
X1432270Y4007749D01*
X1434904Y4007914D01*
X1437702Y4008079D01*
X1439348D01*
X1440500Y4007914D01*
D02*
G37*
G36*
X1263944Y5079073D02*
X1265261D01*
X1268388Y5078744D01*
X1271844Y5078250D01*
X1275465Y5077427D01*
X1279416Y5076440D01*
X1283201Y5075123D01*
X1283366D01*
X1283695Y5074958D01*
X1284189Y5074794D01*
X1284847Y5074465D01*
X1286658Y5073477D01*
X1288962Y5072325D01*
X1291431Y5070679D01*
X1294064Y5068704D01*
X1296533Y5066564D01*
X1298837Y5063931D01*
X1299167Y5063602D01*
X1299825Y5062614D01*
X1300812Y5061133D01*
X1302129Y5058993D01*
X1303446Y5056359D01*
X1304927Y5053068D01*
X1306409Y5049447D01*
X1307561Y5045332D01*
X1293900Y5041711D01*
Y5041875D01*
X1293735Y5042040D01*
X1293570Y5042534D01*
X1293406Y5043192D01*
X1292912Y5044673D01*
X1292254Y5046649D01*
X1291266Y5048953D01*
X1290114Y5051093D01*
X1288962Y5053397D01*
X1287481Y5055372D01*
X1287316Y5055536D01*
X1286822Y5056195D01*
X1285835Y5057018D01*
X1284682Y5058170D01*
X1283201Y5059487D01*
X1281226Y5060803D01*
X1279086Y5062120D01*
X1276617Y5063272D01*
X1276288Y5063437D01*
X1275465Y5063766D01*
X1273984Y5064260D01*
X1272009Y5064918D01*
X1269705Y5065412D01*
X1267071Y5065906D01*
X1264108Y5066235D01*
X1260981Y5066400D01*
X1259171D01*
X1258348Y5066235D01*
X1257360D01*
X1254891Y5066070D01*
X1252093Y5065577D01*
X1248966Y5065083D01*
X1246003Y5064260D01*
X1243041Y5063108D01*
X1242712Y5062943D01*
X1241724Y5062614D01*
X1240407Y5061791D01*
X1238761Y5060968D01*
X1236786Y5059651D01*
X1234647Y5058335D01*
X1232671Y5056689D01*
X1230861Y5054878D01*
X1230696Y5054714D01*
X1230038Y5054055D01*
X1229215Y5052903D01*
X1228227Y5051586D01*
X1227075Y5049940D01*
X1225923Y5047965D01*
X1224771Y5045826D01*
X1223619Y5043521D01*
Y5043357D01*
X1223454Y5043028D01*
X1223290Y5042534D01*
X1222960Y5041711D01*
X1222631Y5040723D01*
X1222302Y5039571D01*
X1221808Y5038254D01*
X1221479Y5036773D01*
X1220656Y5033317D01*
X1219998Y5029366D01*
X1219504Y5025252D01*
X1219339Y5020643D01*
Y5020478D01*
Y5019985D01*
Y5019162D01*
X1219504Y5018174D01*
Y5016857D01*
X1219669Y5015211D01*
X1219833Y5013566D01*
X1219998Y5011755D01*
X1220656Y5007640D01*
X1221479Y5003361D01*
X1222796Y4999081D01*
X1224442Y4994967D01*
Y4994802D01*
X1224771Y4994473D01*
X1224936Y4993979D01*
X1225429Y4993321D01*
X1226581Y4991510D01*
X1228392Y4989206D01*
X1230532Y4986737D01*
X1233165Y4984268D01*
X1236292Y4981964D01*
X1239749Y4979824D01*
X1239913D01*
X1240243Y4979660D01*
X1240736Y4979330D01*
X1241559Y4979001D01*
X1242382Y4978672D01*
X1243534Y4978343D01*
X1246168Y4977355D01*
X1249460Y4976532D01*
X1253081Y4975709D01*
X1257031Y4975051D01*
X1261146Y4974886D01*
X1262792D01*
X1263779Y4975051D01*
X1264767D01*
X1267236Y4975380D01*
X1270198Y4975709D01*
X1273326Y4976368D01*
X1276782Y4977355D01*
X1280238Y4978507D01*
X1280403D01*
X1280732Y4978672D01*
X1281061Y4978837D01*
X1281720Y4979166D01*
X1283530Y4979989D01*
X1285505Y4980976D01*
X1287810Y4982128D01*
X1290279Y4983445D01*
X1292583Y4984927D01*
X1294558Y4986572D01*
Y5007969D01*
X1260981D01*
Y5021466D01*
X1309371D01*
Y4979166D01*
X1309207Y4979001D01*
X1308877Y4978837D01*
X1308219Y4978343D01*
X1307396Y4977684D01*
X1306409Y4977026D01*
X1305256Y4976203D01*
X1303775Y4975216D01*
X1302294Y4974228D01*
X1298837Y4972088D01*
X1294887Y4969784D01*
X1290772Y4967644D01*
X1286328Y4965834D01*
X1286164D01*
X1285835Y4965669D01*
X1285176Y4965505D01*
X1284353Y4965175D01*
X1283201Y4964846D01*
X1281884Y4964353D01*
X1280403Y4964023D01*
X1278922Y4963694D01*
X1275301Y4962871D01*
X1271186Y4962048D01*
X1266742Y4961554D01*
X1262133Y4961390D01*
X1260487D01*
X1259335Y4961554D01*
X1257854D01*
X1256043Y4961719D01*
X1254068Y4962048D01*
X1251929Y4962213D01*
X1247155Y4963200D01*
X1242053Y4964353D01*
X1236786Y4966163D01*
X1234153Y4967151D01*
X1231519Y4968467D01*
X1231355Y4968632D01*
X1230861Y4968797D01*
X1230203Y4969290D01*
X1229215Y4969784D01*
X1228063Y4970607D01*
X1226911Y4971430D01*
X1223783Y4973734D01*
X1220492Y4976697D01*
X1217035Y4980318D01*
X1213743Y4984433D01*
X1210781Y4989206D01*
Y4989371D01*
X1210451Y4989864D01*
X1210122Y4990523D01*
X1209629Y4991675D01*
X1209135Y4992827D01*
X1208641Y4994473D01*
X1207983Y4996119D01*
X1207324Y4998094D01*
X1206666Y5000234D01*
X1206007Y5002702D01*
X1205514Y5005171D01*
X1205020Y5007805D01*
X1204197Y5013566D01*
X1203868Y5019655D01*
Y5019820D01*
Y5020478D01*
Y5021301D01*
X1204032Y5022454D01*
Y5023935D01*
X1204197Y5025745D01*
X1204526Y5027556D01*
X1204691Y5029696D01*
X1205185Y5032000D01*
X1205514Y5034469D01*
X1206830Y5039736D01*
X1208476Y5045167D01*
X1210781Y5050599D01*
X1210945Y5050763D01*
X1211110Y5051257D01*
X1211439Y5051915D01*
X1212097Y5052903D01*
X1212756Y5054220D01*
X1213579Y5055536D01*
X1215883Y5058664D01*
X1218681Y5062285D01*
X1222138Y5065741D01*
X1226088Y5069198D01*
X1228392Y5070679D01*
X1230696Y5072160D01*
X1230861Y5072325D01*
X1231355Y5072489D01*
X1232013Y5072819D01*
X1233001Y5073312D01*
X1234317Y5073806D01*
X1235799Y5074465D01*
X1237445Y5075123D01*
X1239420Y5075781D01*
X1241559Y5076440D01*
X1243864Y5076933D01*
X1246333Y5077592D01*
X1248966Y5078086D01*
X1254727Y5078909D01*
X1257689Y5079238D01*
X1262956D01*
X1263944Y5079073D01*
D02*
G37*
G36*
X1421294Y4963365D02*
X1406151D01*
Y5017022D01*
X1347227D01*
Y4963365D01*
X1332085D01*
Y5077263D01*
X1347227D01*
Y5030519D01*
X1406151D01*
Y5077263D01*
X1421294D01*
Y4963365D01*
D02*
G37*
G36*
X1183623Y5062449D02*
X1138031D01*
X1131941Y5031671D01*
X1132106Y5031835D01*
X1132435Y5032000D01*
X1132929Y5032329D01*
X1133752Y5032823D01*
X1134739Y5033317D01*
X1135891Y5033975D01*
X1138525Y5035292D01*
X1141817Y5036608D01*
X1145438Y5037761D01*
X1149388Y5038584D01*
X1151363Y5038913D01*
X1154984D01*
X1155972Y5038748D01*
X1157288Y5038584D01*
X1158770Y5038419D01*
X1160416Y5038090D01*
X1162226Y5037596D01*
X1166176Y5036444D01*
X1168316Y5035621D01*
X1170456Y5034469D01*
X1172595Y5033317D01*
X1174735Y5032000D01*
X1176710Y5030354D01*
X1178685Y5028543D01*
X1178850Y5028379D01*
X1179179Y5028050D01*
X1179673Y5027556D01*
X1180331Y5026733D01*
X1181154Y5025581D01*
X1181977Y5024429D01*
X1182965Y5022947D01*
X1183952Y5021301D01*
X1184775Y5019491D01*
X1185763Y5017516D01*
X1186586Y5015211D01*
X1187409Y5012907D01*
X1188067Y5010438D01*
X1188561Y5007640D01*
X1188890Y5004842D01*
X1189055Y5001880D01*
Y5001715D01*
Y5001221D01*
Y5000398D01*
X1188890Y4999246D01*
X1188725Y4997929D01*
X1188561Y4996448D01*
X1188232Y4994637D01*
X1187902Y4992827D01*
X1186915Y4988548D01*
X1185269Y4984104D01*
X1184281Y4981799D01*
X1182965Y4979660D01*
X1181648Y4977355D01*
X1180002Y4975216D01*
X1179837Y4975051D01*
X1179508Y4974557D01*
X1178850Y4973899D01*
X1178027Y4973076D01*
X1176875Y4972088D01*
X1175558Y4970772D01*
X1173912Y4969619D01*
X1172102Y4968303D01*
X1170126Y4966986D01*
X1167822Y4965834D01*
X1165353Y4964682D01*
X1162720Y4963530D01*
X1159922Y4962707D01*
X1156794Y4962048D01*
X1153503Y4961554D01*
X1150046Y4961390D01*
X1148565D01*
X1147413Y4961554D01*
X1146096Y4961719D01*
X1144615Y4961884D01*
X1142804Y4962048D01*
X1140994Y4962542D01*
X1136879Y4963530D01*
X1132764Y4965011D01*
X1130624Y4965998D01*
X1128485Y4967151D01*
X1126510Y4968467D01*
X1124534Y4969949D01*
X1124370Y4970113D01*
X1124041Y4970278D01*
X1123711Y4970936D01*
X1123053Y4971595D01*
X1122230Y4972418D01*
X1121407Y4973405D01*
X1120420Y4974722D01*
X1119597Y4976203D01*
X1118609Y4977684D01*
X1117622Y4979495D01*
X1115811Y4983445D01*
X1114330Y4988054D01*
X1113836Y4990523D01*
X1113507Y4993156D01*
X1128155Y4994308D01*
Y4994144D01*
Y4993814D01*
X1128320Y4993321D01*
X1128485Y4992498D01*
X1128978Y4990687D01*
X1129637Y4988218D01*
X1130624Y4985749D01*
X1131941Y4982951D01*
X1133587Y4980483D01*
X1135562Y4978178D01*
X1135891Y4978014D01*
X1136550Y4977355D01*
X1137866Y4976532D01*
X1139677Y4975545D01*
X1141652Y4974557D01*
X1144121Y4973734D01*
X1146919Y4973076D01*
X1150046Y4972911D01*
X1151034D01*
X1151692Y4973076D01*
X1153667Y4973240D01*
X1155972Y4973899D01*
X1158770Y4974722D01*
X1161568Y4976039D01*
X1164530Y4978014D01*
X1165847Y4979166D01*
X1167164Y4980483D01*
X1167328Y4980647D01*
X1167493Y4980812D01*
X1167822Y4981306D01*
X1168316Y4981799D01*
X1169468Y4983610D01*
X1170785Y4985914D01*
X1171937Y4988712D01*
X1173089Y4992169D01*
X1173912Y4996283D01*
X1174241Y4998423D01*
Y5000727D01*
Y5000892D01*
Y5001221D01*
Y5001880D01*
X1174077Y5002702D01*
Y5003690D01*
X1173912Y5004842D01*
X1173418Y5007476D01*
X1172595Y5010603D01*
X1171443Y5013730D01*
X1169797Y5016693D01*
X1167493Y5019491D01*
Y5019655D01*
X1167164Y5019820D01*
X1166341Y5020643D01*
X1164859Y5021795D01*
X1162884Y5023112D01*
X1160251Y5024264D01*
X1157288Y5025416D01*
X1153832Y5026239D01*
X1151857Y5026568D01*
X1148729D01*
X1147413Y5026404D01*
X1145767Y5026239D01*
X1143792Y5025745D01*
X1141817Y5025252D01*
X1139677Y5024429D01*
X1137537Y5023441D01*
X1137373Y5023276D01*
X1136714Y5022947D01*
X1135727Y5022124D01*
X1134410Y5021301D01*
X1133093Y5020149D01*
X1131777Y5018668D01*
X1130295Y5017187D01*
X1129143Y5015376D01*
X1115976Y5017187D01*
X1127003Y5075781D01*
X1183623D01*
Y5062449D01*
D02*
G37*
G36*
X1507705Y5036608D02*
X1462936Y4984268D01*
X1454212Y4974557D01*
X1455200D01*
X1455858Y4974722D01*
X1457669Y4974886D01*
X1459973Y4975051D01*
X1462771D01*
X1465734Y4975216D01*
X1471988Y4975380D01*
X1510174D01*
Y4963365D01*
X1437095D01*
Y4974557D01*
X1489600Y5035127D01*
X1488118D01*
X1486472Y5034962D01*
X1484333D01*
X1481864Y5034798D01*
X1479230D01*
X1476432Y5034633D01*
X1440222D01*
Y5045990D01*
X1507705D01*
Y5036608D01*
D02*
G37*
G36*
X1083716Y5003525D02*
X1099187D01*
Y4990687D01*
X1083716D01*
Y4963365D01*
X1069725D01*
Y4990687D01*
X1020183D01*
Y5003525D01*
X1072359Y5077263D01*
X1083716D01*
Y5003525D01*
D02*
G37*
G36*
X1004547Y4963365D02*
X988581D01*
Y4979330D01*
X1004547D01*
Y4963365D01*
D02*
G37*
G36*
X932620Y5077592D02*
X933937Y5077427D01*
X935583Y5077263D01*
X937393Y5076933D01*
X939204Y5076604D01*
X943483Y5075452D01*
X947763Y5073806D01*
X949902Y5072819D01*
X952042Y5071667D01*
X954017Y5070185D01*
X955828Y5068539D01*
X955992Y5068375D01*
X956321Y5068210D01*
X956651Y5067552D01*
X957309Y5066893D01*
X958132Y5066070D01*
X958955Y5064918D01*
X959778Y5063766D01*
X960765Y5062285D01*
X962411Y5059158D01*
X964057Y5055207D01*
X964716Y5053232D01*
X965045Y5050928D01*
X965374Y5048624D01*
X965539Y5046155D01*
Y5045826D01*
Y5045003D01*
X965374Y5043686D01*
X965209Y5041875D01*
X964880Y5039900D01*
X964222Y5037596D01*
X963563Y5035127D01*
X962576Y5032658D01*
X962411Y5032329D01*
X962082Y5031506D01*
X961424Y5030189D01*
X960436Y5028379D01*
X959119Y5026404D01*
X957474Y5023935D01*
X955498Y5021466D01*
X953194Y5018668D01*
X952865Y5018339D01*
X952042Y5017351D01*
X951219Y5016528D01*
X950396Y5015705D01*
X949409Y5014718D01*
X948092Y5013401D01*
X946775Y5012084D01*
X945129Y5010603D01*
X943483Y5008957D01*
X941508Y5007146D01*
X939368Y5005336D01*
X937064Y5003196D01*
X934431Y5001057D01*
X931797Y4998752D01*
X931633Y4998588D01*
X931303Y4998258D01*
X930645Y4997765D01*
X929822Y4997106D01*
X928835Y4996119D01*
X927682Y4995131D01*
X925049Y4992992D01*
X922251Y4990523D01*
X919617Y4988054D01*
X917313Y4985914D01*
X916326Y4985091D01*
X915503Y4984268D01*
X915338Y4984104D01*
X914844Y4983610D01*
X914186Y4982951D01*
X913363Y4981964D01*
X912540Y4980812D01*
X911552Y4979660D01*
X909577Y4976862D01*
X965703D01*
Y4963365D01*
X890155D01*
Y4963530D01*
Y4964188D01*
Y4965175D01*
X890320Y4966492D01*
X890485Y4967974D01*
X890814Y4969619D01*
X891143Y4971265D01*
X891801Y4973076D01*
Y4973240D01*
X891966Y4973405D01*
X892295Y4974393D01*
X892954Y4975874D01*
X893941Y4977849D01*
X895258Y4980153D01*
X896904Y4982787D01*
X898714Y4985420D01*
X901019Y4988218D01*
Y4988383D01*
X901348Y4988548D01*
X902171Y4989535D01*
X903652Y4991016D01*
X905792Y4993156D01*
X908261Y4995625D01*
X911388Y4998588D01*
X915173Y5001880D01*
X919288Y5005336D01*
X919453Y5005501D01*
X920111Y5005994D01*
X921099Y5006817D01*
X922251Y5007805D01*
X923732Y5009122D01*
X925543Y5010603D01*
X927353Y5012249D01*
X929493Y5014059D01*
X933608Y5018010D01*
X937723Y5021960D01*
X939698Y5023935D01*
X941508Y5025910D01*
X943154Y5027720D01*
X944471Y5029531D01*
Y5029696D01*
X944800Y5029860D01*
X945129Y5030354D01*
X945458Y5031012D01*
X946611Y5032823D01*
X947927Y5034962D01*
X949079Y5037596D01*
X950232Y5040394D01*
X950890Y5043521D01*
X951219Y5046484D01*
Y5046649D01*
Y5046813D01*
X951054Y5047801D01*
X950890Y5049447D01*
X950396Y5051257D01*
X949738Y5053561D01*
X948586Y5055866D01*
X947104Y5058170D01*
X945129Y5060474D01*
X944800Y5060803D01*
X943977Y5061462D01*
X942825Y5062285D01*
X941014Y5063437D01*
X938710Y5064424D01*
X936077Y5065412D01*
X932949Y5066070D01*
X929493Y5066235D01*
X928505D01*
X927847Y5066070D01*
X925872Y5065906D01*
X923568Y5065412D01*
X921099Y5064754D01*
X918301Y5063602D01*
X915667Y5062120D01*
X913198Y5060145D01*
X912869Y5059816D01*
X912211Y5058993D01*
X911223Y5057676D01*
X910236Y5055701D01*
X909084Y5053397D01*
X908096Y5050434D01*
X907438Y5047142D01*
X907108Y5043357D01*
X892789Y5044838D01*
Y5045003D01*
X892954Y5045496D01*
Y5046319D01*
X893118Y5047471D01*
X893447Y5048788D01*
X893776Y5050270D01*
X894270Y5052080D01*
X894764Y5053891D01*
X896081Y5057841D01*
X898056Y5061791D01*
X899208Y5063766D01*
X900689Y5065741D01*
X902171Y5067552D01*
X903817Y5069198D01*
X903981Y5069362D01*
X904310Y5069527D01*
X904804Y5070021D01*
X905627Y5070514D01*
X906615Y5071173D01*
X907767Y5071831D01*
X909084Y5072654D01*
X910729Y5073477D01*
X912540Y5074300D01*
X914515Y5075123D01*
X916655Y5075781D01*
X918959Y5076440D01*
X921428Y5076933D01*
X924061Y5077427D01*
X926859Y5077592D01*
X929822Y5077756D01*
X931468D01*
X932620Y5077592D01*
D02*
G37*
G36*
X1520461Y4920670D02*
X1506470D01*
Y4936635D01*
X1520461D01*
Y4920670D01*
D02*
G37*
G36*
X1387799D02*
X1373809D01*
Y4936635D01*
X1387799D01*
Y4920670D01*
D02*
G37*
G36*
X1330192Y4822738D02*
X1315379D01*
X1291513Y4909478D01*
Y4909642D01*
X1291348Y4909971D01*
X1291184Y4910465D01*
X1291019Y4911288D01*
X1290525Y4913099D01*
X1290032Y4915238D01*
X1289373Y4917543D01*
X1288715Y4919682D01*
X1288221Y4921493D01*
X1288057Y4922316D01*
X1287892Y4922810D01*
Y4922645D01*
X1287727Y4922480D01*
X1287563Y4921493D01*
X1287234Y4920011D01*
X1286740Y4918201D01*
X1286246Y4916226D01*
X1285588Y4913922D01*
X1285094Y4911617D01*
X1284436Y4909478D01*
X1260405Y4822738D01*
X1244604D01*
X1214813Y4936635D01*
X1230449D01*
X1247402Y4861911D01*
Y4861746D01*
X1247567Y4861417D01*
X1247732Y4860758D01*
X1247896Y4859935D01*
X1248061Y4858783D01*
X1248390Y4857631D01*
X1248719Y4856150D01*
X1249048Y4854504D01*
X1249871Y4851047D01*
X1250694Y4847097D01*
X1251517Y4842818D01*
X1252340Y4838538D01*
Y4838703D01*
X1252505Y4839361D01*
X1252834Y4840184D01*
X1252999Y4841501D01*
X1253328Y4842818D01*
X1253821Y4844464D01*
X1254644Y4848085D01*
X1255632Y4851706D01*
X1255961Y4853516D01*
X1256455Y4855162D01*
X1256784Y4856644D01*
X1257113Y4857960D01*
X1257442Y4858948D01*
X1257607Y4859606D01*
X1279169Y4936635D01*
X1297438D01*
X1313568Y4878863D01*
Y4878699D01*
X1313898Y4877876D01*
X1314227Y4876724D01*
X1314556Y4875242D01*
X1315050Y4873267D01*
X1315708Y4871128D01*
X1316366Y4868659D01*
X1317025Y4865861D01*
X1317848Y4862733D01*
X1318506Y4859606D01*
X1319987Y4852858D01*
X1321469Y4845781D01*
X1322621Y4838538D01*
Y4838703D01*
X1322786Y4839032D01*
Y4839691D01*
X1323115Y4840514D01*
X1323279Y4841501D01*
X1323608Y4842653D01*
X1323773Y4844135D01*
X1324267Y4845781D01*
X1325090Y4849402D01*
X1326077Y4853681D01*
X1327065Y4858289D01*
X1328382Y4863392D01*
X1346158Y4936635D01*
X1361465D01*
X1330192Y4822738D01*
D02*
G37*
G36*
X1520461D02*
X1506470D01*
Y4905363D01*
X1520461D01*
Y4822738D01*
D02*
G37*
G36*
X1488694Y4923139D02*
X1426808D01*
Y4887916D01*
X1480300D01*
Y4874420D01*
X1426808D01*
Y4822738D01*
X1411665D01*
Y4936635D01*
X1488694D01*
Y4923139D01*
D02*
G37*
G36*
X1387799Y4822738D02*
X1373809D01*
Y4905363D01*
X1387799D01*
Y4822738D01*
D02*
G37*
G36*
X1157535Y4923139D02*
X1090217D01*
Y4888410D01*
X1153256D01*
Y4874913D01*
X1090217D01*
Y4836234D01*
X1160169D01*
Y4822738D01*
X1075075D01*
Y4936635D01*
X1157535D01*
Y4923139D01*
D02*
G37*
G36*
X1000844Y4836234D02*
X1056969D01*
Y4822738D01*
X985701D01*
Y4936635D01*
X1000844D01*
Y4836234D01*
D02*
G37*
G36*
X925460Y4936471D02*
X926777D01*
X929740Y4936142D01*
X933032Y4935812D01*
X936488Y4935154D01*
X939945Y4934331D01*
X943072Y4933179D01*
X943236D01*
X943401Y4933014D01*
X944389Y4932520D01*
X945870Y4931698D01*
X947516Y4930545D01*
X949491Y4929064D01*
X951631Y4927254D01*
X953606Y4924949D01*
X955416Y4922480D01*
X955581Y4922151D01*
X956075Y4921164D01*
X956898Y4919847D01*
X957720Y4917872D01*
X958543Y4915568D01*
X959366Y4913099D01*
X959860Y4910301D01*
X960025Y4907503D01*
Y4907173D01*
Y4906350D01*
X959860Y4904869D01*
X959531Y4903059D01*
X959037Y4900919D01*
X958214Y4898615D01*
X957227Y4896310D01*
X955910Y4893841D01*
X955745Y4893512D01*
X955252Y4892854D01*
X954264Y4891537D01*
X952947Y4890220D01*
X951301Y4888574D01*
X949326Y4886764D01*
X946857Y4885118D01*
X944059Y4883472D01*
X944224D01*
X944553Y4883307D01*
X945047Y4883143D01*
X945705Y4882814D01*
X947680Y4882155D01*
X949985Y4881003D01*
X952454Y4879522D01*
X955252Y4877711D01*
X957720Y4875572D01*
X960025Y4872938D01*
X960189Y4872609D01*
X960848Y4871621D01*
X961835Y4870140D01*
X962823Y4868165D01*
X963810Y4865532D01*
X964798Y4862733D01*
X965456Y4859442D01*
X965621Y4855821D01*
Y4855656D01*
Y4855491D01*
Y4854504D01*
X965456Y4852858D01*
X965127Y4850883D01*
X964798Y4848579D01*
X964140Y4846110D01*
X963317Y4843476D01*
X962164Y4840843D01*
X962000Y4840514D01*
X961506Y4839691D01*
X960848Y4838538D01*
X959860Y4836893D01*
X958543Y4835247D01*
X957227Y4833436D01*
X955581Y4831626D01*
X953770Y4830144D01*
X953606Y4829980D01*
X952947Y4829486D01*
X951795Y4828828D01*
X950314Y4828169D01*
X948503Y4827182D01*
X946364Y4826194D01*
X944059Y4825371D01*
X941261Y4824548D01*
X940932D01*
X939945Y4824219D01*
X938299Y4824054D01*
X936159Y4823725D01*
X933525Y4823396D01*
X930398Y4823067D01*
X926942Y4822902D01*
X922992Y4822738D01*
X879539D01*
Y4936635D01*
X924308D01*
X925460Y4936471D01*
D02*
G37*
G36*
X1179920Y4820763D02*
X1168727D01*
X1201810Y4938610D01*
X1213003D01*
X1179920Y4820763D01*
D02*
G37*
G36*
X-1843380Y952798D02*
X-1800751Y893051D01*
X-1819350D01*
X-1848154Y933541D01*
X-1848318Y933705D01*
X-1848647Y934199D01*
X-1848976Y934857D01*
X-1849635Y935680D01*
X-1851116Y937985D01*
X-1852762Y940454D01*
X-1852927Y940289D01*
X-1853420Y939631D01*
X-1854079Y938643D01*
X-1854902Y937326D01*
X-1856712Y934693D01*
X-1857535Y933541D01*
X-1858194Y932553D01*
X-1886997Y893051D01*
X-1905102D01*
X-1861156Y951975D01*
X-1900000Y1006949D01*
X-1882059D01*
X-1861321Y977651D01*
Y977487D01*
X-1860992Y977322D01*
X-1860663Y976828D01*
X-1860169Y976170D01*
X-1859181Y974524D01*
X-1857700Y972549D01*
X-1856219Y970245D01*
X-1854737Y967940D01*
X-1853420Y965801D01*
X-1852268Y963826D01*
X-1852104Y964155D01*
X-1851610Y964813D01*
X-1850787Y966130D01*
X-1849635Y967776D01*
X-1848318Y969586D01*
X-1846672Y971891D01*
X-1845026Y974195D01*
X-1843051Y976664D01*
X-1820337Y1006949D01*
X-1803878D01*
X-1843380Y952798D01*
D02*
G37*
G36*
X-1909053Y993452D02*
X-1946580D01*
Y893051D01*
X-1961722D01*
Y993452D01*
X-1999249D01*
Y1006949D01*
X-1909053D01*
Y993452D01*
D02*
G37*
G36*
X-2011429Y3258759D02*
X-2009947Y3258595D01*
X-2008137Y3258430D01*
X-2006326Y3258266D01*
X-2004187Y3257772D01*
X-1999743Y3256784D01*
X-1994805Y3255303D01*
X-1992336Y3254315D01*
X-1990032Y3253163D01*
X-1987728Y3251682D01*
X-1985423Y3250201D01*
X-1985259Y3250036D01*
X-1984929Y3249871D01*
X-1984271Y3249378D01*
X-1983448Y3248555D01*
X-1982625Y3247732D01*
X-1981473Y3246579D01*
X-1980321Y3245263D01*
X-1979004Y3243946D01*
X-1977687Y3242300D01*
X-1976371Y3240325D01*
X-1974889Y3238350D01*
X-1973573Y3236210D01*
X-1972420Y3233741D01*
X-1971104Y3231272D01*
X-1970116Y3228639D01*
X-1969129Y3225676D01*
X-1983942Y3222220D01*
Y3222384D01*
X-1984107Y3222714D01*
X-1984436Y3223372D01*
X-1984765Y3224195D01*
X-1985094Y3225183D01*
X-1985588Y3226499D01*
X-1986905Y3229133D01*
X-1988551Y3232095D01*
X-1990526Y3235058D01*
X-1992994Y3237856D01*
X-1995628Y3240325D01*
X-1995957Y3240654D01*
X-1996945Y3241313D01*
X-1998591Y3242136D01*
X-2000730Y3243288D01*
X-2003528Y3244275D01*
X-2006656Y3245263D01*
X-2010441Y3245921D01*
X-2014556Y3246086D01*
X-2015873D01*
X-2016696Y3245921D01*
X-2017848D01*
X-2019165Y3245757D01*
X-2022292Y3245263D01*
X-2025748Y3244604D01*
X-2029369Y3243452D01*
X-2033155Y3241806D01*
X-2036611Y3239667D01*
X-2036776D01*
X-2036941Y3239337D01*
X-2038093Y3238514D01*
X-2039574Y3237198D01*
X-2041385Y3235223D01*
X-2043524Y3232754D01*
X-2045499Y3229956D01*
X-2047310Y3226499D01*
X-2048956Y3222714D01*
Y3222549D01*
X-2049120Y3222220D01*
X-2049285Y3221726D01*
X-2049450Y3220903D01*
X-2049779Y3219916D01*
X-2050108Y3218763D01*
X-2050602Y3215965D01*
X-2051260Y3212674D01*
X-2051918Y3209053D01*
X-2052248Y3205102D01*
X-2052412Y3200823D01*
Y3200658D01*
Y3200165D01*
Y3199342D01*
Y3198354D01*
X-2052248Y3197202D01*
Y3195721D01*
X-2052083Y3194075D01*
X-2051918Y3192264D01*
X-2051425Y3188314D01*
X-2050602Y3184035D01*
X-2049614Y3179755D01*
X-2048297Y3175476D01*
Y3175311D01*
X-2048133Y3174982D01*
X-2047804Y3174488D01*
X-2047474Y3173665D01*
X-2046487Y3171690D01*
X-2045006Y3169386D01*
X-2043195Y3166752D01*
X-2040891Y3163954D01*
X-2038257Y3161485D01*
X-2035130Y3159181D01*
X-2034965D01*
X-2034636Y3159017D01*
X-2034142Y3158687D01*
X-2033484Y3158358D01*
X-2032661Y3158029D01*
X-2031674Y3157535D01*
X-2029369Y3156548D01*
X-2026407Y3155560D01*
X-2023115Y3154737D01*
X-2019494Y3154079D01*
X-2015708Y3153914D01*
X-2014556D01*
X-2013568Y3154079D01*
X-2012416D01*
X-2011264Y3154243D01*
X-2008302Y3154902D01*
X-2004845Y3155725D01*
X-2001389Y3157041D01*
X-1997768Y3158852D01*
X-1995957Y3159840D01*
X-1994311Y3161156D01*
X-1994147Y3161321D01*
X-1993982Y3161485D01*
X-1993488Y3161979D01*
X-1992830Y3162473D01*
X-1992172Y3163296D01*
X-1991349Y3164283D01*
X-1990361Y3165271D01*
X-1989538Y3166588D01*
X-1988551Y3168069D01*
X-1987398Y3169715D01*
X-1986411Y3171361D01*
X-1985423Y3173336D01*
X-1984600Y3175476D01*
X-1983777Y3177780D01*
X-1982954Y3180249D01*
X-1982296Y3182882D01*
X-1967154Y3179097D01*
Y3178932D01*
X-1967318Y3178274D01*
X-1967647Y3177286D01*
X-1968141Y3175970D01*
X-1968635Y3174488D01*
X-1969293Y3172678D01*
X-1970116Y3170703D01*
X-1971104Y3168563D01*
X-1973408Y3163954D01*
X-1976371Y3159346D01*
X-1978181Y3157041D01*
X-1979992Y3154737D01*
X-1981967Y3152762D01*
X-1984271Y3150787D01*
X-1984436Y3150622D01*
X-1984765Y3150293D01*
X-1985588Y3149964D01*
X-1986411Y3149306D01*
X-1987728Y3148483D01*
X-1989044Y3147660D01*
X-1990855Y3146837D01*
X-1992665Y3146014D01*
X-1994805Y3145026D01*
X-1997109Y3144203D01*
X-1999578Y3143380D01*
X-2002212Y3142557D01*
X-2005010Y3141899D01*
X-2007972Y3141570D01*
X-2011100Y3141241D01*
X-2014391Y3141076D01*
X-2016202D01*
X-2017519Y3141241D01*
X-2019000D01*
X-2020811Y3141405D01*
X-2022786Y3141734D01*
X-2025090Y3142064D01*
X-2029863Y3142887D01*
X-2034801Y3144203D01*
X-2039739Y3146014D01*
X-2042043Y3147166D01*
X-2044347Y3148483D01*
X-2044512Y3148647D01*
X-2044841Y3148812D01*
X-2045499Y3149306D01*
X-2046158Y3149964D01*
X-2047145Y3150622D01*
X-2048297Y3151610D01*
X-2049614Y3152762D01*
X-2050931Y3154079D01*
X-2052248Y3155560D01*
X-2053729Y3157041D01*
X-2056692Y3160827D01*
X-2059490Y3165271D01*
X-2061959Y3170209D01*
Y3170373D01*
X-2062288Y3170867D01*
X-2062452Y3171690D01*
X-2062946Y3172678D01*
X-2063275Y3173994D01*
X-2063769Y3175640D01*
X-2064427Y3177451D01*
X-2064921Y3179426D01*
X-2065415Y3181566D01*
X-2066073Y3184035D01*
X-2066896Y3189137D01*
X-2067555Y3194898D01*
X-2067884Y3200823D01*
Y3200988D01*
Y3201646D01*
Y3202633D01*
X-2067719Y3203786D01*
Y3205431D01*
X-2067555Y3207077D01*
X-2067390Y3209217D01*
X-2067061Y3211357D01*
X-2066238Y3216130D01*
X-2065086Y3221397D01*
X-2063440Y3226664D01*
X-2061136Y3231766D01*
X-2060971Y3231931D01*
X-2060806Y3232425D01*
X-2060477Y3233083D01*
X-2059819Y3233906D01*
X-2059160Y3235058D01*
X-2058338Y3236375D01*
X-2056198Y3239337D01*
X-2053400Y3242629D01*
X-2050108Y3245921D01*
X-2046322Y3249213D01*
X-2041878Y3252011D01*
X-2041714Y3252176D01*
X-2041220Y3252340D01*
X-2040562Y3252669D01*
X-2039739Y3253163D01*
X-2038422Y3253657D01*
X-2037105Y3254151D01*
X-2035459Y3254809D01*
X-2033649Y3255467D01*
X-2031674Y3256126D01*
X-2029534Y3256784D01*
X-2024925Y3257772D01*
X-2019658Y3258595D01*
X-2014227Y3258924D01*
X-2012581D01*
X-2011429Y3258759D01*
D02*
G37*
G36*
X-1777544D02*
X-1776227D01*
X-1773100Y3258430D01*
X-1769643Y3257936D01*
X-1766022Y3257113D01*
X-1762072Y3256126D01*
X-1758286Y3254809D01*
X-1758122D01*
X-1757793Y3254644D01*
X-1757299Y3254480D01*
X-1756640Y3254151D01*
X-1754830Y3253163D01*
X-1752526Y3252011D01*
X-1750057Y3250365D01*
X-1747423Y3248390D01*
X-1744954Y3246250D01*
X-1742650Y3243617D01*
X-1742321Y3243288D01*
X-1741663Y3242300D01*
X-1740675Y3240819D01*
X-1739358Y3238679D01*
X-1738041Y3236046D01*
X-1736560Y3232754D01*
X-1735079Y3229133D01*
X-1733927Y3225018D01*
X-1747588Y3221397D01*
Y3221562D01*
X-1747752Y3221726D01*
X-1747917Y3222220D01*
X-1748082Y3222878D01*
X-1748575Y3224360D01*
X-1749234Y3226335D01*
X-1750221Y3228639D01*
X-1751373Y3230779D01*
X-1752526Y3233083D01*
X-1754007Y3235058D01*
X-1754171Y3235223D01*
X-1754665Y3235881D01*
X-1755653Y3236704D01*
X-1756805Y3237856D01*
X-1758286Y3239173D01*
X-1760261Y3240490D01*
X-1762401Y3241806D01*
X-1764870Y3242958D01*
X-1765199Y3243123D01*
X-1766022Y3243452D01*
X-1767503Y3243946D01*
X-1769479Y3244604D01*
X-1771783Y3245098D01*
X-1774416Y3245592D01*
X-1777379Y3245921D01*
X-1780506Y3246086D01*
X-1782317D01*
X-1783140Y3245921D01*
X-1784127D01*
X-1786596Y3245757D01*
X-1789394Y3245263D01*
X-1792521Y3244769D01*
X-1795484Y3243946D01*
X-1798447Y3242794D01*
X-1798776Y3242629D01*
X-1799763Y3242300D01*
X-1801080Y3241477D01*
X-1802726Y3240654D01*
X-1804701Y3239337D01*
X-1806841Y3238021D01*
X-1808816Y3236375D01*
X-1810627Y3234564D01*
X-1810791Y3234400D01*
X-1811450Y3233741D01*
X-1812272Y3232589D01*
X-1813260Y3231272D01*
X-1814412Y3229627D01*
X-1815564Y3227651D01*
X-1816716Y3225512D01*
X-1817869Y3223207D01*
Y3223043D01*
X-1818033Y3222714D01*
X-1818198Y3222220D01*
X-1818527Y3221397D01*
X-1818856Y3220409D01*
X-1819185Y3219257D01*
X-1819679Y3217940D01*
X-1820008Y3216459D01*
X-1820831Y3213003D01*
X-1821490Y3209053D01*
X-1821983Y3204938D01*
X-1822148Y3200329D01*
Y3200165D01*
Y3199671D01*
Y3198848D01*
X-1821983Y3197860D01*
Y3196544D01*
X-1821819Y3194898D01*
X-1821654Y3193252D01*
X-1821490Y3191441D01*
X-1820831Y3187326D01*
X-1820008Y3183047D01*
X-1818692Y3178768D01*
X-1817046Y3174653D01*
Y3174488D01*
X-1816716Y3174159D01*
X-1816552Y3173665D01*
X-1816058Y3173007D01*
X-1814906Y3171196D01*
X-1813095Y3168892D01*
X-1810956Y3166423D01*
X-1808322Y3163954D01*
X-1805195Y3161650D01*
X-1801739Y3159510D01*
X-1801574D01*
X-1801245Y3159346D01*
X-1800751Y3159017D01*
X-1799928Y3158687D01*
X-1799105Y3158358D01*
X-1797953Y3158029D01*
X-1795319Y3157041D01*
X-1792028Y3156218D01*
X-1788407Y3155396D01*
X-1784456Y3154737D01*
X-1780342Y3154573D01*
X-1778696D01*
X-1777708Y3154737D01*
X-1776721D01*
X-1774252Y3155066D01*
X-1771289Y3155396D01*
X-1768162Y3156054D01*
X-1764705Y3157041D01*
X-1761249Y3158194D01*
X-1761084D01*
X-1760755Y3158358D01*
X-1760426Y3158523D01*
X-1759768Y3158852D01*
X-1757957Y3159675D01*
X-1755982Y3160662D01*
X-1753678Y3161815D01*
X-1751209Y3163131D01*
X-1748905Y3164613D01*
X-1746929Y3166259D01*
Y3187656D01*
X-1780506D01*
Y3201152D01*
X-1732116D01*
Y3158852D01*
X-1732281Y3158687D01*
X-1732610Y3158523D01*
X-1733268Y3158029D01*
X-1734091Y3157371D01*
X-1735079Y3156712D01*
X-1736231Y3155889D01*
X-1737712Y3154902D01*
X-1739194Y3153914D01*
X-1742650Y3151774D01*
X-1746600Y3149470D01*
X-1750715Y3147331D01*
X-1755159Y3145520D01*
X-1755324D01*
X-1755653Y3145355D01*
X-1756311Y3145191D01*
X-1757134Y3144862D01*
X-1758286Y3144532D01*
X-1759603Y3144039D01*
X-1761084Y3143709D01*
X-1762566Y3143380D01*
X-1766187Y3142557D01*
X-1770302Y3141734D01*
X-1774745Y3141241D01*
X-1779354Y3141076D01*
X-1781000D01*
X-1782152Y3141241D01*
X-1783633D01*
X-1785444Y3141405D01*
X-1787419Y3141734D01*
X-1789559Y3141899D01*
X-1794332Y3142887D01*
X-1799434Y3144039D01*
X-1804701Y3145849D01*
X-1807335Y3146837D01*
X-1809968Y3148153D01*
X-1810133Y3148318D01*
X-1810627Y3148483D01*
X-1811285Y3148976D01*
X-1812272Y3149470D01*
X-1813425Y3150293D01*
X-1814577Y3151116D01*
X-1817704Y3153420D01*
X-1820996Y3156383D01*
X-1824452Y3160004D01*
X-1827744Y3164119D01*
X-1830707Y3168892D01*
Y3169057D01*
X-1831036Y3169550D01*
X-1831365Y3170209D01*
X-1831859Y3171361D01*
X-1832353Y3172513D01*
X-1832846Y3174159D01*
X-1833505Y3175805D01*
X-1834163Y3177780D01*
X-1834822Y3179920D01*
X-1835480Y3182389D01*
X-1835974Y3184857D01*
X-1836467Y3187491D01*
X-1837290Y3193252D01*
X-1837620Y3199342D01*
Y3199506D01*
Y3200165D01*
Y3200988D01*
X-1837455Y3202140D01*
Y3203621D01*
X-1837290Y3205431D01*
X-1836961Y3207242D01*
X-1836797Y3209382D01*
X-1836303Y3211686D01*
X-1835974Y3214155D01*
X-1834657Y3219422D01*
X-1833011Y3224853D01*
X-1830707Y3230285D01*
X-1830542Y3230449D01*
X-1830378Y3230943D01*
X-1830048Y3231602D01*
X-1829390Y3232589D01*
X-1828732Y3233906D01*
X-1827909Y3235223D01*
X-1825604Y3238350D01*
X-1822806Y3241971D01*
X-1819350Y3245427D01*
X-1815400Y3248884D01*
X-1813095Y3250365D01*
X-1810791Y3251846D01*
X-1810627Y3252011D01*
X-1810133Y3252176D01*
X-1809474Y3252505D01*
X-1808487Y3252999D01*
X-1807170Y3253492D01*
X-1805689Y3254151D01*
X-1804043Y3254809D01*
X-1802068Y3255467D01*
X-1799928Y3256126D01*
X-1797624Y3256620D01*
X-1795155Y3257278D01*
X-1792521Y3257772D01*
X-1786761Y3258595D01*
X-1783798Y3258924D01*
X-1778531D01*
X-1777544Y3258759D01*
D02*
G37*
G36*
X-1858852Y3143051D02*
X-1873994D01*
Y3196708D01*
X-1932918D01*
Y3143051D01*
X-1948061D01*
Y3256949D01*
X-1932918D01*
Y3210205D01*
X-1873994D01*
Y3256949D01*
X-1858852D01*
Y3143051D01*
D02*
G37*
G36*
X2067071Y3634936D02*
X2082543D01*
Y3622098D01*
X2067071D01*
Y3594776D01*
X2053081D01*
Y3622098D01*
X2003539D01*
Y3634936D01*
X2055714Y3708673D01*
X2067071D01*
Y3634936D01*
D02*
G37*
G36*
X1960251Y3709002D02*
X1961568Y3708838D01*
X1963214Y3708673D01*
X1965024Y3708344D01*
X1966835Y3708015D01*
X1971114Y3706863D01*
X1975394Y3705217D01*
X1977533Y3704229D01*
X1979673Y3703077D01*
X1981648Y3701596D01*
X1983459Y3699950D01*
X1983623Y3699785D01*
X1983952Y3699621D01*
X1984282Y3698962D01*
X1984940Y3698304D01*
X1985763Y3697481D01*
X1986586Y3696329D01*
X1987409Y3695177D01*
X1988396Y3693695D01*
X1990042Y3690568D01*
X1991688Y3686618D01*
X1992347Y3684643D01*
X1992676Y3682339D01*
X1993005Y3680034D01*
X1993169Y3677565D01*
Y3677236D01*
Y3676413D01*
X1993005Y3675097D01*
X1992840Y3673286D01*
X1992511Y3671311D01*
X1991853Y3669007D01*
X1991194Y3666538D01*
X1990207Y3664069D01*
X1990042Y3663740D01*
X1989713Y3662917D01*
X1989055Y3661600D01*
X1988067Y3659789D01*
X1986750Y3657814D01*
X1985104Y3655345D01*
X1983129Y3652877D01*
X1980825Y3650079D01*
X1980496Y3649749D01*
X1979673Y3648762D01*
X1978850Y3647939D01*
X1978027Y3647116D01*
X1977039Y3646128D01*
X1975723Y3644812D01*
X1974406Y3643495D01*
X1972760Y3642014D01*
X1971114Y3640368D01*
X1969139Y3638557D01*
X1966999Y3636747D01*
X1964695Y3634607D01*
X1962062Y3632467D01*
X1959428Y3630163D01*
X1959264Y3629998D01*
X1958934Y3629669D01*
X1958276Y3629175D01*
X1957453Y3628517D01*
X1956465Y3627529D01*
X1955313Y3626542D01*
X1952680Y3624402D01*
X1949882Y3621933D01*
X1947248Y3619464D01*
X1944944Y3617325D01*
X1943956Y3616502D01*
X1943134Y3615679D01*
X1942969Y3615514D01*
X1942475Y3615020D01*
X1941817Y3614362D01*
X1940994Y3613375D01*
X1940171Y3612222D01*
X1939183Y3611070D01*
X1937208Y3608272D01*
X1993334D01*
Y3594776D01*
X1917786D01*
Y3594940D01*
Y3595599D01*
Y3596586D01*
X1917951Y3597903D01*
X1918116Y3599384D01*
X1918445Y3601030D01*
X1918774Y3602676D01*
X1919432Y3604487D01*
Y3604651D01*
X1919597Y3604816D01*
X1919926Y3605803D01*
X1920584Y3607285D01*
X1921572Y3609260D01*
X1922889Y3611564D01*
X1924535Y3614197D01*
X1926345Y3616831D01*
X1928649Y3619629D01*
Y3619794D01*
X1928979Y3619958D01*
X1929802Y3620946D01*
X1931283Y3622427D01*
X1933423Y3624567D01*
X1935891Y3627036D01*
X1939019Y3629998D01*
X1942804Y3633290D01*
X1946919Y3636747D01*
X1947084Y3636911D01*
X1947742Y3637405D01*
X1948730Y3638228D01*
X1949882Y3639215D01*
X1951363Y3640532D01*
X1953174Y3642014D01*
X1954984Y3643659D01*
X1957124Y3645470D01*
X1961239Y3649420D01*
X1965353Y3653370D01*
X1967329Y3655345D01*
X1969139Y3657321D01*
X1970785Y3659131D01*
X1972102Y3660942D01*
Y3661106D01*
X1972431Y3661271D01*
X1972760Y3661765D01*
X1973089Y3662423D01*
X1974241Y3664233D01*
X1975558Y3666373D01*
X1976710Y3669007D01*
X1977862Y3671805D01*
X1978521Y3674932D01*
X1978850Y3677895D01*
Y3678059D01*
Y3678224D01*
X1978685Y3679211D01*
X1978521Y3680857D01*
X1978027Y3682668D01*
X1977369Y3684972D01*
X1976217Y3687276D01*
X1974735Y3689581D01*
X1972760Y3691885D01*
X1972431Y3692214D01*
X1971608Y3692872D01*
X1970456Y3693695D01*
X1968645Y3694848D01*
X1966341Y3695835D01*
X1963708Y3696823D01*
X1960580Y3697481D01*
X1957124Y3697646D01*
X1956136D01*
X1955478Y3697481D01*
X1953503Y3697316D01*
X1951199Y3696823D01*
X1948730Y3696164D01*
X1945932Y3695012D01*
X1943298Y3693531D01*
X1940829Y3691556D01*
X1940500Y3691227D01*
X1939842Y3690404D01*
X1938854Y3689087D01*
X1937867Y3687112D01*
X1936714Y3684807D01*
X1935727Y3681845D01*
X1935069Y3678553D01*
X1934739Y3674767D01*
X1920420Y3676249D01*
Y3676413D01*
X1920584Y3676907D01*
Y3677730D01*
X1920749Y3678882D01*
X1921078Y3680199D01*
X1921407Y3681680D01*
X1921901Y3683491D01*
X1922395Y3685301D01*
X1923712Y3689251D01*
X1925687Y3693202D01*
X1926839Y3695177D01*
X1928320Y3697152D01*
X1929802Y3698962D01*
X1931447Y3700608D01*
X1931612Y3700773D01*
X1931941Y3700937D01*
X1932435Y3701431D01*
X1933258Y3701925D01*
X1934246Y3702583D01*
X1935398Y3703242D01*
X1936714Y3704065D01*
X1938360Y3704888D01*
X1940171Y3705711D01*
X1942146Y3706534D01*
X1944286Y3707192D01*
X1946590Y3707850D01*
X1949059Y3708344D01*
X1951692Y3708838D01*
X1954490Y3709002D01*
X1957453Y3709167D01*
X1959099D01*
X1960251Y3709002D01*
D02*
G37*
G36*
X2020986Y2090833D02*
X2006995D01*
Y2179878D01*
X2006831Y2179713D01*
X2006008Y2179055D01*
X2005020Y2178067D01*
X2003374Y2176915D01*
X2001564Y2175434D01*
X1999259Y2173788D01*
X1996626Y2171977D01*
X1993663Y2170167D01*
X1993499D01*
X1993334Y2170002D01*
X1992347Y2169344D01*
X1990701Y2168521D01*
X1988726Y2167533D01*
X1986421Y2166381D01*
X1983952Y2165229D01*
X1981483Y2164077D01*
X1979015Y2163089D01*
Y2176586D01*
X1979179D01*
X1979508Y2176915D01*
X1980167Y2177079D01*
X1980990Y2177573D01*
X1981977Y2178067D01*
X1983129Y2178725D01*
X1985927Y2180371D01*
X1989219Y2182182D01*
X1992511Y2184486D01*
X1995968Y2187120D01*
X1999424Y2189918D01*
X1999589Y2190082D01*
X1999753Y2190247D01*
X2000247Y2190741D01*
X2000905Y2191234D01*
X2002387Y2192880D01*
X2004362Y2194855D01*
X2006337Y2197160D01*
X2008477Y2199793D01*
X2010287Y2202427D01*
X2011933Y2205225D01*
X2020986D01*
Y2090833D01*
D02*
G37*
G36*
X-1838936Y802798D02*
X-1796307Y743051D01*
X-1814906D01*
X-1843710Y783541D01*
X-1843874Y783705D01*
X-1844203Y784199D01*
X-1844533Y784857D01*
X-1845191Y785680D01*
X-1846672Y787985D01*
X-1848318Y790454D01*
X-1848483Y790289D01*
X-1848976Y789631D01*
X-1849635Y788643D01*
X-1850458Y787326D01*
X-1852268Y784693D01*
X-1853091Y783541D01*
X-1853750Y782553D01*
X-1882553Y743051D01*
X-1900658D01*
X-1856712Y801975D01*
X-1895556Y856949D01*
X-1877615D01*
X-1856877Y827651D01*
Y827487D01*
X-1856548Y827322D01*
X-1856219Y826828D01*
X-1855725Y826170D01*
X-1854737Y824524D01*
X-1853256Y822549D01*
X-1851775Y820245D01*
X-1850293Y817940D01*
X-1848976Y815801D01*
X-1847824Y813826D01*
X-1847660Y814155D01*
X-1847166Y814813D01*
X-1846343Y816130D01*
X-1845191Y817776D01*
X-1843874Y819586D01*
X-1842228Y821891D01*
X-1840582Y824195D01*
X-1838607Y826664D01*
X-1815893Y856949D01*
X-1799434D01*
X-1838936Y802798D01*
D02*
G37*
G36*
X-1949542Y856784D02*
X-1948061D01*
X-1944604Y856620D01*
X-1940983Y856126D01*
X-1937033Y855632D01*
X-1933412Y854809D01*
X-1931602Y854315D01*
X-1930120Y853822D01*
X-1929956D01*
X-1929791Y853657D01*
X-1928804Y853163D01*
X-1927322Y852505D01*
X-1925512Y851353D01*
X-1923537Y849871D01*
X-1921397Y847896D01*
X-1919422Y845592D01*
X-1917447Y842958D01*
Y842794D01*
X-1917282Y842629D01*
X-1916624Y841642D01*
X-1915965Y839996D01*
X-1914978Y837856D01*
X-1914155Y835387D01*
X-1913332Y832425D01*
X-1912838Y829297D01*
X-1912674Y825841D01*
Y825676D01*
Y825347D01*
Y824689D01*
X-1912838Y823866D01*
Y822714D01*
X-1913003Y821561D01*
X-1913661Y818763D01*
X-1914649Y815472D01*
X-1915965Y812015D01*
X-1917941Y808559D01*
X-1919257Y806913D01*
X-1920574Y805267D01*
X-1920739Y805102D01*
X-1920903Y804938D01*
X-1921397Y804444D01*
X-1922055Y803950D01*
X-1922878Y803292D01*
X-1923866Y802633D01*
X-1925183Y801810D01*
X-1926499Y800823D01*
X-1928145Y800000D01*
X-1929956Y799177D01*
X-1931931Y798189D01*
X-1934071Y797366D01*
X-1936539Y796708D01*
X-1939008Y795885D01*
X-1941806Y795391D01*
X-1944769Y794898D01*
X-1944440Y794733D01*
X-1943781Y794404D01*
X-1942794Y793745D01*
X-1941477Y793087D01*
X-1938515Y791277D01*
X-1937033Y790124D01*
X-1935716Y789137D01*
X-1935387Y788808D01*
X-1934564Y787985D01*
X-1933248Y786668D01*
X-1931602Y785022D01*
X-1929791Y782718D01*
X-1927651Y780249D01*
X-1925512Y777286D01*
X-1923207Y773994D01*
X-1903621Y743051D01*
X-1922385D01*
X-1937362Y766752D01*
Y766917D01*
X-1937692Y767246D01*
X-1938021Y767740D01*
X-1938515Y768398D01*
X-1939667Y770209D01*
X-1941148Y772513D01*
X-1942959Y774982D01*
X-1944769Y777615D01*
X-1946580Y780084D01*
X-1948225Y782389D01*
X-1948390Y782553D01*
X-1948884Y783212D01*
X-1949707Y784199D01*
X-1950859Y785351D01*
X-1953328Y787820D01*
X-1954645Y788972D01*
X-1955961Y789960D01*
X-1956126Y790124D01*
X-1956455Y790289D01*
X-1957113Y790618D01*
X-1958101Y791112D01*
X-1959089Y791606D01*
X-1960241Y792100D01*
X-1962874Y792922D01*
X-1963039D01*
X-1963368Y793087D01*
X-1964026D01*
X-1964849Y793252D01*
X-1966001Y793416D01*
X-1967318D01*
X-1969129Y793581D01*
X-1988551D01*
Y743051D01*
X-2003693D01*
Y856949D01*
X-1950859D01*
X-1949542Y856784D01*
D02*
G37*
G36*
X-1229279Y-5049255D02*
X-1229444D01*
X-1229609D01*
X-1230102Y-5049419D01*
X-1230761D01*
X-1232242Y-5049748D01*
X-1234382Y-5050242D01*
X-1236522Y-5050900D01*
X-1238990Y-5051559D01*
X-1241295Y-5052711D01*
X-1243434Y-5053863D01*
X-1243599Y-5054028D01*
X-1244257Y-5054522D01*
X-1245409Y-5055344D01*
X-1246562Y-5056661D01*
X-1248043Y-5058307D01*
X-1249524Y-5060118D01*
X-1251006Y-5062587D01*
X-1252322Y-5065220D01*
Y-5065385D01*
X-1252487Y-5065549D01*
X-1252652Y-5066043D01*
X-1252816Y-5066537D01*
X-1253310Y-5068183D01*
X-1253968Y-5070322D01*
X-1254627Y-5072956D01*
X-1255120Y-5075918D01*
X-1255450Y-5079210D01*
X-1255614Y-5082831D01*
Y-5084313D01*
X-1255450Y-5085959D01*
X-1255285Y-5087934D01*
X-1254956Y-5090238D01*
X-1254627Y-5092871D01*
X-1253968Y-5095505D01*
X-1253145Y-5097974D01*
X-1252981Y-5098303D01*
X-1252652Y-5099126D01*
X-1251993Y-5100278D01*
X-1251335Y-5101759D01*
X-1250183Y-5103241D01*
X-1249031Y-5104887D01*
X-1247714Y-5106533D01*
X-1246068Y-5107849D01*
X-1245903Y-5108014D01*
X-1245245Y-5108343D01*
X-1244422Y-5108837D01*
X-1243105Y-5109495D01*
X-1241788Y-5110154D01*
X-1240143Y-5110647D01*
X-1238332Y-5110977D01*
X-1236357Y-5111141D01*
X-1236192D01*
X-1235369D01*
X-1234382Y-5110977D01*
X-1233065Y-5110812D01*
X-1231748Y-5110318D01*
X-1230102Y-5109824D01*
X-1228457Y-5109001D01*
X-1226975Y-5107849D01*
X-1226811Y-5107685D01*
X-1226317Y-5107191D01*
X-1225658Y-5106533D01*
X-1224671Y-5105380D01*
X-1223683Y-5104064D01*
X-1222531Y-5102253D01*
X-1221379Y-5100113D01*
X-1220392Y-5097645D01*
X-1220227Y-5097480D01*
X-1220062Y-5096657D01*
X-1219569Y-5095340D01*
X-1219404Y-5094517D01*
X-1219075Y-5093365D01*
X-1218581Y-5092213D01*
X-1218252Y-5090732D01*
X-1217758Y-5089086D01*
X-1217264Y-5087111D01*
X-1216770Y-5085136D01*
X-1216112Y-5082831D01*
X-1215454Y-5080198D01*
X-1214795Y-5077400D01*
Y-5077235D01*
X-1214631Y-5076741D01*
X-1214466Y-5075918D01*
X-1214137Y-5074931D01*
X-1213808Y-5073614D01*
X-1213479Y-5072133D01*
X-1212491Y-5068841D01*
X-1211339Y-5065220D01*
X-1210187Y-5061434D01*
X-1209035Y-5058143D01*
X-1208376Y-5056661D01*
X-1207718Y-5055344D01*
Y-5055180D01*
X-1207553Y-5055015D01*
X-1206895Y-5054028D01*
X-1206072Y-5052546D01*
X-1204755Y-5050900D01*
X-1203274Y-5048925D01*
X-1201463Y-5046950D01*
X-1199324Y-5044975D01*
X-1197019Y-5043329D01*
X-1196690Y-5043165D01*
X-1195867Y-5042671D01*
X-1194551Y-5042013D01*
X-1192905Y-5041354D01*
X-1190765Y-5040696D01*
X-1188296Y-5040037D01*
X-1185663Y-5039544D01*
X-1182865Y-5039379D01*
X-1182700D01*
X-1182535D01*
X-1182042D01*
X-1181383D01*
X-1179737Y-5039708D01*
X-1177598Y-5040037D01*
X-1175129Y-5040531D01*
X-1172331Y-5041354D01*
X-1169533Y-5042506D01*
X-1166735Y-5044152D01*
X-1166570D01*
X-1166405Y-5044317D01*
X-1165418Y-5045140D01*
X-1164101Y-5046292D01*
X-1162455Y-5047773D01*
X-1160645Y-5049748D01*
X-1158670Y-5052217D01*
X-1156859Y-5055180D01*
X-1155213Y-5058472D01*
Y-5058636D01*
X-1155048Y-5058965D01*
X-1154884Y-5059459D01*
X-1154555Y-5060118D01*
X-1154226Y-5060941D01*
X-1153896Y-5062093D01*
X-1153238Y-5064562D01*
X-1152580Y-5067689D01*
X-1151921Y-5071310D01*
X-1151427Y-5075096D01*
X-1151263Y-5079375D01*
Y-5081515D01*
X-1151427Y-5082667D01*
Y-5083819D01*
X-1151757Y-5086946D01*
X-1152250Y-5090403D01*
X-1153073Y-5094024D01*
X-1154061Y-5097974D01*
X-1155378Y-5101595D01*
Y-5101759D01*
X-1155542Y-5102089D01*
X-1155871Y-5102582D01*
X-1156201Y-5103241D01*
X-1157024Y-5104887D01*
X-1158505Y-5107026D01*
X-1160151Y-5109495D01*
X-1162291Y-5111964D01*
X-1164759Y-5114268D01*
X-1167557Y-5116408D01*
X-1167722D01*
X-1167887Y-5116573D01*
X-1168380Y-5116902D01*
X-1168874Y-5117231D01*
X-1170520Y-5118054D01*
X-1172660Y-5119042D01*
X-1175293Y-5120194D01*
X-1178421Y-5121017D01*
X-1181712Y-5121840D01*
X-1185333Y-5122169D01*
X-1186486Y-5107685D01*
X-1186321D01*
X-1185992D01*
X-1185498Y-5107520D01*
X-1184675Y-5107356D01*
X-1182865Y-5106862D01*
X-1180396Y-5106203D01*
X-1177762Y-5105216D01*
X-1175129Y-5103735D01*
X-1172660Y-5101924D01*
X-1170356Y-5099620D01*
X-1170191Y-5099291D01*
X-1169533Y-5098468D01*
X-1168545Y-5096822D01*
X-1167557Y-5094682D01*
X-1166570Y-5091884D01*
X-1165582Y-5088592D01*
X-1164924Y-5084477D01*
X-1164759Y-5079869D01*
Y-5077564D01*
X-1164924Y-5076577D01*
X-1165089Y-5075260D01*
X-1165418Y-5072297D01*
X-1166076Y-5069006D01*
X-1166899Y-5065714D01*
X-1168216Y-5062587D01*
X-1169039Y-5061270D01*
X-1169862Y-5059953D01*
X-1170026Y-5059624D01*
X-1170685Y-5058965D01*
X-1171837Y-5057978D01*
X-1173154Y-5056990D01*
X-1174964Y-5055838D01*
X-1176939Y-5054851D01*
X-1179244Y-5054192D01*
X-1181877Y-5053863D01*
X-1182206D01*
X-1182865D01*
X-1184017Y-5054028D01*
X-1185333Y-5054357D01*
X-1186979Y-5054851D01*
X-1188625Y-5055674D01*
X-1190271Y-5056661D01*
X-1191917Y-5058143D01*
X-1192082Y-5058307D01*
X-1192575Y-5059130D01*
X-1193069Y-5059788D01*
X-1193398Y-5060447D01*
X-1193892Y-5061434D01*
X-1194551Y-5062587D01*
X-1195044Y-5064068D01*
X-1195703Y-5065714D01*
X-1196361Y-5067524D01*
X-1197184Y-5069664D01*
X-1197842Y-5071968D01*
X-1198665Y-5074602D01*
X-1199324Y-5077564D01*
X-1200147Y-5080856D01*
Y-5081021D01*
X-1200311Y-5081679D01*
X-1200476Y-5082667D01*
X-1200805Y-5083819D01*
X-1201134Y-5085300D01*
X-1201628Y-5087111D01*
X-1202122Y-5088921D01*
X-1202616Y-5090896D01*
X-1203768Y-5095176D01*
X-1204920Y-5099291D01*
X-1205578Y-5101266D01*
X-1206237Y-5103076D01*
X-1206730Y-5104722D01*
X-1207389Y-5106039D01*
Y-5106203D01*
X-1207553Y-5106533D01*
X-1207883Y-5107026D01*
X-1208212Y-5107685D01*
X-1209199Y-5109495D01*
X-1210516Y-5111635D01*
X-1212327Y-5114104D01*
X-1214302Y-5116573D01*
X-1216606Y-5118877D01*
X-1219075Y-5120852D01*
X-1219404Y-5121017D01*
X-1220227Y-5121675D01*
X-1221708Y-5122333D01*
X-1223683Y-5123321D01*
X-1225988Y-5124144D01*
X-1228786Y-5124967D01*
X-1231913Y-5125461D01*
X-1235205Y-5125625D01*
X-1235369D01*
X-1235534D01*
X-1236028D01*
X-1236686D01*
X-1238497Y-5125296D01*
X-1240801Y-5124967D01*
X-1243434Y-5124309D01*
X-1246232Y-5123486D01*
X-1249195Y-5122169D01*
X-1252322Y-5120358D01*
X-1252487D01*
X-1252652Y-5120194D01*
X-1253639Y-5119371D01*
X-1255120Y-5118219D01*
X-1256766Y-5116573D01*
X-1258741Y-5114433D01*
X-1260881Y-5111800D01*
X-1262856Y-5108837D01*
X-1264667Y-5105380D01*
Y-5105216D01*
X-1264831Y-5104887D01*
X-1264996Y-5104393D01*
X-1265325Y-5103735D01*
X-1265654Y-5102747D01*
X-1266148Y-5101595D01*
X-1266806Y-5098961D01*
X-1267629Y-5095834D01*
X-1268452Y-5092048D01*
X-1268946Y-5087934D01*
X-1269111Y-5083490D01*
Y-5080856D01*
X-1268946Y-5079539D01*
Y-5078058D01*
X-1268782Y-5076412D01*
X-1268617Y-5074437D01*
X-1267959Y-5070322D01*
X-1267300Y-5066043D01*
X-1266148Y-5061764D01*
X-1264667Y-5057649D01*
Y-5057484D01*
X-1264502Y-5057155D01*
X-1264173Y-5056661D01*
X-1263844Y-5056003D01*
X-1262856Y-5054028D01*
X-1261375Y-5051723D01*
X-1259400Y-5049090D01*
X-1257096Y-5046292D01*
X-1254297Y-5043658D01*
X-1251170Y-5041190D01*
X-1251006D01*
X-1250676Y-5040860D01*
X-1250183Y-5040696D01*
X-1249524Y-5040202D01*
X-1248701Y-5039873D01*
X-1247714Y-5039379D01*
X-1245245Y-5038227D01*
X-1242118Y-5037075D01*
X-1238661Y-5036087D01*
X-1234711Y-5035429D01*
X-1230596Y-5035100D01*
X-1229279Y-5049255D01*
D02*
G37*
G36*
X-1153238Y-5158544D02*
X-1194057D01*
X-1193892Y-5158708D01*
X-1193563Y-5159037D01*
X-1193069Y-5159531D01*
X-1192246Y-5160354D01*
X-1191423Y-5161177D01*
X-1190436Y-5162329D01*
X-1189448Y-5163811D01*
X-1188296Y-5165292D01*
X-1187309Y-5166938D01*
X-1186321Y-5168748D01*
X-1184510Y-5173028D01*
X-1183687Y-5175332D01*
X-1183194Y-5177801D01*
X-1182865Y-5180434D01*
X-1182700Y-5183068D01*
Y-5184549D01*
X-1182865Y-5186360D01*
X-1183194Y-5188499D01*
X-1183523Y-5190968D01*
X-1184181Y-5193602D01*
X-1185169Y-5196235D01*
X-1186321Y-5198869D01*
X-1186486Y-5199198D01*
X-1186979Y-5200021D01*
X-1187802Y-5201173D01*
X-1188954Y-5202654D01*
X-1190436Y-5204136D01*
X-1192082Y-5205782D01*
X-1194057Y-5207263D01*
X-1196361Y-5208580D01*
X-1196690Y-5208744D01*
X-1197513Y-5209073D01*
X-1198995Y-5209567D01*
X-1201134Y-5210061D01*
X-1203768Y-5210555D01*
X-1206895Y-5211049D01*
X-1210681Y-5211378D01*
X-1214960Y-5211542D01*
X-1267136D01*
Y-5197552D01*
X-1214795D01*
X-1214631D01*
X-1214302D01*
X-1213808D01*
X-1213149D01*
X-1211339Y-5197387D01*
X-1209035Y-5197058D01*
X-1206566Y-5196400D01*
X-1204097Y-5195577D01*
X-1201628Y-5194425D01*
X-1199653Y-5192943D01*
X-1199488Y-5192779D01*
X-1198830Y-5192120D01*
X-1198007Y-5191133D01*
X-1197184Y-5189652D01*
X-1196196Y-5187841D01*
X-1195538Y-5185701D01*
X-1194880Y-5183068D01*
X-1194715Y-5180105D01*
Y-5179118D01*
X-1194880Y-5177966D01*
X-1195044Y-5176320D01*
X-1195538Y-5174674D01*
X-1196032Y-5172699D01*
X-1196855Y-5170723D01*
X-1198007Y-5168584D01*
X-1198172Y-5168419D01*
X-1198665Y-5167761D01*
X-1199324Y-5166773D01*
X-1200311Y-5165621D01*
X-1201628Y-5164304D01*
X-1203109Y-5162988D01*
X-1204920Y-5161835D01*
X-1206895Y-5160848D01*
X-1207224Y-5160683D01*
X-1207883Y-5160519D01*
X-1209199Y-5160190D01*
X-1210845Y-5159696D01*
X-1212985Y-5159202D01*
X-1215618Y-5158873D01*
X-1218581Y-5158708D01*
X-1222037Y-5158544D01*
X-1267136D01*
Y-5144553D01*
X-1153238D01*
Y-5158544D01*
D02*
G37*
G36*
Y-5247094D02*
X-1169203D01*
Y-5233104D01*
X-1153238D01*
Y-5247094D01*
D02*
G37*
G36*
X-1184510D02*
X-1267136D01*
Y-5233104D01*
X-1184510D01*
Y-5247094D01*
D02*
G37*
G36*
Y-5281000D02*
X-1196361D01*
X-1196196Y-5281165D01*
X-1195703Y-5281494D01*
X-1195044Y-5281988D01*
X-1194221Y-5282646D01*
X-1193234Y-5283634D01*
X-1192082Y-5284786D01*
X-1190765Y-5286102D01*
X-1189448Y-5287748D01*
X-1188296Y-5289394D01*
X-1186979Y-5291369D01*
X-1185827Y-5293509D01*
X-1184840Y-5295813D01*
X-1184017Y-5298447D01*
X-1183358Y-5301080D01*
X-1182865Y-5304043D01*
X-1182700Y-5307170D01*
Y-5308487D01*
X-1182865Y-5309804D01*
X-1183029Y-5311614D01*
X-1183358Y-5313754D01*
X-1183852Y-5316058D01*
X-1184510Y-5318527D01*
X-1185498Y-5320831D01*
X-1185663Y-5321161D01*
X-1185992Y-5321819D01*
X-1186486Y-5322971D01*
X-1187309Y-5324288D01*
X-1188296Y-5325934D01*
X-1189613Y-5327415D01*
X-1190930Y-5328896D01*
X-1192575Y-5330213D01*
X-1192740Y-5330378D01*
X-1193398Y-5330707D01*
X-1194221Y-5331201D01*
X-1195374Y-5332024D01*
X-1197019Y-5332682D01*
X-1198665Y-5333340D01*
X-1200640Y-5334163D01*
X-1202780Y-5334657D01*
X-1202945D01*
X-1203603Y-5334822D01*
X-1204591Y-5334986D01*
X-1205907Y-5335151D01*
X-1207883D01*
X-1210187Y-5335315D01*
X-1212985Y-5335480D01*
X-1216441D01*
X-1267136D01*
Y-5321490D01*
X-1217100D01*
X-1216935D01*
X-1216770D01*
X-1215618D01*
X-1214137D01*
X-1212327Y-5321325D01*
X-1210187Y-5321161D01*
X-1208047Y-5320831D01*
X-1206072Y-5320338D01*
X-1204261Y-5319844D01*
X-1204097D01*
X-1203603Y-5319515D01*
X-1202780Y-5319021D01*
X-1201793Y-5318527D01*
X-1200805Y-5317704D01*
X-1199653Y-5316717D01*
X-1198501Y-5315400D01*
X-1197513Y-5313919D01*
X-1197349Y-5313754D01*
X-1197019Y-5313260D01*
X-1196690Y-5312273D01*
X-1196196Y-5311120D01*
X-1195703Y-5309804D01*
X-1195209Y-5308158D01*
X-1195044Y-5306183D01*
X-1194880Y-5304208D01*
Y-5303385D01*
X-1195044Y-5302726D01*
X-1195209Y-5301080D01*
X-1195538Y-5298941D01*
X-1196361Y-5296636D01*
X-1197349Y-5294003D01*
X-1198665Y-5291369D01*
X-1200640Y-5288901D01*
X-1200970Y-5288571D01*
X-1201793Y-5287913D01*
X-1202451Y-5287419D01*
X-1203274Y-5286925D01*
X-1204261Y-5286267D01*
X-1205414Y-5285773D01*
X-1206730Y-5285115D01*
X-1208376Y-5284457D01*
X-1210187Y-5283963D01*
X-1212162Y-5283469D01*
X-1214302Y-5283140D01*
X-1216606Y-5282811D01*
X-1219404Y-5282481D01*
X-1222202D01*
X-1267136D01*
Y-5268491D01*
X-1184510D01*
Y-5281000D01*
D02*
G37*
G36*
X-1229279Y-5412180D02*
X-1229444D01*
X-1229609D01*
X-1230102Y-5412345D01*
X-1230761D01*
X-1232242Y-5412674D01*
X-1234382Y-5413167D01*
X-1236522Y-5413826D01*
X-1238990Y-5414484D01*
X-1241295Y-5415636D01*
X-1243434Y-5416789D01*
X-1243599Y-5416953D01*
X-1244257Y-5417447D01*
X-1245409Y-5418270D01*
X-1246562Y-5419587D01*
X-1248043Y-5421232D01*
X-1249524Y-5423043D01*
X-1251006Y-5425512D01*
X-1252322Y-5428145D01*
Y-5428310D01*
X-1252487Y-5428475D01*
X-1252652Y-5428968D01*
X-1252816Y-5429462D01*
X-1253310Y-5431108D01*
X-1253968Y-5433248D01*
X-1254627Y-5435881D01*
X-1255120Y-5438844D01*
X-1255450Y-5442136D01*
X-1255614Y-5445757D01*
Y-5447238D01*
X-1255450Y-5448884D01*
X-1255285Y-5450859D01*
X-1254956Y-5453163D01*
X-1254627Y-5455797D01*
X-1253968Y-5458430D01*
X-1253145Y-5460899D01*
X-1252981Y-5461228D01*
X-1252652Y-5462051D01*
X-1251993Y-5463203D01*
X-1251335Y-5464685D01*
X-1250183Y-5466166D01*
X-1249031Y-5467812D01*
X-1247714Y-5469458D01*
X-1246068Y-5470775D01*
X-1245903Y-5470939D01*
X-1245245Y-5471268D01*
X-1244422Y-5471762D01*
X-1243105Y-5472421D01*
X-1241788Y-5473079D01*
X-1240143Y-5473573D01*
X-1238332Y-5473902D01*
X-1236357Y-5474067D01*
X-1236192D01*
X-1235369D01*
X-1234382Y-5473902D01*
X-1233065Y-5473737D01*
X-1231748Y-5473244D01*
X-1230102Y-5472750D01*
X-1228457Y-5471927D01*
X-1226975Y-5470775D01*
X-1226811Y-5470610D01*
X-1226317Y-5470116D01*
X-1225658Y-5469458D01*
X-1224671Y-5468306D01*
X-1223683Y-5466989D01*
X-1222531Y-5465179D01*
X-1221379Y-5463039D01*
X-1220392Y-5460570D01*
X-1220227Y-5460405D01*
X-1220062Y-5459582D01*
X-1219569Y-5458266D01*
X-1219404Y-5457443D01*
X-1219075Y-5456291D01*
X-1218581Y-5455138D01*
X-1218252Y-5453657D01*
X-1217758Y-5452011D01*
X-1217264Y-5450036D01*
X-1216770Y-5448061D01*
X-1216112Y-5445757D01*
X-1215454Y-5443123D01*
X-1214795Y-5440325D01*
Y-5440161D01*
X-1214631Y-5439667D01*
X-1214466Y-5438844D01*
X-1214137Y-5437856D01*
X-1213808Y-5436540D01*
X-1213479Y-5435058D01*
X-1212491Y-5431766D01*
X-1211339Y-5428145D01*
X-1210187Y-5424360D01*
X-1209035Y-5421068D01*
X-1208376Y-5419587D01*
X-1207718Y-5418270D01*
Y-5418105D01*
X-1207553Y-5417941D01*
X-1206895Y-5416953D01*
X-1206072Y-5415472D01*
X-1204755Y-5413826D01*
X-1203274Y-5411851D01*
X-1201463Y-5409876D01*
X-1199324Y-5407901D01*
X-1197019Y-5406255D01*
X-1196690Y-5406090D01*
X-1195867Y-5405596D01*
X-1194551Y-5404938D01*
X-1192905Y-5404280D01*
X-1190765Y-5403621D01*
X-1188296Y-5402963D01*
X-1185663Y-5402469D01*
X-1182865Y-5402304D01*
X-1182700D01*
X-1182535D01*
X-1182042D01*
X-1181383D01*
X-1179737Y-5402634D01*
X-1177598Y-5402963D01*
X-1175129Y-5403457D01*
X-1172331Y-5404280D01*
X-1169533Y-5405432D01*
X-1166735Y-5407078D01*
X-1166570D01*
X-1166405Y-5407242D01*
X-1165418Y-5408065D01*
X-1164101Y-5409217D01*
X-1162455Y-5410699D01*
X-1160645Y-5412674D01*
X-1158670Y-5415143D01*
X-1156859Y-5418105D01*
X-1155213Y-5421397D01*
Y-5421562D01*
X-1155048Y-5421891D01*
X-1154884Y-5422385D01*
X-1154555Y-5423043D01*
X-1154226Y-5423866D01*
X-1153896Y-5425018D01*
X-1153238Y-5427487D01*
X-1152580Y-5430614D01*
X-1151921Y-5434235D01*
X-1151427Y-5438021D01*
X-1151263Y-5442300D01*
Y-5444440D01*
X-1151427Y-5445592D01*
Y-5446744D01*
X-1151757Y-5449871D01*
X-1152250Y-5453328D01*
X-1153073Y-5456949D01*
X-1154061Y-5460899D01*
X-1155378Y-5464520D01*
Y-5464685D01*
X-1155542Y-5465014D01*
X-1155871Y-5465508D01*
X-1156201Y-5466166D01*
X-1157024Y-5467812D01*
X-1158505Y-5469952D01*
X-1160151Y-5472421D01*
X-1162291Y-5474889D01*
X-1164759Y-5477194D01*
X-1167557Y-5479333D01*
X-1167722D01*
X-1167887Y-5479498D01*
X-1168380Y-5479827D01*
X-1168874Y-5480156D01*
X-1170520Y-5480979D01*
X-1172660Y-5481967D01*
X-1175293Y-5483119D01*
X-1178421Y-5483942D01*
X-1181712Y-5484765D01*
X-1185333Y-5485094D01*
X-1186486Y-5470610D01*
X-1186321D01*
X-1185992D01*
X-1185498Y-5470445D01*
X-1184675Y-5470281D01*
X-1182865Y-5469787D01*
X-1180396Y-5469129D01*
X-1177762Y-5468141D01*
X-1175129Y-5466660D01*
X-1172660Y-5464849D01*
X-1170356Y-5462545D01*
X-1170191Y-5462216D01*
X-1169533Y-5461393D01*
X-1168545Y-5459747D01*
X-1167557Y-5457607D01*
X-1166570Y-5454809D01*
X-1165582Y-5451517D01*
X-1164924Y-5447403D01*
X-1164759Y-5442794D01*
Y-5440490D01*
X-1164924Y-5439502D01*
X-1165089Y-5438185D01*
X-1165418Y-5435223D01*
X-1166076Y-5431931D01*
X-1166899Y-5428639D01*
X-1168216Y-5425512D01*
X-1169039Y-5424195D01*
X-1169862Y-5422878D01*
X-1170026Y-5422549D01*
X-1170685Y-5421891D01*
X-1171837Y-5420903D01*
X-1173154Y-5419916D01*
X-1174964Y-5418764D01*
X-1176939Y-5417776D01*
X-1179244Y-5417118D01*
X-1181877Y-5416789D01*
X-1182206D01*
X-1182865D01*
X-1184017Y-5416953D01*
X-1185333Y-5417282D01*
X-1186979Y-5417776D01*
X-1188625Y-5418599D01*
X-1190271Y-5419587D01*
X-1191917Y-5421068D01*
X-1192082Y-5421232D01*
X-1192575Y-5422055D01*
X-1193069Y-5422714D01*
X-1193398Y-5423372D01*
X-1193892Y-5424360D01*
X-1194551Y-5425512D01*
X-1195044Y-5426993D01*
X-1195703Y-5428639D01*
X-1196361Y-5430450D01*
X-1197184Y-5432589D01*
X-1197842Y-5434894D01*
X-1198665Y-5437527D01*
X-1199324Y-5440490D01*
X-1200147Y-5443782D01*
Y-5443946D01*
X-1200311Y-5444605D01*
X-1200476Y-5445592D01*
X-1200805Y-5446744D01*
X-1201134Y-5448226D01*
X-1201628Y-5450036D01*
X-1202122Y-5451847D01*
X-1202616Y-5453822D01*
X-1203768Y-5458101D01*
X-1204920Y-5462216D01*
X-1205578Y-5464191D01*
X-1206237Y-5466002D01*
X-1206730Y-5467647D01*
X-1207389Y-5468964D01*
Y-5469129D01*
X-1207553Y-5469458D01*
X-1207883Y-5469952D01*
X-1208212Y-5470610D01*
X-1209199Y-5472421D01*
X-1210516Y-5474560D01*
X-1212327Y-5477029D01*
X-1214302Y-5479498D01*
X-1216606Y-5481802D01*
X-1219075Y-5483777D01*
X-1219404Y-5483942D01*
X-1220227Y-5484600D01*
X-1221708Y-5485259D01*
X-1223683Y-5486246D01*
X-1225988Y-5487069D01*
X-1228786Y-5487892D01*
X-1231913Y-5488386D01*
X-1235205Y-5488551D01*
X-1235369D01*
X-1235534D01*
X-1236028D01*
X-1236686D01*
X-1238497Y-5488221D01*
X-1240801Y-5487892D01*
X-1243434Y-5487234D01*
X-1246232Y-5486411D01*
X-1249195Y-5485094D01*
X-1252322Y-5483284D01*
X-1252487D01*
X-1252652Y-5483119D01*
X-1253639Y-5482296D01*
X-1255120Y-5481144D01*
X-1256766Y-5479498D01*
X-1258741Y-5477358D01*
X-1260881Y-5474725D01*
X-1262856Y-5471762D01*
X-1264667Y-5468306D01*
Y-5468141D01*
X-1264831Y-5467812D01*
X-1264996Y-5467318D01*
X-1265325Y-5466660D01*
X-1265654Y-5465672D01*
X-1266148Y-5464520D01*
X-1266806Y-5461887D01*
X-1267629Y-5458759D01*
X-1268452Y-5454974D01*
X-1268946Y-5450859D01*
X-1269111Y-5446415D01*
Y-5443782D01*
X-1268946Y-5442465D01*
Y-5440984D01*
X-1268782Y-5439338D01*
X-1268617Y-5437363D01*
X-1267959Y-5433248D01*
X-1267300Y-5428968D01*
X-1266148Y-5424689D01*
X-1264667Y-5420574D01*
Y-5420410D01*
X-1264502Y-5420080D01*
X-1264173Y-5419587D01*
X-1263844Y-5418928D01*
X-1262856Y-5416953D01*
X-1261375Y-5414649D01*
X-1259400Y-5412015D01*
X-1257096Y-5409217D01*
X-1254297Y-5406584D01*
X-1251170Y-5404115D01*
X-1251006D01*
X-1250676Y-5403786D01*
X-1250183Y-5403621D01*
X-1249524Y-5403127D01*
X-1248701Y-5402798D01*
X-1247714Y-5402304D01*
X-1245245Y-5401152D01*
X-1242118Y-5400000D01*
X-1238661Y-5399013D01*
X-1234711Y-5398354D01*
X-1230596Y-5398025D01*
X-1229279Y-5412180D01*
D02*
G37*
G36*
X-1184510Y-5509783D02*
X-1164101D01*
X-1155707Y-5523773D01*
X-1184510D01*
Y-5537928D01*
X-1195374D01*
Y-5523773D01*
X-1243928D01*
X-1244257D01*
X-1244916D01*
X-1245903D01*
X-1247055Y-5523938D01*
X-1249689Y-5524102D01*
X-1250841Y-5524267D01*
X-1251664Y-5524432D01*
X-1251993Y-5524596D01*
X-1252652Y-5525090D01*
X-1253475Y-5525748D01*
X-1254297Y-5526901D01*
X-1254462Y-5527230D01*
X-1254791Y-5528053D01*
X-1255120Y-5529534D01*
X-1255285Y-5531674D01*
Y-5533320D01*
X-1255120Y-5534143D01*
Y-5535295D01*
X-1254956Y-5536611D01*
X-1254791Y-5537928D01*
X-1267136Y-5539739D01*
Y-5539410D01*
X-1267300Y-5538751D01*
X-1267465Y-5537599D01*
X-1267629Y-5536118D01*
X-1267959Y-5534472D01*
X-1268123Y-5532661D01*
X-1268288Y-5529040D01*
Y-5527724D01*
X-1268123Y-5526407D01*
X-1267959Y-5524761D01*
X-1267794Y-5522786D01*
X-1267300Y-5520811D01*
X-1266806Y-5519000D01*
X-1265983Y-5517190D01*
X-1265819Y-5517025D01*
X-1265490Y-5516531D01*
X-1264996Y-5515873D01*
X-1264173Y-5514885D01*
X-1263350Y-5514062D01*
X-1262198Y-5513075D01*
X-1261046Y-5512087D01*
X-1259564Y-5511429D01*
X-1259400D01*
X-1258741Y-5511100D01*
X-1257589Y-5510935D01*
X-1255943Y-5510606D01*
X-1253804Y-5510277D01*
X-1252487Y-5510112D01*
X-1251006D01*
X-1249195Y-5509948D01*
X-1247385Y-5509783D01*
X-1245409D01*
X-1243105D01*
X-1195374D01*
Y-5499414D01*
X-1184510D01*
Y-5509783D01*
D02*
G37*
G36*
Y-5564263D02*
X-1197019D01*
X-1196855Y-5564428D01*
X-1195703Y-5565086D01*
X-1194221Y-5565909D01*
X-1192411Y-5567226D01*
X-1190600Y-5568542D01*
X-1188625Y-5570024D01*
X-1186979Y-5571505D01*
X-1185663Y-5572986D01*
X-1185498Y-5573151D01*
X-1185169Y-5573645D01*
X-1184675Y-5574632D01*
X-1184181Y-5575620D01*
X-1183687Y-5576937D01*
X-1183194Y-5578582D01*
X-1182865Y-5580228D01*
X-1182700Y-5582039D01*
Y-5583191D01*
X-1182865Y-5584672D01*
X-1183194Y-5586483D01*
X-1183852Y-5588623D01*
X-1184675Y-5590927D01*
X-1185827Y-5593560D01*
X-1187309Y-5596358D01*
X-1200147Y-5591256D01*
X-1199982Y-5591091D01*
X-1199653Y-5590433D01*
X-1199159Y-5589446D01*
X-1198665Y-5588129D01*
X-1198172Y-5586647D01*
X-1197678Y-5584837D01*
X-1197349Y-5583026D01*
X-1197184Y-5581216D01*
Y-5580393D01*
X-1197349Y-5579570D01*
X-1197513Y-5578418D01*
X-1197842Y-5577266D01*
X-1198336Y-5575784D01*
X-1198995Y-5574303D01*
X-1199982Y-5572986D01*
X-1200147Y-5572822D01*
X-1200476Y-5572328D01*
X-1201134Y-5571834D01*
X-1201957Y-5571011D01*
X-1203109Y-5570188D01*
X-1204426Y-5569365D01*
X-1205907Y-5568542D01*
X-1207718Y-5567884D01*
X-1208047Y-5567719D01*
X-1209035Y-5567555D01*
X-1210516Y-5567226D01*
X-1212491Y-5566732D01*
X-1214960Y-5566238D01*
X-1217758Y-5565909D01*
X-1220721Y-5565744D01*
X-1224013Y-5565580D01*
X-1267136D01*
Y-5551589D01*
X-1184510D01*
Y-5564263D01*
D02*
G37*
G36*
X-1243270Y-5600144D02*
X-1241788Y-5600309D01*
X-1239978Y-5600638D01*
X-1238167Y-5601132D01*
X-1236192Y-5601790D01*
X-1234382Y-5602613D01*
X-1234217Y-5602777D01*
X-1233559Y-5603107D01*
X-1232571Y-5603765D01*
X-1231419Y-5604588D01*
X-1230102Y-5605576D01*
X-1228786Y-5606892D01*
X-1227469Y-5608209D01*
X-1226317Y-5609855D01*
X-1226152Y-5610020D01*
X-1225823Y-5610678D01*
X-1225165Y-5611501D01*
X-1224506Y-5612818D01*
X-1223848Y-5614299D01*
X-1223025Y-5616109D01*
X-1222367Y-5617920D01*
X-1221708Y-5620060D01*
Y-5620224D01*
X-1221544Y-5620883D01*
X-1221214Y-5621870D01*
X-1221050Y-5623187D01*
X-1220721Y-5624833D01*
X-1220392Y-5626972D01*
X-1219898Y-5629441D01*
X-1219569Y-5632404D01*
Y-5632569D01*
X-1219404Y-5633227D01*
Y-5634050D01*
X-1219239Y-5635202D01*
X-1219075Y-5636519D01*
X-1218746Y-5638165D01*
X-1218581Y-5639975D01*
X-1218252Y-5641950D01*
X-1217429Y-5645901D01*
X-1216606Y-5650180D01*
X-1215618Y-5653966D01*
X-1215125Y-5655776D01*
X-1214631Y-5657422D01*
X-1214466D01*
X-1214137D01*
X-1213149Y-5657587D01*
X-1211997D01*
X-1211339D01*
X-1211010D01*
X-1210845D01*
X-1210681D01*
X-1209693D01*
X-1208047Y-5657422D01*
X-1206237Y-5657093D01*
X-1204261Y-5656599D01*
X-1202286Y-5655776D01*
X-1200476Y-5654789D01*
X-1198995Y-5653472D01*
X-1198830Y-5653307D01*
X-1198172Y-5652484D01*
X-1197513Y-5651168D01*
X-1196526Y-5649522D01*
X-1195703Y-5647217D01*
X-1194880Y-5644584D01*
X-1194386Y-5641292D01*
X-1194221Y-5637506D01*
Y-5635860D01*
X-1194386Y-5634215D01*
X-1194715Y-5631910D01*
X-1195044Y-5629606D01*
X-1195703Y-5627137D01*
X-1196526Y-5624833D01*
X-1197678Y-5622858D01*
X-1197842Y-5622693D01*
X-1198336Y-5622035D01*
X-1199159Y-5621212D01*
X-1200476Y-5620224D01*
X-1202122Y-5619237D01*
X-1204261Y-5618085D01*
X-1206895Y-5617097D01*
X-1209858Y-5616109D01*
X-1208047Y-5602448D01*
X-1207883D01*
X-1207718Y-5602613D01*
X-1207224D01*
X-1206566Y-5602777D01*
X-1205084Y-5603271D01*
X-1202945Y-5603930D01*
X-1200805Y-5604753D01*
X-1198501Y-5605740D01*
X-1196196Y-5607057D01*
X-1194057Y-5608538D01*
X-1193892Y-5608703D01*
X-1193234Y-5609361D01*
X-1192246Y-5610349D01*
X-1190930Y-5611665D01*
X-1189613Y-5613476D01*
X-1188296Y-5615616D01*
X-1186815Y-5618085D01*
X-1185663Y-5620883D01*
Y-5621047D01*
X-1185498Y-5621212D01*
X-1185333Y-5621706D01*
X-1185169Y-5622364D01*
X-1184675Y-5624010D01*
X-1184181Y-5626314D01*
X-1183687Y-5628948D01*
X-1183194Y-5632239D01*
X-1182865Y-5635696D01*
X-1182700Y-5639646D01*
Y-5641457D01*
X-1182865Y-5643267D01*
X-1183029Y-5645736D01*
X-1183358Y-5648534D01*
X-1183852Y-5651332D01*
X-1184510Y-5654130D01*
X-1185333Y-5656764D01*
X-1185498Y-5657093D01*
X-1185827Y-5657916D01*
X-1186321Y-5659068D01*
X-1186979Y-5660549D01*
X-1187967Y-5662195D01*
X-1188954Y-5663841D01*
X-1190271Y-5665322D01*
X-1191588Y-5666639D01*
X-1191753Y-5666804D01*
X-1192246Y-5667133D01*
X-1193069Y-5667627D01*
X-1194057Y-5668285D01*
X-1195538Y-5669108D01*
X-1197019Y-5669766D01*
X-1198830Y-5670425D01*
X-1200970Y-5670919D01*
X-1201134D01*
X-1201628Y-5671083D01*
X-1202616Y-5671248D01*
X-1203932Y-5671412D01*
X-1205743D01*
X-1207883Y-5671577D01*
X-1210681Y-5671742D01*
X-1213808D01*
X-1232571D01*
X-1232736D01*
X-1233394D01*
X-1234382D01*
X-1235699D01*
X-1237180D01*
X-1238990D01*
X-1242941Y-5671906D01*
X-1247055D01*
X-1251170Y-5672071D01*
X-1252981Y-5672235D01*
X-1254627D01*
X-1256108Y-5672400D01*
X-1257260Y-5672564D01*
X-1257425D01*
X-1258083Y-5672729D01*
X-1259071Y-5672894D01*
X-1260387Y-5673387D01*
X-1261869Y-5673717D01*
X-1263515Y-5674375D01*
X-1265325Y-5675198D01*
X-1267136Y-5676021D01*
Y-5661372D01*
X-1266971Y-5661208D01*
X-1266313Y-5661043D01*
X-1265490Y-5660714D01*
X-1264173Y-5660220D01*
X-1262692Y-5659726D01*
X-1260881Y-5659397D01*
X-1258906Y-5659068D01*
X-1256766Y-5658739D01*
Y-5658574D01*
X-1257096Y-5658410D01*
X-1257918Y-5657422D01*
X-1259071Y-5655941D01*
X-1260552Y-5653966D01*
X-1262033Y-5651497D01*
X-1263679Y-5649028D01*
X-1265161Y-5646394D01*
X-1266313Y-5643596D01*
X-1266477Y-5643267D01*
X-1266642Y-5642280D01*
X-1267136Y-5640798D01*
X-1267629Y-5638988D01*
X-1268123Y-5636683D01*
X-1268452Y-5634050D01*
X-1268782Y-5631087D01*
X-1268946Y-5628125D01*
Y-5626808D01*
X-1268782Y-5625820D01*
Y-5624668D01*
X-1268617Y-5623351D01*
X-1268123Y-5620389D01*
X-1267300Y-5617097D01*
X-1266148Y-5613476D01*
X-1264502Y-5610184D01*
X-1262362Y-5607221D01*
X-1262033Y-5606892D01*
X-1261210Y-5606069D01*
X-1259729Y-5604917D01*
X-1257754Y-5603600D01*
X-1255285Y-5602284D01*
X-1252487Y-5601132D01*
X-1249031Y-5600309D01*
X-1247385Y-5600144D01*
X-1245409Y-5599979D01*
X-1245080D01*
X-1244422D01*
X-1243270Y-5600144D01*
D02*
G37*
G36*
X-1184510Y-5705977D02*
X-1195374D01*
X-1195044Y-5706141D01*
X-1194386Y-5706800D01*
X-1193234Y-5707623D01*
X-1191917Y-5708939D01*
X-1190271Y-5710421D01*
X-1188790Y-5712067D01*
X-1187309Y-5714042D01*
X-1185992Y-5716017D01*
X-1185827Y-5716346D01*
X-1185498Y-5717004D01*
X-1185004Y-5718321D01*
X-1184346Y-5719967D01*
X-1183687Y-5721942D01*
X-1183194Y-5724246D01*
X-1182865Y-5726880D01*
X-1182700Y-5729842D01*
Y-5731653D01*
X-1182865Y-5732476D01*
X-1183029Y-5733628D01*
X-1183358Y-5736097D01*
X-1184017Y-5739060D01*
X-1185004Y-5742187D01*
X-1186486Y-5745314D01*
X-1188296Y-5748441D01*
Y-5748606D01*
X-1188625Y-5748771D01*
X-1189284Y-5749758D01*
X-1190600Y-5751239D01*
X-1192246Y-5753050D01*
X-1194386Y-5755025D01*
X-1197019Y-5757000D01*
X-1200147Y-5758975D01*
X-1203603Y-5760621D01*
X-1203768D01*
X-1204097Y-5760786D01*
X-1204591Y-5760950D01*
X-1205249Y-5761280D01*
X-1206237Y-5761609D01*
X-1207389Y-5761938D01*
X-1210022Y-5762761D01*
X-1213314Y-5763584D01*
X-1216935Y-5764242D01*
X-1221050Y-5764736D01*
X-1225329Y-5764901D01*
X-1225494D01*
X-1225823D01*
X-1226481D01*
X-1227469D01*
X-1228621Y-5764736D01*
X-1229938D01*
X-1232901Y-5764407D01*
X-1236522Y-5763748D01*
X-1240307Y-5762925D01*
X-1244257Y-5761773D01*
X-1248208Y-5760292D01*
X-1248372D01*
X-1248701Y-5760127D01*
X-1249195Y-5759798D01*
X-1249853Y-5759469D01*
X-1251664Y-5758317D01*
X-1253968Y-5756836D01*
X-1256437Y-5755025D01*
X-1258906Y-5752721D01*
X-1261375Y-5750087D01*
X-1263679Y-5746960D01*
Y-5746795D01*
X-1263844Y-5746631D01*
X-1264173Y-5746137D01*
X-1264502Y-5745479D01*
X-1265325Y-5743833D01*
X-1266313Y-5741529D01*
X-1267300Y-5738730D01*
X-1268123Y-5735768D01*
X-1268782Y-5732311D01*
X-1268946Y-5728855D01*
Y-5727703D01*
X-1268782Y-5726386D01*
X-1268617Y-5724740D01*
X-1268288Y-5722765D01*
X-1267794Y-5720625D01*
X-1267136Y-5718486D01*
X-1266148Y-5716346D01*
X-1265983Y-5716181D01*
X-1265654Y-5715358D01*
X-1264996Y-5714371D01*
X-1264008Y-5713054D01*
X-1263021Y-5711737D01*
X-1261704Y-5710091D01*
X-1260223Y-5708610D01*
X-1258577Y-5707293D01*
X-1298737D01*
Y-5693303D01*
X-1184510D01*
Y-5705977D01*
D02*
G37*
%LPC*%
G36*
X-1789641Y3393452D02*
X-1822230D01*
Y3352798D01*
X-1791616D01*
X-1790464Y3352963D01*
X-1789312D01*
X-1787995Y3353127D01*
X-1784868Y3353457D01*
X-1781411Y3354115D01*
X-1777955Y3355103D01*
X-1774828Y3356419D01*
X-1773346Y3357242D01*
X-1772194Y3358230D01*
X-1771865Y3358559D01*
X-1771207Y3359217D01*
X-1770219Y3360534D01*
X-1769067Y3362180D01*
X-1767915Y3364320D01*
X-1766927Y3366953D01*
X-1766269Y3369916D01*
X-1765940Y3373372D01*
Y3373537D01*
Y3373701D01*
Y3374524D01*
X-1766104Y3376006D01*
X-1766434Y3377652D01*
X-1766763Y3379462D01*
X-1767421Y3381602D01*
X-1768409Y3383577D01*
X-1769561Y3385552D01*
X-1769725Y3385717D01*
X-1770219Y3386375D01*
X-1771042Y3387198D01*
X-1772030Y3388350D01*
X-1773511Y3389502D01*
X-1775157Y3390490D01*
X-1776967Y3391477D01*
X-1779107Y3392300D01*
X-1779272D01*
X-1779930Y3392465D01*
X-1780918Y3392629D01*
X-1782234Y3392959D01*
X-1784210Y3393123D01*
X-1786678Y3393288D01*
X-1789641Y3393452D01*
D02*
G37*
G36*
X-2300630Y-3956548D02*
X-2333219D01*
Y-3997202D01*
X-2302605D01*
X-2301453Y-3997037D01*
X-2300301D01*
X-2298984Y-3996873D01*
X-2295857Y-3996543D01*
X-2292401Y-3995885D01*
X-2288944Y-3994898D01*
X-2285817Y-3993581D01*
X-2284336Y-3992758D01*
X-2283183Y-3991770D01*
X-2282854Y-3991441D01*
X-2282196Y-3990783D01*
X-2281208Y-3989466D01*
X-2280056Y-3987820D01*
X-2278904Y-3985680D01*
X-2277916Y-3983047D01*
X-2277258Y-3980084D01*
X-2276929Y-3976628D01*
Y-3976463D01*
Y-3976299D01*
Y-3975476D01*
X-2277093Y-3973994D01*
X-2277423Y-3972348D01*
X-2277752Y-3970538D01*
X-2278410Y-3968398D01*
X-2279398Y-3966423D01*
X-2280550Y-3964448D01*
X-2280715Y-3964283D01*
X-2281208Y-3963625D01*
X-2282031Y-3962802D01*
X-2283019Y-3961650D01*
X-2284500Y-3960498D01*
X-2286146Y-3959510D01*
X-2287957Y-3958523D01*
X-2290096Y-3957700D01*
X-2290261D01*
X-2290919Y-3957535D01*
X-2291907Y-3957371D01*
X-2293224Y-3957041D01*
X-2295199Y-3956877D01*
X-2297667Y-3956712D01*
X-2300630Y-3956548D01*
D02*
G37*
G36*
X1825059Y-3804079D02*
X1824072D01*
X1823413Y-3804243D01*
X1821603Y-3804573D01*
X1819463Y-3805066D01*
X1816994Y-3806054D01*
X1814361Y-3807535D01*
X1813044Y-3808523D01*
X1811727Y-3809510D01*
X1810575Y-3810827D01*
X1809423Y-3812308D01*
Y-3812473D01*
X1809094Y-3812802D01*
X1808765Y-3813460D01*
X1808271Y-3814283D01*
X1807777Y-3815600D01*
X1807119Y-3817082D01*
X1806625Y-3818892D01*
X1805967Y-3821032D01*
X1805308Y-3823501D01*
X1804650Y-3826299D01*
X1803992Y-3829426D01*
X1803498Y-3832882D01*
X1803004Y-3836833D01*
X1802675Y-3841112D01*
X1802510Y-3845721D01*
X1802346Y-3850823D01*
Y-3851152D01*
Y-3851975D01*
Y-3853456D01*
X1802510Y-3855431D01*
Y-3857571D01*
X1802675Y-3860205D01*
X1802839Y-3863003D01*
X1803169Y-3865965D01*
X1803992Y-3872384D01*
X1804485Y-3875512D01*
X1805144Y-3878474D01*
X1805802Y-3881272D01*
X1806790Y-3883906D01*
X1807777Y-3886210D01*
X1808929Y-3888185D01*
Y-3888350D01*
X1809259Y-3888514D01*
X1810081Y-3889667D01*
X1811563Y-3891148D01*
X1813373Y-3892794D01*
X1815842Y-3894440D01*
X1818640Y-3895921D01*
X1821768Y-3897073D01*
X1823413Y-3897238D01*
X1825224Y-3897402D01*
X1826211D01*
X1826870Y-3897238D01*
X1828516Y-3896909D01*
X1830820Y-3896250D01*
X1833289Y-3895098D01*
X1836087Y-3893452D01*
X1837404Y-3892465D01*
X1838720Y-3891148D01*
X1840037Y-3889831D01*
X1841354Y-3888185D01*
Y-3888021D01*
X1841683Y-3887691D01*
X1842012Y-3887198D01*
X1842342Y-3886375D01*
X1843000Y-3885223D01*
X1843494Y-3883741D01*
X1844152Y-3882095D01*
X1844810Y-3880120D01*
X1845304Y-3877651D01*
X1845963Y-3875018D01*
X1846621Y-3871891D01*
X1847115Y-3868599D01*
X1847444Y-3864649D01*
X1847773Y-3860534D01*
X1848102Y-3855925D01*
Y-3850823D01*
Y-3850658D01*
Y-3850494D01*
Y-3849671D01*
Y-3848189D01*
X1847938Y-3846214D01*
Y-3844075D01*
X1847773Y-3841441D01*
X1847608Y-3838643D01*
X1847279Y-3835516D01*
X1846456Y-3829261D01*
X1845963Y-3826134D01*
X1845304Y-3823171D01*
X1844646Y-3820373D01*
X1843658Y-3817740D01*
X1842671Y-3815436D01*
X1841519Y-3813460D01*
Y-3813296D01*
X1841189Y-3813131D01*
X1840860Y-3812638D01*
X1840366Y-3811979D01*
X1838885Y-3810498D01*
X1837075Y-3808687D01*
X1834606Y-3807041D01*
X1831808Y-3805560D01*
X1830326Y-3804902D01*
X1828680Y-3804408D01*
X1826870Y-3804243D01*
X1825059Y-3804079D01*
D02*
G37*
G36*
X-1790793Y3093452D02*
X-1817786D01*
Y3059217D01*
X-1789806D01*
X-1787666Y3059382D01*
X-1785362Y3059546D01*
X-1783057Y3059711D01*
X-1780753Y3060040D01*
X-1778943Y3060369D01*
X-1778613Y3060534D01*
X-1777955Y3060698D01*
X-1776967Y3061192D01*
X-1775651Y3061851D01*
X-1774334Y3062509D01*
X-1772853Y3063497D01*
X-1771371Y3064813D01*
X-1770219Y3066130D01*
X-1770055Y3066295D01*
X-1769725Y3066788D01*
X-1769232Y3067776D01*
X-1768738Y3068928D01*
X-1768244Y3070245D01*
X-1767750Y3071891D01*
X-1767421Y3073866D01*
X-1767257Y3076006D01*
Y3076335D01*
Y3076993D01*
X-1767421Y3077981D01*
X-1767586Y3079297D01*
X-1767915Y3080943D01*
X-1768409Y3082589D01*
X-1769067Y3084235D01*
X-1770055Y3085881D01*
X-1770219Y3086046D01*
X-1770548Y3086539D01*
X-1771207Y3087362D01*
X-1772030Y3088185D01*
X-1773182Y3089173D01*
X-1774499Y3090160D01*
X-1776145Y3091148D01*
X-1777955Y3091806D01*
X-1778120D01*
X-1778943Y3092136D01*
X-1780095Y3092300D01*
X-1781905Y3092629D01*
X-1784374Y3092959D01*
X-1787172Y3093123D01*
X-1790793Y3093452D01*
D02*
G37*
G36*
X-1787831Y3045721D02*
X-1817786D01*
Y3006548D01*
X-1785362D01*
X-1781905Y3006712D01*
X-1780424Y3006877D01*
X-1779107Y3007041D01*
X-1778943D01*
X-1778284Y3007206D01*
X-1777297Y3007371D01*
X-1776145Y3007700D01*
X-1773346Y3008687D01*
X-1770548Y3010004D01*
X-1770384Y3010169D01*
X-1769890Y3010498D01*
X-1769232Y3010992D01*
X-1768409Y3011650D01*
X-1767586Y3012638D01*
X-1766434Y3013625D01*
X-1765611Y3014942D01*
X-1764623Y3016423D01*
X-1764458Y3016588D01*
X-1764294Y3017082D01*
X-1763965Y3018069D01*
X-1763471Y3019221D01*
X-1762977Y3020538D01*
X-1762648Y3022184D01*
X-1762483Y3024159D01*
X-1762319Y3026134D01*
Y3026463D01*
Y3027122D01*
X-1762483Y3028438D01*
X-1762813Y3029920D01*
X-1763142Y3031566D01*
X-1763800Y3033376D01*
X-1764623Y3035187D01*
X-1765775Y3036997D01*
X-1765940Y3037162D01*
X-1766434Y3037820D01*
X-1767092Y3038643D01*
X-1768080Y3039631D01*
X-1769396Y3040783D01*
X-1771042Y3041935D01*
X-1772853Y3042923D01*
X-1774992Y3043745D01*
X-1775322Y3043910D01*
X-1775980Y3044075D01*
X-1777461Y3044404D01*
X-1779272Y3044733D01*
X-1781576Y3045062D01*
X-1784374Y3045391D01*
X-1787831Y3045721D01*
D02*
G37*
G36*
X1596451Y4162696D02*
X1570116D01*
Y4075792D01*
X1597109D01*
X1598261Y4075956D01*
X1600730Y4076121D01*
X1603528Y4076285D01*
X1606491Y4076615D01*
X1609454Y4077108D01*
X1611923Y4077767D01*
X1612252Y4077931D01*
X1613075Y4078096D01*
X1614227Y4078590D01*
X1615708Y4079248D01*
X1617354Y4080236D01*
X1619000Y4081223D01*
X1620646Y4082375D01*
X1622292Y4083692D01*
X1622456Y4084021D01*
X1623115Y4084680D01*
X1624102Y4085832D01*
X1625255Y4087478D01*
X1626571Y4089617D01*
X1628053Y4092086D01*
X1629369Y4094884D01*
X1630522Y4098012D01*
Y4098176D01*
X1630686Y4098505D01*
X1630851Y4098999D01*
X1631015Y4099658D01*
X1631180Y4100480D01*
X1631509Y4101633D01*
X1631838Y4102785D01*
X1632167Y4104102D01*
X1632661Y4107393D01*
X1633155Y4111179D01*
X1633484Y4115458D01*
X1633649Y4120067D01*
Y4120232D01*
Y4120890D01*
Y4121713D01*
X1633484Y4123030D01*
Y4124511D01*
X1633320Y4126157D01*
X1633155Y4128132D01*
X1632990Y4130107D01*
X1632167Y4134551D01*
X1631180Y4139160D01*
X1629699Y4143439D01*
X1628711Y4145579D01*
X1627723Y4147389D01*
Y4147554D01*
X1627394Y4147883D01*
X1627065Y4148377D01*
X1626736Y4149035D01*
X1625419Y4150681D01*
X1623773Y4152656D01*
X1621634Y4154796D01*
X1619165Y4156936D01*
X1616367Y4158746D01*
X1613404Y4160227D01*
X1613075Y4160392D01*
X1612252Y4160557D01*
X1610770Y4161050D01*
X1608631Y4161544D01*
X1605997Y4161873D01*
X1602705Y4162367D01*
X1600730Y4162532D01*
X1598591D01*
X1596451Y4162696D01*
D02*
G37*
G36*
X1665333Y3996557D02*
X1664510D01*
X1663851Y3996393D01*
X1662041Y3996228D01*
X1659901Y3995570D01*
X1657432Y3994747D01*
X1654799Y3993265D01*
X1652165Y3991455D01*
X1650849Y3990138D01*
X1649696Y3988821D01*
Y3988657D01*
X1649367Y3988492D01*
X1649203Y3987998D01*
X1648709Y3987340D01*
X1648215Y3986517D01*
X1647721Y3985529D01*
X1647228Y3984377D01*
X1646569Y3983061D01*
X1645911Y3981415D01*
X1645417Y3979604D01*
X1644923Y3977629D01*
X1644430Y3975489D01*
X1644100Y3973185D01*
X1643771Y3970552D01*
X1643442Y3967754D01*
Y3964791D01*
Y3964626D01*
Y3964133D01*
Y3963310D01*
X1643607Y3962157D01*
Y3960841D01*
X1643771Y3959359D01*
X1644265Y3955903D01*
X1645088Y3952117D01*
X1646240Y3948167D01*
X1647886Y3944381D01*
X1648874Y3942736D01*
X1650026Y3941090D01*
X1650190D01*
X1650355Y3940760D01*
X1651178Y3939938D01*
X1652659Y3938621D01*
X1654470Y3937304D01*
X1656774Y3935823D01*
X1659572Y3934506D01*
X1662535Y3933683D01*
X1664181Y3933518D01*
X1665826Y3933354D01*
X1666649D01*
X1667308Y3933518D01*
X1669118Y3933683D01*
X1671258Y3934341D01*
X1673727Y3935164D01*
X1676360Y3936481D01*
X1678994Y3938292D01*
X1680311Y3939444D01*
X1681463Y3940760D01*
Y3940925D01*
X1681792Y3941090D01*
X1682121Y3941583D01*
X1682450Y3942242D01*
X1682944Y3943065D01*
X1683602Y3943888D01*
X1684096Y3945204D01*
X1684755Y3946521D01*
X1685413Y3948003D01*
X1685907Y3949648D01*
X1686565Y3951624D01*
X1687059Y3953599D01*
X1687388Y3955903D01*
X1687717Y3958207D01*
X1688046Y3960841D01*
Y3963639D01*
Y3963803D01*
Y3964462D01*
Y3965285D01*
X1687882Y3966437D01*
Y3967754D01*
X1687717Y3969399D01*
X1687553Y3971210D01*
X1687223Y3973185D01*
X1686400Y3977135D01*
X1685248Y3981250D01*
X1683602Y3985200D01*
X1682615Y3986846D01*
X1681463Y3988492D01*
Y3988657D01*
X1681134Y3988821D01*
X1680311Y3989809D01*
X1678829Y3991126D01*
X1677019Y3992607D01*
X1674714Y3994088D01*
X1671916Y3995240D01*
X1668789Y3996228D01*
X1667143Y3996393D01*
X1665333Y3996557D01*
D02*
G37*
G36*
X1545674Y3965120D02*
X1545510D01*
X1545345Y3964955D01*
X1544851Y3964791D01*
X1544193Y3964626D01*
X1543370Y3964297D01*
X1542382Y3963968D01*
X1541230Y3963639D01*
X1539914Y3963310D01*
X1538432Y3962816D01*
X1536622Y3962487D01*
X1534811Y3961993D01*
X1532672Y3961499D01*
X1530367Y3961005D01*
X1528063Y3960512D01*
X1525430Y3960182D01*
X1522631Y3959689D01*
X1522302D01*
X1521315Y3959524D01*
X1519669Y3959195D01*
X1517858Y3958866D01*
X1515883Y3958536D01*
X1513908Y3958043D01*
X1512098Y3957549D01*
X1510452Y3956890D01*
X1510287D01*
X1509793Y3956561D01*
X1509135Y3956232D01*
X1508477Y3955738D01*
X1506501Y3954422D01*
X1504856Y3952447D01*
Y3952282D01*
X1504526Y3951953D01*
X1504362Y3951294D01*
X1504033Y3950471D01*
X1503703Y3949484D01*
X1503374Y3948496D01*
X1503210Y3947180D01*
X1503045Y3945863D01*
Y3945698D01*
Y3944875D01*
X1503210Y3943888D01*
X1503539Y3942571D01*
X1504033Y3941090D01*
X1504856Y3939608D01*
X1505843Y3937962D01*
X1507160Y3936481D01*
X1507324Y3936316D01*
X1507983Y3935987D01*
X1508970Y3935329D01*
X1510287Y3934671D01*
X1512098Y3934012D01*
X1514237Y3933354D01*
X1516706Y3933025D01*
X1519669Y3932860D01*
X1520986D01*
X1522631Y3933025D01*
X1524442Y3933354D01*
X1526746Y3933683D01*
X1529051Y3934341D01*
X1531519Y3935164D01*
X1533988Y3936316D01*
X1534317Y3936481D01*
X1534976Y3936975D01*
X1536128Y3937798D01*
X1537445Y3938950D01*
X1538926Y3940267D01*
X1540572Y3941913D01*
X1541889Y3943888D01*
X1543205Y3946027D01*
X1543370Y3946192D01*
X1543535Y3946850D01*
X1543864Y3948003D01*
X1544358Y3949484D01*
X1544851Y3951459D01*
X1545181Y3953763D01*
X1545345Y3956561D01*
X1545510Y3959853D01*
X1545674Y3965120D01*
D02*
G37*
G36*
X1341416Y4024044D02*
X1314423D01*
Y3989809D01*
X1342403D01*
X1344543Y3989973D01*
X1346847Y3990138D01*
X1349151Y3990303D01*
X1351456Y3990632D01*
X1353266Y3990961D01*
X1353595Y3991126D01*
X1354254Y3991290D01*
X1355241Y3991784D01*
X1356558Y3992442D01*
X1357875Y3993101D01*
X1359356Y3994088D01*
X1360838Y3995405D01*
X1361990Y3996722D01*
X1362154Y3996886D01*
X1362483Y3997380D01*
X1362977Y3998368D01*
X1363471Y3999520D01*
X1363965Y4000837D01*
X1364459Y4002482D01*
X1364788Y4004458D01*
X1364952Y4006597D01*
Y4006926D01*
Y4007585D01*
X1364788Y4008572D01*
X1364623Y4009889D01*
X1364294Y4011535D01*
X1363800Y4013181D01*
X1363142Y4014827D01*
X1362154Y4016473D01*
X1361990Y4016637D01*
X1361660Y4017131D01*
X1361002Y4017954D01*
X1360179Y4018777D01*
X1359027Y4019765D01*
X1357710Y4020752D01*
X1356064Y4021740D01*
X1354254Y4022398D01*
X1354089D01*
X1353266Y4022727D01*
X1352114Y4022892D01*
X1350304Y4023221D01*
X1347835Y4023550D01*
X1345037Y4023715D01*
X1341416Y4024044D01*
D02*
G37*
G36*
X1344378Y3976312D02*
X1314423D01*
Y3937139D01*
X1346847D01*
X1350304Y3937304D01*
X1351785Y3937469D01*
X1353102Y3937633D01*
X1353266D01*
X1353925Y3937798D01*
X1354912Y3937962D01*
X1356064Y3938292D01*
X1358862Y3939279D01*
X1361660Y3940596D01*
X1361825Y3940760D01*
X1362319Y3941090D01*
X1362977Y3941583D01*
X1363800Y3942242D01*
X1364623Y3943229D01*
X1365775Y3944217D01*
X1366598Y3945534D01*
X1367586Y3947015D01*
X1367750Y3947180D01*
X1367915Y3947673D01*
X1368244Y3948661D01*
X1368738Y3949813D01*
X1369232Y3951130D01*
X1369561Y3952776D01*
X1369725Y3954751D01*
X1369890Y3956726D01*
Y3957055D01*
Y3957713D01*
X1369725Y3959030D01*
X1369396Y3960512D01*
X1369067Y3962157D01*
X1368409Y3963968D01*
X1367586Y3965778D01*
X1366434Y3967589D01*
X1366269Y3967754D01*
X1365775Y3968412D01*
X1365117Y3969235D01*
X1364129Y3970222D01*
X1362813Y3971375D01*
X1361167Y3972527D01*
X1359356Y3973514D01*
X1357216Y3974337D01*
X1356887Y3974502D01*
X1356229Y3974666D01*
X1354748Y3974996D01*
X1352937Y3975325D01*
X1350633Y3975654D01*
X1347835Y3975983D01*
X1344378Y3976312D01*
D02*
G37*
G36*
X1437702Y3996557D02*
X1436714D01*
X1435891Y3996393D01*
X1434081Y3996228D01*
X1431612Y3995570D01*
X1428814Y3994582D01*
X1425851Y3993265D01*
X1423053Y3991290D01*
X1421572Y3989973D01*
X1420255Y3988657D01*
Y3988492D01*
X1419926Y3988328D01*
X1419597Y3987834D01*
X1419103Y3987175D01*
X1418609Y3986352D01*
X1418116Y3985365D01*
X1417457Y3984048D01*
X1416799Y3982731D01*
X1416140Y3981086D01*
X1415482Y3979440D01*
X1414988Y3977464D01*
X1414495Y3975325D01*
X1414001Y3973021D01*
X1413672Y3970552D01*
X1413507Y3967754D01*
X1413342Y3964955D01*
Y3964791D01*
Y3964297D01*
Y3963474D01*
X1413507Y3962322D01*
Y3961005D01*
X1413672Y3959524D01*
X1414165Y3956068D01*
X1414988Y3952117D01*
X1416305Y3948167D01*
X1417951Y3944381D01*
X1419103Y3942736D01*
X1420255Y3941090D01*
X1420420D01*
X1420584Y3940760D01*
X1421572Y3939938D01*
X1423053Y3938621D01*
X1425028Y3937304D01*
X1427497Y3935823D01*
X1430460Y3934506D01*
X1433916Y3933683D01*
X1435727Y3933518D01*
X1437702Y3933354D01*
X1438690D01*
X1439512Y3933518D01*
X1441323Y3933848D01*
X1443792Y3934341D01*
X1446425Y3935329D01*
X1449388Y3936646D01*
X1452186Y3938621D01*
X1453667Y3939938D01*
X1454984Y3941254D01*
X1455149Y3941419D01*
X1455313Y3941583D01*
X1455643Y3942077D01*
X1456136Y3942736D01*
X1456630Y3943559D01*
X1457288Y3944546D01*
X1457947Y3945863D01*
X1458605Y3947180D01*
X1459264Y3948825D01*
X1459757Y3950636D01*
X1460416Y3952611D01*
X1460909Y3954751D01*
X1461403Y3957220D01*
X1461732Y3959689D01*
X1462062Y3962487D01*
Y3965449D01*
Y3965614D01*
Y3966108D01*
Y3966931D01*
X1461897Y3967918D01*
Y3969235D01*
X1461732Y3970716D01*
X1461239Y3974173D01*
X1460416Y3977794D01*
X1459099Y3981744D01*
X1457288Y3985365D01*
X1456301Y3987175D01*
X1454984Y3988657D01*
Y3988821D01*
X1454655Y3988986D01*
X1453667Y3989973D01*
X1452186Y3991126D01*
X1450211Y3992607D01*
X1447742Y3994088D01*
X1444779Y3995405D01*
X1441488Y3996228D01*
X1439677Y3996393D01*
X1437702Y3996557D01*
D02*
G37*
G36*
X1069725Y5054549D02*
X1033844Y5003525D01*
X1069725D01*
Y5054549D01*
D02*
G37*
G36*
X921675Y4923139D02*
X894682D01*
Y4888904D01*
X922662D01*
X924802Y4889068D01*
X927106Y4889233D01*
X929411Y4889397D01*
X931715Y4889727D01*
X933525Y4890056D01*
X933855Y4890220D01*
X934513Y4890385D01*
X935501Y4890879D01*
X936817Y4891537D01*
X938134Y4892195D01*
X939615Y4893183D01*
X941097Y4894500D01*
X942249Y4895816D01*
X942413Y4895981D01*
X942743Y4896475D01*
X943236Y4897462D01*
X943730Y4898615D01*
X944224Y4899931D01*
X944718Y4901577D01*
X945047Y4903552D01*
X945211Y4905692D01*
Y4906021D01*
Y4906680D01*
X945047Y4907667D01*
X944882Y4908984D01*
X944553Y4910630D01*
X944059Y4912276D01*
X943401Y4913922D01*
X942413Y4915568D01*
X942249Y4915732D01*
X941920Y4916226D01*
X941261Y4917049D01*
X940438Y4917872D01*
X939286Y4918859D01*
X937969Y4919847D01*
X936324Y4920834D01*
X934513Y4921493D01*
X934348D01*
X933525Y4921822D01*
X932373Y4921987D01*
X930563Y4922316D01*
X928094Y4922645D01*
X925296Y4922810D01*
X921675Y4923139D01*
D02*
G37*
G36*
X924637Y4875407D02*
X894682D01*
Y4836234D01*
X927106D01*
X930563Y4836399D01*
X932044Y4836563D01*
X933361Y4836728D01*
X933525D01*
X934184Y4836893D01*
X935171Y4837057D01*
X936324Y4837386D01*
X939122Y4838374D01*
X941920Y4839691D01*
X942084Y4839855D01*
X942578Y4840184D01*
X943236Y4840678D01*
X944059Y4841337D01*
X944882Y4842324D01*
X946034Y4843312D01*
X946857Y4844628D01*
X947845Y4846110D01*
X948010Y4846274D01*
X948174Y4846768D01*
X948503Y4847756D01*
X948997Y4848908D01*
X949491Y4850224D01*
X949820Y4851870D01*
X949985Y4853846D01*
X950149Y4855821D01*
Y4856150D01*
Y4856808D01*
X949985Y4858125D01*
X949655Y4859606D01*
X949326Y4861252D01*
X948668Y4863063D01*
X947845Y4864873D01*
X946693Y4866684D01*
X946528Y4866848D01*
X946034Y4867507D01*
X945376Y4868330D01*
X944389Y4869317D01*
X943072Y4870469D01*
X941426Y4871621D01*
X939615Y4872609D01*
X937476Y4873432D01*
X937146Y4873597D01*
X936488Y4873761D01*
X935007Y4874090D01*
X933196Y4874420D01*
X930892Y4874749D01*
X928094Y4875078D01*
X924637Y4875407D01*
D02*
G37*
G36*
X2053081Y3685960D02*
X2017200Y3634936D01*
X2053081D01*
Y3685960D01*
D02*
G37*
G36*
X-1952669Y844275D02*
X-1988551D01*
Y806584D01*
X-1954645D01*
X-1952669Y806748D01*
X-1950365Y806913D01*
X-1947732Y807077D01*
X-1945098Y807407D01*
X-1942465Y807900D01*
X-1940160Y808559D01*
X-1939831Y808723D01*
X-1939173Y809052D01*
X-1938185Y809546D01*
X-1936869Y810205D01*
X-1935387Y811192D01*
X-1933906Y812344D01*
X-1932425Y813826D01*
X-1931272Y815472D01*
X-1931108Y815636D01*
X-1930779Y816295D01*
X-1930285Y817282D01*
X-1929627Y818599D01*
X-1929133Y820080D01*
X-1928639Y821726D01*
X-1928310Y823701D01*
X-1928145Y825676D01*
Y825841D01*
Y826005D01*
X-1928310Y826993D01*
X-1928474Y828474D01*
X-1928804Y830449D01*
X-1929627Y832425D01*
X-1930614Y834729D01*
X-1932095Y836869D01*
X-1934071Y839008D01*
X-1934400Y839173D01*
X-1935223Y839831D01*
X-1936539Y840654D01*
X-1938679Y841642D01*
X-1941148Y842629D01*
X-1944440Y843452D01*
X-1948225Y844111D01*
X-1952669Y844275D01*
D02*
G37*
G36*
X-1244916Y-5614957D02*
X-1245080D01*
X-1245903D01*
X-1246891Y-5615122D01*
X-1248208Y-5615451D01*
X-1249689Y-5615945D01*
X-1251170Y-5616768D01*
X-1252816Y-5617755D01*
X-1254297Y-5619072D01*
X-1254462Y-5619237D01*
X-1254791Y-5619895D01*
X-1255450Y-5620883D01*
X-1256108Y-5622199D01*
X-1256766Y-5624010D01*
X-1257425Y-5626150D01*
X-1257754Y-5628618D01*
X-1257918Y-5631581D01*
Y-5632898D01*
X-1257754Y-5634544D01*
X-1257425Y-5636354D01*
X-1257096Y-5638659D01*
X-1256437Y-5640963D01*
X-1255614Y-5643432D01*
X-1254462Y-5645901D01*
X-1254297Y-5646230D01*
X-1253804Y-5646888D01*
X-1252981Y-5648040D01*
X-1251829Y-5649357D01*
X-1250512Y-5650838D01*
X-1248866Y-5652484D01*
X-1246891Y-5653801D01*
X-1244751Y-5655118D01*
X-1244587Y-5655282D01*
X-1243928Y-5655447D01*
X-1242776Y-5655776D01*
X-1241295Y-5656270D01*
X-1239320Y-5656764D01*
X-1237015Y-5657093D01*
X-1234217Y-5657257D01*
X-1230925Y-5657422D01*
X-1225658Y-5657587D01*
Y-5657422D01*
X-1225823Y-5657257D01*
X-1225988Y-5656764D01*
X-1226152Y-5656105D01*
X-1226481Y-5655282D01*
X-1226811Y-5654295D01*
X-1227140Y-5653143D01*
X-1227469Y-5651826D01*
X-1227963Y-5650345D01*
X-1228292Y-5648534D01*
X-1228786Y-5646724D01*
X-1229279Y-5644584D01*
X-1229773Y-5642280D01*
X-1230267Y-5639975D01*
X-1230596Y-5637342D01*
X-1231090Y-5634544D01*
Y-5634215D01*
X-1231255Y-5633227D01*
X-1231584Y-5631581D01*
X-1231913Y-5629771D01*
X-1232242Y-5627795D01*
X-1232736Y-5625820D01*
X-1233230Y-5624010D01*
X-1233888Y-5622364D01*
Y-5622199D01*
X-1234217Y-5621706D01*
X-1234546Y-5621047D01*
X-1235040Y-5620389D01*
X-1236357Y-5618414D01*
X-1238332Y-5616768D01*
X-1238497D01*
X-1238826Y-5616439D01*
X-1239484Y-5616274D01*
X-1240307Y-5615945D01*
X-1241295Y-5615616D01*
X-1242282Y-5615286D01*
X-1243599Y-5615122D01*
X-1244916Y-5614957D01*
D02*
G37*
G36*
X-1223354Y-5705977D02*
X-1226317D01*
X-1226481D01*
X-1226975D01*
X-1227798D01*
X-1228950Y-5706141D01*
X-1230267D01*
X-1231748Y-5706306D01*
X-1235205Y-5706800D01*
X-1239155Y-5707623D01*
X-1242941Y-5708610D01*
X-1246726Y-5710256D01*
X-1248372Y-5711244D01*
X-1249853Y-5712396D01*
X-1250183Y-5712725D01*
X-1251006Y-5713548D01*
X-1252322Y-5714865D01*
X-1253639Y-5716675D01*
X-1254956Y-5718979D01*
X-1256273Y-5721613D01*
X-1257096Y-5724576D01*
X-1257260Y-5726221D01*
X-1257425Y-5727867D01*
Y-5728855D01*
X-1257260Y-5729513D01*
X-1256931Y-5731159D01*
X-1256437Y-5733464D01*
X-1255450Y-5735932D01*
X-1254133Y-5738566D01*
X-1252158Y-5741199D01*
X-1251006Y-5742516D01*
X-1249689Y-5743833D01*
X-1249524D01*
X-1249360Y-5744162D01*
X-1248866Y-5744491D01*
X-1248208Y-5744820D01*
X-1247385Y-5745479D01*
X-1246232Y-5745973D01*
X-1245080Y-5746631D01*
X-1243599Y-5747289D01*
X-1242118Y-5747783D01*
X-1240143Y-5748441D01*
X-1238167Y-5749100D01*
X-1236028Y-5749594D01*
X-1233559Y-5749923D01*
X-1230925Y-5750252D01*
X-1228127Y-5750581D01*
X-1225165D01*
X-1225000D01*
X-1224506D01*
X-1223683D01*
X-1222531Y-5750416D01*
X-1221214D01*
X-1219733Y-5750252D01*
X-1216277Y-5749758D01*
X-1212491Y-5748935D01*
X-1208705Y-5747783D01*
X-1204920Y-5746137D01*
X-1203109Y-5745150D01*
X-1201628Y-5743997D01*
X-1201463D01*
X-1201299Y-5743668D01*
X-1200311Y-5742845D01*
X-1199159Y-5741529D01*
X-1197678Y-5739718D01*
X-1196196Y-5737414D01*
X-1194880Y-5734780D01*
X-1194057Y-5731818D01*
X-1193892Y-5730172D01*
X-1193728Y-5728526D01*
Y-5727703D01*
X-1193892Y-5727044D01*
X-1194221Y-5725399D01*
X-1194715Y-5723259D01*
X-1195703Y-5720790D01*
X-1197184Y-5718156D01*
X-1198172Y-5716675D01*
X-1199324Y-5715358D01*
X-1200640Y-5714042D01*
X-1202122Y-5712725D01*
X-1202286D01*
X-1202451Y-5712396D01*
X-1202945Y-5712067D01*
X-1203603Y-5711737D01*
X-1204591Y-5711244D01*
X-1205578Y-5710585D01*
X-1206895Y-5709927D01*
X-1208212Y-5709433D01*
X-1209858Y-5708775D01*
X-1211668Y-5708116D01*
X-1213643Y-5707623D01*
X-1215783Y-5706964D01*
X-1218252Y-5706635D01*
X-1220721Y-5706306D01*
X-1223354Y-5705977D01*
D02*
G37*
%LPD*%
D115*
X-820000Y-5890000D02*
Y-5790000D01*
Y-5890000D02*
X-600000D01*
X-0D01*
X260000D01*
Y-5555000D01*
Y-5265000D02*
Y-4690000D01*
X-820000D02*
X260000D01*
X-600000Y-6190000D02*
Y-5890000D01*
Y-6190000D02*
X-0D01*
Y-5890000D01*
X-820000Y-5500000D02*
Y-4960000D01*
X-2414987Y1186853D02*
Y2830853D01*
X-2110000Y2830854D01*
X-2414987Y1186853D02*
X-2110000Y1186853D01*
X-1790000Y1186854D02*
X-1210000Y1186853D01*
X-1790000Y2830853D02*
X-1210000Y2830854D01*
X-829987Y1716501D02*
X-829987Y1186854D01*
X-829988Y2830853D02*
X-829987Y2764761D01*
X-897077Y2830854D02*
X-829988Y2830853D01*
X-897078Y1186853D02*
X-829987Y1186854D01*
D117*
X1853571Y-2293785D02*
G03*
X1853571Y-1206215I-253571J543785D01*
G01*
X1346429D02*
G03*
X1346429Y-2293785I253571J-543785D01*
G01*
X84466Y975000D02*
G03*
X84466Y975000I-9466J0D01*
G01*
X599466Y770000D02*
G03*
X599466Y770000I-9466J0D01*
G01*
D118*
X795349Y-4547097D02*
G03*
X795349Y-4547097I-8035J0D01*
G01*
X-150000Y3700000D02*
G03*
X-250000Y3700000I-50000J0D01*
G01*
X-289916Y2636292D02*
G03*
X-289916Y2636292I-10000J0D01*
G01*
X1263246Y5350000D02*
G03*
X1263246Y5350000I-63245J0D01*
G01*
X538201Y4626000D02*
G03*
X538201Y4626000I-5000J0D01*
G01*
X1302378Y-4811706D02*
G03*
X1302378Y-4811706I-10000J0D01*
G01*
X795349Y-4897097D02*
G03*
X795349Y-4897097I-8035J0D01*
G01*
X-1437500Y125000D02*
G03*
X-1437500Y125000I-10000J0D01*
G01*
X1060503Y268701D02*
G03*
X1060503Y268701I-10000J0D01*
G01*
X2000000Y3500000D02*
X2050000Y3400000D01*
X2000000Y2300000D02*
Y3500000D01*
X1950000Y3400000D02*
X2000000Y3500000D01*
X1950000Y3400000D02*
X2050000D01*
X1837500Y1940000D02*
Y3860000D01*
X1147500Y1940000D02*
X1837500D01*
X1147500D02*
Y2280000D01*
Y3860000D02*
X1837500D01*
X1147500Y3520001D02*
Y3860000D01*
X800000Y2016000D02*
X880000D01*
X800000D02*
Y2146000D01*
X1020000Y2016000D02*
X1100000D01*
Y2146000D01*
X-457000Y3700000D02*
Y4198132D01*
X-455132Y4200000D01*
X57000D01*
X-457000Y3700000D02*
X-250000D01*
X-150000D02*
X57000D01*
Y4200000D01*
X-2235000Y3089999D02*
X-2235000Y3010000D01*
X269999Y2360000D02*
X270000Y2540000D01*
X430000Y2360000D02*
X430001Y2540000D01*
X-240000Y3290001D02*
X-100000Y3290000D01*
X-260000Y3270000D02*
X-240000Y3290001D01*
X-350000Y3270000D02*
X-260000D01*
X-100000Y2810000D02*
X39999Y2809999D01*
X60000Y2830000D01*
X150000D01*
X-100000Y3290000D02*
X40000D01*
X60000Y3270000D01*
X150000Y3270000D01*
X-240000Y2810000D02*
X-100000D01*
X-260000Y2830000D02*
X-240000Y2810000D01*
X-350000Y2830000D02*
X-260000Y2830000D01*
X52500Y2297500D02*
Y2363095D01*
X33827Y2297500D02*
X52500D01*
Y2536905D02*
Y2602500D01*
X33827D02*
X52500D01*
X-252500Y2536905D02*
Y2602500D01*
X-233828D01*
X-252500Y2297500D02*
Y2363095D01*
Y2297500D02*
X-233828D01*
X2087507Y-2910000D02*
X2115000Y-2910000D01*
X2055000Y-2909999D02*
X2087507Y-2910000D01*
X2055000Y-2989999D02*
Y-2909999D01*
Y-2989999D02*
X2114999D01*
X1450000Y-2896000D02*
Y-2766000D01*
X1530000Y-2766000D01*
X1750000Y-2766000D02*
X1750000Y-2896000D01*
X1670000Y-2766000D02*
X1750000Y-2766000D01*
X1354994Y5500005D02*
X1354994Y5200001D01*
X1335000Y5500005D02*
X1354994Y5500005D01*
X1335000Y5200000D02*
X1354994Y5200001D01*
X1044993D02*
Y5275000D01*
Y5200001D02*
X1065000Y5200000D01*
X1044992Y5425001D02*
X1044993Y5499999D01*
X1065000D01*
X250001Y4655000D02*
X510000Y4655000D01*
X510001Y4975000D01*
X250000Y4975000D02*
X510001Y4975000D01*
X250000Y4975000D02*
X250001Y4655000D01*
X945000Y-5690500D02*
X945000Y-5309500D01*
X855000Y-5690500D02*
X945000D01*
X855000Y-5309499D02*
X945000Y-5309500D01*
X855000Y-5690500D02*
Y-5309499D01*
X920000Y-4780000D02*
Y-4730000D01*
Y-4780000D02*
X970000D01*
X920000Y-4450000D02*
X970000D01*
X920000Y-4500000D02*
Y-4450000D01*
X1250000Y-4500000D02*
Y-4450000D01*
X1200000D02*
X1250000D01*
X1200000Y-4780000D02*
X1250000D01*
Y-4730000D01*
X-1480000Y-4000001D02*
Y-3900001D01*
X-1720000Y-4000000D02*
X-1480000Y-4000001D01*
X-1720000Y-3900001D02*
X-1480000D01*
X-1720000Y-4000000D02*
Y-3900001D01*
X-40000Y-1980000D02*
X50000D01*
X-60000Y-1960000D02*
X-40000Y-1980000D01*
X-200000Y-1960000D02*
X-60000D01*
X-450000Y-2420000D02*
X-360000Y-2420000D01*
X-340000Y-2440000D01*
X-200000D01*
X-450000Y-1980000D02*
X-360000D01*
X-340000Y-1960000D01*
X-200000D01*
X-40000Y-2420000D02*
X50000D01*
X-60000Y-2440000D02*
X-40000Y-2420000D01*
X-200000Y-2440000D02*
X-60000D01*
X-365000Y-2620000D02*
Y-2567500D01*
X-282500Y-2485001D01*
X-365000Y-2932500D02*
X-282500Y-3015000D01*
X-365000Y-2932500D02*
Y-2880000D01*
X-282500Y-2485001D02*
X165000Y-2485000D01*
Y-2620000D02*
Y-2485000D01*
Y-3015000D02*
Y-2880000D01*
X-282500Y-3015000D02*
X165000D01*
X-2165000Y-3015000D02*
Y-2567500D01*
Y-3015000D02*
X-2030000Y-3015000D01*
X-1770000Y-3015000D02*
X-1635000D01*
X-1635001Y-2567500D02*
X-1635000Y-3015000D01*
X-2082500Y-2485000D02*
X-2030000D01*
X-2165000Y-2567500D02*
X-2082500Y-2485000D01*
X-1717500D02*
X-1635001Y-2567500D01*
X-1770001Y-2485000D02*
X-1717500Y-2485000D01*
X-1184982Y-930000D02*
X-914986D01*
Y-1170000D02*
Y-930000D01*
X-1184982Y-1170000D02*
Y-930000D01*
X-760000Y-2000000D02*
Y-1860000D01*
X-780000Y-1840000D02*
X-760000Y-1860000D01*
X-780000Y-1840000D02*
Y-1750000D01*
X-1240000Y-2140000D02*
Y-2000000D01*
Y-2140000D02*
X-1220000Y-2160000D01*
Y-2250000D02*
Y-2160000D01*
X-760000Y-2140000D02*
Y-2000000D01*
X-780000Y-2160000D02*
X-760000Y-2140000D01*
X-780000Y-2160000D02*
X-780000Y-2250000D01*
X-1240000Y-2000000D02*
Y-1860000D01*
X-1220000Y-1840000D01*
Y-1750000D01*
X150000Y750000D02*
Y1050000D01*
X-350000D02*
X150000D01*
X-350000D02*
X-350000Y750000D01*
X150000Y750000D01*
X1679999Y1165000D02*
X1732499Y1165000D01*
X1814999Y1082500D01*
X1284999D02*
X1367499Y1164999D01*
X1420000D01*
X1814999Y1082500D02*
X1814999Y635000D01*
X1679999D02*
X1814999D01*
X1284999Y635000D02*
X1419999D01*
X1284999D02*
X1284999Y1082500D01*
X532500Y1090000D02*
X1167500Y1090000D01*
Y710000D02*
Y1090000D01*
X532500Y1090000D02*
X532500Y710000D01*
X1167500Y710000D01*
X-1450000Y-2120000D02*
Y-1890000D01*
X-1750000Y-2120000D02*
Y-1890000D01*
X-1450000D01*
X-1750000Y-2120000D02*
X-1450000D01*
X-2202000Y-447000D02*
X-2081000D01*
X-2202000Y447000D02*
X-2081000D01*
X-2623000Y-447000D02*
X-2474000D01*
X-2623000D02*
Y447000D01*
X-2474000D01*
X1288443Y27225D02*
X1315668Y0D01*
X1288443Y-27225D02*
X1315668Y0D01*
X1072775Y188443D02*
X1100000Y215668D01*
X1127225Y188443D01*
X884332Y0D02*
X911558Y-27225D01*
X884332Y0D02*
X911557Y27225D01*
X1100001Y-215668D02*
X1127225Y-188443D01*
X1072775Y-188442D02*
X1100001Y-215668D01*
X-2235000Y3310000D02*
Y3390000D01*
X-2265000Y760000D02*
Y840000D01*
Y990000D02*
X-2265000Y910000D01*
X-2235000Y3160000D02*
X-2235000Y3240000D01*
X-2265000Y-3690000D02*
Y-3610000D01*
X-710000Y-4520000D02*
X-590000D01*
X-710000Y-4280000D02*
X-590000D01*
X-10000D02*
X110000D01*
X-10000Y-4520000D02*
X110000D01*
X462500Y870000D02*
X462512Y930000D01*
X337488Y870000D02*
X337500Y930000D01*
X-1534982Y-1170000D02*
Y-930000D01*
X-1264986Y-1170000D02*
Y-930000D01*
X-1534982D02*
X-1264986D01*
X-1420000Y-2415018D02*
X-1180000D01*
X-1420000Y-2685014D02*
X-1180000D01*
Y-2415018D01*
D134*
X113921Y3650000D02*
G03*
X113921Y3650000I-6921J0D01*
G01*
X2152895Y-3018230D02*
G03*
X2152895Y-3018230I-1741J0D01*
G01*
X-1759804Y-4035850D02*
G03*
X-1759804Y-4035850I-4666J0D01*
G01*
X-1222343Y-1218737D02*
G03*
X-1222343Y-1218737I-7733J0D01*
G01*
X209466Y1100000D02*
G03*
X209466Y1100000I-9466J0D01*
G01*
X499466Y670000D02*
G03*
X499466Y670000I-9466J0D01*
G01*
X-1418811Y-1843504D02*
G03*
X-1418811Y-1843504I-4831J0D01*
G01*
X-1572343Y-1218737D02*
G03*
X-1572343Y-1218737I-7733J0D01*
G01*
X-1461004Y-2369924D02*
G03*
X-1461004Y-2369924I-7733J0D01*
G01*
D135*
X-170000Y5090000D02*
G03*
X-170000Y5090000I-10000J0D01*
G01*
X1939388Y-3049999D02*
G03*
X1939388Y-3049999I-9388J0D01*
G01*
X1063680Y-3322736D02*
G03*
X1063680Y-3322736I-7261J0D01*
G01*
D136*
X717048Y-5280983D02*
G03*
X717048Y-5280983I-12048J0D01*
G01*
D137*
X2157620Y-3455500D02*
G03*
X2157620Y-3455500I-7620J0D01*
G01*
X-42380Y-1494500D02*
G03*
X-42380Y-1494500I-7620J0D01*
G01*
X-216781Y5053220D02*
X-216780Y4993434D01*
X-943220D02*
Y5053220D01*
Y4326780D02*
X-883434D01*
X-216780D02*
Y4386566D01*
X-276566Y5053220D02*
X-216781D01*
X-943220D02*
X-883434D01*
X-943220Y4326780D02*
Y4386566D01*
X-276566Y4326780D02*
X-216780D01*
X2137440Y-3087440D02*
X2170537D01*
X2137440Y-3412560D02*
X2170537Y-3412560D01*
X2429463D02*
X2462560D01*
X2429463Y-3087440D02*
X2462560D01*
X2137440D02*
X2137440Y-3412560D01*
X2462560Y-3412560D02*
Y-3087440D01*
X-70537Y-1862560D02*
X-37440D01*
X-70537Y-1537440D02*
X-37440D01*
X-362560D02*
X-329463D01*
X-362560Y-1862560D02*
X-329463D01*
X-37440D02*
Y-1537440D01*
X-362560Y-1862560D02*
Y-1537440D01*
X1607760Y-3162538D02*
Y-3082360D01*
X1607760Y-3417640D02*
X1638103D01*
X1892240Y-3417640D02*
Y-3337462D01*
X1861897Y-3082360D02*
X1892240Y-3082360D01*
X1607760Y-3082360D02*
X1638103D01*
X1607760Y-3337462D02*
X1607760Y-3417640D01*
X1861897D02*
X1892240Y-3417640D01*
X1892240Y-3162538D02*
X1892240Y-3082360D01*
D138*
X-1492150Y-1937960D02*
G03*
X-1492150Y-1937960I-4831J0D01*
G01*
D139*
X647500Y-4515000D02*
X722500D01*
Y-4315000D01*
X647500D02*
X722500D01*
X647500Y-4515000D02*
Y-4315000D01*
Y-4865000D02*
Y-4665000D01*
X722500D01*
Y-4865000D02*
Y-4665000D01*
X647500Y-4865000D02*
X722500D01*
X2390000Y-3750000D02*
Y-3550000D01*
X2110000Y-3750000D02*
X2390000Y-3750000D01*
X2110000Y-3550000D02*
X2390000D01*
X2110000D02*
X2110000Y-3750000D01*
X1086419Y-3192736D02*
X1186419D01*
X1086418Y-3292736D02*
X1086419Y-3192736D01*
X1086418Y-3292736D02*
X1186419Y-3292736D01*
X1186419Y-3192736D01*
D140*
X-1350000Y170500D02*
Y200000D01*
Y-200000D02*
Y-170500D01*
X-950000Y170500D02*
Y200000D01*
Y-200000D02*
Y-170500D01*
X-1350000Y200000D02*
X-1320500D01*
X-1350000Y-200000D02*
X-1320500D01*
X-979500Y200000D02*
X-950000D01*
X-979500Y-200000D02*
X-950000D01*
D141*
X1758274Y2900001D02*
D03*
D142*
X2105003Y-2949999D02*
D03*
D143*
X-2329594Y2008841D02*
D03*
D144*
X122495Y-2947496D02*
D03*
X122504Y-2552505D02*
D03*
D145*
X-1702517Y-2972480D02*
D03*
X-2097515Y-2972490D02*
D03*
X1352502Y677499D02*
D03*
X1747504Y677502D02*
D03*
D146*
X-1049984Y-1125639D02*
D03*
X-1399984Y-1125629D02*
D03*
D147*
X-1375628Y-2550018D02*
D03*
%TF.MD5,4d1c575249b812deb64cce46d8eebcb1*%
M02*
