%TF.GenerationSoftware,Altium Limited,Altium Designer,22.5.1 (42)*%
G04 Layer_Color=0*
%FSLAX45Y45*%
%MOMM*%
%TF.SameCoordinates,B0F14D10-A82B-43C6-BF60-515EF57ECD05*%
%TF.FilePolarity,Positive*%
%TF.FileFunction,Plated,1,4,PTH,Drill*%
%TF.Part,Single*%
G01*
G75*
%TA.AperFunction,ComponentDrill*%
%ADD215C,0.63500*%
%ADD216C,1.80000*%
%ADD217O,1.30000X0.80000*%
%ADD218O,0.80000X1.30000*%
%TA.AperFunction,OtherDrill,Pad Free-0 (-21mm,-45mm)*%
%ADD219C,3.50000*%
%TA.AperFunction,OtherDrill,Pad Free-0 (23mm,-45mm)*%
%ADD220C,3.50000*%
%TA.AperFunction,OtherDrill,Pad Free-0 (23mm,45mm)*%
%ADD221C,3.50000*%
%TA.AperFunction,OtherDrill,Pad Free-0 (-21mm,45mm)*%
%ADD222C,3.50000*%
%TA.AperFunction,ViaDrill,NotFilled*%
%ADD223C,0.40000*%
%ADD224C,0.20000*%
D215*
X2209000Y381000D02*
D03*
Y127000D02*
D03*
Y-127000D02*
D03*
Y-381000D02*
D03*
X1955000D02*
D03*
Y-127000D02*
D03*
Y127000D02*
D03*
Y381000D02*
D03*
D216*
X1600000Y-1090000D02*
D03*
Y-2410000D02*
D03*
D217*
X-230000Y-4820000D02*
D03*
D218*
X60000Y-5150000D02*
D03*
X-460000Y-4840000D02*
D03*
X150000Y-5650000D02*
D03*
X-610000Y-5040000D02*
D03*
X-750000Y-4840000D02*
D03*
X-810000Y-5650000D02*
D03*
X250000Y-5400000D02*
D03*
D219*
X-2100000Y-4500000D02*
D03*
D220*
X2300000D02*
D03*
D221*
Y4500000D02*
D03*
D222*
X-2100000D02*
D03*
D223*
X-400000Y-4400000D02*
D03*
X-200000D02*
D03*
X1291155Y3164299D02*
D03*
X1291156Y3264299D02*
D03*
X1350000Y3325000D02*
D03*
X1425000Y3350000D02*
D03*
X1025000Y2725000D02*
D03*
X950000Y2100000D02*
D03*
X-1100000Y5050000D02*
D03*
X650000Y-3500000D02*
D03*
Y-3700000D02*
D03*
Y-3900000D02*
D03*
X850000D02*
D03*
X-1850000Y-3650000D02*
D03*
X-1600000Y-4700000D02*
D03*
X-1500000D02*
D03*
X-1400000D02*
D03*
X-1300000D02*
D03*
X-1200000D02*
D03*
X-1700000D02*
D03*
X-1600000Y-4600000D02*
D03*
X-1500000D02*
D03*
X-1400000D02*
D03*
X-1300000D02*
D03*
X-1200000D02*
D03*
X-1700000D02*
D03*
X-1100000Y-3750001D02*
D03*
X-1000000D02*
D03*
X-900000D02*
D03*
Y-3550001D02*
D03*
Y-3650001D02*
D03*
X-1000000Y-3550001D02*
D03*
Y-3650001D02*
D03*
X-1100000Y-3550001D02*
D03*
Y-3650001D02*
D03*
X-2100000Y-3650000D02*
D03*
X934909Y-4380448D02*
D03*
X1250000Y-3900000D02*
D03*
X1450000D02*
D03*
X549987Y-5800003D02*
D03*
X349985Y-5800004D02*
D03*
X949992Y-5800001D02*
D03*
X749989Y-5800002D02*
D03*
X1349997Y-5799999D02*
D03*
X1149994Y-5800000D02*
D03*
X1549995Y-4199988D02*
D03*
X1549994Y-3999986D02*
D03*
X1549997Y-4599993D02*
D03*
X1549996Y-4399990D02*
D03*
X1549999Y-4999998D02*
D03*
X1549998Y-4799995D02*
D03*
X1549997Y-5399993D02*
D03*
X1549996Y-5199990D02*
D03*
X1549999Y-5799998D02*
D03*
X1549998Y-5599995D02*
D03*
X-1050008Y-4199981D02*
D03*
X-1050009Y-3999979D02*
D03*
X-1050006Y-4599986D02*
D03*
X-1050007Y-4399984D02*
D03*
X-1050004Y-4999991D02*
D03*
X-1050005Y-4799988D02*
D03*
X-1050002Y-5399995D02*
D03*
X-1050003Y-5199993D02*
D03*
X-1050000Y-5800000D02*
D03*
X-1050001Y-5599998D02*
D03*
X500000Y1800000D02*
D03*
X-1700000Y-3550001D02*
D03*
X-1700000Y-4400001D02*
D03*
Y-4500001D02*
D03*
X-1500000Y-3550001D02*
D03*
X709274Y-4271181D02*
D03*
X924133Y-4473648D02*
D03*
X450000Y-5375000D02*
D03*
X485000Y-4480000D02*
D03*
X-300000Y-4400000D02*
D03*
X684615Y-4829873D02*
D03*
X550000Y-5124339D02*
D03*
X-200000Y-4575000D02*
D03*
X-300000D02*
D03*
X1024096Y2862064D02*
D03*
Y2946416D02*
D03*
X1172197Y-4862877D02*
D03*
X650000Y4250000D02*
D03*
X-76863Y3330960D02*
D03*
X250000Y3500000D02*
D03*
X400000Y3500004D02*
D03*
X-300000Y1850000D02*
D03*
X-200000Y1875000D02*
D03*
X250000Y2050000D02*
D03*
Y2150000D02*
D03*
X350000Y2050000D02*
D03*
X450000Y2150000D02*
D03*
X350000D02*
D03*
X-200000Y2000000D02*
D03*
X-300000D02*
D03*
X-400000D02*
D03*
X-150000Y2200000D02*
D03*
X-1100000Y5300000D02*
D03*
X-736212Y2050000D02*
D03*
X2100000D02*
D03*
X-436708Y1846844D02*
D03*
X-900000Y5300000D02*
D03*
X-1249976Y5474990D02*
D03*
X-1150001Y5574998D02*
D03*
X-949998Y5575000D02*
D03*
X-749995Y5575001D02*
D03*
X-550013Y5574992D02*
D03*
X-350010Y5574994D02*
D03*
X-150007Y5574996D02*
D03*
X49997Y5574998D02*
D03*
X450004Y5575002D02*
D03*
X-470000Y4580000D02*
D03*
X-580000D02*
D03*
X-690000D02*
D03*
Y4690000D02*
D03*
Y4800000D02*
D03*
X-470000Y4690000D02*
D03*
Y4800000D02*
D03*
X-580000Y4690000D02*
D03*
X-1091971Y4959529D02*
D03*
X-1200000Y4100000D02*
D03*
X-1300000D02*
D03*
X-950021Y3499991D02*
D03*
X50000Y4550000D02*
D03*
X-1249994Y4399986D02*
D03*
X-1249993Y4199983D02*
D03*
X-1249992Y3999981D02*
D03*
X-1249998Y5199995D02*
D03*
X-1249997Y4999993D02*
D03*
X-1080760Y4866847D02*
D03*
X-1249996Y4799990D02*
D03*
X-1249995Y4599988D02*
D03*
X-1150000Y5150000D02*
D03*
X-1249990Y3599976D02*
D03*
X-1150024Y3499990D02*
D03*
X-1249991Y3799978D02*
D03*
X250000Y5575000D02*
D03*
X650024Y5575010D02*
D03*
X750000Y5475000D02*
D03*
X-450000Y5350000D02*
D03*
X-149995Y3500002D02*
D03*
X-349997Y3500001D02*
D03*
X-550016Y3499993D02*
D03*
X-750019Y3499992D02*
D03*
X749999Y5200002D02*
D03*
X170010Y5139997D02*
D03*
X749999Y5000002D02*
D03*
Y4800002D02*
D03*
Y4600002D02*
D03*
Y4400002D02*
D03*
Y4200002D02*
D03*
X650000Y4050000D02*
D03*
X749999Y4000002D02*
D03*
Y3800002D02*
D03*
X750000Y3600000D02*
D03*
X650015Y3500006D02*
D03*
X50008Y3500003D02*
D03*
X-580000Y4800000D02*
D03*
X-540Y-1700000D02*
D03*
X75010Y-1399990D02*
D03*
X700000Y823801D02*
D03*
X550000D02*
D03*
X622500Y823800D02*
D03*
Y724600D02*
D03*
X1750000Y-1875000D02*
D03*
X1450000D02*
D03*
Y-1625000D02*
D03*
X1750000D02*
D03*
Y-1750000D02*
D03*
X1450000D02*
D03*
X-700000Y-1625000D02*
D03*
X1100000Y0D02*
D03*
X725000Y350000D02*
D03*
X800000Y100000D02*
D03*
X-123041Y765296D02*
D03*
X-1575000Y3500000D02*
D03*
X300000Y600000D02*
D03*
X1110107Y1337535D02*
D03*
X1375000Y550000D02*
D03*
Y650000D02*
D03*
Y750000D02*
D03*
X1100000Y-3325000D02*
D03*
X1085000Y-4615000D02*
D03*
X811661Y-4283028D02*
D03*
X1085361Y-4165000D02*
D03*
X800000Y-5050000D02*
D03*
X900000Y-5025000D02*
D03*
Y-4925000D02*
D03*
X550000Y-5375000D02*
D03*
X-400000Y-4575000D02*
D03*
X1075000Y450000D02*
D03*
X675000D02*
D03*
X300000Y75000D02*
D03*
X525000Y-300000D02*
D03*
X425000Y0D02*
D03*
X-99993Y300000D02*
D03*
X300000Y1175000D02*
D03*
X-736211Y2350000D02*
D03*
X-1425000Y-1850000D02*
D03*
X-1800000Y-1675000D02*
D03*
X-1825000Y-2125000D02*
D03*
X-1462224Y-1680260D02*
D03*
X-1825000Y-2225000D02*
D03*
X-2200000Y-3875000D02*
D03*
X-1000001Y-430010D02*
D03*
X-1775000Y475000D02*
D03*
Y-475000D02*
D03*
Y300000D02*
D03*
X-1450000Y100000D02*
D03*
X-1425000Y-250000D02*
D03*
X400000Y-2825000D02*
D03*
Y-2750000D02*
D03*
X-1425000Y-1775000D02*
D03*
X-2075000Y-1750000D02*
D03*
X-1975000Y-3250000D02*
D03*
X-1900000D02*
D03*
X-1825000D02*
D03*
X-425000Y-1300000D02*
D03*
X-377565Y-1569402D02*
D03*
X-725010Y-2000009D02*
D03*
X-725000Y-2100000D02*
D03*
X-600000Y-1725000D02*
D03*
X-1275010Y-1600009D02*
D03*
Y-1500009D02*
D03*
X1800000Y-3050000D02*
D03*
X2500000Y-3250000D02*
D03*
X1249991Y-3374997D02*
D03*
X1350009Y-3375010D02*
D03*
X1583104Y-3339308D02*
D03*
X1675009Y-3600010D02*
D03*
X1950000Y-3700000D02*
D03*
X-978113Y2464828D02*
D03*
X-700007Y-1000003D02*
D03*
X-500005Y-1000002D02*
D03*
X-300002Y-1000001D02*
D03*
X99995Y-1000002D02*
D03*
X299998Y-1000001D02*
D03*
X-1700025Y-999997D02*
D03*
X-2100030Y-999999D02*
D03*
X-1900028Y-999998D02*
D03*
X-2300038Y-1199988D02*
D03*
X-2300039Y-999986D02*
D03*
X-2300036Y-1599993D02*
D03*
X-2300037Y-1399990D02*
D03*
X-2300033Y-1999998D02*
D03*
X-2300035Y-1799995D02*
D03*
X-2300038Y-2399988D02*
D03*
X-2300039Y-2199986D02*
D03*
X-2300036Y-2799993D02*
D03*
X-2300037Y-2599990D02*
D03*
X-2300033Y-3199998D02*
D03*
X-2300035Y-2999995D02*
D03*
X-2100030Y-3400016D02*
D03*
X-2300032Y-3400017D02*
D03*
X-1700025Y-3400014D02*
D03*
X-1900028Y-3400015D02*
D03*
X-1300021Y-3400011D02*
D03*
X-1500023Y-3400013D02*
D03*
X-900016Y-3400009D02*
D03*
X-1100018Y-3400010D02*
D03*
X-500011Y-3400007D02*
D03*
X-700013Y-3400008D02*
D03*
X-100006Y-3400005D02*
D03*
X-300009Y-3400006D02*
D03*
X99996Y-3400004D02*
D03*
X299999Y-3400003D02*
D03*
X500001Y-3400002D02*
D03*
X500010Y-3000024D02*
D03*
X500009Y-2800022D02*
D03*
X500008Y-2600019D02*
D03*
X500007Y-2400017D02*
D03*
X500006Y-2200014D02*
D03*
X500005Y-2000012D02*
D03*
X500004Y-1800010D02*
D03*
X500003Y-1600007D02*
D03*
X500002Y-1400005D02*
D03*
X500000Y-1000000D02*
D03*
X500001Y-1200002D02*
D03*
X-1458454Y2130000D02*
D03*
Y557527D02*
D03*
X-1402101Y4097899D02*
D03*
X-230001Y-2989999D02*
D03*
Y-2900000D02*
D03*
X1425010Y-3200099D02*
D03*
X2350000Y-2800000D02*
D03*
X1350000Y1450000D02*
D03*
X-200000Y300000D02*
D03*
X-1449999Y-650000D02*
D03*
X-1350000Y-550000D02*
D03*
Y-650000D02*
D03*
X-1400000Y-600000D02*
D03*
X-1850000Y700000D02*
D03*
Y1050000D02*
D03*
X-550000Y1700000D02*
D03*
X1500000Y1700000D02*
D03*
X1900000D02*
D03*
X1700000D02*
D03*
X2300000D02*
D03*
X-700000Y-300000D02*
D03*
Y-100000D02*
D03*
Y100000D02*
D03*
Y500000D02*
D03*
Y700000D02*
D03*
Y900000D02*
D03*
Y1100000D02*
D03*
Y1500000D02*
D03*
X-299998Y-699999D02*
D03*
X-499998D02*
D03*
X500002D02*
D03*
X300002D02*
D03*
X100002D02*
D03*
X700001D02*
D03*
X900001D02*
D03*
X1100001D02*
D03*
X1300001D02*
D03*
X1500001D02*
D03*
X1700001D02*
D03*
X1900001D02*
D03*
X2100000D02*
D03*
X2300000D02*
D03*
X2500000D02*
D03*
Y-499999D02*
D03*
Y-299999D02*
D03*
Y-100000D02*
D03*
Y100000D02*
D03*
Y300000D02*
D03*
X2500000Y500001D02*
D03*
Y700001D02*
D03*
Y900000D02*
D03*
Y1100000D02*
D03*
Y1300000D02*
D03*
Y1500000D02*
D03*
Y1700000D02*
D03*
X-700000D02*
D03*
Y1300000D02*
D03*
Y300000D02*
D03*
Y-700000D02*
D03*
X-1300000Y-1700000D02*
D03*
X-500000Y-1350000D02*
D03*
X1250000Y-4478674D02*
D03*
Y-4389337D02*
D03*
X1084997Y-4965009D02*
D03*
X-320000Y-2989999D02*
D03*
X-410000D02*
D03*
X-500000D02*
D03*
Y-2900000D02*
D03*
X-410000D02*
D03*
X-320000D02*
D03*
X-1050000Y580000D02*
D03*
X-1150000Y580000D02*
D03*
X-2250000Y3850000D02*
D03*
X950000Y3191377D02*
D03*
Y3000000D02*
D03*
Y3100000D02*
D03*
X-1550000Y2900000D02*
D03*
X-1450000Y-550000D02*
D03*
X950000Y2350000D02*
D03*
X900000Y2300000D02*
D03*
X1011250Y2375000D02*
D03*
X-2370000Y3200000D02*
D03*
Y3350000D02*
D03*
X-950000Y-600000D02*
D03*
X-1050000D02*
D03*
X-1100000Y-650000D02*
D03*
X-1000000D02*
D03*
X-950000Y-700000D02*
D03*
X-1050000D02*
D03*
X-1150000D02*
D03*
X1302661Y1135D02*
D03*
X420000Y350000D02*
D03*
X1067083Y-3133402D02*
D03*
X1156418Y-3133401D02*
D03*
X1939739Y-3290415D02*
D03*
Y-3200099D02*
D03*
X-104080Y-1313988D02*
D03*
X-193415Y-1224653D02*
D03*
X-104081D02*
D03*
X-193416Y-1135318D02*
D03*
X-104081D02*
D03*
X-1650000Y-2600000D02*
D03*
X-1750000D02*
D03*
X-1650000Y-2500000D02*
D03*
X-1750000D02*
D03*
X-1650000Y-2400000D02*
D03*
X-1750000D02*
D03*
X2400000Y-3000000D02*
D03*
X2300000D02*
D03*
X1250000Y-4900000D02*
D03*
X950000Y-4300000D02*
D03*
X1050000D02*
D03*
X1150000D02*
D03*
X1250000Y-4300000D02*
D03*
X-1550000Y875000D02*
D03*
X-979991Y-330003D02*
D03*
X-736211Y2680000D02*
D03*
Y2460000D02*
D03*
X-736212Y1910000D02*
D03*
X1100000Y1830000D02*
D03*
X1000000D02*
D03*
X900000D02*
D03*
X800000Y1830000D02*
D03*
X745001Y-400000D02*
D03*
X1296241Y-137027D02*
D03*
X1000000Y-400000D02*
D03*
X817500Y730000D02*
D03*
X-1200000Y-4500001D02*
D03*
X-1200000Y-4400001D02*
D03*
X-1300000Y-4500001D02*
D03*
X-1400000D02*
D03*
X-1500000D02*
D03*
X-1600000D02*
D03*
Y-4400001D02*
D03*
X-1500000D02*
D03*
X-1400001Y-4400001D02*
D03*
X-1300001Y-4400001D02*
D03*
X-1400000Y-4300001D02*
D03*
X-1300000D02*
D03*
X-1200000Y-4300001D02*
D03*
X-1700000Y-4200001D02*
D03*
X-1132658Y-3967343D02*
D03*
X-1500000Y-3650001D02*
D03*
X-1400000Y-3550001D02*
D03*
X-1200000Y-3650001D02*
D03*
Y-3550001D02*
D03*
X-1300000D02*
D03*
Y-3650001D02*
D03*
X-1400000Y-3650001D02*
D03*
X-850000Y-150000D02*
D03*
Y-50000D02*
D03*
X1399997Y-199998D02*
D03*
X1499998D02*
D03*
X1399997Y200003D02*
D03*
X1499998D02*
D03*
X-1680000Y-100000D02*
D03*
D224*
X2462902Y-2963894D02*
D03*
X1924237Y-3361192D02*
D03*
X1000000Y-3125000D02*
D03*
X1225000D02*
D03*
X1063837Y2791302D02*
D03*
X1300000Y2875000D02*
D03*
Y2975000D02*
D03*
X1275000Y3350000D02*
D03*
X950000Y2925000D02*
D03*
X875000Y3150000D02*
D03*
Y3050000D02*
D03*
X-809990Y5169990D02*
D03*
X-719990D02*
D03*
X-629990D02*
D03*
X849999Y1875001D02*
D03*
X1050000Y1875000D02*
D03*
X950000D02*
D03*
X775870Y2112558D02*
D03*
X-1117832Y4808495D02*
D03*
X769892Y-4653438D02*
D03*
X864692Y-4716252D02*
D03*
X-333893Y5206678D02*
D03*
X-326520Y5160783D02*
D03*
X-10763Y5251952D02*
D03*
X76776Y5274349D02*
D03*
X35153Y5254752D02*
D03*
X-265376Y5020360D02*
D03*
X-834879Y4528263D02*
D03*
X-84358Y4368863D02*
D03*
X-325788Y4654703D02*
D03*
X-160489Y4368863D02*
D03*
X50000Y2256321D02*
D03*
X0Y2100000D02*
D03*
Y2150000D02*
D03*
Y2200000D02*
D03*
X-250000D02*
D03*
Y2250000D02*
D03*
Y2300000D02*
D03*
X-205798Y2665303D02*
D03*
X-50000Y2678825D02*
D03*
X-1059928Y4579524D02*
D03*
X-1021304Y4528338D02*
D03*
X-1056811Y4437759D02*
D03*
X-462127Y4938014D02*
D03*
X58226Y5400000D02*
D03*
X149025Y5300000D02*
D03*
Y5400000D02*
D03*
X239825Y5300000D02*
D03*
Y5400000D02*
D03*
X330624Y5300000D02*
D03*
Y5400000D02*
D03*
X421424Y5300000D02*
D03*
Y5400000D02*
D03*
X512223Y5300000D02*
D03*
Y5400000D02*
D03*
X603022Y5300000D02*
D03*
Y5400000D02*
D03*
X693822Y5300000D02*
D03*
Y5400000D02*
D03*
X434979Y5138597D02*
D03*
X308908D02*
D03*
X203862Y4589776D02*
D03*
X308921Y4491402D02*
D03*
X434992D02*
D03*
X532410Y4562079D02*
D03*
X569658Y4672868D02*
D03*
Y4771241D02*
D03*
Y4869615D02*
D03*
Y4967988D02*
D03*
X520931Y5046820D02*
D03*
X217554Y5022805D02*
D03*
X179815Y4913020D02*
D03*
X-31622Y4720985D02*
D03*
X120302Y4714131D02*
D03*
X190207Y4748203D02*
D03*
X96163Y4837728D02*
D03*
X1025000Y5450000D02*
D03*
X875421Y5400000D02*
D03*
X940800D02*
D03*
X1150000D02*
D03*
X1250000D02*
D03*
X1200000D02*
D03*
X1150000Y5350000D02*
D03*
X1250000D02*
D03*
X1200000D02*
D03*
X940800Y5300000D02*
D03*
X875421D02*
D03*
X1200000Y5300000D02*
D03*
X1250000D02*
D03*
X1150000D02*
D03*
X1025000Y5250000D02*
D03*
X-900000Y5200000D02*
D03*
X-834879Y4728263D02*
D03*
X784621Y5400000D02*
D03*
Y5300000D02*
D03*
X-84112Y5395885D02*
D03*
X-123429Y5373185D02*
D03*
X-350000Y5350000D02*
D03*
X-155532Y5341083D02*
D03*
X-187634Y5308980D02*
D03*
X-219737Y5276878D02*
D03*
X-568102Y5190228D02*
D03*
X-606893Y5119190D02*
D03*
X-758594D02*
D03*
X-682744D02*
D03*
X-689679Y4938014D02*
D03*
X-834445Y5119190D02*
D03*
X50285Y4967630D02*
D03*
X-94438Y5217407D02*
D03*
X7217Y4839610D02*
D03*
X-55121Y5240107D02*
D03*
X-158644Y5153202D02*
D03*
X-190746Y5121099D02*
D03*
X-230064Y5098400D02*
D03*
X-262166Y5066297D02*
D03*
X-360038Y5245683D02*
D03*
X-126541Y5185305D02*
D03*
X-537977Y4938014D02*
D03*
X-137875Y4786872D02*
D03*
X-613828Y4938014D02*
D03*
X-200000Y-1925000D02*
D03*
X1075000Y2675000D02*
D03*
Y2475000D02*
D03*
X-1780000Y75000D02*
D03*
Y-25000D02*
D03*
X959331Y176025D02*
D03*
%TF.MD5,2db56da3c9ec6534912b3c479b0f9072*%
M02*
