%TF.GenerationSoftware,Altium Limited,Altium Designer,22.5.1 (42)*%
G04 Layer_Physical_Order=2*
G04 Layer_Color=36540*
%FSLAX45Y45*%
%MOMM*%
%TF.SameCoordinates,B0F14D10-A82B-43C6-BF60-515EF57ECD05*%
%TF.FilePolarity,Positive*%
%TF.FileFunction,Copper,L2,Inr,Signal*%
%TF.Part,Single*%
G01*
G75*
%TA.AperFunction,Conductor*%
%ADD80C,0.25400*%
%ADD81C,0.76200*%
%TA.AperFunction,ComponentPad*%
G04:AMPARAMS|DCode=93|XSize=2.032mm|YSize=2.032mm|CornerRadius=0.508mm|HoleSize=0mm|Usage=FLASHONLY|Rotation=270.000|XOffset=0mm|YOffset=0mm|HoleType=Round|Shape=RoundedRectangle|*
%AMROUNDEDRECTD93*
21,1,2.03200,1.01600,0,0,270.0*
21,1,1.01600,2.03200,0,0,270.0*
1,1,1.01600,-0.50800,-0.50800*
1,1,1.01600,-0.50800,0.50800*
1,1,1.01600,0.50800,0.50800*
1,1,1.01600,0.50800,-0.50800*
%
%ADD93ROUNDEDRECTD93*%
%ADD94C,2.03200*%
%ADD95C,4.00000*%
G04:AMPARAMS|DCode=96|XSize=2.2mm|YSize=1.2mm|CornerRadius=0.6mm|HoleSize=0mm|Usage=FLASHONLY|Rotation=180.000|XOffset=0mm|YOffset=0mm|HoleType=Round|Shape=RoundedRectangle|*
%AMROUNDEDRECTD96*
21,1,2.20000,0.00000,0,0,180.0*
21,1,1.00000,1.20000,0,0,180.0*
1,1,1.20000,-0.50000,0.00000*
1,1,1.20000,0.50000,0.00000*
1,1,1.20000,0.50000,0.00000*
1,1,1.20000,-0.50000,0.00000*
%
%ADD96ROUNDEDRECTD96*%
G04:AMPARAMS|DCode=97|XSize=2.2mm|YSize=1.2mm|CornerRadius=0.6mm|HoleSize=0mm|Usage=FLASHONLY|Rotation=270.000|XOffset=0mm|YOffset=0mm|HoleType=Round|Shape=RoundedRectangle|*
%AMROUNDEDRECTD97*
21,1,2.20000,0.00000,0,0,270.0*
21,1,1.00000,1.20000,0,0,270.0*
1,1,1.20000,0.00000,-0.50000*
1,1,1.20000,0.00000,0.50000*
1,1,1.20000,0.00000,0.50000*
1,1,1.20000,0.00000,-0.50000*
%
%ADD97ROUNDEDRECTD97*%
G04:AMPARAMS|DCode=98|XSize=2.2mm|YSize=2.2mm|CornerRadius=0.22mm|HoleSize=0mm|Usage=FLASHONLY|Rotation=270.000|XOffset=0mm|YOffset=0mm|HoleType=Round|Shape=RoundedRectangle|*
%AMROUNDEDRECTD98*
21,1,2.20000,1.76000,0,0,270.0*
21,1,1.76000,2.20000,0,0,270.0*
1,1,0.44000,-0.88000,-0.88000*
1,1,0.44000,-0.88000,0.88000*
1,1,0.44000,0.88000,0.88000*
1,1,0.44000,0.88000,-0.88000*
%
%ADD98ROUNDEDRECTD98*%
%ADD99C,1.10000*%
%ADD100C,0.65000*%
%TA.AperFunction,ViaPad*%
%ADD101C,6.50000*%
%ADD102C,0.66000*%
%ADD103C,0.46000*%
G36*
X1723323Y5887542D02*
X1745056Y5878540D01*
X1763718Y5864219D01*
X1778039Y5845557D01*
X1787041Y5823824D01*
X1790045Y5801005D01*
X1789836Y5800501D01*
X1789837Y5250501D01*
X1789344D01*
X1794400Y5186260D01*
X1809443Y5123601D01*
X1834103Y5064067D01*
X1867773Y5009124D01*
X1909623Y4960124D01*
X1958623Y4918274D01*
X2013566Y4884604D01*
X2073101Y4859944D01*
X2135760Y4844901D01*
X2200000Y4839845D01*
Y4840338D01*
X2300000D01*
X2301122Y4840802D01*
X2353249Y4836700D01*
X2405186Y4824231D01*
X2454534Y4803790D01*
X2500076Y4775882D01*
X2540692Y4741193D01*
X2575381Y4700577D01*
X2603289Y4655035D01*
X2623730Y4605687D01*
X2636199Y4553750D01*
X2639404Y4513022D01*
X2639836Y4500501D01*
D01*
X2639837Y4487833D01*
Y-4486831D01*
X2639836Y-4499498D01*
X2639836D01*
X2639404Y-4512020D01*
X2636199Y-4552747D01*
X2623730Y-4604685D01*
X2603289Y-4654032D01*
X2575381Y-4699575D01*
X2540692Y-4740190D01*
X2500076Y-4774880D01*
X2454534Y-4802788D01*
X2405186Y-4823228D01*
X2353249Y-4835697D01*
X2301122Y-4839800D01*
X2300000Y-4839335D01*
X2200000D01*
Y-4838843D01*
X2135760Y-4843899D01*
X2073101Y-4858942D01*
X2013566Y-4883602D01*
X1958623Y-4917271D01*
X1909623Y-4959121D01*
X1867773Y-5008121D01*
X1834103Y-5063065D01*
X1809443Y-5122599D01*
X1794400Y-5185258D01*
X1789344Y-5249499D01*
X1789837D01*
X1789836Y-5799499D01*
X1790045Y-5800002D01*
X1787041Y-5822821D01*
X1778039Y-5844554D01*
X1763718Y-5863217D01*
X1745056Y-5877537D01*
X1723323Y-5886540D01*
X1700504Y-5889544D01*
X1700000Y-5889335D01*
X-1300000D01*
X-1300503Y-5889544D01*
X-1323322Y-5886540D01*
X-1345055Y-5877537D01*
X-1363718Y-5863217D01*
X-1378038Y-5844554D01*
X-1387041Y-5822821D01*
X-1390045Y-5800002D01*
X-1389836Y-5799499D01*
X-1389837Y-5262199D01*
X-1389344Y-5249499D01*
X-1389344D01*
X-1394400Y-5185258D01*
X-1409443Y-5122599D01*
X-1434103Y-5063065D01*
X-1467773Y-5008121D01*
X-1509623Y-4959121D01*
X-1558622Y-4917271D01*
X-1613566Y-4883602D01*
X-1673100Y-4858942D01*
X-1735759Y-4843899D01*
X-1800000Y-4838843D01*
Y-4839335D01*
X-2100000D01*
X-2101122Y-4839800D01*
X-2153248Y-4835697D01*
X-2205186Y-4823228D01*
X-2254533Y-4802788D01*
X-2300076Y-4774880D01*
X-2340692Y-4740190D01*
X-2375381Y-4699575D01*
X-2403289Y-4654032D01*
X-2423729Y-4604685D01*
X-2436199Y-4552747D01*
X-2440301Y-4500621D01*
X-2439836Y-4499499D01*
X-2439836Y4500501D01*
X-2440301Y4501623D01*
X-2436199Y4553750D01*
X-2423729Y4605687D01*
X-2403289Y4655035D01*
X-2375381Y4700577D01*
X-2340692Y4741193D01*
X-2300076Y4775882D01*
X-2254533Y4803790D01*
X-2205186Y4824231D01*
X-2153248Y4836700D01*
X-2101122Y4840802D01*
X-2100000Y4840338D01*
X-1800000D01*
Y4839845D01*
X-1735759Y4844901D01*
X-1673100Y4859944D01*
X-1613566Y4884604D01*
X-1558622Y4918274D01*
X-1509623Y4960124D01*
X-1467773Y5009124D01*
X-1434103Y5064067D01*
X-1409443Y5123601D01*
X-1394400Y5186260D01*
X-1389344Y5250501D01*
X-1389836D01*
Y5800501D01*
X-1390045Y5801004D01*
X-1387041Y5823824D01*
X-1378038Y5845557D01*
X-1363718Y5864219D01*
X-1345055Y5878540D01*
X-1323322Y5887542D01*
X-1300503Y5890546D01*
X-1300000Y5890337D01*
X1700000D01*
X1700504Y5890546D01*
X1723323Y5887542D01*
D02*
G37*
%LPC*%
G36*
X-441667Y5391890D02*
X-458332D01*
X-473729Y5385512D01*
X-485512Y5373729D01*
X-491890Y5358332D01*
Y5341667D01*
X-485512Y5326271D01*
X-473729Y5314487D01*
X-458332Y5308110D01*
X-441667D01*
X-426271Y5314487D01*
X-414487Y5326271D01*
X-408110Y5341667D01*
Y5358332D01*
X-414487Y5373729D01*
X-426271Y5385512D01*
X-441667Y5391890D01*
D02*
G37*
G36*
X-891668Y5341890D02*
X-908332D01*
X-923729Y5335513D01*
X-935512Y5323729D01*
X-941890Y5308333D01*
Y5291668D01*
X-935512Y5276271D01*
X-923729Y5264488D01*
X-908332Y5258110D01*
X-891668D01*
X-876271Y5264488D01*
X-864487Y5276271D01*
X-858110Y5291668D01*
Y5308333D01*
X-864487Y5323729D01*
X-876271Y5335513D01*
X-891668Y5341890D01*
D02*
G37*
G36*
X-1091668D02*
X-1108333D01*
X-1123729Y5335513D01*
X-1135513Y5323729D01*
X-1141890Y5308333D01*
Y5291668D01*
X-1135513Y5276271D01*
X-1123729Y5264488D01*
X-1108333Y5258110D01*
X-1091668D01*
X-1076271Y5264488D01*
X-1064488Y5276271D01*
X-1058110Y5291668D01*
Y5308333D01*
X-1064488Y5323729D01*
X-1076271Y5335513D01*
X-1091668Y5341890D01*
D02*
G37*
G36*
X-600549Y5151080D02*
X-613236D01*
X-624957Y5146225D01*
X-633928Y5137254D01*
X-638783Y5125534D01*
X-650854D01*
X-655709Y5137254D01*
X-664679Y5146225D01*
X-676400Y5151080D01*
X-689087D01*
X-700808Y5146225D01*
X-709779Y5137254D01*
X-714633Y5125534D01*
X-726705D01*
X-731559Y5137254D01*
X-740530Y5146225D01*
X-752251Y5151080D01*
X-764938D01*
X-776659Y5146225D01*
X-785629Y5137254D01*
X-790484Y5125534D01*
X-802555D01*
X-807410Y5137254D01*
X-816381Y5146225D01*
X-828102Y5151080D01*
X-840789D01*
X-852509Y5146225D01*
X-861480Y5137254D01*
X-866335Y5125534D01*
Y5112847D01*
X-861480Y5101126D01*
X-852509Y5092155D01*
X-840789Y5087300D01*
X-828102D01*
X-816381Y5092155D01*
X-807410Y5101126D01*
X-802555Y5112846D01*
X-790484D01*
X-785629Y5101126D01*
X-776659Y5092155D01*
X-764938Y5087300D01*
X-752251D01*
X-740530Y5092155D01*
X-731559Y5101126D01*
X-726705Y5112846D01*
X-714633D01*
X-709779Y5101126D01*
X-700808Y5092155D01*
X-689087Y5087300D01*
X-676400D01*
X-664679Y5092155D01*
X-655709Y5101126D01*
X-650854Y5112846D01*
X-638783D01*
X-633928Y5101126D01*
X-624957Y5092155D01*
X-613236Y5087300D01*
X-600549D01*
X-588829Y5092155D01*
X-579858Y5101126D01*
X-575003Y5112847D01*
Y5125534D01*
X-579858Y5137254D01*
X-588829Y5146225D01*
X-600549Y5151080D01*
D02*
G37*
G36*
X-1141667Y5191890D02*
X-1158332D01*
X-1173728Y5185512D01*
X-1185512Y5173729D01*
X-1191890Y5158332D01*
Y5141667D01*
X-1185512Y5126271D01*
X-1173728Y5114487D01*
X-1158332Y5108110D01*
X-1141667D01*
X-1126271Y5114487D01*
X-1114487Y5126271D01*
X-1108110Y5141667D01*
Y5158332D01*
X-1114487Y5173729D01*
X-1126271Y5185512D01*
X-1141667Y5191890D01*
D02*
G37*
G36*
X178342Y5181887D02*
X161677D01*
X146281Y5175510D01*
X134497Y5163726D01*
X128120Y5148330D01*
Y5131665D01*
X134497Y5116269D01*
X146281Y5104485D01*
X161677Y5098107D01*
X178342D01*
X193738Y5104485D01*
X205522Y5116269D01*
X211899Y5131665D01*
Y5148330D01*
X205522Y5163726D01*
X193738Y5175510D01*
X178342Y5181887D01*
D02*
G37*
G36*
X-455783Y4969904D02*
X-468470D01*
X-480191Y4965049D01*
X-489162Y4956078D01*
X-494016Y4944358D01*
X-506088D01*
X-510942Y4956078D01*
X-519913Y4965049D01*
X-531634Y4969904D01*
X-544321D01*
X-556042Y4965049D01*
X-565012Y4956078D01*
X-569867Y4944358D01*
X-581938D01*
X-586793Y4956078D01*
X-595764Y4965049D01*
X-607485Y4969904D01*
X-620171D01*
X-631892Y4965049D01*
X-640863Y4956078D01*
X-645718Y4944358D01*
X-657789D01*
X-662644Y4956078D01*
X-671615Y4965049D01*
X-683335Y4969904D01*
X-696022D01*
X-707743Y4965049D01*
X-716714Y4956078D01*
X-721569Y4944357D01*
Y4931671D01*
X-716714Y4919950D01*
X-707743Y4910979D01*
X-696022Y4906124D01*
X-683335D01*
X-671615Y4910979D01*
X-662644Y4919950D01*
X-657789Y4931670D01*
X-645718D01*
X-640863Y4919950D01*
X-631892Y4910979D01*
X-620171Y4906124D01*
X-607485D01*
X-595764Y4910979D01*
X-586793Y4919950D01*
X-581938Y4931670D01*
X-569867D01*
X-565012Y4919950D01*
X-556042Y4910979D01*
X-544321Y4906124D01*
X-531634D01*
X-519913Y4910979D01*
X-510942Y4919950D01*
X-506088Y4931670D01*
X-494016D01*
X-489162Y4919950D01*
X-480191Y4910979D01*
X-468470Y4906124D01*
X-455783D01*
X-444062Y4910979D01*
X-435092Y4919950D01*
X-430237Y4931671D01*
Y4944357D01*
X-435092Y4956078D01*
X-444062Y4965049D01*
X-455783Y4969904D01*
D02*
G37*
G36*
X-1091668Y5091890D02*
X-1108333D01*
X-1123729Y5085513D01*
X-1135513Y5073729D01*
X-1141890Y5058333D01*
Y5041668D01*
X-1135513Y5026271D01*
X-1123729Y5014488D01*
X-1112834Y5009975D01*
X-1112476Y4996377D01*
X-1115700Y4995041D01*
X-1127483Y4983257D01*
X-1133861Y4967861D01*
Y4951196D01*
X-1127483Y4935800D01*
X-1115700Y4924016D01*
X-1100546Y4917739D01*
X-1100161Y4916753D01*
X-1098262Y4904939D01*
X-1104489Y4902360D01*
X-1116272Y4890576D01*
X-1122650Y4875180D01*
Y4858515D01*
X-1120401Y4853085D01*
X-1121338Y4849932D01*
X-1128197Y4838719D01*
X-1135896Y4835530D01*
X-1144867Y4826559D01*
X-1149722Y4814838D01*
Y4802152D01*
X-1144867Y4790431D01*
X-1135896Y4781460D01*
X-1124175Y4776605D01*
X-1111488D01*
X-1099767Y4781460D01*
X-1090797Y4790431D01*
X-1085942Y4802152D01*
Y4814838D01*
X-1076386Y4824957D01*
X-1072427D01*
X-1057031Y4831335D01*
X-1045247Y4843119D01*
X-1038870Y4858515D01*
Y4875180D01*
X-1045247Y4890576D01*
X-1057031Y4902360D01*
X-1072185Y4908637D01*
X-1072570Y4909623D01*
X-1074469Y4921437D01*
X-1068242Y4924016D01*
X-1056458Y4935800D01*
X-1050081Y4951196D01*
Y4967861D01*
X-1056458Y4983257D01*
X-1068242Y4995041D01*
X-1079137Y4999554D01*
X-1079495Y5013152D01*
X-1076271Y5014488D01*
X-1064488Y5026271D01*
X-1058110Y5041668D01*
Y5058333D01*
X-1064488Y5073729D01*
X-1076271Y5085513D01*
X-1091668Y5091890D01*
D02*
G37*
G36*
X-131531Y4818762D02*
X-144218D01*
X-155939Y4813907D01*
X-164910Y4804936D01*
X-169765Y4793215D01*
Y4780528D01*
X-164910Y4768808D01*
X-155939Y4759837D01*
X-144218Y4754982D01*
X-131531D01*
X-119811Y4759837D01*
X-110840Y4768808D01*
X-105985Y4780528D01*
Y4793215D01*
X-110840Y4804936D01*
X-119811Y4813907D01*
X-131531Y4818762D01*
D02*
G37*
G36*
X-828536Y4760153D02*
X-841222D01*
X-852943Y4755298D01*
X-861914Y4746327D01*
X-866769Y4734606D01*
Y4721920D01*
X-861914Y4710199D01*
X-852943Y4701228D01*
X-841222Y4696373D01*
X-828536D01*
X-816815Y4701228D01*
X-807844Y4710199D01*
X-802989Y4721920D01*
Y4734606D01*
X-807844Y4746327D01*
X-816815Y4755298D01*
X-828536Y4760153D01*
D02*
G37*
G36*
X-319445Y4686593D02*
X-332132D01*
X-343852Y4681738D01*
X-352823Y4672767D01*
X-357678Y4661047D01*
Y4648360D01*
X-352823Y4636639D01*
X-343852Y4627668D01*
X-332132Y4622813D01*
X-319445D01*
X-307724Y4627668D01*
X-298753Y4636639D01*
X-293898Y4648360D01*
Y4661047D01*
X-298753Y4672767D01*
X-307724Y4681738D01*
X-319445Y4686593D01*
D02*
G37*
G36*
X58332Y4591890D02*
X41667D01*
X26271Y4585513D01*
X14487Y4573729D01*
X8110Y4558333D01*
Y4541668D01*
X14487Y4526271D01*
X26271Y4514488D01*
X41667Y4508110D01*
X58332D01*
X73729Y4514488D01*
X85512Y4526271D01*
X91890Y4541668D01*
Y4558333D01*
X85512Y4573729D01*
X73729Y4585513D01*
X58332Y4591890D01*
D02*
G37*
G36*
X-1014961Y4560228D02*
X-1027647D01*
X-1039368Y4555373D01*
X-1048339Y4546402D01*
X-1053194Y4534682D01*
Y4521995D01*
X-1048339Y4510274D01*
X-1039368Y4501303D01*
X-1027647Y4496448D01*
X-1014961D01*
X-1003240Y4501303D01*
X-994269Y4510274D01*
X-989414Y4521995D01*
Y4534682D01*
X-994269Y4546402D01*
X-1003240Y4555373D01*
X-1014961Y4560228D01*
D02*
G37*
G36*
X-828536Y4560153D02*
X-841222D01*
X-852943Y4555298D01*
X-861914Y4546327D01*
X-866769Y4534606D01*
Y4521920D01*
X-861914Y4510199D01*
X-852943Y4501228D01*
X-841222Y4496373D01*
X-828536D01*
X-816815Y4501228D01*
X-807844Y4510199D01*
X-802989Y4521920D01*
Y4534606D01*
X-807844Y4546327D01*
X-816815Y4555298D01*
X-828536Y4560153D01*
D02*
G37*
G36*
X-1050468Y4469649D02*
X-1063154D01*
X-1074875Y4464794D01*
X-1083846Y4455823D01*
X-1088701Y4444102D01*
Y4431415D01*
X-1083846Y4419694D01*
X-1074875Y4410724D01*
X-1063154Y4405869D01*
X-1050468D01*
X-1038747Y4410724D01*
X-1029776Y4419694D01*
X-1024921Y4431415D01*
Y4444102D01*
X-1029776Y4455823D01*
X-1038747Y4464794D01*
X-1050468Y4469649D01*
D02*
G37*
G36*
X-154146Y4400753D02*
X-166833D01*
X-178554Y4395898D01*
X-187524Y4386927D01*
X-192379Y4375206D01*
Y4362519D01*
X-187524Y4350799D01*
X-178554Y4341828D01*
X-166833Y4336973D01*
X-154146D01*
X-142425Y4341828D01*
X-133454Y4350799D01*
X-128599Y4362519D01*
Y4375206D01*
X-133454Y4386927D01*
X-142425Y4395898D01*
X-154146Y4400753D01*
D02*
G37*
G36*
X658333Y4291890D02*
X641668D01*
X626272Y4285512D01*
X614488Y4273729D01*
X608110Y4258332D01*
Y4241667D01*
X614488Y4226271D01*
X626272Y4214487D01*
X641668Y4208110D01*
X658333D01*
X673729Y4214487D01*
X685513Y4226271D01*
X691890Y4241667D01*
Y4258332D01*
X685513Y4273729D01*
X673729Y4285512D01*
X658333Y4291890D01*
D02*
G37*
G36*
X-1191667Y4141890D02*
X-1208332D01*
X-1223729Y4135512D01*
X-1235512Y4123729D01*
X-1241890Y4108332D01*
Y4091667D01*
X-1235512Y4076271D01*
X-1223729Y4064487D01*
X-1208332Y4058110D01*
X-1191667D01*
X-1176271Y4064487D01*
X-1164487Y4076271D01*
X-1158110Y4091667D01*
Y4108332D01*
X-1164487Y4123729D01*
X-1176271Y4135512D01*
X-1191667Y4141890D01*
D02*
G37*
G36*
X-1291667D02*
X-1308332D01*
X-1323729Y4135512D01*
X-1335512Y4123729D01*
X-1341890Y4108332D01*
Y4091667D01*
X-1335512Y4076271D01*
X-1323729Y4064487D01*
X-1308332Y4058110D01*
X-1291667D01*
X-1276271Y4064487D01*
X-1264487Y4076271D01*
X-1258110Y4091667D01*
Y4108332D01*
X-1264487Y4123729D01*
X-1276271Y4135512D01*
X-1291667Y4141890D01*
D02*
G37*
G36*
X-1393769Y4139789D02*
X-1410434D01*
X-1425830Y4133411D01*
X-1437614Y4121627D01*
X-1443991Y4106231D01*
Y4089566D01*
X-1437614Y4074170D01*
X-1425830Y4062386D01*
X-1410434Y4056009D01*
X-1393769D01*
X-1378373Y4062386D01*
X-1366589Y4074170D01*
X-1360211Y4089566D01*
Y4106231D01*
X-1366589Y4121627D01*
X-1378373Y4133411D01*
X-1393769Y4139789D01*
D02*
G37*
G36*
X658333Y4091890D02*
X641668D01*
X626272Y4085512D01*
X614488Y4073728D01*
X608110Y4058332D01*
Y4041667D01*
X614488Y4026271D01*
X626272Y4014487D01*
X641668Y4008110D01*
X658333D01*
X673729Y4014487D01*
X685513Y4026271D01*
X691890Y4041667D01*
Y4058332D01*
X685513Y4073728D01*
X673729Y4085512D01*
X658333Y4091890D01*
D02*
G37*
G36*
X-2241668Y3891890D02*
X-2258333D01*
X-2273729Y3885512D01*
X-2285513Y3873729D01*
X-2291890Y3858332D01*
Y3841667D01*
X-2285513Y3826271D01*
X-2273729Y3814487D01*
X-2258333Y3808110D01*
X-2241668D01*
X-2226271Y3814487D01*
X-2214488Y3826271D01*
X-2208110Y3841667D01*
Y3858332D01*
X-2214488Y3873729D01*
X-2226271Y3885512D01*
X-2241668Y3891890D01*
D02*
G37*
G36*
X1433332Y3391890D02*
X1416667D01*
X1401271Y3385512D01*
X1389487Y3373729D01*
X1386261Y3365940D01*
X1374169Y3360703D01*
X1371667Y3361367D01*
X1358333Y3366890D01*
X1341668D01*
X1326271Y3360512D01*
X1314488Y3348729D01*
X1308110Y3333332D01*
Y3316667D01*
X1308262Y3316301D01*
X1299488Y3306189D01*
X1282823D01*
X1267427Y3299812D01*
X1255643Y3288028D01*
X1249266Y3272632D01*
Y3255967D01*
X1255643Y3240570D01*
X1267427Y3228787D01*
X1282823Y3222409D01*
X1299488D01*
X1314884Y3228787D01*
X1326668Y3240570D01*
X1333046Y3255967D01*
Y3272632D01*
X1332894Y3272998D01*
X1341668Y3283110D01*
X1358333D01*
X1373729Y3289487D01*
X1385513Y3301271D01*
X1388739Y3309059D01*
X1400831Y3314297D01*
X1403333Y3313633D01*
X1416667Y3308110D01*
X1433332D01*
X1448729Y3314487D01*
X1460512Y3326271D01*
X1466890Y3341667D01*
Y3358332D01*
X1460512Y3373729D01*
X1448729Y3385512D01*
X1433332Y3391890D01*
D02*
G37*
G36*
X-2361668Y3391890D02*
X-2378333D01*
X-2393729Y3385512D01*
X-2405513Y3373728D01*
X-2411890Y3358332D01*
Y3341667D01*
X-2405513Y3326271D01*
X-2393729Y3314487D01*
X-2378333Y3308110D01*
X-2361668D01*
X-2346272Y3314487D01*
X-2334488Y3326271D01*
X-2328110Y3341667D01*
Y3358332D01*
X-2334488Y3373728D01*
X-2346272Y3385512D01*
X-2361668Y3391890D01*
D02*
G37*
G36*
X-68530Y3372850D02*
X-85195D01*
X-100592Y3366472D01*
X-112375Y3354688D01*
X-118753Y3339292D01*
Y3322627D01*
X-112375Y3307231D01*
X-100592Y3295447D01*
X-85195Y3289070D01*
X-68530D01*
X-53134Y3295447D01*
X-41350Y3307231D01*
X-34973Y3322627D01*
Y3339292D01*
X-41350Y3354688D01*
X-53134Y3366472D01*
X-68530Y3372850D01*
D02*
G37*
G36*
X-2361668Y3241890D02*
X-2378333D01*
X-2393729Y3235512D01*
X-2405513Y3223729D01*
X-2411890Y3208332D01*
Y3191667D01*
X-2405513Y3176271D01*
X-2393729Y3164487D01*
X-2378333Y3158110D01*
X-2361668D01*
X-2346272Y3164487D01*
X-2334488Y3176271D01*
X-2328110Y3191667D01*
Y3208332D01*
X-2334488Y3223729D01*
X-2346272Y3235512D01*
X-2361668Y3241890D01*
D02*
G37*
G36*
X1299488Y3206189D02*
X1282823D01*
X1267427Y3199811D01*
X1255643Y3188028D01*
X1249265Y3172631D01*
Y3155967D01*
X1255643Y3140570D01*
X1267427Y3128786D01*
X1282823Y3122409D01*
X1299488D01*
X1314884Y3128786D01*
X1326668Y3140570D01*
X1333045Y3155967D01*
Y3172631D01*
X1326668Y3188028D01*
X1314884Y3199811D01*
X1299488Y3206189D01*
D02*
G37*
G36*
X958332Y3233267D02*
X941667D01*
X926271Y3226889D01*
X914487Y3215105D01*
X908110Y3199709D01*
Y3183044D01*
X914487Y3167648D01*
X926271Y3155864D01*
X934244Y3152562D01*
Y3138815D01*
X926271Y3135512D01*
X914487Y3123729D01*
X908110Y3108332D01*
Y3091667D01*
X914487Y3076271D01*
X926271Y3064487D01*
X941667Y3058110D01*
X958332D01*
X973729Y3064487D01*
X985512Y3076271D01*
X991890Y3091667D01*
Y3108332D01*
X985512Y3123729D01*
X973729Y3135512D01*
X965755Y3138815D01*
Y3152562D01*
X973729Y3155864D01*
X985512Y3167648D01*
X991890Y3183044D01*
Y3199709D01*
X985512Y3215105D01*
X973729Y3226889D01*
X958332Y3233267D01*
D02*
G37*
G36*
X-1541667Y2941890D02*
X-1558332D01*
X-1573729Y2935513D01*
X-1585512Y2923729D01*
X-1591890Y2908333D01*
Y2891668D01*
X-1585512Y2876271D01*
X-1573729Y2864488D01*
X-1558332Y2858110D01*
X-1541667D01*
X-1526271Y2864488D01*
X-1514487Y2876271D01*
X-1508110Y2891668D01*
Y2908333D01*
X-1514487Y2923729D01*
X-1526271Y2935513D01*
X-1541667Y2941890D01*
D02*
G37*
G36*
X958332Y3041890D02*
X941667D01*
X926271Y3035513D01*
X914487Y3023729D01*
X908110Y3008333D01*
Y2991668D01*
X914487Y2976271D01*
X926271Y2964488D01*
X941667Y2958110D01*
X958332D01*
X972238Y2963870D01*
X976885Y2961215D01*
X982481Y2955413D01*
X982206Y2954748D01*
Y2938084D01*
X988583Y2922687D01*
X1000367Y2910904D01*
Y2897576D01*
X988583Y2885792D01*
X982206Y2870396D01*
Y2853731D01*
X988583Y2838335D01*
X1000367Y2826551D01*
X1015763Y2820174D01*
X1032428D01*
X1047824Y2826551D01*
X1059608Y2838335D01*
X1065986Y2853731D01*
Y2870396D01*
X1059608Y2885792D01*
X1047825Y2897576D01*
Y2910904D01*
X1059608Y2922687D01*
X1065986Y2938084D01*
Y2954748D01*
X1059608Y2970145D01*
X1047824Y2981929D01*
X1032428Y2988306D01*
X1015763D01*
X1001858Y2982546D01*
X997211Y2985201D01*
X991615Y2991003D01*
X991890Y2991668D01*
Y3008333D01*
X985512Y3023729D01*
X973729Y3035513D01*
X958332Y3041890D01*
D02*
G37*
G36*
X818128Y2943890D02*
X781905D01*
X746377Y2936823D01*
X712912Y2922961D01*
X682793Y2902837D01*
X657180Y2877223D01*
X637055Y2847105D01*
X623193Y2813639D01*
X616126Y2778112D01*
Y2741889D01*
X623193Y2706361D01*
X637055Y2672896D01*
X657180Y2642777D01*
X682793Y2617163D01*
X712912Y2597039D01*
X746377Y2583177D01*
X781905Y2576110D01*
X818128D01*
X853655Y2583177D01*
X887121Y2597039D01*
X917239Y2617163D01*
X942853Y2642777D01*
X962977Y2672896D01*
X975236Y2702490D01*
X987518Y2703402D01*
X988746Y2703061D01*
X989487Y2701271D01*
X1001271Y2689487D01*
X1016668Y2683110D01*
X1033332D01*
X1048729Y2689487D01*
X1060512Y2701271D01*
X1066890Y2716667D01*
Y2733332D01*
X1060512Y2748729D01*
X1048729Y2760512D01*
X1033332Y2766890D01*
X1016668D01*
X1001271Y2760512D01*
X996606Y2755847D01*
X983906Y2761108D01*
Y2778112D01*
X976839Y2813639D01*
X962977Y2847105D01*
X942853Y2877223D01*
X917239Y2902837D01*
X887121Y2922961D01*
X853655Y2936823D01*
X818128Y2943890D01*
D02*
G37*
G36*
X-43657Y2710715D02*
X-56344D01*
X-68064Y2705860D01*
X-77035Y2696889D01*
X-81890Y2685168D01*
Y2672482D01*
X-77035Y2660761D01*
X-68064Y2651790D01*
X-56344Y2646935D01*
X-43657D01*
X-31936Y2651790D01*
X-22965Y2660761D01*
X-18110Y2672482D01*
Y2685168D01*
X-22965Y2696889D01*
X-31936Y2705860D01*
X-43657Y2710715D01*
D02*
G37*
G36*
X-727879Y2721890D02*
X-744544D01*
X-759940Y2715513D01*
X-771724Y2703729D01*
X-778101Y2688333D01*
Y2671668D01*
X-771724Y2656272D01*
X-759940Y2644488D01*
X-744544Y2638111D01*
X-727879D01*
X-712483Y2644488D01*
X-700699Y2656272D01*
X-694321Y2671668D01*
Y2688333D01*
X-700699Y2703729D01*
X-712483Y2715513D01*
X-727879Y2721890D01*
D02*
G37*
G36*
X-969781Y2506718D02*
X-986446D01*
X-1001842Y2500340D01*
X-1013626Y2488557D01*
X-1020003Y2473160D01*
Y2456495D01*
X-1013626Y2441099D01*
X-1001842Y2429315D01*
X-986446Y2422938D01*
X-969781D01*
X-954385Y2429315D01*
X-942601Y2441099D01*
X-936223Y2456495D01*
Y2473160D01*
X-942601Y2488557D01*
X-954385Y2500340D01*
X-969781Y2506718D01*
D02*
G37*
G36*
X-727879Y2501890D02*
X-744544D01*
X-759940Y2495513D01*
X-771724Y2483729D01*
X-778101Y2468333D01*
Y2451668D01*
X-771724Y2436272D01*
X-759940Y2424488D01*
X-744544Y2418110D01*
X-727879D01*
X-712483Y2424488D01*
X-700699Y2436272D01*
X-694321Y2451668D01*
Y2468333D01*
X-700699Y2483729D01*
X-712483Y2495513D01*
X-727879Y2501890D01*
D02*
G37*
G36*
X1019583Y2416890D02*
X1002918D01*
X987522Y2410512D01*
X975738Y2398729D01*
X970771Y2386738D01*
X958332Y2391890D01*
X941667D01*
X926271Y2385513D01*
X914487Y2373729D01*
X908110Y2358333D01*
Y2341890D01*
X891668D01*
X876271Y2335512D01*
X864487Y2323729D01*
X858110Y2308332D01*
Y2291668D01*
X864487Y2276271D01*
X876271Y2264487D01*
X891668Y2258110D01*
X908332D01*
X923729Y2264487D01*
X935512Y2276271D01*
X941890Y2291668D01*
Y2308110D01*
X958332D01*
X973729Y2314488D01*
X985512Y2326271D01*
X990479Y2338262D01*
X1002918Y2333110D01*
X1019583D01*
X1034979Y2339487D01*
X1046763Y2351271D01*
X1053140Y2366667D01*
Y2383332D01*
X1046763Y2398729D01*
X1034979Y2410512D01*
X1019583Y2416890D01*
D02*
G37*
G36*
X-1980783Y2454390D02*
X-2003217D01*
X-2023942Y2445805D01*
X-2039805Y2429942D01*
X-2048390Y2409216D01*
Y2386783D01*
X-2039805Y2366057D01*
X-2023942Y2350195D01*
X-2003217Y2341610D01*
X-1980783D01*
X-1960058Y2350195D01*
X-1944195Y2366057D01*
X-1935610Y2386783D01*
Y2409216D01*
X-1944195Y2429942D01*
X-1960058Y2445805D01*
X-1980783Y2454390D01*
D02*
G37*
G36*
X56343Y2288211D02*
X43657D01*
X31936Y2283356D01*
X22965Y2274386D01*
X18110Y2262665D01*
Y2249978D01*
X22965Y2238257D01*
X31936Y2229286D01*
X43657Y2224431D01*
X56343D01*
X68064Y2229286D01*
X77035Y2238257D01*
X81890Y2249978D01*
Y2262665D01*
X77035Y2274386D01*
X68064Y2283356D01*
X56343Y2288211D01*
D02*
G37*
G36*
X-141667Y2241890D02*
X-158332D01*
X-173729Y2235512D01*
X-185512Y2223729D01*
X-191890Y2208332D01*
Y2191667D01*
X-185512Y2176271D01*
X-173729Y2164487D01*
X-158332Y2158110D01*
X-141667D01*
X-126271Y2164487D01*
X-114487Y2176271D01*
X-108110Y2191667D01*
Y2208332D01*
X-114487Y2223729D01*
X-126271Y2235512D01*
X-141667Y2241890D01*
D02*
G37*
G36*
X458333Y2191890D02*
X441668D01*
X426271Y2185513D01*
X414488Y2173729D01*
X408110Y2158332D01*
Y2141668D01*
X414488Y2126271D01*
X426271Y2114488D01*
X441668Y2108110D01*
X458333D01*
X473729Y2114488D01*
X485513Y2126271D01*
X491890Y2141668D01*
Y2158332D01*
X485513Y2173729D01*
X473729Y2185513D01*
X458333Y2191890D01*
D02*
G37*
G36*
X358333D02*
X341668D01*
X326271Y2185513D01*
X314488Y2173729D01*
X308110Y2158332D01*
Y2141668D01*
X314488Y2126271D01*
X326271Y2114488D01*
X341668Y2108110D01*
X358333D01*
X373729Y2114488D01*
X385513Y2126271D01*
X391890Y2141668D01*
Y2158332D01*
X385513Y2173729D01*
X373729Y2185513D01*
X358333Y2191890D01*
D02*
G37*
G36*
X258332D02*
X241668D01*
X226271Y2185513D01*
X214488Y2173729D01*
X208110Y2158332D01*
Y2141668D01*
X214488Y2126271D01*
X226271Y2114488D01*
X241668Y2108110D01*
X258332D01*
X273729Y2114488D01*
X285513Y2126271D01*
X291890Y2141668D01*
Y2158332D01*
X285513Y2173729D01*
X273729Y2185513D01*
X258332Y2191890D01*
D02*
G37*
G36*
X-1450121Y2171890D02*
X-1466786D01*
X-1482182Y2165513D01*
X-1493966Y2153729D01*
X-1500343Y2138333D01*
Y2121668D01*
X-1493966Y2106271D01*
X-1482182Y2094488D01*
X-1466786Y2088110D01*
X-1450121D01*
X-1434725Y2094488D01*
X-1422941Y2106271D01*
X-1416564Y2121668D01*
Y2138333D01*
X-1422941Y2153729D01*
X-1434725Y2165513D01*
X-1450121Y2171890D01*
D02*
G37*
G36*
X958332Y2141890D02*
X941667D01*
X926271Y2135513D01*
X914487Y2123729D01*
X908110Y2108333D01*
Y2091668D01*
X914487Y2076271D01*
X926271Y2064488D01*
X941667Y2058110D01*
X958332D01*
X973729Y2064488D01*
X985512Y2076271D01*
X991890Y2091668D01*
Y2108333D01*
X985512Y2123729D01*
X973729Y2135513D01*
X958332Y2141890D01*
D02*
G37*
G36*
X358333Y2091890D02*
X341668D01*
X326271Y2085512D01*
X314488Y2073729D01*
X308110Y2058332D01*
Y2041667D01*
X314488Y2026271D01*
X326271Y2014487D01*
X341668Y2008110D01*
X358333D01*
X373729Y2014487D01*
X385513Y2026271D01*
X391890Y2041667D01*
Y2058332D01*
X385513Y2073729D01*
X373729Y2085512D01*
X358333Y2091890D01*
D02*
G37*
G36*
X258332D02*
X241668D01*
X226271Y2085512D01*
X214488Y2073729D01*
X208110Y2058332D01*
Y2041667D01*
X214488Y2026271D01*
X226271Y2014487D01*
X241668Y2008110D01*
X258332D01*
X273729Y2014487D01*
X285513Y2026271D01*
X291890Y2041667D01*
Y2058332D01*
X285513Y2073729D01*
X273729Y2085512D01*
X258332Y2091890D01*
D02*
G37*
G36*
X-727879D02*
X-744544D01*
X-759940Y2085512D01*
X-771724Y2073729D01*
X-778102Y2058332D01*
Y2041667D01*
X-771724Y2026271D01*
X-759940Y2014487D01*
X-744544Y2008110D01*
X-727879D01*
X-712483Y2014487D01*
X-700699Y2026271D01*
X-694322Y2041667D01*
Y2058332D01*
X-700699Y2073729D01*
X-712483Y2085512D01*
X-727879Y2091890D01*
D02*
G37*
G36*
X-191668Y2041890D02*
X-208333D01*
X-223729Y2035513D01*
X-235513Y2023729D01*
X-241890Y2008333D01*
Y1991668D01*
X-235513Y1976271D01*
X-223729Y1964488D01*
X-208333Y1958110D01*
X-191668D01*
X-176271Y1964488D01*
X-164488Y1976271D01*
X-158110Y1991668D01*
Y2008333D01*
X-164488Y2023729D01*
X-176271Y2035513D01*
X-191668Y2041890D01*
D02*
G37*
G36*
X-291667D02*
X-308332D01*
X-323729Y2035513D01*
X-335512Y2023729D01*
X-341890Y2008333D01*
Y1991668D01*
X-335512Y1976271D01*
X-323729Y1964488D01*
X-308332Y1958110D01*
X-291667D01*
X-276271Y1964488D01*
X-264487Y1976271D01*
X-258110Y1991668D01*
Y2008333D01*
X-264487Y2023729D01*
X-276271Y2035513D01*
X-291667Y2041890D01*
D02*
G37*
G36*
X-391667D02*
X-408332D01*
X-423729Y2035513D01*
X-435512Y2023729D01*
X-441890Y2008333D01*
Y1991668D01*
X-435512Y1976271D01*
X-423729Y1964488D01*
X-408332Y1958110D01*
X-391667D01*
X-376271Y1964488D01*
X-364487Y1976271D01*
X-358110Y1991668D01*
Y2008333D01*
X-364487Y2023729D01*
X-376271Y2035513D01*
X-391667Y2041890D01*
D02*
G37*
G36*
X-727879Y1951890D02*
X-744544D01*
X-759940Y1945512D01*
X-771724Y1933729D01*
X-778102Y1918332D01*
Y1901668D01*
X-771724Y1886271D01*
X-759940Y1874487D01*
X-744544Y1868110D01*
X-727879D01*
X-712483Y1874487D01*
X-700699Y1886271D01*
X-694322Y1901668D01*
Y1918332D01*
X-700699Y1933729D01*
X-712483Y1945512D01*
X-727879Y1951890D01*
D02*
G37*
G36*
X-191668Y1916889D02*
X-208333D01*
X-223729Y1910512D01*
X-235513Y1898728D01*
X-241890Y1883332D01*
Y1866667D01*
X-235513Y1851271D01*
X-223729Y1839487D01*
X-208333Y1833110D01*
X-191668D01*
X-176272Y1839487D01*
X-164488Y1851271D01*
X-158110Y1866667D01*
Y1883332D01*
X-164488Y1898728D01*
X-176272Y1910512D01*
X-191668Y1916889D01*
D02*
G37*
G36*
X-291667Y1891890D02*
X-308332D01*
X-323729Y1885513D01*
X-335512Y1873729D01*
X-341890Y1858333D01*
Y1841668D01*
X-335512Y1826271D01*
X-323729Y1814488D01*
X-308332Y1808110D01*
X-291667D01*
X-276271Y1814488D01*
X-264487Y1826271D01*
X-258110Y1841668D01*
Y1858333D01*
X-264487Y1873729D01*
X-276271Y1885513D01*
X-291667Y1891890D01*
D02*
G37*
G36*
X-428376Y1888734D02*
X-445041D01*
X-460437Y1882356D01*
X-472221Y1870573D01*
X-478598Y1855176D01*
Y1838511D01*
X-472221Y1823115D01*
X-460437Y1811331D01*
X-445041Y1804954D01*
X-428376D01*
X-412979Y1811331D01*
X-401196Y1823115D01*
X-394818Y1838511D01*
Y1855176D01*
X-401196Y1870573D01*
X-412979Y1882356D01*
X-428376Y1888734D01*
D02*
G37*
G36*
X808332Y1871890D02*
X791667D01*
X776271Y1865513D01*
X764487Y1853729D01*
X758110Y1838333D01*
Y1821668D01*
X764487Y1806271D01*
X776271Y1794488D01*
X791667Y1788110D01*
X808332D01*
X823728Y1794488D01*
X835512Y1806271D01*
X841890Y1821668D01*
Y1838333D01*
X835512Y1853729D01*
X823728Y1865513D01*
X808332Y1871890D01*
D02*
G37*
G36*
X1108333Y1871890D02*
X1091668D01*
X1076271Y1865512D01*
X1064488Y1853728D01*
X1058110Y1838332D01*
Y1821667D01*
X1064488Y1806271D01*
X1076271Y1794487D01*
X1091668Y1788110D01*
X1108333D01*
X1123729Y1794487D01*
X1135513Y1806271D01*
X1141890Y1821667D01*
Y1838332D01*
X1135513Y1853728D01*
X1123729Y1865512D01*
X1108333Y1871890D01*
D02*
G37*
G36*
X1008333D02*
X991668D01*
X976271Y1865512D01*
X964488Y1853728D01*
X958110Y1838332D01*
Y1821667D01*
X964488Y1806271D01*
X976271Y1794487D01*
X991668Y1788110D01*
X1008333D01*
X1023729Y1794487D01*
X1035513Y1806271D01*
X1041890Y1821667D01*
Y1838332D01*
X1035513Y1853728D01*
X1023729Y1865512D01*
X1008333Y1871890D01*
D02*
G37*
G36*
X908332D02*
X891668D01*
X876271Y1865512D01*
X864487Y1853728D01*
X858110Y1838332D01*
Y1821667D01*
X864487Y1806271D01*
X876271Y1794487D01*
X891668Y1788110D01*
X908332D01*
X923729Y1794487D01*
X935512Y1806271D01*
X941890Y1821667D01*
Y1838332D01*
X935512Y1853728D01*
X923729Y1865512D01*
X908332Y1871890D01*
D02*
G37*
G36*
X-541667Y1741890D02*
X-558332D01*
X-573729Y1735513D01*
X-585512Y1723729D01*
X-591890Y1708333D01*
Y1700000D01*
X-658110D01*
Y1708332D01*
X-664488Y1723729D01*
X-676271Y1735512D01*
X-691668Y1741890D01*
X-708333D01*
X-723729Y1735512D01*
X-735513Y1723729D01*
X-741890Y1708332D01*
Y1691667D01*
X-735513Y1676271D01*
X-723729Y1664487D01*
X-708333Y1658110D01*
X-700000D01*
Y1541890D01*
X-708333D01*
X-723729Y1535513D01*
X-735513Y1523729D01*
X-741890Y1508333D01*
Y1491668D01*
X-735513Y1476271D01*
X-723729Y1464488D01*
X-708333Y1458110D01*
X-700000D01*
Y1341890D01*
X-708333D01*
X-723729Y1335512D01*
X-735513Y1323729D01*
X-741890Y1308332D01*
Y1291667D01*
X-735513Y1276271D01*
X-723729Y1264487D01*
X-708333Y1258110D01*
X-700000D01*
Y1141890D01*
X-708333D01*
X-723729Y1135513D01*
X-735513Y1123729D01*
X-741890Y1108333D01*
Y1091668D01*
X-735513Y1076271D01*
X-723729Y1064488D01*
X-708333Y1058110D01*
X-700000D01*
Y941890D01*
X-708333D01*
X-723729Y935512D01*
X-735513Y923729D01*
X-741890Y908332D01*
Y891668D01*
X-735513Y876271D01*
X-723729Y864487D01*
X-708333Y858110D01*
X-700000D01*
Y741890D01*
X-708333D01*
X-723729Y735513D01*
X-735513Y723729D01*
X-741890Y708333D01*
Y691668D01*
X-735513Y676271D01*
X-723729Y664488D01*
X-708333Y658110D01*
X-700000D01*
Y541890D01*
X-708333D01*
X-723729Y535513D01*
X-735513Y523729D01*
X-741890Y508333D01*
Y491668D01*
X-735513Y476272D01*
X-723729Y464488D01*
X-708333Y458110D01*
X-700000D01*
Y341890D01*
X-708333D01*
X-723729Y335512D01*
X-735513Y323729D01*
X-741890Y308332D01*
Y291667D01*
X-735513Y276271D01*
X-723729Y264487D01*
X-708333Y258110D01*
X-700000D01*
Y141890D01*
X-708333D01*
X-723729Y135513D01*
X-735513Y123729D01*
X-741890Y108333D01*
Y91668D01*
X-735513Y76271D01*
X-723729Y64488D01*
X-708333Y58110D01*
X-700000D01*
Y-58110D01*
X-708333D01*
X-723729Y-64488D01*
X-735513Y-76271D01*
X-741890Y-91668D01*
Y-108333D01*
X-735513Y-123729D01*
X-723729Y-135513D01*
X-708333Y-141890D01*
X-700000D01*
Y-258110D01*
X-708333D01*
X-723729Y-264487D01*
X-735513Y-276271D01*
X-741890Y-291667D01*
Y-308332D01*
X-735513Y-323729D01*
X-723729Y-335512D01*
X-708333Y-341890D01*
X-700000D01*
Y-658110D01*
X-708333D01*
X-723729Y-664488D01*
X-735513Y-676271D01*
X-741890Y-691668D01*
Y-708333D01*
X-735513Y-723729D01*
X-723729Y-735513D01*
X-708333Y-741890D01*
X-691668D01*
X-676271Y-735513D01*
X-664488Y-723729D01*
X-658110Y-708333D01*
Y-699999D01*
X-541888D01*
Y-708332D01*
X-535510Y-723728D01*
X-523726Y-735512D01*
X-508330Y-741889D01*
X-491665D01*
X-476269Y-735512D01*
X-464485Y-723728D01*
X-458108Y-708332D01*
Y-699999D01*
X-341888D01*
Y-708332D01*
X-335510Y-723728D01*
X-323727Y-735512D01*
X-308330Y-741889D01*
X-291665D01*
X-276269Y-735512D01*
X-264485Y-723728D01*
X-258108Y-708332D01*
Y-699999D01*
X58112D01*
Y-708332D01*
X64489Y-723728D01*
X76273Y-735512D01*
X91669Y-741889D01*
X108334D01*
X123731Y-735512D01*
X135514Y-723728D01*
X141892Y-708332D01*
Y-699999D01*
X258112D01*
Y-708332D01*
X264489Y-723728D01*
X276273Y-735512D01*
X291669Y-741889D01*
X308334D01*
X323730Y-735512D01*
X335514Y-723728D01*
X341892Y-708332D01*
Y-699999D01*
X458112D01*
Y-708332D01*
X464489Y-723728D01*
X476273Y-735512D01*
X491669Y-741889D01*
X508334D01*
X523730Y-735512D01*
X535514Y-723728D01*
X541891Y-708332D01*
Y-699999D01*
X658111D01*
Y-708332D01*
X664489Y-723728D01*
X676273Y-735512D01*
X691669Y-741889D01*
X708334D01*
X723730Y-735512D01*
X735514Y-723728D01*
X741891Y-708332D01*
Y-699999D01*
X858111D01*
Y-708332D01*
X864489Y-723728D01*
X876273Y-735512D01*
X891669Y-741889D01*
X908334D01*
X923730Y-735512D01*
X935514Y-723728D01*
X941891Y-708332D01*
Y-699999D01*
X1058111D01*
Y-708332D01*
X1064489Y-723728D01*
X1076272Y-735512D01*
X1091669Y-741889D01*
X1108334D01*
X1123730Y-735512D01*
X1135514Y-723728D01*
X1141891Y-708332D01*
Y-699999D01*
X1258111D01*
Y-708332D01*
X1264488Y-723728D01*
X1276272Y-735512D01*
X1291668Y-741889D01*
X1308333D01*
X1323730Y-735512D01*
X1335513Y-723728D01*
X1341891Y-708332D01*
Y-699999D01*
X1458111D01*
Y-708332D01*
X1464488Y-723728D01*
X1476272Y-735512D01*
X1491668Y-741889D01*
X1508333D01*
X1523729Y-735512D01*
X1535513Y-723728D01*
X1541891Y-708332D01*
Y-699999D01*
X1658111D01*
Y-708332D01*
X1664488Y-723728D01*
X1676272Y-735512D01*
X1691668Y-741889D01*
X1708333D01*
X1723729Y-735512D01*
X1735513Y-723728D01*
X1741891Y-708332D01*
Y-699999D01*
X1858111D01*
Y-708332D01*
X1864488Y-723728D01*
X1876272Y-735512D01*
X1891668Y-741889D01*
X1908333D01*
X1923729Y-735512D01*
X1935513Y-723728D01*
X1941890Y-708332D01*
Y-699999D01*
X2058110D01*
Y-708332D01*
X2064488Y-723728D01*
X2076272Y-735512D01*
X2091668Y-741889D01*
X2108333D01*
X2123729Y-735512D01*
X2135513Y-723728D01*
X2141890Y-708332D01*
Y-699999D01*
X2258110D01*
Y-708332D01*
X2264488Y-723728D01*
X2276272Y-735512D01*
X2291668Y-741889D01*
X2308333D01*
X2323729Y-735512D01*
X2335513Y-723728D01*
X2341890Y-708332D01*
Y-699999D01*
X2458110D01*
Y-708332D01*
X2464488Y-723728D01*
X2476271Y-735512D01*
X2491668Y-741889D01*
X2508333D01*
X2523729Y-735512D01*
X2535513Y-723728D01*
X2541890Y-708332D01*
Y-691667D01*
X2535513Y-676270D01*
X2523729Y-664487D01*
X2508333Y-658109D01*
X2500000D01*
Y-541889D01*
X2508333D01*
X2523729Y-535512D01*
X2535513Y-523728D01*
X2541890Y-508332D01*
Y-491667D01*
X2535513Y-476271D01*
X2523729Y-464487D01*
X2508333Y-458109D01*
X2500000D01*
Y-341889D01*
X2508333D01*
X2523729Y-335512D01*
X2535513Y-323728D01*
X2541890Y-308332D01*
Y-291667D01*
X2535513Y-276271D01*
X2523729Y-264487D01*
X2508333Y-258109D01*
X2500000D01*
Y-141889D01*
X2508333D01*
X2523729Y-135512D01*
X2535513Y-123728D01*
X2541890Y-108332D01*
Y-91667D01*
X2535513Y-76271D01*
X2523729Y-64487D01*
X2508333Y-58110D01*
X2500000D01*
Y58110D01*
X2508333D01*
X2523729Y64488D01*
X2535513Y76272D01*
X2541890Y91668D01*
Y108333D01*
X2535513Y123729D01*
X2523729Y135513D01*
X2508333Y141890D01*
X2500000D01*
Y258110D01*
X2508333D01*
X2523729Y264488D01*
X2535513Y276271D01*
X2541890Y291668D01*
Y308333D01*
X2535513Y323729D01*
X2523729Y335513D01*
X2508333Y341890D01*
X2500000D01*
Y458111D01*
X2508332D01*
X2523729Y464488D01*
X2535512Y476272D01*
X2541890Y491668D01*
Y508333D01*
X2535512Y523729D01*
X2523729Y535513D01*
X2508332Y541891D01*
X2500000D01*
Y658111D01*
X2508332D01*
X2523729Y664488D01*
X2535512Y676272D01*
X2541890Y691668D01*
Y708333D01*
X2535512Y723729D01*
X2523729Y735513D01*
X2508332Y741891D01*
X2500000D01*
Y858111D01*
X2508332D01*
X2523729Y864488D01*
X2535512Y876272D01*
X2541890Y891668D01*
Y908333D01*
X2535512Y923729D01*
X2523729Y935513D01*
X2508332Y941890D01*
X2500000D01*
Y1058110D01*
X2508332D01*
X2523729Y1064488D01*
X2535512Y1076272D01*
X2541890Y1091668D01*
Y1108333D01*
X2535512Y1123729D01*
X2523729Y1135513D01*
X2508332Y1141890D01*
X2500000D01*
Y1258110D01*
X2508332D01*
X2523729Y1264488D01*
X2535512Y1276272D01*
X2541890Y1291668D01*
Y1308333D01*
X2535512Y1323729D01*
X2523729Y1335513D01*
X2508332Y1341890D01*
X2500000D01*
Y1458110D01*
X2508332D01*
X2523729Y1464488D01*
X2535512Y1476271D01*
X2541890Y1491668D01*
Y1508333D01*
X2535512Y1523729D01*
X2523729Y1535513D01*
X2508332Y1541890D01*
X2500000D01*
Y1658110D01*
X2508332D01*
X2523729Y1664487D01*
X2535512Y1676271D01*
X2541890Y1691667D01*
Y1708332D01*
X2535512Y1723729D01*
X2523729Y1735512D01*
X2508332Y1741890D01*
X2491667D01*
X2476271Y1735512D01*
X2464487Y1723729D01*
X2458110Y1708332D01*
Y1700000D01*
X2341890D01*
Y1708332D01*
X2335512Y1723729D01*
X2323729Y1735512D01*
X2308332Y1741890D01*
X2291668D01*
X2276271Y1735512D01*
X2264487Y1723729D01*
X2258110Y1708332D01*
Y1700000D01*
X1941890D01*
Y1708332D01*
X1935513Y1723729D01*
X1923729Y1735512D01*
X1908332Y1741890D01*
X1891668D01*
X1876271Y1735512D01*
X1864488Y1723729D01*
X1858110Y1708332D01*
Y1700000D01*
X1741890D01*
Y1708332D01*
X1735512Y1723729D01*
X1723729Y1735512D01*
X1708332Y1741890D01*
X1691667D01*
X1676271Y1735512D01*
X1664487Y1723729D01*
X1658110Y1708332D01*
Y1700000D01*
X1541890D01*
Y1708332D01*
X1535513Y1723729D01*
X1523729Y1735512D01*
X1508333Y1741890D01*
X1491668D01*
X1476271Y1735512D01*
X1464488Y1723729D01*
X1458110Y1708332D01*
Y1700000D01*
X-508110D01*
Y1708333D01*
X-514487Y1723729D01*
X-526271Y1735513D01*
X-541667Y1741890D01*
D02*
G37*
G36*
X-1980784Y1774390D02*
X-2003217D01*
X-2023943Y1765805D01*
X-2039805Y1749942D01*
X-2048390Y1729216D01*
Y1706783D01*
X-2039805Y1686057D01*
X-2023943Y1670195D01*
X-2003217Y1661610D01*
X-1980784D01*
X-1960058Y1670195D01*
X-1944195Y1686057D01*
X-1935610Y1706783D01*
Y1729216D01*
X-1944195Y1749942D01*
X-1960058Y1765805D01*
X-1980784Y1774390D01*
D02*
G37*
G36*
X-1841668Y1091890D02*
X-1858333D01*
X-1873729Y1085512D01*
X-1885513Y1073729D01*
X-1891890Y1058332D01*
Y1041667D01*
X-1885513Y1026271D01*
X-1873729Y1014487D01*
X-1858333Y1008110D01*
X-1841668D01*
X-1826271Y1014487D01*
X-1814488Y1026271D01*
X-1808110Y1041667D01*
Y1058332D01*
X-1814488Y1073729D01*
X-1826271Y1085512D01*
X-1841668Y1091890D01*
D02*
G37*
G36*
X-1541667Y916890D02*
X-1558332D01*
X-1573729Y910513D01*
X-1585512Y898729D01*
X-1591890Y883332D01*
Y866668D01*
X-1585512Y851271D01*
X-1573729Y839488D01*
X-1558332Y833110D01*
X-1541667D01*
X-1526271Y839488D01*
X-1514487Y851271D01*
X-1508110Y866668D01*
Y883332D01*
X-1514487Y898729D01*
X-1526271Y910513D01*
X-1541667Y916890D01*
D02*
G37*
G36*
X-1841668Y741890D02*
X-1858333D01*
X-1873729Y735513D01*
X-1885513Y723729D01*
X-1891890Y708333D01*
Y691668D01*
X-1885513Y676271D01*
X-1873729Y664488D01*
X-1858333Y658110D01*
X-1841668D01*
X-1826271Y664488D01*
X-1814488Y676271D01*
X-1808110Y691668D01*
Y708333D01*
X-1814488Y723729D01*
X-1826271Y735513D01*
X-1841668Y741890D01*
D02*
G37*
G36*
X-1141668Y621890D02*
X-1158332D01*
X-1173729Y615512D01*
X-1185512Y603729D01*
X-1191890Y588332D01*
Y571667D01*
X-1185512Y556271D01*
X-1173729Y544487D01*
X-1158332Y538110D01*
X-1141668D01*
X-1126271Y544487D01*
X-1114487Y556271D01*
X-1108110Y571667D01*
Y588332D01*
X-1114487Y603729D01*
X-1126271Y615512D01*
X-1141668Y621890D01*
D02*
G37*
G36*
X-1041668Y621890D02*
X-1058333D01*
X-1073729Y615512D01*
X-1085513Y603728D01*
X-1091890Y588332D01*
Y571667D01*
X-1085513Y556271D01*
X-1073729Y544487D01*
X-1058333Y538110D01*
X-1041668D01*
X-1026272Y544487D01*
X-1014488Y556271D01*
X-1008110Y571667D01*
Y588332D01*
X-1014488Y603728D01*
X-1026272Y615512D01*
X-1041668Y621890D01*
D02*
G37*
G36*
X-1450121Y599417D02*
X-1466786D01*
X-1482182Y593039D01*
X-1493966Y581255D01*
X-1500343Y565859D01*
Y549194D01*
X-1493966Y533798D01*
X-1482182Y522014D01*
X-1466786Y515637D01*
X-1450121D01*
X-1434725Y522014D01*
X-1422941Y533798D01*
X-1416564Y549194D01*
Y565859D01*
X-1422941Y581255D01*
X-1434725Y593039D01*
X-1450121Y599417D01*
D02*
G37*
G36*
X-1986767Y330390D02*
X-2003233D01*
X-2018445Y324089D01*
X-2030089Y312445D01*
X-2036390Y297233D01*
Y280767D01*
X-2030089Y265554D01*
X-2018445Y253911D01*
X-2003233Y247610D01*
X-1986767D01*
X-1971554Y253911D01*
X-1959911Y265554D01*
X-1953610Y280767D01*
Y297233D01*
X-1959911Y312445D01*
X-1971554Y324089D01*
X-1986767Y330390D01*
D02*
G37*
G36*
X-1773656Y106890D02*
X-1786343D01*
X-1798064Y102035D01*
X-1807035Y93064D01*
X-1811890Y81343D01*
Y68657D01*
X-1807035Y56936D01*
X-1798064Y47965D01*
X-1786343Y43110D01*
X-1773656D01*
X-1761936Y47965D01*
X-1752965Y56936D01*
X-1748110Y68657D01*
Y81343D01*
X-1752965Y93064D01*
X-1761936Y102035D01*
X-1773656Y106890D01*
D02*
G37*
G36*
Y6890D02*
X-1786343D01*
X-1798064Y2035D01*
X-1807035Y-6936D01*
X-1811890Y-18657D01*
Y-31343D01*
X-1807035Y-43064D01*
X-1798064Y-52035D01*
X-1786343Y-56890D01*
X-1773656D01*
X-1761936Y-52035D01*
X-1752965Y-43064D01*
X-1748110Y-31343D01*
Y-18657D01*
X-1752965Y-6936D01*
X-1761936Y2035D01*
X-1773656Y6890D01*
D02*
G37*
G36*
X-841668Y-8110D02*
X-858333D01*
X-873729Y-14487D01*
X-885513Y-26271D01*
X-891890Y-41667D01*
Y-58332D01*
X-885513Y-73729D01*
X-873729Y-85512D01*
X-858333Y-91890D01*
X-841668D01*
X-826271Y-85512D01*
X-814488Y-73729D01*
X-808110Y-58332D01*
Y-41667D01*
X-814488Y-26271D01*
X-826271Y-14487D01*
X-841668Y-8110D01*
D02*
G37*
G36*
X-1671667Y-58110D02*
X-1688332D01*
X-1703729Y-64488D01*
X-1715512Y-76271D01*
X-1721890Y-91668D01*
Y-108333D01*
X-1715512Y-123729D01*
X-1703729Y-135513D01*
X-1688332Y-141890D01*
X-1671667D01*
X-1656271Y-135513D01*
X-1644487Y-123729D01*
X-1638110Y-108333D01*
Y-91668D01*
X-1644487Y-76271D01*
X-1656271Y-64488D01*
X-1671667Y-58110D01*
D02*
G37*
G36*
X-841668Y-108110D02*
X-858333D01*
X-873729Y-114487D01*
X-885513Y-126271D01*
X-891890Y-141667D01*
Y-158332D01*
X-885513Y-173729D01*
X-873729Y-185512D01*
X-858333Y-191890D01*
X-841668D01*
X-826271Y-185512D01*
X-814488Y-173729D01*
X-808110Y-158332D01*
Y-141667D01*
X-814488Y-126271D01*
X-826271Y-114487D01*
X-841668Y-108110D01*
D02*
G37*
G36*
X-1986767Y-247610D02*
X-2003233D01*
X-2018445Y-253911D01*
X-2030089Y-265554D01*
X-2036390Y-280767D01*
Y-297233D01*
X-2030089Y-312445D01*
X-2018445Y-324089D01*
X-2003233Y-330390D01*
X-1986767D01*
X-1971554Y-324089D01*
X-1959911Y-312445D01*
X-1953610Y-297233D01*
Y-280767D01*
X-1959911Y-265554D01*
X-1971554Y-253911D01*
X-1986767Y-247610D01*
D02*
G37*
G36*
X-971658Y-288113D02*
X-988323D01*
X-1003719Y-294490D01*
X-1015503Y-306274D01*
X-1021881Y-321670D01*
Y-338335D01*
X-1015503Y-353731D01*
X-1003719Y-365515D01*
X-988323Y-371893D01*
X-971658D01*
X-956262Y-365515D01*
X-944478Y-353731D01*
X-938101Y-338335D01*
Y-321670D01*
X-944478Y-306274D01*
X-956262Y-294490D01*
X-971658Y-288113D01*
D02*
G37*
G36*
X-941667Y-558110D02*
X-958332D01*
X-973729Y-564488D01*
X-985512Y-576271D01*
X-991890Y-591668D01*
Y-608110D01*
X-1008110D01*
Y-591668D01*
X-1014487Y-576271D01*
X-1026271Y-564488D01*
X-1041667Y-558110D01*
X-1058332D01*
X-1073729Y-564488D01*
X-1085512Y-576271D01*
X-1091890Y-591668D01*
Y-608110D01*
X-1108333D01*
X-1123729Y-614487D01*
X-1135513Y-626271D01*
X-1141890Y-641667D01*
Y-658110D01*
X-1158332D01*
X-1173729Y-664488D01*
X-1185512Y-676271D01*
X-1191890Y-691668D01*
Y-708333D01*
X-1185512Y-723729D01*
X-1173729Y-735513D01*
X-1158332Y-741890D01*
X-1141668D01*
X-1126271Y-735513D01*
X-1114487Y-723729D01*
X-1108110Y-708333D01*
Y-691890D01*
X-1091890D01*
Y-708333D01*
X-1085512Y-723729D01*
X-1073729Y-735513D01*
X-1058332Y-741890D01*
X-1041667D01*
X-1026271Y-735513D01*
X-1014487Y-723729D01*
X-1008110Y-708333D01*
Y-691890D01*
X-991890D01*
Y-708333D01*
X-985512Y-723729D01*
X-973729Y-735513D01*
X-958332Y-741890D01*
X-941667D01*
X-926271Y-735513D01*
X-914487Y-723729D01*
X-908110Y-708333D01*
Y-691668D01*
X-914487Y-676271D01*
X-926271Y-664488D01*
X-941667Y-658110D01*
X-958110D01*
Y-641890D01*
X-941667D01*
X-926271Y-635513D01*
X-914487Y-623729D01*
X-908110Y-608333D01*
Y-591668D01*
X-914487Y-576271D01*
X-926271Y-564488D01*
X-941667Y-558110D01*
D02*
G37*
G36*
X-1441667Y-508110D02*
X-1458332D01*
X-1473729Y-514487D01*
X-1485512Y-526271D01*
X-1491890Y-541667D01*
Y-558332D01*
X-1485512Y-573729D01*
X-1473729Y-585512D01*
X-1458332Y-591890D01*
X-1441890D01*
Y-608110D01*
X-1458332D01*
X-1473728Y-614488D01*
X-1485512Y-626272D01*
X-1491889Y-641668D01*
Y-658333D01*
X-1485512Y-673729D01*
X-1473728Y-685513D01*
X-1458332Y-691890D01*
X-1441667D01*
X-1426271Y-685513D01*
X-1414487Y-673729D01*
X-1408109Y-658333D01*
Y-641890D01*
X-1391890D01*
Y-658333D01*
X-1385512Y-673729D01*
X-1373728Y-685513D01*
X-1358332Y-691890D01*
X-1341667D01*
X-1326271Y-685513D01*
X-1314487Y-673729D01*
X-1308110Y-658333D01*
Y-641668D01*
X-1314487Y-626272D01*
X-1326271Y-614488D01*
X-1341667Y-608110D01*
X-1358110D01*
Y-591890D01*
X-1341667D01*
X-1326271Y-585513D01*
X-1314487Y-573729D01*
X-1308110Y-558333D01*
Y-541668D01*
X-1314487Y-526272D01*
X-1326271Y-514488D01*
X-1341667Y-508110D01*
X-1358332D01*
X-1373728Y-514488D01*
X-1385512Y-526272D01*
X-1391890Y-541668D01*
Y-558110D01*
X-1408110D01*
Y-541667D01*
X-1414487Y-526271D01*
X-1426271Y-514487D01*
X-1441667Y-508110D01*
D02*
G37*
G36*
X-95749Y-1093428D02*
X-112414D01*
X-127810Y-1099806D01*
X-139594Y-1111590D01*
X-141875Y-1117098D01*
X-155622D01*
X-157903Y-1111590D01*
X-169687Y-1099806D01*
X-185083Y-1093428D01*
X-201748D01*
X-217145Y-1099806D01*
X-228928Y-1111590D01*
X-235306Y-1126986D01*
Y-1143651D01*
X-228928Y-1159047D01*
X-217145Y-1170831D01*
X-211636Y-1173112D01*
Y-1186859D01*
X-217144Y-1189141D01*
X-228928Y-1200924D01*
X-235305Y-1216321D01*
Y-1232986D01*
X-228928Y-1248382D01*
X-217144Y-1260166D01*
X-201748Y-1266543D01*
X-185083D01*
X-169687Y-1260166D01*
X-157903Y-1248382D01*
X-155621Y-1242874D01*
X-141875D01*
X-139593Y-1248382D01*
X-127809Y-1260166D01*
X-122301Y-1262447D01*
Y-1276194D01*
X-127809Y-1278475D01*
X-139593Y-1290259D01*
X-145970Y-1305656D01*
Y-1322320D01*
X-139593Y-1337717D01*
X-127809Y-1349500D01*
X-112413Y-1355878D01*
X-95748D01*
X-80352Y-1349500D01*
X-68568Y-1337717D01*
X-62190Y-1322320D01*
Y-1305656D01*
X-68568Y-1290259D01*
X-80352Y-1278475D01*
X-85860Y-1276194D01*
Y-1262447D01*
X-80352Y-1260166D01*
X-68568Y-1248382D01*
X-62191Y-1232986D01*
Y-1216321D01*
X-68568Y-1200924D01*
X-80352Y-1189141D01*
X-85861Y-1186859D01*
Y-1173112D01*
X-80353Y-1170831D01*
X-68569Y-1159047D01*
X-62191Y-1143651D01*
Y-1126986D01*
X-68569Y-1111590D01*
X-80353Y-1099806D01*
X-95749Y-1093428D01*
D02*
G37*
G36*
X1620574Y-881110D02*
X1579426D01*
X1539069Y-889138D01*
X1501054Y-904884D01*
X1466841Y-927745D01*
X1437745Y-956841D01*
X1414884Y-991054D01*
X1399138Y-1029069D01*
X1391110Y-1069426D01*
Y-1110574D01*
X1399138Y-1150931D01*
X1414884Y-1188947D01*
X1437745Y-1223160D01*
X1466841Y-1252255D01*
X1501054Y-1275116D01*
X1539069Y-1290862D01*
X1579426Y-1298890D01*
X1620574D01*
X1660931Y-1290862D01*
X1698947Y-1275116D01*
X1733160Y-1252255D01*
X1762255Y-1223160D01*
X1785116Y-1188947D01*
X1800862Y-1150931D01*
X1808890Y-1110574D01*
Y-1069426D01*
X1800862Y-1029069D01*
X1785116Y-991054D01*
X1762255Y-956841D01*
X1733160Y-927745D01*
X1698947Y-904884D01*
X1660931Y-889138D01*
X1620574Y-881110D01*
D02*
G37*
G36*
X-491668Y-1308110D02*
X-508332D01*
X-523729Y-1314488D01*
X-535513Y-1326271D01*
X-541890Y-1341668D01*
Y-1358333D01*
X-535513Y-1373729D01*
X-523729Y-1385513D01*
X-508332Y-1391890D01*
X-491668D01*
X-476271Y-1385513D01*
X-464488Y-1373729D01*
X-458110Y-1358333D01*
Y-1341668D01*
X-464488Y-1326271D01*
X-476271Y-1314488D01*
X-491668Y-1308110D01*
D02*
G37*
G36*
X-691668Y-1583110D02*
X-708333D01*
X-723729Y-1589488D01*
X-735513Y-1601271D01*
X-741890Y-1616668D01*
Y-1633333D01*
X-735513Y-1648729D01*
X-723729Y-1660513D01*
X-708333Y-1666890D01*
X-691668D01*
X-676271Y-1660513D01*
X-664488Y-1648729D01*
X-658110Y-1633333D01*
Y-1616668D01*
X-664488Y-1601271D01*
X-676271Y-1589488D01*
X-691668Y-1583110D01*
D02*
G37*
G36*
X-1791667Y-1633110D02*
X-1808332D01*
X-1823729Y-1639487D01*
X-1835512Y-1651271D01*
X-1841890Y-1666667D01*
Y-1683332D01*
X-1835512Y-1698729D01*
X-1823729Y-1710512D01*
X-1808332Y-1716890D01*
X-1791667D01*
X-1776271Y-1710512D01*
X-1764487Y-1698729D01*
X-1758110Y-1683332D01*
Y-1666667D01*
X-1764487Y-1651271D01*
X-1776271Y-1639487D01*
X-1791667Y-1633110D01*
D02*
G37*
G36*
X-1291667Y-1658110D02*
X-1308332D01*
X-1323729Y-1664487D01*
X-1335512Y-1676271D01*
X-1341890Y-1691667D01*
Y-1708332D01*
X-1335512Y-1723729D01*
X-1323729Y-1735512D01*
X-1308332Y-1741890D01*
X-1291667D01*
X-1276271Y-1735512D01*
X-1264487Y-1723729D01*
X-1258110Y-1708332D01*
Y-1691667D01*
X-1264487Y-1676271D01*
X-1276271Y-1664487D01*
X-1291667Y-1658110D01*
D02*
G37*
G36*
X-1641668Y-2358110D02*
X-1658332D01*
X-1673729Y-2364488D01*
X-1685513Y-2376271D01*
X-1691890Y-2391668D01*
Y-2408332D01*
X-1685513Y-2423729D01*
X-1673729Y-2435513D01*
X-1658332Y-2441890D01*
X-1641668D01*
X-1626271Y-2435513D01*
X-1614487Y-2423729D01*
X-1608110Y-2408332D01*
Y-2391668D01*
X-1614487Y-2376271D01*
X-1626271Y-2364488D01*
X-1641668Y-2358110D01*
D02*
G37*
G36*
X-1741668D02*
X-1758333D01*
X-1773729Y-2364488D01*
X-1785513Y-2376271D01*
X-1791890Y-2391668D01*
Y-2408332D01*
X-1785513Y-2423729D01*
X-1773729Y-2435513D01*
X-1758333Y-2441890D01*
X-1741668D01*
X-1726271Y-2435513D01*
X-1714488Y-2423729D01*
X-1708110Y-2408332D01*
Y-2391668D01*
X-1714488Y-2376271D01*
X-1726271Y-2364488D01*
X-1741668Y-2358110D01*
D02*
G37*
G36*
X-1641668Y-2458110D02*
X-1658332D01*
X-1673729Y-2464488D01*
X-1685513Y-2476271D01*
X-1691890Y-2491668D01*
Y-2508333D01*
X-1685513Y-2523729D01*
X-1673729Y-2535513D01*
X-1658332Y-2541890D01*
X-1641668D01*
X-1626271Y-2535513D01*
X-1614487Y-2523729D01*
X-1608110Y-2508333D01*
Y-2491668D01*
X-1614487Y-2476271D01*
X-1626271Y-2464488D01*
X-1641668Y-2458110D01*
D02*
G37*
G36*
X-1741668D02*
X-1758333D01*
X-1773729Y-2464488D01*
X-1785513Y-2476271D01*
X-1791890Y-2491668D01*
Y-2508333D01*
X-1785513Y-2523729D01*
X-1773729Y-2535513D01*
X-1758333Y-2541890D01*
X-1741668D01*
X-1726271Y-2535513D01*
X-1714488Y-2523729D01*
X-1708110Y-2508333D01*
Y-2491668D01*
X-1714488Y-2476271D01*
X-1726271Y-2464488D01*
X-1741668Y-2458110D01*
D02*
G37*
G36*
X1620574Y-2201110D02*
X1579426D01*
X1539069Y-2209138D01*
X1501054Y-2224884D01*
X1466841Y-2247745D01*
X1437745Y-2276841D01*
X1414884Y-2311054D01*
X1399138Y-2349069D01*
X1391110Y-2389426D01*
Y-2430574D01*
X1399138Y-2470931D01*
X1414884Y-2508946D01*
X1437745Y-2543160D01*
X1466841Y-2572255D01*
X1501054Y-2595116D01*
X1539069Y-2610862D01*
X1579426Y-2618890D01*
X1620574D01*
X1660931Y-2610862D01*
X1698947Y-2595116D01*
X1733160Y-2572255D01*
X1762255Y-2543160D01*
X1785116Y-2508946D01*
X1800862Y-2470931D01*
X1808890Y-2430574D01*
Y-2389426D01*
X1800862Y-2349069D01*
X1785116Y-2311054D01*
X1762255Y-2276841D01*
X1733160Y-2247745D01*
X1698947Y-2224884D01*
X1660931Y-2209138D01*
X1620574Y-2201110D01*
D02*
G37*
G36*
X-1641668Y-2558110D02*
X-1658332D01*
X-1673729Y-2564487D01*
X-1685513Y-2576271D01*
X-1691890Y-2591667D01*
Y-2608332D01*
X-1685513Y-2623729D01*
X-1673729Y-2635512D01*
X-1658332Y-2641890D01*
X-1641668D01*
X-1626271Y-2635512D01*
X-1614487Y-2623729D01*
X-1608110Y-2608332D01*
Y-2591667D01*
X-1614487Y-2576271D01*
X-1626271Y-2564487D01*
X-1641668Y-2558110D01*
D02*
G37*
G36*
X-1741668D02*
X-1758333D01*
X-1773729Y-2564487D01*
X-1785513Y-2576271D01*
X-1791890Y-2591667D01*
Y-2608332D01*
X-1785513Y-2623729D01*
X-1773729Y-2635512D01*
X-1758333Y-2641890D01*
X-1741668D01*
X-1726271Y-2635512D01*
X-1714488Y-2623729D01*
X-1708110Y-2608332D01*
Y-2591667D01*
X-1714488Y-2576271D01*
X-1726271Y-2564487D01*
X-1741668Y-2558110D01*
D02*
G37*
G36*
X2358333Y-2758110D02*
X2341668D01*
X2326271Y-2764487D01*
X2314488Y-2776271D01*
X2308110Y-2791668D01*
Y-2808332D01*
X2314488Y-2823729D01*
X2326271Y-2835512D01*
X2341668Y-2841890D01*
X2358333D01*
X2373729Y-2835512D01*
X2385513Y-2823729D01*
X2391890Y-2808332D01*
Y-2791668D01*
X2385513Y-2776271D01*
X2373729Y-2764487D01*
X2358333Y-2758110D01*
D02*
G37*
G36*
X-221668Y-2858110D02*
X-238333D01*
X-253729Y-2864488D01*
X-265513Y-2876271D01*
X-268127Y-2882582D01*
X-281874D01*
X-284488Y-2876271D01*
X-296272Y-2864488D01*
X-311668Y-2858110D01*
X-328333D01*
X-343729Y-2864488D01*
X-355513Y-2876271D01*
X-358127Y-2882582D01*
X-371874D01*
X-374488Y-2876271D01*
X-386272Y-2864488D01*
X-401668Y-2858110D01*
X-418333D01*
X-433729Y-2864488D01*
X-445513Y-2876271D01*
X-448127Y-2882582D01*
X-461873D01*
X-464488Y-2876271D01*
X-476271Y-2864488D01*
X-491668Y-2858110D01*
X-508332D01*
X-523729Y-2864488D01*
X-535513Y-2876271D01*
X-541890Y-2891668D01*
Y-2908333D01*
X-535513Y-2923729D01*
X-523729Y-2935513D01*
X-517418Y-2938126D01*
Y-2951873D01*
X-523729Y-2954487D01*
X-535513Y-2966271D01*
X-541890Y-2981667D01*
Y-2998332D01*
X-535513Y-3013728D01*
X-523729Y-3025512D01*
X-508332Y-3031889D01*
X-491668D01*
X-476271Y-3025512D01*
X-464488Y-3013728D01*
X-461873Y-3007417D01*
X-448127D01*
X-445513Y-3013728D01*
X-433729Y-3025512D01*
X-418333Y-3031889D01*
X-401668D01*
X-386272Y-3025512D01*
X-374488Y-3013728D01*
X-371874Y-3007417D01*
X-358127D01*
X-355513Y-3013728D01*
X-343729Y-3025512D01*
X-328333Y-3031889D01*
X-311668D01*
X-296272Y-3025512D01*
X-284488Y-3013728D01*
X-281874Y-3007417D01*
X-268127D01*
X-265513Y-3013728D01*
X-253729Y-3025512D01*
X-238333Y-3031889D01*
X-221668D01*
X-206272Y-3025512D01*
X-194488Y-3013728D01*
X-188111Y-2998332D01*
Y-2981667D01*
X-194488Y-2966271D01*
X-206272Y-2954487D01*
X-212582Y-2951873D01*
Y-2938126D01*
X-206272Y-2935513D01*
X-194488Y-2923729D01*
X-188111Y-2908333D01*
Y-2891668D01*
X-194488Y-2876271D01*
X-206272Y-2864488D01*
X-221668Y-2858110D01*
D02*
G37*
G36*
X-781872Y-2576110D02*
X-818095D01*
X-853622Y-2583177D01*
X-887088Y-2597039D01*
X-917207Y-2617163D01*
X-942820Y-2642777D01*
X-962945Y-2672896D01*
X-976807Y-2706361D01*
X-983874Y-2741889D01*
Y-2778112D01*
X-976807Y-2813639D01*
X-962945Y-2847105D01*
X-942820Y-2877223D01*
X-917207Y-2902837D01*
X-887088Y-2922961D01*
X-853622Y-2936823D01*
X-818095Y-2943890D01*
X-781872D01*
X-746345Y-2936823D01*
X-712879Y-2922961D01*
X-682761Y-2902837D01*
X-657147Y-2877223D01*
X-637023Y-2847105D01*
X-623161Y-2813639D01*
X-616094Y-2778112D01*
Y-2741889D01*
X-623161Y-2706361D01*
X-637023Y-2672896D01*
X-657147Y-2642777D01*
X-682761Y-2617163D01*
X-712879Y-2597039D01*
X-746345Y-2583177D01*
X-781872Y-2576110D01*
D02*
G37*
G36*
X2408332Y-2958110D02*
X2391668D01*
X2376271Y-2964487D01*
X2364488Y-2976271D01*
X2358110Y-2991667D01*
Y-3008332D01*
X2364488Y-3023729D01*
X2376271Y-3035512D01*
X2391668Y-3041890D01*
X2408332D01*
X2423729Y-3035512D01*
X2435513Y-3023729D01*
X2441890Y-3008332D01*
Y-2991667D01*
X2435513Y-2976271D01*
X2423729Y-2964487D01*
X2408332Y-2958110D01*
D02*
G37*
G36*
X2308332D02*
X2291668D01*
X2276271Y-2964487D01*
X2264487Y-2976271D01*
X2258110Y-2991667D01*
Y-3008332D01*
X2264487Y-3023729D01*
X2276271Y-3035512D01*
X2291668Y-3041890D01*
X2308332D01*
X2323729Y-3035512D01*
X2335512Y-3023729D01*
X2341890Y-3008332D01*
Y-2991667D01*
X2335512Y-2976271D01*
X2323729Y-2964487D01*
X2308332Y-2958110D01*
D02*
G37*
G36*
X1164751Y-3091511D02*
X1148086D01*
X1132689Y-3097889D01*
X1120906Y-3109672D01*
X1118624Y-3115181D01*
X1104877D01*
X1102596Y-3109673D01*
X1090812Y-3097889D01*
X1075416Y-3091512D01*
X1058751D01*
X1043355Y-3097889D01*
X1031571Y-3109673D01*
X1025193Y-3125069D01*
Y-3141734D01*
X1031571Y-3157130D01*
X1043355Y-3168914D01*
X1058751Y-3175292D01*
X1075416D01*
X1090812Y-3168914D01*
X1102596Y-3157130D01*
X1104877Y-3151622D01*
X1118624D01*
X1120906Y-3157130D01*
X1132689Y-3168914D01*
X1148086Y-3175291D01*
X1164751D01*
X1180147Y-3168914D01*
X1191931Y-3157130D01*
X1198308Y-3141734D01*
Y-3125069D01*
X1191931Y-3109672D01*
X1180147Y-3097889D01*
X1164751Y-3091511D01*
D02*
G37*
G36*
X1433342Y-3158209D02*
X1416677D01*
X1401281Y-3164587D01*
X1389497Y-3176371D01*
X1383120Y-3191767D01*
Y-3208432D01*
X1389497Y-3223828D01*
X1401281Y-3235612D01*
X1416677Y-3241989D01*
X1433342D01*
X1448738Y-3235612D01*
X1460522Y-3223828D01*
X1466900Y-3208432D01*
Y-3191767D01*
X1460522Y-3176371D01*
X1448738Y-3164587D01*
X1433342Y-3158209D01*
D02*
G37*
G36*
X1948071D02*
X1931406D01*
X1916010Y-3164587D01*
X1904226Y-3176371D01*
X1897849Y-3191767D01*
Y-3208432D01*
X1904226Y-3223828D01*
X1916010Y-3235612D01*
X1922703Y-3238384D01*
Y-3252130D01*
X1916010Y-3254903D01*
X1904226Y-3266686D01*
X1897849Y-3282083D01*
Y-3298748D01*
X1904226Y-3314144D01*
X1916010Y-3325928D01*
X1931406Y-3332305D01*
X1948071D01*
X1963467Y-3325928D01*
X1975251Y-3314144D01*
X1981629Y-3298748D01*
Y-3282083D01*
X1975251Y-3266686D01*
X1963467Y-3254903D01*
X1956775Y-3252130D01*
Y-3238384D01*
X1963467Y-3235612D01*
X1975251Y-3223828D01*
X1981629Y-3208432D01*
Y-3191767D01*
X1975251Y-3176371D01*
X1963467Y-3164587D01*
X1948071Y-3158209D01*
D02*
G37*
G36*
X-1691667Y-3508111D02*
X-1708332D01*
X-1723729Y-3514488D01*
X-1735512Y-3526272D01*
X-1741890Y-3541668D01*
Y-3558333D01*
X-1735512Y-3573729D01*
X-1723729Y-3585513D01*
X-1708332Y-3591890D01*
X-1691667D01*
X-1676271Y-3585513D01*
X-1664487Y-3573729D01*
X-1658110Y-3558333D01*
Y-3541668D01*
X-1664487Y-3526272D01*
X-1676271Y-3514488D01*
X-1691667Y-3508111D01*
D02*
G37*
G36*
X-1491668Y-3508111D02*
X-1508333D01*
X-1523729Y-3514488D01*
X-1535513Y-3526272D01*
X-1541890Y-3541668D01*
Y-3558333D01*
X-1535513Y-3573729D01*
X-1523729Y-3585513D01*
X-1508333Y-3591891D01*
X-1491668D01*
X-1476272Y-3585513D01*
X-1464488Y-3573729D01*
X-1458110Y-3558333D01*
Y-3541668D01*
X-1464488Y-3526272D01*
X-1476272Y-3514488D01*
X-1491668Y-3508111D01*
D02*
G37*
G36*
X-891668Y-3508111D02*
X-908332D01*
X-923729Y-3514489D01*
X-935512Y-3526272D01*
X-941890Y-3541669D01*
Y-3558333D01*
X-935512Y-3573730D01*
X-923729Y-3585514D01*
X-908332Y-3591891D01*
X-891668D01*
X-876271Y-3585514D01*
X-864487Y-3573730D01*
X-858110Y-3558333D01*
Y-3541669D01*
X-864487Y-3526272D01*
X-876271Y-3514489D01*
X-891668Y-3508111D01*
D02*
G37*
G36*
X-991668D02*
X-1008333D01*
X-1023729Y-3514489D01*
X-1035513Y-3526272D01*
X-1041890Y-3541669D01*
Y-3558333D01*
X-1035513Y-3573730D01*
X-1023729Y-3585514D01*
X-1008333Y-3591891D01*
X-991668D01*
X-976271Y-3585514D01*
X-964488Y-3573730D01*
X-958110Y-3558333D01*
Y-3541669D01*
X-964488Y-3526272D01*
X-976271Y-3514489D01*
X-991668Y-3508111D01*
D02*
G37*
G36*
X-1091668D02*
X-1108333D01*
X-1123729Y-3514489D01*
X-1135513Y-3526272D01*
X-1141890Y-3541669D01*
Y-3558333D01*
X-1135513Y-3573730D01*
X-1123729Y-3585514D01*
X-1108333Y-3591891D01*
X-1091668D01*
X-1076271Y-3585514D01*
X-1064488Y-3573730D01*
X-1058110Y-3558333D01*
Y-3541669D01*
X-1064488Y-3526272D01*
X-1076271Y-3514489D01*
X-1091668Y-3508111D01*
D02*
G37*
G36*
X-1191668D02*
X-1208333D01*
X-1223729Y-3514489D01*
X-1235513Y-3526272D01*
X-1241890Y-3541669D01*
Y-3558333D01*
X-1235513Y-3573730D01*
X-1223729Y-3585514D01*
X-1208333Y-3591891D01*
X-1191668D01*
X-1176271Y-3585514D01*
X-1164488Y-3573730D01*
X-1158110Y-3558333D01*
Y-3541669D01*
X-1164488Y-3526272D01*
X-1176271Y-3514489D01*
X-1191668Y-3508111D01*
D02*
G37*
G36*
X-1291668D02*
X-1308333D01*
X-1323729Y-3514489D01*
X-1335513Y-3526272D01*
X-1341890Y-3541669D01*
Y-3558333D01*
X-1335513Y-3573730D01*
X-1323729Y-3585514D01*
X-1308333Y-3591891D01*
X-1291668D01*
X-1276272Y-3585514D01*
X-1264488Y-3573730D01*
X-1258110Y-3558333D01*
Y-3541669D01*
X-1264488Y-3526272D01*
X-1276272Y-3514489D01*
X-1291668Y-3508111D01*
D02*
G37*
G36*
X-1391668Y-3508111D02*
X-1408333D01*
X-1423729Y-3514489D01*
X-1435513Y-3526273D01*
X-1441890Y-3541669D01*
Y-3558334D01*
X-1435513Y-3573730D01*
X-1423729Y-3585514D01*
X-1408333Y-3591891D01*
X-1391668D01*
X-1376272Y-3585514D01*
X-1364488Y-3573730D01*
X-1358110Y-3558334D01*
Y-3541669D01*
X-1364488Y-3526273D01*
X-1376272Y-3514489D01*
X-1391668Y-3508111D01*
D02*
G37*
G36*
X-2091668Y-3608110D02*
X-2108333D01*
X-2123729Y-3614488D01*
X-2135513Y-3626271D01*
X-2141890Y-3641668D01*
Y-3658333D01*
X-2135513Y-3673729D01*
X-2123729Y-3685513D01*
X-2108333Y-3691890D01*
X-2091668D01*
X-2076271Y-3685513D01*
X-2064488Y-3673729D01*
X-2058110Y-3658333D01*
Y-3641668D01*
X-2064488Y-3626271D01*
X-2076271Y-3614488D01*
X-2091668Y-3608110D01*
D02*
G37*
G36*
X-1841667Y-3608110D02*
X-1858332D01*
X-1873728Y-3614488D01*
X-1885512Y-3626272D01*
X-1891890Y-3641668D01*
Y-3658333D01*
X-1885512Y-3673729D01*
X-1873728Y-3685513D01*
X-1858332Y-3691890D01*
X-1841667D01*
X-1826271Y-3685513D01*
X-1814487Y-3673729D01*
X-1808110Y-3658333D01*
Y-3641668D01*
X-1814487Y-3626272D01*
X-1826271Y-3614488D01*
X-1841667Y-3608110D01*
D02*
G37*
G36*
X-1291668Y-3608111D02*
X-1308333D01*
X-1323729Y-3614488D01*
X-1335513Y-3626272D01*
X-1341890Y-3641668D01*
Y-3658333D01*
X-1335513Y-3673729D01*
X-1323729Y-3685513D01*
X-1308333Y-3691891D01*
X-1291668D01*
X-1276272Y-3685513D01*
X-1264488Y-3673729D01*
X-1258110Y-3658333D01*
Y-3641668D01*
X-1264488Y-3626272D01*
X-1276272Y-3614488D01*
X-1291668Y-3608111D01*
D02*
G37*
G36*
X-891668Y-3608111D02*
X-908332D01*
X-923729Y-3614488D01*
X-935512Y-3626272D01*
X-941890Y-3641668D01*
Y-3658333D01*
X-935512Y-3673730D01*
X-923729Y-3685513D01*
X-908332Y-3691891D01*
X-891668D01*
X-876271Y-3685513D01*
X-864487Y-3673730D01*
X-858110Y-3658333D01*
Y-3641668D01*
X-864487Y-3626272D01*
X-876271Y-3614488D01*
X-891668Y-3608111D01*
D02*
G37*
G36*
X-991668D02*
X-1008333D01*
X-1023729Y-3614488D01*
X-1035513Y-3626272D01*
X-1041890Y-3641668D01*
Y-3658333D01*
X-1035513Y-3673730D01*
X-1023729Y-3685513D01*
X-1008333Y-3691891D01*
X-991668D01*
X-976271Y-3685513D01*
X-964488Y-3673730D01*
X-958110Y-3658333D01*
Y-3641668D01*
X-964488Y-3626272D01*
X-976271Y-3614488D01*
X-991668Y-3608111D01*
D02*
G37*
G36*
X-1091668D02*
X-1108333D01*
X-1123729Y-3614488D01*
X-1135513Y-3626272D01*
X-1141890Y-3641668D01*
Y-3658333D01*
X-1135513Y-3673730D01*
X-1123729Y-3685513D01*
X-1108333Y-3691891D01*
X-1091668D01*
X-1076271Y-3685513D01*
X-1064488Y-3673730D01*
X-1058110Y-3658333D01*
Y-3641668D01*
X-1064488Y-3626272D01*
X-1076271Y-3614488D01*
X-1091668Y-3608111D01*
D02*
G37*
G36*
X-1191668D02*
X-1208333D01*
X-1223729Y-3614488D01*
X-1235513Y-3626272D01*
X-1241890Y-3641668D01*
Y-3658333D01*
X-1235513Y-3673730D01*
X-1223729Y-3685513D01*
X-1208333Y-3691891D01*
X-1191668D01*
X-1176271Y-3685513D01*
X-1164488Y-3673730D01*
X-1158110Y-3658333D01*
Y-3641668D01*
X-1164488Y-3626272D01*
X-1176271Y-3614488D01*
X-1191668Y-3608111D01*
D02*
G37*
G36*
X-1491668D02*
X-1508333D01*
X-1523729Y-3614488D01*
X-1535513Y-3626272D01*
X-1541890Y-3641668D01*
Y-3658333D01*
X-1535513Y-3673730D01*
X-1523729Y-3685513D01*
X-1508333Y-3691891D01*
X-1491668D01*
X-1476272Y-3685513D01*
X-1464488Y-3673730D01*
X-1458110Y-3658333D01*
Y-3641668D01*
X-1464488Y-3626272D01*
X-1476272Y-3614488D01*
X-1491668Y-3608111D01*
D02*
G37*
G36*
X-1391668Y-3608111D02*
X-1408333D01*
X-1423729Y-3614489D01*
X-1435513Y-3626272D01*
X-1441890Y-3641669D01*
Y-3658334D01*
X-1435513Y-3673730D01*
X-1423729Y-3685514D01*
X-1408333Y-3691891D01*
X-1391668D01*
X-1376272Y-3685514D01*
X-1364488Y-3673730D01*
X-1358110Y-3658334D01*
Y-3641669D01*
X-1364488Y-3626272D01*
X-1376272Y-3614489D01*
X-1391668Y-3608111D01*
D02*
G37*
G36*
X816985Y-3451110D02*
X783047D01*
X750266Y-3459894D01*
X720876Y-3476862D01*
X696878Y-3500860D01*
X679910Y-3530250D01*
X671126Y-3563031D01*
Y-3596969D01*
X679910Y-3629750D01*
X696878Y-3659140D01*
X720876Y-3683138D01*
X750266Y-3700106D01*
X783047Y-3708890D01*
X816985D01*
X849766Y-3700106D01*
X879156Y-3683138D01*
X903154Y-3659140D01*
X920123Y-3629750D01*
X928906Y-3596969D01*
Y-3563031D01*
X920123Y-3530250D01*
X903154Y-3500860D01*
X879156Y-3476862D01*
X849766Y-3459894D01*
X816985Y-3451110D01*
D02*
G37*
G36*
X-891668Y-3708111D02*
X-908332D01*
X-923729Y-3714488D01*
X-935512Y-3726272D01*
X-941890Y-3741668D01*
Y-3758333D01*
X-935512Y-3773729D01*
X-923729Y-3785513D01*
X-908332Y-3791891D01*
X-891668D01*
X-876271Y-3785513D01*
X-864487Y-3773729D01*
X-858110Y-3758333D01*
Y-3741668D01*
X-864487Y-3726272D01*
X-876271Y-3714488D01*
X-891668Y-3708111D01*
D02*
G37*
G36*
X-991668D02*
X-1008333D01*
X-1023729Y-3714488D01*
X-1035513Y-3726272D01*
X-1041890Y-3741668D01*
Y-3758333D01*
X-1035513Y-3773729D01*
X-1023729Y-3785513D01*
X-1008333Y-3791891D01*
X-991668D01*
X-976271Y-3785513D01*
X-964488Y-3773729D01*
X-958110Y-3758333D01*
Y-3741668D01*
X-964488Y-3726272D01*
X-976271Y-3714488D01*
X-991668Y-3708111D01*
D02*
G37*
G36*
X-1091668D02*
X-1108333D01*
X-1123729Y-3714488D01*
X-1135513Y-3726272D01*
X-1141890Y-3741668D01*
Y-3758333D01*
X-1135513Y-3773729D01*
X-1123729Y-3785513D01*
X-1108333Y-3791891D01*
X-1091668D01*
X-1076271Y-3785513D01*
X-1064488Y-3773729D01*
X-1058110Y-3758333D01*
Y-3741668D01*
X-1064488Y-3726272D01*
X-1076271Y-3714488D01*
X-1091668Y-3708111D01*
D02*
G37*
G36*
X-1124326Y-3925453D02*
X-1140991D01*
X-1156387Y-3931830D01*
X-1168171Y-3943614D01*
X-1174548Y-3959010D01*
Y-3975675D01*
X-1168171Y-3991071D01*
X-1156387Y-4002855D01*
X-1140991Y-4009233D01*
X-1124326D01*
X-1108930Y-4002855D01*
X-1097146Y-3991071D01*
X-1090768Y-3975675D01*
Y-3959010D01*
X-1097146Y-3943614D01*
X-1108930Y-3931830D01*
X-1124326Y-3925453D01*
D02*
G37*
G36*
X-1691668Y-4158111D02*
X-1708333D01*
X-1723729Y-4164488D01*
X-1735513Y-4176272D01*
X-1741890Y-4191669D01*
Y-4208333D01*
X-1735513Y-4223730D01*
X-1723729Y-4235513D01*
X-1708333Y-4241891D01*
X-1691668D01*
X-1676271Y-4235513D01*
X-1664488Y-4223730D01*
X-1658110Y-4208333D01*
Y-4191669D01*
X-1664488Y-4176272D01*
X-1676271Y-4164488D01*
X-1691668Y-4158111D01*
D02*
G37*
G36*
X717607Y-4229292D02*
X700942D01*
X685546Y-4235669D01*
X673762Y-4247453D01*
X667384Y-4262849D01*
Y-4279514D01*
X673762Y-4294910D01*
X685546Y-4306694D01*
X700942Y-4313071D01*
X717607D01*
X733003Y-4306694D01*
X744787Y-4294910D01*
X751164Y-4279514D01*
Y-4262849D01*
X744787Y-4247453D01*
X733003Y-4235669D01*
X717607Y-4229292D01*
D02*
G37*
G36*
X1158332Y-4258110D02*
X1141667D01*
X1126271Y-4264488D01*
X1114487Y-4276271D01*
X1108110Y-4291668D01*
Y-4308333D01*
X1114487Y-4323729D01*
X1126271Y-4335513D01*
X1141667Y-4341890D01*
X1158332D01*
X1173728Y-4335513D01*
X1185512Y-4323729D01*
X1191890Y-4308333D01*
Y-4291668D01*
X1185512Y-4276271D01*
X1173728Y-4264488D01*
X1158332Y-4258110D01*
D02*
G37*
G36*
X1058332D02*
X1041667D01*
X1026271Y-4264488D01*
X1014487Y-4276271D01*
X1008110Y-4291668D01*
Y-4308333D01*
X1014487Y-4323729D01*
X1026271Y-4335513D01*
X1041667Y-4341890D01*
X1058332D01*
X1073729Y-4335513D01*
X1085512Y-4323729D01*
X1091890Y-4308333D01*
Y-4291668D01*
X1085512Y-4276271D01*
X1073729Y-4264488D01*
X1058332Y-4258110D01*
D02*
G37*
G36*
X-291667Y-4358110D02*
X-308332D01*
X-323729Y-4364487D01*
X-335512Y-4376271D01*
X-341890Y-4391667D01*
Y-4408332D01*
X-335512Y-4423729D01*
X-323729Y-4435512D01*
X-308332Y-4441890D01*
X-291667D01*
X-276271Y-4435512D01*
X-264487Y-4423729D01*
X-258110Y-4408332D01*
Y-4391667D01*
X-264487Y-4376271D01*
X-276271Y-4364487D01*
X-291667Y-4358110D01*
D02*
G37*
G36*
X-191668Y-4358110D02*
X-208333D01*
X-223729Y-4364488D01*
X-235513Y-4376271D01*
X-241890Y-4391668D01*
Y-4408333D01*
X-235513Y-4423729D01*
X-223729Y-4435513D01*
X-208333Y-4441890D01*
X-191668D01*
X-176271Y-4435513D01*
X-164488Y-4423729D01*
X-158110Y-4408333D01*
Y-4391668D01*
X-164488Y-4376271D01*
X-176271Y-4364488D01*
X-191668Y-4358110D01*
D02*
G37*
G36*
X-391667D02*
X-408332D01*
X-423729Y-4364488D01*
X-435512Y-4376271D01*
X-441890Y-4391668D01*
Y-4408333D01*
X-435512Y-4423729D01*
X-423729Y-4435513D01*
X-408332Y-4441890D01*
X-391667D01*
X-376271Y-4435513D01*
X-364487Y-4423729D01*
X-358110Y-4408333D01*
Y-4391668D01*
X-364487Y-4376271D01*
X-376271Y-4364488D01*
X-391667Y-4358110D01*
D02*
G37*
G36*
X958332Y-4258110D02*
X941667D01*
X926271Y-4264488D01*
X914487Y-4276271D01*
X908110Y-4291668D01*
Y-4308333D01*
X914487Y-4323729D01*
X918794Y-4328036D01*
X915815Y-4343016D01*
X911181Y-4344936D01*
X899397Y-4356720D01*
X893020Y-4372116D01*
Y-4388781D01*
X899397Y-4404177D01*
X911181Y-4415961D01*
X918657Y-4419058D01*
X916131Y-4431758D01*
X915801D01*
X900405Y-4438135D01*
X888621Y-4449919D01*
X882243Y-4465315D01*
Y-4481980D01*
X888621Y-4497376D01*
X900405Y-4509160D01*
X915801Y-4515538D01*
X932466D01*
X947862Y-4509160D01*
X959646Y-4497376D01*
X966023Y-4481980D01*
Y-4465315D01*
X959646Y-4449919D01*
X947862Y-4438135D01*
X940386Y-4435038D01*
X942912Y-4422338D01*
X943242D01*
X958638Y-4415961D01*
X970422Y-4404177D01*
X976799Y-4388781D01*
Y-4372116D01*
X970422Y-4356720D01*
X966115Y-4352413D01*
X969095Y-4337432D01*
X973729Y-4335513D01*
X985512Y-4323729D01*
X991890Y-4308333D01*
Y-4291668D01*
X985512Y-4276271D01*
X973729Y-4264488D01*
X958332Y-4258110D01*
D02*
G37*
G36*
X1258332Y-4258110D02*
X1241667D01*
X1226271Y-4264488D01*
X1214487Y-4276272D01*
X1208110Y-4291668D01*
Y-4308333D01*
X1214487Y-4323729D01*
X1226271Y-4335513D01*
X1231782Y-4337795D01*
Y-4351542D01*
X1226271Y-4353824D01*
X1214487Y-4365608D01*
X1208110Y-4381004D01*
Y-4397669D01*
X1214487Y-4413066D01*
X1226271Y-4424849D01*
X1231782Y-4427132D01*
Y-4440879D01*
X1226271Y-4443161D01*
X1214487Y-4454945D01*
X1208110Y-4470341D01*
Y-4487006D01*
X1214487Y-4502402D01*
X1226271Y-4514186D01*
X1241667Y-4520563D01*
X1258332D01*
X1273728Y-4514186D01*
X1285512Y-4502402D01*
X1291890Y-4487006D01*
Y-4470341D01*
X1285512Y-4454945D01*
X1273728Y-4443161D01*
X1268218Y-4440879D01*
Y-4427132D01*
X1273728Y-4424849D01*
X1285512Y-4413066D01*
X1291890Y-4397669D01*
Y-4381004D01*
X1285512Y-4365608D01*
X1273728Y-4353824D01*
X1268218Y-4351542D01*
Y-4337795D01*
X1273728Y-4335513D01*
X1285512Y-4323729D01*
X1291890Y-4308333D01*
Y-4291668D01*
X1285512Y-4276272D01*
X1273728Y-4264488D01*
X1258332Y-4258110D01*
D02*
G37*
G36*
X493332Y-4438110D02*
X476667D01*
X461271Y-4444488D01*
X449487Y-4456272D01*
X443110Y-4471668D01*
Y-4488333D01*
X449487Y-4503729D01*
X461271Y-4515513D01*
X476667Y-4521890D01*
X493332D01*
X508728Y-4515513D01*
X520512Y-4503729D01*
X526890Y-4488333D01*
Y-4471668D01*
X520512Y-4456272D01*
X508728Y-4444488D01*
X493332Y-4438110D01*
D02*
G37*
G36*
X871035Y-4684362D02*
X858348D01*
X846627Y-4689217D01*
X837657Y-4698188D01*
X832802Y-4709909D01*
Y-4722596D01*
X837657Y-4734316D01*
X846627Y-4743287D01*
X858348Y-4748142D01*
X871035D01*
X882756Y-4743287D01*
X891727Y-4734316D01*
X896582Y-4722596D01*
Y-4709909D01*
X891727Y-4698188D01*
X882756Y-4689217D01*
X871035Y-4684362D01*
D02*
G37*
G36*
X-180000Y-4733863D02*
X-217300D01*
Y-4807300D01*
X-95535D01*
X-96798Y-4797706D01*
X-105403Y-4776932D01*
X-119092Y-4759092D01*
X-136932Y-4745404D01*
X-157706Y-4736798D01*
X-180000Y-4733863D01*
D02*
G37*
G36*
X-242700D02*
X-280000D01*
X-302294Y-4736798D01*
X-323068Y-4745404D01*
X-340908Y-4759092D01*
X-354597Y-4776932D01*
X-363202Y-4797706D01*
X-364465Y-4807300D01*
X-242700D01*
Y-4733863D01*
D02*
G37*
G36*
X692947Y-4787983D02*
X676282D01*
X660886Y-4794360D01*
X649102Y-4806144D01*
X642725Y-4821540D01*
Y-4838205D01*
X649102Y-4853601D01*
X660886Y-4865385D01*
X676282Y-4871763D01*
X692947D01*
X708344Y-4865385D01*
X720127Y-4853601D01*
X726505Y-4838205D01*
Y-4821540D01*
X720127Y-4806144D01*
X708344Y-4794360D01*
X692947Y-4787983D01*
D02*
G37*
G36*
X-95535Y-4832700D02*
X-217300D01*
Y-4906137D01*
X-180000D01*
X-157706Y-4903202D01*
X-136932Y-4894597D01*
X-119092Y-4880908D01*
X-105403Y-4863069D01*
X-96798Y-4842294D01*
X-95535Y-4832700D01*
D02*
G37*
G36*
X-242700D02*
X-364465D01*
X-363202Y-4842294D01*
X-354597Y-4863069D01*
X-340908Y-4880908D01*
X-323068Y-4894597D01*
X-302294Y-4903202D01*
X-280000Y-4906137D01*
X-242700D01*
Y-4832700D01*
D02*
G37*
G36*
X1180529Y-4820988D02*
X1163864D01*
X1148468Y-4827365D01*
X1136684Y-4839149D01*
X1130307Y-4854545D01*
Y-4871210D01*
X1136684Y-4886606D01*
X1148468Y-4898390D01*
X1163864Y-4904767D01*
X1180529D01*
X1195925Y-4898390D01*
X1208110Y-4904166D01*
Y-4908333D01*
X1214487Y-4923729D01*
X1226271Y-4935513D01*
X1241667Y-4941890D01*
X1258332D01*
X1273728Y-4935513D01*
X1285512Y-4923729D01*
X1291890Y-4908333D01*
Y-4891668D01*
X1285512Y-4876271D01*
X1273728Y-4864488D01*
X1258332Y-4858110D01*
X1241667D01*
X1226271Y-4864488D01*
X1214087Y-4858711D01*
Y-4854545D01*
X1207709Y-4839149D01*
X1195925Y-4827365D01*
X1180529Y-4820988D01*
D02*
G37*
G36*
X-460000Y-4720516D02*
X-477984Y-4722883D01*
X-494742Y-4729825D01*
X-509133Y-4740867D01*
X-520175Y-4755258D01*
X-527117Y-4772016D01*
X-529484Y-4790000D01*
Y-4890000D01*
X-527117Y-4907984D01*
X-520175Y-4924742D01*
X-509133Y-4939133D01*
X-494742Y-4950175D01*
X-477984Y-4957117D01*
X-460000Y-4959484D01*
X-442016Y-4957117D01*
X-425258Y-4950175D01*
X-410867Y-4939133D01*
X-399825Y-4924742D01*
X-392883Y-4907984D01*
X-390516Y-4890000D01*
Y-4790000D01*
X-392883Y-4772016D01*
X-399825Y-4755258D01*
X-410867Y-4740867D01*
X-425258Y-4729825D01*
X-442016Y-4722883D01*
X-460000Y-4720516D01*
D02*
G37*
G36*
X-750000D02*
X-767984Y-4722883D01*
X-784742Y-4729825D01*
X-799133Y-4740867D01*
X-810175Y-4755258D01*
X-817117Y-4772016D01*
X-819485Y-4790000D01*
Y-4890000D01*
X-817117Y-4907984D01*
X-810175Y-4924742D01*
X-799133Y-4939133D01*
X-784742Y-4950175D01*
X-767984Y-4957117D01*
X-750000Y-4959484D01*
X-732016Y-4957117D01*
X-715258Y-4950175D01*
X-700868Y-4939133D01*
X-689825Y-4924742D01*
X-682884Y-4907984D01*
X-680516Y-4890000D01*
Y-4790000D01*
X-682884Y-4772016D01*
X-689825Y-4755258D01*
X-700868Y-4740867D01*
X-715258Y-4729825D01*
X-732016Y-4722883D01*
X-750000Y-4720516D01*
D02*
G37*
G36*
X1093330Y-4923119D02*
X1076665D01*
X1061269Y-4929497D01*
X1049485Y-4941281D01*
X1043107Y-4956677D01*
Y-4973342D01*
X1049485Y-4988738D01*
X1061269Y-5000522D01*
X1076665Y-5006899D01*
X1093330D01*
X1108726Y-5000522D01*
X1120510Y-4988738D01*
X1126887Y-4973342D01*
Y-4956677D01*
X1120510Y-4941281D01*
X1108726Y-4929497D01*
X1093330Y-4923119D01*
D02*
G37*
G36*
X808332Y-5008110D02*
X791667D01*
X776271Y-5014488D01*
X764487Y-5026271D01*
X758110Y-5041668D01*
Y-5058333D01*
X764487Y-5073729D01*
X776271Y-5085513D01*
X791667Y-5091890D01*
X808332D01*
X823729Y-5085513D01*
X835512Y-5073729D01*
X841890Y-5058333D01*
Y-5041668D01*
X835512Y-5026271D01*
X823729Y-5014488D01*
X808332Y-5008110D01*
D02*
G37*
G36*
X-610000Y-4920515D02*
X-627984Y-4922883D01*
X-644742Y-4929825D01*
X-659133Y-4940867D01*
X-670175Y-4955258D01*
X-677117Y-4972016D01*
X-679484Y-4990000D01*
Y-5090000D01*
X-677117Y-5107984D01*
X-670175Y-5124742D01*
X-659133Y-5139133D01*
X-644742Y-5150175D01*
X-627984Y-5157117D01*
X-610000Y-5159484D01*
X-592016Y-5157117D01*
X-575258Y-5150175D01*
X-560867Y-5139133D01*
X-549825Y-5124742D01*
X-542883Y-5107984D01*
X-540516Y-5090000D01*
Y-4990000D01*
X-542883Y-4972016D01*
X-549825Y-4955258D01*
X-560867Y-4940867D01*
X-575258Y-4929825D01*
X-592016Y-4922883D01*
X-610000Y-4920515D01*
D02*
G37*
G36*
X558332Y-5082449D02*
X541667D01*
X526271Y-5088826D01*
X514487Y-5100610D01*
X508110Y-5116007D01*
Y-5132671D01*
X514487Y-5148068D01*
X526271Y-5159852D01*
X541667Y-5166229D01*
X558332D01*
X573729Y-5159852D01*
X585512Y-5148068D01*
X591890Y-5132671D01*
Y-5116007D01*
X585512Y-5100610D01*
X573729Y-5088826D01*
X558332Y-5082449D01*
D02*
G37*
G36*
X-287292Y-5086110D02*
X-312709D01*
X-336191Y-5095837D01*
X-354163Y-5113809D01*
X-363890Y-5137291D01*
Y-5162708D01*
X-354163Y-5186191D01*
X-336191Y-5204163D01*
X-312709Y-5213890D01*
X-287292D01*
X-263809Y-5204163D01*
X-245837Y-5186191D01*
X-236110Y-5162708D01*
Y-5137291D01*
X-245837Y-5113809D01*
X-263809Y-5095837D01*
X-287292Y-5086110D01*
D02*
G37*
G36*
X60000Y-5030515D02*
X42016Y-5032883D01*
X25258Y-5039825D01*
X10867Y-5050867D01*
X-175Y-5065258D01*
X-7117Y-5082016D01*
X-9484Y-5100000D01*
Y-5200000D01*
X-7117Y-5217984D01*
X-175Y-5234742D01*
X10867Y-5249133D01*
X25258Y-5260175D01*
X42016Y-5267117D01*
X60000Y-5269484D01*
X77984Y-5267117D01*
X94742Y-5260175D01*
X109133Y-5249133D01*
X120175Y-5234742D01*
X127117Y-5217984D01*
X129484Y-5200000D01*
Y-5100000D01*
X127117Y-5082016D01*
X120175Y-5065258D01*
X109133Y-5050867D01*
X94742Y-5039825D01*
X77984Y-5032883D01*
X60000Y-5030515D01*
D02*
G37*
G36*
X338000Y-5263671D02*
X262700D01*
Y-5387300D01*
X386328D01*
Y-5312000D01*
X382650Y-5293505D01*
X372173Y-5277826D01*
X356494Y-5267350D01*
X338000Y-5263671D01*
D02*
G37*
G36*
X237300D02*
X162000D01*
X143505Y-5267350D01*
X127826Y-5277826D01*
X117350Y-5293505D01*
X113671Y-5312000D01*
Y-5387300D01*
X237300D01*
Y-5263671D01*
D02*
G37*
G36*
X458332Y-5333110D02*
X441667D01*
X426271Y-5339488D01*
X414487Y-5351271D01*
X408110Y-5366668D01*
Y-5383333D01*
X414487Y-5398729D01*
X426271Y-5410513D01*
X441667Y-5416890D01*
X458332D01*
X473728Y-5410513D01*
X485512Y-5398729D01*
X491890Y-5383333D01*
Y-5366668D01*
X485512Y-5351271D01*
X473728Y-5339488D01*
X458332Y-5333110D01*
D02*
G37*
G36*
X386328Y-5412700D02*
X262700D01*
Y-5536329D01*
X338000D01*
X356494Y-5532650D01*
X372173Y-5522173D01*
X382650Y-5506494D01*
X386328Y-5488000D01*
Y-5412700D01*
D02*
G37*
G36*
X-722000Y-5513671D02*
X-797300D01*
Y-5637300D01*
X-673671D01*
Y-5562000D01*
X-677350Y-5543505D01*
X-687827Y-5527826D01*
X-703506Y-5517350D01*
X-722000Y-5513671D01*
D02*
G37*
G36*
X-822700D02*
X-898000D01*
X-916495Y-5517350D01*
X-932174Y-5527826D01*
X-942650Y-5543505D01*
X-946329Y-5562000D01*
Y-5637300D01*
X-822700D01*
Y-5513671D01*
D02*
G37*
G36*
X-287292Y-5586110D02*
X-312709D01*
X-336191Y-5595837D01*
X-354163Y-5613809D01*
X-363890Y-5637291D01*
Y-5662708D01*
X-354163Y-5686191D01*
X-336191Y-5704163D01*
X-312709Y-5713890D01*
X-287292D01*
X-263809Y-5704163D01*
X-245837Y-5686191D01*
X-236110Y-5662708D01*
Y-5637291D01*
X-245837Y-5613809D01*
X-263809Y-5595837D01*
X-287292Y-5586110D01*
D02*
G37*
G36*
X237300Y-5412700D02*
X113671D01*
Y-5488000D01*
X117350Y-5506494D01*
X127145Y-5521154D01*
X127625Y-5523215D01*
X125212Y-5535701D01*
X115258Y-5539825D01*
X100867Y-5550867D01*
X89825Y-5565258D01*
X82883Y-5582016D01*
X80516Y-5600000D01*
Y-5700000D01*
X82883Y-5717984D01*
X89825Y-5734742D01*
X100867Y-5749133D01*
X115258Y-5760175D01*
X132016Y-5767117D01*
X150000Y-5769484D01*
X167984Y-5767117D01*
X184742Y-5760175D01*
X199133Y-5749133D01*
X210175Y-5734742D01*
X217117Y-5717984D01*
X219484Y-5700000D01*
Y-5600000D01*
X217117Y-5582016D01*
X210175Y-5565258D01*
X199133Y-5550867D01*
X196737Y-5549029D01*
X201048Y-5536329D01*
X237300D01*
Y-5412700D01*
D02*
G37*
G36*
X-673671Y-5662700D02*
X-797300D01*
Y-5786329D01*
X-722000D01*
X-703506Y-5782650D01*
X-687827Y-5772173D01*
X-677350Y-5756494D01*
X-673671Y-5738000D01*
Y-5662700D01*
D02*
G37*
G36*
X-822700D02*
X-946329D01*
Y-5738000D01*
X-942650Y-5756494D01*
X-932174Y-5772173D01*
X-916495Y-5782650D01*
X-898000Y-5786329D01*
X-822700D01*
Y-5662700D01*
D02*
G37*
%LPD*%
D80*
X1238621Y65176D02*
X1302661Y1135D01*
X915093Y65176D02*
X1238621D01*
X863722Y13805D02*
X915093Y65176D01*
X756195Y13805D02*
X863722D01*
X420000Y350000D02*
X756195Y13805D01*
X817500Y211496D02*
X919019Y109977D01*
X1322754D01*
X1382731Y50000D01*
Y-22061D02*
Y50000D01*
X817500Y211496D02*
Y730000D01*
X1000000Y-250000D02*
X1182222Y-67778D01*
X1337014D02*
X1382731Y-22061D01*
X1000000Y-400000D02*
Y-250000D01*
X1182222Y-67778D02*
X1337014D01*
X1100000Y-250000D02*
X1212973Y-137027D01*
X1100000Y-400000D02*
Y-250000D01*
X745001Y-400000D02*
X819143Y-474142D01*
X1025858D02*
X1100000Y-400000D01*
X819143Y-474142D02*
X1025858D01*
X1212973Y-137027D02*
X1296241D01*
D81*
X1499998Y-250000D02*
Y-199998D01*
X1374998Y-375000D02*
X1499998Y-250000D01*
X1250000Y-375000D02*
X1374998D01*
X1075000Y-550000D02*
X1250000Y-375000D01*
X406298Y-550000D02*
X1075000D01*
X-200000Y56298D02*
Y300000D01*
Y56298D02*
X406298Y-550000D01*
X1350000Y1200000D02*
Y1450000D01*
Y1200000D02*
X1700000Y850000D01*
Y600000D02*
Y850000D01*
X2209000Y381000D02*
Y541000D01*
X2150000Y600000D02*
X2209000Y541000D01*
X1700000Y600000D02*
X2150000D01*
X1500000Y400000D02*
X1700000Y600000D01*
X1499998Y200003D02*
X1500000Y200005D01*
Y400000D01*
X1183307D02*
X1500000D01*
X959331Y176025D02*
X1183307Y400000D01*
X1499998Y-199998D02*
Y200003D01*
D93*
X2209000Y381000D02*
D03*
D94*
Y127000D02*
D03*
Y-127000D02*
D03*
Y-381000D02*
D03*
X1955000D02*
D03*
Y-127000D02*
D03*
Y127000D02*
D03*
Y381000D02*
D03*
D95*
X1600000Y-1090000D02*
D03*
Y-2410000D02*
D03*
D96*
X-230000Y-4820000D02*
D03*
D97*
X60000Y-5150000D02*
D03*
X-460000Y-4840000D02*
D03*
X150000Y-5650000D02*
D03*
X-610000Y-5040000D02*
D03*
X-750000Y-4840000D02*
D03*
D98*
X-810000Y-5650000D02*
D03*
X250000Y-5400000D02*
D03*
D99*
X-300000Y-5650000D02*
D03*
Y-5150000D02*
D03*
D100*
X-1995000Y-289000D02*
D03*
Y289000D02*
D03*
D101*
X-2100000Y-4500000D02*
D03*
X2300000D02*
D03*
Y4500000D02*
D03*
X-2100000D02*
D03*
D102*
X-400000Y-4400000D02*
D03*
X-200000D02*
D03*
X1291155Y3164299D02*
D03*
X1291156Y3264299D02*
D03*
X1350000Y3325000D02*
D03*
X1425000Y3350000D02*
D03*
X1025000Y2725000D02*
D03*
X950000Y2100000D02*
D03*
X-1100000Y5050000D02*
D03*
X650000Y-3500000D02*
D03*
Y-3700000D02*
D03*
Y-3900000D02*
D03*
X850000D02*
D03*
X-1850000Y-3650000D02*
D03*
X-1600000Y-4700000D02*
D03*
X-1500000D02*
D03*
X-1400000D02*
D03*
X-1300000D02*
D03*
X-1200000D02*
D03*
X-1700000D02*
D03*
X-1600000Y-4600000D02*
D03*
X-1500000D02*
D03*
X-1400000D02*
D03*
X-1300000D02*
D03*
X-1200000D02*
D03*
X-1700000D02*
D03*
X-1100000Y-3750001D02*
D03*
X-1000000D02*
D03*
X-900000D02*
D03*
Y-3550001D02*
D03*
Y-3650001D02*
D03*
X-1000000Y-3550001D02*
D03*
Y-3650001D02*
D03*
X-1100000Y-3550001D02*
D03*
Y-3650001D02*
D03*
X-2100000Y-3650000D02*
D03*
X934909Y-4380448D02*
D03*
X1250000Y-3900000D02*
D03*
X1450000D02*
D03*
X549987Y-5800003D02*
D03*
X349985Y-5800004D02*
D03*
X949992Y-5800001D02*
D03*
X749989Y-5800002D02*
D03*
X1349997Y-5799999D02*
D03*
X1149994Y-5800000D02*
D03*
X1549995Y-4199988D02*
D03*
X1549994Y-3999986D02*
D03*
X1549997Y-4599993D02*
D03*
X1549996Y-4399990D02*
D03*
X1549999Y-4999998D02*
D03*
X1549998Y-4799995D02*
D03*
X1549997Y-5399993D02*
D03*
X1549996Y-5199990D02*
D03*
X1549999Y-5799998D02*
D03*
X1549998Y-5599995D02*
D03*
X-1050008Y-4199981D02*
D03*
X-1050009Y-3999979D02*
D03*
X-1050006Y-4599986D02*
D03*
X-1050007Y-4399984D02*
D03*
X-1050004Y-4999991D02*
D03*
X-1050005Y-4799988D02*
D03*
X-1050002Y-5399995D02*
D03*
X-1050003Y-5199993D02*
D03*
X-1050000Y-5800000D02*
D03*
X-1050001Y-5599998D02*
D03*
X500000Y1800000D02*
D03*
X-1700000Y-3550001D02*
D03*
X-1700000Y-4400001D02*
D03*
Y-4500001D02*
D03*
X-1500000Y-3550001D02*
D03*
X709274Y-4271181D02*
D03*
X924133Y-4473648D02*
D03*
X450000Y-5375000D02*
D03*
X485000Y-4480000D02*
D03*
X-300000Y-4400000D02*
D03*
X684615Y-4829873D02*
D03*
X550000Y-5124339D02*
D03*
X-200000Y-4575000D02*
D03*
X-300000D02*
D03*
X1024096Y2862064D02*
D03*
Y2946416D02*
D03*
X1172197Y-4862877D02*
D03*
X650000Y4250000D02*
D03*
X-76863Y3330960D02*
D03*
X250000Y3500000D02*
D03*
X400000Y3500004D02*
D03*
X-300000Y1850000D02*
D03*
X-200000Y1875000D02*
D03*
X250000Y2050000D02*
D03*
Y2150000D02*
D03*
X350000Y2050000D02*
D03*
X450000Y2150000D02*
D03*
X350000D02*
D03*
X-200000Y2000000D02*
D03*
X-300000D02*
D03*
X-400000D02*
D03*
X-150000Y2200000D02*
D03*
X-1100000Y5300000D02*
D03*
X-736212Y2050000D02*
D03*
X2100000D02*
D03*
X-436708Y1846844D02*
D03*
X-900000Y5300000D02*
D03*
X-1249976Y5474990D02*
D03*
X-1150001Y5574998D02*
D03*
X-949998Y5575000D02*
D03*
X-749995Y5575001D02*
D03*
X-550013Y5574992D02*
D03*
X-350010Y5574994D02*
D03*
X-150007Y5574996D02*
D03*
X49997Y5574998D02*
D03*
X450004Y5575002D02*
D03*
X-470000Y4580000D02*
D03*
X-580000D02*
D03*
X-690000D02*
D03*
Y4690000D02*
D03*
Y4800000D02*
D03*
X-470000Y4690000D02*
D03*
Y4800000D02*
D03*
X-580000Y4690000D02*
D03*
X-1091971Y4959529D02*
D03*
X-1200000Y4100000D02*
D03*
X-1300000D02*
D03*
X-950021Y3499991D02*
D03*
X50000Y4550000D02*
D03*
X-1249994Y4399986D02*
D03*
X-1249993Y4199983D02*
D03*
X-1249992Y3999981D02*
D03*
X-1249998Y5199995D02*
D03*
X-1249997Y4999993D02*
D03*
X-1080760Y4866847D02*
D03*
X-1249996Y4799990D02*
D03*
X-1249995Y4599988D02*
D03*
X-1150000Y5150000D02*
D03*
X-1249990Y3599976D02*
D03*
X-1150024Y3499990D02*
D03*
X-1249991Y3799978D02*
D03*
X250000Y5575000D02*
D03*
X650024Y5575010D02*
D03*
X750000Y5475000D02*
D03*
X-450000Y5350000D02*
D03*
X-149995Y3500002D02*
D03*
X-349997Y3500001D02*
D03*
X-550016Y3499993D02*
D03*
X-750019Y3499992D02*
D03*
X749999Y5200002D02*
D03*
X170010Y5139997D02*
D03*
X749999Y5000002D02*
D03*
Y4800002D02*
D03*
Y4600002D02*
D03*
Y4400002D02*
D03*
Y4200002D02*
D03*
X650000Y4050000D02*
D03*
X749999Y4000002D02*
D03*
Y3800002D02*
D03*
X750000Y3600000D02*
D03*
X650015Y3500006D02*
D03*
X50008Y3500003D02*
D03*
X-580000Y4800000D02*
D03*
X-540Y-1700000D02*
D03*
X75010Y-1399990D02*
D03*
X700000Y823801D02*
D03*
X550000D02*
D03*
X622500Y823800D02*
D03*
Y724600D02*
D03*
X1750000Y-1875000D02*
D03*
X1450000D02*
D03*
Y-1625000D02*
D03*
X1750000D02*
D03*
Y-1750000D02*
D03*
X1450000D02*
D03*
X-700000Y-1625000D02*
D03*
X1100000Y0D02*
D03*
X725000Y350000D02*
D03*
X800000Y100000D02*
D03*
X-123041Y765296D02*
D03*
X-1575000Y3500000D02*
D03*
X300000Y600000D02*
D03*
X1110107Y1337535D02*
D03*
X1375000Y550000D02*
D03*
Y650000D02*
D03*
Y750000D02*
D03*
X1100000Y-3325000D02*
D03*
X1085000Y-4615000D02*
D03*
X811661Y-4283028D02*
D03*
X1085361Y-4165000D02*
D03*
X800000Y-5050000D02*
D03*
X900000Y-5025000D02*
D03*
Y-4925000D02*
D03*
X550000Y-5375000D02*
D03*
X-400000Y-4575000D02*
D03*
X1075000Y450000D02*
D03*
X675000D02*
D03*
X300000Y75000D02*
D03*
X525000Y-300000D02*
D03*
X425000Y0D02*
D03*
X-99993Y300000D02*
D03*
X300000Y1175000D02*
D03*
X-736211Y2350000D02*
D03*
X-1425000Y-1850000D02*
D03*
X-1800000Y-1675000D02*
D03*
X-1825000Y-2125000D02*
D03*
X-1462224Y-1680260D02*
D03*
X-1825000Y-2225000D02*
D03*
X-2200000Y-3875000D02*
D03*
X-1000001Y-430010D02*
D03*
X-1775000Y475000D02*
D03*
Y-475000D02*
D03*
Y300000D02*
D03*
X-1450000Y100000D02*
D03*
X-1425000Y-250000D02*
D03*
X400000Y-2825000D02*
D03*
Y-2750000D02*
D03*
X-1425000Y-1775000D02*
D03*
X-2075000Y-1750000D02*
D03*
X-1975000Y-3250000D02*
D03*
X-1900000D02*
D03*
X-1825000D02*
D03*
X-425000Y-1300000D02*
D03*
X-377565Y-1569402D02*
D03*
X-725010Y-2000009D02*
D03*
X-725000Y-2100000D02*
D03*
X-600000Y-1725000D02*
D03*
X-1275010Y-1600009D02*
D03*
Y-1500009D02*
D03*
X1800000Y-3050000D02*
D03*
X2500000Y-3250000D02*
D03*
X1249991Y-3374997D02*
D03*
X1350009Y-3375010D02*
D03*
X1583104Y-3339308D02*
D03*
X1675009Y-3600010D02*
D03*
X1950000Y-3700000D02*
D03*
X-978113Y2464828D02*
D03*
X-700007Y-1000003D02*
D03*
X-500005Y-1000002D02*
D03*
X-300002Y-1000001D02*
D03*
X99995Y-1000002D02*
D03*
X299998Y-1000001D02*
D03*
X-1700025Y-999997D02*
D03*
X-2100030Y-999999D02*
D03*
X-1900028Y-999998D02*
D03*
X-2300038Y-1199988D02*
D03*
X-2300039Y-999986D02*
D03*
X-2300036Y-1599993D02*
D03*
X-2300037Y-1399990D02*
D03*
X-2300033Y-1999998D02*
D03*
X-2300035Y-1799995D02*
D03*
X-2300038Y-2399988D02*
D03*
X-2300039Y-2199986D02*
D03*
X-2300036Y-2799993D02*
D03*
X-2300037Y-2599990D02*
D03*
X-2300033Y-3199998D02*
D03*
X-2300035Y-2999995D02*
D03*
X-2100030Y-3400016D02*
D03*
X-2300032Y-3400017D02*
D03*
X-1700025Y-3400014D02*
D03*
X-1900028Y-3400015D02*
D03*
X-1300021Y-3400011D02*
D03*
X-1500023Y-3400013D02*
D03*
X-900016Y-3400009D02*
D03*
X-1100018Y-3400010D02*
D03*
X-500011Y-3400007D02*
D03*
X-700013Y-3400008D02*
D03*
X-100006Y-3400005D02*
D03*
X-300009Y-3400006D02*
D03*
X99996Y-3400004D02*
D03*
X299999Y-3400003D02*
D03*
X500001Y-3400002D02*
D03*
X500010Y-3000024D02*
D03*
X500009Y-2800022D02*
D03*
X500008Y-2600019D02*
D03*
X500007Y-2400017D02*
D03*
X500006Y-2200014D02*
D03*
X500005Y-2000012D02*
D03*
X500004Y-1800010D02*
D03*
X500003Y-1600007D02*
D03*
X500002Y-1400005D02*
D03*
X500000Y-1000000D02*
D03*
X500001Y-1200002D02*
D03*
X-1458454Y2130000D02*
D03*
Y557527D02*
D03*
X-1402101Y4097899D02*
D03*
X-230001Y-2989999D02*
D03*
Y-2900000D02*
D03*
X1425010Y-3200099D02*
D03*
X2350000Y-2800000D02*
D03*
X1350000Y1450000D02*
D03*
X-200000Y300000D02*
D03*
X-1449999Y-650000D02*
D03*
X-1350000Y-550000D02*
D03*
Y-650000D02*
D03*
X-1400000Y-600000D02*
D03*
X-1850000Y700000D02*
D03*
Y1050000D02*
D03*
X-550000Y1700000D02*
D03*
X1500000Y1700000D02*
D03*
X1900000D02*
D03*
X1700000D02*
D03*
X2300000D02*
D03*
X-700000Y-300000D02*
D03*
Y-100000D02*
D03*
Y100000D02*
D03*
Y500000D02*
D03*
Y700000D02*
D03*
Y900000D02*
D03*
Y1100000D02*
D03*
Y1500000D02*
D03*
X-299998Y-699999D02*
D03*
X-499998D02*
D03*
X500002D02*
D03*
X300002D02*
D03*
X100002D02*
D03*
X700001D02*
D03*
X900001D02*
D03*
X1100001D02*
D03*
X1300001D02*
D03*
X1500001D02*
D03*
X1700001D02*
D03*
X1900001D02*
D03*
X2100000D02*
D03*
X2300000D02*
D03*
X2500000D02*
D03*
Y-499999D02*
D03*
Y-299999D02*
D03*
Y-100000D02*
D03*
Y100000D02*
D03*
Y300000D02*
D03*
X2500000Y500001D02*
D03*
Y700001D02*
D03*
Y900000D02*
D03*
Y1100000D02*
D03*
Y1300000D02*
D03*
Y1500000D02*
D03*
Y1700000D02*
D03*
X-700000D02*
D03*
Y1300000D02*
D03*
Y300000D02*
D03*
Y-700000D02*
D03*
X-1300000Y-1700000D02*
D03*
X-500000Y-1350000D02*
D03*
X1250000Y-4478674D02*
D03*
Y-4389337D02*
D03*
X1084997Y-4965009D02*
D03*
X-320000Y-2989999D02*
D03*
X-410000D02*
D03*
X-500000D02*
D03*
Y-2900000D02*
D03*
X-410000D02*
D03*
X-320000D02*
D03*
X-1050000Y580000D02*
D03*
X-1150000Y580000D02*
D03*
X-2250000Y3850000D02*
D03*
X950000Y3191377D02*
D03*
Y3000000D02*
D03*
Y3100000D02*
D03*
X-1550000Y2900000D02*
D03*
X-1450000Y-550000D02*
D03*
X950000Y2350000D02*
D03*
X900000Y2300000D02*
D03*
X1011250Y2375000D02*
D03*
X-2370000Y3200000D02*
D03*
Y3350000D02*
D03*
X-950000Y-600000D02*
D03*
X-1050000D02*
D03*
X-1100000Y-650000D02*
D03*
X-1000000D02*
D03*
X-950000Y-700000D02*
D03*
X-1050000D02*
D03*
X-1150000D02*
D03*
X1302661Y1135D02*
D03*
X420000Y350000D02*
D03*
X1067083Y-3133402D02*
D03*
X1156418Y-3133401D02*
D03*
X1939739Y-3290415D02*
D03*
Y-3200099D02*
D03*
X-104080Y-1313988D02*
D03*
X-193415Y-1224653D02*
D03*
X-104081D02*
D03*
X-193416Y-1135318D02*
D03*
X-104081D02*
D03*
X-1650000Y-2600000D02*
D03*
X-1750000D02*
D03*
X-1650000Y-2500000D02*
D03*
X-1750000D02*
D03*
X-1650000Y-2400000D02*
D03*
X-1750000D02*
D03*
X2400000Y-3000000D02*
D03*
X2300000D02*
D03*
X1250000Y-4900000D02*
D03*
X950000Y-4300000D02*
D03*
X1050000D02*
D03*
X1150000D02*
D03*
X1250000Y-4300000D02*
D03*
X-1550000Y875000D02*
D03*
X-979991Y-330003D02*
D03*
X-736211Y2680000D02*
D03*
Y2460000D02*
D03*
X-736212Y1910000D02*
D03*
X1100000Y1830000D02*
D03*
X1000000D02*
D03*
X900000D02*
D03*
X800000Y1830000D02*
D03*
X745001Y-400000D02*
D03*
X1296241Y-137027D02*
D03*
X1000000Y-400000D02*
D03*
X817500Y730000D02*
D03*
X-1200000Y-4500001D02*
D03*
X-1200000Y-4400001D02*
D03*
X-1300000Y-4500001D02*
D03*
X-1400000D02*
D03*
X-1500000D02*
D03*
X-1600000D02*
D03*
Y-4400001D02*
D03*
X-1500000D02*
D03*
X-1400001Y-4400001D02*
D03*
X-1300001Y-4400001D02*
D03*
X-1400000Y-4300001D02*
D03*
X-1300000D02*
D03*
X-1200000Y-4300001D02*
D03*
X-1700000Y-4200001D02*
D03*
X-1132658Y-3967343D02*
D03*
X-1500000Y-3650001D02*
D03*
X-1400000Y-3550001D02*
D03*
X-1200000Y-3650001D02*
D03*
Y-3550001D02*
D03*
X-1300000D02*
D03*
Y-3650001D02*
D03*
X-1400000Y-3650001D02*
D03*
X-850000Y-150000D02*
D03*
Y-50000D02*
D03*
X1399997Y-199998D02*
D03*
X1499998D02*
D03*
X1399997Y200003D02*
D03*
X1499998D02*
D03*
X-1680000Y-100000D02*
D03*
D103*
X2462902Y-2963894D02*
D03*
X1924237Y-3361192D02*
D03*
X1000000Y-3125000D02*
D03*
X1225000D02*
D03*
X1063837Y2791302D02*
D03*
X1300000Y2875000D02*
D03*
Y2975000D02*
D03*
X1275000Y3350000D02*
D03*
X950000Y2925000D02*
D03*
X875000Y3150000D02*
D03*
Y3050000D02*
D03*
X-809990Y5169990D02*
D03*
X-719990D02*
D03*
X-629990D02*
D03*
X849999Y1875001D02*
D03*
X1050000Y1875000D02*
D03*
X950000D02*
D03*
X775870Y2112558D02*
D03*
X-1117832Y4808495D02*
D03*
X769892Y-4653438D02*
D03*
X864692Y-4716252D02*
D03*
X-333893Y5206678D02*
D03*
X-326520Y5160783D02*
D03*
X-10763Y5251952D02*
D03*
X76776Y5274349D02*
D03*
X35153Y5254752D02*
D03*
X-265376Y5020360D02*
D03*
X-834879Y4528263D02*
D03*
X-84358Y4368863D02*
D03*
X-325788Y4654703D02*
D03*
X-160489Y4368863D02*
D03*
X50000Y2256321D02*
D03*
X0Y2100000D02*
D03*
Y2150000D02*
D03*
Y2200000D02*
D03*
X-250000D02*
D03*
Y2250000D02*
D03*
Y2300000D02*
D03*
X-205798Y2665303D02*
D03*
X-50000Y2678825D02*
D03*
X-1059928Y4579524D02*
D03*
X-1021304Y4528338D02*
D03*
X-1056811Y4437759D02*
D03*
X-462127Y4938014D02*
D03*
X58226Y5400000D02*
D03*
X149025Y5300000D02*
D03*
Y5400000D02*
D03*
X239825Y5300000D02*
D03*
Y5400000D02*
D03*
X330624Y5300000D02*
D03*
Y5400000D02*
D03*
X421424Y5300000D02*
D03*
Y5400000D02*
D03*
X512223Y5300000D02*
D03*
Y5400000D02*
D03*
X603022Y5300000D02*
D03*
Y5400000D02*
D03*
X693822Y5300000D02*
D03*
Y5400000D02*
D03*
X434979Y5138597D02*
D03*
X308908D02*
D03*
X203862Y4589776D02*
D03*
X308921Y4491402D02*
D03*
X434992D02*
D03*
X532410Y4562079D02*
D03*
X569658Y4672868D02*
D03*
Y4771241D02*
D03*
Y4869615D02*
D03*
Y4967988D02*
D03*
X520931Y5046820D02*
D03*
X217554Y5022805D02*
D03*
X179815Y4913020D02*
D03*
X-31622Y4720985D02*
D03*
X120302Y4714131D02*
D03*
X190207Y4748203D02*
D03*
X96163Y4837728D02*
D03*
X1025000Y5450000D02*
D03*
X875421Y5400000D02*
D03*
X940800D02*
D03*
X1150000D02*
D03*
X1250000D02*
D03*
X1200000D02*
D03*
X1150000Y5350000D02*
D03*
X1250000D02*
D03*
X1200000D02*
D03*
X940800Y5300000D02*
D03*
X875421D02*
D03*
X1200000Y5300000D02*
D03*
X1250000D02*
D03*
X1150000D02*
D03*
X1025000Y5250000D02*
D03*
X-900000Y5200000D02*
D03*
X-834879Y4728263D02*
D03*
X784621Y5400000D02*
D03*
Y5300000D02*
D03*
X-84112Y5395885D02*
D03*
X-123429Y5373185D02*
D03*
X-350000Y5350000D02*
D03*
X-155532Y5341083D02*
D03*
X-187634Y5308980D02*
D03*
X-219737Y5276878D02*
D03*
X-568102Y5190228D02*
D03*
X-606893Y5119190D02*
D03*
X-758594D02*
D03*
X-682744D02*
D03*
X-689679Y4938014D02*
D03*
X-834445Y5119190D02*
D03*
X50285Y4967630D02*
D03*
X-94438Y5217407D02*
D03*
X7217Y4839610D02*
D03*
X-55121Y5240107D02*
D03*
X-158644Y5153202D02*
D03*
X-190746Y5121099D02*
D03*
X-230064Y5098400D02*
D03*
X-262166Y5066297D02*
D03*
X-360038Y5245683D02*
D03*
X-126541Y5185305D02*
D03*
X-537977Y4938014D02*
D03*
X-137875Y4786872D02*
D03*
X-613828Y4938014D02*
D03*
X-200000Y-1925000D02*
D03*
X1075000Y2675000D02*
D03*
Y2475000D02*
D03*
X-1780000Y75000D02*
D03*
Y-25000D02*
D03*
X959331Y176025D02*
D03*
%TF.MD5,b4a22bfd7b0e6262156a198657b070e4*%
M02*
