%TF.GenerationSoftware,Altium Limited,Altium Designer,22.5.1 (42)*%
G04 Layer_Color=16711935*
%FSLAX45Y45*%
%MOMM*%
%TF.SameCoordinates,F888E7AA-4E72-4095-8AF7-FBE96A0088CA*%
%TF.FilePolarity,Negative*%
%TF.FileFunction,Soldermask,Bot*%
%TF.Part,Single*%
G01*
G75*
%TA.AperFunction,ComponentPad*%
%ADD18C,2.13200*%
G04:AMPARAMS|DCode=19|XSize=2.132mm|YSize=2.132mm|CornerRadius=0.558mm|HoleSize=0mm|Usage=FLASHONLY|Rotation=0.000|XOffset=0mm|YOffset=0mm|HoleType=Round|Shape=RoundedRectangle|*
%AMROUNDEDRECTD19*
21,1,2.13200,1.01600,0,0,0.0*
21,1,1.01600,2.13200,0,0,0.0*
1,1,1.11600,0.50800,-0.50800*
1,1,1.11600,-0.50800,-0.50800*
1,1,1.11600,-0.50800,0.50800*
1,1,1.11600,0.50800,0.50800*
%
%ADD19ROUNDEDRECTD19*%
%TA.AperFunction,WasherPad*%
%ADD20C,6.10000*%
%TA.AperFunction,ComponentPad*%
%ADD21R,1.60000X2.30000*%
%ADD22O,1.60000X2.30000*%
D18*
X-381000Y-254000D02*
D03*
X-127000D02*
D03*
X127000D02*
D03*
X381000D02*
D03*
Y-508000D02*
D03*
X127000D02*
D03*
X-127000D02*
D03*
D19*
X-381000D02*
D03*
D20*
X-952500Y-412750D02*
D03*
X952500D02*
D03*
D21*
X1492250Y95250D02*
D03*
X666750D02*
D03*
X-158750D02*
D03*
X-984250D02*
D03*
D22*
X1238250D02*
D03*
X984250D02*
D03*
X412750D02*
D03*
X158750D02*
D03*
X-412750D02*
D03*
X-666750D02*
D03*
X-1238250D02*
D03*
X-1492250D02*
D03*
%TF.MD5,b2785c455de0bb9876b0f0b4a6fbae9e*%
M02*
