%TF.GenerationSoftware,Altium Limited,Altium Designer,22.5.1 (42)*%
G04 Layer_Physical_Order=2*
G04 Layer_Color=15441517*
%FSLAX45Y45*%
%MOMM*%
%TF.SameCoordinates,F888E7AA-4E72-4095-8AF7-FBE96A0088CA*%
%TF.FilePolarity,Positive*%
%TF.FileFunction,Copper,L2,Bot,Signal*%
%TF.Part,Single*%
G01*
G75*
%TA.AperFunction,Conductor*%
%ADD12C,0.25400*%
%TA.AperFunction,ComponentPad*%
%ADD13C,2.03200*%
G04:AMPARAMS|DCode=14|XSize=2.032mm|YSize=2.032mm|CornerRadius=0.508mm|HoleSize=0mm|Usage=FLASHONLY|Rotation=0.000|XOffset=0mm|YOffset=0mm|HoleType=Round|Shape=RoundedRectangle|*
%AMROUNDEDRECTD14*
21,1,2.03200,1.01600,0,0,0.0*
21,1,1.01600,2.03200,0,0,0.0*
1,1,1.01600,0.50800,-0.50800*
1,1,1.01600,-0.50800,-0.50800*
1,1,1.01600,-0.50800,0.50800*
1,1,1.01600,0.50800,0.50800*
%
%ADD14ROUNDEDRECTD14*%
%TA.AperFunction,WasherPad*%
%ADD15C,6.00000*%
%TA.AperFunction,ComponentPad*%
%ADD16R,1.50000X2.20000*%
%ADD17O,1.50000X2.20000*%
G36*
X1619250Y259292D02*
X1633425Y256472D01*
X1645442Y248442D01*
X1653472Y236425D01*
X1656292Y222250D01*
X1656343D01*
Y-698500D01*
X1656292D01*
X1653472Y-712675D01*
X1645442Y-724692D01*
X1633425Y-732722D01*
X1619250Y-735542D01*
Y-735593D01*
X-1619250D01*
Y-735542D01*
X-1633425Y-732722D01*
X-1645442Y-724692D01*
X-1653472Y-712675D01*
X-1656292Y-698500D01*
X-1656343D01*
Y222250D01*
X-1656292D01*
X-1653472Y236425D01*
X-1645442Y248442D01*
X-1633425Y256472D01*
X-1619250Y259292D01*
Y259343D01*
X1619250D01*
Y259292D01*
D02*
G37*
%LPC*%
G36*
X171450Y229844D02*
Y107950D01*
X260016D01*
Y130250D01*
X256566Y156460D01*
X246449Y180883D01*
X230356Y201856D01*
X209383Y217949D01*
X184960Y228066D01*
X171450Y229844D01*
D02*
G37*
G36*
X-1479550D02*
Y107950D01*
X-1390984D01*
Y130250D01*
X-1394434Y156460D01*
X-1404551Y180883D01*
X-1420644Y201856D01*
X-1441617Y217949D01*
X-1466040Y228066D01*
X-1479550Y229844D01*
D02*
G37*
G36*
X996950D02*
Y107950D01*
X1085516D01*
Y130250D01*
X1082066Y156460D01*
X1071949Y180883D01*
X1055856Y201856D01*
X1034883Y217949D01*
X1010460Y228066D01*
X996950Y229844D01*
D02*
G37*
G36*
X-654050D02*
Y107950D01*
X-565484D01*
Y130250D01*
X-568934Y156460D01*
X-579051Y180883D01*
X-595144Y201856D01*
X-616117Y217949D01*
X-640540Y228066D01*
X-654050Y229844D01*
D02*
G37*
G36*
X146050D02*
X132540Y228066D01*
X108117Y217949D01*
X87144Y201856D01*
X71051Y180883D01*
X60934Y156460D01*
X57484Y130250D01*
Y107950D01*
X146050D01*
Y229844D01*
D02*
G37*
G36*
X-1504950D02*
X-1518460Y228066D01*
X-1542883Y217949D01*
X-1563856Y201856D01*
X-1579949Y180883D01*
X-1590066Y156460D01*
X-1593516Y130250D01*
Y107950D01*
X-1504950D01*
Y229844D01*
D02*
G37*
G36*
X971550D02*
X958040Y228066D01*
X933617Y217949D01*
X912644Y201856D01*
X896551Y180883D01*
X886434Y156460D01*
X882984Y130250D01*
Y107950D01*
X971550D01*
Y229844D01*
D02*
G37*
G36*
X-679450D02*
X-692960Y228066D01*
X-717383Y217949D01*
X-738356Y201856D01*
X-754449Y180883D01*
X-764566Y156460D01*
X-768016Y130250D01*
Y107950D01*
X-679450D01*
Y229844D01*
D02*
G37*
G36*
X1238250Y231516D02*
X1212040Y228066D01*
X1187617Y217949D01*
X1166644Y201856D01*
X1150551Y180883D01*
X1140434Y156460D01*
X1136984Y130250D01*
Y60250D01*
X1140434Y34040D01*
X1150551Y9617D01*
X1166644Y-11356D01*
X1173290Y-16456D01*
X1168979Y-29156D01*
X1053521D01*
X1049210Y-16456D01*
X1055856Y-11356D01*
X1071949Y9617D01*
X1082066Y34040D01*
X1085516Y60250D01*
Y82550D01*
X984250D01*
Y95250D01*
D01*
Y82550D01*
X882984D01*
Y60250D01*
X886434Y34040D01*
X896551Y9617D01*
X912644Y-11356D01*
X919290Y-16456D01*
X914979Y-29156D01*
X767150D01*
Y230650D01*
X566350D01*
Y-29156D01*
X482021D01*
X477710Y-16456D01*
X484356Y-11356D01*
X500449Y9617D01*
X510566Y34040D01*
X514016Y60250D01*
Y130250D01*
X510566Y156460D01*
X500449Y180883D01*
X484356Y201856D01*
X463383Y217949D01*
X438960Y228066D01*
X412750Y231516D01*
X386540Y228066D01*
X362117Y217949D01*
X341144Y201856D01*
X325051Y180883D01*
X314934Y156460D01*
X311484Y130250D01*
Y60250D01*
X314934Y34040D01*
X325051Y9617D01*
X341144Y-11356D01*
X347790Y-16456D01*
X343479Y-29156D01*
X228021D01*
X223710Y-16456D01*
X230356Y-11356D01*
X246449Y9617D01*
X256566Y34040D01*
X260016Y60250D01*
Y82550D01*
X158750D01*
X57484D01*
Y60250D01*
X60934Y34040D01*
X71051Y9617D01*
X87144Y-11356D01*
X93790Y-16456D01*
X89479Y-29156D01*
X-58350D01*
Y230650D01*
X-259150D01*
Y-29156D01*
X-343479D01*
X-347790Y-16456D01*
X-341144Y-11356D01*
X-325051Y9617D01*
X-314934Y34040D01*
X-311484Y60250D01*
Y130250D01*
X-314934Y156460D01*
X-325051Y180883D01*
X-341144Y201856D01*
X-362117Y217949D01*
X-386540Y228066D01*
X-412750Y231516D01*
X-438960Y228066D01*
X-463383Y217949D01*
X-484356Y201856D01*
X-500449Y180883D01*
X-510566Y156460D01*
X-514016Y130250D01*
Y60250D01*
X-510566Y34040D01*
X-500449Y9617D01*
X-484356Y-11356D01*
X-477710Y-16456D01*
X-480122Y-26522D01*
X-481760Y-29356D01*
X-495618Y-32113D01*
X-508221Y-40534D01*
X-571500Y-103813D01*
X-628845Y-46468D01*
X-625912Y-31507D01*
X-616117Y-27449D01*
X-595144Y-11356D01*
X-579051Y9617D01*
X-568934Y34040D01*
X-565484Y60250D01*
Y82550D01*
X-666750D01*
X-768016D01*
Y60250D01*
X-764566Y34040D01*
X-754449Y9617D01*
X-738356Y-11356D01*
X-731710Y-16456D01*
X-736021Y-29156D01*
X-883850D01*
Y230650D01*
X-1084650D01*
Y-40150D01*
X-1021426D01*
X-1020139Y-46616D01*
X-1011719Y-59219D01*
X-975466Y-95471D01*
X-962863Y-103892D01*
X-947998Y-106849D01*
X-678338D01*
X-610347Y-174841D01*
Y-317500D01*
X-607389Y-332366D01*
X-598969Y-344969D01*
X-506107Y-437830D01*
X-508658Y-457200D01*
Y-558800D01*
X-506039Y-578693D01*
X-498361Y-597229D01*
X-486147Y-613147D01*
X-470229Y-625361D01*
X-451692Y-633039D01*
X-431800Y-635658D01*
X-330200D01*
X-310308Y-633039D01*
X-291771Y-625361D01*
X-275853Y-613147D01*
X-263639Y-597229D01*
X-255961Y-578693D01*
X-254390Y-566755D01*
X-241235Y-564138D01*
X-228625Y-585980D01*
X-204980Y-609625D01*
X-176020Y-626345D01*
X-143720Y-635000D01*
X-110280D01*
X-77980Y-626345D01*
X-49020Y-609625D01*
X-25375Y-585980D01*
X-8655Y-557020D01*
X-6350Y-548418D01*
X6350D01*
X8655Y-557020D01*
X25375Y-585980D01*
X49020Y-609625D01*
X77980Y-626345D01*
X110280Y-635000D01*
X143720D01*
X176020Y-626345D01*
X204980Y-609625D01*
X228625Y-585980D01*
X245345Y-557020D01*
X247650Y-548418D01*
X260350D01*
X262655Y-557020D01*
X279375Y-585980D01*
X303020Y-609625D01*
X331980Y-626345D01*
X364280Y-635000D01*
X368300D01*
Y-508000D01*
X381000D01*
Y-495300D01*
X508000D01*
Y-491280D01*
X499345Y-458980D01*
X482625Y-430020D01*
X458980Y-406375D01*
X430020Y-389655D01*
X421418Y-387350D01*
Y-374650D01*
X430020Y-372345D01*
X458980Y-355625D01*
X482625Y-331980D01*
X499345Y-303020D01*
X508000Y-270720D01*
Y-237280D01*
X499345Y-204980D01*
X482625Y-176020D01*
X458980Y-152375D01*
X430020Y-135655D01*
X397720Y-127000D01*
X364280D01*
X331980Y-135655D01*
X303020Y-152375D01*
X279375Y-176020D01*
X262655Y-204980D01*
X260350Y-213582D01*
X247650D01*
X245345Y-204980D01*
X228625Y-176020D01*
X204980Y-152375D01*
X176020Y-135655D01*
X143720Y-127000D01*
X110280D01*
X77980Y-135655D01*
X49020Y-152375D01*
X25375Y-176020D01*
X8655Y-204980D01*
X6350Y-213582D01*
X-6350D01*
X-8655Y-204980D01*
X-25375Y-176020D01*
X-49020Y-152375D01*
X-77980Y-135655D01*
X-110280Y-127000D01*
X-143720D01*
X-176020Y-135655D01*
X-204980Y-152375D01*
X-228625Y-176020D01*
X-245345Y-204980D01*
X-247650Y-213582D01*
X-260350D01*
X-262655Y-204980D01*
X-279375Y-176020D01*
X-303020Y-152375D01*
X-331980Y-135655D01*
X-364280Y-127000D01*
X-397720D01*
X-430020Y-135655D01*
X-458980Y-152375D01*
X-482625Y-176020D01*
X-499345Y-204980D01*
X-508000Y-237280D01*
Y-270720D01*
X-499345Y-303020D01*
X-482625Y-331980D01*
X-458980Y-355625D01*
X-437138Y-368236D01*
X-439540Y-380310D01*
X-451481Y-382582D01*
X-532653Y-301410D01*
Y-174841D01*
X-464662Y-106849D01*
X-195002D01*
X-180137Y-103892D01*
X-167534Y-95471D01*
X-158750Y-86687D01*
X-149966Y-95471D01*
X-137363Y-103892D01*
X-122498Y-106849D01*
X630498D01*
X645363Y-103892D01*
X657966Y-95471D01*
X666750Y-86687D01*
X675534Y-95471D01*
X688137Y-103892D01*
X703002Y-106849D01*
X1455998D01*
X1470863Y-103892D01*
X1483466Y-95471D01*
X1519719Y-59219D01*
X1528139Y-46616D01*
X1529426Y-40150D01*
X1592650D01*
Y230650D01*
X1391850D01*
Y-29156D01*
X1307521D01*
X1303210Y-16456D01*
X1309856Y-11356D01*
X1325949Y9617D01*
X1336066Y34040D01*
X1339516Y60250D01*
Y130250D01*
X1336066Y156460D01*
X1325949Y180883D01*
X1309856Y201856D01*
X1288883Y217949D01*
X1264460Y228066D01*
X1238250Y231516D01*
D02*
G37*
G36*
X-1390984Y82550D02*
X-1479550D01*
Y-39344D01*
X-1466040Y-37566D01*
X-1441617Y-27449D01*
X-1420644Y-11356D01*
X-1404551Y9617D01*
X-1394434Y34040D01*
X-1390984Y60250D01*
Y82550D01*
D02*
G37*
G36*
X-1504950D02*
X-1593516D01*
Y60250D01*
X-1590066Y34040D01*
X-1579949Y9617D01*
X-1563856Y-11356D01*
X-1542883Y-27449D01*
X-1518460Y-37566D01*
X-1504950Y-39344D01*
Y82550D01*
D02*
G37*
G36*
X-1238250Y231516D02*
X-1264460Y228066D01*
X-1288883Y217949D01*
X-1309856Y201856D01*
X-1325949Y180883D01*
X-1336066Y156460D01*
X-1339516Y130250D01*
Y60250D01*
X-1336066Y34040D01*
X-1325949Y9617D01*
X-1309856Y-11356D01*
X-1288883Y-27449D01*
X-1264460Y-37566D01*
X-1238250Y-41016D01*
X-1212040Y-37566D01*
X-1187617Y-27449D01*
X-1166644Y-11356D01*
X-1150551Y9617D01*
X-1140434Y34040D01*
X-1136984Y60250D01*
Y130250D01*
X-1140434Y156460D01*
X-1150551Y180883D01*
X-1166644Y201856D01*
X-1187617Y217949D01*
X-1212040Y228066D01*
X-1238250Y231516D01*
D02*
G37*
G36*
X508000Y-520700D02*
X393700D01*
Y-635000D01*
X397720D01*
X430020Y-626345D01*
X458980Y-609625D01*
X482625Y-585980D01*
X499345Y-557020D01*
X508000Y-524720D01*
Y-520700D01*
D02*
G37*
%LPD*%
D12*
X-947998Y-68002D02*
X-662248D01*
X-571500Y-158750D01*
X-984250Y-31750D02*
X-947998Y-68002D01*
X-195002D02*
X-158750Y-31750D01*
X-480752Y-68002D02*
X-195002D01*
X-571500Y-158750D02*
X-480752Y-68002D01*
X-158750Y-31750D02*
X-122498Y-68002D01*
X630498D02*
X666750Y-31750D01*
X-122498Y-68002D02*
X630498D01*
X703002D02*
X1455998D01*
X1492250Y-31750D01*
X666750D02*
X703002Y-68002D01*
X-158750Y-31750D02*
Y95250D01*
X666750Y-31750D02*
Y95250D01*
X-984250Y-31750D02*
Y95250D01*
X-571500Y-317500D02*
X-381000Y-508000D01*
X-571500Y-317500D02*
Y-158750D01*
X1492250Y-31750D02*
Y95250D01*
D13*
X-381000Y-254000D02*
D03*
X-127000D02*
D03*
X127000D02*
D03*
X381000D02*
D03*
Y-508000D02*
D03*
X127000D02*
D03*
X-127000D02*
D03*
D14*
X-381000D02*
D03*
D15*
X-952500Y-412750D02*
D03*
X952500D02*
D03*
D16*
X1492250Y95250D02*
D03*
X666750D02*
D03*
X-158750D02*
D03*
X-984250D02*
D03*
D17*
X1238250D02*
D03*
X984250D02*
D03*
X412750D02*
D03*
X158750D02*
D03*
X-412750D02*
D03*
X-666750D02*
D03*
X-1238250D02*
D03*
X-1492250D02*
D03*
%TF.MD5,69c87ccd957408392c5fcf0caee6b4e8*%
M02*
