%TF.GenerationSoftware,Altium Limited,Altium Designer,22.5.1 (42)*%
G04 Layer_Color=0*
%FSLAX45Y45*%
%MOMM*%
%TF.SameCoordinates,2641221E-3FAC-4475-AA3C-923D0AF84551*%
%TF.FilePolarity,Positive*%
%TF.FileFunction,Plated,1,2,PTH,Drill*%
%TF.Part,Single*%
G01*
G75*
%TA.AperFunction,ComponentDrill*%
%ADD54C,1.00000*%
%TA.AperFunction,ViaDrill,NotFilled*%
%ADD55C,0.40000*%
D54*
X-1325000Y-3875000D02*
D03*
X-675000D02*
D03*
X-1325000Y-4325000D02*
D03*
X-675000D02*
D03*
X-1325000Y4325000D02*
D03*
X-675000D02*
D03*
X-1325000Y3875000D02*
D03*
X-675000D02*
D03*
D55*
X450000Y50000D02*
D03*
X750000D02*
D03*
X1438943Y2193418D02*
D03*
X1466351Y3399997D02*
D03*
X1164206Y-975467D02*
D03*
X1466351Y3299990D02*
D03*
Y3099990D02*
D03*
X946140Y3325000D02*
D03*
Y3125000D02*
D03*
Y3025000D02*
D03*
Y2925000D02*
D03*
Y2825000D02*
D03*
Y2625000D02*
D03*
Y2475000D02*
D03*
X931698Y283681D02*
D03*
X-1164206Y-975468D02*
D03*
X-885794D02*
D03*
X1450000Y-850000D02*
D03*
X-1450000D02*
D03*
X1250000Y600000D02*
D03*
X1550000Y2400000D02*
D03*
%TF.MD5,87bc1e51a873e0a5d43443b427fe54d3*%
M02*
