%TF.GenerationSoftware,Altium Limited,Altium Designer,22.5.1 (42)*%
G04 Layer_Physical_Order=1*
G04 Layer_Color=6711008*
%FSLAX45Y45*%
%MOMM*%
%TF.SameCoordinates,2641221E-3FAC-4475-AA3C-923D0AF84551*%
%TF.FilePolarity,Positive*%
%TF.FileFunction,Copper,L1,Top,Signal*%
%TF.Part,Single*%
G01*
G75*
%TA.AperFunction,Conductor*%
%ADD10C,0.50800*%
%ADD11C,0.12700*%
%TA.AperFunction,ComponentPad*%
%ADD12C,1.80000*%
%TA.AperFunction,WasherPad*%
%ADD13C,6.50000*%
%TA.AperFunction,ViaPad*%
%ADD14C,0.64000*%
G36*
X2252650Y4832925D02*
X2304004Y4820596D01*
X2352798Y4800385D01*
X2397829Y4772790D01*
X2437989Y4738490D01*
X2472288Y4698330D01*
X2499883Y4653299D01*
X2520094Y4604506D01*
X2532423Y4553152D01*
X2535572Y4513143D01*
X2535711Y4500501D01*
D01*
X2535712Y4487811D01*
Y-4486809D01*
X2535711Y-4499499D01*
X2535711D01*
X2535572Y-4512141D01*
X2532423Y-4552150D01*
X2520094Y-4603504D01*
X2499883Y-4652298D01*
X2472288Y-4697329D01*
X2437989Y-4737488D01*
X2397829Y-4771788D01*
X2352798Y-4799383D01*
X2304004Y-4819594D01*
X2252650Y-4831923D01*
X2201734Y-4835930D01*
X2199999Y-4835212D01*
X-2200001D01*
X-2201736Y-4835930D01*
X-2252652Y-4831923D01*
X-2304006Y-4819594D01*
X-2352799Y-4799383D01*
X-2397830Y-4771788D01*
X-2437990Y-4737488D01*
X-2472290Y-4697329D01*
X-2499885Y-4652298D01*
X-2520096Y-4603504D01*
X-2532425Y-4552150D01*
X-2536432Y-4501235D01*
X-2535713Y-4499499D01*
X-2535713Y4500501D01*
X-2536432Y4502236D01*
X-2532425Y4553152D01*
X-2520096Y4604506D01*
X-2499885Y4653299D01*
X-2472290Y4698330D01*
X-2437990Y4738490D01*
X-2397830Y4772790D01*
X-2352799Y4800385D01*
X-2304006Y4820596D01*
X-2252652Y4832925D01*
X-2201736Y4836932D01*
X-2200001Y4836213D01*
X2199999D01*
X2201734Y4836932D01*
X2252650Y4832925D01*
D02*
G37*
%LPC*%
G36*
X-661479Y4427700D02*
X-688521D01*
X-714641Y4420701D01*
X-738059Y4407180D01*
X-757180Y4388059D01*
X-770701Y4364641D01*
X-777700Y4338521D01*
Y4311479D01*
X-770701Y4285359D01*
X-757180Y4261941D01*
X-738059Y4242820D01*
X-714641Y4229299D01*
X-688521Y4222300D01*
X-661479D01*
X-635359Y4229299D01*
X-611941Y4242820D01*
X-592819Y4261941D01*
X-579299Y4285359D01*
X-572300Y4311479D01*
Y4338521D01*
X-579299Y4364641D01*
X-592819Y4388059D01*
X-611941Y4407180D01*
X-635359Y4420701D01*
X-661479Y4427700D01*
D02*
G37*
G36*
X-1311479D02*
X-1338521D01*
X-1364641Y4420701D01*
X-1388059Y4407180D01*
X-1407181Y4388059D01*
X-1420701Y4364641D01*
X-1427700Y4338521D01*
Y4311479D01*
X-1420701Y4285359D01*
X-1407181Y4261941D01*
X-1388059Y4242820D01*
X-1364641Y4229299D01*
X-1338521Y4222300D01*
X-1311479D01*
X-1285359Y4229299D01*
X-1261941Y4242820D01*
X-1242820Y4261941D01*
X-1229299Y4285359D01*
X-1222300Y4311479D01*
Y4338521D01*
X-1229299Y4364641D01*
X-1242820Y4388059D01*
X-1261941Y4407180D01*
X-1285359Y4420701D01*
X-1311479Y4427700D01*
D02*
G37*
G36*
X-659807Y3990400D02*
X-662300D01*
Y3887700D01*
X-559600D01*
Y3890193D01*
X-567464Y3919543D01*
X-582657Y3945857D01*
X-604143Y3967343D01*
X-630457Y3982535D01*
X-659807Y3990400D01*
D02*
G37*
G36*
X-687700D02*
X-690193D01*
X-719543Y3982535D01*
X-745857Y3967343D01*
X-767343Y3945857D01*
X-782535Y3919543D01*
X-790400Y3890193D01*
Y3887700D01*
X-687700D01*
Y3990400D01*
D02*
G37*
G36*
X-1309807D02*
X-1312300D01*
Y3887700D01*
X-1209600D01*
Y3890193D01*
X-1217465Y3919543D01*
X-1232657Y3945857D01*
X-1254143Y3967343D01*
X-1280457Y3982535D01*
X-1309807Y3990400D01*
D02*
G37*
G36*
X-1337700D02*
X-1340193D01*
X-1369543Y3982535D01*
X-1395857Y3967343D01*
X-1417343Y3945857D01*
X-1432536Y3919543D01*
X-1440400Y3890193D01*
Y3887700D01*
X-1337700D01*
Y3990400D01*
D02*
G37*
G36*
X-559600Y3862300D02*
X-662300D01*
Y3759600D01*
X-659807D01*
X-630457Y3767464D01*
X-604143Y3782657D01*
X-582657Y3804143D01*
X-567464Y3830457D01*
X-559600Y3859807D01*
Y3862300D01*
D02*
G37*
G36*
X-687700D02*
X-790400D01*
Y3859807D01*
X-782535Y3830457D01*
X-767343Y3804143D01*
X-745857Y3782657D01*
X-719543Y3767464D01*
X-690193Y3759600D01*
X-687700D01*
Y3862300D01*
D02*
G37*
G36*
X-1209600D02*
X-1312300D01*
Y3759600D01*
X-1309807D01*
X-1280457Y3767464D01*
X-1254143Y3782657D01*
X-1232657Y3804143D01*
X-1217465Y3830457D01*
X-1209600Y3859807D01*
Y3862300D01*
D02*
G37*
G36*
X-1337700D02*
X-1440400D01*
Y3859807D01*
X-1432536Y3830457D01*
X-1417343Y3804143D01*
X-1395857Y3782657D01*
X-1369543Y3767464D01*
X-1340193Y3759600D01*
X-1337700D01*
Y3862300D01*
D02*
G37*
G36*
X1475242Y3444697D02*
X1457459D01*
X1441030Y3437892D01*
X1428456Y3425318D01*
X1421651Y3408889D01*
Y3391106D01*
X1428456Y3374677D01*
X1441030Y3362102D01*
X1457459Y3355297D01*
X1475242D01*
X1489373Y3361151D01*
X1505976D01*
X1542894Y3324233D01*
Y2647831D01*
X1411474Y2516412D01*
X1403054Y2503809D01*
X1400097Y2488943D01*
Y2216440D01*
X1395195Y2204606D01*
X1136738Y1946150D01*
X1128317Y1933547D01*
X1125360Y1918681D01*
Y-952444D01*
X1119507Y-966576D01*
Y-984358D01*
X1126312Y-1000787D01*
X1138886Y-1013362D01*
X1155315Y-1020167D01*
X1173098D01*
X1189527Y-1013362D01*
X1202101Y-1000787D01*
X1208906Y-984358D01*
Y-966576D01*
X1203053Y-952444D01*
Y565873D01*
X1215753Y571032D01*
X1224680Y562105D01*
X1241109Y555300D01*
X1258891D01*
X1275321Y562105D01*
X1287895Y574680D01*
X1294700Y591109D01*
Y608891D01*
X1287895Y625321D01*
X1275321Y637895D01*
X1269423Y640338D01*
Y1841955D01*
X1563733Y2136265D01*
X1563734Y2136266D01*
X1567945Y2142567D01*
X1569423Y2150000D01*
Y2359663D01*
X1575320Y2362105D01*
X1587895Y2374680D01*
X1594700Y2391109D01*
Y2408891D01*
X1587895Y2425321D01*
X1575320Y2437895D01*
X1558891Y2444700D01*
X1541109D01*
X1524679Y2437895D01*
X1512105Y2425321D01*
X1505300Y2408891D01*
Y2391109D01*
X1512105Y2374680D01*
X1524679Y2362105D01*
X1530577Y2359663D01*
Y2158045D01*
X1236266Y1863734D01*
X1232055Y1857433D01*
X1230577Y1850000D01*
Y640338D01*
X1224680Y637895D01*
X1215753Y628968D01*
X1203053Y634127D01*
Y1902590D01*
X1450132Y2149669D01*
X1464264Y2155523D01*
X1476838Y2168097D01*
X1483643Y2184526D01*
Y2202309D01*
X1477790Y2216440D01*
Y2472852D01*
X1609209Y2604271D01*
X1617629Y2616874D01*
X1620587Y2631740D01*
Y3340324D01*
X1617629Y3355190D01*
X1609209Y3367793D01*
X1549535Y3427466D01*
X1536933Y3435887D01*
X1522067Y3438844D01*
X1489373D01*
X1475242Y3444697D01*
D02*
G37*
G36*
X1900000Y-2235713D02*
X-1900000D01*
X-1900392Y-2235875D01*
X-1903279Y-2236255D01*
X-1909849Y-2236255D01*
X-1911150Y-2236794D01*
X-1912531Y-2236519D01*
X-1926719Y-2239341D01*
X-1929551Y-2239714D01*
X-1930436Y-2240080D01*
X-1931851Y-2240362D01*
X-1933022Y-2241144D01*
X-1934430D01*
X-1952629Y-2248682D01*
X-1953624Y-2249677D01*
X-1955005Y-2249952D01*
X-1956205Y-2250754D01*
X-1957088Y-2251120D01*
X-1959351Y-2252857D01*
X-1971383Y-2260896D01*
X-1972166Y-2262067D01*
X-1973466Y-2262606D01*
X-1978117Y-2267256D01*
X-1980735Y-2269265D01*
X-1982743Y-2271882D01*
X-1987395Y-2276534D01*
X-1987934Y-2277835D01*
X-1989105Y-2278617D01*
X-1997147Y-2290653D01*
X-1998880Y-2292912D01*
X-1999245Y-2293794D01*
X-2000049Y-2294996D01*
X-2000323Y-2296377D01*
X-2001319Y-2297372D01*
X-2008857Y-2315571D01*
Y-2316979D01*
X-2009639Y-2318150D01*
X-2009922Y-2319569D01*
X-2010286Y-2320449D01*
X-2010657Y-2323264D01*
X-2013482Y-2337469D01*
X-2013208Y-2338851D01*
X-2013747Y-2340152D01*
X-2013746Y-2346732D01*
X-2014125Y-2349608D01*
X-2014287Y-2350000D01*
Y-3400001D01*
X-2014125Y-3400392D01*
X-2013746Y-3403270D01*
X-2013746Y-3409851D01*
X-2013208Y-3411152D01*
X-2013482Y-3412534D01*
X-2010656Y-3426740D01*
X-2010286Y-3429552D01*
X-2009922Y-3430430D01*
X-2009639Y-3431853D01*
X-2008857Y-3433024D01*
Y-3434432D01*
X-2001319Y-3452630D01*
X-2000323Y-3453626D01*
X-2000048Y-3455007D01*
X-1999243Y-3456212D01*
X-1998880Y-3457089D01*
X-1997156Y-3459335D01*
X-1989105Y-3471385D01*
X-1987934Y-3472168D01*
X-1987395Y-3473468D01*
X-1982737Y-3478126D01*
X-1980735Y-3480735D01*
X-1978125Y-3482738D01*
X-1973466Y-3487397D01*
X-1972166Y-3487936D01*
X-1971383Y-3489106D01*
X-1959334Y-3497157D01*
X-1957088Y-3498880D01*
X-1956211Y-3499244D01*
X-1955005Y-3500050D01*
X-1953624Y-3500324D01*
X-1952628Y-3501320D01*
X-1934429Y-3508858D01*
X-1933021D01*
X-1931851Y-3509640D01*
X-1930429Y-3509923D01*
X-1929551Y-3510287D01*
X-1926739Y-3510657D01*
X-1912531Y-3513483D01*
X-1911150Y-3513208D01*
X-1909849Y-3513747D01*
X-1903269Y-3513747D01*
X-1900392Y-3514126D01*
X-1900000Y-3514288D01*
X1900000Y-3514288D01*
X1900392Y-3514125D01*
X1903267Y-3513747D01*
X1909848Y-3513747D01*
X1911149Y-3513208D01*
X1912530Y-3513483D01*
X1926746Y-3510656D01*
X1929551Y-3510286D01*
X1930427Y-3509924D01*
X1931851Y-3509640D01*
X1933021Y-3508858D01*
X1934429D01*
X1952629Y-3501320D01*
X1953624Y-3500324D01*
X1955005Y-3500050D01*
X1956214Y-3499242D01*
X1957089Y-3498880D01*
X1959327Y-3497162D01*
X1971384Y-3489107D01*
X1972166Y-3487936D01*
X1973467Y-3487397D01*
X1978129Y-3482735D01*
X1980735Y-3480735D01*
X1982735Y-3478129D01*
X1987396Y-3473468D01*
X1987935Y-3472167D01*
X1989106Y-3471384D01*
X1997164Y-3459325D01*
X1998880Y-3457088D01*
X1999242Y-3456215D01*
X2000050Y-3455006D01*
X2000324Y-3453625D01*
X2001320Y-3452629D01*
X2008858Y-3434430D01*
Y-3433022D01*
X2009640Y-3431851D01*
X2009923Y-3430429D01*
X2010286Y-3429551D01*
X2010656Y-3426740D01*
X2013482Y-3412531D01*
X2013208Y-3411150D01*
X2013747Y-3409849D01*
X2013746Y-3403271D01*
X2014125Y-3400392D01*
X2014288Y-3400000D01*
Y-2350000D01*
X2014125Y-2349608D01*
X2013746Y-2346729D01*
X2013746Y-2340152D01*
X2013208Y-2338851D01*
X2013482Y-2337470D01*
X2010657Y-2323266D01*
X2010286Y-2320449D01*
X2009922Y-2319569D01*
X2009640Y-2318150D01*
X2008857Y-2316979D01*
Y-2315571D01*
X2001319Y-2297372D01*
X2000323Y-2296376D01*
X2000049Y-2294995D01*
X1999244Y-2293790D01*
X1998880Y-2292912D01*
X1997154Y-2290663D01*
X1989105Y-2278616D01*
X1987935Y-2277834D01*
X1987396Y-2276533D01*
X1982739Y-2271877D01*
X1980735Y-2269265D01*
X1978124Y-2267261D01*
X1973467Y-2262604D01*
X1972166Y-2262065D01*
X1971384Y-2260895D01*
X1959337Y-2252846D01*
X1957089Y-2251120D01*
X1956210Y-2250756D01*
X1955005Y-2249951D01*
X1953624Y-2249676D01*
X1952628Y-2248681D01*
X1934429Y-2241143D01*
X1933021D01*
X1931850Y-2240361D01*
X1930431Y-2240078D01*
X1929551Y-2239714D01*
X1926734Y-2239343D01*
X1912530Y-2236518D01*
X1911150Y-2236793D01*
X1909849Y-2236254D01*
X1903272Y-2236254D01*
X1900392Y-2235875D01*
X1900000Y-2235713D01*
D02*
G37*
G36*
X-661479Y-3772300D02*
X-688521D01*
X-714641Y-3779299D01*
X-738059Y-3792819D01*
X-757180Y-3811941D01*
X-770701Y-3835359D01*
X-777700Y-3861479D01*
Y-3888521D01*
X-770701Y-3914641D01*
X-757180Y-3938059D01*
X-738059Y-3957180D01*
X-714641Y-3970701D01*
X-688521Y-3977700D01*
X-661479D01*
X-635359Y-3970701D01*
X-611941Y-3957180D01*
X-592819Y-3938059D01*
X-579299Y-3914641D01*
X-572300Y-3888521D01*
Y-3861479D01*
X-579299Y-3835359D01*
X-592819Y-3811941D01*
X-611941Y-3792819D01*
X-635359Y-3779299D01*
X-661479Y-3772300D01*
D02*
G37*
G36*
X-1311479D02*
X-1338521D01*
X-1364641Y-3779299D01*
X-1388059Y-3792819D01*
X-1407181Y-3811941D01*
X-1420701Y-3835359D01*
X-1427700Y-3861479D01*
Y-3888521D01*
X-1420701Y-3914641D01*
X-1407181Y-3938059D01*
X-1388059Y-3957180D01*
X-1364641Y-3970701D01*
X-1338521Y-3977700D01*
X-1311479D01*
X-1285359Y-3970701D01*
X-1261941Y-3957180D01*
X-1242820Y-3938059D01*
X-1229299Y-3914641D01*
X-1222300Y-3888521D01*
Y-3861479D01*
X-1229299Y-3835359D01*
X-1242820Y-3811941D01*
X-1261941Y-3792819D01*
X-1285359Y-3779299D01*
X-1311479Y-3772300D01*
D02*
G37*
G36*
X-659807Y-4209600D02*
X-662300D01*
Y-4312300D01*
X-559600D01*
Y-4309807D01*
X-567464Y-4280457D01*
X-582657Y-4254143D01*
X-604143Y-4232657D01*
X-630457Y-4217465D01*
X-659807Y-4209600D01*
D02*
G37*
G36*
X-687700D02*
X-690193D01*
X-719543Y-4217465D01*
X-745857Y-4232657D01*
X-767343Y-4254143D01*
X-782535Y-4280457D01*
X-790400Y-4309807D01*
Y-4312300D01*
X-687700D01*
Y-4209600D01*
D02*
G37*
G36*
X-1309807D02*
X-1312300D01*
Y-4312300D01*
X-1209600D01*
Y-4309807D01*
X-1217465Y-4280457D01*
X-1232657Y-4254143D01*
X-1254143Y-4232657D01*
X-1280457Y-4217465D01*
X-1309807Y-4209600D01*
D02*
G37*
G36*
X-1337700D02*
X-1340193D01*
X-1369543Y-4217465D01*
X-1395857Y-4232657D01*
X-1417343Y-4254143D01*
X-1432536Y-4280457D01*
X-1440400Y-4309807D01*
Y-4312300D01*
X-1337700D01*
Y-4209600D01*
D02*
G37*
G36*
X-559600Y-4337700D02*
X-662300D01*
Y-4440400D01*
X-659807D01*
X-630457Y-4432535D01*
X-604143Y-4417343D01*
X-582657Y-4395857D01*
X-567464Y-4369543D01*
X-559600Y-4340193D01*
Y-4337700D01*
D02*
G37*
G36*
X-687700D02*
X-790400D01*
Y-4340193D01*
X-782535Y-4369543D01*
X-767343Y-4395857D01*
X-745857Y-4417343D01*
X-719543Y-4432535D01*
X-690193Y-4440400D01*
X-687700D01*
Y-4337700D01*
D02*
G37*
G36*
X-1209600D02*
X-1312300D01*
Y-4440400D01*
X-1309807D01*
X-1280457Y-4432535D01*
X-1254143Y-4417343D01*
X-1232657Y-4395857D01*
X-1217465Y-4369543D01*
X-1209600Y-4340193D01*
Y-4337700D01*
D02*
G37*
G36*
X-1337700D02*
X-1440400D01*
Y-4340193D01*
X-1432536Y-4369543D01*
X-1417343Y-4395857D01*
X-1395857Y-4417343D01*
X-1369543Y-4432535D01*
X-1340193Y-4440400D01*
X-1337700D01*
Y-4337700D01*
D02*
G37*
%LPD*%
D10*
X1164206Y1918681D02*
X1438943Y2193418D01*
X1164206Y-975467D02*
Y1918681D01*
X1438943Y2193418D02*
Y2488943D01*
X1581740Y2631740D01*
Y3340324D01*
X1522067Y3399997D02*
X1581740Y3340324D01*
X1466351Y3399997D02*
X1522067D01*
D11*
X1250000Y600000D02*
Y1850000D01*
X1550000Y2150000D02*
Y2400000D01*
X1250000Y1850000D02*
X1550000Y2150000D01*
D12*
X-1325000Y-3875000D02*
D03*
X-675000D02*
D03*
X-1325000Y-4325000D02*
D03*
X-675000D02*
D03*
X-1325000Y4325000D02*
D03*
X-675000D02*
D03*
X-1325000Y3875000D02*
D03*
X-675000D02*
D03*
D13*
X-2200001Y4500501D02*
D03*
X2199999D02*
D03*
Y-4499499D02*
D03*
X-2200001D02*
D03*
D14*
X450000Y50000D02*
D03*
X750000D02*
D03*
X1438943Y2193418D02*
D03*
X1466351Y3399997D02*
D03*
X1164206Y-975467D02*
D03*
X1466351Y3299990D02*
D03*
Y3099990D02*
D03*
X946140Y3325000D02*
D03*
Y3125000D02*
D03*
Y3025000D02*
D03*
Y2925000D02*
D03*
Y2825000D02*
D03*
Y2625000D02*
D03*
Y2475000D02*
D03*
X931698Y283681D02*
D03*
X-1164206Y-975468D02*
D03*
X-885794D02*
D03*
X1450000Y-850000D02*
D03*
X-1450000D02*
D03*
X1250000Y600000D02*
D03*
X1550000Y2400000D02*
D03*
%TF.MD5,5e7f5bf01773cf2b71c3f4a468bf13ba*%
M02*
