%TF.GenerationSoftware,Altium Limited,Altium Designer,22.5.1 (42)*%
G04 Layer_Color=65535*
%FSLAX45Y45*%
%MOMM*%
%TF.SameCoordinates,2641221E-3FAC-4475-AA3C-923D0AF84551*%
%TF.FilePolarity,Positive*%
%TF.FileFunction,Legend,Top*%
%TF.Part,Single*%
G01*
G75*
%TA.AperFunction,NonConductor*%
%ADD30C,0.20000*%
%ADD46C,0.76200*%
%ADD47C,0.60000*%
%ADD48C,0.30000*%
G36*
X-206723Y1615957D02*
X-190476Y1615957D01*
X-190477Y1610542D01*
X-179646Y1610541D01*
X-179647Y1605127D01*
X-174231Y1605124D01*
X-174228Y1599712D01*
X-163400Y1599709D01*
X-163398Y1594295D01*
X-157983Y1594295D01*
X-157982Y1588878D01*
X-152568Y1588878D01*
Y1578049D01*
X-147152Y1578048D01*
X-147150Y1572629D01*
X-141736Y1572631D01*
X-141735Y1561801D01*
X-136320Y1561802D01*
Y1550969D01*
X-130905Y1550969D01*
X-130906Y1545555D01*
X-125491Y1545553D01*
X-125490Y1523890D01*
X-120073Y1523891D01*
X-120073Y1518477D01*
X-114658Y1518476D01*
X-114660Y1496814D01*
X-109242Y1496816D01*
X-109242Y1491397D01*
X-103827Y1491398D01*
X-103826Y1480566D01*
X-109242Y1480566D01*
Y1458906D01*
X-103828Y1458903D01*
X-103826Y1437242D01*
X-98411Y1437241D01*
X-98412Y1171876D01*
X-103827Y1171877D01*
X-103826Y1155630D01*
X-109244Y1155629D01*
X-109242Y1101473D01*
X-103827Y1101473D01*
X-103829Y1090642D01*
X-109241Y1090643D01*
X-109244Y1079812D01*
X-114659Y1079811D01*
X-114658Y1014823D01*
X-120074Y1014823D01*
X-120073Y1009409D01*
X-125491Y1009407D01*
X-125489Y949836D01*
X-130905Y949838D01*
X-130904Y944422D01*
X-136321D01*
X-136321Y933588D01*
X-141736Y933589D01*
X-141735Y879433D01*
X-147151Y879434D01*
X-147150Y874018D01*
X-152568Y874017D01*
X-152568Y825276D01*
X-157983Y825278D01*
X-157983Y819863D01*
X-163398Y819862D01*
Y781954D01*
X-157983Y781954D01*
X-157983Y776537D01*
X-163396Y776538D01*
X-163397Y771122D01*
X-168814Y771119D01*
X-168815Y744045D01*
X-174232Y744043D01*
X-174229Y738627D01*
X-168814Y738628D01*
X-168817Y722381D01*
X-174232Y722382D01*
X-174229Y716966D01*
X-179645D01*
X-179646Y668225D01*
X-185060Y668226D01*
X-185059Y662809D01*
X-190477D01*
X-190475Y624901D01*
X-195892Y624902D01*
X-195893Y619484D01*
X-201309Y619486D01*
X-201308Y608653D01*
X-206725Y608653D01*
X-206725Y565329D01*
X-212139Y565329D01*
X-212141Y559914D01*
X-217555Y559912D01*
Y511173D01*
X-179646D01*
X-179646Y522005D01*
X-103827Y522006D01*
X-103826Y527420D01*
X-92995Y527419D01*
X-92995Y532835D01*
X101966Y532835D01*
X101967Y527419D01*
X107381Y527420D01*
Y522005D01*
X145291Y522003D01*
X145291Y516589D01*
X156123Y516588D01*
X156122Y511173D01*
X188618D01*
X188616Y505756D01*
X194030Y505756D01*
X194031Y500342D01*
X204863Y500341D01*
X204861Y494925D01*
X226523Y494926D01*
X226524Y489510D01*
X237358Y489511D01*
X237357Y484094D01*
X248186Y484094D01*
X248187Y478678D01*
X259020Y478681D01*
X259019Y473262D01*
X269851Y473264D01*
X269850Y467847D01*
X275265D01*
X275266Y462432D01*
X286097Y462432D01*
X286098Y457016D01*
X296927Y457018D01*
X296929Y451600D01*
X302344D01*
X302345Y446187D01*
X313176Y446185D01*
X313175Y435354D01*
X324007Y435353D01*
X324005Y429939D01*
X334837Y429937D01*
X334837Y424523D01*
X340253D01*
X340253Y419108D01*
X351084D01*
X351086Y408276D01*
X361916Y408275D01*
X361916Y402859D01*
X367331Y402862D01*
X367331Y397446D01*
X372747Y397444D01*
X372748Y392028D01*
X378161D01*
X378164Y381198D01*
X388993Y381198D01*
X388992Y375783D01*
X394409Y375782D01*
X394408Y364951D01*
X399823Y364951D01*
X399826Y359535D01*
X405242Y359536D01*
X405240Y354118D01*
X410657Y354119D01*
X410657Y343288D01*
X416071Y343287D01*
X416072Y332458D01*
X421487Y332457D01*
X421487Y327042D01*
X432318Y327044D01*
Y305380D01*
X443149Y305380D01*
X443150Y294549D01*
X448566Y294548D01*
X448567Y289133D01*
X453983Y289132D01*
X453981Y278300D01*
X459396Y278301D01*
X459397Y267471D01*
X464812Y267470D01*
X464813Y256639D01*
X470228Y256638D01*
X470229Y240391D01*
X475643Y240392D01*
X475642Y224145D01*
X481058Y224145D01*
X481059Y213315D01*
X486475Y213312D01*
X486475Y186236D01*
X497307Y186234D01*
X497305Y153741D01*
X502722Y153741D01*
X502720Y148327D01*
X508135Y148327D01*
X508136Y94170D01*
X513553D01*
X513552Y88755D01*
X518969Y88755D01*
X518968Y-73711D01*
X513551Y-73714D01*
X513551Y-79130D01*
X508137Y-79129D01*
X508136Y-138702D01*
X497306Y-138702D01*
X497307Y-165779D01*
X491890Y-165780D01*
X491889Y-176610D01*
X486473Y-176610D01*
X486473Y-203688D01*
X481058Y-203689D01*
X481059Y-209104D01*
X475646Y-209104D01*
X475643Y-219936D01*
X470227Y-219935D01*
X470229Y-230766D01*
X464813Y-230766D01*
X464812Y-241597D01*
X470227Y-241598D01*
X470227Y-247013D01*
X464812D01*
X464810Y-257844D01*
X459396Y-257844D01*
X459398Y-263260D01*
X453981Y-263260D01*
X453980Y-274090D01*
X448564Y-274090D01*
X448567Y-284923D01*
X443150D01*
X443151Y-290339D01*
X437734Y-290337D01*
X437732Y-295753D01*
X432317Y-295755D01*
X432318Y-306585D01*
X426903Y-306584D01*
X426902Y-312000D01*
X421489Y-312001D01*
X421487Y-322831D01*
X416071Y-322832D01*
X416073Y-328246D01*
X410655Y-328248D01*
X410657Y-344494D01*
X405240D01*
X405240Y-349910D01*
X399825Y-349910D01*
X399823Y-355326D01*
X394410Y-355325D01*
X394409Y-360740D01*
X383578Y-360743D01*
X383577Y-371571D01*
X378162Y-371572D01*
X378162Y-376987D01*
X372748Y-376988D01*
X372746Y-382404D01*
X367330Y-382403D01*
X367331Y-387818D01*
X356498Y-387820D01*
X356501Y-398650D01*
X351084D01*
X351084Y-404066D01*
X345669Y-404066D01*
X345669Y-409482D01*
X340254Y-409482D01*
X340253Y-414897D01*
X324006Y-414896D01*
X324007Y-420311D01*
X318588Y-420313D01*
X318591Y-425728D01*
X313174Y-425727D01*
X313176Y-431143D01*
X307760Y-431144D01*
X307759Y-436561D01*
X296928Y-436558D01*
X296929Y-441974D01*
X286097D01*
Y-447391D01*
X280681Y-447390D01*
X280681Y-452807D01*
X275266Y-452806D01*
X275266Y-458221D01*
X269852Y-458222D01*
X269850Y-463637D01*
X253602Y-463638D01*
X253603Y-469053D01*
X248187Y-469053D01*
Y-474468D01*
X221110Y-474468D01*
X221110Y-479883D01*
X210280Y-479886D01*
X210277Y-485298D01*
X199449Y-485300D01*
X199446Y-490716D01*
X188617Y-490716D01*
X188614Y-496130D01*
X172370Y-496131D01*
X172368Y-490716D01*
X166953D01*
X166954Y-496131D01*
X156123D01*
X156121Y-501546D01*
X145292D01*
X145291Y-506963D01*
X101966Y-506961D01*
X101966Y-512378D01*
X91135Y-512379D01*
X91135Y-517794D01*
X-92995Y-517793D01*
X-92995Y-512378D01*
X-98411Y-512377D01*
X-98413Y-506962D01*
X-109241Y-506962D01*
X-109242Y-501546D01*
X-114658Y-501546D01*
X-114659Y-506961D01*
X-174229Y-506960D01*
X-174229Y-501544D01*
X-185059Y-501548D01*
X-185061Y-496131D01*
X-239216Y-496131D01*
X-239217Y-490714D01*
X-250048Y-490716D01*
X-250049Y-485300D01*
X-293375Y-485299D01*
X-293372Y-479883D01*
X-304203Y-479883D01*
X-304205Y-474469D01*
X-347530Y-474468D01*
Y-469052D01*
X-358360Y-469053D01*
X-358359Y-463638D01*
X-407100Y-463638D01*
X-407101Y-458222D01*
X-412516Y-458223D01*
X-412517Y-452808D01*
X-450426Y-452805D01*
Y-441974D01*
X-461256D01*
Y-436558D01*
X-472089Y-436558D01*
X-472088Y-441976D01*
X-482920Y-441973D01*
X-482920Y-452805D01*
X-488334Y-452808D01*
X-488336Y-463635D01*
X-493751Y-463638D01*
X-493751Y-490714D01*
X-499168D01*
X-499166Y-496130D01*
X-504582Y-496132D01*
X-504581Y-528625D01*
X-509997Y-528624D01*
X-509998Y-534040D01*
X-515414Y-534041D01*
X-515412Y-566536D01*
X-520830Y-566534D01*
X-520828Y-571951D01*
X-526244Y-571950D01*
X-526247Y-577365D01*
X-531659Y-577367D01*
X-531661Y-604442D01*
X-537076Y-604443D01*
X-537076Y-609859D01*
X-542491Y-609858D01*
X-542490Y-620690D01*
X-537075Y-620691D01*
X-537074Y-626104D01*
X-542493Y-626104D01*
X-542491Y-636939D01*
X-547905Y-636936D01*
X-547905Y-658600D01*
X-553323D01*
Y-669432D01*
X-558737Y-669430D01*
X-558738Y-696511D01*
X-564154Y-696508D01*
X-564153Y-701924D01*
X-569569Y-701924D01*
X-569568Y-729003D01*
X-574984D01*
X-574984Y-734416D01*
X-580401Y-734417D01*
X-580401Y-761496D01*
X-585817D01*
X-585816Y-766911D01*
X-591233Y-766911D01*
X-591231Y-772326D01*
X-596647Y-772328D01*
X-596648Y-799406D01*
X-602063Y-799404D01*
X-602062Y-810235D01*
X-607478Y-810238D01*
X-607478Y-815651D01*
X-602063Y-815651D01*
X-602063Y-821066D01*
X-607479D01*
X-607478Y-831900D01*
X-612894Y-831899D01*
X-612891Y-853561D01*
X-618308Y-853562D01*
X-618310Y-864393D01*
X-623724Y-864392D01*
Y-891471D01*
X-629140D01*
X-629141Y-896887D01*
X-634557Y-896887D01*
X-634555Y-923964D01*
X-639973Y-923964D01*
X-639972Y-929379D01*
X-645387Y-929379D01*
X-645390Y-956458D01*
X-650802D01*
X-650803Y-961873D01*
X-656219Y-961874D01*
X-656219Y-967290D01*
X-661635Y-967288D01*
X-661634Y-978118D01*
X-656218Y-978120D01*
X-656219Y-983535D01*
X-661634Y-983534D01*
X-661634Y-994367D01*
X-667050Y-994368D01*
X-667049Y-1005198D01*
X-672467Y-1005197D01*
X-672466Y-1010613D01*
X-667050Y-1010614D01*
X-667048Y-1016028D01*
X-672467Y-1016030D01*
X-672466Y-1026860D01*
X-677881Y-1026858D01*
X-677882Y-1048523D01*
X-683296Y-1048523D01*
X-683298Y-1059354D01*
X-688712Y-1059353D01*
X-688714Y-1086432D01*
X-694128D01*
X-694128Y-1091847D01*
X-699544Y-1091848D01*
X-699543Y-1118925D01*
X-704959Y-1118926D01*
X-704959Y-1124341D01*
X-710376Y-1124343D01*
X-710374Y-1151420D01*
X-715791Y-1151419D01*
X-715791Y-1156836D01*
X-721206Y-1156837D01*
X-721207Y-1162252D01*
X-726623Y-1162251D01*
X-726623Y-1167668D01*
X-721207Y-1167666D01*
X-721205Y-1178497D01*
X-726621Y-1178499D01*
X-726622Y-1189329D01*
X-732037Y-1189329D01*
X-732037Y-1200160D01*
X-737455Y-1200160D01*
X-737454Y-1205576D01*
X-732036D01*
X-732037Y-1210992D01*
X-737454Y-1210992D01*
X-737454Y-1221822D01*
X-742868Y-1221823D01*
X-742869Y-1243485D01*
X-748284Y-1243485D01*
X-748285Y-1259732D01*
X-753700Y-1259732D01*
X-753700Y-1265147D01*
X-759115Y-1265148D01*
X-759115Y-1270565D01*
X-764532Y-1270564D01*
X-764531Y-1303058D01*
X-769946Y-1303059D01*
X-769946Y-1308473D01*
X-775362Y-1308472D01*
X-775362Y-1335550D01*
X-780777Y-1335552D01*
X-780776Y-1340966D01*
X-786194Y-1340967D01*
X-786194Y-1362629D01*
X-791610D01*
X-791610Y-1373460D01*
X-797024Y-1373459D01*
X-797025Y-1378875D01*
X-802441Y-1378875D01*
X-802441Y-1405954D01*
X-807858Y-1405953D01*
X-807857Y-1422199D01*
X-813272Y-1422201D01*
X-813270Y-1427615D01*
X-818687Y-1427616D01*
X-818688Y-1449278D01*
X-824103Y-1449278D01*
X-824104Y-1460107D01*
X-829518Y-1460108D01*
X-829520Y-1487187D01*
X-834934Y-1487187D01*
X-834934Y-1492603D01*
X-840350Y-1492604D01*
X-840349Y-1514265D01*
X-845765Y-1514264D01*
X-845766Y-1525097D01*
X-851182Y-1525097D01*
Y-1535928D01*
X-856597D01*
Y-1546759D01*
X-862013Y-1546760D01*
Y-1552175D01*
X-867429Y-1552174D01*
X-867429Y-1557591D01*
X-862013Y-1557590D01*
X-862011Y-1568421D01*
X-867429Y-1568421D01*
X-867428Y-1579254D01*
X-872843Y-1579251D01*
X-872844Y-1606329D01*
X-878260Y-1606331D01*
X-878258Y-1611748D01*
X-883674Y-1611748D01*
X-883673Y-1633408D01*
X-889090Y-1633409D01*
X-889089Y-1644241D01*
X-894507Y-1644240D01*
X-894505Y-1660486D01*
X-905338Y-1660488D01*
X-905336Y-1687565D01*
X-910753Y-1687565D01*
X-910753Y-1698398D01*
X-916169Y-1698397D01*
X-916168Y-1720060D01*
X-921584Y-1720058D01*
X-921583Y-1730889D01*
X-927000D01*
X-927000Y-1747136D01*
X-932415Y-1747137D01*
X-932416Y-1757967D01*
X-937830Y-1757967D01*
X-937833Y-1774214D01*
X-943246Y-1774215D01*
X-943246Y-1785046D01*
X-948662Y-1785045D01*
X-948660Y-1812123D01*
X-954078Y-1812124D01*
X-954076Y-1817537D01*
X-959496Y-1817540D01*
X-959493Y-1844617D01*
X-970325Y-1844618D01*
X-970324Y-1866279D01*
X-975740Y-1866281D01*
X-975740Y-1871696D01*
X-986571Y-1871697D01*
X-986572Y-1904189D01*
X-991986Y-1904189D01*
X-991987Y-1909606D01*
X-997403Y-1909606D01*
X-997402Y-1915022D01*
X-1002819Y-1915019D01*
X-1002817Y-1904189D01*
X-997405Y-1904190D01*
X-997401Y-1877111D01*
X-991986Y-1877111D01*
X-991986Y-1866280D01*
X-986571Y-1866281D01*
Y-1850033D01*
X-981156Y-1850034D01*
X-981157Y-1828372D01*
X-975740Y-1828371D01*
Y-1822955D01*
X-970323Y-1822955D01*
X-970325Y-1790461D01*
X-964909Y-1790460D01*
X-964909Y-1785045D01*
X-959493Y-1785045D01*
X-959493Y-1752552D01*
X-954079Y-1752553D01*
X-954078Y-1747137D01*
X-948662Y-1747138D01*
X-948662Y-1725474D01*
X-943246Y-1725476D01*
X-943246Y-1714643D01*
X-937831D01*
X-937829Y-1682150D01*
X-932416Y-1682146D01*
X-932414Y-1676733D01*
X-927000Y-1676734D01*
X-927001Y-1649657D01*
X-921583Y-1649654D01*
X-921585Y-1638824D01*
X-916169Y-1638826D01*
X-916168Y-1606333D01*
X-910752Y-1606331D01*
X-910754Y-1600915D01*
X-905337Y-1600916D01*
X-905337Y-1568421D01*
X-894506D01*
X-894505Y-1535930D01*
X-889091Y-1535928D01*
X-889088Y-1530513D01*
X-883674Y-1530513D01*
X-883674Y-1498018D01*
X-878258Y-1498019D01*
Y-1492603D01*
X-872845Y-1492603D01*
X-872843Y-1465525D01*
X-867428D01*
X-867429Y-1454693D01*
X-862013Y-1454694D01*
X-862011Y-1427618D01*
X-856597Y-1427615D01*
X-856595Y-1422201D01*
X-851179Y-1422201D01*
X-851181Y-1389707D01*
X-845765Y-1389707D01*
X-845767Y-1384292D01*
X-840348Y-1384291D01*
X-840350Y-1351796D01*
X-834935Y-1351798D01*
X-834933Y-1346383D01*
X-829519Y-1346382D01*
X-829519Y-1319303D01*
X-824102Y-1319304D01*
X-824102Y-1313889D01*
X-818687Y-1313888D01*
X-818690Y-1281393D01*
X-813273Y-1281396D01*
Y-1270564D01*
X-807858Y-1270563D01*
X-807856Y-1248901D01*
X-802441Y-1248902D01*
X-802442Y-1238069D01*
X-797024Y-1238068D01*
X-797026Y-1210993D01*
X-791608Y-1210990D01*
X-791609Y-1200161D01*
X-786194Y-1200160D01*
X-786194Y-1173081D01*
X-780777Y-1173081D01*
X-780778Y-1167665D01*
X-775364Y-1167667D01*
X-775362Y-1135173D01*
X-769947Y-1135173D01*
X-769947Y-1129757D01*
X-764531Y-1129758D01*
X-764532Y-1097263D01*
X-759116Y-1097261D01*
X-759117Y-1091846D01*
X-753699Y-1091848D01*
Y-1064771D01*
X-748285Y-1064770D01*
X-748284Y-1053939D01*
X-742869Y-1053937D01*
X-742869Y-1026859D01*
X-737454Y-1026862D01*
Y-1021445D01*
X-732036Y-1021446D01*
X-732036Y-988952D01*
X-726621Y-988951D01*
Y-983535D01*
X-721207Y-983536D01*
X-721206Y-956458D01*
X-715791Y-956458D01*
X-715791Y-945626D01*
X-710375Y-945627D01*
X-710374Y-918548D01*
X-704960Y-918548D01*
X-704959Y-913132D01*
X-699544D01*
X-699542Y-880639D01*
X-694129Y-880637D01*
X-694130Y-875223D01*
X-688713Y-875224D01*
X-688713Y-842730D01*
X-683295Y-842729D01*
X-683296Y-837317D01*
X-677881Y-837314D01*
X-677882Y-804819D01*
X-672467Y-804821D01*
X-672466Y-793990D01*
X-667051D01*
X-667048Y-766911D01*
X-661632Y-766911D01*
X-661634Y-761495D01*
X-656219D01*
X-656218Y-729001D01*
X-650806Y-729003D01*
X-650806Y-723589D01*
X-645388Y-723587D01*
X-645388Y-691094D01*
X-639973Y-691095D01*
X-639973Y-685678D01*
X-634557Y-685676D01*
Y-653184D01*
X-629140Y-653184D01*
X-629140Y-647766D01*
X-623725Y-647769D01*
X-623725Y-620689D01*
X-618309Y-620690D01*
X-618310Y-609858D01*
X-612894Y-609860D01*
X-612894Y-577365D01*
X-607479Y-577365D01*
X-607477Y-566533D01*
X-602064Y-566533D01*
X-602063Y-544872D01*
X-596648Y-544871D01*
X-596647Y-534040D01*
X-591231Y-534039D01*
X-591232Y-501547D01*
X-585816Y-501547D01*
X-585817Y-490715D01*
X-580401Y-490716D01*
X-580402Y-463638D01*
X-569569D01*
X-569568Y-425728D01*
X-574984Y-425729D01*
Y-420314D01*
X-580400Y-420313D01*
X-580400Y-414897D01*
X-585817Y-414898D01*
Y-409483D01*
X-607478Y-409480D01*
X-607479Y-404065D01*
X-618310Y-404066D01*
X-618311Y-398650D01*
X-656219Y-398650D01*
X-656219Y-393234D01*
X-661633Y-393235D01*
X-661635Y-387820D01*
X-683298Y-387819D01*
X-683295Y-382403D01*
X-688713Y-382403D01*
X-688712Y-376988D01*
X-715790Y-376987D01*
X-715792Y-371571D01*
X-726624D01*
X-726621Y-366156D01*
X-748287D01*
X-748286Y-360740D01*
X-759115D01*
X-759117Y-355324D01*
X-786193D01*
X-786194Y-349910D01*
X-791610D01*
X-791611Y-344494D01*
X-813273Y-344495D01*
X-813273Y-339078D01*
X-824102Y-339077D01*
X-824105Y-333662D01*
X-845766Y-333664D01*
X-845766Y-328249D01*
X-856597Y-328247D01*
X-856597Y-322832D01*
X-867429D01*
X-867426Y-317415D01*
X-872846Y-317414D01*
X-872842Y-312000D01*
X-867429Y-312000D01*
X-867427Y-306585D01*
X-851180Y-306585D01*
X-851181Y-312000D01*
X-845765Y-311999D01*
X-845765Y-317415D01*
X-840348D01*
X-840351Y-322829D01*
X-802440Y-322832D01*
X-802441Y-328249D01*
X-797025Y-328247D01*
X-797024Y-333662D01*
X-759116D01*
X-759117Y-339079D01*
X-753699Y-339077D01*
X-753701Y-344494D01*
X-715791Y-344492D01*
X-715791Y-349911D01*
X-710374Y-349909D01*
X-710377Y-355324D01*
X-667050Y-355325D01*
X-667049Y-360741D01*
X-656219Y-360742D01*
X-656218Y-366156D01*
X-612894Y-366157D01*
X-612895Y-371570D01*
X-607479Y-371571D01*
X-607479Y-376987D01*
X-553323D01*
X-553322Y-371572D01*
X-547906Y-371573D01*
X-547906Y-349909D01*
X-542491Y-349911D01*
X-542491Y-339079D01*
X-537077Y-339077D01*
X-537075Y-312000D01*
X-531661Y-312001D01*
X-531660Y-301170D01*
X-526244Y-301168D01*
X-526247Y-274091D01*
X-520829Y-274091D01*
X-520828Y-268676D01*
X-515413Y-268674D01*
Y-230765D01*
X-509997Y-230765D01*
X-509997Y-225350D01*
X-504581Y-225350D01*
X-504583Y-192858D01*
X-499167Y-192857D01*
X-499165Y-187442D01*
X-493751Y-187443D01*
X-493751Y-154948D01*
X-488335Y-154947D01*
X-488336Y-149533D01*
X-482920Y-149533D01*
Y-117037D01*
X-477505D01*
Y-106206D01*
X-472088Y-106207D01*
X-472088Y-89961D01*
X-477506Y-89960D01*
X-477504Y-84546D01*
X-472089Y-84544D01*
X-472088Y-79129D01*
X-466672Y-79129D01*
X-466672Y-68298D01*
X-461256D01*
Y-35805D01*
X-455841Y-35803D01*
X-455842Y-30389D01*
X-450427Y-30388D01*
X-450425Y2104D01*
X-445011Y2107D01*
X-445010Y7520D01*
X-439595Y7522D01*
X-439595Y40015D01*
X-434178Y40014D01*
X-434180Y45430D01*
X-428764Y45430D01*
Y77924D01*
X-423350Y77923D01*
X-423349Y88756D01*
X-417932D01*
X-417934Y121249D01*
X-412517Y121248D01*
Y132080D01*
X-407101D01*
X-407101Y159157D01*
X-401684Y159160D01*
X-401686Y169991D01*
X-396272Y169988D01*
X-396273Y207899D01*
X-390854Y207898D01*
X-390854Y213314D01*
X-385438Y213314D01*
X-385439Y251225D01*
X-374608Y251221D01*
X-374607Y289133D01*
X-369192Y289132D01*
X-369191Y299962D01*
X-363778Y299964D01*
X-363776Y332457D01*
X-358359Y332458D01*
X-358360Y343290D01*
X-352944Y343287D01*
X-352945Y375782D01*
X-347531Y375781D01*
X-347529Y386613D01*
X-342115Y386613D01*
X-342113Y408275D01*
X-347529Y408276D01*
X-347530Y413692D01*
X-342113D01*
X-342115Y424522D01*
X-347529Y424522D01*
X-347531Y429937D01*
X-352944Y429938D01*
Y435354D01*
X-369192Y435353D01*
X-369191Y429939D01*
X-380023Y429937D01*
X-380022Y424521D01*
X-450424Y424523D01*
X-450425Y419108D01*
X-455841Y419107D01*
Y413690D01*
X-499166Y413693D01*
X-499167Y408276D01*
X-509998Y408276D01*
X-509996Y402861D01*
X-553323Y402859D01*
Y397443D01*
X-558738Y397442D01*
X-558739Y392030D01*
X-607480Y392027D01*
X-607478Y386612D01*
X-618310Y386613D01*
X-618310Y381198D01*
X-667050Y381199D01*
X-667052Y375781D01*
X-672466Y375782D01*
X-672465Y370367D01*
X-683297Y370365D01*
X-683297Y364952D01*
X-688713Y364951D01*
X-688712Y370366D01*
X-704959Y370367D01*
X-704960Y364953D01*
X-710375Y364952D01*
X-710376Y359535D01*
X-721207D01*
Y354120D01*
X-726622Y354120D01*
X-726622Y359535D01*
X-748284Y359535D01*
X-748286Y354119D01*
X-753700Y354120D01*
X-753701Y348704D01*
X-791610Y348704D01*
X-791609Y343287D01*
X-802440Y343287D01*
Y337874D01*
X-824101Y337873D01*
X-824104Y343288D01*
X-834933Y343287D01*
Y337875D01*
X-840350Y337874D01*
X-840350Y332459D01*
X-845767Y332458D01*
X-845766Y327040D01*
X-867427D01*
X-867428Y337873D01*
X-862013Y337872D01*
X-862011Y343289D01*
X-840347Y343288D01*
X-840351Y348702D01*
X-824103D01*
X-824102Y354118D01*
X-813271Y354120D01*
X-813273Y359535D01*
X-802441Y359535D01*
X-802442Y354121D01*
X-791609Y354120D01*
X-791609Y364950D01*
X-786194Y364951D01*
Y370365D01*
X-753701Y370367D01*
X-753699Y375781D01*
X-748284Y375781D01*
X-748283Y381197D01*
X-726621Y381198D01*
Y386614D01*
X-721207Y386613D01*
X-721206Y392029D01*
X-688713Y392030D01*
X-688713Y397444D01*
X-683296Y397445D01*
X-683295Y402860D01*
X-656219Y402859D01*
X-656220Y408276D01*
X-650804Y408276D01*
X-650803Y413692D01*
X-612895Y413693D01*
X-612894Y419107D01*
X-602062Y419108D01*
X-602063Y424521D01*
X-596648Y424522D01*
X-596647Y419107D01*
X-585817Y419108D01*
Y424521D01*
X-580402Y424522D01*
X-580401Y429937D01*
X-574984Y429938D01*
X-574984Y435354D01*
X-558737Y435353D01*
X-558737Y429939D01*
X-547906Y429938D01*
X-547907Y435354D01*
X-542490Y435353D01*
X-542492Y440770D01*
X-531660Y440768D01*
Y446184D01*
X-493750Y446186D01*
X-493751Y451601D01*
X-488336Y451600D01*
Y457016D01*
X-450427Y457017D01*
X-450427Y467847D01*
X-407100Y467846D01*
X-407100Y473262D01*
X-396271Y473261D01*
X-396270Y478680D01*
X-358362Y478680D01*
X-358360Y484094D01*
X-347530Y484093D01*
X-347529Y489510D01*
X-336697Y489511D01*
X-336698Y484095D01*
X-325867Y484094D01*
X-325867Y489510D01*
X-320451Y489510D01*
X-320452Y516588D01*
X-315036Y516588D01*
X-315036Y522004D01*
X-309621Y522004D01*
X-309620Y559913D01*
X-304205Y559914D01*
X-304204Y565330D01*
X-298789Y565330D01*
X-298788Y603238D01*
X-293373Y603239D01*
X-293374Y614069D01*
X-287957Y614068D01*
Y651977D01*
X-282544Y651978D01*
X-282542Y668225D01*
X-277126Y668226D01*
X-277127Y684471D01*
X-282541Y684471D01*
X-282541Y695304D01*
X-277124Y695303D01*
X-277125Y700720D01*
X-271710Y700717D01*
Y711550D01*
X-266296Y711551D01*
X-266294Y738628D01*
X-271710Y738629D01*
X-271709Y749458D01*
X-266295Y749461D01*
X-266295Y754874D01*
X-260879Y754873D01*
X-260881Y760289D01*
X-255464D01*
X-255463Y809030D01*
X-250048Y809029D01*
Y814443D01*
X-244633Y814447D01*
X-244633Y868604D01*
X-239218Y868603D01*
X-239216Y879434D01*
X-233802Y879433D01*
X-233802Y922758D01*
X-228385Y922758D01*
Y939007D01*
X-222971Y939005D01*
X-222969Y982331D01*
X-217554Y982331D01*
X-217555Y993162D01*
X-212139Y993163D01*
X-212140Y1025655D01*
X-217556Y1025656D01*
X-217555Y1036485D01*
X-212137Y1036486D01*
X-212140Y1041903D01*
X-206724Y1041901D01*
X-206724Y1058148D01*
X-201308Y1058149D01*
X-201307Y1117721D01*
X-195891D01*
X-195892Y1128550D01*
X-190476Y1128552D01*
X-190476Y1188126D01*
X-185060Y1188123D01*
X-185061Y1193540D01*
X-179646Y1193539D01*
X-179645Y1480565D01*
X-185060Y1480568D01*
X-185060Y1485983D01*
X-190476D01*
Y1507646D01*
X-195892Y1507644D01*
X-195892Y1518476D01*
X-201309Y1518475D01*
X-201308Y1529308D01*
X-206724Y1529307D01*
X-206724Y1545554D01*
X-212139Y1545553D01*
X-212140Y1550970D01*
X-217555D01*
X-217554Y1561800D01*
X-222971Y1561801D01*
X-222971Y1567216D01*
X-233801Y1567217D01*
X-233802Y1572633D01*
X-282540Y1572633D01*
X-282543Y1567216D01*
X-287959Y1567215D01*
X-287957Y1561799D01*
X-320450Y1561801D01*
X-320453Y1550969D01*
X-331283Y1550971D01*
X-331284Y1545556D01*
X-336698Y1545554D01*
X-336700Y1540140D01*
X-342115Y1540137D01*
X-342113Y1534722D01*
X-358361Y1534723D01*
X-358361Y1523891D01*
X-363778Y1523890D01*
X-363777Y1518476D01*
X-380025Y1518475D01*
X-380021Y1513060D01*
X-385439Y1513058D01*
X-385440Y1507643D01*
X-390853Y1507644D01*
X-390855Y1502227D01*
X-396271Y1502229D01*
X-396269Y1496814D01*
X-401685Y1496813D01*
X-401686Y1491396D01*
X-412516Y1491398D01*
X-412516Y1485983D01*
X-423347Y1485983D01*
X-423349Y1480568D01*
X-428764Y1480566D01*
X-428765Y1475152D01*
X-434181Y1475151D01*
X-434180Y1469735D01*
X-439595Y1469736D01*
Y1464321D01*
X-445011Y1464319D01*
X-445011Y1458903D01*
X-450426Y1458903D01*
X-450427Y1453490D01*
X-455841Y1453487D01*
X-455842Y1448073D01*
X-461259Y1448074D01*
X-461256Y1442657D01*
X-466672D01*
Y1437242D01*
X-472090Y1437241D01*
X-472089Y1431826D01*
X-477504D01*
X-477505Y1426411D01*
X-482920D01*
X-482920Y1420993D01*
X-488334Y1420996D01*
X-488335Y1415579D01*
X-493751Y1415580D01*
X-493750Y1410164D01*
X-499167D01*
X-499168Y1404747D01*
X-504582Y1404747D01*
X-504582Y1399332D01*
X-509996Y1399333D01*
X-509998Y1393917D01*
X-515412Y1393918D01*
X-515412Y1388501D01*
X-520829Y1388500D01*
X-520829Y1383084D01*
X-526244Y1383086D01*
X-526245Y1377669D01*
X-531659Y1377670D01*
X-531661Y1372255D01*
X-537078Y1372254D01*
X-537077Y1366840D01*
X-542491D01*
Y1361423D01*
X-547907Y1361422D01*
X-547907Y1356005D01*
X-553323Y1356007D01*
Y1350592D01*
X-558738Y1350590D01*
X-558739Y1345175D01*
X-564155Y1345177D01*
X-564154Y1339761D01*
X-569569Y1339761D01*
X-569569Y1334345D01*
X-574984Y1334346D01*
X-574985Y1328930D01*
X-580402D01*
X-580401Y1323514D01*
X-585818Y1323513D01*
Y1318097D01*
X-591233Y1318099D01*
X-591234Y1312683D01*
X-596647Y1312681D01*
X-596647Y1301851D01*
X-602062Y1301852D01*
X-602063Y1296436D01*
X-607479D01*
X-607479Y1285604D01*
X-612894Y1285604D01*
Y1280189D01*
X-618309Y1280189D01*
X-618310Y1274774D01*
X-623725Y1274774D01*
X-623725Y1269359D01*
X-629141Y1269357D01*
X-629140Y1263943D01*
X-634556Y1263942D01*
X-634558Y1258525D01*
X-639973Y1258526D01*
X-639972Y1253112D01*
X-645387Y1253111D01*
X-645389Y1247695D01*
X-650803Y1247696D01*
X-650804Y1242280D01*
X-656219Y1242279D01*
X-656219Y1236863D01*
X-661634Y1236865D01*
X-661634Y1231448D01*
X-667051D01*
X-667051Y1226033D01*
X-672464Y1226032D01*
X-672467Y1220616D01*
X-677882Y1220617D01*
X-677880Y1215201D01*
X-683296Y1215202D01*
X-683296Y1204371D01*
X-688712Y1204370D01*
X-688714Y1198955D01*
X-694130D01*
X-694128Y1193540D01*
X-699544Y1193539D01*
X-699544Y1182709D01*
X-710375Y1182707D01*
X-710374Y1171878D01*
X-721207Y1171875D01*
X-721207Y1161046D01*
X-732036Y1161046D01*
X-732037Y1155630D01*
X-737454Y1155629D01*
X-737452Y1144799D01*
X-742870Y1144798D01*
X-742870Y1139383D01*
X-748284Y1139383D01*
X-748283Y1123136D01*
X-759117Y1123138D01*
X-759116Y1117720D01*
X-764531Y1117720D01*
X-764533Y1106892D01*
X-775362Y1106890D01*
X-775362Y1096057D01*
X-786194Y1096057D01*
X-786192Y1090642D01*
X-791611Y1090643D01*
X-791610Y1068980D01*
X-802440Y1068980D01*
X-802442Y1058149D01*
X-807857Y1058150D01*
Y1052734D01*
X-818687Y1052733D01*
X-818687Y1031072D01*
X-829519Y1031070D01*
X-829518Y1020241D01*
X-834935Y1020238D01*
X-834933Y1014826D01*
X-840349Y1014823D01*
Y1009407D01*
X-845766Y1009409D01*
X-845763Y1003993D01*
X-851182Y1003993D01*
X-851183Y998578D01*
X-856597Y998576D01*
X-856596Y987746D01*
X-862011Y987746D01*
X-862012Y982330D01*
X-867428Y982329D01*
X-867430Y971500D01*
X-872843Y971500D01*
X-872843Y966084D01*
X-878259Y966083D01*
X-878259Y960668D01*
X-883675Y960669D01*
X-883674Y955251D01*
X-889090Y955253D01*
Y949836D01*
X-894506Y949837D01*
X-894506Y939003D01*
X-899920Y939004D01*
X-899922Y928173D01*
X-905336Y928176D01*
X-905337Y922759D01*
X-910753Y922758D01*
X-910753Y917344D01*
X-916169Y917343D01*
X-916167Y911928D01*
X-921583Y911927D01*
X-921584Y906513D01*
X-927000Y906513D01*
X-926999Y890265D01*
X-932416Y890266D01*
X-932416Y884848D01*
X-937830Y884849D01*
X-937830Y879434D01*
X-943247Y879434D01*
X-943248Y874016D01*
X-948664Y874017D01*
X-948661Y868605D01*
X-959493Y868603D01*
X-959493Y884848D01*
X-954078Y884849D01*
X-954078Y890265D01*
X-948661Y890266D01*
X-948660Y901096D01*
X-937831Y901097D01*
X-937829Y906512D01*
X-932417Y906513D01*
X-932413Y922758D01*
X-926999Y922758D01*
X-927001Y928174D01*
X-921584Y928175D01*
X-921584Y939005D01*
X-916168Y939006D01*
X-916169Y944422D01*
X-910753Y944422D01*
X-910753Y955251D01*
X-905338Y955252D01*
Y960667D01*
X-899923Y960668D01*
X-899922Y966084D01*
X-894505Y966083D01*
X-894505Y976915D01*
X-889090Y976915D01*
X-889089Y987746D01*
X-883675Y987746D01*
X-883674Y993162D01*
X-878260D01*
X-878257Y998578D01*
X-872843Y998577D01*
X-872843Y1009408D01*
X-867428Y1009409D01*
X-867428Y1020238D01*
X-862014Y1020239D01*
X-862012Y1025656D01*
X-856597Y1025656D01*
X-856596Y1031072D01*
X-851181Y1031070D01*
X-851182Y1041902D01*
X-845767D01*
X-845766Y1047318D01*
X-840349Y1047319D01*
X-840350Y1058152D01*
X-834934Y1058148D01*
X-834935Y1063564D01*
X-829518Y1063565D01*
X-829518Y1074396D01*
X-824104D01*
X-824102Y1079809D01*
X-818686Y1079812D01*
X-818689Y1090643D01*
X-813272Y1090641D01*
X-813272Y1096059D01*
X-807857D01*
X-807857Y1101474D01*
X-802443Y1101475D01*
X-802442Y1117720D01*
X-797026Y1117722D01*
X-797023Y1123136D01*
X-791609Y1123136D01*
X-791610Y1128552D01*
X-786193Y1128553D01*
X-786192Y1133966D01*
X-780778Y1133965D01*
X-780777Y1139383D01*
X-775362D01*
X-775363Y1155630D01*
X-769947Y1155629D01*
X-769947Y1161046D01*
X-764531Y1161045D01*
X-764532Y1166461D01*
X-759115Y1166462D01*
X-759115Y1171875D01*
X-753701Y1171877D01*
X-753700Y1177293D01*
X-748285Y1177292D01*
X-748283Y1188122D01*
X-742869Y1188124D01*
Y1193538D01*
X-737455Y1193539D01*
X-737454Y1204370D01*
X-732039D01*
X-732038Y1209788D01*
X-726622Y1209786D01*
X-726621Y1215202D01*
X-721205Y1215201D01*
X-721207Y1220618D01*
X-715791Y1220616D01*
Y1226031D01*
X-710375Y1226034D01*
X-710376Y1242278D01*
X-704959Y1242279D01*
X-704959Y1247696D01*
X-699544Y1247695D01*
X-699544Y1253109D01*
X-694128Y1253111D01*
X-694128Y1258525D01*
X-688712Y1258527D01*
X-688713Y1263945D01*
X-683296Y1263941D01*
X-683298Y1269357D01*
X-677881Y1269358D01*
X-677880Y1280188D01*
X-672465D01*
X-672466Y1291022D01*
X-667051Y1291021D01*
X-667049Y1296436D01*
X-661635Y1296436D01*
X-661634Y1301851D01*
X-656218Y1301853D01*
X-656219Y1307265D01*
X-650804Y1307267D01*
X-650805Y1312681D01*
X-645387Y1312683D01*
X-645389Y1318099D01*
X-639973Y1318099D01*
X-639974Y1323514D01*
X-634556Y1323514D01*
X-634557Y1328929D01*
X-629140Y1328930D01*
X-629140Y1334346D01*
X-623724Y1334344D01*
Y1345177D01*
X-618310Y1345176D01*
Y1356007D01*
X-612895Y1356008D01*
X-612895Y1361423D01*
X-607478Y1361422D01*
X-607476Y1366837D01*
X-602063Y1366836D01*
X-602063Y1372253D01*
X-596648Y1372255D01*
X-596647Y1377670D01*
X-591233Y1377671D01*
X-591231Y1383085D01*
X-585818Y1383086D01*
X-585816Y1388502D01*
X-580402Y1388501D01*
Y1393916D01*
X-574984Y1393917D01*
X-574985Y1399331D01*
X-569570Y1399331D01*
X-569570Y1404748D01*
X-564153Y1404749D01*
Y1410162D01*
X-558737Y1410163D01*
X-558738Y1420996D01*
X-553322Y1420994D01*
Y1431826D01*
X-547904Y1431827D01*
X-547907Y1437242D01*
X-542493Y1437241D01*
X-542491Y1442657D01*
X-537077Y1442658D01*
X-537076Y1448073D01*
X-531660Y1448074D01*
X-531661Y1453489D01*
X-526245Y1453488D01*
X-526246Y1458903D01*
X-520829Y1458902D01*
X-520828Y1464319D01*
X-515412D01*
X-515412Y1469736D01*
X-509997Y1469734D01*
X-509998Y1475151D01*
X-504580Y1475153D01*
X-504581Y1480567D01*
X-499168Y1480566D01*
Y1485982D01*
X-493750Y1485982D01*
X-493751Y1491398D01*
X-488336Y1491397D01*
X-488334Y1496814D01*
X-477504Y1496813D01*
X-477504Y1502228D01*
X-472089Y1502228D01*
X-472087Y1507645D01*
X-466673Y1507644D01*
X-466674Y1513061D01*
X-455842Y1513061D01*
X-455841Y1518476D01*
X-450426Y1518475D01*
X-450425Y1523891D01*
X-445011Y1523892D01*
X-445010Y1529307D01*
X-439594D01*
Y1534723D01*
X-434178Y1534723D01*
X-434179Y1540138D01*
X-428763Y1540139D01*
X-428763Y1545556D01*
X-423349Y1545554D01*
X-423350Y1550969D01*
X-412517Y1550969D01*
X-412516Y1556386D01*
X-407101Y1556384D01*
X-407102Y1561801D01*
X-396268Y1561800D01*
X-396270Y1567217D01*
X-390855Y1567215D01*
X-390855Y1572633D01*
X-385438Y1572632D01*
X-385437Y1578047D01*
X-374608Y1578048D01*
X-374607Y1583463D01*
X-363775Y1583463D01*
X-363775Y1588879D01*
X-358360Y1588880D01*
X-358361Y1594294D01*
X-352943Y1594296D01*
X-352945Y1599711D01*
X-336699Y1599709D01*
X-336700Y1605126D01*
X-331283Y1605128D01*
X-331283Y1610540D01*
X-320451Y1610541D01*
X-320451Y1615956D01*
X-298789Y1615956D01*
Y1621374D01*
X-293372Y1621371D01*
X-293376Y1626787D01*
X-206724Y1626787D01*
X-206723Y1615957D01*
D02*
G37*
G36*
X-959493Y868603D02*
X-959492Y852356D01*
X-959496Y846940D01*
X-970326Y846939D01*
X-970323Y836109D01*
X-981156Y836112D01*
Y830694D01*
X-986572Y830692D01*
X-986571Y841525D01*
X-981155Y841524D01*
X-981156Y852357D01*
X-975741Y852356D01*
X-975740Y857772D01*
X-970325Y857772D01*
Y863186D01*
X-964910Y863186D01*
X-964908Y868603D01*
X-959493Y868603D01*
D02*
G37*
G36*
X-986572Y830692D02*
X-986571Y825277D01*
X-991986Y825276D01*
X-991988Y830694D01*
X-986572Y830692D01*
D02*
G37*
G36*
X-872844Y327041D02*
X-872843Y321626D01*
X-878258Y321627D01*
X-878259Y316209D01*
X-905338Y316210D01*
X-905337Y321626D01*
X-905338Y327042D01*
X-872844Y327041D01*
D02*
G37*
G36*
X-921583Y310794D02*
X-921584Y305379D01*
X-926998Y305380D01*
X-927000Y310797D01*
X-921583Y310794D01*
D02*
G37*
G36*
X789749Y180819D02*
X800580Y180819D01*
X800580Y175403D01*
X833075Y175404D01*
X833074Y169990D01*
X843905Y169991D01*
X843906Y164573D01*
X854735Y164573D01*
X854736Y159157D01*
X865567Y159159D01*
X865566Y153742D01*
X870982D01*
X870983Y148326D01*
X881814Y148329D01*
X881813Y142910D01*
X887230Y142910D01*
X887229Y137495D01*
X892646Y137497D01*
X892645Y132081D01*
X898061D01*
X898060Y126664D01*
X903477Y126663D01*
X903475Y121248D01*
X908892Y121250D01*
X908892Y115833D01*
X914306Y115833D01*
X914306Y110418D01*
X919722D01*
X919722Y105002D01*
X925140Y105002D01*
X925140Y94169D01*
X930554Y94171D01*
Y83341D01*
X935970Y83340D01*
X935971Y77922D01*
X941387Y77923D01*
X941386Y45430D01*
X946802D01*
X946800Y40014D01*
X952216D01*
X952217Y-19558D01*
X946802Y-19556D01*
X946802Y-24973D01*
X941387Y-24971D01*
X941385Y-46636D01*
X935971Y-46636D01*
X935970Y-57466D01*
X930555D01*
X930554Y-73712D01*
X925141Y-73712D01*
X925139Y-79128D01*
X919722Y-79129D01*
X919722Y-89961D01*
X914310Y-89960D01*
X914309Y-100791D01*
X903477D01*
X903476Y-106206D01*
X898061Y-106206D01*
X898060Y-111622D01*
X892644Y-111622D01*
X892647Y-117037D01*
X887230Y-117037D01*
X887229Y-122455D01*
X881815Y-122454D01*
X881814Y-127870D01*
X870984Y-127869D01*
X870984Y-133285D01*
X860152Y-133286D01*
X860151Y-138701D01*
X849321Y-138702D01*
X849322Y-144117D01*
X843905Y-144117D01*
X843905Y-149531D01*
X827659Y-149533D01*
X827657Y-154949D01*
X816827Y-154948D01*
X816826Y-160363D01*
X730175Y-160364D01*
X730176Y-154948D01*
X724761Y-154948D01*
X724762Y-149532D01*
X692267Y-149532D01*
X692268Y-144117D01*
X686854Y-144117D01*
X686853Y-138701D01*
X676021Y-138702D01*
X676022Y-133287D01*
X670604Y-133284D01*
X670605Y-127869D01*
X665191Y-127870D01*
X665188Y-122454D01*
X659774Y-122453D01*
X659776Y-117039D01*
X654357Y-117038D01*
X654358Y-111625D01*
X648943Y-111622D01*
X648945Y-106208D01*
X643526Y-106206D01*
X643527Y-100792D01*
X638111Y-100792D01*
X638111Y-95375D01*
X632696D01*
X632697Y-89959D01*
X627281Y-89961D01*
X627280Y-84545D01*
X621865Y-84545D01*
X621864Y-79128D01*
X616448Y-79129D01*
X616448Y-62881D01*
X611034D01*
X611033Y-57466D01*
X605617Y-57467D01*
X605619Y-41220D01*
X600201Y-41221D01*
X600202Y-30390D01*
X594786D01*
X594786Y-14142D01*
X600202Y-14139D01*
Y-8725D01*
X594786Y-8726D01*
X594787Y29184D01*
X600201Y29183D01*
X600203Y34600D01*
X594786Y34597D01*
X594786Y50846D01*
X600203D01*
X600201Y61677D01*
X605619Y61676D01*
X605618Y77925D01*
X611034Y77924D01*
X611035Y88755D01*
X616451Y88754D01*
X616449Y94169D01*
X621865D01*
X621867Y99587D01*
X627281Y99586D01*
X627282Y115833D01*
X632697Y115833D01*
X632694Y121246D01*
X638112Y121248D01*
X638110Y126665D01*
X643528Y126662D01*
X643527Y132077D01*
X648943Y132081D01*
X648943Y137495D01*
X654358Y137497D01*
Y142912D01*
X659775Y142912D01*
X659774Y148325D01*
X670603Y148327D01*
X670606Y153742D01*
X676020D01*
X676022Y159158D01*
X692267D01*
X692269Y164572D01*
X703099Y164574D01*
X703098Y169987D01*
X708513Y169990D01*
X708514Y175404D01*
X746423Y175405D01*
X746423Y180819D01*
X757255Y180820D01*
Y186235D01*
X789749Y186237D01*
X789749Y180819D01*
D02*
G37*
G36*
X-889090Y-295755D02*
X-889090Y-301169D01*
X-883673Y-301169D01*
X-883674Y-306585D01*
X-889090D01*
X-894506Y-306584D01*
X-894505Y-312000D01*
X-899923Y-312000D01*
Y-306583D01*
X-905336Y-306586D01*
X-905337Y-301169D01*
X-899922Y-301170D01*
Y-295754D01*
X-889090Y-295755D01*
D02*
G37*
G36*
X-186210Y-3932795D02*
X-186395Y-3934091D01*
Y-3935573D01*
X-186765Y-3938906D01*
X-187136Y-3942609D01*
X-187876Y-3946498D01*
X-188802Y-3950386D01*
X-190098Y-3953904D01*
Y-3954089D01*
X-190284Y-3954275D01*
X-190839Y-3955386D01*
X-191765Y-3957052D01*
X-193061Y-3958904D01*
X-194728Y-3961126D01*
X-196764Y-3963533D01*
X-199357Y-3965755D01*
X-202134Y-3967792D01*
X-202505Y-3967977D01*
X-203616Y-3968532D01*
X-205097Y-3969458D01*
X-207319Y-3970384D01*
X-209911Y-3971310D01*
X-212689Y-3972236D01*
X-215836Y-3972791D01*
X-218984Y-3972976D01*
X-219355D01*
X-220280D01*
X-221947Y-3972791D01*
X-223984Y-3972421D01*
X-226391Y-3971865D01*
X-228983Y-3970939D01*
X-231576Y-3969828D01*
X-234353Y-3968347D01*
X-234723Y-3968162D01*
X-235464Y-3967606D01*
X-236945Y-3966495D01*
X-238427Y-3965014D01*
X-240278Y-3963163D01*
X-242315Y-3960941D01*
X-244167Y-3958163D01*
X-246019Y-3955015D01*
Y-3955200D01*
X-246204Y-3955571D01*
X-246389Y-3956126D01*
X-246759Y-3956867D01*
X-247500Y-3959089D01*
X-248796Y-3961681D01*
X-250463Y-3964459D01*
X-252499Y-3967606D01*
X-254907Y-3970384D01*
X-257869Y-3972976D01*
X-258240Y-3973161D01*
X-259351Y-3973902D01*
X-261017Y-3975013D01*
X-263239Y-3976124D01*
X-266202Y-3977235D01*
X-269349Y-3978346D01*
X-273053Y-3979087D01*
X-277126Y-3979272D01*
X-277312D01*
X-277497D01*
X-278608D01*
X-280459Y-3979087D01*
X-282681Y-3978716D01*
X-285274Y-3978346D01*
X-288051Y-3977605D01*
X-291014Y-3976680D01*
X-293977Y-3975383D01*
X-294347Y-3975198D01*
X-295273Y-3974643D01*
X-296569Y-3973902D01*
X-298421Y-3972791D01*
X-300272Y-3971310D01*
X-302309Y-3969828D01*
X-304346Y-3967977D01*
X-306012Y-3965940D01*
X-306198Y-3965755D01*
X-306753Y-3965014D01*
X-307494Y-3963718D01*
X-308234Y-3962052D01*
X-309345Y-3960015D01*
X-310456Y-3957608D01*
X-311382Y-3955015D01*
X-312308Y-3951867D01*
Y-3951497D01*
X-312678Y-3950386D01*
X-312863Y-3948534D01*
X-313234Y-3946127D01*
X-313604Y-3943165D01*
X-313974Y-3939646D01*
X-314160Y-3935758D01*
X-314345Y-3931314D01*
Y-3882430D01*
X-186210D01*
Y-3932795D01*
D02*
G37*
G36*
Y-4094445D02*
X-201394D01*
Y-4052227D01*
X-314345D01*
Y-4035192D01*
X-201394D01*
Y-3992974D01*
X-186210D01*
Y-4094445D01*
D02*
G37*
G36*
Y-4129256D02*
X-286940Y-4196472D01*
X-186210D01*
Y-4212766D01*
X-314345D01*
Y-4195176D01*
X-213800Y-4128145D01*
X-314345D01*
Y-4111851D01*
X-186210D01*
Y-4129256D01*
D02*
G37*
G36*
X-310827Y-4232764D02*
X-309160Y-4232949D01*
X-307309Y-4233320D01*
X-305457Y-4233690D01*
X-303420Y-4234431D01*
X-303235D01*
X-303050Y-4234616D01*
X-301939Y-4234986D01*
X-300272Y-4235727D01*
X-298050Y-4236838D01*
X-295458Y-4238319D01*
X-292495Y-4240171D01*
X-289533Y-4242208D01*
X-286385Y-4244800D01*
X-286200D01*
X-286014Y-4245170D01*
X-284903Y-4246096D01*
X-283237Y-4247763D01*
X-280830Y-4250170D01*
X-278052Y-4252947D01*
X-274719Y-4256465D01*
X-271016Y-4260724D01*
X-267127Y-4265353D01*
X-266942Y-4265539D01*
X-266387Y-4266279D01*
X-265461Y-4267390D01*
X-264350Y-4268686D01*
X-262869Y-4270353D01*
X-261202Y-4272390D01*
X-259351Y-4274427D01*
X-257314Y-4276834D01*
X-252870Y-4281463D01*
X-248426Y-4286092D01*
X-246204Y-4288314D01*
X-243982Y-4290351D01*
X-241945Y-4292202D01*
X-239908Y-4293684D01*
X-239723D01*
X-239538Y-4294054D01*
X-238982Y-4294424D01*
X-238242Y-4294795D01*
X-236205Y-4296091D01*
X-233798Y-4297572D01*
X-230835Y-4298868D01*
X-227687Y-4300165D01*
X-224169Y-4300905D01*
X-220836Y-4301276D01*
X-220651D01*
X-220466D01*
X-219355Y-4301090D01*
X-217503Y-4300905D01*
X-215466Y-4300350D01*
X-212874Y-4299609D01*
X-210282Y-4298313D01*
X-207689Y-4296646D01*
X-205097Y-4294424D01*
X-204727Y-4294054D01*
X-203986Y-4293128D01*
X-203060Y-4291832D01*
X-201764Y-4289795D01*
X-200653Y-4287203D01*
X-199542Y-4284240D01*
X-198801Y-4280722D01*
X-198616Y-4276834D01*
Y-4275723D01*
X-198801Y-4274982D01*
X-198986Y-4272760D01*
X-199542Y-4270168D01*
X-200283Y-4267390D01*
X-201579Y-4264242D01*
X-203245Y-4261280D01*
X-205467Y-4258502D01*
X-205838Y-4258132D01*
X-206763Y-4257391D01*
X-208245Y-4256280D01*
X-210467Y-4255169D01*
X-213059Y-4253873D01*
X-216392Y-4252762D01*
X-220095Y-4252021D01*
X-224354Y-4251651D01*
X-222688Y-4235542D01*
X-222502D01*
X-221947Y-4235727D01*
X-221021D01*
X-219725Y-4235912D01*
X-218244Y-4236282D01*
X-216577Y-4236653D01*
X-214540Y-4237208D01*
X-212504Y-4237764D01*
X-208060Y-4239245D01*
X-203616Y-4241467D01*
X-201394Y-4242763D01*
X-199172Y-4244430D01*
X-197135Y-4246096D01*
X-195283Y-4247948D01*
X-195098Y-4248133D01*
X-194913Y-4248503D01*
X-194357Y-4249059D01*
X-193802Y-4249985D01*
X-193061Y-4251096D01*
X-192320Y-4252392D01*
X-191395Y-4253873D01*
X-190469Y-4255725D01*
X-189543Y-4257762D01*
X-188617Y-4259984D01*
X-187876Y-4262391D01*
X-187136Y-4264983D01*
X-186580Y-4267761D01*
X-186025Y-4270723D01*
X-185840Y-4273871D01*
X-185654Y-4277204D01*
Y-4279056D01*
X-185840Y-4280352D01*
X-186025Y-4281833D01*
X-186210Y-4283685D01*
X-186580Y-4285722D01*
X-186951Y-4287759D01*
X-188247Y-4292573D01*
X-190098Y-4297387D01*
X-191209Y-4299794D01*
X-192506Y-4302201D01*
X-194172Y-4304423D01*
X-196024Y-4306460D01*
X-196209Y-4306645D01*
X-196394Y-4307016D01*
X-197135Y-4307386D01*
X-197875Y-4308127D01*
X-198801Y-4309053D01*
X-200097Y-4309978D01*
X-201394Y-4310904D01*
X-203060Y-4312015D01*
X-206578Y-4313867D01*
X-211022Y-4315719D01*
X-213244Y-4316459D01*
X-215836Y-4316830D01*
X-218429Y-4317200D01*
X-221206Y-4317385D01*
X-221577D01*
X-222502D01*
X-223984Y-4317200D01*
X-226021Y-4317015D01*
X-228243Y-4316644D01*
X-230835Y-4315904D01*
X-233612Y-4315163D01*
X-236390Y-4314052D01*
X-236760Y-4313867D01*
X-237686Y-4313497D01*
X-239167Y-4312756D01*
X-241204Y-4311645D01*
X-243426Y-4310164D01*
X-246204Y-4308312D01*
X-248981Y-4306090D01*
X-252129Y-4303498D01*
X-252499Y-4303127D01*
X-253610Y-4302201D01*
X-254536Y-4301276D01*
X-255462Y-4300350D01*
X-256573Y-4299239D01*
X-258054Y-4297757D01*
X-259536Y-4296276D01*
X-261202Y-4294424D01*
X-263054Y-4292573D01*
X-265091Y-4290351D01*
X-267127Y-4287944D01*
X-269535Y-4285351D01*
X-271942Y-4282389D01*
X-274534Y-4279426D01*
X-274719Y-4279241D01*
X-275090Y-4278871D01*
X-275645Y-4278130D01*
X-276386Y-4277204D01*
X-277497Y-4276093D01*
X-278608Y-4274797D01*
X-281015Y-4271834D01*
X-283792Y-4268686D01*
X-286570Y-4265724D01*
X-288977Y-4263131D01*
X-289903Y-4262020D01*
X-290829Y-4261095D01*
X-291014Y-4260909D01*
X-291569Y-4260354D01*
X-292310Y-4259613D01*
X-293421Y-4258687D01*
X-294717Y-4257762D01*
X-296013Y-4256651D01*
X-299161Y-4254429D01*
Y-4317570D01*
X-314345D01*
Y-4232579D01*
X-314160D01*
X-313419D01*
X-312308D01*
X-310827Y-4232764D01*
D02*
G37*
G36*
X-186210Y4255446D02*
X-186395Y4254150D01*
Y4252669D01*
X-186765Y4249336D01*
X-187136Y4245633D01*
X-187876Y4241744D01*
X-188802Y4237856D01*
X-190098Y4234337D01*
Y4234152D01*
X-190284Y4233967D01*
X-190839Y4232856D01*
X-191765Y4231190D01*
X-193061Y4229338D01*
X-194728Y4227116D01*
X-196764Y4224709D01*
X-199357Y4222487D01*
X-202134Y4220450D01*
X-202505Y4220265D01*
X-203616Y4219709D01*
X-205097Y4218784D01*
X-207319Y4217858D01*
X-209911Y4216932D01*
X-212689Y4216006D01*
X-215836Y4215451D01*
X-218984Y4215265D01*
X-219355D01*
X-220280D01*
X-221947Y4215451D01*
X-223984Y4215821D01*
X-226391Y4216376D01*
X-228983Y4217302D01*
X-231576Y4218413D01*
X-234353Y4219895D01*
X-234723Y4220080D01*
X-235464Y4220635D01*
X-236945Y4221746D01*
X-238427Y4223228D01*
X-240278Y4225079D01*
X-242315Y4227301D01*
X-244167Y4230079D01*
X-246019Y4233226D01*
Y4233041D01*
X-246204Y4232671D01*
X-246389Y4232115D01*
X-246759Y4231375D01*
X-247500Y4229153D01*
X-248796Y4226561D01*
X-250463Y4223783D01*
X-252499Y4220635D01*
X-254907Y4217858D01*
X-257869Y4215265D01*
X-258240Y4215080D01*
X-259351Y4214340D01*
X-261017Y4213229D01*
X-263239Y4212118D01*
X-266202Y4211007D01*
X-269349Y4209896D01*
X-273053Y4209155D01*
X-277126Y4208970D01*
X-277312D01*
X-277497D01*
X-278608D01*
X-280459Y4209155D01*
X-282681Y4209525D01*
X-285274Y4209896D01*
X-288051Y4210636D01*
X-291014Y4211562D01*
X-293977Y4212858D01*
X-294347Y4213043D01*
X-295273Y4213599D01*
X-296569Y4214340D01*
X-298421Y4215451D01*
X-300272Y4216932D01*
X-302309Y4218413D01*
X-304346Y4220265D01*
X-306012Y4222302D01*
X-306198Y4222487D01*
X-306753Y4223228D01*
X-307494Y4224524D01*
X-308234Y4226190D01*
X-309345Y4228227D01*
X-310456Y4230634D01*
X-311382Y4233226D01*
X-312308Y4236374D01*
Y4236745D01*
X-312678Y4237856D01*
X-312863Y4239707D01*
X-313234Y4242114D01*
X-313604Y4245077D01*
X-313974Y4248595D01*
X-314160Y4252484D01*
X-314345Y4256928D01*
Y4305812D01*
X-186210D01*
Y4255446D01*
D02*
G37*
G36*
Y4093796D02*
X-201394D01*
Y4136014D01*
X-314345D01*
Y4153050D01*
X-201394D01*
Y4195267D01*
X-186210D01*
Y4093796D01*
D02*
G37*
G36*
Y4058985D02*
X-286940Y3991770D01*
X-186210D01*
Y3975475D01*
X-314345D01*
Y3993066D01*
X-213800Y4060096D01*
X-314345D01*
Y4076391D01*
X-186210D01*
Y4058985D01*
D02*
G37*
G36*
X-217873Y3941220D02*
X-217503Y3940849D01*
X-217318Y3940109D01*
X-216762Y3939183D01*
X-216207Y3938072D01*
X-215466Y3936776D01*
X-213615Y3933628D01*
X-211578Y3929925D01*
X-208985Y3926221D01*
X-206023Y3922333D01*
X-202875Y3918444D01*
X-202690Y3918259D01*
X-202505Y3918074D01*
X-201949Y3917518D01*
X-201394Y3916778D01*
X-199542Y3915111D01*
X-197320Y3912889D01*
X-194728Y3910667D01*
X-191765Y3908260D01*
X-188802Y3906223D01*
X-185654Y3904372D01*
Y3894188D01*
X-314345D01*
Y3909927D01*
X-214170D01*
X-214355Y3910112D01*
X-215096Y3911038D01*
X-216207Y3912149D01*
X-217503Y3914000D01*
X-219169Y3916037D01*
X-221021Y3918629D01*
X-223058Y3921592D01*
X-225095Y3924925D01*
Y3925110D01*
X-225280Y3925295D01*
X-226021Y3926406D01*
X-226946Y3928258D01*
X-228057Y3930480D01*
X-229354Y3933072D01*
X-230650Y3935850D01*
X-231946Y3938627D01*
X-233057Y3941405D01*
X-217873D01*
Y3941220D01*
D02*
G37*
%LPC*%
G36*
X53225Y446185D02*
X-103827D01*
Y440769D01*
X-109243D01*
Y435354D01*
X-212139D01*
Y429938D01*
X-222971D01*
Y424523D01*
X-228386D01*
Y419108D01*
X-233801D01*
Y392028D01*
X-239217D01*
Y386613D01*
X-244632D01*
Y343288D01*
X-255465D01*
Y305380D01*
X-260880D01*
Y299964D01*
X-266295D01*
Y289132D01*
X-271711D01*
Y262054D01*
X-277127D01*
Y256639D01*
X-282542D01*
Y218729D01*
X-287957D01*
Y191652D01*
X-293373D01*
Y175404D01*
X-298789D01*
Y148327D01*
X-304205D01*
Y142911D01*
X-309620D01*
Y105002D01*
X-315036D01*
Y99586D01*
X-320452D01*
Y61677D01*
X-325867D01*
Y56262D01*
X-331283D01*
Y50846D01*
X-336698D01*
Y18352D01*
X-342113D01*
Y7521D01*
X-347529D01*
Y-19557D01*
X-352944D01*
Y-30389D01*
X-358360D01*
Y-35804D01*
X-352944D01*
Y-46636D01*
X-358360D01*
Y-57466D01*
X-363777D01*
Y-84545D01*
X-369192D01*
Y-95376D01*
X-374608D01*
Y-122454D01*
X-380023D01*
Y-127869D01*
X-385439D01*
Y-160363D01*
X-390854D01*
Y-171194D01*
X-396270D01*
Y-176610D01*
X-401685D01*
Y-187442D01*
X-396270D01*
Y-198273D01*
X-401685D01*
Y-203688D01*
X-407101D01*
Y-209104D01*
X-412516D01*
Y-241598D01*
X-417933D01*
Y-268676D01*
X-423348D01*
Y-279506D01*
X-428764D01*
Y-306585D01*
X-434179D01*
Y-312000D01*
X-439595D01*
Y-344494D01*
X-445011D01*
Y-349910D01*
X-450426D01*
Y-382403D01*
X-455841D01*
Y-387818D01*
X-461256D01*
Y-398650D01*
X-434179D01*
Y-404066D01*
X-423348D01*
Y-409482D01*
X-363777D01*
Y-414897D01*
X-352944D01*
Y-420312D01*
X-293373D01*
Y-425728D01*
X-282542D01*
Y-431144D01*
X-217555D01*
Y-436559D01*
X-212139D01*
Y-441975D01*
X-109243D01*
Y-447390D01*
X-98412D01*
Y-452805D01*
X53225D01*
Y-447390D01*
X58641D01*
Y-441975D01*
X64057D01*
Y-436559D01*
X69473D01*
Y-441975D01*
X107382D01*
Y-436559D01*
X118213D01*
Y-431144D01*
X145291D01*
Y-425728D01*
X156122D01*
Y-420312D01*
X172369D01*
Y-414897D01*
X183201D01*
Y-409482D01*
X194032D01*
Y-404066D01*
X204863D01*
Y-398650D01*
X215693D01*
Y-393234D01*
X221109D01*
Y-387818D01*
X231941D01*
Y-382403D01*
X242772D01*
Y-376988D01*
X248188D01*
Y-371572D01*
X253603D01*
Y-366156D01*
X259019D01*
Y-360741D01*
X275265D01*
Y-355325D01*
X280681D01*
Y-349910D01*
X286097D01*
Y-344494D01*
X291513D01*
Y-339077D01*
X296929D01*
Y-333662D01*
X302344D01*
Y-322832D01*
X313175D01*
Y-317416D01*
X318591D01*
Y-312000D01*
X324006D01*
Y-306585D01*
X329421D01*
Y-290337D01*
X334838D01*
Y-284921D01*
X340253D01*
Y-279506D01*
X345669D01*
Y-274091D01*
X351084D01*
Y-268676D01*
X356500D01*
Y-252429D01*
X361916D01*
Y-241598D01*
X367331D01*
Y-230765D01*
X372747D01*
Y-225350D01*
X378162D01*
Y-203688D01*
X383577D01*
Y-192857D01*
X388994D01*
Y-187442D01*
X394409D01*
Y-165778D01*
X399824D01*
Y-160363D01*
X405240D01*
Y-144117D01*
X399824D01*
Y-133285D01*
X405240D01*
Y-127869D01*
X410656D01*
Y-122454D01*
X416072D01*
Y-111622D01*
X410656D01*
Y-68298D01*
X416072D01*
Y-62882D01*
X421487D01*
Y56262D01*
X416072D01*
Y61677D01*
X410656D01*
Y105002D01*
X416072D01*
Y115833D01*
X410656D01*
Y121248D01*
X405240D01*
Y126664D01*
X399824D01*
Y137496D01*
X405240D01*
Y153742D01*
X399824D01*
Y159158D01*
X394409D01*
Y180820D01*
X388994D01*
Y186236D01*
X383577D01*
Y197068D01*
X378162D01*
Y218729D01*
X372747D01*
Y224145D01*
X367331D01*
Y234976D01*
X361916D01*
Y245808D01*
X356500D01*
Y262054D01*
X351084D01*
Y267470D01*
X345669D01*
Y272886D01*
X340253D01*
Y278301D01*
X334838D01*
Y283716D01*
X329421D01*
Y299964D01*
X324006D01*
Y305380D01*
X318591D01*
Y310795D01*
X313175D01*
Y316210D01*
X302344D01*
Y327042D01*
X296929D01*
Y332457D01*
X291513D01*
Y337873D01*
X286097D01*
Y343288D01*
X280681D01*
Y348704D01*
X275265D01*
Y354120D01*
X259019D01*
Y359535D01*
X253603D01*
Y364952D01*
X248188D01*
Y370367D01*
X242772D01*
Y375782D01*
X231941D01*
Y381198D01*
X221109D01*
Y386613D01*
X215693D01*
Y392028D01*
X204863D01*
Y397444D01*
X194032D01*
Y402860D01*
X183201D01*
Y408276D01*
X172369D01*
Y413692D01*
X161537D01*
Y419108D01*
X145291D01*
Y424523D01*
X118213D01*
Y429938D01*
X107382D01*
Y435354D01*
X58641D01*
Y440769D01*
X53225D01*
Y446185D01*
D02*
G37*
%LPD*%
G36*
X58640Y229559D02*
X58640Y224145D01*
X69472Y224146D01*
X69474Y218730D01*
X91134Y218728D01*
X91135Y213315D01*
X101966Y213315D01*
X101966Y207898D01*
X118213Y207897D01*
X118212Y202482D01*
X123628Y202484D01*
X123627Y197068D01*
X129045D01*
Y191653D01*
X134460Y191651D01*
X134460Y186237D01*
X145294Y186236D01*
X145291Y180820D01*
X156124Y180821D01*
X156123Y175404D01*
X161537Y175404D01*
X161536Y169989D01*
X166953D01*
Y164573D01*
X172368D01*
X172367Y159159D01*
X177785Y159158D01*
X177786Y153744D01*
X183202Y153742D01*
X183200Y137495D01*
X188617Y137494D01*
X188617Y132080D01*
X194032Y132079D01*
X194033Y126665D01*
X199448D01*
Y121248D01*
X204863D01*
Y115834D01*
X210278Y115831D01*
X210277Y94170D01*
X215694D01*
X215693Y88756D01*
X221109Y88755D01*
X221109Y77922D01*
X226525Y77923D01*
X226525Y40014D01*
X231941Y40016D01*
Y29185D01*
X237358D01*
Y-35803D01*
X231941Y-35805D01*
X231941Y-41220D01*
X226526Y-41222D01*
X226524Y-84545D01*
X221109Y-84544D01*
X221109Y-95374D01*
X215693Y-95377D01*
X215692Y-100791D01*
X210278Y-100791D01*
X210279Y-122455D01*
X204861Y-122454D01*
X204862Y-127868D01*
X199447Y-127868D01*
X199449Y-133286D01*
X194032Y-133286D01*
X194030Y-138701D01*
X188617Y-138700D01*
X188617Y-144117D01*
X183201Y-144117D01*
X183201Y-160362D01*
X177784Y-160364D01*
X177785Y-165779D01*
X172369Y-165779D01*
X172368Y-171193D01*
X166952Y-171194D01*
X166954Y-176609D01*
X161537Y-176610D01*
Y-182024D01*
X150707Y-182026D01*
Y-187443D01*
X145292Y-187442D01*
X145290Y-192856D01*
X134460Y-192855D01*
X134459Y-198274D01*
X129044Y-198273D01*
X129045Y-203689D01*
X123629Y-203687D01*
X123631Y-209104D01*
X112799Y-209104D01*
X112797Y-214520D01*
X96550Y-214518D01*
X96551Y-219934D01*
X85719Y-219934D01*
X85720Y-225352D01*
X64057Y-225351D01*
X64057Y-230766D01*
X53225Y-230765D01*
X53225Y-236183D01*
X-49672Y-236182D01*
X-49670Y-230764D01*
X-60503Y-230765D01*
X-60502Y-225350D01*
X-82166Y-225349D01*
X-82166Y-219937D01*
X-92994Y-219935D01*
X-92996Y-214519D01*
X-109243Y-214519D01*
X-109243Y-209104D01*
X-114658Y-209102D01*
X-114659Y-203688D01*
X-125489Y-203689D01*
X-125489Y-198272D01*
X-130906Y-198271D01*
Y-192856D01*
X-136320Y-192857D01*
X-136320Y-187443D01*
X-147152Y-187442D01*
X-147151Y-182026D01*
X-152569D01*
X-152566Y-176610D01*
X-163400Y-176611D01*
X-163400Y-171194D01*
X-168814Y-171195D01*
X-168814Y-160363D01*
X-174231Y-160363D01*
X-174231Y-154948D01*
X-179645Y-154946D01*
X-179646Y-144119D01*
X-185061Y-144117D01*
X-185060Y-138700D01*
X-190477Y-138701D01*
X-190476Y-133283D01*
X-195893Y-133286D01*
X-195894Y-127870D01*
X-201307Y-127870D01*
X-201309Y-122454D01*
X-206725Y-122455D01*
X-206723Y-106207D01*
X-212139Y-106207D01*
X-212139Y-95377D01*
X-217555Y-95375D01*
X-217556Y-79130D01*
X-222970Y-79128D01*
X-222970Y-68298D01*
X-228386Y-68299D01*
X-228386Y-57466D01*
X-222970Y-57466D01*
X-222970Y-41220D01*
X-228387Y-41220D01*
X-228385Y-24971D01*
X-233802Y-24974D01*
X-233803Y18353D01*
X-228385Y18352D01*
X-228386Y34600D01*
X-222971Y34598D01*
X-222972Y50844D01*
X-228384Y50847D01*
X-228387Y56260D01*
Y61675D01*
X-222971Y61677D01*
X-222971Y72508D01*
X-217554Y72507D01*
X-217556Y88754D01*
X-212140Y88757D01*
X-212139Y99587D01*
X-206724Y99586D01*
X-206723Y115833D01*
X-201307Y115834D01*
X-201309Y121249D01*
X-195892Y121249D01*
X-195890Y126664D01*
X-190476D01*
X-190477Y132079D01*
X-185060Y132078D01*
X-185061Y137495D01*
X-179645Y137495D01*
X-179646Y148327D01*
X-174230Y148327D01*
Y159157D01*
X-168814Y159159D01*
X-168815Y164573D01*
X-163399Y164575D01*
X-163399Y169988D01*
X-157983Y169989D01*
X-157983Y175404D01*
X-147153Y175403D01*
X-147150Y180820D01*
X-136321Y180820D01*
X-136321Y186236D01*
X-130906Y186236D01*
X-130903Y191651D01*
X-125489D01*
X-125490Y197067D01*
X-120075Y197068D01*
Y202484D01*
X-109240Y202483D01*
X-109242Y207897D01*
X-98413Y207897D01*
X-98412Y213315D01*
X-87581Y213314D01*
X-87578Y218730D01*
X-65918Y218731D01*
X-65917Y224145D01*
X-55086Y224145D01*
X-55086Y229561D01*
X58640Y229559D01*
D02*
G37*
%LPC*%
G36*
X-201394Y-3899465D02*
X-239908D01*
Y-3930944D01*
X-239723Y-3933351D01*
X-239538Y-3935943D01*
X-239353Y-3938535D01*
X-238982Y-3941128D01*
X-238612Y-3943165D01*
X-238427Y-3943535D01*
X-238242Y-3944276D01*
X-237686Y-3945387D01*
X-236945Y-3946868D01*
X-236205Y-3948349D01*
X-235094Y-3950016D01*
X-233612Y-3951682D01*
X-232131Y-3952978D01*
X-231946Y-3953164D01*
X-231390Y-3953534D01*
X-230279Y-3954089D01*
X-228983Y-3954645D01*
X-227502Y-3955200D01*
X-225650Y-3955756D01*
X-223428Y-3956126D01*
X-221021Y-3956311D01*
X-220651D01*
X-219910D01*
X-218799Y-3956126D01*
X-217318Y-3955941D01*
X-215466Y-3955571D01*
X-213615Y-3955015D01*
X-211763Y-3954275D01*
X-209911Y-3953164D01*
X-209726Y-3952978D01*
X-209171Y-3952608D01*
X-208245Y-3951867D01*
X-207319Y-3950942D01*
X-206208Y-3949645D01*
X-205097Y-3948164D01*
X-203986Y-3946312D01*
X-203245Y-3944276D01*
Y-3944090D01*
X-202875Y-3943165D01*
X-202690Y-3941868D01*
X-202319Y-3939832D01*
X-201949Y-3937054D01*
X-201764Y-3933906D01*
X-201394Y-3929833D01*
Y-3899465D01*
D02*
G37*
G36*
X-255092D02*
X-299161D01*
Y-3935943D01*
X-298976Y-3939832D01*
X-298791Y-3941498D01*
X-298606Y-3942979D01*
Y-3943165D01*
X-298421Y-3943905D01*
X-298235Y-3945016D01*
X-297865Y-3946312D01*
X-296754Y-3949460D01*
X-295273Y-3952608D01*
X-295088Y-3952793D01*
X-294717Y-3953349D01*
X-294162Y-3954089D01*
X-293421Y-3955015D01*
X-292310Y-3955941D01*
X-291199Y-3957237D01*
X-289718Y-3958163D01*
X-288051Y-3959274D01*
X-287866Y-3959459D01*
X-287311Y-3959644D01*
X-286200Y-3960015D01*
X-284903Y-3960570D01*
X-283422Y-3961126D01*
X-281570Y-3961496D01*
X-279348Y-3961681D01*
X-277126Y-3961866D01*
X-276756D01*
X-276015D01*
X-274534Y-3961681D01*
X-272868Y-3961311D01*
X-271016Y-3960941D01*
X-268979Y-3960200D01*
X-266942Y-3959274D01*
X-264905Y-3957978D01*
X-264720Y-3957793D01*
X-263980Y-3957237D01*
X-263054Y-3956497D01*
X-261943Y-3955386D01*
X-260647Y-3953904D01*
X-259351Y-3952053D01*
X-258240Y-3950016D01*
X-257314Y-3947609D01*
X-257129Y-3947238D01*
X-256943Y-3946498D01*
X-256573Y-3944831D01*
X-256203Y-3942794D01*
X-255832Y-3940202D01*
X-255462Y-3937054D01*
X-255092Y-3933166D01*
Y-3899465D01*
D02*
G37*
G36*
X-201394Y4288776D02*
X-239908D01*
Y4257298D01*
X-239723Y4254891D01*
X-239538Y4252299D01*
X-239353Y4249706D01*
X-238982Y4247114D01*
X-238612Y4245077D01*
X-238427Y4244707D01*
X-238242Y4243966D01*
X-237686Y4242855D01*
X-236945Y4241374D01*
X-236205Y4239892D01*
X-235094Y4238226D01*
X-233612Y4236559D01*
X-232131Y4235263D01*
X-231946Y4235078D01*
X-231390Y4234708D01*
X-230279Y4234152D01*
X-228983Y4233597D01*
X-227502Y4233041D01*
X-225650Y4232486D01*
X-223428Y4232115D01*
X-221021Y4231930D01*
X-220651D01*
X-219910D01*
X-218799Y4232115D01*
X-217318Y4232301D01*
X-215466Y4232671D01*
X-213615Y4233226D01*
X-211763Y4233967D01*
X-209911Y4235078D01*
X-209726Y4235263D01*
X-209171Y4235634D01*
X-208245Y4236374D01*
X-207319Y4237300D01*
X-206208Y4238596D01*
X-205097Y4240078D01*
X-203986Y4241929D01*
X-203245Y4243966D01*
Y4244151D01*
X-202875Y4245077D01*
X-202690Y4246373D01*
X-202319Y4248410D01*
X-201949Y4251188D01*
X-201764Y4254335D01*
X-201394Y4258409D01*
Y4288776D01*
D02*
G37*
G36*
X-255092D02*
X-299161D01*
Y4252299D01*
X-298976Y4248410D01*
X-298791Y4246744D01*
X-298606Y4245262D01*
Y4245077D01*
X-298421Y4244336D01*
X-298235Y4243225D01*
X-297865Y4241929D01*
X-296754Y4238781D01*
X-295273Y4235634D01*
X-295088Y4235448D01*
X-294717Y4234893D01*
X-294162Y4234152D01*
X-293421Y4233226D01*
X-292310Y4232301D01*
X-291199Y4231004D01*
X-289718Y4230079D01*
X-288051Y4228968D01*
X-287866Y4228782D01*
X-287311Y4228597D01*
X-286200Y4228227D01*
X-284903Y4227672D01*
X-283422Y4227116D01*
X-281570Y4226746D01*
X-279348Y4226561D01*
X-277126Y4226375D01*
X-276756D01*
X-276015D01*
X-274534Y4226561D01*
X-272868Y4226931D01*
X-271016Y4227301D01*
X-268979Y4228042D01*
X-266942Y4228968D01*
X-264905Y4230264D01*
X-264720Y4230449D01*
X-263980Y4231004D01*
X-263054Y4231745D01*
X-261943Y4232856D01*
X-260647Y4234337D01*
X-259351Y4236189D01*
X-258240Y4238226D01*
X-257314Y4240633D01*
X-257129Y4241003D01*
X-256943Y4241744D01*
X-256573Y4243411D01*
X-256203Y4245447D01*
X-255832Y4248040D01*
X-255462Y4251188D01*
X-255092Y4255076D01*
Y4288776D01*
D02*
G37*
%LPD*%
D30*
X0Y-3900000D02*
Y-3600000D01*
X500000Y-3700000D02*
Y-3600000D01*
X1000000Y-3700000D02*
Y-3600000D01*
X1500000Y-3700000D02*
Y-3600000D01*
X-500000Y-3700000D02*
Y-3600000D01*
X-1000000Y-3700000D02*
Y-3600000D01*
X-1500000Y-3700000D02*
Y-3600000D01*
X-2000000Y-3700000D02*
Y-3600000D01*
X2000000Y-3700000D02*
Y-3600000D01*
X500000Y2800000D02*
Y3000000D01*
X1000000Y2800000D02*
Y3000000D01*
X1500000Y2800000D02*
Y3000000D01*
X2000000Y2800000D02*
Y3000000D01*
X-2000000Y2800000D02*
Y3000000D01*
X-1500000Y2800000D02*
Y3000000D01*
X-1000000Y2800000D02*
Y3000000D01*
X-500000Y2800000D02*
Y3000000D01*
X0Y2800000D02*
Y3200000D01*
X2300000Y-2500000D02*
X2500000D01*
X-2500000D02*
X-2300000D01*
X2300000Y-2000000D02*
X2500000D01*
X2300000Y-1500000D02*
X2500000D01*
X2300000Y-1000000D02*
X2500000D01*
X2300000Y-500000D02*
X2500000D01*
X2300000Y2488000D02*
X2500000D01*
X2300000Y2000000D02*
X2500000D01*
X2300000Y1500000D02*
X2500000D01*
X2300000Y1000000D02*
X2500000D01*
X2300000Y500000D02*
X2500000D01*
X2300000Y-1D02*
X2500000D01*
X-2500000D02*
X-2300000D01*
X-2500000Y500000D02*
X-2300000D01*
X-2500000Y1000000D02*
X-2300000D01*
X-2500000Y1500000D02*
X-2300000D01*
X-2500000Y2000000D02*
X-2300000D01*
X-2500000Y2488000D02*
X-2300000D01*
X-2500000Y-500000D02*
X-2300000D01*
X-2500000Y-1000000D02*
X-2300000D01*
X-2500000Y-1500000D02*
X-2300000D01*
X-2500000Y-2000000D02*
X-2300000D01*
D46*
X1866000Y-2150000D02*
X1866000Y2488000D01*
X-1866000Y-2150000D02*
X-1866000Y2488000D01*
X1866000D01*
D47*
X-2136000Y2698000D02*
X2136000D01*
X-2136000D02*
X-2135999Y-3228000D01*
X2136000Y2698000D02*
X2136001Y-3228000D01*
D48*
X-1381000Y-4200000D02*
Y-4000000D01*
X-1200000Y-4404800D02*
X-800000D01*
X-618984Y-4199984D02*
Y-3999984D01*
X-1199984Y-3795184D02*
X-799984D01*
X-1381000Y4000000D02*
Y4200000D01*
X-1200000Y3795200D02*
X-800000D01*
X-618984Y4000016D02*
Y4200016D01*
X-1199984Y4404816D02*
X-799984D01*
%TF.MD5,18adb1e0df88b364749636e68a483bbb*%
M02*
