%TF.GenerationSoftware,Altium Limited,Altium Designer,22.5.1 (42)*%
G04 Layer_Color=16711935*
%FSLAX45Y45*%
%MOMM*%
%TF.SameCoordinates,2641221E-3FAC-4475-AA3C-923D0AF84551*%
%TF.FilePolarity,Negative*%
%TF.FileFunction,Soldermask,Bot*%
%TF.Part,Single*%
G01*
G75*
%TA.AperFunction,SMDPad,CuDef*%
%ADD33R,0.75320X0.80320*%
%ADD34R,0.40000X1.30000*%
%ADD35R,0.70000X1.20000*%
%ADD36C,1.20320*%
%ADD37R,0.80320X0.75320*%
%ADD38R,0.40320X0.54320*%
%ADD39R,0.46320X0.54320*%
%ADD40R,4.20000X2.60000*%
%ADD41R,1.30000X0.40000*%
%ADD42R,2.20000X3.10000*%
%ADD43R,0.80320X0.80320*%
%TA.AperFunction,ComponentPad*%
%ADD44C,1.90000*%
%TA.AperFunction,WasherPad*%
%ADD45C,6.60000*%
D33*
X750000Y-150000D02*
D03*
Y-50000D02*
D03*
X650000Y-150000D02*
D03*
Y-50000D02*
D03*
X550000Y-150000D02*
D03*
Y-50000D02*
D03*
X450000Y-150000D02*
D03*
Y-50000D02*
D03*
X-1250000Y-250000D02*
D03*
Y-350000D02*
D03*
X-1100000Y-250000D02*
D03*
Y-350000D02*
D03*
X900000Y-550000D02*
D03*
Y-450000D02*
D03*
X1000000Y-550000D02*
D03*
Y-450000D02*
D03*
X1100000Y-550000D02*
D03*
Y-450000D02*
D03*
X1200000Y-550000D02*
D03*
Y-450000D02*
D03*
X1250000Y400000D02*
D03*
Y500000D02*
D03*
D34*
X975000Y-859999D02*
D03*
X-1225000Y-860000D02*
D03*
X-1175000D02*
D03*
X-1125000D02*
D03*
X-1075000D02*
D03*
X-1025000D02*
D03*
X-975000D02*
D03*
X-925000D02*
D03*
X-875000D02*
D03*
X-825000D02*
D03*
X-775000D02*
D03*
X-725000D02*
D03*
X-675000D02*
D03*
X-625000D02*
D03*
X-575000D02*
D03*
X-525000D02*
D03*
X-475000D02*
D03*
X-425000D02*
D03*
X-375000D02*
D03*
X-325000D02*
D03*
X-275000D02*
D03*
X-225000D02*
D03*
X-175000D02*
D03*
X-125000D02*
D03*
X-75000D02*
D03*
X-25000D02*
D03*
X25000D02*
D03*
X75000D02*
D03*
X125001Y-860000D02*
D03*
X175000Y-860000D02*
D03*
X225001Y-859999D02*
D03*
X275000D02*
D03*
X325000Y-860000D02*
D03*
X375000Y-860000D02*
D03*
X425000Y-860000D02*
D03*
X475000Y-860000D02*
D03*
X525000D02*
D03*
X575000Y-859999D02*
D03*
X625000Y-860000D02*
D03*
X1225000Y-860000D02*
D03*
X1175001Y-860000D02*
D03*
X1124999D02*
D03*
X1074999Y-859999D02*
D03*
X1025000Y-860000D02*
D03*
X925000Y-860000D02*
D03*
X875000Y-860000D02*
D03*
X825000Y-859999D02*
D03*
X775000Y-860000D02*
D03*
X725000D02*
D03*
X674999D02*
D03*
D35*
X1095000Y130000D02*
D03*
X1000000D02*
D03*
X905000D02*
D03*
Y-130000D02*
D03*
X1000000D02*
D03*
X1095000D02*
D03*
D36*
X-1250000Y-500000D02*
D03*
X-1100000D02*
D03*
X-700000D02*
D03*
X-400000D02*
D03*
D37*
X1400000Y3000000D02*
D03*
X1300000D02*
D03*
X1050000Y500000D02*
D03*
X950000D02*
D03*
X1050000Y400000D02*
D03*
X950000D02*
D03*
X1400000Y2400000D02*
D03*
X1300000D02*
D03*
X1400000Y2300000D02*
D03*
X1300000D02*
D03*
D38*
X1281000Y43000D02*
D03*
X1319000D02*
D03*
D39*
X1300000Y-43000D02*
D03*
D40*
X817500Y2113000D02*
D03*
Y3687000D02*
D03*
D41*
X1082500Y3475000D02*
D03*
X1082500Y3425000D02*
D03*
X1082500Y3375000D02*
D03*
Y3325000D02*
D03*
Y3275000D02*
D03*
X1082500Y3225000D02*
D03*
Y3175000D02*
D03*
X1082500Y3125000D02*
D03*
Y3075000D02*
D03*
Y3025000D02*
D03*
Y2975000D02*
D03*
Y2925000D02*
D03*
Y2325000D02*
D03*
Y2375000D02*
D03*
Y2425000D02*
D03*
Y2475000D02*
D03*
Y2525000D02*
D03*
Y2575000D02*
D03*
Y2625000D02*
D03*
X1082500Y2675000D02*
D03*
X1082500Y2725000D02*
D03*
Y2775000D02*
D03*
Y2825000D02*
D03*
Y2875000D02*
D03*
D42*
X-1450000Y-1050000D02*
D03*
X1450000D02*
D03*
D43*
X1299991Y3099990D02*
D03*
Y3199997D02*
D03*
X1399991Y3099990D02*
D03*
Y3199997D02*
D03*
Y3299990D02*
D03*
Y3399997D02*
D03*
X1299991Y3299990D02*
D03*
Y3399997D02*
D03*
D44*
X-1325000Y-3875000D02*
D03*
X-675000D02*
D03*
X-1325000Y-4325000D02*
D03*
X-675000D02*
D03*
X-1325000Y4325000D02*
D03*
X-675000D02*
D03*
X-1325000Y3875000D02*
D03*
X-675000D02*
D03*
D45*
X-2200001Y4500501D02*
D03*
X2199999D02*
D03*
Y-4499499D02*
D03*
X-2200001D02*
D03*
%TF.MD5,87c8a8bd0866dc6e05ab3698ae21d919*%
M02*
