%TF.GenerationSoftware,Altium Limited,Altium Designer,22.4.2 (48)*%
G04 Layer_Color=0*
%FSLAX45Y45*%
%MOMM*%
%TF.SameCoordinates,536C032F-4EC3-470D-9469-351792C50264*%
%TF.FilePolarity,Positive*%
%TF.FileFunction,Plated,1,2,PTH,Drill*%
%TF.Part,Single*%
G01*
G75*
%TA.AperFunction,ComponentDrill*%
%ADD62O,1.50000X0.80000*%
%ADD63O,0.80000X1.50000*%
%TA.AperFunction,OtherDrill,Pad Free-0 (0mm,0mm)*%
%ADD64C,2.20000*%
%TA.AperFunction,OtherDrill,Pad Free-0 (-10mm,-30mm)*%
%ADD65C,2.20000*%
%TA.AperFunction,OtherDrill,Pad Free-0 (10mm,-30mm)*%
%ADD66C,2.20000*%
%TA.AperFunction,ViaDrill,NotFilled*%
%ADD67C,0.40000*%
D62*
X-75000Y-650000D02*
D03*
Y-1150000D02*
D03*
Y-1400000D02*
D03*
Y-400000D02*
D03*
D63*
X425000Y-900000D02*
D03*
D64*
X0Y0D02*
D03*
D65*
X-1000000Y-3000000D02*
D03*
D66*
X1000000D02*
D03*
D67*
X-117160Y-2659334D02*
D03*
X-12610Y-2835610D02*
D03*
X-449990Y-2649990D02*
D03*
X-550010Y-2650010D02*
D03*
X-630785Y-2365583D02*
D03*
X-751818D02*
D03*
X-429200Y-1564000D02*
D03*
Y-1665601D02*
D03*
X-200000Y-1600000D02*
D03*
X-899990Y-400010D02*
D03*
X-205898Y-2251806D02*
D03*
X140580Y-2455400D02*
D03*
X190600Y-2276800D02*
D03*
X370000Y-2387500D02*
D03*
X400000Y-2500000D02*
D03*
X700000D02*
D03*
X-752652Y-2581876D02*
D03*
X-834245Y-1831321D02*
D03*
X-216823Y-2095000D02*
D03*
X-331957Y-1912248D02*
D03*
X127000Y-1975000D02*
D03*
X0Y-1975000D02*
D03*
X-800000Y-800000D02*
D03*
Y-1000000D02*
D03*
X-342942Y-2293809D02*
D03*
X19821Y-2656573D02*
D03*
X-601620Y-2515580D02*
D03*
%TF.MD5,40fa722aecc012e91f8e6bbece455001*%
M02*
