%TF.GenerationSoftware,Altium Limited,Altium Designer,22.4.2 (48)*%
G04 Layer_Color=32896*
%FSLAX45Y45*%
%MOMM*%
%TF.SameCoordinates,536C032F-4EC3-470D-9469-351792C50264*%
%TF.FilePolarity,Positive*%
%TF.FileFunction,Legend,Bot*%
%TF.Part,Single*%
G01*
G75*
G36*
X-856495Y-1863746D02*
X-853474D01*
Y-1862236D01*
X-851964D01*
Y-1863746D01*
X-848942D01*
Y-1865257D01*
X-841390D01*
Y-1866767D01*
X-838368D01*
Y-1868278D01*
X-835347D01*
Y-1869788D01*
X-833837D01*
Y-1871299D01*
X-830816D01*
Y-1872810D01*
X-829305D01*
Y-1874320D01*
X-826284D01*
Y-1875831D01*
X-824773D01*
Y-1877341D01*
X-823263D01*
Y-1878852D01*
X-821752D01*
Y-1880363D01*
X-820242D01*
Y-1881873D01*
X-818731D01*
Y-1886405D01*
X-817220D01*
Y-1887915D01*
X-815710D01*
Y-1890937D01*
X-814199D01*
Y-1892447D01*
X-812689D01*
Y-1896979D01*
X-811178D01*
Y-1903021D01*
X-809668D01*
Y-1906042D01*
X-808157D01*
Y-1909063D01*
X-809668D01*
Y-1912085D01*
X-808157D01*
Y-1915106D01*
X-809668D01*
Y-1916616D01*
X-808157D01*
Y-1921148D01*
X-806646D01*
Y-2020846D01*
X-779456D01*
Y-2019335D01*
X-777946D01*
Y-1761027D01*
X-779456D01*
Y-1759517D01*
X-806646D01*
Y-1860725D01*
X-809668D01*
Y-1859214D01*
X-811178D01*
Y-1860725D01*
X-812689D01*
Y-1859214D01*
X-814199D01*
Y-1857704D01*
X-815710D01*
Y-1856193D01*
X-818731D01*
Y-1853172D01*
X-820242D01*
Y-1851662D01*
X-823263D01*
Y-1850151D01*
X-824773D01*
Y-1848640D01*
X-826284D01*
Y-1847130D01*
X-829305D01*
Y-1845619D01*
X-830816D01*
Y-1844109D01*
X-833837D01*
Y-1842598D01*
X-836858D01*
Y-1841088D01*
X-839879D01*
Y-1839577D01*
X-842900D01*
Y-1838066D01*
X-847432D01*
Y-1836556D01*
X-853474D01*
Y-1835045D01*
X-862538D01*
Y-1833535D01*
X-867069D01*
Y-1832024D01*
X-885196D01*
Y-1833535D01*
X-888217D01*
Y-1835045D01*
X-897281D01*
Y-1836556D01*
X-906344D01*
Y-1838066D01*
X-909365D01*
Y-1839577D01*
X-910876D01*
Y-1841088D01*
X-912387D01*
Y-1842598D01*
X-916918D01*
Y-1844109D01*
X-919939D01*
Y-1845619D01*
X-921450D01*
Y-1847130D01*
X-922961D01*
Y-1848640D01*
X-925982D01*
Y-1850151D01*
X-927492D01*
Y-1851662D01*
X-930514D01*
Y-1853172D01*
X-932024D01*
Y-1856193D01*
X-933535D01*
Y-1859214D01*
X-935045D01*
Y-1860725D01*
X-936556D01*
Y-1862236D01*
X-938066D01*
Y-1863746D01*
X-939577D01*
Y-1866767D01*
X-941088D01*
Y-1869788D01*
X-942598D01*
Y-1871299D01*
X-944109D01*
Y-1875831D01*
X-945619D01*
Y-1880363D01*
X-947130D01*
Y-1883384D01*
X-948640D01*
Y-1892447D01*
X-950151D01*
Y-2019335D01*
X-948640D01*
Y-2020846D01*
X-922961D01*
Y-1915106D01*
X-921450D01*
Y-1900000D01*
X-919939D01*
Y-1892447D01*
X-918429D01*
Y-1889426D01*
X-916918D01*
Y-1886405D01*
X-915408D01*
Y-1883384D01*
X-913897D01*
Y-1881873D01*
X-912387D01*
Y-1878852D01*
X-910876D01*
Y-1877341D01*
X-909365D01*
Y-1875831D01*
X-907855D01*
Y-1874320D01*
X-906344D01*
Y-1872810D01*
X-903323D01*
Y-1871299D01*
X-901813D01*
Y-1869788D01*
X-900302D01*
Y-1868278D01*
X-898791D01*
Y-1866767D01*
X-892749D01*
Y-1865257D01*
X-888217D01*
Y-1863746D01*
X-883686D01*
Y-1862236D01*
X-880664D01*
Y-1863746D01*
X-876133D01*
Y-1862236D01*
X-864048D01*
Y-1863746D01*
X-858006D01*
X-856495D01*
D02*
G37*
G36*
X-726586Y-1862236D02*
Y-1863746D01*
X-728097D01*
Y-1866767D01*
X-729607D01*
Y-1869788D01*
X-731118D01*
Y-1872810D01*
X-728097D01*
Y-1874320D01*
X-726586D01*
Y-1875831D01*
X-725076D01*
Y-1877341D01*
X-722054D01*
Y-1878852D01*
X-719033D01*
Y-1880363D01*
X-717523D01*
Y-1881873D01*
X-714501D01*
Y-1883384D01*
X-712991D01*
Y-1884894D01*
X-711480D01*
Y-1886405D01*
X-709970D01*
Y-1884894D01*
X-708459D01*
Y-1883384D01*
X-706949D01*
Y-1881873D01*
X-705438D01*
Y-1880363D01*
X-703927D01*
Y-1878852D01*
X-702417D01*
Y-1877341D01*
X-700906D01*
Y-1875831D01*
X-699396D01*
Y-1874320D01*
X-697885D01*
Y-1872810D01*
X-694864D01*
Y-1871299D01*
X-693353D01*
Y-1869788D01*
X-691843D01*
Y-1868278D01*
X-690332D01*
Y-1866767D01*
X-685801D01*
Y-1865257D01*
X-679758D01*
Y-1863746D01*
X-676737D01*
Y-1862236D01*
X-675226D01*
Y-1863746D01*
X-670695D01*
Y-1862236D01*
X-666163D01*
Y-1860725D01*
X-646526D01*
Y-1862236D01*
X-643504D01*
Y-1863746D01*
X-640483D01*
Y-1862236D01*
X-638973D01*
Y-1863746D01*
X-637462D01*
Y-1865257D01*
X-631420D01*
Y-1866767D01*
X-625377D01*
Y-1868278D01*
X-623867D01*
Y-1869788D01*
X-622356D01*
Y-1871299D01*
X-619335D01*
Y-1872810D01*
X-617825D01*
Y-1874320D01*
X-614803D01*
Y-1875831D01*
X-611782D01*
Y-1878852D01*
X-608761D01*
Y-1881873D01*
X-605740D01*
Y-1884894D01*
X-604229D01*
Y-1887915D01*
X-602719D01*
Y-1889426D01*
X-601208D01*
Y-1892447D01*
X-599698D01*
Y-1893958D01*
X-598187D01*
Y-1898489D01*
X-596677D01*
Y-1903021D01*
X-595166D01*
Y-1906042D01*
X-593655D01*
Y-1912085D01*
X-592145D01*
Y-1942296D01*
X-593655D01*
Y-1949849D01*
X-595166D01*
Y-1951360D01*
X-596677D01*
Y-1955891D01*
X-598187D01*
Y-1960423D01*
X-599698D01*
Y-1961934D01*
X-601208D01*
Y-1966465D01*
X-602719D01*
Y-1967976D01*
X-604229D01*
Y-1970997D01*
X-605740D01*
Y-1972508D01*
X-607251D01*
Y-1974018D01*
X-608761D01*
Y-1975529D01*
X-610272D01*
Y-1977039D01*
X-611782D01*
Y-1978550D01*
X-613293D01*
Y-1980061D01*
X-616314D01*
Y-1981571D01*
X-617825D01*
Y-1983082D01*
X-620846D01*
Y-1984592D01*
X-623867D01*
Y-1986103D01*
X-625377D01*
Y-1987613D01*
X-629909D01*
Y-1989124D01*
X-632930D01*
Y-1990635D01*
X-637462D01*
Y-1992145D01*
X-645015D01*
Y-1993656D01*
X-667674D01*
Y-1992145D01*
X-678248D01*
Y-1990635D01*
X-682779D01*
Y-1989124D01*
X-685801D01*
Y-1987613D01*
X-690332D01*
Y-1986103D01*
X-691843D01*
Y-1984592D01*
X-694864D01*
Y-1983082D01*
X-696375D01*
Y-1981571D01*
X-699396D01*
Y-1980061D01*
X-700906D01*
Y-1978550D01*
X-702417D01*
Y-1977039D01*
X-703927D01*
Y-1975529D01*
X-705438D01*
Y-1974018D01*
X-706949D01*
Y-1972508D01*
X-708459D01*
Y-1970997D01*
X-709970D01*
Y-1969487D01*
X-712991D01*
Y-1970997D01*
X-716012D01*
Y-1972508D01*
X-717523D01*
Y-1974018D01*
X-719033D01*
Y-1975529D01*
X-722054D01*
Y-1977039D01*
X-723565D01*
Y-1978550D01*
X-725076D01*
Y-1980061D01*
X-729607D01*
Y-1981571D01*
X-731118D01*
Y-1986103D01*
X-729607D01*
Y-1987613D01*
X-728097D01*
Y-1989124D01*
X-726586D01*
Y-1992145D01*
X-725076D01*
Y-1993656D01*
X-723565D01*
Y-1995166D01*
X-722054D01*
Y-1996677D01*
X-720544D01*
Y-1998187D01*
X-719033D01*
Y-1999698D01*
X-717523D01*
Y-2001209D01*
X-716012D01*
Y-2002719D01*
X-714501D01*
Y-2004230D01*
X-712991D01*
Y-2005740D01*
X-711480D01*
Y-2007251D01*
X-708459D01*
Y-2008761D01*
X-706949D01*
Y-2010272D01*
X-702417D01*
Y-2011783D01*
X-700906D01*
Y-2013293D01*
X-697885D01*
Y-2014804D01*
X-694864D01*
Y-2016314D01*
X-688822D01*
Y-2017825D01*
X-687311D01*
Y-2019335D01*
X-684290D01*
Y-2017825D01*
X-681269D01*
Y-2019335D01*
X-679758D01*
Y-2020846D01*
X-669184D01*
Y-2022357D01*
X-648036D01*
Y-2020846D01*
X-637462D01*
Y-2019335D01*
X-632930D01*
Y-2017825D01*
X-626888D01*
Y-2016314D01*
X-622356D01*
Y-2014804D01*
X-617825D01*
Y-2013293D01*
X-614803D01*
Y-2011783D01*
X-611782D01*
Y-2010272D01*
X-608761D01*
Y-2008761D01*
X-607251D01*
Y-2007251D01*
X-604229D01*
Y-2005740D01*
X-602719D01*
Y-2004230D01*
X-601208D01*
Y-2002719D01*
X-598187D01*
Y-2001209D01*
X-596677D01*
Y-1999698D01*
X-593655D01*
Y-1996677D01*
X-590634D01*
Y-1995166D01*
X-589124D01*
Y-1992145D01*
X-586103D01*
Y-1990635D01*
X-584592D01*
Y-1987613D01*
X-583081D01*
Y-1986103D01*
X-581571D01*
Y-1984592D01*
X-580060D01*
Y-1981571D01*
X-578550D01*
Y-1980061D01*
X-577039D01*
Y-1978550D01*
X-575529D01*
Y-1975529D01*
X-574018D01*
Y-1970997D01*
X-572507D01*
Y-1967976D01*
X-570997D01*
Y-1966465D01*
X-569486D01*
Y-1961934D01*
X-567976D01*
Y-1955891D01*
X-566465D01*
Y-1949849D01*
X-564955D01*
Y-1946828D01*
X-563444D01*
Y-1907553D01*
X-564955D01*
Y-1904532D01*
X-566465D01*
Y-1898489D01*
X-567976D01*
Y-1892447D01*
X-569486D01*
Y-1889426D01*
X-570997D01*
Y-1887915D01*
X-572507D01*
Y-1883384D01*
X-574018D01*
Y-1878852D01*
X-575529D01*
Y-1875831D01*
X-577039D01*
Y-1874320D01*
X-578550D01*
Y-1872810D01*
X-580060D01*
Y-1869788D01*
X-581571D01*
Y-1868278D01*
X-583081D01*
Y-1866767D01*
X-584592D01*
Y-1865257D01*
X-586103D01*
Y-1863746D01*
X-587613D01*
Y-1862236D01*
X-589124D01*
Y-1860725D01*
X-590634D01*
Y-1859214D01*
X-592145D01*
Y-1857704D01*
X-593655D01*
Y-1856193D01*
X-595166D01*
Y-1854683D01*
X-596677D01*
Y-1853172D01*
X-598187D01*
Y-1851662D01*
X-601208D01*
Y-1850151D01*
X-602719D01*
Y-1848640D01*
X-604229D01*
Y-1847130D01*
X-608761D01*
Y-1845619D01*
X-610272D01*
Y-1844109D01*
X-613293D01*
Y-1842598D01*
X-617825D01*
Y-1841088D01*
X-619335D01*
Y-1839577D01*
X-623867D01*
Y-1838066D01*
X-628399D01*
Y-1836556D01*
X-635951D01*
Y-1835045D01*
X-646526D01*
Y-1833535D01*
X-651057D01*
Y-1832024D01*
X-673716D01*
Y-1833535D01*
X-675226D01*
Y-1835045D01*
X-682779D01*
Y-1836556D01*
X-688822D01*
Y-1838066D01*
X-693353D01*
Y-1839577D01*
X-696375D01*
Y-1841088D01*
X-700906D01*
Y-1842598D01*
X-703927D01*
Y-1844109D01*
X-705438D01*
Y-1845619D01*
X-706949D01*
Y-1847130D01*
X-711480D01*
Y-1848640D01*
X-712991D01*
Y-1850151D01*
X-714501D01*
Y-1851662D01*
X-716012D01*
Y-1853172D01*
X-717523D01*
Y-1854683D01*
X-719033D01*
Y-1856193D01*
X-720544D01*
Y-1857704D01*
X-722054D01*
Y-1859214D01*
X-723565D01*
Y-1860725D01*
X-725076D01*
Y-1862236D01*
X-726586D01*
D02*
G37*
G36*
X-448640Y-1833535D02*
X-450151D01*
Y-1835045D01*
X-459214D01*
Y-1836556D01*
X-466767D01*
Y-1838066D01*
X-469788D01*
Y-1839577D01*
X-472810D01*
Y-1841088D01*
X-478852D01*
Y-1842598D01*
X-481873D01*
Y-1844109D01*
X-483384D01*
Y-1845619D01*
X-486405D01*
Y-1847130D01*
X-487915D01*
Y-1848640D01*
X-489426D01*
Y-1850151D01*
X-492447D01*
Y-1851662D01*
X-495468D01*
Y-1853172D01*
X-496979D01*
Y-1854683D01*
X-498489D01*
Y-1856193D01*
X-500000D01*
Y-1857704D01*
X-501511D01*
Y-1859214D01*
X-503021D01*
Y-1860725D01*
X-504532D01*
Y-1863746D01*
X-507553D01*
Y-1866767D01*
X-509063D01*
Y-1869788D01*
X-510574D01*
Y-1871299D01*
X-512085D01*
Y-1874320D01*
X-513595D01*
Y-1875831D01*
X-515106D01*
Y-1877341D01*
X-516616D01*
Y-1883384D01*
X-518127D01*
Y-1886405D01*
X-519637D01*
Y-1887915D01*
X-521148D01*
Y-1892447D01*
X-522659D01*
Y-1900000D01*
X-524169D01*
Y-1901511D01*
X-525680D01*
Y-1903021D01*
X-524169D01*
Y-1906042D01*
X-525680D01*
Y-1909063D01*
X-527190D01*
Y-1927190D01*
X-528701D01*
Y-1930212D01*
X-527190D01*
Y-1937764D01*
X-525680D01*
Y-1939275D01*
X-376133D01*
Y-1945317D01*
X-377643D01*
Y-1951360D01*
X-379154D01*
Y-1955891D01*
X-380664D01*
Y-1958913D01*
X-382175D01*
Y-1961934D01*
X-383686D01*
Y-1964955D01*
X-385196D01*
Y-1966465D01*
X-386707D01*
Y-1967976D01*
X-388217D01*
Y-1969487D01*
X-389728D01*
Y-1970997D01*
X-391238D01*
Y-1972508D01*
X-392749D01*
Y-1974018D01*
X-394260D01*
Y-1975529D01*
X-395770D01*
Y-1977039D01*
X-397281D01*
Y-1978550D01*
X-398791D01*
Y-1980061D01*
X-400302D01*
Y-1981571D01*
X-403323D01*
Y-1983082D01*
X-404834D01*
Y-1984592D01*
X-407855D01*
Y-1986103D01*
X-409365D01*
Y-1987613D01*
X-415408D01*
Y-1989124D01*
X-418429D01*
Y-1990635D01*
X-422961D01*
Y-1992145D01*
X-436556D01*
Y-1993656D01*
X-459214D01*
Y-1992145D01*
X-468278D01*
Y-1990635D01*
X-475831D01*
Y-1989124D01*
X-477341D01*
Y-1987613D01*
X-481873D01*
Y-1986103D01*
X-483384D01*
Y-1984592D01*
X-486405D01*
Y-1983082D01*
X-489426D01*
Y-1981571D01*
X-492447D01*
Y-1980061D01*
X-493958D01*
Y-1978550D01*
X-495468D01*
Y-1977039D01*
X-496979D01*
Y-1975529D01*
X-498489D01*
Y-1974018D01*
X-500000D01*
Y-1975529D01*
X-501511D01*
Y-1977039D01*
X-503021D01*
Y-1978550D01*
X-504532D01*
Y-1980061D01*
X-506042D01*
Y-1983082D01*
X-507553D01*
Y-1984592D01*
X-509063D01*
Y-1986103D01*
X-510574D01*
Y-1987613D01*
X-512085D01*
Y-1989124D01*
X-513595D01*
Y-1990635D01*
X-515106D01*
Y-1993656D01*
X-513595D01*
Y-1995166D01*
X-512085D01*
Y-1996677D01*
X-510574D01*
Y-1998187D01*
X-509063D01*
Y-1999698D01*
X-507553D01*
Y-2001209D01*
X-506042D01*
Y-2002719D01*
X-504532D01*
Y-2004230D01*
X-503021D01*
Y-2005740D01*
X-500000D01*
Y-2007251D01*
X-496979D01*
Y-2008761D01*
X-495468D01*
Y-2010272D01*
X-492447D01*
Y-2011783D01*
X-489426D01*
Y-2013293D01*
X-486405D01*
Y-2014804D01*
X-483384D01*
Y-2016314D01*
X-477341D01*
Y-2017825D01*
X-471299D01*
Y-2019335D01*
X-469788D01*
Y-2020846D01*
X-457704D01*
Y-2022357D01*
X-433535D01*
Y-2020846D01*
X-421450D01*
Y-2019335D01*
X-419939D01*
Y-2017825D01*
X-416918D01*
Y-2019335D01*
X-415408D01*
Y-2017825D01*
X-412387D01*
Y-2016314D01*
X-406344D01*
Y-2014804D01*
X-403323D01*
Y-2013293D01*
X-400302D01*
Y-2011783D01*
X-395770D01*
Y-2010272D01*
X-392749D01*
Y-2008761D01*
X-391238D01*
Y-2007251D01*
X-388217D01*
Y-2005740D01*
X-386707D01*
Y-2004230D01*
X-383686D01*
Y-2002719D01*
X-380664D01*
Y-2001209D01*
X-379154D01*
Y-1999698D01*
X-377643D01*
Y-1998187D01*
X-376133D01*
Y-1996677D01*
X-374622D01*
Y-1995166D01*
X-373112D01*
Y-1993656D01*
X-371601D01*
Y-1992145D01*
X-370090D01*
Y-1990635D01*
X-368580D01*
Y-1989124D01*
X-367069D01*
Y-1986103D01*
X-365559D01*
Y-1984592D01*
X-364048D01*
Y-1981571D01*
X-362538D01*
Y-1980061D01*
X-361027D01*
Y-1977039D01*
X-359516D01*
Y-1974018D01*
X-358006D01*
Y-1970997D01*
X-356495D01*
Y-1969487D01*
X-354985D01*
Y-1964955D01*
X-353474D01*
Y-1961934D01*
X-351964D01*
Y-1954381D01*
X-350453D01*
Y-1951360D01*
X-348942D01*
Y-1943807D01*
X-347432D01*
Y-1910574D01*
X-348942D01*
Y-1903021D01*
X-350453D01*
Y-1900000D01*
X-351964D01*
Y-1892447D01*
X-353474D01*
Y-1889426D01*
X-354985D01*
Y-1884894D01*
X-356495D01*
Y-1883384D01*
X-358006D01*
Y-1878852D01*
X-359516D01*
Y-1877341D01*
X-361027D01*
Y-1874320D01*
X-362538D01*
Y-1872810D01*
X-364048D01*
Y-1869788D01*
X-365559D01*
Y-1868278D01*
X-367069D01*
Y-1865257D01*
X-368580D01*
Y-1863746D01*
X-370090D01*
Y-1862236D01*
X-371601D01*
Y-1860725D01*
X-373112D01*
Y-1859214D01*
X-374622D01*
Y-1857704D01*
X-376133D01*
Y-1856193D01*
X-377643D01*
Y-1854683D01*
X-379154D01*
Y-1853172D01*
X-380664D01*
Y-1851662D01*
X-383686D01*
Y-1850151D01*
X-385196D01*
Y-1848640D01*
X-388217D01*
Y-1847130D01*
X-389728D01*
Y-1845619D01*
X-392749D01*
Y-1844109D01*
X-394260D01*
Y-1842598D01*
X-398791D01*
Y-1841088D01*
X-401813D01*
Y-1839577D01*
X-406344D01*
Y-1838066D01*
X-409365D01*
Y-1836556D01*
X-416918D01*
Y-1835045D01*
X-427492D01*
Y-1833535D01*
X-430513D01*
Y-1832024D01*
X-448640D01*
Y-1833535D01*
D02*
G37*
G36*
X-170695Y-1774622D02*
X-344411D01*
Y-1803323D01*
X-261329D01*
Y-2019335D01*
X-259819D01*
Y-2020846D01*
X-231118D01*
Y-1804834D01*
X-229607D01*
Y-1803323D01*
X-146525D01*
Y-1774622D01*
X-169184D01*
X-170695D01*
D02*
G37*
G36*
X-111782Y-1782175D02*
X-113293D01*
Y-1783686D01*
X-117825D01*
Y-1785196D01*
X-122356D01*
Y-1786707D01*
X-123867D01*
Y-1788218D01*
X-126888D01*
Y-1789728D01*
X-129909D01*
Y-1794260D01*
X-128399D01*
Y-1798792D01*
X-126888D01*
Y-1801813D01*
X-125377D01*
Y-1804834D01*
X-123867D01*
Y-1810876D01*
X-122356D01*
Y-1813897D01*
X-120846D01*
Y-1816918D01*
X-119335D01*
Y-1819940D01*
X-117825D01*
Y-1824471D01*
X-116314D01*
Y-1827492D01*
X-110272D01*
Y-1825982D01*
X-105740D01*
Y-1824471D01*
X-104229D01*
Y-1822961D01*
X-99698D01*
Y-1821450D01*
X-95166D01*
Y-1819940D01*
X-90634D01*
Y-1818429D01*
X-84592D01*
Y-1816918D01*
X-83081D01*
Y-1815408D01*
X-74018D01*
Y-1813897D01*
X-30211D01*
Y-1815408D01*
X-22659D01*
Y-1816918D01*
X-21148D01*
Y-1818429D01*
X-19637D01*
Y-1819940D01*
X-16616D01*
Y-1821450D01*
X-15106D01*
Y-1822961D01*
X-13595D01*
Y-1824471D01*
X-12085D01*
Y-1825982D01*
X-10574D01*
Y-1827492D01*
X-9063D01*
Y-1829003D01*
X-7553D01*
Y-1832024D01*
X-6042D01*
Y-1848640D01*
X-7553D01*
Y-1850151D01*
X-9063D01*
Y-1851662D01*
X-10574D01*
Y-1853172D01*
X-12085D01*
Y-1854683D01*
X-13595D01*
Y-1856193D01*
X-15106D01*
Y-1857704D01*
X-18127D01*
Y-1859214D01*
X-22659D01*
Y-1860725D01*
X-25680D01*
Y-1862236D01*
X-28701D01*
Y-1863746D01*
X-34743D01*
Y-1865257D01*
X-40785D01*
Y-1866767D01*
X-48338D01*
Y-1868278D01*
X-49849D01*
Y-1869788D01*
X-57402D01*
Y-1871299D01*
X-64955D01*
Y-1872810D01*
X-66465D01*
Y-1874320D01*
X-67976D01*
Y-1872810D01*
X-70997D01*
Y-1874320D01*
X-74018D01*
Y-1875831D01*
X-81571D01*
Y-1877341D01*
X-86103D01*
Y-1878852D01*
X-90634D01*
Y-1880363D01*
X-92145D01*
Y-1881873D01*
X-98187D01*
Y-1883384D01*
X-102719D01*
Y-1884894D01*
X-105740D01*
Y-1886405D01*
X-108761D01*
Y-1887915D01*
X-111782D01*
Y-1889426D01*
X-113293D01*
Y-1890937D01*
X-116314D01*
Y-1892447D01*
X-117825D01*
Y-1893958D01*
X-120846D01*
Y-1895468D01*
X-122356D01*
Y-1896979D01*
X-123867D01*
Y-1898489D01*
X-125377D01*
Y-1901511D01*
X-128399D01*
Y-1903021D01*
X-129909D01*
Y-1906042D01*
X-131420D01*
Y-1907553D01*
X-132930D01*
Y-1910574D01*
X-134441D01*
Y-1913595D01*
X-135951D01*
Y-1916616D01*
X-137462D01*
Y-1919638D01*
X-138973D01*
Y-1927190D01*
X-140483D01*
Y-1951360D01*
X-138973D01*
Y-1958913D01*
X-137462D01*
Y-1961934D01*
X-135951D01*
Y-1964955D01*
X-134441D01*
Y-1969487D01*
X-132930D01*
Y-1970997D01*
X-131420D01*
Y-1972508D01*
X-129909D01*
Y-1975529D01*
X-128399D01*
Y-1977039D01*
X-126888D01*
Y-1980061D01*
X-125377D01*
Y-1983082D01*
X-123867D01*
Y-1984592D01*
X-122356D01*
Y-1986103D01*
X-120846D01*
Y-1987613D01*
X-117825D01*
Y-1989124D01*
X-116314D01*
Y-1990635D01*
X-113293D01*
Y-1992145D01*
X-111782D01*
Y-1993656D01*
X-108761D01*
Y-1995166D01*
X-107251D01*
Y-1996677D01*
X-105740D01*
Y-1998187D01*
X-101208D01*
Y-1999698D01*
X-99698D01*
Y-2001209D01*
X-96677D01*
Y-2002719D01*
X-90634D01*
Y-2004230D01*
X-87613D01*
Y-2005740D01*
X-80060D01*
Y-2007251D01*
X-78550D01*
Y-2008761D01*
X-69486D01*
Y-2010272D01*
X-19637D01*
Y-2008761D01*
X-9063D01*
Y-2007251D01*
X-7553D01*
Y-2005740D01*
X1511D01*
Y-2004230D01*
X7553D01*
Y-2002719D01*
X13595D01*
Y-2001209D01*
X16616D01*
Y-1999698D01*
X21148D01*
Y-1998187D01*
X25680D01*
Y-1996677D01*
X28701D01*
Y-1995166D01*
X31722D01*
Y-1993656D01*
X34743D01*
Y-1992145D01*
X37764D01*
Y-1990635D01*
X39275D01*
Y-1989124D01*
X42296D01*
Y-1987613D01*
X45317D01*
Y-1986103D01*
X46828D01*
Y-1980061D01*
X45317D01*
Y-1977039D01*
X43807D01*
Y-1974018D01*
X42296D01*
Y-1970997D01*
X40786D01*
Y-1967976D01*
X39275D01*
Y-1963444D01*
X37764D01*
Y-1960423D01*
X36254D01*
Y-1957402D01*
X34743D01*
Y-1952870D01*
X33233D01*
Y-1949849D01*
X31722D01*
Y-1948338D01*
X25680D01*
Y-1949849D01*
X24169D01*
Y-1951360D01*
X22659D01*
Y-1952870D01*
X19638D01*
Y-1954381D01*
X18127D01*
Y-1955891D01*
X12085D01*
Y-1957402D01*
X9063D01*
Y-1958913D01*
X6042D01*
Y-1960423D01*
X3021D01*
Y-1961934D01*
X-1511D01*
Y-1963444D01*
X-9063D01*
Y-1964955D01*
X-16616D01*
Y-1966465D01*
X-19637D01*
Y-1967976D01*
X-36254D01*
Y-1969487D01*
X-55891D01*
Y-1967976D01*
X-67976D01*
Y-1966465D01*
X-69486D01*
Y-1964955D01*
X-75529D01*
Y-1963444D01*
X-80060D01*
Y-1961934D01*
X-81571D01*
Y-1960423D01*
X-83081D01*
Y-1958913D01*
X-86103D01*
Y-1957402D01*
X-87613D01*
Y-1954381D01*
X-89124D01*
Y-1951360D01*
X-90634D01*
Y-1949849D01*
X-92145D01*
Y-1937764D01*
X-90634D01*
Y-1934743D01*
X-89124D01*
Y-1931722D01*
X-87613D01*
Y-1930212D01*
X-86103D01*
Y-1928701D01*
X-83081D01*
Y-1927190D01*
X-80060D01*
Y-1925680D01*
X-78550D01*
Y-1924169D01*
X-75529D01*
Y-1922659D01*
X-72507D01*
Y-1921148D01*
X-69486D01*
Y-1919638D01*
X-64955D01*
Y-1918127D01*
X-58912D01*
Y-1916616D01*
X-52870D01*
Y-1915106D01*
X-49849D01*
Y-1913595D01*
X-42296D01*
Y-1912085D01*
X-34743D01*
Y-1910574D01*
X-27190D01*
Y-1909063D01*
X-25680D01*
Y-1907553D01*
X-19637D01*
Y-1906042D01*
X-13595D01*
Y-1904532D01*
X-7553D01*
Y-1903021D01*
X-4532D01*
Y-1901511D01*
X0D01*
Y-1900000D01*
X4532D01*
Y-1898489D01*
X9063D01*
Y-1896979D01*
X10574D01*
Y-1895468D01*
X13595D01*
Y-1893958D01*
X16616D01*
Y-1892447D01*
X18127D01*
Y-1890937D01*
X21148D01*
Y-1889426D01*
X22659D01*
Y-1887915D01*
X24169D01*
Y-1886405D01*
X25680D01*
Y-1884894D01*
X27190D01*
Y-1883384D01*
X28701D01*
Y-1881873D01*
X30212D01*
Y-1880363D01*
X31722D01*
Y-1878852D01*
X33233D01*
Y-1877341D01*
X34743D01*
Y-1874320D01*
X36254D01*
Y-1869788D01*
X37764D01*
Y-1868278D01*
X39275D01*
Y-1865257D01*
X40786D01*
Y-1857704D01*
X42296D01*
Y-1856193D01*
X43807D01*
Y-1832024D01*
X42296D01*
Y-1829003D01*
X40786D01*
Y-1822961D01*
X39275D01*
Y-1818429D01*
X37764D01*
Y-1815408D01*
X36254D01*
Y-1810876D01*
X34743D01*
Y-1809366D01*
X33233D01*
Y-1806344D01*
X31722D01*
Y-1804834D01*
X30212D01*
Y-1803323D01*
X28701D01*
Y-1800302D01*
X27190D01*
Y-1798792D01*
X25680D01*
Y-1797281D01*
X24169D01*
Y-1795770D01*
X22659D01*
Y-1794260D01*
X21148D01*
Y-1792749D01*
X18127D01*
Y-1791239D01*
X16616D01*
Y-1789728D01*
X15106D01*
Y-1788218D01*
X12085D01*
Y-1786707D01*
X9063D01*
Y-1785196D01*
X6042D01*
Y-1783686D01*
X3021D01*
Y-1782175D01*
X0D01*
Y-1780665D01*
X-3021D01*
Y-1779154D01*
X-7553D01*
Y-1777644D01*
X-12085D01*
Y-1776133D01*
X-15106D01*
Y-1774622D01*
X-22659D01*
Y-1773112D01*
X-34743D01*
Y-1771601D01*
X-67976D01*
Y-1773112D01*
X-81571D01*
Y-1774622D01*
X-93655D01*
Y-1776133D01*
X-95166D01*
Y-1777644D01*
X-101208D01*
Y-1779154D01*
X-107251D01*
Y-1780665D01*
X-110272D01*
Y-1782175D01*
X-111782D01*
D02*
G37*
G36*
X163142Y-1776133D02*
X161632D01*
Y-1779154D01*
X160121D01*
Y-1785196D01*
X158610D01*
Y-1786707D01*
X157100D01*
Y-1789728D01*
X155589D01*
Y-1792749D01*
X154079D01*
Y-1795770D01*
X152568D01*
Y-1798792D01*
X151058D01*
Y-1803323D01*
X149547D01*
Y-1807855D01*
X148036D01*
Y-1810876D01*
X146526D01*
Y-1812387D01*
X145015D01*
Y-1816918D01*
X143505D01*
Y-1821450D01*
X141994D01*
Y-1824471D01*
X140484D01*
Y-1827492D01*
X138973D01*
Y-1830514D01*
X137462D01*
Y-1833535D01*
X135952D01*
Y-1838066D01*
X134441D01*
Y-1841088D01*
X132931D01*
Y-1844109D01*
X131420D01*
Y-1848640D01*
X129910D01*
Y-1850151D01*
X128399D01*
Y-1853172D01*
X126888D01*
Y-1856193D01*
X125378D01*
Y-1862236D01*
X123867D01*
Y-1865257D01*
X122357D01*
Y-1866767D01*
X120846D01*
Y-1871299D01*
X119336D01*
Y-1874320D01*
X117825D01*
Y-1875831D01*
X116314D01*
Y-1881873D01*
X114804D01*
Y-1884894D01*
X113293D01*
Y-1887915D01*
X111783D01*
Y-1890937D01*
X110272D01*
Y-1893958D01*
X108762D01*
Y-1900000D01*
X107251D01*
Y-1903021D01*
X105740D01*
Y-1904532D01*
X104230D01*
Y-1907553D01*
X102719D01*
Y-1912085D01*
X101209D01*
Y-1913595D01*
X99698D01*
Y-1915106D01*
X101209D01*
Y-1916616D01*
X99698D01*
Y-1919638D01*
X98188D01*
Y-1922659D01*
X96677D01*
Y-1925680D01*
X95166D01*
Y-1928701D01*
X93656D01*
Y-1931722D01*
X92145D01*
Y-1936254D01*
X90635D01*
Y-1939275D01*
X89124D01*
Y-1942296D01*
X87613D01*
Y-1945317D01*
X86103D01*
Y-1948338D01*
X84592D01*
Y-1952870D01*
X83082D01*
Y-1955891D01*
X81571D01*
Y-1958913D01*
X80061D01*
Y-1963444D01*
X78550D01*
Y-1966465D01*
X77039D01*
Y-1967976D01*
X75529D01*
Y-1972508D01*
X74018D01*
Y-1977039D01*
X72508D01*
Y-1980061D01*
X70997D01*
Y-1983082D01*
X69487D01*
Y-1986103D01*
X67976D01*
Y-1989124D01*
X66465D01*
Y-1992145D01*
X64955D01*
Y-1996677D01*
X63444D01*
Y-1999698D01*
X61934D01*
Y-2002719D01*
X60423D01*
Y-2007251D01*
X110272D01*
Y-2005740D01*
X111783D01*
Y-2002719D01*
X113293D01*
Y-1999698D01*
X114804D01*
Y-1996677D01*
X116314D01*
Y-1992145D01*
X117825D01*
Y-1987613D01*
X119336D01*
Y-1984592D01*
X120846D01*
Y-1981571D01*
X122357D01*
Y-1977039D01*
X123867D01*
Y-1974018D01*
X125378D01*
Y-1970997D01*
X126888D01*
Y-1966465D01*
X128399D01*
Y-1961934D01*
X129910D01*
Y-1960423D01*
X131420D01*
Y-1957402D01*
X244713D01*
Y-1958913D01*
X246224D01*
Y-1963444D01*
X247734D01*
Y-1966465D01*
X249245D01*
Y-1970997D01*
X250755D01*
Y-1972508D01*
X252266D01*
Y-1978550D01*
X253776D01*
Y-1981571D01*
X255287D01*
Y-1986103D01*
X256798D01*
Y-1989124D01*
X258308D01*
Y-1992145D01*
X259819D01*
Y-1998187D01*
X261329D01*
Y-2001209D01*
X262840D01*
Y-2002719D01*
X264350D01*
Y-2005740D01*
X265861D01*
Y-2007251D01*
X314200D01*
Y-2004230D01*
X312689D01*
Y-1999698D01*
X311178D01*
Y-1996677D01*
X309668D01*
Y-1993656D01*
X308157D01*
Y-1989124D01*
X306647D01*
Y-1986103D01*
X305136D01*
Y-1983082D01*
X303626D01*
Y-1981571D01*
X302115D01*
Y-1977039D01*
X300604D01*
Y-1972508D01*
X299094D01*
Y-1969487D01*
X297583D01*
Y-1966465D01*
X296073D01*
Y-1963444D01*
X294562D01*
Y-1958913D01*
X293051D01*
Y-1954381D01*
X291541D01*
Y-1952870D01*
X290030D01*
Y-1948338D01*
X288520D01*
Y-1946828D01*
X287009D01*
Y-1943807D01*
X285499D01*
Y-1939275D01*
X283988D01*
Y-1934743D01*
X282477D01*
Y-1933233D01*
Y-1931722D01*
X280967D01*
Y-1928701D01*
X279456D01*
Y-1925680D01*
X277946D01*
Y-1921148D01*
X276435D01*
Y-1918127D01*
X274925D01*
Y-1915106D01*
X273414D01*
Y-1912085D01*
X271903D01*
Y-1909063D01*
X270393D01*
Y-1904532D01*
X268882D01*
Y-1901511D01*
X267372D01*
Y-1898489D01*
X265861D01*
Y-1893958D01*
X264350D01*
Y-1890937D01*
X262840D01*
Y-1889426D01*
X261329D01*
Y-1884894D01*
X259819D01*
Y-1880363D01*
X258308D01*
Y-1877341D01*
X256798D01*
Y-1874320D01*
X255287D01*
Y-1871299D01*
X253776D01*
Y-1866767D01*
X252266D01*
Y-1863746D01*
X250755D01*
Y-1860725D01*
X249245D01*
Y-1857704D01*
X247734D01*
Y-1854683D01*
X246224D01*
Y-1850151D01*
X244713D01*
Y-1847130D01*
X243202D01*
Y-1842598D01*
X241692D01*
Y-1839577D01*
X240181D01*
Y-1836556D01*
X238671D01*
Y-1835045D01*
X237160D01*
Y-1830514D01*
X235650D01*
Y-1825982D01*
X234139D01*
Y-1822961D01*
X232628D01*
Y-1819940D01*
X231118D01*
Y-1816918D01*
X229607D01*
Y-1812387D01*
X228097D01*
Y-1810876D01*
X226586D01*
Y-1806344D01*
X225076D01*
Y-1801813D01*
X223565D01*
Y-1800302D01*
X222054D01*
Y-1797281D01*
X220544D01*
Y-1792749D01*
X219033D01*
Y-1789728D01*
X217523D01*
Y-1785196D01*
X216012D01*
Y-1782175D01*
X214502D01*
Y-1779154D01*
X212991D01*
Y-1776133D01*
X211480D01*
Y-1774622D01*
X163142D01*
Y-1776133D01*
D02*
G37*
G36*
X412387D02*
X410876D01*
Y-1777644D01*
X398792D01*
Y-1779154D01*
X391239D01*
Y-1780665D01*
X388218D01*
Y-1782175D01*
X385197D01*
Y-1783686D01*
X382175D01*
Y-1785196D01*
X377644D01*
Y-1786707D01*
X376133D01*
Y-1788218D01*
X373112D01*
Y-1789728D01*
X370091D01*
Y-1791239D01*
X367070D01*
Y-1792749D01*
X365559D01*
Y-1794260D01*
X364049D01*
Y-1795770D01*
X361027D01*
Y-1797281D01*
X358006D01*
Y-1798792D01*
X356496D01*
Y-1800302D01*
X354985D01*
Y-1801813D01*
X353475D01*
Y-1803323D01*
X351964D01*
Y-1804834D01*
X350453D01*
Y-1806344D01*
X348943D01*
Y-1809366D01*
X347432D01*
Y-1812387D01*
X345922D01*
Y-1813897D01*
X344411D01*
Y-1816918D01*
X342901D01*
Y-1818429D01*
X341390D01*
Y-1822961D01*
X339879D01*
Y-1824471D01*
X338369D01*
Y-1830514D01*
X336858D01*
Y-1833535D01*
X335348D01*
Y-1841088D01*
X333837D01*
Y-1877341D01*
X335348D01*
Y-1884894D01*
X336858D01*
Y-1886405D01*
X338369D01*
Y-1887915D01*
X336858D01*
Y-1889426D01*
X338369D01*
Y-1892447D01*
X339879D01*
Y-1895468D01*
X341390D01*
Y-1900000D01*
X342901D01*
Y-1901511D01*
X344411D01*
Y-1904532D01*
X345922D01*
Y-1906042D01*
X347432D01*
Y-1907553D01*
X348943D01*
Y-1909063D01*
X350453D01*
Y-1912085D01*
X351964D01*
Y-1913595D01*
X353475D01*
Y-1915106D01*
X354985D01*
Y-1916616D01*
X356496D01*
Y-1918127D01*
X358006D01*
Y-1919638D01*
X361027D01*
Y-1921148D01*
X362538D01*
Y-1922659D01*
X364049D01*
Y-1924169D01*
X367070D01*
Y-1925680D01*
X368580D01*
Y-1927190D01*
X370091D01*
Y-1928701D01*
X374623D01*
Y-1930212D01*
X377644D01*
Y-1931722D01*
X379154D01*
Y-1936254D01*
X377644D01*
Y-1937764D01*
X376133D01*
Y-1940786D01*
X374623D01*
Y-1942296D01*
X373112D01*
Y-1943807D01*
X371601D01*
Y-1945317D01*
X370091D01*
Y-1948338D01*
X368580D01*
Y-1949849D01*
X367070D01*
Y-1952870D01*
X365559D01*
Y-1955891D01*
X364049D01*
Y-1957402D01*
X362538D01*
Y-1960423D01*
X361027D01*
Y-1961934D01*
X359517D01*
Y-1963444D01*
X358006D01*
Y-1967976D01*
X354985D01*
Y-1970997D01*
X353475D01*
Y-1972508D01*
X351964D01*
Y-1975529D01*
X350453D01*
Y-1977039D01*
X348943D01*
Y-1978550D01*
X347432D01*
Y-1981571D01*
X345922D01*
Y-1983082D01*
X344411D01*
Y-1986103D01*
X342901D01*
Y-1989124D01*
X341390D01*
Y-1990635D01*
X339879D01*
Y-1992145D01*
X338369D01*
Y-1993656D01*
X336858D01*
Y-1996677D01*
X335348D01*
Y-1998187D01*
X333837D01*
Y-2001209D01*
X332326D01*
Y-2002719D01*
X330816D01*
Y-2004230D01*
X329305D01*
Y-2007251D01*
X380665D01*
Y-2005740D01*
X382175D01*
Y-2004230D01*
X383686D01*
Y-2002719D01*
X385197D01*
Y-2001209D01*
X386707D01*
Y-1998187D01*
X388218D01*
Y-1996677D01*
X389728D01*
Y-1993656D01*
X391239D01*
Y-1992145D01*
X392749D01*
Y-1990635D01*
X394260D01*
Y-1987613D01*
X395771D01*
Y-1986103D01*
Y-1984592D01*
X397281D01*
Y-1983082D01*
X398792D01*
Y-1981571D01*
X400302D01*
Y-1978550D01*
X401813D01*
Y-1977039D01*
X403323D01*
Y-1974018D01*
X404834D01*
Y-1972508D01*
X406345D01*
Y-1969487D01*
X407855D01*
Y-1967976D01*
X409366D01*
Y-1964955D01*
X410876D01*
Y-1963444D01*
X412387D01*
Y-1961934D01*
X413897D01*
Y-1958913D01*
X415408D01*
Y-1957402D01*
X416919D01*
Y-1955891D01*
X418429D01*
Y-1952870D01*
X419940D01*
Y-1949849D01*
X421450D01*
Y-1948338D01*
X422961D01*
Y-1945317D01*
X424471D01*
Y-1943807D01*
X425982D01*
Y-1942296D01*
X478852D01*
Y-1943807D01*
X480363D01*
Y-2005740D01*
X481873D01*
Y-2007251D01*
X528701D01*
Y-1774622D01*
X412387D01*
Y-1776133D01*
D02*
G37*
G36*
X564955Y-1812387D02*
Y-1818429D01*
X637462D01*
Y-2005740D01*
X638973D01*
Y-2007251D01*
X685801D01*
Y-2005740D01*
X687311D01*
Y-1818429D01*
X761329D01*
Y-1816918D01*
X762840D01*
Y-1812387D01*
X761329D01*
Y-1810876D01*
X762840D01*
Y-1777644D01*
X761329D01*
Y-1774622D01*
X564955D01*
Y-1810876D01*
Y-1812387D01*
D02*
G37*
G36*
X885197Y-1815408D02*
X891239D01*
Y-1816918D01*
X892749D01*
Y-1818429D01*
X895771D01*
Y-1819940D01*
X898792D01*
Y-1821450D01*
X900302D01*
Y-1822961D01*
X901813D01*
Y-1824471D01*
X903323D01*
Y-1825982D01*
X904834D01*
Y-1827492D01*
X906345D01*
Y-1829003D01*
X907855D01*
Y-1835045D01*
X909366D01*
Y-1847130D01*
X907855D01*
Y-1850151D01*
X906345D01*
Y-1851662D01*
X904834D01*
Y-1853172D01*
X903323D01*
Y-1854683D01*
X900302D01*
Y-1856193D01*
X898792D01*
Y-1857704D01*
X897281D01*
Y-1859214D01*
X894260D01*
Y-1860725D01*
X888218D01*
Y-1862236D01*
X886707D01*
Y-1863746D01*
X880665D01*
Y-1865257D01*
X873112D01*
Y-1866767D01*
X867070D01*
Y-1868278D01*
X865559D01*
Y-1869788D01*
X858006D01*
Y-1871299D01*
X850453D01*
Y-1872810D01*
X847432D01*
Y-1874320D01*
X845922D01*
Y-1872810D01*
X844411D01*
Y-1874320D01*
X841390D01*
Y-1875831D01*
X833837D01*
Y-1877341D01*
X829305D01*
Y-1878852D01*
X823263D01*
Y-1880363D01*
X821752D01*
Y-1881873D01*
X815710D01*
Y-1883384D01*
X812689D01*
Y-1884894D01*
X809668D01*
Y-1886405D01*
X806647D01*
Y-1887915D01*
X803626D01*
Y-1889426D01*
X800604D01*
Y-1890937D01*
X799094D01*
Y-1892447D01*
X797583D01*
Y-1893958D01*
X796073D01*
Y-1895468D01*
X793051D01*
Y-1896979D01*
X790030D01*
Y-1898489D01*
X788520D01*
Y-1900000D01*
X787009D01*
Y-1901511D01*
X785499D01*
Y-1904532D01*
X783988D01*
Y-1907553D01*
X782477D01*
Y-1909063D01*
X780967D01*
Y-1912085D01*
X779456D01*
Y-1915106D01*
X777946D01*
Y-1918127D01*
X776435D01*
Y-1924169D01*
X774925D01*
Y-1952870D01*
X776435D01*
Y-1960423D01*
X777946D01*
Y-1963444D01*
X779456D01*
Y-1966465D01*
X780967D01*
Y-1969487D01*
X782477D01*
Y-1972508D01*
X783988D01*
Y-1974018D01*
X785499D01*
Y-1977039D01*
X787009D01*
Y-1980061D01*
X790030D01*
Y-1983082D01*
X793051D01*
Y-1984592D01*
X794562D01*
Y-1987613D01*
X797583D01*
Y-1990635D01*
X800604D01*
Y-1992145D01*
X803626D01*
Y-1993656D01*
X805136D01*
Y-1995166D01*
X808157D01*
Y-1996677D01*
X809668D01*
Y-1998187D01*
X814200D01*
Y-1999698D01*
X817221D01*
Y-2001209D01*
X820242D01*
Y-2002719D01*
X821752D01*
Y-2004230D01*
X827795D01*
Y-2005740D01*
X835348D01*
Y-2007251D01*
X836858D01*
Y-2008761D01*
X845922D01*
Y-2010272D01*
X895771D01*
Y-2008761D01*
X904834D01*
Y-2007251D01*
X907855D01*
Y-2005740D01*
X915408D01*
Y-2004230D01*
X922961D01*
Y-2002719D01*
X927493D01*
Y-2001209D01*
X930514D01*
Y-1999698D01*
X936556D01*
Y-1998187D01*
X939577D01*
Y-1996677D01*
X944109D01*
Y-1995166D01*
X947130D01*
Y-1993656D01*
X948641D01*
Y-1992145D01*
X951662D01*
Y-1990635D01*
X954683D01*
Y-1989124D01*
X957704D01*
Y-1987613D01*
X959215D01*
Y-1986103D01*
X962236D01*
Y-1981571D01*
X960725D01*
Y-1978550D01*
X959215D01*
Y-1975529D01*
X957704D01*
Y-1972508D01*
X956193D01*
Y-1967976D01*
X954683D01*
Y-1964955D01*
X953172D01*
Y-1961934D01*
X951662D01*
Y-1957402D01*
X950151D01*
Y-1955891D01*
X948641D01*
Y-1951360D01*
X947130D01*
Y-1948338D01*
X941088D01*
Y-1949849D01*
X939577D01*
Y-1951360D01*
X936556D01*
Y-1952870D01*
X933535D01*
Y-1954381D01*
X930514D01*
Y-1955891D01*
X927493D01*
Y-1957402D01*
X924471D01*
Y-1958913D01*
X918429D01*
Y-1960423D01*
X916919D01*
Y-1961934D01*
X912387D01*
Y-1963444D01*
X903323D01*
Y-1964955D01*
X897281D01*
Y-1966465D01*
X894260D01*
Y-1967976D01*
X879154D01*
Y-1969487D01*
X859517D01*
Y-1967976D01*
X847432D01*
Y-1966465D01*
X844411D01*
Y-1964955D01*
X839879D01*
Y-1963444D01*
X835348D01*
Y-1961934D01*
X833837D01*
Y-1960423D01*
X830816D01*
Y-1958913D01*
X829305D01*
Y-1957402D01*
X827795D01*
Y-1955891D01*
X826284D01*
Y-1952870D01*
X824774D01*
Y-1951360D01*
X823263D01*
Y-1943807D01*
X821752D01*
Y-1942296D01*
X823263D01*
Y-1936254D01*
X824774D01*
Y-1933233D01*
X826284D01*
Y-1931722D01*
X827795D01*
Y-1930212D01*
X829305D01*
Y-1928701D01*
X830816D01*
Y-1927190D01*
X833837D01*
Y-1925680D01*
X836858D01*
Y-1924169D01*
X839879D01*
Y-1922659D01*
X842901D01*
Y-1921148D01*
X845922D01*
Y-1919638D01*
X850453D01*
Y-1918127D01*
X856496D01*
Y-1916616D01*
X862538D01*
Y-1915106D01*
X865559D01*
Y-1913595D01*
X871601D01*
Y-1912085D01*
X879154D01*
Y-1910574D01*
X886707D01*
Y-1909063D01*
X889728D01*
Y-1907553D01*
X895771D01*
Y-1906042D01*
X900302D01*
Y-1904532D01*
X906345D01*
Y-1903021D01*
X909366D01*
Y-1901511D01*
X913897D01*
Y-1900000D01*
X919940D01*
Y-1898489D01*
X924471D01*
Y-1896979D01*
X925982D01*
Y-1895468D01*
X927493D01*
Y-1893958D01*
X930514D01*
Y-1892447D01*
X933535D01*
Y-1890937D01*
X935045D01*
Y-1889426D01*
X938067D01*
Y-1887915D01*
X939577D01*
Y-1886405D01*
X941088D01*
Y-1884894D01*
X942598D01*
Y-1883384D01*
X944109D01*
Y-1881873D01*
X945619D01*
Y-1880363D01*
X947130D01*
Y-1877341D01*
X948641D01*
Y-1875831D01*
X950151D01*
Y-1872810D01*
X951662D01*
Y-1869788D01*
X953172D01*
Y-1866767D01*
X954683D01*
Y-1862236D01*
X956193D01*
Y-1853172D01*
X957704D01*
Y-1848640D01*
X959215D01*
Y-1839577D01*
X957704D01*
Y-1835045D01*
X956193D01*
Y-1824471D01*
X954683D01*
Y-1819940D01*
X953172D01*
Y-1816918D01*
X951662D01*
Y-1812387D01*
X950151D01*
Y-1809366D01*
X948641D01*
Y-1807855D01*
X947130D01*
Y-1804834D01*
X945619D01*
Y-1803323D01*
X944109D01*
Y-1801813D01*
X942598D01*
Y-1800302D01*
X941088D01*
Y-1798792D01*
X939577D01*
Y-1797281D01*
X938067D01*
Y-1795770D01*
X936556D01*
Y-1794260D01*
X935045D01*
Y-1792749D01*
X933535D01*
Y-1791239D01*
X932024D01*
Y-1789728D01*
X929003D01*
Y-1788218D01*
X927493D01*
Y-1786707D01*
X924471D01*
Y-1785196D01*
X921450D01*
Y-1783686D01*
X918429D01*
Y-1782175D01*
X915408D01*
Y-1780665D01*
X912387D01*
Y-1779154D01*
X907855D01*
Y-1777644D01*
X901813D01*
Y-1776133D01*
X900302D01*
Y-1774622D01*
X891239D01*
Y-1773112D01*
X879154D01*
Y-1771601D01*
X847432D01*
Y-1773112D01*
X832327D01*
Y-1774622D01*
X820242D01*
Y-1776133D01*
X818731D01*
Y-1777644D01*
X814200D01*
Y-1779154D01*
X808157D01*
Y-1780665D01*
X806647D01*
Y-1782175D01*
X800604D01*
Y-1783686D01*
X797583D01*
Y-1785196D01*
X794562D01*
Y-1786707D01*
X791541D01*
Y-1788218D01*
X788520D01*
Y-1789728D01*
X785499D01*
Y-1795770D01*
X787009D01*
Y-1801813D01*
X788520D01*
Y-1803323D01*
X790030D01*
Y-1806344D01*
X791541D01*
Y-1812387D01*
X793051D01*
Y-1815408D01*
X794562D01*
Y-1818429D01*
X796073D01*
Y-1819940D01*
X797583D01*
Y-1825982D01*
X799094D01*
Y-1827492D01*
X800604D01*
Y-1829003D01*
X802115D01*
Y-1827492D01*
X805136D01*
Y-1825982D01*
X808157D01*
Y-1824471D01*
X811178D01*
Y-1822961D01*
X815710D01*
Y-1821450D01*
X818731D01*
Y-1819940D01*
X823263D01*
Y-1818429D01*
X829305D01*
Y-1816918D01*
X832327D01*
Y-1815408D01*
X839879D01*
Y-1813897D01*
X883686D01*
Y-1815408D01*
X885197D01*
D02*
G37*
G36*
X745277Y-2156053D02*
X747037Y-2156170D01*
X750440Y-2156875D01*
X753492Y-2157813D01*
X754782Y-2158400D01*
X755956Y-2158987D01*
X757012Y-2159574D01*
X757951Y-2160160D01*
X758772Y-2160630D01*
X759476Y-2161099D01*
X759946Y-2161451D01*
X760298Y-2161803D01*
X760532Y-2161920D01*
X760650Y-2162038D01*
X761823Y-2163211D01*
X762879Y-2164385D01*
X763701Y-2165558D01*
X764522Y-2166732D01*
X765109Y-2167905D01*
X765696Y-2169079D01*
X766517Y-2171308D01*
X766987Y-2173186D01*
X767104Y-2174007D01*
X767221Y-2174711D01*
X767339Y-2175298D01*
Y-2175768D01*
Y-2176002D01*
Y-2176120D01*
X767221Y-2177997D01*
X766869Y-2179757D01*
X766517Y-2181283D01*
X765930Y-2182808D01*
X765461Y-2183982D01*
X765109Y-2184803D01*
X764757Y-2185390D01*
X764640Y-2185625D01*
X763583Y-2187150D01*
X762293Y-2188558D01*
X761119Y-2189732D01*
X759946Y-2190671D01*
X758890Y-2191375D01*
X758068Y-2191962D01*
X757481Y-2192314D01*
X757247Y-2192431D01*
X755252Y-2193252D01*
X753139Y-2194074D01*
X750793Y-2194778D01*
X748563Y-2195247D01*
X746568Y-2195717D01*
X745629Y-2195951D01*
X744925Y-2196069D01*
X744221Y-2196303D01*
X743752D01*
X743517Y-2196421D01*
X743400D01*
X741991Y-2196655D01*
X740818Y-2196890D01*
X739644Y-2197125D01*
X738706Y-2197360D01*
X736945Y-2197712D01*
X735655Y-2198064D01*
X734716Y-2198298D01*
X734129Y-2198533D01*
X733777Y-2198650D01*
X733660D01*
X732486Y-2199120D01*
X731547Y-2199707D01*
X730726Y-2200176D01*
X730022Y-2200763D01*
X729553Y-2201115D01*
X729083Y-2201467D01*
X728966Y-2201701D01*
X728848Y-2201819D01*
X728379Y-2202523D01*
X727910Y-2203110D01*
X727558Y-2204400D01*
X727440Y-2204870D01*
X727323Y-2205339D01*
Y-2205574D01*
Y-2205691D01*
X727440Y-2206747D01*
X727792Y-2207804D01*
X728379Y-2208742D01*
X728848Y-2209446D01*
X729435Y-2210151D01*
X730022Y-2210620D01*
X730374Y-2210855D01*
X730491Y-2210972D01*
X732369Y-2212145D01*
X734364Y-2212967D01*
X736359Y-2213554D01*
X738354Y-2213906D01*
X740114Y-2214140D01*
X741405Y-2214375D01*
X742695D01*
X744456Y-2214258D01*
X746099Y-2214140D01*
X747624Y-2213906D01*
X748915Y-2213554D01*
X750088Y-2213202D01*
X750910Y-2212967D01*
X751379Y-2212850D01*
X751614Y-2212732D01*
X753022Y-2212028D01*
X754196Y-2211441D01*
X755134Y-2210855D01*
X755838Y-2210268D01*
X756425Y-2209916D01*
X756777Y-2209564D01*
X757012Y-2209329D01*
X757129Y-2209212D01*
X757481Y-2208860D01*
X757716Y-2208390D01*
X758185Y-2207217D01*
X758420Y-2206747D01*
X758537Y-2206278D01*
X758655Y-2206043D01*
Y-2205926D01*
X758890Y-2205105D01*
X759242Y-2204283D01*
X759594Y-2203696D01*
X759946Y-2203227D01*
X760532Y-2202640D01*
X760650Y-2202406D01*
X760767D01*
X761823Y-2201819D01*
X762879Y-2201467D01*
X763349Y-2201349D01*
X764053D01*
X764992Y-2201467D01*
X765813Y-2201584D01*
X766517Y-2201936D01*
X767104Y-2202171D01*
X767573Y-2202523D01*
X767925Y-2202875D01*
X768043Y-2202992D01*
X768160Y-2203110D01*
X768629Y-2203814D01*
X768981Y-2204753D01*
X769451Y-2206630D01*
X769568Y-2207452D01*
X769686Y-2208156D01*
Y-2208625D01*
Y-2208860D01*
Y-2216370D01*
X769568Y-2217778D01*
X769451Y-2218952D01*
X769216Y-2219890D01*
X768864Y-2220712D01*
X768629Y-2221299D01*
X768395Y-2221768D01*
X768277Y-2222003D01*
X768160Y-2222120D01*
X767573Y-2222707D01*
X766869Y-2223059D01*
X765578Y-2223528D01*
X764992Y-2223646D01*
X764522Y-2223763D01*
X764053D01*
X763231Y-2223646D01*
X762527Y-2223528D01*
X762058Y-2223411D01*
X761941Y-2223293D01*
X761589Y-2223059D01*
X761119Y-2222707D01*
X760298Y-2222003D01*
X759711Y-2221299D01*
X759594Y-2221181D01*
X759476Y-2221064D01*
X756425Y-2222472D01*
X755017Y-2223059D01*
X753726Y-2223528D01*
X752670Y-2223880D01*
X751731Y-2224115D01*
X751262Y-2224350D01*
X751027D01*
X747741Y-2225054D01*
X746216Y-2225288D01*
X744808Y-2225406D01*
X743634D01*
X742695Y-2225523D01*
X741874D01*
X739644Y-2225406D01*
X737532Y-2225288D01*
X735537Y-2224936D01*
X733777Y-2224467D01*
X732017Y-2223998D01*
X730374Y-2223528D01*
X728848Y-2222941D01*
X727440Y-2222237D01*
X726267Y-2221651D01*
X725211Y-2221064D01*
X724272Y-2220594D01*
X723450Y-2220125D01*
X722864Y-2219656D01*
X722394Y-2219304D01*
X722160Y-2219186D01*
X722042Y-2219069D01*
X720986Y-2218130D01*
X720047Y-2217074D01*
X719343Y-2215901D01*
X718639Y-2214844D01*
X717583Y-2212615D01*
X716879Y-2210503D01*
X716527Y-2208625D01*
X716292Y-2207804D01*
Y-2207099D01*
X716175Y-2206513D01*
Y-2206043D01*
Y-2205809D01*
Y-2205691D01*
X716292Y-2203579D01*
X716644Y-2201584D01*
X717231Y-2199824D01*
X717700Y-2198416D01*
X718287Y-2197125D01*
X718874Y-2196303D01*
X719226Y-2195717D01*
X719343Y-2195482D01*
X720517Y-2193956D01*
X721808Y-2192666D01*
X723098Y-2191610D01*
X724272Y-2190671D01*
X725328Y-2189967D01*
X726149Y-2189497D01*
X726736Y-2189263D01*
X726971Y-2189145D01*
X728848Y-2188324D01*
X730961Y-2187620D01*
X733190Y-2187033D01*
X735303Y-2186446D01*
X737180Y-2185977D01*
X738002Y-2185859D01*
X738706Y-2185625D01*
X739292Y-2185507D01*
X739762D01*
X739996Y-2185390D01*
X740114D01*
X741639Y-2185038D01*
X743048Y-2184803D01*
X744221Y-2184569D01*
X745394Y-2184334D01*
X746333Y-2184099D01*
X747155Y-2183865D01*
X748563Y-2183513D01*
X749502Y-2183278D01*
X750088Y-2183043D01*
X750440Y-2182926D01*
X750558D01*
X751497Y-2182456D01*
X752435Y-2181987D01*
X753139Y-2181518D01*
X753726Y-2181048D01*
X754196Y-2180579D01*
X754548Y-2180227D01*
X754665Y-2179992D01*
X754782Y-2179875D01*
X755252Y-2179171D01*
X755604Y-2178349D01*
X755956Y-2177176D01*
X756073Y-2176589D01*
X756191Y-2176237D01*
Y-2176002D01*
Y-2175885D01*
X756073Y-2174711D01*
X755604Y-2173655D01*
X755134Y-2172717D01*
X754430Y-2171778D01*
X753844Y-2171074D01*
X753257Y-2170487D01*
X752905Y-2170135D01*
X752787Y-2170018D01*
X751379Y-2169079D01*
X749736Y-2168375D01*
X748211Y-2167788D01*
X746685Y-2167436D01*
X745277Y-2167201D01*
X744221Y-2167084D01*
X743165D01*
X741639Y-2167201D01*
X740349Y-2167318D01*
X739058Y-2167553D01*
X738002Y-2167788D01*
X737063Y-2168140D01*
X736476Y-2168375D01*
X736007Y-2168492D01*
X735889Y-2168609D01*
X734716Y-2169196D01*
X733777Y-2169783D01*
X732956Y-2170252D01*
X732252Y-2170839D01*
X731782Y-2171308D01*
X731430Y-2171660D01*
X731195Y-2171895D01*
X731078Y-2172012D01*
X730726Y-2172599D01*
X730491Y-2173186D01*
X730022Y-2174594D01*
X729905Y-2175181D01*
X729787Y-2175650D01*
X729670Y-2176002D01*
Y-2176120D01*
X729435Y-2177058D01*
X729083Y-2177880D01*
X728731Y-2178467D01*
X728496Y-2178936D01*
X728144Y-2179288D01*
X728027Y-2179523D01*
X727792Y-2179757D01*
X726619Y-2180461D01*
X725445Y-2180814D01*
X724859D01*
X724507Y-2180931D01*
X724155D01*
X723216Y-2180814D01*
X722512Y-2180696D01*
X721221Y-2180109D01*
X720751Y-2179757D01*
X720399Y-2179523D01*
X720282Y-2179405D01*
X720165Y-2179288D01*
X719578Y-2178584D01*
X719226Y-2177645D01*
X718756Y-2175768D01*
X718639Y-2174946D01*
X718522Y-2174242D01*
Y-2173655D01*
Y-2173538D01*
Y-2165089D01*
X718639Y-2163681D01*
X718756Y-2162507D01*
X718991Y-2161568D01*
X719343Y-2160747D01*
X719695Y-2160160D01*
X719930Y-2159691D01*
X720047Y-2159456D01*
X720165Y-2159339D01*
X720751Y-2158752D01*
X721456Y-2158283D01*
X722160Y-2158048D01*
X722746Y-2157813D01*
X723333Y-2157696D01*
X723802Y-2157579D01*
X724272D01*
X725093Y-2157696D01*
X725915Y-2157931D01*
X727323Y-2158635D01*
X727792Y-2159104D01*
X728262Y-2159456D01*
X728496Y-2159691D01*
X728614Y-2159808D01*
X730961Y-2158517D01*
X732134Y-2158048D01*
X733190Y-2157696D01*
X734012Y-2157344D01*
X734833Y-2157109D01*
X735303Y-2156992D01*
X735420D01*
X738236Y-2156405D01*
X739527Y-2156170D01*
X740701Y-2156053D01*
X741757Y-2155936D01*
X743282D01*
X745277Y-2156053D01*
D02*
G37*
G36*
X409662D02*
X411422Y-2156170D01*
X414825Y-2156875D01*
X417876Y-2157813D01*
X419167Y-2158400D01*
X420341Y-2158987D01*
X421397Y-2159574D01*
X422335Y-2160160D01*
X423157Y-2160630D01*
X423861Y-2161099D01*
X424330Y-2161451D01*
X424682Y-2161803D01*
X424917Y-2161920D01*
X425034Y-2162038D01*
X426208Y-2163211D01*
X427264Y-2164385D01*
X428086Y-2165558D01*
X428907Y-2166732D01*
X429494Y-2167905D01*
X430080Y-2169079D01*
X430902Y-2171308D01*
X431371Y-2173186D01*
X431489Y-2174007D01*
X431606Y-2174711D01*
X431723Y-2175298D01*
Y-2175768D01*
Y-2176002D01*
Y-2176120D01*
X431606Y-2177997D01*
X431254Y-2179757D01*
X430902Y-2181283D01*
X430315Y-2182808D01*
X429846Y-2183982D01*
X429494Y-2184803D01*
X429142Y-2185390D01*
X429024Y-2185625D01*
X427968Y-2187150D01*
X426677Y-2188558D01*
X425504Y-2189732D01*
X424330Y-2190671D01*
X423274Y-2191375D01*
X422453Y-2191962D01*
X421866Y-2192314D01*
X421631Y-2192431D01*
X419636Y-2193252D01*
X417524Y-2194074D01*
X415177Y-2194778D01*
X412948Y-2195247D01*
X410953Y-2195717D01*
X410014Y-2195951D01*
X409310Y-2196069D01*
X408606Y-2196303D01*
X408136D01*
X407902Y-2196421D01*
X407784D01*
X406376Y-2196655D01*
X405203Y-2196890D01*
X404029Y-2197125D01*
X403090Y-2197360D01*
X401330Y-2197712D01*
X400039Y-2198064D01*
X399101Y-2198298D01*
X398514Y-2198533D01*
X398162Y-2198650D01*
X398044D01*
X396871Y-2199120D01*
X395932Y-2199707D01*
X395111Y-2200176D01*
X394407Y-2200763D01*
X393937Y-2201115D01*
X393468Y-2201467D01*
X393350Y-2201701D01*
X393233Y-2201819D01*
X392764Y-2202523D01*
X392294Y-2203110D01*
X391942Y-2204400D01*
X391825Y-2204870D01*
X391708Y-2205339D01*
Y-2205574D01*
Y-2205691D01*
X391825Y-2206747D01*
X392177Y-2207804D01*
X392764Y-2208742D01*
X393233Y-2209446D01*
X393820Y-2210151D01*
X394407Y-2210620D01*
X394759Y-2210855D01*
X394876Y-2210972D01*
X396754Y-2212145D01*
X398749Y-2212967D01*
X400743Y-2213554D01*
X402738Y-2213906D01*
X404499Y-2214140D01*
X405789Y-2214375D01*
X407080D01*
X408840Y-2214258D01*
X410483Y-2214140D01*
X412009Y-2213906D01*
X413300Y-2213554D01*
X414473Y-2213202D01*
X415295Y-2212967D01*
X415764Y-2212850D01*
X415999Y-2212732D01*
X417407Y-2212028D01*
X418580Y-2211441D01*
X419519Y-2210855D01*
X420223Y-2210268D01*
X420810Y-2209916D01*
X421162Y-2209564D01*
X421397Y-2209329D01*
X421514Y-2209212D01*
X421866Y-2208860D01*
X422101Y-2208390D01*
X422570Y-2207217D01*
X422805Y-2206747D01*
X422922Y-2206278D01*
X423040Y-2206043D01*
Y-2205926D01*
X423274Y-2205105D01*
X423626Y-2204283D01*
X423978Y-2203696D01*
X424330Y-2203227D01*
X424917Y-2202640D01*
X425034Y-2202406D01*
X425152D01*
X426208Y-2201819D01*
X427264Y-2201467D01*
X427733Y-2201349D01*
X428438D01*
X429376Y-2201467D01*
X430198Y-2201584D01*
X430902Y-2201936D01*
X431489Y-2202171D01*
X431958Y-2202523D01*
X432310Y-2202875D01*
X432427Y-2202992D01*
X432545Y-2203110D01*
X433014Y-2203814D01*
X433366Y-2204753D01*
X433836Y-2206630D01*
X433953Y-2207452D01*
X434070Y-2208156D01*
Y-2208625D01*
Y-2208860D01*
Y-2216370D01*
X433953Y-2217778D01*
X433836Y-2218952D01*
X433601Y-2219890D01*
X433249Y-2220712D01*
X433014Y-2221299D01*
X432779Y-2221768D01*
X432662Y-2222003D01*
X432545Y-2222120D01*
X431958Y-2222707D01*
X431254Y-2223059D01*
X429963Y-2223528D01*
X429376Y-2223646D01*
X428907Y-2223763D01*
X428438D01*
X427616Y-2223646D01*
X426912Y-2223528D01*
X426443Y-2223411D01*
X426325Y-2223293D01*
X425973Y-2223059D01*
X425504Y-2222707D01*
X424682Y-2222003D01*
X424096Y-2221299D01*
X423978Y-2221181D01*
X423861Y-2221064D01*
X420810Y-2222472D01*
X419402Y-2223059D01*
X418111Y-2223528D01*
X417055Y-2223880D01*
X416116Y-2224115D01*
X415647Y-2224350D01*
X415412D01*
X412126Y-2225054D01*
X410601Y-2225288D01*
X409192Y-2225406D01*
X408019D01*
X407080Y-2225523D01*
X406259D01*
X404029Y-2225406D01*
X401917Y-2225288D01*
X399922Y-2224936D01*
X398162Y-2224467D01*
X396402Y-2223998D01*
X394759Y-2223528D01*
X393233Y-2222941D01*
X391825Y-2222237D01*
X390651Y-2221651D01*
X389595Y-2221064D01*
X388657Y-2220594D01*
X387835Y-2220125D01*
X387248Y-2219656D01*
X386779Y-2219304D01*
X386544Y-2219186D01*
X386427Y-2219069D01*
X385371Y-2218130D01*
X384432Y-2217074D01*
X383728Y-2215901D01*
X383024Y-2214844D01*
X381968Y-2212615D01*
X381264Y-2210503D01*
X380912Y-2208625D01*
X380677Y-2207804D01*
Y-2207099D01*
X380560Y-2206513D01*
Y-2206043D01*
Y-2205809D01*
Y-2205691D01*
X380677Y-2203579D01*
X381029Y-2201584D01*
X381616Y-2199824D01*
X382085Y-2198416D01*
X382672Y-2197125D01*
X383259Y-2196303D01*
X383611Y-2195717D01*
X383728Y-2195482D01*
X384901Y-2193956D01*
X386192Y-2192666D01*
X387483Y-2191610D01*
X388657Y-2190671D01*
X389713Y-2189967D01*
X390534Y-2189497D01*
X391121Y-2189263D01*
X391356Y-2189145D01*
X393233Y-2188324D01*
X395345Y-2187620D01*
X397575Y-2187033D01*
X399687Y-2186446D01*
X401565Y-2185977D01*
X402386Y-2185859D01*
X403090Y-2185625D01*
X403677Y-2185507D01*
X404147D01*
X404381Y-2185390D01*
X404499D01*
X406024Y-2185038D01*
X407432Y-2184803D01*
X408606Y-2184569D01*
X409779Y-2184334D01*
X410718Y-2184099D01*
X411539Y-2183865D01*
X412948Y-2183513D01*
X413886Y-2183278D01*
X414473Y-2183043D01*
X414825Y-2182926D01*
X414943D01*
X415881Y-2182456D01*
X416820Y-2181987D01*
X417524Y-2181518D01*
X418111Y-2181048D01*
X418580Y-2180579D01*
X418932Y-2180227D01*
X419050Y-2179992D01*
X419167Y-2179875D01*
X419636Y-2179171D01*
X419988Y-2178349D01*
X420341Y-2177176D01*
X420458Y-2176589D01*
X420575Y-2176237D01*
Y-2176002D01*
Y-2175885D01*
X420458Y-2174711D01*
X419988Y-2173655D01*
X419519Y-2172717D01*
X418815Y-2171778D01*
X418228Y-2171074D01*
X417642Y-2170487D01*
X417289Y-2170135D01*
X417172Y-2170018D01*
X415764Y-2169079D01*
X414121Y-2168375D01*
X412596Y-2167788D01*
X411070Y-2167436D01*
X409662Y-2167201D01*
X408606Y-2167084D01*
X407550D01*
X406024Y-2167201D01*
X404733Y-2167318D01*
X403442Y-2167553D01*
X402386Y-2167788D01*
X401448Y-2168140D01*
X400861Y-2168375D01*
X400391Y-2168492D01*
X400274Y-2168609D01*
X399101Y-2169196D01*
X398162Y-2169783D01*
X397340Y-2170252D01*
X396636Y-2170839D01*
X396167Y-2171308D01*
X395815Y-2171660D01*
X395580Y-2171895D01*
X395463Y-2172012D01*
X395111Y-2172599D01*
X394876Y-2173186D01*
X394407Y-2174594D01*
X394289Y-2175181D01*
X394172Y-2175650D01*
X394055Y-2176002D01*
Y-2176120D01*
X393820Y-2177058D01*
X393468Y-2177880D01*
X393116Y-2178467D01*
X392881Y-2178936D01*
X392529Y-2179288D01*
X392412Y-2179523D01*
X392177Y-2179757D01*
X391004Y-2180461D01*
X389830Y-2180814D01*
X389243D01*
X388891Y-2180931D01*
X388539D01*
X387600Y-2180814D01*
X386896Y-2180696D01*
X385606Y-2180109D01*
X385136Y-2179757D01*
X384784Y-2179523D01*
X384667Y-2179405D01*
X384549Y-2179288D01*
X383963Y-2178584D01*
X383611Y-2177645D01*
X383141Y-2175768D01*
X383024Y-2174946D01*
X382907Y-2174242D01*
Y-2173655D01*
Y-2173538D01*
Y-2165089D01*
X383024Y-2163681D01*
X383141Y-2162507D01*
X383376Y-2161568D01*
X383728Y-2160747D01*
X384080Y-2160160D01*
X384315Y-2159691D01*
X384432Y-2159456D01*
X384549Y-2159339D01*
X385136Y-2158752D01*
X385840Y-2158283D01*
X386544Y-2158048D01*
X387131Y-2157813D01*
X387718Y-2157696D01*
X388187Y-2157579D01*
X388657D01*
X389478Y-2157696D01*
X390299Y-2157931D01*
X391708Y-2158635D01*
X392177Y-2159104D01*
X392646Y-2159456D01*
X392881Y-2159691D01*
X392998Y-2159808D01*
X395345Y-2158517D01*
X396519Y-2158048D01*
X397575Y-2157696D01*
X398396Y-2157344D01*
X399218Y-2157109D01*
X399687Y-2156992D01*
X399805D01*
X402621Y-2156405D01*
X403912Y-2156170D01*
X405085Y-2156053D01*
X406141Y-2155936D01*
X407667D01*
X409662Y-2156053D01*
D02*
G37*
G36*
X-60082Y-2156053D02*
X-57148Y-2156523D01*
X-54567Y-2157227D01*
X-52337Y-2157931D01*
X-50342Y-2158752D01*
X-49638Y-2159104D01*
X-48934Y-2159339D01*
X-48347Y-2159691D01*
X-47995Y-2159808D01*
X-47761Y-2160043D01*
X-47643D01*
X-45062Y-2161686D01*
X-42832Y-2163564D01*
X-40954Y-2165559D01*
X-39312Y-2167436D01*
X-38021Y-2169196D01*
X-37082Y-2170487D01*
X-36847Y-2171074D01*
X-36613Y-2171426D01*
X-36378Y-2171661D01*
Y-2171778D01*
X-35087Y-2174594D01*
X-34031Y-2177528D01*
X-33327Y-2180227D01*
X-32857Y-2182691D01*
X-32740Y-2183865D01*
X-32623Y-2184921D01*
X-32505Y-2185860D01*
Y-2186564D01*
X-32388Y-2187268D01*
Y-2187737D01*
Y-2187972D01*
Y-2188089D01*
Y-2195717D01*
X-32623Y-2198768D01*
X-33092Y-2201702D01*
X-33796Y-2204283D01*
X-34618Y-2206630D01*
X-35439Y-2208508D01*
X-35791Y-2209329D01*
X-36143Y-2209916D01*
X-36495Y-2210503D01*
X-36613Y-2210855D01*
X-36847Y-2211090D01*
Y-2211207D01*
X-38607Y-2213671D01*
X-40485Y-2215783D01*
X-42363Y-2217544D01*
X-44123Y-2218952D01*
X-45648Y-2220125D01*
X-46822Y-2220947D01*
X-47291Y-2221181D01*
X-47643Y-2221416D01*
X-47761Y-2221534D01*
X-47878D01*
X-50929Y-2222824D01*
X-53980Y-2223880D01*
X-57031Y-2224585D01*
X-59847Y-2225054D01*
X-61021Y-2225171D01*
X-62194Y-2225289D01*
X-63133Y-2225406D01*
X-64072D01*
X-64776Y-2225523D01*
X-65715D01*
X-68883Y-2225406D01*
X-71817Y-2225054D01*
X-74399Y-2224585D01*
X-76746Y-2223998D01*
X-78623Y-2223528D01*
X-79445Y-2223294D01*
X-80149Y-2223059D01*
X-80618Y-2222824D01*
X-80970Y-2222707D01*
X-81205Y-2222590D01*
X-81322D01*
X-83200Y-2221768D01*
X-84843Y-2220712D01*
X-86368Y-2219773D01*
X-87542Y-2218835D01*
X-88598Y-2217896D01*
X-89302Y-2217192D01*
X-89771Y-2216722D01*
X-89889Y-2216605D01*
X-90710Y-2215666D01*
X-91297Y-2214727D01*
X-91649Y-2213906D01*
X-92001Y-2213202D01*
X-92118Y-2212498D01*
X-92236Y-2212028D01*
Y-2211794D01*
Y-2211676D01*
X-92118Y-2210855D01*
X-92001Y-2210033D01*
X-91414Y-2208743D01*
X-91062Y-2208273D01*
X-90710Y-2207921D01*
X-90593Y-2207804D01*
X-90475Y-2207686D01*
X-89889Y-2207100D01*
X-89184Y-2206630D01*
X-88480Y-2206396D01*
X-87894Y-2206161D01*
X-87424Y-2206044D01*
X-86955Y-2205926D01*
X-86603D01*
X-85664Y-2206044D01*
X-84960Y-2206161D01*
X-84491Y-2206396D01*
X-84256Y-2206513D01*
X-83904Y-2206748D01*
X-83434Y-2207100D01*
X-82613Y-2207804D01*
X-81909Y-2208508D01*
X-81674Y-2208625D01*
X-81557Y-2208743D01*
X-80501Y-2209799D01*
X-79562Y-2210620D01*
X-78623Y-2211324D01*
X-77919Y-2211794D01*
X-77215Y-2212263D01*
X-76746Y-2212498D01*
X-76394Y-2212732D01*
X-76276D01*
X-74633Y-2213319D01*
X-72756Y-2213671D01*
X-70996Y-2214023D01*
X-69353Y-2214141D01*
X-67944Y-2214258D01*
X-66771Y-2214375D01*
X-65715D01*
X-63837Y-2214258D01*
X-62077Y-2214141D01*
X-58791Y-2213554D01*
X-57266Y-2213084D01*
X-55975Y-2212615D01*
X-54802Y-2212146D01*
X-53628Y-2211676D01*
X-52689Y-2211207D01*
X-51868Y-2210738D01*
X-51046Y-2210268D01*
X-50460Y-2209799D01*
X-49990Y-2209447D01*
X-49638Y-2209212D01*
X-49521Y-2208977D01*
X-49404D01*
X-48347Y-2207921D01*
X-47526Y-2206865D01*
X-46705Y-2205692D01*
X-46000Y-2204635D01*
X-44944Y-2202288D01*
X-44240Y-2200176D01*
X-43888Y-2198299D01*
X-43771Y-2197477D01*
X-43653Y-2196773D01*
X-43536Y-2196304D01*
Y-2195834D01*
Y-2195600D01*
Y-2195482D01*
Y-2188207D01*
X-43653Y-2185742D01*
X-44006Y-2183513D01*
X-44592Y-2181518D01*
X-45179Y-2179758D01*
X-45648Y-2178349D01*
X-46235Y-2177293D01*
X-46587Y-2176707D01*
X-46705Y-2176472D01*
X-47995Y-2174712D01*
X-49286Y-2173304D01*
X-50460Y-2172013D01*
X-51633Y-2171074D01*
X-52572Y-2170252D01*
X-53393Y-2169783D01*
X-53863Y-2169431D01*
X-54097Y-2169314D01*
X-55740Y-2168610D01*
X-57383Y-2168023D01*
X-58909Y-2167671D01*
X-60317Y-2167319D01*
X-61608Y-2167201D01*
X-62546Y-2167084D01*
X-63368D01*
X-64893Y-2167201D01*
X-66419Y-2167319D01*
X-67710Y-2167553D01*
X-69001Y-2167788D01*
X-69939Y-2168140D01*
X-70761Y-2168375D01*
X-71348Y-2168492D01*
X-71465Y-2168610D01*
X-72873Y-2169196D01*
X-74164Y-2169900D01*
X-75220Y-2170487D01*
X-76042Y-2171191D01*
X-76746Y-2171778D01*
X-77332Y-2172130D01*
X-77567Y-2172482D01*
X-77684Y-2172599D01*
X-78388Y-2173656D01*
X-78975Y-2174829D01*
X-79093Y-2175298D01*
X-79210Y-2175768D01*
X-79327Y-2176003D01*
Y-2176120D01*
X-79562Y-2177293D01*
X-79914Y-2178232D01*
X-80266Y-2179054D01*
X-80501Y-2179758D01*
X-80853Y-2180227D01*
X-81087Y-2180579D01*
X-81322Y-2180696D01*
Y-2180814D01*
X-82378Y-2181518D01*
X-83552Y-2181870D01*
X-84021D01*
X-84491Y-2181987D01*
X-84843D01*
X-85781Y-2181870D01*
X-86485Y-2181753D01*
X-87776Y-2181166D01*
X-88246Y-2180814D01*
X-88598Y-2180579D01*
X-88715Y-2180462D01*
X-88832Y-2180344D01*
X-89419Y-2179640D01*
X-89771Y-2178702D01*
X-90241Y-2176824D01*
X-90358Y-2176003D01*
X-90475Y-2175298D01*
Y-2174712D01*
Y-2174594D01*
Y-2165089D01*
X-90358Y-2163681D01*
X-90241Y-2162507D01*
X-90006Y-2161451D01*
X-89654Y-2160630D01*
X-89302Y-2160043D01*
X-89067Y-2159691D01*
X-88950Y-2159456D01*
X-88832Y-2159339D01*
X-88246Y-2158752D01*
X-87542Y-2158283D01*
X-86955Y-2158048D01*
X-86251Y-2157814D01*
X-85664Y-2157696D01*
X-85312Y-2157579D01*
X-84843D01*
X-83786Y-2157696D01*
X-82965Y-2157931D01*
X-82378Y-2158283D01*
X-82261Y-2158400D01*
X-82144D01*
X-81322Y-2158987D01*
X-80618Y-2159691D01*
X-80149Y-2160278D01*
X-80031Y-2160395D01*
Y-2160513D01*
X-77215Y-2158987D01*
X-75807Y-2158400D01*
X-74633Y-2157931D01*
X-73577Y-2157579D01*
X-72756Y-2157344D01*
X-72286Y-2157109D01*
X-72052D01*
X-68883Y-2156405D01*
X-67358Y-2156171D01*
X-65950Y-2156053D01*
X-64776Y-2155936D01*
X-63016D01*
X-60082Y-2156053D01*
D02*
G37*
G36*
X618189Y-2164737D02*
X604812D01*
Y-2152885D01*
X618189D01*
Y-2164737D01*
D02*
G37*
G36*
X701976Y-2153002D02*
X703267Y-2153119D01*
X704323Y-2153354D01*
X705144Y-2153706D01*
X705731Y-2154058D01*
X706200Y-2154293D01*
X706435Y-2154410D01*
X706552Y-2154528D01*
X707139Y-2155114D01*
X707491Y-2155818D01*
X707960Y-2157109D01*
X708078Y-2157696D01*
X708195Y-2158048D01*
Y-2158400D01*
Y-2158517D01*
X708078Y-2159339D01*
X707960Y-2160160D01*
X707374Y-2161451D01*
X707022Y-2161920D01*
X706787Y-2162273D01*
X706670Y-2162390D01*
X706552Y-2162507D01*
X705731Y-2162977D01*
X704909Y-2163329D01*
X702915Y-2163798D01*
X701976Y-2163915D01*
X701272Y-2164033D01*
X698690D01*
Y-2212615D01*
X700098D01*
X701272Y-2212732D01*
X702210Y-2212967D01*
X702915Y-2213084D01*
X703501Y-2213319D01*
X703853Y-2213554D01*
X703971Y-2213671D01*
X704088D01*
X704792Y-2214492D01*
X705379Y-2215314D01*
X705731Y-2216018D01*
X706083Y-2216722D01*
X706200Y-2217309D01*
X706318Y-2217778D01*
Y-2218130D01*
Y-2218248D01*
X706200Y-2219069D01*
X706083Y-2219890D01*
X705496Y-2221181D01*
X705144Y-2221651D01*
X704909Y-2222003D01*
X704792Y-2222120D01*
X704675Y-2222237D01*
X703853Y-2222707D01*
X703032Y-2223059D01*
X701037Y-2223528D01*
X700098Y-2223646D01*
X699394Y-2223763D01*
X687542D01*
X686134Y-2223646D01*
X684843Y-2223528D01*
X683904Y-2223293D01*
X683083Y-2222941D01*
X682496Y-2222707D01*
X682027Y-2222472D01*
X681792Y-2222355D01*
X681675Y-2222237D01*
X681088Y-2221651D01*
X680618Y-2220947D01*
X680384Y-2220242D01*
X680149Y-2219656D01*
X680032Y-2219069D01*
X679914Y-2218600D01*
Y-2218365D01*
Y-2218248D01*
X680032Y-2217309D01*
X680266Y-2216487D01*
X681088Y-2215079D01*
X681557Y-2214492D01*
X681909Y-2214023D01*
X682144Y-2213788D01*
X682261Y-2213671D01*
X682848Y-2213319D01*
X683552Y-2213084D01*
X685312Y-2212732D01*
X686134Y-2212615D01*
X687542D01*
Y-2191610D01*
X685782Y-2189967D01*
X684256Y-2188558D01*
X682965Y-2187502D01*
X681909Y-2186681D01*
X680970Y-2186094D01*
X680384Y-2185625D01*
X679914Y-2185507D01*
X679797Y-2185390D01*
X678623Y-2184921D01*
X677567Y-2184451D01*
X676394Y-2184217D01*
X675455Y-2184099D01*
X674516Y-2183982D01*
X673812Y-2183865D01*
X673225D01*
X671348Y-2183982D01*
X669822Y-2184217D01*
X668532Y-2184686D01*
X667358Y-2185038D01*
X666537Y-2185507D01*
X665950Y-2185977D01*
X665598Y-2186212D01*
X665481Y-2186329D01*
X664776Y-2187033D01*
X664307Y-2187972D01*
X663955Y-2188911D01*
X663720Y-2189967D01*
X663603Y-2190905D01*
X663486Y-2191610D01*
Y-2192079D01*
Y-2192314D01*
Y-2212615D01*
X664894D01*
X666067Y-2212732D01*
X667006Y-2212967D01*
X667710Y-2213084D01*
X668297Y-2213319D01*
X668649Y-2213554D01*
X668766Y-2213671D01*
X668884D01*
X669588Y-2214492D01*
X670174Y-2215314D01*
X670526Y-2216018D01*
X670879Y-2216722D01*
X670996Y-2217309D01*
X671113Y-2217778D01*
Y-2218130D01*
Y-2218248D01*
X670996Y-2219069D01*
X670879Y-2219890D01*
X670292Y-2221181D01*
X669940Y-2221651D01*
X669705Y-2222003D01*
X669588Y-2222120D01*
X669470Y-2222237D01*
X668649Y-2222707D01*
X667827Y-2223059D01*
X665833Y-2223528D01*
X664894Y-2223646D01*
X664190Y-2223763D01*
X652338D01*
X650929Y-2223646D01*
X649639Y-2223528D01*
X648700Y-2223293D01*
X647878Y-2222941D01*
X647292Y-2222707D01*
X646822Y-2222472D01*
X646587Y-2222355D01*
X646470Y-2222237D01*
X645883Y-2221651D01*
X645414Y-2220947D01*
X645179Y-2220242D01*
X644945Y-2219656D01*
X644827Y-2219069D01*
X644710Y-2218600D01*
Y-2218365D01*
Y-2218248D01*
X644827Y-2217309D01*
X645062Y-2216487D01*
X645883Y-2215079D01*
X646353Y-2214492D01*
X646705Y-2214023D01*
X646940Y-2213788D01*
X647057Y-2213671D01*
X647644Y-2213319D01*
X648348Y-2213084D01*
X650108Y-2212732D01*
X650929Y-2212615D01*
X652338D01*
Y-2191610D01*
X652455Y-2189263D01*
X652807Y-2187268D01*
X653276Y-2185390D01*
X653863Y-2183865D01*
X654450Y-2182574D01*
X654919Y-2181635D01*
X655271Y-2181166D01*
X655389Y-2180931D01*
X656562Y-2179405D01*
X657853Y-2178115D01*
X659026Y-2177058D01*
X660200Y-2176237D01*
X661256Y-2175533D01*
X662077Y-2175063D01*
X662664Y-2174829D01*
X662899Y-2174711D01*
X664659Y-2174007D01*
X666419Y-2173538D01*
X668180Y-2173186D01*
X669822Y-2172951D01*
X671113Y-2172834D01*
X672287Y-2172717D01*
X673225D01*
X675924Y-2172834D01*
X677215Y-2173069D01*
X678271Y-2173186D01*
X679210Y-2173421D01*
X680032Y-2173655D01*
X680501Y-2173773D01*
X680618D01*
X683200Y-2174711D01*
X684374Y-2175181D01*
X685430Y-2175650D01*
X686251Y-2176120D01*
X686955Y-2176472D01*
X687425Y-2176706D01*
X687542Y-2176824D01*
Y-2152885D01*
X700568D01*
X701976Y-2153002D01*
D02*
G37*
G36*
X209466Y-2172834D02*
X210757Y-2172951D01*
X212048Y-2173069D01*
X213104Y-2173186D01*
X213925Y-2173303D01*
X214395Y-2173421D01*
X214629D01*
X217798Y-2174007D01*
X219206Y-2174359D01*
X220497Y-2174594D01*
X221553Y-2174829D01*
X222374Y-2175063D01*
X222844Y-2175298D01*
X223079D01*
X224135Y-2175650D01*
X224956Y-2175885D01*
X225660Y-2176120D01*
X226247Y-2176354D01*
X226716Y-2176589D01*
X226951Y-2176706D01*
X227186Y-2176824D01*
X227772Y-2177293D01*
X228242Y-2177880D01*
X228594Y-2178232D01*
X228711Y-2178467D01*
X228946Y-2179288D01*
X229063Y-2180109D01*
X229181Y-2180696D01*
Y-2180814D01*
Y-2180931D01*
X229063Y-2181870D01*
X228946Y-2182574D01*
X228359Y-2183865D01*
X228125Y-2184334D01*
X227890Y-2184686D01*
X227772Y-2184921D01*
X227655Y-2185038D01*
X227068Y-2185507D01*
X226364Y-2185859D01*
X225191Y-2186329D01*
X224721Y-2186446D01*
X224252Y-2186564D01*
X223196D01*
X222492Y-2186446D01*
X220966Y-2186212D01*
X220380Y-2186094D01*
X219793Y-2185977D01*
X219441Y-2185859D01*
X219323D01*
X216507Y-2185155D01*
X213925Y-2184686D01*
X211696Y-2184334D01*
X209818Y-2184099D01*
X208410Y-2183982D01*
X207354Y-2183865D01*
X206415D01*
X204303Y-2183982D01*
X202543Y-2184099D01*
X201134Y-2184334D01*
X199961Y-2184686D01*
X199140Y-2185038D01*
X198670Y-2185273D01*
X198318Y-2185390D01*
X198201Y-2185507D01*
X197497Y-2186212D01*
X196910Y-2186798D01*
X196558Y-2187620D01*
X196206Y-2188206D01*
X196089Y-2188793D01*
X195971Y-2189263D01*
Y-2189615D01*
Y-2189732D01*
Y-2192431D01*
X198435Y-2192079D01*
X200665Y-2191727D01*
X202660Y-2191492D01*
X204420Y-2191375D01*
X205828Y-2191257D01*
X207823D01*
X210170Y-2191375D01*
X212283Y-2191492D01*
X214395Y-2191844D01*
X216272Y-2192196D01*
X218033Y-2192666D01*
X219675Y-2193135D01*
X221201Y-2193722D01*
X222492Y-2194309D01*
X223665Y-2194895D01*
X224721Y-2195482D01*
X225660Y-2195951D01*
X226364Y-2196421D01*
X226951Y-2196773D01*
X227303Y-2197125D01*
X227538Y-2197242D01*
X227655Y-2197360D01*
X228946Y-2198533D01*
X230002Y-2199589D01*
X230941Y-2200763D01*
X231762Y-2201936D01*
X232466Y-2202992D01*
X233053Y-2204048D01*
X233875Y-2206043D01*
X234461Y-2207804D01*
X234696Y-2209094D01*
X234813Y-2209564D01*
Y-2209916D01*
Y-2210151D01*
Y-2210268D01*
X234696Y-2211324D01*
X234579Y-2212380D01*
X233875Y-2214375D01*
X233053Y-2216135D01*
X231997Y-2217778D01*
X230941Y-2219069D01*
X230002Y-2220008D01*
X229415Y-2220594D01*
X229298Y-2220829D01*
X229181D01*
X226951Y-2222355D01*
X224487Y-2223528D01*
X222140Y-2224350D01*
X219793Y-2224936D01*
X217798Y-2225288D01*
X216859Y-2225406D01*
X216155D01*
X215451Y-2225523D01*
X214629D01*
X211344Y-2225406D01*
X209818Y-2225171D01*
X208410Y-2224936D01*
X207119Y-2224819D01*
X206180Y-2224584D01*
X205594Y-2224467D01*
X205359D01*
X203481Y-2223998D01*
X201721Y-2223528D01*
X200078Y-2222941D01*
X198670Y-2222472D01*
X197614Y-2221885D01*
X196675Y-2221533D01*
X196206Y-2221299D01*
X195971Y-2221181D01*
Y-2223763D01*
X182946D01*
X181537Y-2223646D01*
X180247Y-2223528D01*
X179308Y-2223293D01*
X178486Y-2222941D01*
X177900Y-2222707D01*
X177430Y-2222472D01*
X177195Y-2222355D01*
X177078Y-2222237D01*
X176491Y-2221651D01*
X176022Y-2220947D01*
X175787Y-2220242D01*
X175553Y-2219656D01*
X175435Y-2219069D01*
X175318Y-2218600D01*
Y-2218365D01*
Y-2218248D01*
X175435Y-2217309D01*
X175553Y-2216605D01*
X176139Y-2215314D01*
X176491Y-2214844D01*
X176843Y-2214492D01*
X176961Y-2214375D01*
X177078Y-2214258D01*
X177782Y-2213671D01*
X178721Y-2213319D01*
X180716Y-2212850D01*
X181537Y-2212732D01*
X182241Y-2212615D01*
X184823D01*
Y-2189615D01*
X184940Y-2188206D01*
X185058Y-2186798D01*
X185762Y-2184334D01*
X186701Y-2182222D01*
X187757Y-2180461D01*
X188813Y-2179171D01*
X189752Y-2178115D01*
X190456Y-2177528D01*
X190573Y-2177293D01*
X190690D01*
X193037Y-2175768D01*
X195619Y-2174594D01*
X198318Y-2173773D01*
X200900Y-2173303D01*
X203247Y-2172951D01*
X204186Y-2172834D01*
X205007D01*
X205828Y-2172717D01*
X206767D01*
X209466Y-2172834D01*
D02*
G37*
G36*
X-504596Y-2174242D02*
X-503306Y-2174360D01*
X-502249Y-2174594D01*
X-501428Y-2174946D01*
X-500841Y-2175298D01*
X-500372Y-2175533D01*
X-500137Y-2175650D01*
X-500020Y-2175768D01*
X-499433Y-2176355D01*
X-499081Y-2177059D01*
X-498612Y-2178349D01*
X-498494Y-2178936D01*
X-498377Y-2179288D01*
Y-2179640D01*
Y-2179758D01*
X-498494Y-2180579D01*
X-498612Y-2181401D01*
X-499198Y-2182691D01*
X-499550Y-2183161D01*
X-499785Y-2183513D01*
X-499902Y-2183630D01*
X-500020Y-2183747D01*
X-500841Y-2184217D01*
X-501663Y-2184569D01*
X-503658Y-2185038D01*
X-504596Y-2185156D01*
X-505300Y-2185273D01*
X-507647D01*
X-526423Y-2223763D01*
X-538158D01*
X-556934Y-2185273D01*
X-558811D01*
X-560337Y-2185156D01*
X-561510Y-2185038D01*
X-562566Y-2184804D01*
X-563388Y-2184452D01*
X-563974Y-2184217D01*
X-564444Y-2183982D01*
X-564679Y-2183865D01*
X-564796Y-2183747D01*
X-565383Y-2183161D01*
X-565852Y-2182457D01*
X-566087Y-2181753D01*
X-566321Y-2181166D01*
X-566439Y-2180579D01*
X-566556Y-2180110D01*
Y-2179875D01*
Y-2179758D01*
X-566439Y-2178819D01*
X-566321Y-2178115D01*
X-565735Y-2176824D01*
X-565383Y-2176355D01*
X-565031Y-2176003D01*
X-564913Y-2175885D01*
X-564796Y-2175768D01*
X-564092Y-2175181D01*
X-563153Y-2174829D01*
X-561158Y-2174360D01*
X-560219Y-2174242D01*
X-559515Y-2174125D01*
X-544495D01*
X-543087Y-2174242D01*
X-541796Y-2174360D01*
X-540857Y-2174594D01*
X-540035Y-2174946D01*
X-539449Y-2175298D01*
X-538979Y-2175533D01*
X-538745Y-2175650D01*
X-538627Y-2175768D01*
X-538041Y-2176355D01*
X-537689Y-2177059D01*
X-537219Y-2178349D01*
X-537102Y-2178936D01*
X-536984Y-2179288D01*
Y-2179640D01*
Y-2179758D01*
X-537102Y-2180696D01*
X-537336Y-2181518D01*
X-538158Y-2182926D01*
X-538627Y-2183513D01*
X-538979Y-2183982D01*
X-539214Y-2184217D01*
X-539331Y-2184334D01*
X-539918Y-2184686D01*
X-540622Y-2184921D01*
X-541444Y-2185038D01*
X-542265Y-2185156D01*
X-543087Y-2185273D01*
X-544495D01*
X-532291Y-2210385D01*
X-520086Y-2185273D01*
X-521495D01*
X-522668Y-2185156D01*
X-523607Y-2184921D01*
X-524311Y-2184804D01*
X-524780Y-2184569D01*
X-525132Y-2184452D01*
X-525367Y-2184334D01*
X-526188Y-2183513D01*
X-526775Y-2182691D01*
X-527127Y-2181987D01*
X-527479Y-2181283D01*
X-527597Y-2180696D01*
X-527714Y-2180227D01*
Y-2179875D01*
Y-2179758D01*
X-527597Y-2178819D01*
X-527479Y-2178115D01*
X-526893Y-2176824D01*
X-526540Y-2176355D01*
X-526188Y-2176003D01*
X-526071Y-2175885D01*
X-525954Y-2175768D01*
X-525250Y-2175181D01*
X-524311Y-2174829D01*
X-522316Y-2174360D01*
X-521495Y-2174242D01*
X-520790Y-2174125D01*
X-506005D01*
X-504596Y-2174242D01*
D02*
G37*
G36*
X349580Y-2156640D02*
X350401Y-2156757D01*
X351692Y-2157344D01*
X352161Y-2157696D01*
X352513Y-2158048D01*
X352631Y-2158165D01*
X352748Y-2158283D01*
X353217Y-2158987D01*
X353570Y-2159926D01*
X354039Y-2161803D01*
X354156Y-2162625D01*
X354274Y-2163329D01*
Y-2163798D01*
Y-2164033D01*
Y-2174125D01*
X358381D01*
X359789Y-2174242D01*
X360962Y-2174359D01*
X361901Y-2174594D01*
X362723Y-2174946D01*
X363309Y-2175298D01*
X363779Y-2175533D01*
X364013Y-2175650D01*
X364131Y-2175768D01*
X364718Y-2176354D01*
X365070Y-2177058D01*
X365539Y-2178349D01*
X365656Y-2178936D01*
X365774Y-2179288D01*
Y-2179640D01*
Y-2179757D01*
X365656Y-2180579D01*
X365539Y-2181400D01*
X364952Y-2182691D01*
X364600Y-2183160D01*
X364366Y-2183513D01*
X364248Y-2183630D01*
X364131Y-2183747D01*
X363427Y-2184217D01*
X362488Y-2184569D01*
X360610Y-2185038D01*
X359789Y-2185155D01*
X359085Y-2185273D01*
X354274D01*
Y-2210033D01*
X354156Y-2211207D01*
X354039Y-2212380D01*
X353452Y-2214492D01*
X352631Y-2216370D01*
X351692Y-2218013D01*
X350753Y-2219304D01*
X349932Y-2220242D01*
X349345Y-2220829D01*
X349110Y-2221064D01*
X348054Y-2221885D01*
X346998Y-2222589D01*
X344534Y-2223646D01*
X341952Y-2224467D01*
X339370Y-2224936D01*
X337023Y-2225288D01*
X336085Y-2225406D01*
X335263D01*
X334442Y-2225523D01*
X333503D01*
X331391Y-2225406D01*
X329161Y-2225171D01*
X326932Y-2224819D01*
X324819Y-2224467D01*
X323059Y-2224115D01*
X322238Y-2223880D01*
X321534Y-2223763D01*
X320947Y-2223646D01*
X320595Y-2223528D01*
X320360Y-2223411D01*
X320243D01*
X318835Y-2223059D01*
X317544Y-2222589D01*
X315197Y-2221768D01*
X313319Y-2220947D01*
X311911Y-2220242D01*
X310855Y-2219656D01*
X310151Y-2219186D01*
X309681Y-2218834D01*
X309564Y-2218717D01*
X308977Y-2218130D01*
X308508Y-2217426D01*
X308273Y-2216839D01*
X308038Y-2216253D01*
X307921Y-2215783D01*
X307804Y-2215314D01*
Y-2215079D01*
Y-2214962D01*
X307921Y-2214140D01*
X308038Y-2213319D01*
X308625Y-2212028D01*
X308977Y-2211559D01*
X309212Y-2211207D01*
X309329Y-2211089D01*
X309447Y-2210972D01*
X310033Y-2210385D01*
X310738Y-2210033D01*
X312028Y-2209564D01*
X312498Y-2209446D01*
X312967Y-2209329D01*
X313319D01*
X313906Y-2209446D01*
X314610Y-2209564D01*
X316018Y-2210033D01*
X316722Y-2210385D01*
X317192Y-2210620D01*
X317544Y-2210737D01*
X317661Y-2210855D01*
X320477Y-2212028D01*
X323176Y-2212850D01*
X325875Y-2213554D01*
X328340Y-2213906D01*
X330452Y-2214140D01*
X331273Y-2214258D01*
X332095D01*
X332682Y-2214375D01*
X333503D01*
X335498Y-2214258D01*
X337258Y-2214140D01*
X338666Y-2213788D01*
X339840Y-2213436D01*
X340661Y-2213202D01*
X341248Y-2212850D01*
X341600Y-2212732D01*
X341717Y-2212615D01*
X342187Y-2212028D01*
X342539Y-2211324D01*
X342891Y-2209798D01*
X343008Y-2208977D01*
X343126Y-2208390D01*
Y-2207921D01*
Y-2207804D01*
Y-2185273D01*
X322472D01*
X321064Y-2185155D01*
X319891Y-2185038D01*
X318952Y-2184803D01*
X318130Y-2184451D01*
X317544Y-2184217D01*
X317074Y-2183982D01*
X316840Y-2183865D01*
X316722Y-2183747D01*
X316136Y-2183160D01*
X315666Y-2182456D01*
X315431Y-2181752D01*
X315197Y-2181166D01*
X315079Y-2180579D01*
X314962Y-2180109D01*
Y-2179875D01*
Y-2179757D01*
X315079Y-2178819D01*
X315197Y-2178115D01*
X315783Y-2176824D01*
X316136Y-2176354D01*
X316488Y-2176002D01*
X316605Y-2175885D01*
X316722Y-2175768D01*
X317426Y-2175181D01*
X318365Y-2174829D01*
X320243Y-2174359D01*
X321064Y-2174242D01*
X321768Y-2174125D01*
X343126D01*
Y-2164033D01*
X343243Y-2162625D01*
X343360Y-2161451D01*
X343595Y-2160512D01*
X343947Y-2159691D01*
X344299Y-2159104D01*
X344534Y-2158635D01*
X344651Y-2158400D01*
X344768Y-2158283D01*
X345355Y-2157696D01*
X346059Y-2157227D01*
X346646Y-2156992D01*
X347350Y-2156757D01*
X347937Y-2156640D01*
X348289Y-2156522D01*
X348758D01*
X349580Y-2156640D01*
D02*
G37*
G36*
X-461882Y-2172834D02*
X-459887Y-2173069D01*
X-457892Y-2173421D01*
X-456014Y-2173890D01*
X-452611Y-2175064D01*
X-451086Y-2175768D01*
X-449678Y-2176355D01*
X-448387Y-2177059D01*
X-447331Y-2177763D01*
X-446274Y-2178349D01*
X-445453Y-2178936D01*
X-444749Y-2179406D01*
X-444280Y-2179758D01*
X-444045Y-2179992D01*
X-443927Y-2180110D01*
X-442402Y-2181518D01*
X-441111Y-2183043D01*
X-439938Y-2184569D01*
X-438882Y-2186212D01*
X-438060Y-2187855D01*
X-437356Y-2189498D01*
X-436769Y-2191023D01*
X-436300Y-2192549D01*
X-435948Y-2193957D01*
X-435713Y-2195248D01*
X-435478Y-2196421D01*
X-435361Y-2197360D01*
Y-2198181D01*
X-435244Y-2198885D01*
Y-2199237D01*
Y-2199355D01*
X-435361Y-2201350D01*
X-435596Y-2203345D01*
X-435948Y-2205222D01*
X-436535Y-2206865D01*
X-437825Y-2210151D01*
X-438529Y-2211559D01*
X-439234Y-2212850D01*
X-439938Y-2214023D01*
X-440759Y-2214962D01*
X-441346Y-2215901D01*
X-441933Y-2216605D01*
X-442519Y-2217192D01*
X-442871Y-2217661D01*
X-443106Y-2217896D01*
X-443223Y-2218013D01*
X-444749Y-2219304D01*
X-446509Y-2220477D01*
X-448269Y-2221534D01*
X-450030Y-2222355D01*
X-451790Y-2223059D01*
X-453550Y-2223646D01*
X-456953Y-2224585D01*
X-458596Y-2224937D01*
X-460004Y-2225171D01*
X-461295Y-2225289D01*
X-462468Y-2225406D01*
X-463407Y-2225523D01*
X-464698D01*
X-467632Y-2225406D01*
X-470565Y-2225289D01*
X-473264Y-2224937D01*
X-475846Y-2224585D01*
X-476902Y-2224467D01*
X-477958Y-2224350D01*
X-478780Y-2224115D01*
X-479601Y-2223998D01*
X-480188Y-2223880D01*
X-480657D01*
X-480892Y-2223763D01*
X-481009D01*
X-482535Y-2223411D01*
X-483943Y-2223059D01*
X-485117Y-2222707D01*
X-486290Y-2222355D01*
X-487229Y-2222003D01*
X-488050Y-2221651D01*
X-489576Y-2221064D01*
X-490515Y-2220595D01*
X-491219Y-2220243D01*
X-491571Y-2220008D01*
X-491688Y-2219891D01*
X-492275Y-2219304D01*
X-492627Y-2218717D01*
X-493096Y-2217544D01*
X-493214Y-2216957D01*
X-493331Y-2216605D01*
Y-2216370D01*
Y-2216253D01*
X-493214Y-2215314D01*
X-493096Y-2214610D01*
X-492510Y-2213319D01*
X-492158Y-2212850D01*
X-491923Y-2212498D01*
X-491805Y-2212380D01*
X-491688Y-2212263D01*
X-491101Y-2211676D01*
X-490515Y-2211324D01*
X-489224Y-2210855D01*
X-488754Y-2210738D01*
X-488285Y-2210620D01*
X-487229D01*
X-486290Y-2210855D01*
X-484413Y-2211207D01*
X-483474Y-2211442D01*
X-482770Y-2211559D01*
X-482300Y-2211794D01*
X-482066D01*
X-478428Y-2212615D01*
X-475142Y-2213319D01*
X-472326Y-2213789D01*
X-471035Y-2213906D01*
X-469979Y-2214023D01*
X-468923Y-2214141D01*
X-467984Y-2214258D01*
X-467280D01*
X-466693Y-2214375D01*
X-465520D01*
X-462821Y-2214258D01*
X-460474Y-2214023D01*
X-458361Y-2213554D01*
X-456601Y-2213084D01*
X-455193Y-2212615D01*
X-454254Y-2212146D01*
X-453667Y-2211911D01*
X-453433Y-2211794D01*
X-451907Y-2210738D01*
X-450616Y-2209564D01*
X-449560Y-2208391D01*
X-448739Y-2207217D01*
X-448035Y-2206161D01*
X-447683Y-2205340D01*
X-447448Y-2204870D01*
X-447331Y-2204635D01*
X-493331D01*
X-493214Y-2199941D01*
X-493096Y-2197947D01*
X-492979Y-2196186D01*
X-492627Y-2194543D01*
X-492392Y-2193135D01*
X-492040Y-2191962D01*
X-491688Y-2191023D01*
X-491571Y-2190554D01*
X-491453Y-2190319D01*
X-490397Y-2188207D01*
X-489341Y-2186329D01*
X-488285Y-2184569D01*
X-487229Y-2183161D01*
X-486407Y-2181987D01*
X-485703Y-2181048D01*
X-485117Y-2180579D01*
X-484999Y-2180344D01*
X-483826Y-2179288D01*
X-482535Y-2178349D01*
X-481009Y-2177411D01*
X-479719Y-2176707D01*
X-478428Y-2176120D01*
X-477372Y-2175533D01*
X-476668Y-2175298D01*
X-476550Y-2175181D01*
X-476433D01*
X-474321Y-2174360D01*
X-472091Y-2173773D01*
X-469979Y-2173304D01*
X-468101Y-2173069D01*
X-466458Y-2172834D01*
X-465167Y-2172717D01*
X-463994D01*
X-461882Y-2172834D01*
D02*
G37*
G36*
X624878Y-2174242D02*
X626169Y-2174359D01*
X627225Y-2174594D01*
X628046Y-2174946D01*
X628633Y-2175298D01*
X629103Y-2175533D01*
X629337Y-2175650D01*
X629455Y-2175768D01*
X630041Y-2176354D01*
X630393Y-2177058D01*
X630863Y-2178349D01*
X630980Y-2178936D01*
X631098Y-2179288D01*
Y-2179640D01*
Y-2179757D01*
X630980Y-2180579D01*
X630863Y-2181400D01*
X630276Y-2182691D01*
X629924Y-2183160D01*
X629689Y-2183513D01*
X629572Y-2183630D01*
X629455Y-2183747D01*
X628633Y-2184217D01*
X627812Y-2184569D01*
X625817Y-2185038D01*
X624878Y-2185155D01*
X624174Y-2185273D01*
X614434D01*
Y-2212615D01*
X627812D01*
X629220Y-2212732D01*
X630511Y-2212850D01*
X631567Y-2213084D01*
X632388Y-2213436D01*
X632975Y-2213788D01*
X633445Y-2214023D01*
X633679Y-2214140D01*
X633797Y-2214258D01*
X634383Y-2214844D01*
X634735Y-2215549D01*
X635205Y-2216839D01*
X635322Y-2217426D01*
X635439Y-2217778D01*
Y-2218130D01*
Y-2218248D01*
X635322Y-2219069D01*
X635205Y-2219890D01*
X634618Y-2221181D01*
X634266Y-2221651D01*
X634031Y-2222003D01*
X633914Y-2222120D01*
X633797Y-2222237D01*
X632975Y-2222707D01*
X632154Y-2223059D01*
X630159Y-2223528D01*
X629220Y-2223646D01*
X628516Y-2223763D01*
X589908D01*
X588500Y-2223646D01*
X587209Y-2223528D01*
X586271Y-2223293D01*
X585449Y-2222941D01*
X584862Y-2222707D01*
X584393Y-2222472D01*
X584158Y-2222355D01*
X584041Y-2222237D01*
X583454Y-2221651D01*
X582985Y-2220947D01*
X582750Y-2220242D01*
X582515Y-2219656D01*
X582398Y-2219069D01*
X582281Y-2218600D01*
Y-2218365D01*
Y-2218248D01*
X582398Y-2217309D01*
X582515Y-2216605D01*
X583102Y-2215314D01*
X583454Y-2214844D01*
X583806Y-2214492D01*
X583924Y-2214375D01*
X584041Y-2214258D01*
X584745Y-2213671D01*
X585684Y-2213319D01*
X587679Y-2212850D01*
X588500Y-2212732D01*
X589204Y-2212615D01*
X603286D01*
Y-2174125D01*
X623470D01*
X624878Y-2174242D01*
D02*
G37*
G36*
X541444Y-2172951D02*
X542852Y-2173186D01*
X544025Y-2173421D01*
X544964Y-2173655D01*
X545786Y-2173890D01*
X546255Y-2174007D01*
X546372Y-2174125D01*
X547663Y-2174711D01*
X548954Y-2175298D01*
X550127Y-2175885D01*
X551066Y-2176589D01*
X551888Y-2177058D01*
X552474Y-2177528D01*
X552944Y-2177880D01*
X553061Y-2177997D01*
Y-2174125D01*
X564209D01*
X565617Y-2174242D01*
X566908Y-2174359D01*
X567964Y-2174594D01*
X568786Y-2174946D01*
X569372Y-2175298D01*
X569842Y-2175533D01*
X570077Y-2175650D01*
X570194Y-2175768D01*
X570781Y-2176354D01*
X571133Y-2177058D01*
X571602Y-2178349D01*
X571719Y-2178936D01*
X571837Y-2179288D01*
Y-2179640D01*
Y-2179757D01*
X571719Y-2180579D01*
X571602Y-2181400D01*
X571015Y-2182691D01*
X570663Y-2183160D01*
X570429Y-2183513D01*
X570311Y-2183630D01*
X570194Y-2183747D01*
X569372Y-2184217D01*
X568551Y-2184569D01*
X566556Y-2185038D01*
X565617Y-2185155D01*
X564913Y-2185273D01*
X564209D01*
Y-2212615D01*
X565617D01*
X566791Y-2212732D01*
X567730Y-2212967D01*
X568434Y-2213084D01*
X569020Y-2213319D01*
X569372Y-2213554D01*
X569490Y-2213671D01*
X569607D01*
X570311Y-2214492D01*
X570898Y-2215314D01*
X571250Y-2216018D01*
X571602Y-2216722D01*
X571719Y-2217309D01*
X571837Y-2217778D01*
Y-2218130D01*
Y-2218248D01*
X571719Y-2219069D01*
X571602Y-2219890D01*
X571015Y-2221181D01*
X570663Y-2221651D01*
X570429Y-2222003D01*
X570311Y-2222120D01*
X570194Y-2222237D01*
X569372Y-2222707D01*
X568551Y-2223059D01*
X566556Y-2223528D01*
X565617Y-2223646D01*
X564913Y-2223763D01*
X553061D01*
X551653Y-2223646D01*
X550362Y-2223528D01*
X549423Y-2223293D01*
X548602Y-2222941D01*
X548015Y-2222707D01*
X547546Y-2222472D01*
X547311Y-2222355D01*
X547194Y-2222237D01*
X546607Y-2221651D01*
X546138Y-2220947D01*
X545903Y-2220242D01*
X545668Y-2219656D01*
X545551Y-2219069D01*
X545434Y-2218600D01*
Y-2218365D01*
Y-2218248D01*
X545551Y-2217309D01*
X545786Y-2216487D01*
X546607Y-2215079D01*
X547076Y-2214492D01*
X547428Y-2214023D01*
X547663Y-2213788D01*
X547780Y-2213671D01*
X548367Y-2213319D01*
X549071Y-2213084D01*
X550832Y-2212732D01*
X551653Y-2212615D01*
X553061D01*
Y-2191844D01*
X551418Y-2190201D01*
X550010Y-2188793D01*
X548719Y-2187620D01*
X547663Y-2186798D01*
X546842Y-2186094D01*
X546138Y-2185742D01*
X545786Y-2185507D01*
X545668Y-2185390D01*
X544495Y-2184921D01*
X543321Y-2184451D01*
X542265Y-2184217D01*
X541209Y-2184099D01*
X540270Y-2183982D01*
X539566Y-2183865D01*
X538862D01*
X536984Y-2183982D01*
X535459Y-2184217D01*
X534168Y-2184569D01*
X532995Y-2184921D01*
X532173Y-2185390D01*
X531586Y-2185742D01*
X531234Y-2185977D01*
X531117Y-2186094D01*
X530413Y-2186798D01*
X529944Y-2187620D01*
X529592Y-2188558D01*
X529357Y-2189497D01*
X529239Y-2190201D01*
X529122Y-2190905D01*
Y-2191375D01*
Y-2191492D01*
Y-2212615D01*
X530530Y-2212732D01*
X531821Y-2212850D01*
X532877Y-2213084D01*
X533699Y-2213436D01*
X534285Y-2213788D01*
X534755Y-2214023D01*
X534990Y-2214140D01*
X535107Y-2214258D01*
X535694Y-2214844D01*
X536046Y-2215549D01*
X536515Y-2216839D01*
X536632Y-2217426D01*
X536750Y-2217778D01*
Y-2218130D01*
Y-2218248D01*
X536632Y-2219069D01*
X536515Y-2219890D01*
X535928Y-2221181D01*
X535576Y-2221651D01*
X535342Y-2222003D01*
X535224Y-2222120D01*
X535107Y-2222237D01*
X534285Y-2222707D01*
X533464Y-2223059D01*
X531469Y-2223528D01*
X530530Y-2223646D01*
X529826Y-2223763D01*
X517974D01*
X516566Y-2223646D01*
X515275Y-2223528D01*
X514336Y-2223293D01*
X513515Y-2222941D01*
X512928Y-2222707D01*
X512459Y-2222472D01*
X512224Y-2222355D01*
X512107Y-2222237D01*
X511520Y-2221651D01*
X511051Y-2220947D01*
X510816Y-2220242D01*
X510581Y-2219656D01*
X510464Y-2219069D01*
X510346Y-2218600D01*
Y-2218365D01*
Y-2218248D01*
X510464Y-2217309D01*
X510581Y-2216605D01*
X511168Y-2215314D01*
X511520Y-2214844D01*
X511872Y-2214492D01*
X511989Y-2214375D01*
X512107Y-2214258D01*
X512811Y-2213671D01*
X513750Y-2213319D01*
X515744Y-2212850D01*
X516566Y-2212732D01*
X517270Y-2212615D01*
X517974D01*
Y-2191844D01*
X518209Y-2189028D01*
X518678Y-2186446D01*
X519500Y-2184217D01*
X520321Y-2182339D01*
X521142Y-2180931D01*
X521964Y-2179875D01*
X522433Y-2179171D01*
X522668Y-2178936D01*
X523841Y-2177880D01*
X525015Y-2176824D01*
X526306Y-2176002D01*
X527597Y-2175298D01*
X530178Y-2174242D01*
X532643Y-2173538D01*
X534872Y-2173069D01*
X535928Y-2172951D01*
X536750Y-2172834D01*
X537454Y-2172717D01*
X540035D01*
X541444Y-2172951D01*
D02*
G37*
G36*
X258166Y-2172834D02*
X259574Y-2172951D01*
X260865Y-2173303D01*
X262038Y-2173538D01*
X262977Y-2173890D01*
X263798Y-2174242D01*
X264268Y-2174359D01*
X264502Y-2174477D01*
X266145Y-2175181D01*
X267905Y-2176237D01*
X269783Y-2177293D01*
X271543Y-2178467D01*
X273069Y-2179523D01*
X274360Y-2180344D01*
X274829Y-2180696D01*
X275181Y-2180931D01*
X275416Y-2181048D01*
X275533Y-2181166D01*
Y-2174125D01*
X290671D01*
X292079Y-2174242D01*
X293370Y-2174359D01*
X294426Y-2174594D01*
X295248Y-2174946D01*
X295834Y-2175298D01*
X296304Y-2175533D01*
X296538Y-2175650D01*
X296656Y-2175768D01*
X297242Y-2176354D01*
X297595Y-2177058D01*
X298064Y-2178349D01*
X298181Y-2178936D01*
X298299Y-2179288D01*
Y-2179640D01*
Y-2179757D01*
X298181Y-2180579D01*
X298064Y-2181400D01*
X297477Y-2182691D01*
X297125Y-2183160D01*
X296890Y-2183513D01*
X296773Y-2183630D01*
X296656Y-2183747D01*
X295834Y-2184217D01*
X295013Y-2184569D01*
X293018Y-2185038D01*
X292079Y-2185155D01*
X291375Y-2185273D01*
X286681D01*
Y-2212615D01*
X293370D01*
X294778Y-2212732D01*
X296069Y-2212850D01*
X297125Y-2213084D01*
X297947Y-2213436D01*
X298533Y-2213788D01*
X299003Y-2214023D01*
X299237Y-2214140D01*
X299355Y-2214258D01*
X299941Y-2214844D01*
X300294Y-2215549D01*
X300763Y-2216839D01*
X300880Y-2217426D01*
X300998Y-2217778D01*
Y-2218130D01*
Y-2218248D01*
X300880Y-2219069D01*
X300763Y-2219890D01*
X300176Y-2221181D01*
X299824Y-2221651D01*
X299589Y-2222003D01*
X299472Y-2222120D01*
X299355Y-2222237D01*
X298533Y-2222707D01*
X297712Y-2223059D01*
X295717Y-2223528D01*
X294778Y-2223646D01*
X294074Y-2223763D01*
X259574D01*
X258166Y-2223646D01*
X256875Y-2223528D01*
X255936Y-2223293D01*
X255115Y-2222941D01*
X254528Y-2222707D01*
X254058Y-2222472D01*
X253824Y-2222355D01*
X253706Y-2222237D01*
X253120Y-2221651D01*
X252650Y-2220947D01*
X252416Y-2220242D01*
X252181Y-2219656D01*
X252064Y-2219069D01*
X251946Y-2218600D01*
Y-2218365D01*
Y-2218248D01*
X252064Y-2217309D01*
X252181Y-2216605D01*
X252768Y-2215314D01*
X253120Y-2214844D01*
X253472Y-2214492D01*
X253589Y-2214375D01*
X253706Y-2214258D01*
X254410Y-2213671D01*
X255349Y-2213319D01*
X257344Y-2212850D01*
X258166Y-2212732D01*
X258870Y-2212615D01*
X275533D01*
Y-2195717D01*
X273069Y-2193604D01*
X270839Y-2191844D01*
X268844Y-2190319D01*
X267084Y-2189145D01*
X265793Y-2188206D01*
X264737Y-2187502D01*
X264150Y-2187033D01*
X263916Y-2186916D01*
X262273Y-2185859D01*
X260865Y-2185155D01*
X259574Y-2184569D01*
X258635Y-2184217D01*
X257814Y-2183982D01*
X257344Y-2183865D01*
X256875D01*
X256171Y-2183982D01*
X255467Y-2184217D01*
X254176Y-2184921D01*
X253706Y-2185273D01*
X253237Y-2185625D01*
X253002Y-2185859D01*
X252885Y-2185977D01*
X252064Y-2186681D01*
X251242Y-2187150D01*
X250421Y-2187620D01*
X249717Y-2187854D01*
X249247Y-2187972D01*
X248778Y-2188089D01*
X248426D01*
X247604Y-2187972D01*
X246783Y-2187854D01*
X245492Y-2187268D01*
X245023Y-2186916D01*
X244671Y-2186681D01*
X244553Y-2186564D01*
X244436Y-2186446D01*
X243849Y-2185742D01*
X243380Y-2185155D01*
X243145Y-2184451D01*
X242910Y-2183865D01*
X242793Y-2183278D01*
X242676Y-2182808D01*
Y-2182574D01*
Y-2182456D01*
X242793Y-2181400D01*
X243262Y-2180344D01*
X243732Y-2179405D01*
X244436Y-2178584D01*
X245023Y-2177880D01*
X245609Y-2177293D01*
X246079Y-2176941D01*
X246196Y-2176824D01*
X248191Y-2175416D01*
X250069Y-2174477D01*
X251829Y-2173773D01*
X253472Y-2173186D01*
X254880Y-2172951D01*
X255936Y-2172834D01*
X256640Y-2172717D01*
X256875D01*
X258166Y-2172834D01*
D02*
G37*
G36*
X25582Y-2157696D02*
X26873Y-2157814D01*
X27929Y-2158048D01*
X28750Y-2158400D01*
X29337Y-2158752D01*
X29806Y-2158987D01*
X30041Y-2159104D01*
X30158Y-2159222D01*
X30745Y-2159808D01*
X31097Y-2160513D01*
X31567Y-2161803D01*
X31684Y-2162390D01*
X31801Y-2162742D01*
Y-2163094D01*
Y-2163212D01*
X31684Y-2164033D01*
X31567Y-2164854D01*
X30980Y-2166145D01*
X30628Y-2166615D01*
X30393Y-2166967D01*
X30276Y-2167084D01*
X30158Y-2167201D01*
X29337Y-2167671D01*
X28516Y-2168023D01*
X26521Y-2168492D01*
X25582Y-2168610D01*
X24878Y-2168727D01*
X22413D01*
Y-2212615D01*
X24174D01*
X25582Y-2212732D01*
X26873Y-2212850D01*
X27929Y-2213084D01*
X28750Y-2213437D01*
X29337Y-2213789D01*
X29806Y-2214023D01*
X30041Y-2214141D01*
X30158Y-2214258D01*
X30745Y-2214845D01*
X31097Y-2215549D01*
X31567Y-2216840D01*
X31684Y-2217426D01*
X31801Y-2217778D01*
Y-2218130D01*
Y-2218248D01*
X31684Y-2219069D01*
X31567Y-2219891D01*
X30980Y-2221181D01*
X30628Y-2221651D01*
X30393Y-2222003D01*
X30276Y-2222120D01*
X30158Y-2222238D01*
X29337Y-2222707D01*
X28516Y-2223059D01*
X26521Y-2223528D01*
X25582Y-2223646D01*
X24878Y-2223763D01*
X0D01*
X-1408Y-2223646D01*
X-2699Y-2223528D01*
X-3638Y-2223294D01*
X-4459Y-2222942D01*
X-5046Y-2222707D01*
X-5515Y-2222472D01*
X-5750Y-2222355D01*
X-5867Y-2222238D01*
X-6454Y-2221651D01*
X-6924Y-2220947D01*
X-7158Y-2220243D01*
X-7393Y-2219656D01*
X-7510Y-2219069D01*
X-7628Y-2218600D01*
Y-2218365D01*
Y-2218248D01*
X-7510Y-2217309D01*
X-7393Y-2216605D01*
X-6806Y-2215314D01*
X-6454Y-2214845D01*
X-6102Y-2214493D01*
X-5985Y-2214375D01*
X-5867Y-2214258D01*
X-5163Y-2213671D01*
X-4225Y-2213319D01*
X-2230Y-2212850D01*
X-1408Y-2212732D01*
X-704Y-2212615D01*
X11265D01*
Y-2201115D01*
X704D01*
X-1760Y-2200998D01*
X-3872Y-2200880D01*
X-5750Y-2200646D01*
X-7276Y-2200294D01*
X-8566Y-2200059D01*
X-9505Y-2199824D01*
X-9975Y-2199707D01*
X-10209Y-2199589D01*
X-11735Y-2198885D01*
X-13260Y-2198181D01*
X-14668Y-2197360D01*
X-15842Y-2196538D01*
X-16898Y-2195834D01*
X-17602Y-2195248D01*
X-18189Y-2194896D01*
X-18306Y-2194778D01*
X-19714Y-2193605D01*
X-20888Y-2192314D01*
X-21827Y-2191258D01*
X-22648Y-2190202D01*
X-23235Y-2189380D01*
X-23587Y-2188793D01*
X-23822Y-2188324D01*
X-23939Y-2188207D01*
X-24760Y-2186564D01*
X-25347Y-2184921D01*
X-25699Y-2183395D01*
X-26051Y-2181987D01*
X-26169Y-2180696D01*
X-26286Y-2179758D01*
Y-2179171D01*
Y-2178936D01*
X-26169Y-2177293D01*
X-26051Y-2175768D01*
X-25699Y-2174242D01*
X-25230Y-2172834D01*
X-24174Y-2170252D01*
X-23000Y-2168023D01*
X-21709Y-2166263D01*
X-21123Y-2165559D01*
X-20653Y-2164854D01*
X-20184Y-2164385D01*
X-19832Y-2164033D01*
X-19714Y-2163916D01*
X-19597Y-2163798D01*
X-18306Y-2162742D01*
X-16898Y-2161686D01*
X-15490Y-2160865D01*
X-13964Y-2160161D01*
X-10913Y-2159104D01*
X-8097Y-2158400D01*
X-6689Y-2158048D01*
X-5515Y-2157931D01*
X-4342Y-2157814D01*
X-3403Y-2157696D01*
X-2582Y-2157579D01*
X24174D01*
X25582Y-2157696D01*
D02*
G37*
G36*
X-103501D02*
X-102210Y-2157814D01*
X-101154Y-2158048D01*
X-100333Y-2158400D01*
X-99746Y-2158752D01*
X-99276Y-2158987D01*
X-99042Y-2159104D01*
X-98924Y-2159222D01*
X-98338Y-2159808D01*
X-97986Y-2160513D01*
X-97516Y-2161803D01*
X-97399Y-2162390D01*
X-97281Y-2162742D01*
Y-2163094D01*
Y-2163212D01*
X-97399Y-2164033D01*
X-97516Y-2164854D01*
X-98103Y-2166145D01*
X-98455Y-2166615D01*
X-98690Y-2166967D01*
X-98807Y-2167084D01*
X-98924Y-2167201D01*
X-99746Y-2167671D01*
X-100567Y-2168023D01*
X-102562Y-2168492D01*
X-103501Y-2168610D01*
X-104205Y-2168727D01*
X-106669D01*
Y-2212615D01*
X-104909D01*
X-103501Y-2212732D01*
X-102210Y-2212850D01*
X-101154Y-2213084D01*
X-100333Y-2213437D01*
X-99746Y-2213789D01*
X-99276Y-2214023D01*
X-99042Y-2214141D01*
X-98924Y-2214258D01*
X-98338Y-2214845D01*
X-97986Y-2215549D01*
X-97516Y-2216840D01*
X-97399Y-2217426D01*
X-97281Y-2217778D01*
Y-2218130D01*
Y-2218248D01*
X-97399Y-2219069D01*
X-97516Y-2219891D01*
X-98103Y-2221181D01*
X-98455Y-2221651D01*
X-98690Y-2222003D01*
X-98807Y-2222120D01*
X-98924Y-2222238D01*
X-99746Y-2222707D01*
X-100567Y-2223059D01*
X-102562Y-2223528D01*
X-103501Y-2223646D01*
X-104205Y-2223763D01*
X-137767D01*
X-139996Y-2223646D01*
X-141874Y-2223528D01*
X-143634Y-2223294D01*
X-145159Y-2223059D01*
X-146333Y-2222824D01*
X-147154Y-2222590D01*
X-147624Y-2222355D01*
X-147858D01*
X-149384Y-2221768D01*
X-150675Y-2221181D01*
X-151848Y-2220595D01*
X-152787Y-2219891D01*
X-153609Y-2219421D01*
X-154195Y-2218952D01*
X-154547Y-2218717D01*
X-154665Y-2218600D01*
X-156073Y-2217192D01*
X-157246Y-2215783D01*
X-157598Y-2215197D01*
X-157950Y-2214727D01*
X-158068Y-2214375D01*
X-158185Y-2214258D01*
X-158889Y-2212850D01*
X-159359Y-2211442D01*
X-159711Y-2210151D01*
X-159945Y-2208977D01*
X-160063Y-2207921D01*
X-160180Y-2207100D01*
Y-2206630D01*
Y-2206396D01*
X-160063Y-2204401D01*
X-159711Y-2202641D01*
X-159359Y-2200998D01*
X-158889Y-2199589D01*
X-158302Y-2198416D01*
X-157950Y-2197477D01*
X-157598Y-2197008D01*
X-157481Y-2196773D01*
X-156425Y-2195248D01*
X-155134Y-2193839D01*
X-153843Y-2192549D01*
X-152552Y-2191492D01*
X-151379Y-2190554D01*
X-150440Y-2189967D01*
X-149853Y-2189498D01*
X-149736Y-2189380D01*
X-149619D01*
X-150557Y-2188324D01*
X-151496Y-2187268D01*
X-152200Y-2186329D01*
X-152787Y-2185390D01*
X-153256Y-2184686D01*
X-153609Y-2184100D01*
X-153726Y-2183630D01*
X-153843Y-2183513D01*
X-154313Y-2182222D01*
X-154782Y-2181048D01*
X-155017Y-2179875D01*
X-155134Y-2178819D01*
X-155251Y-2177880D01*
X-155369Y-2177176D01*
Y-2176707D01*
Y-2176589D01*
X-155251Y-2175181D01*
X-155134Y-2173773D01*
X-154430Y-2171191D01*
X-153374Y-2168962D01*
X-152318Y-2166967D01*
X-151144Y-2165441D01*
X-150088Y-2164150D01*
X-149736Y-2163798D01*
X-149384Y-2163446D01*
X-149267Y-2163329D01*
X-149149Y-2163212D01*
X-147976Y-2162273D01*
X-146685Y-2161334D01*
X-144103Y-2159926D01*
X-141404Y-2158987D01*
X-138823Y-2158283D01*
X-136476Y-2157814D01*
X-135537Y-2157696D01*
X-134598D01*
X-133894Y-2157579D01*
X-104909D01*
X-103501Y-2157696D01*
D02*
G37*
G36*
X-372111D02*
X-370820Y-2157814D01*
X-369764Y-2158048D01*
X-368942Y-2158400D01*
X-368355Y-2158752D01*
X-367886Y-2158987D01*
X-367651Y-2159104D01*
X-367534Y-2159222D01*
X-366947Y-2159808D01*
X-366595Y-2160513D01*
X-366126Y-2161803D01*
X-366008Y-2162390D01*
X-365891Y-2162742D01*
Y-2163094D01*
Y-2163212D01*
X-366008Y-2164033D01*
X-366126Y-2164854D01*
X-366712Y-2166145D01*
X-367065Y-2166615D01*
X-367299Y-2166967D01*
X-367417Y-2167084D01*
X-367534Y-2167201D01*
X-368355Y-2167671D01*
X-369177Y-2168023D01*
X-371172Y-2168492D01*
X-372111Y-2168610D01*
X-372815Y-2168727D01*
X-375279D01*
Y-2212615D01*
X-373519D01*
X-372111Y-2212732D01*
X-370820Y-2212850D01*
X-369764Y-2213084D01*
X-368942Y-2213437D01*
X-368355Y-2213789D01*
X-367886Y-2214023D01*
X-367651Y-2214141D01*
X-367534Y-2214258D01*
X-366947Y-2214845D01*
X-366595Y-2215549D01*
X-366126Y-2216840D01*
X-366008Y-2217426D01*
X-365891Y-2217778D01*
Y-2218130D01*
Y-2218248D01*
X-366008Y-2219069D01*
X-366126Y-2219891D01*
X-366712Y-2221181D01*
X-367065Y-2221651D01*
X-367299Y-2222003D01*
X-367417Y-2222120D01*
X-367534Y-2222238D01*
X-368355Y-2222707D01*
X-369177Y-2223059D01*
X-371172Y-2223528D01*
X-372111Y-2223646D01*
X-372815Y-2223763D01*
X-390417D01*
X-391825Y-2223646D01*
X-393116Y-2223528D01*
X-394055Y-2223294D01*
X-394876Y-2222942D01*
X-395463Y-2222707D01*
X-395932Y-2222472D01*
X-396167Y-2222355D01*
X-396284Y-2222238D01*
X-396871Y-2221651D01*
X-397340Y-2220947D01*
X-397575Y-2220243D01*
X-397810Y-2219656D01*
X-397927Y-2219069D01*
X-398044Y-2218600D01*
Y-2218365D01*
Y-2218248D01*
X-397927Y-2217309D01*
X-397810Y-2216605D01*
X-397223Y-2215314D01*
X-396871Y-2214845D01*
X-396519Y-2214493D01*
X-396402Y-2214375D01*
X-396284Y-2214258D01*
X-395580Y-2213671D01*
X-394641Y-2213319D01*
X-392646Y-2212850D01*
X-391825Y-2212732D01*
X-391121Y-2212615D01*
X-386427D01*
Y-2198416D01*
X-397458D01*
X-399218Y-2199355D01*
X-400978Y-2200763D01*
X-402856Y-2202406D01*
X-404733Y-2204166D01*
X-406611Y-2206161D01*
X-408488Y-2208391D01*
X-412126Y-2212732D01*
X-413652Y-2214845D01*
X-415177Y-2216840D01*
X-416585Y-2218717D01*
X-417759Y-2220360D01*
X-418698Y-2221768D01*
X-419402Y-2222824D01*
X-419871Y-2223528D01*
X-419988Y-2223646D01*
Y-2223763D01*
X-425739D01*
X-427147Y-2223646D01*
X-428438Y-2223528D01*
X-429376Y-2223294D01*
X-430198Y-2222942D01*
X-430785Y-2222707D01*
X-431254Y-2222472D01*
X-431489Y-2222355D01*
X-431606Y-2222238D01*
X-432193Y-2221651D01*
X-432662Y-2220947D01*
X-432897Y-2220243D01*
X-433131Y-2219656D01*
X-433249Y-2219069D01*
X-433366Y-2218600D01*
Y-2218365D01*
Y-2218248D01*
X-433249Y-2217309D01*
X-433014Y-2216488D01*
X-432310Y-2215079D01*
X-431841Y-2214493D01*
X-431489Y-2214023D01*
X-431254Y-2213789D01*
X-431137Y-2213671D01*
X-430550Y-2213319D01*
X-429728Y-2213084D01*
X-427968Y-2212732D01*
X-427147Y-2212615D01*
X-425739D01*
X-424213Y-2210268D01*
X-422805Y-2208273D01*
X-421631Y-2206630D01*
X-420693Y-2205222D01*
X-419988Y-2204166D01*
X-419402Y-2203462D01*
X-419050Y-2202993D01*
X-418932Y-2202875D01*
X-417407Y-2201115D01*
X-415999Y-2199589D01*
X-414708Y-2198181D01*
X-413534Y-2197125D01*
X-412596Y-2196186D01*
X-411891Y-2195482D01*
X-411422Y-2195013D01*
X-411305Y-2194896D01*
X-413534Y-2193605D01*
X-415412Y-2192314D01*
X-416937Y-2191023D01*
X-418228Y-2189850D01*
X-419284Y-2188911D01*
X-419988Y-2188089D01*
X-420458Y-2187620D01*
X-420575Y-2187385D01*
X-421631Y-2185742D01*
X-422453Y-2184100D01*
X-422922Y-2182457D01*
X-423392Y-2180931D01*
X-423626Y-2179640D01*
X-423744Y-2178702D01*
Y-2177997D01*
Y-2177763D01*
X-423626Y-2176237D01*
X-423509Y-2174712D01*
X-422687Y-2172013D01*
X-421631Y-2169548D01*
X-420458Y-2167436D01*
X-419284Y-2165793D01*
X-418698Y-2165089D01*
X-418228Y-2164502D01*
X-417759Y-2164033D01*
X-417407Y-2163681D01*
X-417289Y-2163564D01*
X-417172Y-2163446D01*
X-415881Y-2162390D01*
X-414473Y-2161451D01*
X-413065Y-2160747D01*
X-411539Y-2160043D01*
X-408488Y-2158987D01*
X-405555Y-2158283D01*
X-404147Y-2158048D01*
X-402856Y-2157931D01*
X-401682Y-2157696D01*
X-400743D01*
X-399922Y-2157579D01*
X-373519D01*
X-372111Y-2157696D01*
D02*
G37*
G36*
X-714297D02*
X-713006Y-2157814D01*
X-712068Y-2158048D01*
X-711246Y-2158400D01*
X-710659Y-2158752D01*
X-710190Y-2158987D01*
X-709955Y-2159104D01*
X-709838Y-2159222D01*
X-709251Y-2159808D01*
X-708899Y-2160513D01*
X-708430Y-2161803D01*
X-708313Y-2162390D01*
X-708195Y-2162742D01*
Y-2163094D01*
Y-2163212D01*
X-708313Y-2164033D01*
X-708430Y-2164854D01*
X-709017Y-2166145D01*
X-709369Y-2166615D01*
X-709603Y-2166967D01*
X-709721Y-2167084D01*
X-709838Y-2167201D01*
X-710542Y-2167671D01*
X-711481Y-2168023D01*
X-713476Y-2168492D01*
X-714297Y-2168610D01*
X-715001Y-2168727D01*
X-722981D01*
X-705261Y-2212615D01*
X-703853Y-2212732D01*
X-702680Y-2212850D01*
X-701624Y-2213084D01*
X-700802Y-2213437D01*
X-700216Y-2213789D01*
X-699863Y-2214023D01*
X-699629Y-2214141D01*
X-699511Y-2214258D01*
X-698925Y-2214845D01*
X-698455Y-2215549D01*
X-698221Y-2216136D01*
X-697986Y-2216840D01*
X-697869Y-2217426D01*
X-697751Y-2217778D01*
Y-2218130D01*
Y-2218248D01*
X-697869Y-2219069D01*
X-697986Y-2219891D01*
X-698690Y-2221181D01*
X-698925Y-2221651D01*
X-699277Y-2222003D01*
X-699394Y-2222120D01*
X-699511Y-2222238D01*
X-700216Y-2222707D01*
X-701154Y-2223059D01*
X-703032Y-2223528D01*
X-703853Y-2223646D01*
X-704557Y-2223763D01*
X-720047D01*
X-721456Y-2223646D01*
X-722746Y-2223528D01*
X-723685Y-2223294D01*
X-724507Y-2222942D01*
X-725093Y-2222707D01*
X-725563Y-2222472D01*
X-725797Y-2222355D01*
X-725915Y-2222238D01*
X-726501Y-2221651D01*
X-726971Y-2220947D01*
X-727206Y-2220243D01*
X-727440Y-2219656D01*
X-727558Y-2219069D01*
X-727675Y-2218600D01*
Y-2218365D01*
Y-2218248D01*
X-727558Y-2217309D01*
X-727440Y-2216605D01*
X-726854Y-2215314D01*
X-726501Y-2214845D01*
X-726149Y-2214493D01*
X-726032Y-2214375D01*
X-725915Y-2214258D01*
X-725211Y-2213671D01*
X-724272Y-2213319D01*
X-722277Y-2212850D01*
X-721456Y-2212732D01*
X-720751Y-2212615D01*
X-717348D01*
X-720165Y-2205692D01*
X-747155D01*
X-749971Y-2212615D01*
X-747272D01*
X-745864Y-2212732D01*
X-744573Y-2212850D01*
X-743634Y-2213084D01*
X-742813Y-2213437D01*
X-742226Y-2213789D01*
X-741757Y-2214023D01*
X-741522Y-2214141D01*
X-741405Y-2214258D01*
X-740818Y-2214845D01*
X-740466Y-2215549D01*
X-739996Y-2216840D01*
X-739879Y-2217426D01*
X-739762Y-2217778D01*
Y-2218130D01*
Y-2218248D01*
X-739879Y-2219069D01*
X-739996Y-2219891D01*
X-740583Y-2221181D01*
X-740935Y-2221651D01*
X-741170Y-2222003D01*
X-741287Y-2222120D01*
X-741405Y-2222238D01*
X-742109Y-2222707D01*
X-743048Y-2223059D01*
X-745042Y-2223528D01*
X-745864Y-2223646D01*
X-746568Y-2223763D01*
X-762058D01*
X-763466Y-2223646D01*
X-764757Y-2223528D01*
X-765696Y-2223294D01*
X-766517Y-2222942D01*
X-767104Y-2222707D01*
X-767573Y-2222472D01*
X-767808Y-2222355D01*
X-767925Y-2222238D01*
X-768512Y-2221651D01*
X-768981Y-2220947D01*
X-769216Y-2220243D01*
X-769451Y-2219656D01*
X-769568Y-2219069D01*
X-769686Y-2218600D01*
Y-2218365D01*
Y-2218248D01*
X-769568Y-2217309D01*
X-769333Y-2216488D01*
X-768512Y-2215079D01*
X-768043Y-2214493D01*
X-767691Y-2214023D01*
X-767456Y-2213789D01*
X-767339Y-2213671D01*
X-766752Y-2213319D01*
X-766048Y-2213084D01*
X-764288Y-2212732D01*
X-763466Y-2212615D01*
X-762058D01*
X-739644Y-2157579D01*
X-715705D01*
X-714297Y-2157696D01*
D02*
G37*
G36*
X-598005Y-2210738D02*
X-596832Y-2210972D01*
X-595776Y-2211324D01*
X-594954Y-2211676D01*
X-594250Y-2212146D01*
X-593781Y-2212498D01*
X-593429Y-2212732D01*
X-593311Y-2212850D01*
X-592607Y-2213671D01*
X-592021Y-2214610D01*
X-591669Y-2215431D01*
X-591317Y-2216253D01*
X-591199Y-2216957D01*
X-591082Y-2217544D01*
Y-2218013D01*
Y-2218130D01*
X-591199Y-2219304D01*
X-591434Y-2220243D01*
X-591786Y-2221181D01*
X-592255Y-2222003D01*
X-592607Y-2222590D01*
X-592959Y-2223059D01*
X-593194Y-2223294D01*
X-593311Y-2223411D01*
X-594250Y-2224115D01*
X-595189Y-2224585D01*
X-596245Y-2225054D01*
X-597184Y-2225289D01*
X-598123Y-2225406D01*
X-598827Y-2225523D01*
X-599414D01*
X-600822Y-2225406D01*
X-601995Y-2225171D01*
X-603051Y-2224819D01*
X-603873Y-2224467D01*
X-604577Y-2224115D01*
X-605164Y-2223763D01*
X-605398Y-2223528D01*
X-605516Y-2223411D01*
X-606337Y-2222590D01*
X-606924Y-2221651D01*
X-607276Y-2220829D01*
X-607628Y-2220008D01*
X-607745Y-2219187D01*
X-607863Y-2218600D01*
Y-2218248D01*
Y-2218130D01*
X-607745Y-2216957D01*
X-607511Y-2216018D01*
X-607159Y-2215079D01*
X-606689Y-2214258D01*
X-606220Y-2213671D01*
X-605868Y-2213202D01*
X-605633Y-2212967D01*
X-605516Y-2212850D01*
X-604577Y-2212146D01*
X-603638Y-2211559D01*
X-602582Y-2211207D01*
X-601643Y-2210855D01*
X-600704Y-2210738D01*
X-600000Y-2210620D01*
X-599414D01*
X-598005Y-2210738D01*
D02*
G37*
G36*
X-262273Y-2153354D02*
X-261217Y-2153706D01*
X-260747Y-2153941D01*
X-260395Y-2154058D01*
X-260278Y-2154293D01*
X-260161D01*
X-259222Y-2155232D01*
X-258635Y-2156171D01*
X-258400Y-2156875D01*
X-258283Y-2156992D01*
Y-2157109D01*
Y-2157696D01*
X-258166Y-2158635D01*
Y-2159691D01*
Y-2160865D01*
Y-2162038D01*
Y-2162977D01*
Y-2163681D01*
Y-2163798D01*
Y-2163916D01*
Y-2230452D01*
Y-2232330D01*
Y-2233972D01*
X-258283Y-2235146D01*
Y-2235967D01*
Y-2236554D01*
X-258400Y-2236906D01*
Y-2237141D01*
X-258870Y-2238314D01*
X-259574Y-2239253D01*
X-260043Y-2239840D01*
X-260278Y-2240075D01*
X-261451Y-2240779D01*
X-262507Y-2241131D01*
X-262977D01*
X-263329Y-2241248D01*
X-263681D01*
X-264972Y-2241013D01*
X-266145Y-2240661D01*
X-266849Y-2240309D01*
X-266967Y-2240075D01*
X-267084D01*
X-268023Y-2239136D01*
X-268610Y-2238197D01*
X-268962Y-2237493D01*
X-269079Y-2237376D01*
Y-2237258D01*
Y-2236671D01*
X-269196Y-2235733D01*
Y-2234677D01*
Y-2233503D01*
Y-2232330D01*
Y-2231391D01*
Y-2230687D01*
Y-2230569D01*
Y-2230452D01*
Y-2163916D01*
Y-2162038D01*
Y-2160513D01*
Y-2159339D01*
Y-2158400D01*
X-269079Y-2157814D01*
Y-2157344D01*
Y-2157109D01*
X-268610Y-2155936D01*
X-267905Y-2155115D01*
X-267319Y-2154528D01*
X-267201Y-2154293D01*
X-267084D01*
X-265911Y-2153589D01*
X-264854Y-2153237D01*
X-264385Y-2153120D01*
X-263681D01*
X-262273Y-2153354D01*
D02*
G37*
G36*
X139409Y-2172951D02*
X140818Y-2173186D01*
X142108Y-2173421D01*
X143282Y-2173655D01*
X144103Y-2173890D01*
X144573Y-2174007D01*
X144807Y-2174125D01*
X146333Y-2174711D01*
X147858Y-2175298D01*
X149149Y-2176002D01*
X150440Y-2176589D01*
X151379Y-2177176D01*
X152200Y-2177645D01*
X152670Y-2177997D01*
X152904Y-2178115D01*
Y-2174125D01*
X165930D01*
X167338Y-2174242D01*
X168629Y-2174359D01*
X169685Y-2174594D01*
X170507Y-2174946D01*
X171093Y-2175298D01*
X171563Y-2175533D01*
X171797Y-2175650D01*
X171915Y-2175768D01*
X172502Y-2176354D01*
X172854Y-2177058D01*
X173323Y-2178349D01*
X173440Y-2178936D01*
X173558Y-2179288D01*
Y-2179640D01*
Y-2179757D01*
X173440Y-2180579D01*
X173323Y-2181400D01*
X172736Y-2182691D01*
X172384Y-2183160D01*
X172150Y-2183513D01*
X172032Y-2183630D01*
X171915Y-2183747D01*
X171093Y-2184217D01*
X170272Y-2184569D01*
X168277Y-2185038D01*
X167338Y-2185155D01*
X166634Y-2185273D01*
X164053D01*
Y-2235967D01*
X165930D01*
X167338Y-2236084D01*
X168629Y-2236202D01*
X169685Y-2236436D01*
X170507Y-2236671D01*
X171093Y-2237023D01*
X171563Y-2237258D01*
X171797Y-2237375D01*
X171915Y-2237493D01*
X172502Y-2238079D01*
X172854Y-2238783D01*
X173323Y-2240074D01*
X173440Y-2240661D01*
X173558Y-2241013D01*
Y-2241365D01*
Y-2241482D01*
X173440Y-2242304D01*
X173323Y-2243125D01*
X172736Y-2244416D01*
X172384Y-2244886D01*
X172150Y-2245238D01*
X172032Y-2245355D01*
X171915Y-2245472D01*
X171093Y-2246059D01*
X170272Y-2246411D01*
X168277Y-2246880D01*
X167338Y-2246998D01*
X166634Y-2247115D01*
X146216D01*
X144807Y-2246998D01*
X143517Y-2246880D01*
X142578Y-2246646D01*
X141756Y-2246294D01*
X141170Y-2245942D01*
X140700Y-2245707D01*
X140466Y-2245590D01*
X140348Y-2245472D01*
X139761Y-2244886D01*
X139292Y-2244181D01*
X139057Y-2243477D01*
X138823Y-2242891D01*
X138705Y-2242304D01*
X138588Y-2241834D01*
Y-2241600D01*
Y-2241482D01*
X138705Y-2240544D01*
X138823Y-2239840D01*
X139409Y-2238549D01*
X139761Y-2238079D01*
X140114Y-2237727D01*
X140231Y-2237610D01*
X140348Y-2237493D01*
X141052Y-2237023D01*
X141991Y-2236554D01*
X143986Y-2236202D01*
X144807Y-2236084D01*
X145512Y-2235967D01*
X152904D01*
Y-2217543D01*
X151379Y-2218482D01*
X149853Y-2219186D01*
X148445Y-2219890D01*
X147272Y-2220477D01*
X146216Y-2220829D01*
X145394Y-2221181D01*
X144925Y-2221299D01*
X144690Y-2221416D01*
X141522Y-2222120D01*
X140114Y-2222355D01*
X138823Y-2222472D01*
X137767D01*
X136828Y-2222589D01*
X136124D01*
X134246Y-2222472D01*
X132486Y-2222355D01*
X129083Y-2221651D01*
X125914Y-2220712D01*
X124624Y-2220125D01*
X123333Y-2219539D01*
X122159Y-2219069D01*
X121103Y-2218482D01*
X120164Y-2218013D01*
X119460Y-2217544D01*
X118874Y-2217192D01*
X118404Y-2216840D01*
X118169Y-2216722D01*
X118052Y-2216605D01*
X116409Y-2215197D01*
X114884Y-2213789D01*
X113593Y-2212263D01*
X112537Y-2210738D01*
X111598Y-2209212D01*
X110777Y-2207686D01*
X110190Y-2206278D01*
X109603Y-2204870D01*
X109251Y-2203462D01*
X108899Y-2202288D01*
X108664Y-2201232D01*
X108547Y-2200294D01*
Y-2199472D01*
X108430Y-2198885D01*
Y-2198533D01*
Y-2198416D01*
X108547Y-2196538D01*
X108782Y-2194778D01*
X109134Y-2193018D01*
X109720Y-2191375D01*
X111011Y-2188324D01*
X111715Y-2186916D01*
X112419Y-2185742D01*
X113241Y-2184569D01*
X113945Y-2183513D01*
X114649Y-2182691D01*
X115236Y-2181987D01*
X115822Y-2181401D01*
X116175Y-2180931D01*
X116409Y-2180696D01*
X116527Y-2180579D01*
X118052Y-2179171D01*
X119695Y-2177997D01*
X121338Y-2176941D01*
X122981Y-2176003D01*
X124624Y-2175298D01*
X126266Y-2174594D01*
X129317Y-2173655D01*
X130726Y-2173421D01*
X132017Y-2173186D01*
X133190Y-2172951D01*
X134246Y-2172834D01*
X134950Y-2172717D01*
X137767D01*
X139409Y-2172951D01*
D02*
G37*
%LPC*%
G36*
X-456193Y-1860725D02*
X-424471D01*
Y-1862236D01*
X-421450D01*
Y-1863746D01*
X-416918D01*
Y-1865257D01*
X-412387D01*
Y-1866767D01*
X-409365D01*
Y-1868278D01*
X-407855D01*
Y-1869788D01*
X-404834D01*
Y-1871299D01*
X-403323D01*
Y-1872810D01*
X-400302D01*
Y-1875831D01*
X-397281D01*
Y-1877341D01*
X-395770D01*
Y-1878852D01*
X-394260D01*
Y-1880363D01*
X-392749D01*
Y-1881873D01*
X-391238D01*
Y-1884894D01*
X-389728D01*
Y-1887915D01*
X-388217D01*
Y-1890937D01*
X-386707D01*
Y-1893958D01*
X-385196D01*
Y-1895468D01*
X-383686D01*
Y-1900000D01*
X-382175D01*
Y-1906042D01*
X-380664D01*
Y-1909063D01*
X-379154D01*
Y-1913595D01*
X-382175D01*
Y-1915106D01*
X-500000D01*
Y-1909063D01*
X-498489D01*
Y-1901511D01*
X-496979D01*
Y-1896979D01*
X-495468D01*
Y-1893958D01*
X-493958D01*
Y-1890937D01*
X-492447D01*
Y-1887915D01*
X-490937D01*
Y-1886405D01*
X-489426D01*
Y-1883384D01*
X-487915D01*
Y-1881873D01*
X-486405D01*
Y-1880363D01*
X-484894D01*
Y-1878852D01*
X-483384D01*
Y-1877341D01*
X-481873D01*
Y-1875831D01*
X-480363D01*
Y-1874320D01*
X-477341D01*
Y-1872810D01*
X-475831D01*
Y-1871299D01*
X-474320D01*
Y-1869788D01*
X-472810D01*
Y-1868278D01*
X-469788D01*
Y-1866767D01*
X-468278D01*
Y-1865257D01*
X-463746D01*
Y-1863746D01*
X-459214D01*
Y-1862236D01*
X-456193D01*
Y-1860725D01*
D02*
G37*
G36*
X184290Y-1829003D02*
X187311D01*
Y-1830514D01*
X188822D01*
Y-1835045D01*
X190332D01*
Y-1839577D01*
X191843D01*
Y-1842598D01*
X193354D01*
Y-1845619D01*
X194864D01*
Y-1848640D01*
X196375D01*
Y-1854683D01*
X197885D01*
Y-1857704D01*
X199396D01*
Y-1859214D01*
X200906D01*
Y-1863746D01*
X202417D01*
Y-1868278D01*
X203928D01*
Y-1869788D01*
X205438D01*
Y-1874320D01*
X206949D01*
Y-1878852D01*
X208459D01*
Y-1883384D01*
X209970D01*
Y-1884894D01*
X211480D01*
Y-1889426D01*
X212991D01*
Y-1893958D01*
X214502D01*
Y-1896979D01*
X216012D01*
Y-1900000D01*
X217523D01*
Y-1904532D01*
X219033D01*
Y-1907553D01*
X220544D01*
Y-1912085D01*
X222054D01*
Y-1916616D01*
X220544D01*
Y-1918127D01*
X219033D01*
Y-1916616D01*
X164653D01*
Y-1918127D01*
X163142D01*
Y-1916616D01*
X158610D01*
Y-1918127D01*
X155589D01*
Y-1916616D01*
X152568D01*
Y-1918127D01*
X151058D01*
Y-1916616D01*
X149547D01*
Y-1912085D01*
X151058D01*
Y-1907553D01*
X152568D01*
Y-1904532D01*
X154079D01*
Y-1901511D01*
X155589D01*
Y-1896979D01*
X157100D01*
Y-1892447D01*
X158610D01*
Y-1889426D01*
X160121D01*
Y-1886405D01*
X161632D01*
Y-1881873D01*
X163142D01*
Y-1878852D01*
X164653D01*
Y-1875831D01*
X166163D01*
Y-1871299D01*
X167674D01*
Y-1866767D01*
X169184D01*
Y-1863746D01*
X170695D01*
Y-1860725D01*
X172206D01*
Y-1856193D01*
X173716D01*
Y-1853172D01*
X175227D01*
Y-1850151D01*
X176737D01*
Y-1845619D01*
X178248D01*
Y-1842598D01*
X179758D01*
Y-1838066D01*
X181269D01*
Y-1833535D01*
X182780D01*
Y-1832024D01*
X184290D01*
Y-1829003D01*
D02*
G37*
G36*
X415408Y-1818429D02*
X475831D01*
Y-1869788D01*
Y-1871299D01*
Y-1900000D01*
X415408D01*
Y-1898489D01*
X409366D01*
Y-1896979D01*
X407855D01*
Y-1895468D01*
X403323D01*
Y-1893958D01*
X400302D01*
Y-1892447D01*
X397281D01*
Y-1890937D01*
X395771D01*
Y-1889426D01*
X394260D01*
Y-1887915D01*
X392749D01*
Y-1886405D01*
X391239D01*
Y-1884894D01*
X389728D01*
Y-1883384D01*
X388218D01*
Y-1880363D01*
X386707D01*
Y-1877341D01*
X385197D01*
Y-1874320D01*
X383686D01*
Y-1869788D01*
X382175D01*
Y-1848640D01*
X383686D01*
Y-1844109D01*
X385197D01*
Y-1839577D01*
X386707D01*
Y-1836556D01*
X388218D01*
Y-1835045D01*
X389728D01*
Y-1833535D01*
X391239D01*
Y-1832024D01*
X392749D01*
Y-1830514D01*
X394260D01*
Y-1829003D01*
X395771D01*
Y-1827492D01*
X397281D01*
Y-1825982D01*
X400302D01*
Y-1824471D01*
X401813D01*
Y-1822961D01*
X406345D01*
Y-1821450D01*
X409366D01*
Y-1819940D01*
X415408D01*
Y-1818429D01*
D02*
G37*
G36*
X209584Y-2202406D02*
X206298D01*
X204068Y-2202640D01*
X201956Y-2202875D01*
X200078Y-2203110D01*
X198435Y-2203344D01*
X197145Y-2203579D01*
X196675Y-2203696D01*
X196323D01*
X196089Y-2203814D01*
X195971D01*
Y-2208508D01*
X197497Y-2209446D01*
X199140Y-2210385D01*
X200665Y-2211089D01*
X202191Y-2211676D01*
X203364Y-2212263D01*
X204420Y-2212615D01*
X205007Y-2212732D01*
X205124Y-2212850D01*
X205242D01*
X207119Y-2213319D01*
X208762Y-2213671D01*
X210288Y-2214023D01*
X211696Y-2214140D01*
X212752Y-2214258D01*
X213573Y-2214375D01*
X214277D01*
X215920Y-2214258D01*
X217446Y-2214140D01*
X218737Y-2213788D01*
X219793Y-2213436D01*
X220732Y-2213202D01*
X221318Y-2212850D01*
X221670Y-2212732D01*
X221788Y-2212615D01*
X222257Y-2212263D01*
X222609Y-2211793D01*
X222961Y-2210972D01*
X223196Y-2210268D01*
Y-2210151D01*
Y-2210033D01*
X223079Y-2209212D01*
X222727Y-2208508D01*
X222257Y-2207804D01*
X221670Y-2207099D01*
X221084Y-2206630D01*
X220614Y-2206161D01*
X220262Y-2205926D01*
X220145Y-2205809D01*
X218267Y-2204635D01*
X216272Y-2203814D01*
X214277Y-2203227D01*
X212400Y-2202875D01*
X210874Y-2202523D01*
X209584Y-2202406D01*
D02*
G37*
G36*
X-463290Y-2183865D02*
X-464229D01*
X-466341Y-2183982D01*
X-468219Y-2184217D01*
X-469861Y-2184686D01*
X-471270Y-2185038D01*
X-472443Y-2185508D01*
X-473382Y-2185977D01*
X-473851Y-2186212D01*
X-474086Y-2186329D01*
X-475611Y-2187268D01*
X-476902Y-2188441D01*
X-478076Y-2189615D01*
X-479132Y-2190788D01*
X-479836Y-2191844D01*
X-480423Y-2192666D01*
X-480775Y-2193253D01*
X-480892Y-2193487D01*
X-447683D01*
X-448739Y-2191844D01*
X-449795Y-2190319D01*
X-450968Y-2189145D01*
X-452024Y-2188089D01*
X-452963Y-2187268D01*
X-453667Y-2186799D01*
X-454137Y-2186446D01*
X-454371Y-2186329D01*
X-456014Y-2185508D01*
X-457657Y-2184921D01*
X-459300Y-2184452D01*
X-460943Y-2184217D01*
X-462234Y-2183982D01*
X-463290Y-2183865D01*
D02*
G37*
G36*
X11265Y-2168727D02*
X-1643D01*
X-3872Y-2168844D01*
X-5985Y-2169196D01*
X-7628Y-2169666D01*
X-9036Y-2170252D01*
X-10209Y-2170839D01*
X-10913Y-2171309D01*
X-11500Y-2171661D01*
X-11617Y-2171778D01*
X-12791Y-2172951D01*
X-13612Y-2174125D01*
X-14316Y-2175298D01*
X-14668Y-2176355D01*
X-14903Y-2177293D01*
X-15138Y-2177997D01*
Y-2178467D01*
Y-2178702D01*
X-14903Y-2180344D01*
X-14434Y-2181870D01*
X-13730Y-2183278D01*
X-13026Y-2184452D01*
X-12204Y-2185390D01*
X-11500Y-2186094D01*
X-11031Y-2186564D01*
X-10796Y-2186681D01*
X-9036Y-2187737D01*
X-7158Y-2188559D01*
X-5163Y-2189145D01*
X-3286Y-2189498D01*
X-1643Y-2189732D01*
X-235Y-2189967D01*
X11265D01*
Y-2168727D01*
D02*
G37*
G36*
X-117817D02*
X-132486D01*
X-134598Y-2168844D01*
X-136476Y-2169079D01*
X-138001Y-2169431D01*
X-139292Y-2169900D01*
X-140231Y-2170370D01*
X-140818Y-2170722D01*
X-141287Y-2170957D01*
X-141404Y-2171074D01*
X-142343Y-2171895D01*
X-143047Y-2172834D01*
X-143517Y-2173656D01*
X-143869Y-2174477D01*
X-144103Y-2175181D01*
X-144221Y-2175768D01*
Y-2176120D01*
Y-2176237D01*
X-144103Y-2177411D01*
X-143751Y-2178584D01*
X-143282Y-2179523D01*
X-142695Y-2180344D01*
X-142108Y-2180931D01*
X-141639Y-2181518D01*
X-141287Y-2181753D01*
X-141170Y-2181870D01*
X-139409Y-2182926D01*
X-137649Y-2183747D01*
X-135772Y-2184334D01*
X-134011Y-2184686D01*
X-132486Y-2184921D01*
X-131312Y-2185156D01*
X-117817D01*
Y-2168727D01*
D02*
G37*
G36*
Y-2196304D02*
X-132603D01*
X-135420Y-2196421D01*
X-137884Y-2196773D01*
X-139996Y-2197360D01*
X-141756Y-2197947D01*
X-143047Y-2198533D01*
X-143986Y-2199120D01*
X-144573Y-2199472D01*
X-144807Y-2199589D01*
X-146216Y-2200763D01*
X-147272Y-2202054D01*
X-147976Y-2203110D01*
X-148563Y-2204166D01*
X-148797Y-2204987D01*
X-148915Y-2205692D01*
X-149032Y-2206161D01*
Y-2206278D01*
X-148915Y-2207217D01*
X-148680Y-2208156D01*
X-148328Y-2208860D01*
X-147976Y-2209447D01*
X-147506Y-2210033D01*
X-147154Y-2210385D01*
X-146920Y-2210503D01*
X-146802Y-2210620D01*
X-145629Y-2211324D01*
X-144103Y-2211794D01*
X-142578Y-2212146D01*
X-140935Y-2212380D01*
X-139527Y-2212498D01*
X-138236Y-2212615D01*
X-117817D01*
Y-2196304D01*
D02*
G37*
G36*
X-386427Y-2168727D02*
X-399218D01*
X-401565Y-2168844D01*
X-403560Y-2169196D01*
X-405320Y-2169666D01*
X-406728Y-2170135D01*
X-407784Y-2170604D01*
X-408606Y-2171074D01*
X-409075Y-2171426D01*
X-409192Y-2171543D01*
X-410366Y-2172599D01*
X-411187Y-2173538D01*
X-411774Y-2174594D01*
X-412126Y-2175533D01*
X-412478Y-2176237D01*
X-412596Y-2176824D01*
Y-2177293D01*
Y-2177411D01*
X-412478Y-2178232D01*
X-412361Y-2178936D01*
X-411657Y-2180344D01*
X-411305Y-2180931D01*
X-411070Y-2181401D01*
X-410835Y-2181635D01*
X-410718Y-2181753D01*
X-409897Y-2182574D01*
X-408840Y-2183278D01*
X-407784Y-2183982D01*
X-406611Y-2184569D01*
X-405555Y-2185156D01*
X-404616Y-2185508D01*
X-404029Y-2185742D01*
X-403912Y-2185860D01*
X-403794D01*
X-402386Y-2186329D01*
X-400861Y-2186681D01*
X-399453Y-2186916D01*
X-398044Y-2187033D01*
X-396871Y-2187151D01*
X-395932Y-2187268D01*
X-386427D01*
Y-2168727D01*
D02*
G37*
G36*
X-733660Y-2172365D02*
X-742695Y-2194543D01*
X-724624D01*
X-733660Y-2172365D01*
D02*
G37*
G36*
X137062Y-2183865D02*
X136241D01*
X134363Y-2183982D01*
X132603Y-2184217D01*
X131078Y-2184686D01*
X129787Y-2185038D01*
X128731Y-2185507D01*
X127909Y-2185977D01*
X127323Y-2186212D01*
X127205Y-2186329D01*
X125797Y-2187268D01*
X124624Y-2188324D01*
X123685Y-2189380D01*
X122863Y-2190319D01*
X122277Y-2191140D01*
X121807Y-2191844D01*
X121573Y-2192314D01*
X121455Y-2192431D01*
X120868Y-2193722D01*
X120399Y-2194896D01*
X120047Y-2195952D01*
X119812Y-2196773D01*
X119695Y-2197477D01*
X119578Y-2197947D01*
Y-2198299D01*
Y-2198416D01*
X119812Y-2200176D01*
X120282Y-2201819D01*
X121103Y-2203345D01*
X121925Y-2204635D01*
X122863Y-2205692D01*
X123685Y-2206630D01*
X124154Y-2207099D01*
X124389Y-2207334D01*
X126266Y-2208742D01*
X128261Y-2209681D01*
X130256Y-2210385D01*
X132134Y-2210972D01*
X133777Y-2211207D01*
X135068Y-2211324D01*
X135537Y-2211441D01*
X136241D01*
X138823Y-2211207D01*
X141170Y-2210737D01*
X143165Y-2210151D01*
X144925Y-2209329D01*
X146333Y-2208508D01*
X147389Y-2207921D01*
X147976Y-2207452D01*
X148211Y-2207217D01*
X149736Y-2205574D01*
X150910Y-2204048D01*
X151731Y-2202640D01*
X152318Y-2201232D01*
X152670Y-2200176D01*
X152787Y-2199237D01*
X152904Y-2198768D01*
Y-2198533D01*
X152787Y-2197008D01*
X152435Y-2195599D01*
X151848Y-2194191D01*
X151262Y-2192900D01*
X150675Y-2191727D01*
X150088Y-2190905D01*
X149736Y-2190436D01*
X149619Y-2190201D01*
X148680Y-2189028D01*
X147624Y-2188089D01*
X146568Y-2187268D01*
X145394Y-2186564D01*
X143165Y-2185390D01*
X141052Y-2184686D01*
X139175Y-2184217D01*
X138353Y-2184099D01*
X137649Y-2183982D01*
X137062Y-2183865D01*
D02*
G37*
%LPD*%
%TF.MD5,f627a652124f14874c3879c7e28b416a*%
M02*
