%TF.GenerationSoftware,Altium Limited,Altium Designer,22.2.1 (43)*%
G04 Layer_Physical_Order=2*
G04 Layer_Color=36540*
%FSLAX26Y26*%
%MOIN*%
%TF.SameCoordinates,FBDAFD36-F916-462A-90D8-3015B88DE517*%
%TF.FilePolarity,Positive*%
%TF.FileFunction,Copper,L2,Inr,Signal*%
%TF.Part,Single*%
G01*
G75*
%TA.AperFunction,ComponentPad*%
%ADD79C,0.059055*%
%ADD80R,0.059055X0.059055*%
%ADD81R,0.059055X0.086614*%
%ADD82O,0.059055X0.086614*%
%ADD83C,0.025591*%
%TA.AperFunction,ViaPad*%
%ADD84C,0.018110*%
G36*
X3720472Y2362205D02*
X2887030D01*
X2884659Y2366905D01*
X2886570Y2371519D01*
Y2376514D01*
X2884659Y2381128D01*
X2881127Y2384660D01*
X2876513Y2386572D01*
X2871518D01*
X2866903Y2384660D01*
X2864173Y2381929D01*
X2861442Y2384660D01*
X2856828Y2386572D01*
X2851833D01*
X2847218Y2384660D01*
X2844488Y2381930D01*
X2841757Y2384660D01*
X2837143Y2386572D01*
X2832148D01*
X2827533Y2384660D01*
X2824001Y2381128D01*
X2822090Y2376514D01*
Y2371519D01*
X2824001Y2366905D01*
X2821630Y2362205D01*
X2716535D01*
Y2224409D01*
X2244094D01*
Y1620801D01*
X990879D01*
Y3969751D01*
X3720472D01*
Y2362205D01*
D02*
G37*
G36*
X2883648Y2360498D02*
X2884115Y2360096D01*
X2884352Y2359526D01*
X2885172Y2359186D01*
X2885845Y2358606D01*
X2886460Y2358652D01*
X2887030Y2358416D01*
X3720472D01*
Y1620801D01*
X2247883D01*
Y2220621D01*
X2716535D01*
X2719214Y2221731D01*
X2720324Y2224409D01*
Y2358416D01*
X2821630D01*
X2822200Y2358652D01*
X2822815Y2358606D01*
X2823488Y2359186D01*
X2824309Y2359526D01*
X2824545Y2360096D01*
X2825012Y2360498D01*
X2825874Y2362205D01*
X2830353D01*
X2832148Y2361461D01*
X2837143D01*
X2838937Y2362205D01*
X2850038D01*
X2851833Y2361461D01*
X2856828D01*
X2858622Y2362205D01*
X2869723D01*
X2871518Y2361461D01*
X2876513D01*
X2878307Y2362205D01*
X2882787D01*
X2883648Y2360498D01*
D02*
G37*
%LPC*%
G36*
X2663472Y3937165D02*
X2663268D01*
Y3902637D01*
X2697796D01*
Y3902841D01*
X2695102Y3912895D01*
X2689898Y3921908D01*
X2682539Y3929267D01*
X2673525Y3934471D01*
X2663472Y3937165D01*
D02*
G37*
G36*
X2653268D02*
X2653064D01*
X2643011Y3934471D01*
X2633998Y3929267D01*
X2626638Y3921908D01*
X2621434Y3912895D01*
X2618741Y3902841D01*
Y3902637D01*
X2653268D01*
Y3937165D01*
D02*
G37*
G36*
X1763472D02*
X1763268D01*
Y3902637D01*
X1797796D01*
Y3902841D01*
X1795102Y3912895D01*
X1789898Y3921908D01*
X1782539Y3929267D01*
X1773525Y3934471D01*
X1763472Y3937165D01*
D02*
G37*
G36*
X1753268D02*
X1753064D01*
X1743011Y3934471D01*
X1733998Y3929267D01*
X1726638Y3921908D01*
X1721435Y3912895D01*
X1718741Y3902841D01*
Y3902637D01*
X1753268D01*
Y3937165D01*
D02*
G37*
G36*
X1662616Y3930665D02*
X1653920D01*
X1645520Y3928415D01*
X1637988Y3924066D01*
X1631839Y3917917D01*
X1627491Y3910386D01*
X1625240Y3901986D01*
Y3893290D01*
X1627491Y3884890D01*
X1631839Y3877358D01*
X1637988Y3871209D01*
X1645520Y3866861D01*
X1653920Y3864610D01*
X1662616D01*
X1671016Y3866861D01*
X1678547Y3871209D01*
X1684697Y3877358D01*
X1689045Y3884890D01*
X1691295Y3893290D01*
Y3901986D01*
X1689045Y3910386D01*
X1684697Y3917917D01*
X1678547Y3924066D01*
X1671016Y3928415D01*
X1662616Y3930665D01*
D02*
G37*
G36*
X1562617D02*
X1553920D01*
X1545520Y3928415D01*
X1537989Y3924066D01*
X1531840Y3917917D01*
X1527492Y3910386D01*
X1525241Y3901986D01*
Y3893290D01*
X1527492Y3884890D01*
X1531840Y3877358D01*
X1537989Y3871209D01*
X1545520Y3866861D01*
X1553920Y3864610D01*
X1562617D01*
X1571016Y3866861D01*
X1578548Y3871209D01*
X1584697Y3877358D01*
X1589045Y3884890D01*
X1591296Y3893290D01*
Y3901986D01*
X1589045Y3910386D01*
X1584697Y3917917D01*
X1578548Y3924066D01*
X1571016Y3928415D01*
X1562617Y3930665D01*
D02*
G37*
G36*
X1091295D02*
X1025241D01*
Y3864610D01*
X1091295D01*
Y3930665D01*
D02*
G37*
G36*
X1462616Y3930665D02*
X1453920D01*
X1445520Y3928414D01*
X1437989Y3924066D01*
X1431840Y3917917D01*
X1427492Y3910386D01*
X1425241Y3901986D01*
Y3893290D01*
X1427492Y3884890D01*
X1431840Y3877358D01*
X1437989Y3871209D01*
X1445520Y3866861D01*
X1453920Y3864610D01*
X1462616D01*
X1471016Y3866861D01*
X1478548Y3871209D01*
X1484697Y3877358D01*
X1489045Y3884890D01*
X1491296Y3893290D01*
Y3901986D01*
X1489045Y3910386D01*
X1484697Y3917917D01*
X1478548Y3924066D01*
X1471016Y3928414D01*
X1462616Y3930665D01*
D02*
G37*
G36*
X1362616D02*
X1353919D01*
X1345520Y3928414D01*
X1337988Y3924066D01*
X1331839Y3917917D01*
X1327491Y3910386D01*
X1325240Y3901986D01*
Y3893290D01*
X1327491Y3884890D01*
X1331839Y3877358D01*
X1337988Y3871209D01*
X1345520Y3866861D01*
X1353919Y3864610D01*
X1362616D01*
X1371016Y3866861D01*
X1378547Y3871209D01*
X1384696Y3877358D01*
X1389044Y3884890D01*
X1391295Y3893290D01*
Y3901986D01*
X1389044Y3910386D01*
X1384696Y3917917D01*
X1378547Y3924066D01*
X1371016Y3928414D01*
X1362616Y3930665D01*
D02*
G37*
G36*
X1262616D02*
X1253920D01*
X1245520Y3928414D01*
X1237989Y3924066D01*
X1231840Y3917917D01*
X1227492Y3910386D01*
X1225241Y3901986D01*
Y3893290D01*
X1227492Y3884890D01*
X1231840Y3877358D01*
X1237989Y3871209D01*
X1245520Y3866861D01*
X1253920Y3864610D01*
X1262616D01*
X1271016Y3866861D01*
X1278548Y3871209D01*
X1284697Y3877358D01*
X1289045Y3884890D01*
X1291296Y3893290D01*
Y3901986D01*
X1289045Y3910386D01*
X1284697Y3917917D01*
X1278548Y3924066D01*
X1271016Y3928414D01*
X1262616Y3930665D01*
D02*
G37*
G36*
X2262616Y3930665D02*
X2253920D01*
X2245520Y3928414D01*
X2237989Y3924066D01*
X2231840Y3917917D01*
X2227491Y3910386D01*
X2225241Y3901986D01*
Y3893289D01*
X2227491Y3884890D01*
X2231840Y3877358D01*
X2237989Y3871209D01*
X2245520Y3866861D01*
X2253920Y3864610D01*
X2262616D01*
X2271016Y3866861D01*
X2278548Y3871209D01*
X2284697Y3877358D01*
X2289045Y3884890D01*
X2291296Y3893289D01*
Y3901986D01*
X2289045Y3910386D01*
X2284697Y3917917D01*
X2278548Y3924066D01*
X2271016Y3928414D01*
X2262616Y3930665D01*
D02*
G37*
G36*
X2362617Y3930665D02*
X2353920D01*
X2345520Y3928414D01*
X2337989Y3924066D01*
X2331840Y3917917D01*
X2327492Y3910386D01*
X2325241Y3901986D01*
Y3893289D01*
X2327492Y3884890D01*
X2331840Y3877358D01*
X2337989Y3871209D01*
X2345520Y3866861D01*
X2353920Y3864610D01*
X2362617D01*
X2371017Y3866861D01*
X2378548Y3871209D01*
X2384697Y3877358D01*
X2389045Y3884890D01*
X2391296Y3893289D01*
Y3901986D01*
X2389045Y3910386D01*
X2384697Y3917917D01*
X2378548Y3924066D01*
X2371017Y3928414D01*
X2362617Y3930665D01*
D02*
G37*
G36*
X2062616D02*
X2053920D01*
X2045520Y3928414D01*
X2037989Y3924066D01*
X2031840Y3917917D01*
X2027491Y3910386D01*
X2025241Y3901986D01*
Y3893289D01*
X2027491Y3884890D01*
X2031840Y3877358D01*
X2037989Y3871209D01*
X2045520Y3866861D01*
X2053920Y3864610D01*
X2062616D01*
X2071016Y3866861D01*
X2078548Y3871209D01*
X2084697Y3877358D01*
X2089045Y3884890D01*
X2091296Y3893289D01*
Y3901986D01*
X2089045Y3910386D01*
X2084697Y3917917D01*
X2078548Y3924066D01*
X2071016Y3928414D01*
X2062616Y3930665D01*
D02*
G37*
G36*
X1162616D02*
X1153920D01*
X1145520Y3928414D01*
X1137989Y3924066D01*
X1131839Y3917917D01*
X1127491Y3910386D01*
X1125241Y3901986D01*
Y3893289D01*
X1127491Y3884890D01*
X1131839Y3877358D01*
X1137989Y3871209D01*
X1145520Y3866861D01*
X1153920Y3864610D01*
X1162616D01*
X1171016Y3866861D01*
X1178547Y3871209D01*
X1184697Y3877358D01*
X1189045Y3884890D01*
X1191295Y3893289D01*
Y3901986D01*
X1189045Y3910386D01*
X1184697Y3917917D01*
X1178547Y3924066D01*
X1171016Y3928414D01*
X1162616Y3930665D01*
D02*
G37*
G36*
X2562617Y3930665D02*
X2553920D01*
X2545520Y3928414D01*
X2537989Y3924066D01*
X2531840Y3917917D01*
X2527492Y3910386D01*
X2525241Y3901986D01*
Y3893289D01*
X2527492Y3884889D01*
X2531840Y3877358D01*
X2537989Y3871209D01*
X2545520Y3866861D01*
X2553920Y3864610D01*
X2562617D01*
X2571017Y3866861D01*
X2578548Y3871209D01*
X2584697Y3877358D01*
X2589045Y3884889D01*
X2591296Y3893289D01*
Y3901986D01*
X2589045Y3910386D01*
X2584697Y3917917D01*
X2578548Y3924066D01*
X2571017Y3928414D01*
X2562617Y3930665D01*
D02*
G37*
G36*
X2162617D02*
X2153920D01*
X2145520Y3928414D01*
X2137989Y3924066D01*
X2131840Y3917917D01*
X2127492Y3910386D01*
X2125241Y3901986D01*
Y3893289D01*
X2127492Y3884889D01*
X2131840Y3877358D01*
X2137989Y3871209D01*
X2145520Y3866861D01*
X2153920Y3864610D01*
X2162617D01*
X2171016Y3866861D01*
X2178548Y3871209D01*
X2184697Y3877358D01*
X2189045Y3884889D01*
X2191296Y3893289D01*
Y3901986D01*
X2189045Y3910386D01*
X2184697Y3917917D01*
X2178548Y3924066D01*
X2171016Y3928414D01*
X2162617Y3930665D01*
D02*
G37*
G36*
X1991296D02*
X1925241D01*
Y3864610D01*
X1991296D01*
Y3930665D01*
D02*
G37*
G36*
X2462617Y3930665D02*
X2453920D01*
X2445520Y3928414D01*
X2437989Y3924066D01*
X2431840Y3917917D01*
X2427492Y3910385D01*
X2425241Y3901985D01*
Y3893289D01*
X2427492Y3884889D01*
X2431840Y3877358D01*
X2437989Y3871209D01*
X2445520Y3866861D01*
X2453920Y3864610D01*
X2462617D01*
X2471017Y3866861D01*
X2478548Y3871209D01*
X2484697Y3877358D01*
X2489045Y3884889D01*
X2491296Y3893289D01*
Y3901985D01*
X2489045Y3910385D01*
X2484697Y3917917D01*
X2478548Y3924066D01*
X2471017Y3928414D01*
X2462617Y3930665D01*
D02*
G37*
G36*
X2697796Y3892637D02*
X2663268D01*
Y3858110D01*
X2663472D01*
X2673525Y3860804D01*
X2682539Y3866008D01*
X2689898Y3873367D01*
X2695102Y3882380D01*
X2697796Y3892434D01*
Y3892637D01*
D02*
G37*
G36*
X2653268D02*
X2618741D01*
Y3892434D01*
X2621434Y3882380D01*
X2626638Y3873367D01*
X2633998Y3866008D01*
X2643011Y3860804D01*
X2653064Y3858110D01*
X2653268D01*
Y3892637D01*
D02*
G37*
G36*
X1797796D02*
X1763268D01*
Y3858110D01*
X1763472D01*
X1773525Y3860804D01*
X1782539Y3866008D01*
X1789898Y3873367D01*
X1795102Y3882380D01*
X1797796Y3892434D01*
Y3892637D01*
D02*
G37*
G36*
X1753268D02*
X1718741D01*
Y3892434D01*
X1721435Y3882380D01*
X1726638Y3873367D01*
X1733998Y3866008D01*
X1743011Y3860804D01*
X1753064Y3858110D01*
X1753268D01*
Y3892637D01*
D02*
G37*
G36*
X3350873Y3821413D02*
X3342041D01*
X3333881Y3818034D01*
X3327636Y3811788D01*
X3324256Y3803629D01*
Y3794797D01*
X3327636Y3786637D01*
X3333881Y3780392D01*
X3342041Y3777012D01*
X3350873D01*
X3359032Y3780392D01*
X3365278Y3786637D01*
X3368657Y3794797D01*
Y3803629D01*
X3365278Y3811788D01*
X3359032Y3818034D01*
X3350873Y3821413D01*
D02*
G37*
G36*
X3083156D02*
X3074324D01*
X3066164Y3818034D01*
X3059919Y3811788D01*
X3056539Y3803629D01*
Y3794797D01*
X3059919Y3786637D01*
X3066164Y3780392D01*
X3074324Y3777012D01*
X3083156D01*
X3091316Y3780392D01*
X3097561Y3786637D01*
X3100941Y3794797D01*
Y3803629D01*
X3097561Y3811788D01*
X3091316Y3818034D01*
X3083156Y3821413D01*
D02*
G37*
G36*
X3388324Y3733028D02*
X3383329D01*
X3378715Y3731116D01*
X3375183Y3727584D01*
X3373272Y3722970D01*
Y3717975D01*
X3375183Y3713360D01*
X3378715Y3709829D01*
X3383329Y3707917D01*
X3388324D01*
X3392939Y3709829D01*
X3396470Y3713360D01*
X3398382Y3717975D01*
Y3722970D01*
X3396470Y3727584D01*
X3392939Y3731116D01*
X3388324Y3733028D01*
D02*
G37*
G36*
X2663472Y3687165D02*
X2663268D01*
Y3652637D01*
X2697796D01*
Y3652841D01*
X2695102Y3662895D01*
X2689898Y3671908D01*
X2682539Y3679267D01*
X2673525Y3684471D01*
X2663472Y3687165D01*
D02*
G37*
G36*
X2653268D02*
X2653064D01*
X2643011Y3684471D01*
X2633998Y3679267D01*
X2626638Y3671908D01*
X2621434Y3662895D01*
X2618741Y3652841D01*
Y3652637D01*
X2653268D01*
Y3687165D01*
D02*
G37*
G36*
X3382322Y3659570D02*
X3377327D01*
X3372713Y3657659D01*
X3369181Y3654127D01*
X3367270Y3649513D01*
Y3644518D01*
X3369181Y3639903D01*
X3372713Y3636372D01*
X3377327Y3634460D01*
X3380521D01*
X3382404Y3634336D01*
X3385141Y3630216D01*
Y3629162D01*
X3387052Y3624547D01*
X3390584Y3621015D01*
X3395199Y3619104D01*
X3400193D01*
X3404808Y3621015D01*
X3408340Y3624547D01*
X3410251Y3629162D01*
Y3634157D01*
X3408340Y3638771D01*
X3404808Y3642303D01*
X3400193Y3644214D01*
X3396999D01*
X3395117Y3644338D01*
X3392380Y3648459D01*
Y3649513D01*
X3390468Y3654127D01*
X3386937Y3657659D01*
X3382322Y3659570D01*
D02*
G37*
G36*
X2362617Y3680665D02*
X2353920D01*
X2345521Y3678414D01*
X2337989Y3674066D01*
X2331840Y3667917D01*
X2327492Y3660386D01*
X2325241Y3651986D01*
Y3643290D01*
X2327492Y3634890D01*
X2331840Y3627358D01*
X2337989Y3621209D01*
X2345521Y3616861D01*
X2353920Y3614610D01*
X2362617D01*
X2371017Y3616861D01*
X2378548Y3621209D01*
X2384697Y3627358D01*
X2389045Y3634890D01*
X2391296Y3643290D01*
Y3651986D01*
X2389045Y3660386D01*
X2384697Y3667917D01*
X2378548Y3674066D01*
X2371017Y3678414D01*
X2362617Y3680665D01*
D02*
G37*
G36*
X2462617Y3680665D02*
X2453921D01*
X2445521Y3678414D01*
X2437989Y3674066D01*
X2431840Y3667917D01*
X2427492Y3660386D01*
X2425241Y3651986D01*
Y3643289D01*
X2427492Y3634890D01*
X2431840Y3627358D01*
X2437989Y3621209D01*
X2445521Y3616861D01*
X2453921Y3614610D01*
X2462617D01*
X2471017Y3616861D01*
X2478548Y3621209D01*
X2484697Y3627358D01*
X2489045Y3634890D01*
X2491296Y3643289D01*
Y3651986D01*
X2489045Y3660386D01*
X2484697Y3667917D01*
X2478548Y3674066D01*
X2471017Y3678414D01*
X2462617Y3680665D01*
D02*
G37*
G36*
X2262617D02*
X2253920D01*
X2245521Y3678414D01*
X2237989Y3674066D01*
X2231840Y3667917D01*
X2227492Y3660386D01*
X2225241Y3651986D01*
Y3643289D01*
X2227492Y3634890D01*
X2231840Y3627358D01*
X2237989Y3621209D01*
X2245521Y3616861D01*
X2253920Y3614610D01*
X2262617D01*
X2271017Y3616861D01*
X2278548Y3621209D01*
X2284697Y3627358D01*
X2289045Y3634890D01*
X2291296Y3643289D01*
Y3651986D01*
X2289045Y3660386D01*
X2284697Y3667917D01*
X2278548Y3674066D01*
X2271017Y3678414D01*
X2262617Y3680665D01*
D02*
G37*
G36*
X2562617Y3680665D02*
X2553920D01*
X2545521Y3678414D01*
X2537989Y3674066D01*
X2531840Y3667917D01*
X2527492Y3660386D01*
X2525241Y3651986D01*
Y3643289D01*
X2527492Y3634890D01*
X2531840Y3627358D01*
X2537989Y3621209D01*
X2545521Y3616861D01*
X2553920Y3614610D01*
X2562617D01*
X2571017Y3616861D01*
X2578548Y3621209D01*
X2584697Y3627358D01*
X2589045Y3634890D01*
X2591296Y3643289D01*
Y3651986D01*
X2589045Y3660386D01*
X2584697Y3667917D01*
X2578548Y3674066D01*
X2571017Y3678414D01*
X2562617Y3680665D01*
D02*
G37*
G36*
X2062617D02*
X2053920D01*
X2045520Y3678414D01*
X2037989Y3674066D01*
X2031840Y3667917D01*
X2027492Y3660386D01*
X2025241Y3651986D01*
Y3643289D01*
X2027492Y3634890D01*
X2031840Y3627358D01*
X2037989Y3621209D01*
X2045520Y3616861D01*
X2053920Y3614610D01*
X2062617D01*
X2071017Y3616861D01*
X2078548Y3621209D01*
X2084697Y3627358D01*
X2089045Y3634890D01*
X2091296Y3643289D01*
Y3651986D01*
X2089045Y3660386D01*
X2084697Y3667917D01*
X2078548Y3674066D01*
X2071017Y3678414D01*
X2062617Y3680665D01*
D02*
G37*
G36*
X1991296Y3680665D02*
X1925241D01*
Y3614610D01*
X1991296D01*
Y3680665D01*
D02*
G37*
G36*
X2162617Y3680665D02*
X2153920D01*
X2145521Y3678414D01*
X2137989Y3674066D01*
X2131840Y3667917D01*
X2127492Y3660385D01*
X2125241Y3651986D01*
Y3643289D01*
X2127492Y3634889D01*
X2131840Y3627358D01*
X2137989Y3621209D01*
X2145521Y3616861D01*
X2153920Y3614610D01*
X2162617D01*
X2171017Y3616861D01*
X2178548Y3621209D01*
X2184697Y3627358D01*
X2189045Y3634889D01*
X2191296Y3643289D01*
Y3651986D01*
X2189045Y3660385D01*
X2184697Y3667917D01*
X2178548Y3674066D01*
X2171017Y3678414D01*
X2162617Y3680665D01*
D02*
G37*
G36*
X2697796Y3642637D02*
X2663268D01*
Y3608110D01*
X2663472D01*
X2673525Y3610804D01*
X2682539Y3616008D01*
X2689898Y3623367D01*
X2695102Y3632380D01*
X2697796Y3642434D01*
Y3642637D01*
D02*
G37*
G36*
X2653268D02*
X2618741D01*
Y3642434D01*
X2621434Y3632380D01*
X2626638Y3623367D01*
X2633998Y3616008D01*
X2643011Y3610804D01*
X2653064Y3608110D01*
X2653268D01*
Y3642637D01*
D02*
G37*
G36*
X3427694Y3575547D02*
X3422700D01*
X3418085Y3573636D01*
X3414553Y3570104D01*
X3412642Y3565490D01*
Y3560495D01*
X3414553Y3555880D01*
X3418085Y3552348D01*
X3422700Y3550437D01*
X3427694D01*
X3432309Y3552348D01*
X3435841Y3555880D01*
X3437752Y3560495D01*
Y3565490D01*
X3435841Y3570104D01*
X3432309Y3573636D01*
X3427694Y3575547D01*
D02*
G37*
G36*
X3268686Y3457176D02*
X3263692D01*
X3259077Y3455264D01*
X3255545Y3451732D01*
X3253634Y3447118D01*
Y3442123D01*
X3255545Y3437509D01*
X3259077Y3433977D01*
X3263692Y3432065D01*
X3268686D01*
X3273301Y3433977D01*
X3273576Y3434252D01*
X3277285Y3437059D01*
X3280109Y3434252D01*
X3280826Y3433535D01*
X3285440Y3431624D01*
X3290435D01*
X3295050Y3433535D01*
X3298581Y3437067D01*
X3300493Y3441681D01*
Y3446676D01*
X3298581Y3451291D01*
X3295050Y3454822D01*
X3290435Y3456734D01*
X3285440D01*
X3280826Y3454822D01*
X3280551Y3454547D01*
X3276842Y3451740D01*
X3274018Y3454547D01*
X3273301Y3455264D01*
X3268686Y3457176D01*
D02*
G37*
G36*
X2561553Y3437752D02*
X2556558D01*
X2551943Y3435840D01*
X2548412Y3432309D01*
X2546500Y3427694D01*
Y3422699D01*
X2547070Y3421324D01*
X2543243Y3417497D01*
X2541868Y3418067D01*
X2536873D01*
X2532258Y3416155D01*
X2528727Y3412624D01*
X2526815Y3408009D01*
Y3403014D01*
X2528727Y3398400D01*
X2531457Y3395669D01*
X2528726Y3392939D01*
X2526815Y3388324D01*
Y3383329D01*
X2528726Y3378715D01*
X2532258Y3375183D01*
X2536873Y3373272D01*
X2541867D01*
X2546482Y3375183D01*
X2549213Y3377914D01*
X2551943Y3375183D01*
X2556558Y3373272D01*
X2561552D01*
X2566167Y3375183D01*
X2569699Y3378715D01*
X2571610Y3383329D01*
Y3388324D01*
X2569699Y3392939D01*
X2566968Y3395669D01*
X2569699Y3398400D01*
X2571610Y3403014D01*
Y3408009D01*
X2569699Y3412624D01*
X2566968Y3415354D01*
X2569699Y3418085D01*
X2571610Y3422699D01*
Y3427694D01*
X2569699Y3432309D01*
X2566167Y3435840D01*
X2561553Y3437752D01*
D02*
G37*
G36*
X3124339Y3441738D02*
X3119344D01*
X3114730Y3439826D01*
X3111198Y3436294D01*
X3109287Y3431680D01*
Y3426685D01*
X3111198Y3422070D01*
X3114730Y3418539D01*
X3119344Y3416627D01*
X3124339D01*
X3128954Y3418539D01*
X3132485Y3422070D01*
X3134397Y3426685D01*
Y3431680D01*
X3132485Y3436294D01*
X3128954Y3439826D01*
X3124339Y3441738D01*
D02*
G37*
G36*
X2095859Y3437752D02*
X2090864D01*
X2086250Y3435841D01*
X2082718Y3432309D01*
X2080806Y3427694D01*
Y3422700D01*
X2082718Y3418085D01*
X2086250Y3414553D01*
X2090864Y3412642D01*
X2095859D01*
X2100473Y3414553D01*
X2104005Y3418085D01*
X2105917Y3422700D01*
Y3427694D01*
X2104005Y3432309D01*
X2100473Y3435841D01*
X2095859Y3437752D01*
D02*
G37*
G36*
X3045357Y3432763D02*
X3040362D01*
X3035747Y3430851D01*
X3032215Y3427320D01*
X3030304Y3422705D01*
Y3417710D01*
X3031260Y3415402D01*
X3030034Y3411183D01*
X3028547Y3409881D01*
X3025192Y3408491D01*
X3021660Y3404959D01*
X3019749Y3400345D01*
Y3395350D01*
X3021660Y3390735D01*
X3025192Y3387204D01*
X3029807Y3385292D01*
X3034801D01*
X3039416Y3387204D01*
X3042948Y3390735D01*
X3044859Y3395350D01*
Y3400345D01*
X3043903Y3402653D01*
X3045130Y3406871D01*
X3046616Y3408174D01*
X3049971Y3409564D01*
X3053503Y3413096D01*
X3055414Y3417710D01*
Y3422705D01*
X3053503Y3427320D01*
X3049971Y3430851D01*
X3045357Y3432763D01*
D02*
G37*
G36*
X2095859Y3398382D02*
X2090864D01*
X2086250Y3396470D01*
X2082718Y3392939D01*
X2080806Y3388324D01*
Y3383329D01*
X2082718Y3378715D01*
X2086250Y3375183D01*
X2090864Y3373272D01*
X2095859D01*
X2100473Y3375183D01*
X2104005Y3378715D01*
X2105917Y3383329D01*
Y3388324D01*
X2104005Y3392939D01*
X2100473Y3396470D01*
X2095859Y3398382D01*
D02*
G37*
G36*
X2625535Y3374956D02*
X2620540D01*
X2615925Y3373045D01*
X2612393Y3369513D01*
X2610482Y3364899D01*
Y3359904D01*
X2612393Y3355289D01*
X2615925Y3351758D01*
X2620540Y3349846D01*
X2625535D01*
X2630149Y3351758D01*
X2633681Y3355289D01*
X2635592Y3359904D01*
Y3364899D01*
X2633681Y3369513D01*
X2630149Y3373045D01*
X2625535Y3374956D01*
D02*
G37*
G36*
X1921789Y3381854D02*
X1916794D01*
X1912179Y3379942D01*
X1908648Y3376411D01*
X1906736Y3371796D01*
X1902104Y3371008D01*
X1897109D01*
X1892495Y3369096D01*
X1888963Y3365565D01*
X1887052Y3360950D01*
Y3355955D01*
X1888963Y3351341D01*
X1892495Y3347809D01*
X1897109Y3345898D01*
X1902104D01*
X1906719Y3347809D01*
X1910250Y3351341D01*
X1912162Y3355955D01*
X1916794Y3356744D01*
X1921789D01*
X1926403Y3358655D01*
X1929935Y3362187D01*
X1931846Y3366801D01*
Y3371796D01*
X1929935Y3376411D01*
X1926403Y3379942D01*
X1921789Y3381854D01*
D02*
G37*
G36*
X1243399Y3378106D02*
X1236916D01*
X1230927Y3375626D01*
X1226343Y3371042D01*
X1223862Y3365052D01*
Y3358570D01*
X1226343Y3352581D01*
X1230927Y3347997D01*
X1236916Y3345516D01*
X1243399D01*
X1249388Y3347997D01*
X1253972Y3352581D01*
X1256453Y3358570D01*
Y3365052D01*
X1253972Y3371042D01*
X1249388Y3375626D01*
X1243399Y3378106D01*
D02*
G37*
G36*
X2930642Y3324957D02*
X2925647D01*
X2921032Y3323045D01*
X2917500Y3319514D01*
X2915589Y3314899D01*
Y3309904D01*
X2917500Y3305290D01*
X2921032Y3301758D01*
X2925647Y3299847D01*
X2930642D01*
X2935256Y3301758D01*
X2938788Y3305290D01*
X2940699Y3309904D01*
Y3314899D01*
X2938788Y3319514D01*
X2935256Y3323045D01*
X2930642Y3324957D01*
D02*
G37*
G36*
X2625535Y3324956D02*
X2620540D01*
X2615925Y3323045D01*
X2612394Y3319513D01*
X2610482Y3314899D01*
Y3309904D01*
X2612394Y3305289D01*
X2615925Y3301758D01*
X2620540Y3299846D01*
X2625535D01*
X2630149Y3301758D01*
X2633681Y3305289D01*
X2635593Y3309904D01*
Y3314899D01*
X2633681Y3319513D01*
X2630149Y3323045D01*
X2625535Y3324956D01*
D02*
G37*
G36*
X3467064Y3360556D02*
X3462069D01*
X3457454Y3358645D01*
X3453923Y3355113D01*
X3452011Y3350499D01*
Y3345504D01*
X3453923Y3340889D01*
X3457039Y3337773D01*
X3453923Y3334656D01*
X3452011Y3330042D01*
Y3325047D01*
X3453923Y3320432D01*
X3457040Y3317315D01*
X3453923Y3314198D01*
X3452012Y3309584D01*
Y3304589D01*
X3453923Y3299975D01*
X3457455Y3296443D01*
X3462070Y3294532D01*
X3467064D01*
X3471679Y3296443D01*
X3475211Y3299975D01*
X3477122Y3304589D01*
Y3309584D01*
X3475211Y3314198D01*
X3472093Y3317316D01*
X3475210Y3320432D01*
X3477122Y3325047D01*
Y3330042D01*
X3475210Y3334656D01*
X3472093Y3337773D01*
X3475210Y3340889D01*
X3477122Y3345504D01*
Y3350499D01*
X3475210Y3355113D01*
X3471678Y3358645D01*
X3467064Y3360556D01*
D02*
G37*
G36*
X3105833Y3318682D02*
X3100838D01*
X3096224Y3316771D01*
X3092692Y3313239D01*
X3090780Y3308625D01*
Y3303630D01*
X3092692Y3299015D01*
X3096224Y3295483D01*
X3100838Y3293572D01*
X3105833D01*
X3110448Y3295483D01*
X3113979Y3299015D01*
X3115891Y3303630D01*
Y3308625D01*
X3113979Y3313239D01*
X3110448Y3316771D01*
X3105833Y3318682D01*
D02*
G37*
G36*
X1855625Y3329484D02*
X1850630D01*
X1846016Y3327573D01*
X1842484Y3324041D01*
X1840572Y3319426D01*
Y3314432D01*
X1837079Y3309799D01*
X1835900D01*
X1831286Y3307888D01*
X1827754Y3304356D01*
X1825843Y3299741D01*
Y3294747D01*
X1827754Y3290132D01*
X1831286Y3286600D01*
X1835900Y3284689D01*
X1840895D01*
X1845510Y3286600D01*
X1849042Y3290132D01*
X1850953Y3294747D01*
Y3299741D01*
X1854446Y3304374D01*
X1855625D01*
X1860239Y3306285D01*
X1863771Y3309817D01*
X1865683Y3314432D01*
Y3319426D01*
X1863771Y3324041D01*
X1860239Y3327573D01*
X1855625Y3329484D01*
D02*
G37*
G36*
X3337292Y3270898D02*
X3332297D01*
X3327682Y3268987D01*
X3326502Y3267807D01*
X3323236Y3265970D01*
X3319969Y3267807D01*
X3318789Y3268987D01*
X3314175Y3270898D01*
X3309180D01*
X3304565Y3268987D01*
X3303385Y3267807D01*
X3300119Y3265970D01*
X3296852Y3267807D01*
X3295672Y3268987D01*
X3291058Y3270898D01*
X3286063D01*
X3281448Y3268987D01*
X3277916Y3265455D01*
X3276005Y3260841D01*
Y3255846D01*
X3277916Y3251231D01*
X3281448Y3247700D01*
X3286063Y3245788D01*
X3291058D01*
X3295672Y3247700D01*
X3296852Y3248880D01*
X3300119Y3250717D01*
X3303385Y3248880D01*
X3304565Y3247700D01*
X3309180Y3245788D01*
X3314175D01*
X3318789Y3247700D01*
X3319969Y3248880D01*
X3323236Y3250717D01*
X3326502Y3248880D01*
X3327682Y3247700D01*
X3332297Y3245788D01*
X3337292D01*
X3341906Y3247700D01*
X3345438Y3251231D01*
X3347349Y3255846D01*
Y3260841D01*
X3345438Y3265455D01*
X3341906Y3268987D01*
X3337292Y3270898D01*
D02*
G37*
G36*
X1262340Y3290114D02*
X1257345D01*
X1252731Y3288203D01*
X1249199Y3284671D01*
X1247287Y3280057D01*
Y3275062D01*
X1249199Y3270447D01*
X1252731Y3266915D01*
X1257345Y3265004D01*
X1262340D01*
X1266954Y3266915D01*
X1270486Y3270447D01*
X1272398Y3275062D01*
Y3280057D01*
X1270486Y3284671D01*
X1266954Y3288203D01*
X1262340Y3290114D01*
D02*
G37*
G36*
X3411085Y3289670D02*
X3406090D01*
X3401475Y3287759D01*
X3397943Y3284227D01*
X3396032Y3279612D01*
Y3274617D01*
X3397943Y3270003D01*
X3401475Y3266471D01*
X3406090Y3264560D01*
X3411085D01*
X3415084Y3266216D01*
X3417001Y3265105D01*
X3419117Y3262887D01*
X3418895Y3262352D01*
Y3257358D01*
X3419168Y3256700D01*
X3416894Y3254365D01*
X3415135Y3253371D01*
X3411085Y3255048D01*
X3406090D01*
X3401475Y3253137D01*
X3397943Y3249605D01*
X3396032Y3244991D01*
Y3239996D01*
X3397943Y3235381D01*
X3401475Y3231850D01*
X3406090Y3229938D01*
X3411085D01*
X3415492Y3231764D01*
X3416262Y3231404D01*
X3419645Y3228725D01*
X3418895Y3226914D01*
Y3221919D01*
X3420807Y3217305D01*
X3422159Y3215952D01*
X3421776Y3211446D01*
X3419231Y3211372D01*
X3415699Y3214904D01*
X3411085Y3216815D01*
X3406090D01*
X3401475Y3214904D01*
X3397943Y3211372D01*
X3396032Y3206758D01*
Y3201763D01*
X3397943Y3197148D01*
X3401475Y3193617D01*
X3406090Y3191705D01*
X3411085D01*
X3414327Y3193048D01*
X3416015Y3193433D01*
X3420169Y3191015D01*
X3420807Y3189475D01*
X3424338Y3185943D01*
X3428953Y3184032D01*
X3433948D01*
X3438562Y3185943D01*
X3442094Y3189475D01*
X3444006Y3194090D01*
Y3199084D01*
X3442094Y3203699D01*
X3438562Y3207231D01*
X3437198Y3207796D01*
Y3213208D01*
X3438562Y3213773D01*
X3442094Y3217305D01*
X3444006Y3221919D01*
Y3226914D01*
X3442094Y3231528D01*
X3438562Y3235060D01*
X3433948Y3236972D01*
X3428953D01*
X3424545Y3235146D01*
X3423776Y3235506D01*
X3420392Y3238185D01*
X3421142Y3239996D01*
Y3244991D01*
X3420870Y3245648D01*
X3423144Y3247984D01*
X3424903Y3248978D01*
X3428953Y3247300D01*
X3433948D01*
X3438562Y3249211D01*
X3442094Y3252743D01*
X3444006Y3257358D01*
Y3262352D01*
X3442094Y3266967D01*
X3438562Y3270499D01*
X3433948Y3272410D01*
X3428953D01*
X3424954Y3270754D01*
X3423036Y3271865D01*
X3420921Y3274083D01*
X3421142Y3274617D01*
Y3279612D01*
X3419231Y3284227D01*
X3415699Y3287759D01*
X3411085Y3289670D01*
D02*
G37*
G36*
X2930642Y3274957D02*
X2925647D01*
X2921032Y3273046D01*
X2917500Y3269514D01*
X2915589Y3264899D01*
Y3259904D01*
X2917500Y3255290D01*
X2921032Y3251758D01*
X2925647Y3249847D01*
X2930642D01*
X2935256Y3251758D01*
X2938788Y3255290D01*
X2940699Y3259904D01*
Y3264899D01*
X2938788Y3269514D01*
X2935256Y3273046D01*
X2930642Y3274957D01*
D02*
G37*
G36*
X2625535Y3274957D02*
X2620540D01*
X2615925Y3273045D01*
X2612394Y3269513D01*
X2610482Y3264899D01*
Y3259904D01*
X2612394Y3255290D01*
X2615925Y3251758D01*
X2620540Y3249846D01*
X2625535D01*
X2630149Y3251758D01*
X2633681Y3255290D01*
X2635593Y3259904D01*
Y3264899D01*
X2633681Y3269513D01*
X2630149Y3273045D01*
X2625535Y3274957D01*
D02*
G37*
G36*
X1262340Y3250744D02*
X1257345D01*
X1252730Y3248832D01*
X1249199Y3245301D01*
X1247287Y3240686D01*
Y3235691D01*
X1249199Y3231077D01*
X1252730Y3227545D01*
X1257345Y3225634D01*
X1262340D01*
X1266954Y3227545D01*
X1270486Y3231077D01*
X1272398Y3235691D01*
Y3240686D01*
X1270486Y3245301D01*
X1266954Y3248832D01*
X1262340Y3250744D01*
D02*
G37*
G36*
X3133147Y3255733D02*
X3128152D01*
X3123538Y3253821D01*
X3120006Y3250289D01*
X3118095Y3245675D01*
Y3240680D01*
X3120006Y3236066D01*
X3120542Y3235529D01*
X3123308Y3232263D01*
X3120542Y3228996D01*
X3120006Y3228460D01*
X3118095Y3223845D01*
Y3218850D01*
X3120006Y3214236D01*
X3123538Y3210704D01*
X3128152Y3208793D01*
X3133147D01*
X3137762Y3210704D01*
X3141293Y3214236D01*
X3143205Y3218850D01*
Y3223845D01*
X3141293Y3228460D01*
X3140757Y3228996D01*
X3137991Y3232263D01*
X3140757Y3235529D01*
X3141293Y3236066D01*
X3143205Y3240680D01*
Y3245675D01*
X3141293Y3250289D01*
X3137762Y3253821D01*
X3133147Y3255733D01*
D02*
G37*
G36*
X2930642Y3224957D02*
X2925647D01*
X2921032Y3223045D01*
X2917501Y3219514D01*
X2915589Y3214899D01*
Y3209904D01*
X2917501Y3205290D01*
X2921032Y3201758D01*
X2925647Y3199847D01*
X2930642D01*
X2935256Y3201758D01*
X2938788Y3205290D01*
X2940700Y3209904D01*
Y3214899D01*
X2938788Y3219514D01*
X2935256Y3223045D01*
X2930642Y3224957D01*
D02*
G37*
G36*
X1695411Y3221216D02*
X1690416D01*
X1685802Y3219305D01*
X1682270Y3215773D01*
X1680358Y3211159D01*
Y3206164D01*
X1682270Y3201550D01*
X1685802Y3198018D01*
X1690416Y3196106D01*
X1695411D01*
X1700025Y3198018D01*
X1703557Y3201550D01*
X1705469Y3206164D01*
Y3211159D01*
X1703557Y3215773D01*
X1700025Y3219305D01*
X1695411Y3221216D01*
D02*
G37*
G36*
X1636356D02*
X1631361D01*
X1626746Y3219305D01*
X1623215Y3215773D01*
X1621303Y3211159D01*
Y3206164D01*
X1623215Y3201550D01*
X1626746Y3198018D01*
X1631361Y3196106D01*
X1636356D01*
X1640970Y3198018D01*
X1644502Y3201550D01*
X1646414Y3206164D01*
Y3211159D01*
X1644502Y3215773D01*
X1640970Y3219305D01*
X1636356Y3221216D01*
D02*
G37*
G36*
X1577301D02*
X1572306D01*
X1567691Y3219305D01*
X1564160Y3215773D01*
X1562248Y3211159D01*
Y3206164D01*
X1564160Y3201550D01*
X1567691Y3198018D01*
X1572306Y3196106D01*
X1577301D01*
X1581915Y3198018D01*
X1585447Y3201550D01*
X1587358Y3206164D01*
Y3211159D01*
X1585447Y3215773D01*
X1581915Y3219305D01*
X1577301Y3221216D01*
D02*
G37*
G36*
X1518245D02*
X1513251D01*
X1508636Y3219305D01*
X1505104Y3215773D01*
X1503193Y3211159D01*
Y3206164D01*
X1505104Y3201550D01*
X1508636Y3198018D01*
X1513251Y3196106D01*
X1518245D01*
X1522860Y3198018D01*
X1526392Y3201550D01*
X1528303Y3206164D01*
Y3211159D01*
X1526392Y3215773D01*
X1522860Y3219305D01*
X1518245Y3221216D01*
D02*
G37*
G36*
X1459190D02*
X1454196D01*
X1449581Y3219305D01*
X1446049Y3215773D01*
X1444138Y3211159D01*
Y3206164D01*
X1446049Y3201550D01*
X1449581Y3198018D01*
X1454196Y3196106D01*
X1459190D01*
X1463805Y3198018D01*
X1467337Y3201550D01*
X1469248Y3206164D01*
Y3211159D01*
X1467337Y3215773D01*
X1463805Y3219305D01*
X1459190Y3221216D01*
D02*
G37*
G36*
X1879318Y3202127D02*
X1874324D01*
X1869709Y3200216D01*
X1866177Y3196684D01*
X1864266Y3192069D01*
Y3187075D01*
X1866177Y3182460D01*
X1869709Y3178928D01*
X1874324Y3177017D01*
X1879318D01*
X1883933Y3178928D01*
X1887465Y3182460D01*
X1889376Y3187075D01*
Y3192069D01*
X1887465Y3196684D01*
X1883933Y3200216D01*
X1879318Y3202127D01*
D02*
G37*
G36*
X2827300Y3201532D02*
X2822306D01*
X2817691Y3199620D01*
X2814159Y3196088D01*
X2812248Y3191474D01*
Y3186479D01*
X2814159Y3181865D01*
X2817691Y3178333D01*
X2822306Y3176421D01*
X2827300D01*
X2831915Y3178333D01*
X2835447Y3181865D01*
X2837358Y3186479D01*
Y3191474D01*
X2835447Y3196088D01*
X2831915Y3199620D01*
X2827300Y3201532D01*
D02*
G37*
G36*
X1990687D02*
X1985692D01*
X1981077Y3199620D01*
X1977545Y3196088D01*
X1975634Y3191474D01*
Y3186479D01*
X1977545Y3181865D01*
X1981077Y3178333D01*
X1985692Y3176421D01*
X1990687D01*
X1995301Y3178333D01*
X1998833Y3181865D01*
X2000744Y3186479D01*
Y3191474D01*
X1998833Y3196088D01*
X1995301Y3199620D01*
X1990687Y3201532D01*
D02*
G37*
G36*
X1941474Y3178560D02*
X1936479D01*
X1931865Y3176649D01*
X1928333Y3173117D01*
X1926421Y3168502D01*
Y3163508D01*
X1928333Y3158893D01*
X1931865Y3155361D01*
X1936479Y3153450D01*
X1941474D01*
X1946089Y3155361D01*
X1949620Y3158893D01*
X1951532Y3163508D01*
Y3168502D01*
X1949620Y3173117D01*
X1946089Y3176649D01*
X1941474Y3178560D01*
D02*
G37*
G36*
X3063967Y3225154D02*
X3058973D01*
X3054358Y3223243D01*
X3050826Y3219711D01*
X3048915Y3215096D01*
Y3213145D01*
X3044992Y3209510D01*
X3044296Y3209405D01*
X3039884D01*
X3035269Y3207494D01*
X3031738Y3203962D01*
X3029826Y3199347D01*
Y3194353D01*
X3031738Y3189738D01*
X3035269Y3186206D01*
X3039884Y3184295D01*
X3043812D01*
X3044901Y3181532D01*
X3041455Y3177909D01*
X3039884D01*
X3035270Y3175998D01*
X3031738Y3172466D01*
X3029827Y3167851D01*
Y3162857D01*
X3031738Y3158242D01*
X3035270Y3154710D01*
X3039884Y3152799D01*
X3044879D01*
X3049494Y3154710D01*
X3053025Y3158242D01*
X3054937Y3162857D01*
Y3164807D01*
X3058860Y3168442D01*
X3059556Y3168547D01*
X3063967D01*
X3068582Y3170458D01*
X3072114Y3173990D01*
X3074025Y3178605D01*
Y3183599D01*
X3072114Y3188214D01*
X3068582Y3191746D01*
X3063967Y3193657D01*
X3060036D01*
X3058949Y3196418D01*
X3062396Y3200044D01*
X3063967D01*
X3068582Y3201955D01*
X3072114Y3205487D01*
X3074025Y3210102D01*
Y3215096D01*
X3072114Y3219711D01*
X3068582Y3223243D01*
X3063967Y3225154D01*
D02*
G37*
G36*
X1243399Y3150548D02*
X1236916D01*
X1230927Y3148067D01*
X1226343Y3143483D01*
X1223862Y3137494D01*
Y3131011D01*
X1226343Y3125022D01*
X1230927Y3120438D01*
X1236916Y3117957D01*
X1243399D01*
X1249388Y3120438D01*
X1253972Y3125022D01*
X1256453Y3131011D01*
Y3137494D01*
X1253972Y3143483D01*
X1249388Y3148067D01*
X1243399Y3150548D01*
D02*
G37*
G36*
X2171789Y3142477D02*
X2166794D01*
X2162179Y3140566D01*
X2158648Y3137034D01*
X2156736Y3132419D01*
Y3127424D01*
X2158648Y3122810D01*
X2162179Y3119278D01*
X2166794Y3117367D01*
X2171789D01*
X2176403Y3119278D01*
X2179935Y3122810D01*
X2181846Y3127424D01*
Y3132419D01*
X2179935Y3137034D01*
X2176403Y3140566D01*
X2171789Y3142477D01*
D02*
G37*
G36*
X2140292Y3142477D02*
X2135298D01*
X2130683Y3140565D01*
X2127151Y3137033D01*
X2125240Y3132419D01*
Y3127424D01*
X2127151Y3122809D01*
X2130683Y3119278D01*
X2135298Y3117366D01*
X2140292D01*
X2144907Y3119278D01*
X2148439Y3122809D01*
X2150350Y3127424D01*
Y3132419D01*
X2148439Y3137033D01*
X2144907Y3140565D01*
X2140292Y3142477D01*
D02*
G37*
G36*
X2203285Y3135530D02*
X2198290D01*
X2193675Y3133618D01*
X2190144Y3130087D01*
X2188232Y3125472D01*
Y3120477D01*
X2190144Y3115863D01*
X2193675Y3112331D01*
X2198290Y3110420D01*
X2203285D01*
X2207899Y3112331D01*
X2211431Y3115863D01*
X2213342Y3120477D01*
Y3125472D01*
X2211431Y3130087D01*
X2207899Y3133618D01*
X2203285Y3135530D01*
D02*
G37*
G36*
X2108797Y3132634D02*
X2103802D01*
X2099187Y3130722D01*
X2095655Y3127191D01*
X2093744Y3122576D01*
Y3117581D01*
X2095655Y3112967D01*
X2099187Y3109435D01*
X2103802Y3107524D01*
X2108797D01*
X2113411Y3109435D01*
X2116943Y3112967D01*
X2118854Y3117581D01*
Y3122576D01*
X2116943Y3127191D01*
X2113411Y3130722D01*
X2108797Y3132634D01*
D02*
G37*
G36*
X3332070Y3193652D02*
X3327076D01*
X3322461Y3191741D01*
X3318929Y3188209D01*
X3317018Y3183594D01*
Y3178599D01*
X3318929Y3173985D01*
X3322461Y3170453D01*
X3323492Y3170026D01*
Y3164614D01*
X3322461Y3164188D01*
X3318930Y3160656D01*
X3317018Y3156041D01*
Y3151046D01*
X3318930Y3146432D01*
X3320363Y3144999D01*
X3321909Y3141732D01*
X3320363Y3138466D01*
X3318930Y3137033D01*
X3317018Y3132419D01*
Y3127424D01*
X3318930Y3122809D01*
X3322461Y3119278D01*
X3323492Y3118851D01*
Y3113438D01*
X3322461Y3113011D01*
X3318930Y3109480D01*
X3317018Y3104865D01*
Y3099870D01*
X3318930Y3095256D01*
X3322461Y3091724D01*
X3327076Y3089813D01*
X3332071D01*
X3336685Y3091724D01*
X3340217Y3095256D01*
X3342128Y3099870D01*
Y3104865D01*
X3340217Y3109480D01*
X3336685Y3113011D01*
X3335654Y3113438D01*
Y3118851D01*
X3336685Y3119278D01*
X3340217Y3122809D01*
X3342128Y3127424D01*
Y3132419D01*
X3340217Y3137033D01*
X3338784Y3138466D01*
X3337238Y3141733D01*
X3338784Y3144999D01*
X3340217Y3146432D01*
X3342128Y3151046D01*
Y3156041D01*
X3340217Y3160656D01*
X3336685Y3164188D01*
X3335655Y3164614D01*
Y3170026D01*
X3336685Y3170453D01*
X3340217Y3173985D01*
X3342128Y3178599D01*
Y3183594D01*
X3340217Y3188209D01*
X3336685Y3191741D01*
X3332070Y3193652D01*
D02*
G37*
G36*
X2625534Y3099366D02*
X2620540D01*
X2615925Y3097455D01*
X2612393Y3093923D01*
X2610482Y3089308D01*
Y3084314D01*
X2612393Y3079699D01*
X2615925Y3076167D01*
X2620540Y3074256D01*
X2625534D01*
X2630149Y3076167D01*
X2633681Y3079699D01*
X2635592Y3084314D01*
Y3089308D01*
X2633681Y3093923D01*
X2630149Y3097455D01*
X2625534Y3099366D01*
D02*
G37*
G36*
X3212504Y3070760D02*
X3207509D01*
X3202895Y3068849D01*
X3199363Y3065317D01*
X3197452Y3060703D01*
Y3055708D01*
X3199363Y3051093D01*
X3202895Y3047562D01*
X3207509Y3045650D01*
X3212504D01*
X3217119Y3047562D01*
X3220651Y3051093D01*
X3222562Y3055708D01*
Y3060703D01*
X3220651Y3065317D01*
X3217119Y3068849D01*
X3212504Y3070760D01*
D02*
G37*
G36*
X3268522Y3070760D02*
X3263527D01*
X3258912Y3068849D01*
X3255381Y3065317D01*
X3253469Y3060703D01*
Y3055708D01*
X3255381Y3051093D01*
X3258912Y3047561D01*
X3263527Y3045650D01*
X3268522D01*
X3273136Y3047561D01*
X3276668Y3051093D01*
X3278579Y3055708D01*
Y3060703D01*
X3276668Y3065317D01*
X3273136Y3068849D01*
X3268522Y3070760D01*
D02*
G37*
G36*
X3031448Y3129189D02*
X3026454D01*
X3021839Y3127278D01*
X3018307Y3123746D01*
X3016396Y3119132D01*
Y3114137D01*
X3018307Y3109522D01*
X3021839Y3105990D01*
X3026454Y3104079D01*
X3029954D01*
X3032120Y3100547D01*
X3032462Y3099805D01*
X3032544Y3099460D01*
X3030730Y3095082D01*
Y3090087D01*
X3032642Y3085472D01*
X3036173Y3081941D01*
X3036317Y3076469D01*
X3035031Y3073363D01*
Y3068369D01*
X3036942Y3063754D01*
X3040474Y3060222D01*
X3045088Y3058311D01*
X3046401D01*
X3050199Y3057739D01*
X3051020Y3053692D01*
Y3052621D01*
X3052931Y3048006D01*
X3056463Y3044474D01*
X3061078Y3042563D01*
X3066072D01*
X3070687Y3044474D01*
X3074219Y3048006D01*
X3076130Y3052621D01*
Y3057615D01*
X3074219Y3062230D01*
X3070687Y3065762D01*
X3066072Y3067673D01*
X3064760D01*
X3060962Y3068245D01*
X3060141Y3072293D01*
Y3073363D01*
X3058230Y3077978D01*
X3054698Y3081510D01*
X3054554Y3086981D01*
X3055840Y3090087D01*
Y3095082D01*
X3053929Y3099696D01*
X3050397Y3103228D01*
X3045783Y3105139D01*
X3042283D01*
X3040116Y3108672D01*
X3039774Y3109414D01*
X3039693Y3109759D01*
X3041506Y3114137D01*
Y3119132D01*
X3039595Y3123746D01*
X3036063Y3127278D01*
X3031448Y3129189D01*
D02*
G37*
G36*
X2930642Y3049366D02*
X2925647D01*
X2921032Y3047455D01*
X2917501Y3043923D01*
X2915589Y3039308D01*
Y3034314D01*
X2917501Y3029699D01*
X2921032Y3026167D01*
X2925647Y3024256D01*
X2930642D01*
X2935256Y3026167D01*
X2938788Y3029699D01*
X2940699Y3034314D01*
Y3039308D01*
X2938788Y3043923D01*
X2935256Y3047455D01*
X2930642Y3049366D01*
D02*
G37*
G36*
X2625535Y3049366D02*
X2620540D01*
X2615925Y3047454D01*
X2612394Y3043923D01*
X2610482Y3039308D01*
Y3034313D01*
X2612394Y3029699D01*
X2615925Y3026167D01*
X2620540Y3024256D01*
X2625535D01*
X2630149Y3026167D01*
X2633681Y3029699D01*
X2635593Y3034313D01*
Y3039308D01*
X2633681Y3043923D01*
X2630149Y3047454D01*
X2625535Y3049366D01*
D02*
G37*
G36*
X2397125Y3040116D02*
X2392131D01*
X2387516Y3038205D01*
X2383984Y3034673D01*
X2382073Y3030058D01*
Y3025064D01*
X2383984Y3020449D01*
X2387516Y3016917D01*
X2392131Y3015006D01*
X2397125D01*
X2401740Y3016917D01*
X2405272Y3020449D01*
X2407183Y3025064D01*
Y3030058D01*
X2405272Y3034673D01*
X2401740Y3038205D01*
X2397125Y3040116D01*
D02*
G37*
G36*
Y3004681D02*
X2392131D01*
X2387516Y3002770D01*
X2383984Y2999238D01*
X2382073Y2994624D01*
Y2989629D01*
X2383984Y2985014D01*
X2387516Y2981483D01*
X2392131Y2979571D01*
X2397125D01*
X2401740Y2981483D01*
X2405272Y2985014D01*
X2407183Y2989629D01*
Y2994624D01*
X2405272Y2999238D01*
X2401740Y3002770D01*
X2397125Y3004681D01*
D02*
G37*
G36*
X1971001Y3004681D02*
X1966006D01*
X1961392Y3002770D01*
X1957860Y2999238D01*
X1955948Y2994623D01*
Y2989629D01*
X1957860Y2985014D01*
X1961392Y2981482D01*
X1966006Y2979571D01*
X1971001D01*
X1975616Y2981482D01*
X1979147Y2985014D01*
X1981059Y2989629D01*
Y2994623D01*
X1979147Y2999238D01*
X1975616Y3002770D01*
X1971001Y3004681D01*
D02*
G37*
G36*
X2930642Y2999366D02*
X2925647D01*
X2921032Y2997455D01*
X2917501Y2993923D01*
X2915589Y2989309D01*
Y2984314D01*
X2917501Y2979699D01*
X2921032Y2976167D01*
X2925647Y2974256D01*
X2930642D01*
X2935256Y2976167D01*
X2938788Y2979699D01*
X2940699Y2984314D01*
Y2989309D01*
X2938788Y2993923D01*
X2935256Y2997455D01*
X2930642Y2999366D01*
D02*
G37*
G36*
X2625535Y2999366D02*
X2620540D01*
X2615925Y2997455D01*
X2612394Y2993923D01*
X2610482Y2989308D01*
Y2984314D01*
X2612394Y2979699D01*
X2615925Y2976167D01*
X2620540Y2974256D01*
X2625535D01*
X2630149Y2976167D01*
X2633681Y2979699D01*
X2635593Y2984314D01*
Y2989308D01*
X2633681Y2993923D01*
X2630149Y2997455D01*
X2625535Y2999366D01*
D02*
G37*
G36*
X3414264Y2991522D02*
X3409269D01*
X3404654Y2989610D01*
X3401123Y2986079D01*
X3399211Y2981464D01*
Y2976469D01*
X3401123Y2971855D01*
X3404654Y2968323D01*
X3409269Y2966412D01*
X3414264D01*
X3418878Y2968323D01*
X3422410Y2971855D01*
X3424321Y2976469D01*
Y2981464D01*
X3422410Y2986079D01*
X3418878Y2989610D01*
X3414264Y2991522D01*
D02*
G37*
G36*
X3087011Y2988101D02*
X3082016D01*
X3077401Y2986189D01*
X3073869Y2982657D01*
X3071958Y2978043D01*
Y2973048D01*
X3073869Y2968434D01*
X3077401Y2964902D01*
X3082016Y2962990D01*
X3087011D01*
X3091625Y2964902D01*
X3095157Y2968434D01*
X3097068Y2973048D01*
Y2978043D01*
X3095157Y2982657D01*
X3091625Y2986189D01*
X3087011Y2988101D01*
D02*
G37*
G36*
X3169787Y2987493D02*
X3164793D01*
X3160178Y2985582D01*
X3156646Y2982050D01*
X3154735Y2977436D01*
Y2972441D01*
X3156646Y2967826D01*
X3160178Y2964294D01*
X3164793Y2962383D01*
X3169787D01*
X3174402Y2964294D01*
X3177934Y2967826D01*
X3179845Y2972441D01*
Y2977436D01*
X3177934Y2982050D01*
X3174402Y2985582D01*
X3169787Y2987493D01*
D02*
G37*
G36*
X1971001Y2973185D02*
X1966006D01*
X1961392Y2971274D01*
X1957860Y2967742D01*
X1955948Y2963128D01*
Y2958133D01*
X1957860Y2953518D01*
X1961392Y2949986D01*
X1966006Y2948075D01*
X1971001D01*
X1975615Y2949986D01*
X1979147Y2953518D01*
X1981059Y2958133D01*
Y2963128D01*
X1979147Y2967742D01*
X1975615Y2971274D01*
X1971001Y2973185D01*
D02*
G37*
G36*
X3457706Y2950165D02*
X3452712D01*
X3448097Y2948253D01*
X3444565Y2944722D01*
X3442654Y2940107D01*
Y2935112D01*
X3444565Y2930498D01*
X3448097Y2926966D01*
X3452712Y2925055D01*
X3457706D01*
X3462321Y2926966D01*
X3465853Y2930498D01*
X3467764Y2935112D01*
Y2940107D01*
X3465853Y2944722D01*
X3462321Y2948253D01*
X3457706Y2950165D01*
D02*
G37*
G36*
X3254079Y2950023D02*
X3249084D01*
X3244470Y2948111D01*
X3240938Y2944579D01*
X3239026Y2939965D01*
Y2934970D01*
X3240938Y2930356D01*
X3244470Y2926824D01*
X3249084Y2924912D01*
X3254079D01*
X3258693Y2926824D01*
X3262225Y2930356D01*
X3264137Y2934970D01*
Y2939965D01*
X3262225Y2944579D01*
X3258693Y2948111D01*
X3254079Y2950023D01*
D02*
G37*
G36*
X2930642Y2949366D02*
X2925647D01*
X2921033Y2947455D01*
X2917501Y2943923D01*
X2915589Y2939308D01*
Y2934314D01*
X2917501Y2929699D01*
X2921033Y2926167D01*
X2925647Y2924256D01*
X2930642D01*
X2935256Y2926167D01*
X2938788Y2929699D01*
X2940700Y2934314D01*
Y2939308D01*
X2938788Y2943923D01*
X2935256Y2947455D01*
X2930642Y2949366D01*
D02*
G37*
G36*
X1971001Y2941689D02*
X1966006D01*
X1961392Y2939778D01*
X1957860Y2936246D01*
X1955949Y2931631D01*
Y2926637D01*
X1957860Y2922022D01*
X1961392Y2918490D01*
X1966006Y2916579D01*
X1971001D01*
X1975616Y2918490D01*
X1979148Y2922022D01*
X1981059Y2926637D01*
Y2931631D01*
X1979148Y2936246D01*
X1975616Y2939778D01*
X1971001Y2941689D01*
D02*
G37*
G36*
X1971001Y2910193D02*
X1966006D01*
X1961392Y2908282D01*
X1957860Y2904750D01*
X1955948Y2900135D01*
Y2895141D01*
X1957860Y2890526D01*
X1961392Y2886994D01*
X1966006Y2885083D01*
X1971001D01*
X1975615Y2886994D01*
X1979147Y2890526D01*
X1981059Y2895141D01*
Y2900135D01*
X1979147Y2904750D01*
X1975615Y2908282D01*
X1971001Y2910193D01*
D02*
G37*
G36*
X1754466Y2906256D02*
X1749471D01*
X1744857Y2904345D01*
X1741325Y2900813D01*
X1739413Y2896198D01*
Y2891203D01*
X1741325Y2886589D01*
X1744857Y2883057D01*
X1749471Y2881146D01*
X1754466D01*
X1759080Y2883057D01*
X1762612Y2886589D01*
X1764524Y2891203D01*
Y2896198D01*
X1762612Y2900813D01*
X1759080Y2904345D01*
X1754466Y2906256D01*
D02*
G37*
G36*
X1461159Y2899181D02*
X1456164D01*
X1451550Y2897269D01*
X1448018Y2893738D01*
X1446107Y2889123D01*
Y2884128D01*
X1448018Y2879514D01*
X1451550Y2875982D01*
X1456164Y2874071D01*
X1461159D01*
X1465774Y2875982D01*
X1469305Y2879514D01*
X1471217Y2884128D01*
Y2889123D01*
X1469305Y2893738D01*
X1465774Y2897269D01*
X1461159Y2899181D01*
D02*
G37*
G36*
X2816352Y2886683D02*
X2811357D01*
X2806742Y2884772D01*
X2803211Y2881240D01*
X2801299Y2876625D01*
Y2871631D01*
X2803211Y2867016D01*
X2806742Y2863484D01*
X2811357Y2861573D01*
X2816352D01*
X2820966Y2863484D01*
X2824498Y2867016D01*
X2826409Y2871631D01*
Y2876625D01*
X2824498Y2881240D01*
X2820966Y2884772D01*
X2816352Y2886683D01*
D02*
G37*
G36*
X3418475Y2879019D02*
X3413480D01*
X3408866Y2877107D01*
X3405334Y2873575D01*
X3403423Y2868961D01*
Y2863966D01*
X3405334Y2859352D01*
X3408866Y2855820D01*
X3413480Y2853908D01*
X3418475D01*
X3423090Y2855820D01*
X3426621Y2859352D01*
X3428533Y2863966D01*
Y2868961D01*
X3426621Y2873575D01*
X3423090Y2877107D01*
X3418475Y2879019D01*
D02*
G37*
G36*
X3137356Y2869552D02*
X3132361D01*
X3127747Y2867641D01*
X3124215Y2864109D01*
X3122303Y2859495D01*
Y2854500D01*
X3124215Y2849885D01*
X3127747Y2846354D01*
X3132361Y2844442D01*
X3137356D01*
X3141970Y2846354D01*
X3145502Y2849885D01*
X3147414Y2854500D01*
Y2859495D01*
X3145502Y2864109D01*
X3141970Y2867641D01*
X3137356Y2869552D01*
D02*
G37*
G36*
X2679662Y2847201D02*
X2674668D01*
X2670053Y2845290D01*
X2666521Y2841758D01*
X2664610Y2837144D01*
Y2832149D01*
X2665180Y2830773D01*
X2661353Y2826947D01*
X2659977Y2827516D01*
X2654982D01*
X2650368Y2825605D01*
X2646836Y2822073D01*
X2644925Y2817459D01*
Y2812464D01*
X2646836Y2807849D01*
X2650368Y2804317D01*
X2654982Y2802406D01*
X2659977D01*
X2661353Y2802976D01*
X2665180Y2799149D01*
X2664610Y2797773D01*
Y2792779D01*
X2666521Y2788164D01*
X2670053Y2784632D01*
X2674668Y2782721D01*
X2679662D01*
X2684277Y2784632D01*
X2687809Y2788164D01*
X2689720Y2792779D01*
Y2797773D01*
X2689150Y2799149D01*
X2692977Y2802976D01*
X2694352Y2802406D01*
X2699347D01*
X2703962Y2804317D01*
X2707494Y2807849D01*
X2709405Y2812464D01*
Y2817459D01*
X2707494Y2822073D01*
X2703962Y2825605D01*
X2699347Y2827516D01*
X2694352D01*
X2692977Y2826947D01*
X2689150Y2830773D01*
X2689720Y2832149D01*
Y2837144D01*
X2687809Y2841758D01*
X2684277Y2845290D01*
X2679662Y2847201D01*
D02*
G37*
G36*
X2404073Y2847201D02*
X2399078D01*
X2394463Y2845290D01*
X2390932Y2841758D01*
X2389020Y2837143D01*
Y2832148D01*
X2390932Y2827534D01*
X2394463Y2824002D01*
X2399078Y2822091D01*
X2404073D01*
X2408687Y2824002D01*
X2412219Y2827534D01*
X2414130Y2832148D01*
Y2837143D01*
X2412219Y2841758D01*
X2408687Y2845290D01*
X2404073Y2847201D01*
D02*
G37*
G36*
X1971001Y2847201D02*
X1966007D01*
X1961392Y2845289D01*
X1957860Y2841758D01*
X1955949Y2837143D01*
Y2832148D01*
X1957860Y2827534D01*
X1961392Y2824002D01*
X1966007Y2822091D01*
X1971001D01*
X1975616Y2824002D01*
X1979148Y2827534D01*
X1981059Y2832148D01*
Y2837143D01*
X1979148Y2841758D01*
X1975616Y2845289D01*
X1971001Y2847201D01*
D02*
G37*
G36*
X2404072Y2815705D02*
X2399077D01*
X2394463Y2813794D01*
X2390931Y2810262D01*
X2389020Y2805648D01*
Y2800653D01*
X2390931Y2796038D01*
X2394463Y2792506D01*
X2399077Y2790595D01*
X2404072D01*
X2408687Y2792506D01*
X2412219Y2796038D01*
X2414130Y2800653D01*
Y2805648D01*
X2412219Y2810262D01*
X2408687Y2813794D01*
X2404072Y2815705D01*
D02*
G37*
G36*
X1971001Y2815705D02*
X1966007D01*
X1961392Y2813794D01*
X1957860Y2810262D01*
X1955949Y2805647D01*
Y2800652D01*
X1957860Y2796038D01*
X1961392Y2792506D01*
X1966007Y2790595D01*
X1971001D01*
X1975616Y2792506D01*
X1979148Y2796038D01*
X1981059Y2800652D01*
Y2805647D01*
X1979148Y2810262D01*
X1975616Y2813794D01*
X1971001Y2815705D01*
D02*
G37*
G36*
X1673757Y2812567D02*
X1668763D01*
X1664148Y2810655D01*
X1660616Y2807124D01*
X1658705Y2802509D01*
Y2797514D01*
X1660616Y2792900D01*
X1664148Y2789368D01*
X1668763Y2787457D01*
X1673757D01*
X1678372Y2789368D01*
X1681904Y2792900D01*
X1683815Y2797514D01*
Y2802509D01*
X1681904Y2807124D01*
X1678372Y2810655D01*
X1673757Y2812567D01*
D02*
G37*
G36*
X1852891Y2768461D02*
X1847896D01*
X1843282Y2766549D01*
X1839750Y2763017D01*
X1837839Y2758403D01*
Y2753408D01*
X1839750Y2748794D01*
X1843282Y2745262D01*
X1847896Y2743350D01*
X1852891D01*
X1857506Y2745262D01*
X1861037Y2748794D01*
X1862949Y2753408D01*
Y2758403D01*
X1861037Y2763017D01*
X1857506Y2766549D01*
X1852891Y2768461D01*
D02*
G37*
G36*
X1911946Y2689720D02*
X1906951D01*
X1902337Y2687809D01*
X1899606Y2685079D01*
X1896876Y2687809D01*
X1892261Y2689720D01*
X1887266D01*
X1882652Y2687809D01*
X1879120Y2684277D01*
X1877209Y2679663D01*
Y2674668D01*
X1879120Y2670053D01*
X1881851Y2667323D01*
X1879120Y2664592D01*
X1877209Y2659978D01*
Y2654983D01*
X1879120Y2650368D01*
X1881851Y2647638D01*
X1879120Y2644907D01*
X1877209Y2640293D01*
Y2635298D01*
X1879120Y2630683D01*
X1882652Y2627152D01*
X1887266Y2625240D01*
X1892261D01*
X1896876Y2627152D01*
X1899606Y2629882D01*
X1902337Y2627152D01*
X1906951Y2625240D01*
X1911946D01*
X1916561Y2627152D01*
X1920092Y2630683D01*
X1922004Y2635298D01*
Y2640293D01*
X1920092Y2644907D01*
X1917362Y2647638D01*
X1920092Y2650368D01*
X1922004Y2654983D01*
Y2659978D01*
X1920092Y2664592D01*
X1917362Y2667323D01*
X1920092Y2670053D01*
X1922004Y2674668D01*
Y2679663D01*
X1920092Y2684277D01*
X1916561Y2687809D01*
X1911946Y2689720D01*
D02*
G37*
G36*
X2077301Y2709406D02*
X2072306D01*
X2067691Y2707494D01*
X2064160Y2703963D01*
X2062248Y2699348D01*
Y2694353D01*
X2064160Y2689739D01*
X2067691Y2686207D01*
X2072306Y2684296D01*
X2077301D01*
X2081915Y2686207D01*
X2085447Y2689739D01*
X2087358Y2694353D01*
Y2699348D01*
X2085447Y2703963D01*
X2081915Y2707494D01*
X2077301Y2709406D01*
D02*
G37*
G36*
X2297773Y2709406D02*
X2292778D01*
X2288163Y2707494D01*
X2284632Y2703963D01*
X2282720Y2699348D01*
Y2694353D01*
X2284632Y2689739D01*
X2288163Y2686207D01*
X2292778Y2684296D01*
X2297773D01*
X2302387Y2686207D01*
X2305919Y2689739D01*
X2307830Y2694353D01*
Y2699348D01*
X2305919Y2703963D01*
X2302387Y2707494D01*
X2297773Y2709406D01*
D02*
G37*
G36*
X2171789Y2709406D02*
X2166794D01*
X2162180Y2707494D01*
X2158648Y2703962D01*
X2156736Y2699348D01*
Y2694353D01*
X2158648Y2689739D01*
X2162180Y2686207D01*
X2166794Y2684295D01*
X2171789D01*
X2176403Y2686207D01*
X2179935Y2689739D01*
X2181847Y2694353D01*
Y2699348D01*
X2179935Y2703962D01*
X2176403Y2707494D01*
X2171789Y2709406D01*
D02*
G37*
G36*
X2266277Y2709405D02*
X2261282D01*
X2256668Y2707494D01*
X2253136Y2703962D01*
X2251224Y2699348D01*
Y2694353D01*
X2253136Y2689738D01*
X2256668Y2686207D01*
X2261282Y2684295D01*
X2266277D01*
X2270891Y2686207D01*
X2274423Y2689738D01*
X2276335Y2694353D01*
Y2699348D01*
X2274423Y2703962D01*
X2270891Y2707494D01*
X2266277Y2709405D01*
D02*
G37*
G36*
X2234781Y2709405D02*
X2229786D01*
X2225171Y2707494D01*
X2221640Y2703962D01*
X2219728Y2699348D01*
Y2694353D01*
X2221640Y2689738D01*
X2225171Y2686206D01*
X2229786Y2684295D01*
X2234781D01*
X2239395Y2686206D01*
X2242927Y2689738D01*
X2244838Y2694353D01*
Y2699348D01*
X2242927Y2703962D01*
X2239395Y2707494D01*
X2234781Y2709405D01*
D02*
G37*
G36*
X2203285Y2709405D02*
X2198290D01*
X2193675Y2707494D01*
X2190144Y2703962D01*
X2188232Y2699347D01*
Y2694353D01*
X2190144Y2689738D01*
X2193675Y2686206D01*
X2198290Y2684295D01*
X2203285D01*
X2207899Y2686206D01*
X2211431Y2689738D01*
X2213342Y2694353D01*
Y2699347D01*
X2211431Y2703962D01*
X2207899Y2707494D01*
X2203285Y2709405D01*
D02*
G37*
G36*
X2140293D02*
X2135298D01*
X2130683Y2707494D01*
X2127151Y2703962D01*
X2125240Y2699347D01*
Y2694353D01*
X2127151Y2689738D01*
X2130683Y2686206D01*
X2135298Y2684295D01*
X2140293D01*
X2144907Y2686206D01*
X2148439Y2689738D01*
X2150350Y2694353D01*
Y2699347D01*
X2148439Y2703962D01*
X2144907Y2707494D01*
X2140293Y2709405D01*
D02*
G37*
G36*
X1243399Y2669445D02*
X1236917D01*
X1230928Y2666964D01*
X1226343Y2662380D01*
X1223863Y2656391D01*
Y2649908D01*
X1226343Y2643919D01*
X1230928Y2639335D01*
X1236917Y2636854D01*
X1243399D01*
X1249389Y2639335D01*
X1253973Y2643919D01*
X1256453Y2649908D01*
Y2656391D01*
X1253973Y2662380D01*
X1249389Y2666964D01*
X1243399Y2669445D01*
D02*
G37*
G36*
X3526119Y2610980D02*
X3521125D01*
X3516510Y2609069D01*
X3512978Y2605537D01*
X3511067Y2600923D01*
Y2595928D01*
X3512978Y2591313D01*
X3516510Y2587782D01*
X3521125Y2585870D01*
X3526119D01*
X3530734Y2587782D01*
X3534266Y2591313D01*
X3536177Y2595928D01*
Y2600923D01*
X3534266Y2605537D01*
X3530734Y2609069D01*
X3526119Y2610980D01*
D02*
G37*
G36*
X3486749D02*
X3481755D01*
X3477140Y2609069D01*
X3473608Y2605537D01*
X3471697Y2600923D01*
Y2595928D01*
X3473608Y2591313D01*
X3477140Y2587782D01*
X3481755Y2585870D01*
X3486749D01*
X3491364Y2587782D01*
X3494896Y2591313D01*
X3496807Y2595928D01*
Y2600923D01*
X3494896Y2605537D01*
X3491364Y2609069D01*
X3486749Y2610980D01*
D02*
G37*
G36*
X3447379D02*
X3442385D01*
X3437770Y2609069D01*
X3434238Y2605537D01*
X3432327Y2600923D01*
Y2595928D01*
X3434238Y2591313D01*
X3437770Y2587782D01*
X3442385Y2585870D01*
X3447379D01*
X3451994Y2587782D01*
X3455526Y2591313D01*
X3457437Y2595928D01*
Y2600923D01*
X3455526Y2605537D01*
X3451994Y2609069D01*
X3447379Y2610980D01*
D02*
G37*
G36*
X3408009D02*
X3403014D01*
X3398400Y2609069D01*
X3394868Y2605537D01*
X3392957Y2600923D01*
Y2595928D01*
X3394868Y2591313D01*
X3398400Y2587782D01*
X3403014Y2585870D01*
X3408009D01*
X3412624Y2587782D01*
X3416155Y2591313D01*
X3418067Y2595928D01*
Y2600923D01*
X3416155Y2605537D01*
X3412624Y2609069D01*
X3408009Y2610980D01*
D02*
G37*
G36*
X3368639D02*
X3363644D01*
X3359030Y2609069D01*
X3355498Y2605537D01*
X3353587Y2600923D01*
Y2595928D01*
X3355498Y2591313D01*
X3359030Y2587782D01*
X3363644Y2585870D01*
X3368639D01*
X3373254Y2587782D01*
X3376785Y2591313D01*
X3378697Y2595928D01*
Y2600923D01*
X3376785Y2605537D01*
X3373254Y2609069D01*
X3368639Y2610980D01*
D02*
G37*
G36*
X3329269D02*
X3324274D01*
X3319660Y2609069D01*
X3316128Y2605537D01*
X3314217Y2600923D01*
Y2595928D01*
X3316128Y2591313D01*
X3319660Y2587782D01*
X3324274Y2585870D01*
X3329269D01*
X3333884Y2587782D01*
X3337415Y2591313D01*
X3339327Y2595928D01*
Y2600923D01*
X3337415Y2605537D01*
X3333884Y2609069D01*
X3329269Y2610980D01*
D02*
G37*
G36*
X3289899D02*
X3284904D01*
X3280290Y2609069D01*
X3276758Y2605537D01*
X3274847Y2600923D01*
Y2595928D01*
X3276758Y2591313D01*
X3280290Y2587782D01*
X3284904Y2585870D01*
X3289899D01*
X3294514Y2587782D01*
X3298045Y2591313D01*
X3299957Y2595928D01*
Y2600923D01*
X3298045Y2605537D01*
X3294514Y2609069D01*
X3289899Y2610980D01*
D02*
G37*
G36*
X3230844D02*
X3225849D01*
X3221235Y2609069D01*
X3217703Y2605537D01*
X3215792Y2600923D01*
Y2595928D01*
X3217703Y2591313D01*
X3221235Y2587782D01*
X3225849Y2585870D01*
X3230844D01*
X3235459Y2587782D01*
X3238991Y2591313D01*
X3240902Y2595928D01*
Y2600923D01*
X3238991Y2605537D01*
X3235459Y2609069D01*
X3230844Y2610980D01*
D02*
G37*
G36*
X3191474D02*
X3186479D01*
X3181865Y2609069D01*
X3178333Y2605537D01*
X3176422Y2600923D01*
Y2595928D01*
X3178333Y2591313D01*
X3181865Y2587782D01*
X3186479Y2585870D01*
X3191474D01*
X3196089Y2587782D01*
X3199620Y2591313D01*
X3201532Y2595928D01*
Y2600923D01*
X3199620Y2605537D01*
X3196089Y2609069D01*
X3191474Y2610980D01*
D02*
G37*
G36*
X3152104D02*
X3147109D01*
X3142494Y2609069D01*
X3138963Y2605537D01*
X3137051Y2600923D01*
Y2595928D01*
X3138963Y2591313D01*
X3142494Y2587782D01*
X3147109Y2585870D01*
X3152104D01*
X3156718Y2587782D01*
X3160250Y2591313D01*
X3162161Y2595928D01*
Y2600923D01*
X3160250Y2605537D01*
X3156718Y2609069D01*
X3152104Y2610980D01*
D02*
G37*
G36*
X3112734D02*
X3107739D01*
X3103124Y2609069D01*
X3099593Y2605537D01*
X3097681Y2600923D01*
Y2595928D01*
X3099593Y2591313D01*
X3103124Y2587782D01*
X3107739Y2585870D01*
X3112734D01*
X3117348Y2587782D01*
X3120880Y2591313D01*
X3122791Y2595928D01*
Y2600923D01*
X3120880Y2605537D01*
X3117348Y2609069D01*
X3112734Y2610980D01*
D02*
G37*
G36*
X3073363D02*
X3068368D01*
X3063753Y2609069D01*
X3060222Y2605537D01*
X3058310Y2600923D01*
Y2595928D01*
X3060222Y2591313D01*
X3063753Y2587782D01*
X3068368Y2585870D01*
X3073363D01*
X3077977Y2587782D01*
X3081509Y2591313D01*
X3083421Y2595928D01*
Y2600923D01*
X3081509Y2605537D01*
X3077977Y2609069D01*
X3073363Y2610980D01*
D02*
G37*
G36*
X3033993D02*
X3028999D01*
X3024384Y2609069D01*
X3020852Y2605537D01*
X3018941Y2600923D01*
Y2595928D01*
X3020852Y2591313D01*
X3024384Y2587782D01*
X3028999Y2585870D01*
X3033993D01*
X3038608Y2587782D01*
X3042140Y2591313D01*
X3044051Y2595928D01*
Y2600923D01*
X3042140Y2605537D01*
X3038608Y2609069D01*
X3033993Y2610980D01*
D02*
G37*
G36*
X1262341Y2581453D02*
X1257346D01*
X1252732Y2579541D01*
X1249200Y2576010D01*
X1247288Y2571395D01*
Y2566400D01*
X1249200Y2561786D01*
X1252732Y2558254D01*
X1257346Y2556343D01*
X1262341D01*
X1266955Y2558254D01*
X1270487Y2561786D01*
X1272399Y2566400D01*
Y2571395D01*
X1270487Y2576010D01*
X1266955Y2579541D01*
X1262341Y2581453D01*
D02*
G37*
G36*
X1262341Y2542082D02*
X1257346D01*
X1252731Y2540171D01*
X1249200Y2536639D01*
X1247288Y2532025D01*
Y2527030D01*
X1249200Y2522415D01*
X1252731Y2518884D01*
X1257346Y2516972D01*
X1262341D01*
X1266955Y2518884D01*
X1270487Y2522415D01*
X1272398Y2527030D01*
Y2532025D01*
X1270487Y2536639D01*
X1266955Y2540171D01*
X1262341Y2542082D01*
D02*
G37*
G36*
X1341080Y2562631D02*
X1336085D01*
X1331471Y2560719D01*
X1327939Y2557187D01*
X1326028Y2552573D01*
Y2547578D01*
X1327939Y2542964D01*
X1328366Y2542537D01*
X1331325Y2539270D01*
X1328366Y2536004D01*
X1327939Y2535577D01*
X1326028Y2530963D01*
Y2525968D01*
X1327939Y2521353D01*
X1331471Y2517822D01*
X1336085Y2515910D01*
X1341080D01*
X1345695Y2517822D01*
X1349226Y2521353D01*
X1351138Y2525968D01*
Y2530963D01*
X1349226Y2535577D01*
X1348800Y2536004D01*
X1345841Y2539270D01*
X1348800Y2542537D01*
X1349226Y2542964D01*
X1351138Y2547578D01*
Y2552573D01*
X1349226Y2557187D01*
X1345695Y2560719D01*
X1341080Y2562631D01*
D02*
G37*
G36*
X2620608Y2473185D02*
X2615613D01*
X2610998Y2471274D01*
X2607466Y2467742D01*
X2605555Y2463127D01*
Y2458133D01*
X2606125Y2456757D01*
X2602298Y2452930D01*
X2600923Y2453500D01*
X2595928D01*
X2591313Y2451588D01*
X2587781Y2448057D01*
X2585870Y2443442D01*
Y2438447D01*
X2587781Y2433833D01*
X2591313Y2430301D01*
X2595928Y2428390D01*
X2600923D01*
X2602298Y2428959D01*
X2606125Y2425133D01*
X2605555Y2423757D01*
Y2418762D01*
X2607466Y2414148D01*
X2610998Y2410616D01*
X2615613Y2408705D01*
X2620608D01*
X2625222Y2410616D01*
X2628754Y2414148D01*
X2630665Y2418762D01*
Y2423757D01*
X2630096Y2425133D01*
X2633923Y2428959D01*
X2635298Y2428390D01*
X2640293D01*
X2644907Y2430301D01*
X2648439Y2433833D01*
X2650350Y2438447D01*
Y2443442D01*
X2648439Y2448057D01*
X2644907Y2451588D01*
X2640293Y2453500D01*
X2635298D01*
X2633922Y2452930D01*
X2630096Y2456757D01*
X2630665Y2458133D01*
Y2463127D01*
X2628754Y2467742D01*
X2625222Y2471274D01*
X2620608Y2473185D01*
D02*
G37*
G36*
X1243399Y2441886D02*
X1236916D01*
X1230927Y2439405D01*
X1226343Y2434821D01*
X1223862Y2428832D01*
Y2422349D01*
X1226343Y2416360D01*
X1230927Y2411776D01*
X1236916Y2409295D01*
X1243399D01*
X1249388Y2411776D01*
X1253972Y2416360D01*
X1256453Y2422349D01*
Y2428832D01*
X1253972Y2434821D01*
X1249388Y2439405D01*
X1243399Y2441886D01*
D02*
G37*
G36*
X1346003Y2091491D02*
X1341008D01*
X1336394Y2089580D01*
X1332862Y2086048D01*
X1330951Y2081434D01*
Y2076439D01*
X1332862Y2071824D01*
X1336394Y2068292D01*
X1341008Y2066381D01*
X1346003D01*
X1350618Y2068292D01*
X1354149Y2071824D01*
X1356061Y2076439D01*
Y2081434D01*
X1354149Y2086048D01*
X1350618Y2089580D01*
X1346003Y2091491D01*
D02*
G37*
G36*
X2030056Y2079484D02*
X2025062D01*
X2020447Y2077573D01*
X2016915Y2074041D01*
X2015004Y2069427D01*
Y2064432D01*
X2016915Y2059817D01*
X2020447Y2056285D01*
X2025062Y2054374D01*
X2030056D01*
X2031432Y2054944D01*
X2035259Y2051117D01*
X2034689Y2049742D01*
Y2044747D01*
X2035259Y2043371D01*
X2031432Y2039544D01*
X2030056Y2040114D01*
X2025062D01*
X2020447Y2038203D01*
X2016915Y2034671D01*
X2015004Y2030056D01*
Y2025062D01*
X2016915Y2020447D01*
X2020447Y2016915D01*
X2025062Y2015004D01*
X2030056D01*
X2031432Y2015574D01*
X2035259Y2011747D01*
X2034689Y2010371D01*
Y2005377D01*
X2036600Y2000762D01*
X2040132Y1997230D01*
X2044747Y1995319D01*
X2049742D01*
X2054356Y1997230D01*
X2057888Y2000762D01*
X2059799Y2005377D01*
Y2010371D01*
X2057888Y2014986D01*
X2054356Y2018518D01*
X2049742Y2020429D01*
X2044747D01*
X2043371Y2019859D01*
X2039544Y2023686D01*
X2040114Y2025062D01*
Y2030056D01*
X2039544Y2031432D01*
X2043371Y2035259D01*
X2044747Y2034689D01*
X2049742D01*
X2054356Y2036600D01*
X2057888Y2040132D01*
X2059799Y2044747D01*
Y2049742D01*
X2057888Y2054356D01*
X2054356Y2057888D01*
X2049742Y2059799D01*
X2044747D01*
X2043371Y2059229D01*
X2039544Y2063056D01*
X2040114Y2064432D01*
Y2069427D01*
X2038203Y2074041D01*
X2034671Y2077573D01*
X2030056Y2079484D01*
D02*
G37*
G36*
X2226907Y2020429D02*
X2221912D01*
X2217298Y2018518D01*
X2213766Y2014986D01*
X2211854Y2010371D01*
Y2005377D01*
X2213766Y2000762D01*
X2217298Y1997230D01*
X2221912Y1995319D01*
X2226907D01*
X2231521Y1997230D01*
X2235053Y2000762D01*
X2236965Y2005377D01*
Y2010371D01*
X2235053Y2014986D01*
X2231521Y2018518D01*
X2226907Y2020429D01*
D02*
G37*
G36*
X2167852D02*
X2162857D01*
X2158242Y2018518D01*
X2154711Y2014986D01*
X2152799Y2010371D01*
Y2005377D01*
X2154711Y2000762D01*
X2158242Y1997230D01*
X2162857Y1995319D01*
X2167852D01*
X2172466Y1997230D01*
X2175998Y2000762D01*
X2177909Y2005377D01*
Y2010371D01*
X2175998Y2014986D01*
X2172466Y2018518D01*
X2167852Y2020429D01*
D02*
G37*
G36*
X2096587Y1956015D02*
X2091592D01*
X2086977Y1954103D01*
X2083446Y1950572D01*
X2081534Y1945957D01*
Y1940962D01*
X2083446Y1936348D01*
X2086977Y1932816D01*
X2091592Y1930905D01*
X2096587D01*
X2101201Y1932816D01*
X2104733Y1936348D01*
X2106644Y1940962D01*
Y1945957D01*
X2104733Y1950572D01*
X2101201Y1954103D01*
X2096587Y1956015D01*
D02*
G37*
G36*
X1282025Y1685783D02*
X1277030D01*
X1272416Y1683872D01*
X1268884Y1680340D01*
X1266973Y1675726D01*
Y1670731D01*
X1268884Y1666116D01*
X1272416Y1662585D01*
X1277030Y1660673D01*
X1282025D01*
X1286639Y1662585D01*
X1290171Y1666116D01*
X1292083Y1670731D01*
Y1675726D01*
X1290171Y1680340D01*
X1286639Y1683872D01*
X1282025Y1685783D01*
D02*
G37*
G36*
X3129941Y2190542D02*
X3124947D01*
X3120332Y2188631D01*
X3116800Y2185099D01*
X3114889Y2180485D01*
Y2175490D01*
X3116800Y2170875D01*
X3120332Y2167344D01*
X3124947Y2165432D01*
X3129941D01*
X3134556Y2167344D01*
X3138088Y2170875D01*
X3139999Y2175490D01*
Y2180485D01*
X3138088Y2185099D01*
X3134556Y2188631D01*
X3129941Y2190542D01*
D02*
G37*
G36*
X3348955Y2109015D02*
X3343960D01*
X3339346Y2107103D01*
X3335814Y2103572D01*
X3333903Y2098957D01*
Y2093962D01*
X3335814Y2089348D01*
X3339346Y2085816D01*
X3343960Y2083905D01*
X3348955D01*
X3353570Y2085816D01*
X3357101Y2089348D01*
X3359013Y2093962D01*
Y2098957D01*
X3357101Y2103572D01*
X3353570Y2107103D01*
X3348955Y2109015D01*
D02*
G37*
G36*
X3221001Y2032737D02*
X3216006D01*
X3211392Y2030825D01*
X3207860Y2027293D01*
X3205948Y2022679D01*
Y2017684D01*
X3207860Y2013070D01*
X3211392Y2009538D01*
X3216006Y2007626D01*
X3221001D01*
X3225615Y2009538D01*
X3229147Y2013070D01*
X3231059Y2017684D01*
Y2022679D01*
X3229147Y2027293D01*
X3225615Y2030825D01*
X3221001Y2032737D01*
D02*
G37*
G36*
X2856828Y2000744D02*
X2851833D01*
X2847219Y1998833D01*
X2843687Y1995301D01*
X2841776Y1990687D01*
Y1985692D01*
X2843687Y1981077D01*
X2847219Y1977545D01*
X2851833Y1975634D01*
X2856828D01*
X2861443Y1977545D01*
X2864974Y1981077D01*
X2866886Y1985692D01*
Y1990687D01*
X2864974Y1995301D01*
X2861443Y1998833D01*
X2856828Y2000744D01*
D02*
G37*
G36*
X2946523Y1979091D02*
X2941528D01*
X2936913Y1977180D01*
X2933381Y1973648D01*
X2931470Y1969033D01*
Y1964039D01*
X2933381Y1959424D01*
X2936913Y1955892D01*
X2941528Y1953981D01*
X2946523D01*
X2951137Y1955892D01*
X2954669Y1959424D01*
X2956580Y1964039D01*
Y1969033D01*
X2954669Y1973648D01*
X2951137Y1977180D01*
X2946523Y1979091D01*
D02*
G37*
G36*
X3081427Y1943784D02*
X3076432D01*
X3071817Y1941873D01*
X3068285Y1938341D01*
X3066374Y1933726D01*
Y1928732D01*
X3068285Y1924117D01*
X3071817Y1920585D01*
X3076432Y1918674D01*
X3081427D01*
X3086041Y1920585D01*
X3089573Y1924117D01*
X3091484Y1928732D01*
Y1933726D01*
X3089573Y1938341D01*
X3086041Y1941873D01*
X3081427Y1943784D01*
D02*
G37*
G36*
X3291601Y1931847D02*
X3286606D01*
X3281992Y1929935D01*
X3278460Y1926403D01*
X3276548Y1921789D01*
Y1916794D01*
X3278460Y1912180D01*
X3281992Y1908648D01*
X3286606Y1906736D01*
X3291601D01*
X3296215Y1908648D01*
X3299747Y1912180D01*
X3301659Y1916794D01*
Y1921789D01*
X3299747Y1926403D01*
X3296215Y1929935D01*
X3291601Y1931847D01*
D02*
G37*
G36*
X3161456Y1868853D02*
X3156461D01*
X3151846Y1866942D01*
X3148314Y1863410D01*
X3146403Y1858795D01*
Y1853801D01*
X3148314Y1849186D01*
X3151846Y1845654D01*
X3156461Y1843743D01*
X3161456D01*
X3166070Y1845654D01*
X3169602Y1849186D01*
X3171513Y1853801D01*
Y1858795D01*
X3169602Y1863410D01*
X3166070Y1866942D01*
X3161456Y1868853D01*
D02*
G37*
G36*
X3201317Y1853273D02*
X3196322D01*
X3191707Y1851361D01*
X3188175Y1847830D01*
X3186264Y1843215D01*
Y1838220D01*
X3188175Y1833606D01*
X3191707Y1830074D01*
X3196322Y1828163D01*
X3201317D01*
X3205931Y1830074D01*
X3209463Y1833606D01*
X3211374Y1838220D01*
Y1843215D01*
X3209463Y1847830D01*
X3205931Y1851361D01*
X3201317Y1853273D01*
D02*
G37*
G36*
X3132419Y1823579D02*
X3127424D01*
X3122809Y1821667D01*
X3119278Y1818136D01*
X3117366Y1813521D01*
Y1808526D01*
X3119278Y1803912D01*
X3122809Y1800380D01*
X3127424Y1798468D01*
X3132419D01*
X3137033Y1800380D01*
X3140565Y1803912D01*
X3142476Y1808526D01*
Y1813521D01*
X3140565Y1818136D01*
X3137033Y1821667D01*
X3132419Y1823579D01*
D02*
G37*
G36*
X2918709Y1803894D02*
X2913714D01*
X2909099Y1801983D01*
X2905568Y1798451D01*
X2903656Y1793836D01*
Y1788841D01*
X2905568Y1784227D01*
X2909099Y1780695D01*
X2913714Y1778784D01*
X2918709D01*
X2923323Y1780695D01*
X2926855Y1784227D01*
X2928766Y1788841D01*
Y1793836D01*
X2926855Y1798451D01*
X2923323Y1801983D01*
X2918709Y1803894D01*
D02*
G37*
G36*
X3171789Y1771580D02*
X3166794D01*
X3162179Y1769668D01*
X3158648Y1766136D01*
X3156736Y1761522D01*
Y1756527D01*
X3158648Y1751913D01*
X3162179Y1748381D01*
X3166794Y1746469D01*
X3171789D01*
X3176403Y1748381D01*
X3179935Y1751913D01*
X3181846Y1756527D01*
Y1761522D01*
X3179935Y1766136D01*
X3176403Y1769668D01*
X3171789Y1771580D01*
D02*
G37*
G36*
X2856828Y1744839D02*
X2851833D01*
X2847219Y1742927D01*
X2843687Y1739395D01*
X2841776Y1734781D01*
Y1729786D01*
X2843687Y1725171D01*
X2847219Y1721640D01*
X2851833Y1719728D01*
X2856828D01*
X2861443Y1721640D01*
X2864974Y1725171D01*
X2866886Y1729786D01*
Y1734781D01*
X2864974Y1739395D01*
X2861443Y1742927D01*
X2856828Y1744839D01*
D02*
G37*
G36*
X2306575Y1745903D02*
Y1697913D01*
X2341443D01*
Y1706693D01*
X2340085Y1717012D01*
X2336102Y1726627D01*
X2329766Y1734884D01*
X2321509Y1741220D01*
X2311894Y1745203D01*
X2306575Y1745903D01*
D02*
G37*
G36*
X2296575D02*
X2291256Y1745203D01*
X2281640Y1741220D01*
X2273383Y1734884D01*
X2267048Y1726627D01*
X2263065Y1717012D01*
X2261706Y1706693D01*
Y1697913D01*
X2296575D01*
Y1745903D01*
D02*
G37*
G36*
X2534602Y1739720D02*
X2468547D01*
Y1646106D01*
X2534602D01*
Y1739720D01*
D02*
G37*
G36*
X2401575Y1740005D02*
X2392953Y1738870D01*
X2384918Y1735543D01*
X2378019Y1730248D01*
X2372725Y1723349D01*
X2369397Y1715315D01*
X2368262Y1706693D01*
Y1679134D01*
X2369397Y1670512D01*
X2372725Y1662478D01*
X2378019Y1655578D01*
X2384918Y1650284D01*
X2392953Y1646956D01*
X2401575Y1645821D01*
X2410197Y1646956D01*
X2418231Y1650284D01*
X2425130Y1655578D01*
X2430424Y1662478D01*
X2433752Y1670512D01*
X2434887Y1679134D01*
Y1706693D01*
X2433752Y1715315D01*
X2430424Y1723349D01*
X2425130Y1730248D01*
X2418231Y1735543D01*
X2410197Y1738870D01*
X2401575Y1740005D01*
D02*
G37*
G36*
X2341443Y1687913D02*
X2306575D01*
Y1639924D01*
X2311894Y1640624D01*
X2321509Y1644607D01*
X2329766Y1650942D01*
X2336102Y1659199D01*
X2340085Y1668815D01*
X2341443Y1679134D01*
Y1687913D01*
D02*
G37*
G36*
X2296575D02*
X2261706D01*
Y1679134D01*
X2263065Y1668815D01*
X2267048Y1659199D01*
X2273383Y1650942D01*
X2281640Y1644607D01*
X2291256Y1640624D01*
X2296575Y1639924D01*
Y1687913D01*
D02*
G37*
%LPD*%
D79*
X2658268Y3897637D02*
D03*
X2558269D02*
D03*
X2458268Y3897637D02*
D03*
X2358268Y3897638D02*
D03*
X2258268Y3897638D02*
D03*
X2158268Y3897637D02*
D03*
X2058268Y3897638D02*
D03*
X1258268Y3897638D02*
D03*
X1358268D02*
D03*
X1458268D02*
D03*
X1558268Y3897638D02*
D03*
X1658268D02*
D03*
X2058269Y3647638D02*
D03*
X2158269Y3647637D02*
D03*
X2258269Y3647638D02*
D03*
X2358269Y3647638D02*
D03*
X2458269Y3647638D02*
D03*
X2558269Y3647638D02*
D03*
X2658268Y3647637D02*
D03*
X1158268Y3897638D02*
D03*
X1758268Y3897637D02*
D03*
D80*
X1958268D02*
D03*
Y3647637D02*
D03*
X1058268Y3897638D02*
D03*
D81*
X2501574Y1692913D02*
D03*
D82*
X2301575Y1692913D02*
D03*
X2401575D02*
D03*
D83*
X1240157Y3134252D02*
D03*
X1240158Y3361811D02*
D03*
X1240158Y2425591D02*
D03*
X1240158Y2653150D02*
D03*
D84*
X3543307Y3887795D02*
D03*
Y3690945D02*
D03*
Y3592520D02*
D03*
Y3494095D02*
D03*
Y2419291D02*
D03*
Y2517717D02*
D03*
Y2714567D02*
D03*
Y2812992D02*
D03*
Y2911418D02*
D03*
X3641732Y2419291D02*
D03*
X3592520Y2468504D02*
D03*
X3641732Y2517717D02*
D03*
X3592520Y2566929D02*
D03*
X3681102Y3080709D02*
D03*
X3698621Y3072233D02*
D03*
X3710630Y3088583D02*
D03*
Y3127953D02*
D03*
Y3167323D02*
D03*
Y3206693D02*
D03*
X2194882Y2007874D02*
D03*
X3503937Y2608268D02*
D03*
X3464567D02*
D03*
X3425197D02*
D03*
X3385827D02*
D03*
X3346457D02*
D03*
X3307087D02*
D03*
X3257874D02*
D03*
X3208661D02*
D03*
X3169291D02*
D03*
X3129921D02*
D03*
X3090551D02*
D03*
X3051181D02*
D03*
X3641732Y3297244D02*
D03*
X3592520Y3346457D02*
D03*
X3641732Y3395669D02*
D03*
Y3494095D02*
D03*
X3592520Y2960630D02*
D03*
Y2862205D02*
D03*
Y2763780D02*
D03*
X3641732Y2911418D02*
D03*
Y2812992D02*
D03*
Y2714567D02*
D03*
X3592520Y2665354D02*
D03*
X3641732Y2616142D02*
D03*
X3592520Y3937008D02*
D03*
X3641732Y3887795D02*
D03*
X3592520Y3838583D02*
D03*
X3641732Y3789370D02*
D03*
X3592520Y3740157D02*
D03*
X3641732Y3690945D02*
D03*
X3592520Y3641732D02*
D03*
X3641732Y3592520D02*
D03*
X3592520Y3543307D02*
D03*
Y3444882D02*
D03*
X3641732Y3198819D02*
D03*
X3592520Y3248032D02*
D03*
Y3149606D02*
D03*
X3445790Y3033813D02*
D03*
X3439486Y3072431D02*
D03*
X3470816Y3080709D02*
D03*
X3584969Y3020485D02*
D03*
X3593444Y3002944D02*
D03*
X3540889Y3029528D02*
D03*
X3523371Y3021052D02*
D03*
X3505852Y3029528D02*
D03*
X3488334Y3021052D02*
D03*
Y3089184D02*
D03*
X3505852Y3080709D02*
D03*
X3523371Y3089184D02*
D03*
X3540889Y3080709D02*
D03*
X3558408Y3089184D02*
D03*
X3575926Y3080709D02*
D03*
X3593444Y3038003D02*
D03*
X3610985Y3029528D02*
D03*
X3628503Y3038003D02*
D03*
X3646044Y3029528D02*
D03*
X3593444Y3072233D02*
D03*
X3610985Y3080709D02*
D03*
X3628503Y3072233D02*
D03*
X3646044Y3080709D02*
D03*
X3681102Y3031496D02*
D03*
X2824803Y3188976D02*
D03*
X3418567Y3033813D02*
D03*
X3391344D02*
D03*
X3710630Y3954723D02*
D03*
Y3915353D02*
D03*
Y3561023D02*
D03*
Y3600393D02*
D03*
Y3639763D02*
D03*
Y3757873D02*
D03*
Y3718503D02*
D03*
Y3679133D02*
D03*
Y3875983D02*
D03*
Y3836613D02*
D03*
Y3797243D02*
D03*
Y3246063D02*
D03*
Y3285433D02*
D03*
Y3403543D02*
D03*
Y3364173D02*
D03*
Y3324803D02*
D03*
Y3521653D02*
D03*
Y3482283D02*
D03*
Y3442913D02*
D03*
X3663562Y3072233D02*
D03*
X3710630Y2470474D02*
D03*
Y2431104D02*
D03*
Y2391733D02*
D03*
Y2588584D02*
D03*
Y2549213D02*
D03*
Y2509843D02*
D03*
Y2706693D02*
D03*
Y2667323D02*
D03*
Y2627954D02*
D03*
Y2824803D02*
D03*
Y2785434D02*
D03*
Y2746064D02*
D03*
Y2864173D02*
D03*
Y2903544D02*
D03*
Y2942914D02*
D03*
Y3021653D02*
D03*
X3663562Y3038003D02*
D03*
X3698621D02*
D03*
X3562992Y2989535D02*
D03*
X3710630Y2982284D02*
D03*
X2874015Y2374016D02*
D03*
X2854330D02*
D03*
X2834645D02*
D03*
X2598425Y2440945D02*
D03*
X2618110Y2460630D02*
D03*
X2637795Y2440945D02*
D03*
X2618110Y2421260D02*
D03*
X3334794Y3258343D02*
D03*
X3031496Y2598425D02*
D03*
X3070865D02*
D03*
X3110236D02*
D03*
X3149606D02*
D03*
X3188977D02*
D03*
X3228347D02*
D03*
X3287402D02*
D03*
X3326772D02*
D03*
X3366142D02*
D03*
X3405512D02*
D03*
X3444882D02*
D03*
X3484252D02*
D03*
X3523622D02*
D03*
X2854331Y1732283D02*
D03*
X3028103Y2510184D02*
D03*
X2996572Y2509041D02*
D03*
X3031264Y3051475D02*
D03*
X3163713Y2917564D02*
D03*
X3167290Y2974938D02*
D03*
X3106758Y3380757D02*
D03*
X3026166Y3304740D02*
D03*
X3455209Y2937610D02*
D03*
X3415978Y2866463D02*
D03*
X3047586Y3070866D02*
D03*
X3043285Y3092584D02*
D03*
X3063575Y3055118D02*
D03*
X3084513Y2975545D02*
D03*
X3011811Y3090551D02*
D03*
X3042382Y3165354D02*
D03*
X3061470Y3212599D02*
D03*
Y3181102D02*
D03*
X3130650Y3221348D02*
D03*
Y3243177D02*
D03*
X3244822Y2912674D02*
D03*
X3251581Y2937467D02*
D03*
X3411766Y2978967D02*
D03*
X3103336Y3306127D02*
D03*
X1832916Y3042073D02*
D03*
X2979921Y2414111D02*
D03*
X3005717D02*
D03*
Y2388316D02*
D03*
Y2270929D02*
D03*
X2979921D02*
D03*
X3005717Y2296725D02*
D03*
X2979921D02*
D03*
X3346458Y2096460D02*
D03*
X2460630Y1909449D02*
D03*
Y1929134D02*
D03*
X2381890Y2007874D02*
D03*
X2401575D02*
D03*
X2421260D02*
D03*
X2460630Y1948819D02*
D03*
Y1889764D02*
D03*
X2381890Y1830709D02*
D03*
X2421260D02*
D03*
X2401575D02*
D03*
X1259843Y2529527D02*
D03*
X1259843Y2568898D02*
D03*
X1259842Y3277559D02*
D03*
X1259842Y3238189D02*
D03*
X2696850Y2814961D02*
D03*
X2677165Y2834646D02*
D03*
X2657480Y2814961D02*
D03*
X2677165Y2795276D02*
D03*
X2813854Y2874128D02*
D03*
X3464566Y3348001D02*
D03*
Y3327544D02*
D03*
X1929134Y3267716D02*
D03*
X1105119Y2992126D02*
D03*
X1046063Y3011811D02*
D03*
Y3070867D02*
D03*
X1105119Y3503937D02*
D03*
X1046063Y3484252D02*
D03*
Y3425197D02*
D03*
X1046064Y2716535D02*
D03*
Y2775590D02*
D03*
X1105119Y2795275D02*
D03*
X1046064Y2362205D02*
D03*
Y2303150D02*
D03*
X1105119Y2283465D02*
D03*
X3379825Y3647015D02*
D03*
X3397696Y3631659D02*
D03*
X3032304Y3397847D02*
D03*
X3266189Y3444620D02*
D03*
X1338583Y2550075D02*
D03*
X3287938Y3444179D02*
D03*
X1338583Y2528465D02*
D03*
X3042859Y3420208D02*
D03*
X3121842Y3429182D02*
D03*
X3104874Y3586610D02*
D03*
X3104879Y3625988D02*
D03*
X3208661Y3661417D02*
D03*
X3385648Y3569517D02*
D03*
X2979921Y2388316D02*
D03*
X1948819Y1673228D02*
D03*
Y1751968D02*
D03*
X1909449Y1791339D02*
D03*
X1318897Y3385827D02*
D03*
Y3425197D02*
D03*
Y3484252D02*
D03*
X1259842Y3503937D02*
D03*
X1318897Y3110236D02*
D03*
Y3070866D02*
D03*
Y3011811D02*
D03*
X1259842Y2992126D02*
D03*
X1318897Y2677165D02*
D03*
Y2716535D02*
D03*
Y2775591D02*
D03*
X1259842Y2795276D02*
D03*
X1259842Y2283465D02*
D03*
X1318898Y2303150D02*
D03*
Y2362205D02*
D03*
Y2401575D02*
D03*
X2094089Y1943460D02*
D03*
X1889764Y2677165D02*
D03*
X1909449D02*
D03*
Y2637795D02*
D03*
X1889764D02*
D03*
Y2657480D02*
D03*
X1909449D02*
D03*
X1850394Y2755905D02*
D03*
X2559055Y3425197D02*
D03*
X2559055Y3405512D02*
D03*
X2539370Y3405512D02*
D03*
X2539370Y3385827D02*
D03*
X2559055Y3385827D02*
D03*
X3078929Y1931229D02*
D03*
X3198819Y1840718D02*
D03*
X3169291Y1759024D02*
D03*
X2944025Y1966536D02*
D03*
X2916211Y1791339D02*
D03*
X3464567Y3307087D02*
D03*
X3134859Y2856997D02*
D03*
X1876821Y3189572D02*
D03*
X2342520Y3208661D02*
D03*
X1377953Y2480315D02*
D03*
X2200787Y3122975D02*
D03*
X2394628Y2992126D02*
D03*
Y3027561D02*
D03*
X1343506Y2078936D02*
D03*
X3484252Y3555118D02*
D03*
X3464567Y3712598D02*
D03*
X3450421Y3651212D02*
D03*
X3318715Y3503937D02*
D03*
X2188967Y1763112D02*
D03*
X2149597D02*
D03*
X1377953Y1633858D02*
D03*
X1062992D02*
D03*
Y1988189D02*
D03*
X1279528Y1673228D02*
D03*
X3266024Y3058205D02*
D03*
X1968504Y2992126D02*
D03*
X1968504Y2897638D02*
D03*
X1968504Y2929134D02*
D03*
X1968504Y2960630D02*
D03*
X2401575Y2834646D02*
D03*
X2401575Y2803150D02*
D03*
X2106299Y3120079D02*
D03*
X2137795Y3129921D02*
D03*
X2169291Y3129922D02*
D03*
X2137795Y2696850D02*
D03*
X2169291Y2696851D02*
D03*
X2200787Y2696850D02*
D03*
X2232283Y2696850D02*
D03*
X2263780Y2696850D02*
D03*
X2165354Y2007874D02*
D03*
X2224409D02*
D03*
X3385827Y3720472D02*
D03*
X3425197Y3562992D02*
D03*
X3210007Y3058205D02*
D03*
X2093361Y3425197D02*
D03*
Y3385827D02*
D03*
X3028951Y3116634D02*
D03*
X3366142Y3425197D02*
D03*
X3188976D02*
D03*
X2244095Y3169291D02*
D03*
X2322835Y3129921D02*
D03*
X2303150Y3188976D02*
D03*
X2401575Y3346457D02*
D03*
X2342520Y3385827D02*
D03*
X2283465D02*
D03*
X2224409D02*
D03*
X2185039Y3366142D02*
D03*
X2295275Y2696851D02*
D03*
X2074803Y2696851D02*
D03*
X1968504Y2803150D02*
D03*
Y2834646D02*
D03*
X2047244Y2007874D02*
D03*
Y2047244D02*
D03*
X2027559Y2027559D02*
D03*
Y2066929D02*
D03*
X1515752Y2414997D02*
D03*
X1402982Y2598425D02*
D03*
X1402982Y3287402D02*
D03*
Y3188976D02*
D03*
X1832912Y3120809D02*
D03*
Y3160179D02*
D03*
X1811027Y3163951D02*
D03*
Y3332119D02*
D03*
X1328626Y2240004D02*
D03*
X1377953Y2086614D02*
D03*
X1458353Y2194882D02*
D03*
X1387795Y2245755D02*
D03*
X1196174Y2125984D02*
D03*
X1338586Y1983572D02*
D03*
X1417323Y1983576D02*
D03*
X1559731Y2125985D02*
D03*
X1559735Y2185043D02*
D03*
X3311677Y3258343D02*
D03*
X3288560D02*
D03*
X2814961Y1762956D02*
D03*
X3095057Y2003541D02*
D03*
X3298946Y1938977D02*
D03*
X3277559Y2145669D02*
D03*
X3388633Y2191868D02*
D03*
X3385834Y2096460D02*
D03*
X3425197Y2096457D02*
D03*
X2421263Y2298533D02*
D03*
X2460629Y2298537D02*
D03*
X2500003Y2298533D02*
D03*
X2125981Y2622727D02*
D03*
X2244095Y2460630D02*
D03*
Y2539370D02*
D03*
Y2500000D02*
D03*
X2125984Y2377277D02*
D03*
X2239478Y2401571D02*
D03*
X1948819Y2106299D02*
D03*
X1820866Y2323819D02*
D03*
X1564081Y2389089D02*
D03*
X1546812Y2416643D02*
D03*
X1570190Y2263780D02*
D03*
X1938977Y3166005D02*
D03*
X1751968Y2893701D02*
D03*
X3162236Y1712599D02*
D03*
X3129921Y1811024D02*
D03*
X3158958Y1856298D02*
D03*
X3289104Y1919292D02*
D03*
X2854331Y1988189D02*
D03*
X3218504Y2020181D02*
D03*
X3230319Y2177987D02*
D03*
X3179137Y2177987D02*
D03*
X3127444Y2177987D02*
D03*
X3051185D02*
D03*
X1671260Y2800012D02*
D03*
X1458662Y2886626D02*
D03*
X1776267Y2716535D02*
D03*
Y2755905D02*
D03*
Y2795276D02*
D03*
X1988189Y3188976D02*
D03*
X1853128Y3316929D02*
D03*
X1919291Y3369299D02*
D03*
X1899607Y3358453D02*
D03*
X1838398Y3297244D02*
D03*
X1456693Y3208661D02*
D03*
X1515748D02*
D03*
X1574803D02*
D03*
X1633858D02*
D03*
X1692914D02*
D03*
X3169291Y2795276D02*
D03*
X3208661Y2775590D02*
D03*
X3248031D02*
D03*
X3287401D02*
D03*
X3326772D02*
D03*
X3366142Y2795276D02*
D03*
X2232283Y3121396D02*
D03*
X2428006Y2716532D02*
D03*
X2401571Y3241285D02*
D03*
X2370608Y3253937D02*
D03*
X2196321Y3320866D02*
D03*
X2165358Y3333518D02*
D03*
X2200787Y3215413D02*
D03*
X2487066Y3031500D02*
D03*
X2487066Y2992130D02*
D03*
Y2874020D02*
D03*
X2393050Y2897638D02*
D03*
X3019803Y3180625D02*
D03*
X2953073Y3284090D02*
D03*
X2631107Y3125715D02*
D03*
X2680060Y3162246D02*
D03*
X2712786Y2961758D02*
D03*
X2712787Y3011757D02*
D03*
X2712786Y3061758D02*
D03*
X2712786Y3237348D02*
D03*
Y3287348D02*
D03*
X2712786Y3337348D02*
D03*
X2838395Y3337349D02*
D03*
X2838395Y3287348D02*
D03*
Y3237349D02*
D03*
X2838395Y2961758D02*
D03*
Y3011758D02*
D03*
X2838395Y3061758D02*
D03*
X2849869Y3162246D02*
D03*
X2964121Y2873111D02*
D03*
X2903128D02*
D03*
X2842135D02*
D03*
X2781143D02*
D03*
X3015396Y2895273D02*
D03*
X3053608Y2935184D02*
D03*
X2979662Y2960877D02*
D03*
X2764828Y2933035D02*
D03*
X2825821D02*
D03*
X3017874Y3000789D02*
D03*
X3230142Y3157480D02*
D03*
X3269512Y3118110D02*
D03*
X3190771D02*
D03*
Y3196850D02*
D03*
X3269512D02*
D03*
X2623037Y3086811D02*
D03*
X2623037Y3362401D02*
D03*
Y3212401D02*
D03*
X2623037Y3262401D02*
D03*
Y3312401D02*
D03*
X2623037Y2936811D02*
D03*
X2623037Y2986811D02*
D03*
Y3036811D02*
D03*
X2928144Y2936811D02*
D03*
X2928144Y2986811D02*
D03*
Y3036811D02*
D03*
X2928144Y3312402D02*
D03*
Y3262402D02*
D03*
X2928144Y3212402D02*
D03*
X3042381Y3196850D02*
D03*
X3414617Y3158281D02*
D03*
X3530152Y3287405D02*
D03*
Y3248035D02*
D03*
Y3208665D02*
D03*
X3468504Y2989535D02*
D03*
X3315193Y2913386D02*
D03*
X3353822D02*
D03*
X3197153Y2876569D02*
D03*
X3338280Y2832093D02*
D03*
X3503937Y2716535D02*
D03*
X3431450Y3259855D02*
D03*
X3408587Y3242493D02*
D03*
X3431450Y3224416D02*
D03*
X3408587Y3277115D02*
D03*
Y3204260D02*
D03*
X3431450Y3196587D02*
D03*
X3329573Y3181097D02*
D03*
X3329573Y3153544D02*
D03*
X3329573Y3129921D02*
D03*
Y3102368D02*
D03*
%TF.MD5,fa182c04699eabae72afdb1dc053d441*%
M02*
