%TF.GenerationSoftware,Altium Limited,Altium Designer,22.2.1 (43)*%
G04 Layer_Color=8388736*
%FSLAX26Y26*%
%MOIN*%
%TF.SameCoordinates,FBDAFD36-F916-462A-90D8-3015B88DE517*%
%TF.FilePolarity,Negative*%
%TF.FileFunction,Soldermask,Top*%
%TF.Part,Single*%
G01*
G75*
%TA.AperFunction,SMDPad,CuDef*%
%ADD12R,0.008000X0.030000*%
%ADD16R,0.030000X0.008000*%
%ADD17R,0.158000X0.158000*%
%ADD45R,0.060000X0.098000*%
%ADD50R,0.098000X0.060000*%
%ADD52R,0.070866X0.070866*%
%ADD96C,0.043307*%
%TA.AperFunction,ComponentPad*%
%ADD99C,0.062992*%
%ADD100R,0.062992X0.062992*%
%ADD101R,0.062992X0.090551*%
%ADD102C,0.003937*%
%ADD103O,0.062992X0.090551*%
%ADD104C,0.029528*%
%TA.AperFunction,NonConductor*%
%ADD115C,0.030000*%
%ADD116R,0.314961X2.362205*%
%TA.AperFunction,SMDPad,CuDef*%
G04:AMPARAMS|DCode=117|XSize=62.598mil|YSize=25.59mil|CornerRadius=4.675mil|HoleSize=0mil|Usage=FLASHONLY|Rotation=270.000|XOffset=0mil|YOffset=0mil|HoleType=Round|Shape=RoundedRectangle|*
%AMROUNDEDRECTD117*
21,1,0.062598,0.016240,0,0,270.0*
21,1,0.053248,0.025590,0,0,270.0*
1,1,0.009350,-0.008120,-0.026624*
1,1,0.009350,-0.008120,0.026624*
1,1,0.009350,0.008120,0.026624*
1,1,0.009350,0.008120,-0.026624*
%
%ADD117ROUNDEDRECTD117*%
G04:AMPARAMS|DCode=118|XSize=62.598mil|YSize=25.59mil|CornerRadius=4.675mil|HoleSize=0mil|Usage=FLASHONLY|Rotation=0.000|XOffset=0mil|YOffset=0mil|HoleType=Round|Shape=RoundedRectangle|*
%AMROUNDEDRECTD118*
21,1,0.062598,0.016240,0,0,0.0*
21,1,0.053248,0.025590,0,0,0.0*
1,1,0.009350,0.026624,-0.008120*
1,1,0.009350,-0.026624,-0.008120*
1,1,0.009350,-0.026624,0.008120*
1,1,0.009350,0.026624,0.008120*
%
%ADD118ROUNDEDRECTD118*%
%ADD119R,0.027559X0.027559*%
%ADD120R,0.027559X0.027559*%
%ADD121R,0.027559X0.025590*%
%ADD122R,0.053937X0.129134*%
%ADD123R,0.161417X0.062992*%
%ADD124R,0.035937X0.013937*%
%ADD125R,0.025590X0.027559*%
%ADD126R,0.019685X0.023622*%
%ADD127R,0.051181X0.078740*%
G04:AMPARAMS|DCode=128|XSize=61.024mil|YSize=21.654mil|CornerRadius=2.854mil|HoleSize=0mil|Usage=FLASHONLY|Rotation=180.000|XOffset=0mil|YOffset=0mil|HoleType=Round|Shape=RoundedRectangle|*
%AMROUNDEDRECTD128*
21,1,0.061024,0.015945,0,0,180.0*
21,1,0.055315,0.021654,0,0,180.0*
1,1,0.005709,-0.027657,0.007973*
1,1,0.005709,0.027657,0.007973*
1,1,0.005709,0.027657,-0.007973*
1,1,0.005709,-0.027657,-0.007973*
%
%ADD128ROUNDEDRECTD128*%
%ADD129R,0.082677X0.135827*%
G04:AMPARAMS|DCode=130|XSize=66.929mil|YSize=20.079mil|CornerRadius=2.776mil|HoleSize=0mil|Usage=FLASHONLY|Rotation=90.000|XOffset=0mil|YOffset=0mil|HoleType=Round|Shape=RoundedRectangle|*
%AMROUNDEDRECTD130*
21,1,0.066929,0.014527,0,0,90.0*
21,1,0.061378,0.020079,0,0,90.0*
1,1,0.005551,0.007264,0.030689*
1,1,0.005551,0.007264,-0.030689*
1,1,0.005551,-0.007264,-0.030689*
1,1,0.005551,-0.007264,0.030689*
%
%ADD130ROUNDEDRECTD130*%
%ADD131R,0.029528X0.013780*%
%ADD132R,0.013780X0.029528*%
%ADD133R,0.020472X0.027559*%
G04:AMPARAMS|DCode=134|XSize=64.961mil|YSize=27.559mil|CornerRadius=3.15mil|HoleSize=0mil|Usage=FLASHONLY|Rotation=0.000|XOffset=0mil|YOffset=0mil|HoleType=Round|Shape=RoundedRectangle|*
%AMROUNDEDRECTD134*
21,1,0.064961,0.021260,0,0,0.0*
21,1,0.058661,0.027559,0,0,0.0*
1,1,0.006299,0.029331,-0.010630*
1,1,0.006299,-0.029331,-0.010630*
1,1,0.006299,-0.029331,0.010630*
1,1,0.006299,0.029331,0.010630*
%
%ADD134ROUNDEDRECTD134*%
%ADD135R,0.026937X0.017937*%
%ADD136R,0.017937X0.026937*%
%ADD137C,0.012992*%
%ADD138R,0.035433X0.035433*%
G04:AMPARAMS|DCode=139|XSize=66.929mil|YSize=17.716mil|CornerRadius=2.658mil|HoleSize=0mil|Usage=FLASHONLY|Rotation=270.000|XOffset=0mil|YOffset=0mil|HoleType=Round|Shape=RoundedRectangle|*
%AMROUNDEDRECTD139*
21,1,0.066929,0.012402,0,0,270.0*
21,1,0.061614,0.017716,0,0,270.0*
1,1,0.005315,-0.006201,-0.030807*
1,1,0.005315,-0.006201,0.030807*
1,1,0.005315,0.006201,0.030807*
1,1,0.005315,0.006201,-0.030807*
%
%ADD139ROUNDEDRECTD139*%
%ADD140R,0.061024X0.027559*%
%ADD141R,0.043307X0.039370*%
%ADD142R,0.043307X0.066929*%
%ADD143R,0.059055X0.051181*%
%ADD144R,0.027559X0.045276*%
%ADD145R,0.062992X0.161417*%
%ADD146R,0.035433X0.035433*%
%ADD147R,0.035433X0.062992*%
%ADD148R,0.013937X0.035937*%
%ADD149R,0.039370X0.015748*%
%ADD150R,0.074803X0.074803*%
%ADD151R,0.015748X0.039370*%
%ADD152R,0.017716X0.017716*%
%TA.AperFunction,ConnectorPad*%
%ADD153R,0.082677X0.089764*%
%ADD154R,0.049213X0.015748*%
%ADD155R,0.049213X0.027559*%
%TA.AperFunction,SMDPad,CuDef*%
%ADD156R,0.017323X0.011811*%
%ADD157R,0.017323X0.014173*%
%ADD158R,0.023622X0.019685*%
D12*
X3332504Y3293481D02*
D03*
X3316756D02*
D03*
X3301008Y3293480D02*
D03*
X3285260Y3293480D02*
D03*
X3269512Y3293481D02*
D03*
X3253763Y3293480D02*
D03*
X3238015Y3293480D02*
D03*
X3222267Y3293480D02*
D03*
X3206519Y3293480D02*
D03*
X3190771Y3293481D02*
D03*
X3175023Y3293480D02*
D03*
X3159275Y3293480D02*
D03*
X3143527D02*
D03*
X3127779Y3293480D02*
D03*
Y3021480D02*
D03*
X3143527D02*
D03*
X3159276Y3021480D02*
D03*
X3175023Y3021481D02*
D03*
X3190771Y3021480D02*
D03*
X3206520Y3021481D02*
D03*
X3222267Y3021480D02*
D03*
X3238015Y3021480D02*
D03*
X3253764Y3021480D02*
D03*
X3269512Y3021480D02*
D03*
X3285260Y3021480D02*
D03*
X3301008Y3021480D02*
D03*
X3316756D02*
D03*
X3332504Y3021481D02*
D03*
D16*
X3366142Y3055118D02*
D03*
Y3070866D02*
D03*
X3366142Y3086614D02*
D03*
X3366141Y3102362D02*
D03*
X3366142Y3118110D02*
D03*
X3366141Y3133859D02*
D03*
X3366141Y3149606D02*
D03*
X3366142Y3165354D02*
D03*
X3366142Y3181102D02*
D03*
X3366142Y3196851D02*
D03*
X3366141Y3212599D02*
D03*
X3366142Y3228347D02*
D03*
Y3244095D02*
D03*
X3366141Y3259842D02*
D03*
X3094141D02*
D03*
Y3244095D02*
D03*
X3094142Y3228346D02*
D03*
X3094142Y3212599D02*
D03*
X3094141Y3196850D02*
D03*
X3094142Y3181102D02*
D03*
X3094142Y3165354D02*
D03*
X3094142Y3149606D02*
D03*
X3094141Y3133858D02*
D03*
X3094141Y3118110D02*
D03*
X3094142Y3102362D02*
D03*
X3094141Y3086614D02*
D03*
Y3070866D02*
D03*
X3094142Y3055118D02*
D03*
D17*
X3230142Y3157480D02*
D03*
D45*
X2244095Y2500000D02*
D03*
D50*
X2145669Y1850394D02*
D03*
D52*
X3208662Y1929134D02*
D03*
X1377953Y2165354D02*
D03*
D96*
X3149606Y2677165D02*
D03*
X3110236Y2637795D02*
D03*
X2165354Y1968504D02*
D03*
X2086614Y3239239D02*
D03*
X2381890Y3090551D02*
D03*
X2362205Y2362205D02*
D03*
X1870079Y2480315D02*
D03*
X2303150Y2204724D02*
D03*
X3110996Y2934291D02*
D03*
X2125984Y3444882D02*
D03*
Y3385827D02*
D03*
X3046865Y2970603D02*
D03*
X2921588Y1868897D02*
D03*
X3248908Y1825510D02*
D03*
X3543307Y2303150D02*
D03*
Y2381890D02*
D03*
X3267717Y2027559D02*
D03*
X3326772Y1988189D02*
D03*
X3385827D02*
D03*
X3215875Y1765402D02*
D03*
X3223618Y2095818D02*
D03*
X2858606Y2036584D02*
D03*
X1751968Y2952756D02*
D03*
X1141732Y2125984D02*
D03*
X1909449Y2972441D02*
D03*
X2185039Y2401575D02*
D03*
X1358268Y2283465D02*
D03*
X3326772Y2677165D02*
D03*
X3188976Y2637795D02*
D03*
X3228346Y2677165D02*
D03*
X3070866D02*
D03*
X3031496Y2637795D02*
D03*
X3523622D02*
D03*
X3484252Y2677165D02*
D03*
X3444882Y2637795D02*
D03*
X3405512Y2677165D02*
D03*
X3287401Y2637795D02*
D03*
X3366142D02*
D03*
X3082348Y3418505D02*
D03*
X3003607D02*
D03*
X2224409Y1968504D02*
D03*
X2066929D02*
D03*
X1771654Y3031496D02*
D03*
X2974585Y2919608D02*
D03*
X3054203Y3020419D02*
D03*
D99*
X2658268Y3897637D02*
D03*
X2558269D02*
D03*
X2458268Y3897637D02*
D03*
X2358268Y3897638D02*
D03*
X2258268Y3897638D02*
D03*
X2158268Y3897637D02*
D03*
X2058268Y3897638D02*
D03*
X1258268Y3897638D02*
D03*
X1358268D02*
D03*
X1458268D02*
D03*
X1558268Y3897638D02*
D03*
X1658268D02*
D03*
X2058269Y3647638D02*
D03*
X2158269Y3647637D02*
D03*
X2258269Y3647638D02*
D03*
X2358269Y3647638D02*
D03*
X2458269Y3647638D02*
D03*
X2558269Y3647638D02*
D03*
X2658268Y3647637D02*
D03*
X1158268Y3897638D02*
D03*
X1758268Y3897637D02*
D03*
D100*
X1958268D02*
D03*
Y3647637D02*
D03*
X1058268Y3897638D02*
D03*
D101*
X2501574Y1692913D02*
D03*
D102*
X3078740Y3799213D02*
D03*
X3346457D02*
D03*
D103*
X2301575Y1692913D02*
D03*
X2401575D02*
D03*
D104*
X1240157Y3134252D02*
D03*
X1240158Y3361811D02*
D03*
X1240158Y2425591D02*
D03*
X1240158Y2653150D02*
D03*
D115*
X3641732Y1751968D02*
Y2559055D01*
X3562992D02*
X3641732D01*
X2755905D02*
X2893701D01*
X3641732Y1653543D02*
Y1751968D01*
X2755905Y1653543D02*
X3641732D01*
X2755905D02*
Y1791339D01*
Y2559055D01*
D116*
X3877953Y2795276D02*
D03*
D117*
X2295275Y2749213D02*
D03*
X2263780Y2749213D02*
D03*
X2232283Y2749213D02*
D03*
X2200787Y2749213D02*
D03*
X2169291Y2749213D02*
D03*
X2137795Y2749213D02*
D03*
X2106299Y2749213D02*
D03*
X2074803D02*
D03*
X2074803Y3077559D02*
D03*
X2106299Y3077559D02*
D03*
X2137795Y3077559D02*
D03*
X2169291Y3077559D02*
D03*
X2200788Y3077559D02*
D03*
X2232283D02*
D03*
X2263780Y3077559D02*
D03*
X2295275D02*
D03*
D118*
X2349212Y3023622D02*
D03*
X2349212Y2992126D02*
D03*
X2349212Y2960630D02*
D03*
X2349213Y2929134D02*
D03*
X2349212Y2897638D02*
D03*
X2349212Y2866142D02*
D03*
Y2834646D02*
D03*
Y2803150D02*
D03*
X2020866Y2803150D02*
D03*
Y2834646D02*
D03*
Y2866142D02*
D03*
Y2897638D02*
D03*
X2020866Y2929134D02*
D03*
Y2960630D02*
D03*
X2020866Y2992126D02*
D03*
Y3023622D02*
D03*
D119*
X3431823Y2906073D02*
D03*
X3392450D02*
D03*
X3346458Y2165358D02*
D03*
Y2125988D02*
D03*
X3133859Y3625988D02*
D03*
X3173232D02*
D03*
X3173227Y3586610D02*
D03*
X3133855D02*
D03*
X3425198Y3740161D02*
D03*
X3464571D02*
D03*
X3425198Y3779531D02*
D03*
X3464571D02*
D03*
X3011812Y2145673D02*
D03*
X3051185Y2145673D02*
D03*
X3385831Y2165358D02*
D03*
Y2125988D02*
D03*
X2460634Y2992130D02*
D03*
X2421261Y2992130D02*
D03*
X2460633Y3031500D02*
D03*
X2421261D02*
D03*
X2362201Y2716532D02*
D03*
X2401574Y2716532D02*
D03*
X2460634Y2874019D02*
D03*
X2421261Y2874020D02*
D03*
X1535437Y2185043D02*
D03*
X1496064D02*
D03*
X2263776Y2401571D02*
D03*
X2303149D02*
D03*
X1857941Y3160179D02*
D03*
X1897314D02*
D03*
X1857941Y3120809D02*
D03*
X1897314D02*
D03*
X1811027Y3188980D02*
D03*
X1771655D02*
D03*
X1811027Y3307090D02*
D03*
X1771655D02*
D03*
X3335408Y3417128D02*
D03*
X3296035D02*
D03*
X3218362D02*
D03*
X3257735D02*
D03*
X3503941Y3208665D02*
D03*
X3464568D02*
D03*
X3503941Y3248035D02*
D03*
X3464568D02*
D03*
X3503941Y3287405D02*
D03*
X3464568D02*
D03*
X2992130Y3366146D02*
D03*
X2952757D02*
D03*
X2992130Y3090555D02*
D03*
X2952757D02*
D03*
D120*
X3392450Y2978970D02*
D03*
Y2939597D02*
D03*
X2500004Y2362204D02*
D03*
X2460630Y2362207D02*
D03*
X2421263Y2362204D02*
D03*
X2125981Y2559056D02*
D03*
X3104596Y1938978D02*
D03*
X3484252Y3622047D02*
D03*
Y3582674D02*
D03*
X2972437Y2460631D02*
D03*
X2972436Y2500004D02*
D03*
X3425193Y2125985D02*
D03*
Y2165358D02*
D03*
X3104596Y1978351D02*
D03*
X3129925Y2145668D02*
D03*
Y2106296D02*
D03*
X3090547Y2106300D02*
D03*
Y2145673D02*
D03*
X3049266Y3251759D02*
D03*
Y3291132D02*
D03*
X3353822Y2939597D02*
D03*
Y2978970D02*
D03*
X3562992Y3015745D02*
D03*
Y3055118D02*
D03*
X3468504Y3015745D02*
D03*
Y3055118D02*
D03*
X3315193Y2939597D02*
D03*
Y2978970D02*
D03*
X2200787Y3188980D02*
D03*
X2200787Y3149608D02*
D03*
X2165358Y3267713D02*
D03*
X2165358Y3307086D02*
D03*
X2401571Y3307091D02*
D03*
X2401571Y3267718D02*
D03*
X1338586Y2007870D02*
D03*
Y2047243D02*
D03*
X2421263Y2322831D02*
D03*
X2460630Y2322835D02*
D03*
X2500004Y2322831D02*
D03*
X2125981Y2598429D02*
D03*
X1535429Y2381894D02*
D03*
Y2342521D02*
D03*
X1555122Y2440941D02*
D03*
Y2480314D02*
D03*
X1515752Y2440941D02*
D03*
Y2480314D02*
D03*
X3218775Y3374569D02*
D03*
Y3335197D02*
D03*
X3183321Y2935565D02*
D03*
Y2974938D02*
D03*
X3151626Y2935565D02*
D03*
Y2974938D02*
D03*
X3414617Y3133862D02*
D03*
Y3094490D02*
D03*
X3169295Y2834642D02*
D03*
Y2874015D02*
D03*
X3366138Y2874019D02*
D03*
Y2834647D02*
D03*
D121*
X2421260Y3090551D02*
D03*
X2460630D02*
D03*
X1712598Y2263780D02*
D03*
X3169291Y1791339D02*
D03*
X2244094Y2204724D02*
D03*
X1377953Y3287402D02*
D03*
X1338583D02*
D03*
X1377953Y2460630D02*
D03*
X1338583D02*
D03*
X3248031Y3586610D02*
D03*
X3208661D02*
D03*
X1377953Y3188976D02*
D03*
X1338583D02*
D03*
X1377953Y2598425D02*
D03*
X1338583D02*
D03*
X2992126Y3129921D02*
D03*
X2952756D02*
D03*
X3346457Y1929134D02*
D03*
X3385827D02*
D03*
X2854331Y1751969D02*
D03*
X2893701D02*
D03*
X3090551Y2027559D02*
D03*
X3051181D02*
D03*
X3129921Y1791339D02*
D03*
X3169291Y1830709D02*
D03*
X3129921Y1830708D02*
D03*
X3169291Y2066930D02*
D03*
X3129921D02*
D03*
X3248031Y2145669D02*
D03*
X3208661Y2145669D02*
D03*
X3051181Y2066930D02*
D03*
X3090551Y2066929D02*
D03*
X3011811Y2106300D02*
D03*
X3051181Y2106299D02*
D03*
X2362205Y2677165D02*
D03*
X2401575Y2677165D02*
D03*
X1220472Y2244095D02*
D03*
X1259842D02*
D03*
X1220472Y2185039D02*
D03*
X1259842D02*
D03*
X1830709Y2972441D02*
D03*
X1870079D02*
D03*
X1259842Y2125984D02*
D03*
X1220472D02*
D03*
X1496063D02*
D03*
X1535433D02*
D03*
X1673228Y2452756D02*
D03*
X1712598D02*
D03*
X1456693Y2283465D02*
D03*
X1417323D02*
D03*
X1673228Y2263780D02*
D03*
X1633858D02*
D03*
X1594488D02*
D03*
X2204724Y2204724D02*
D03*
X1897315Y3081443D02*
D03*
X1857945D02*
D03*
X1811024Y3267717D02*
D03*
X1771654D02*
D03*
X2066929Y3385827D02*
D03*
X2027559D02*
D03*
X1811024Y3228347D02*
D03*
X1771654D02*
D03*
X2066929Y3425197D02*
D03*
X2027559D02*
D03*
X1897315Y3042073D02*
D03*
X1857945D02*
D03*
X1751968Y2795276D02*
D03*
X1712599D02*
D03*
X1751968Y2755905D02*
D03*
X1712599D02*
D03*
X1751968Y2716535D02*
D03*
X1712599D02*
D03*
X2559055Y3362402D02*
D03*
X2598425D02*
D03*
X2559055Y3086811D02*
D03*
X2598425D02*
D03*
D122*
X1711024Y1711024D02*
D03*
Y1911024D02*
D03*
X1811024Y1911024D02*
D03*
X1911024Y1911024D02*
D03*
Y1711024D02*
D03*
X1811024Y1711023D02*
D03*
D123*
X2460630Y2429134D02*
D03*
Y2570866D02*
D03*
D124*
X2299095Y2480315D02*
D03*
X2189094Y2539370D02*
D03*
X2189094Y2519685D02*
D03*
X2189094Y2480315D02*
D03*
X2189095Y2500000D02*
D03*
Y2460630D02*
D03*
X2299095Y2460630D02*
D03*
X2299095Y2500000D02*
D03*
X2299095Y2519685D02*
D03*
X2299095Y2539370D02*
D03*
D125*
X2125984Y2519685D02*
D03*
X2922940Y1997214D02*
D03*
X2893701Y1791339D02*
D03*
X3346457Y3503937D02*
D03*
Y3543307D02*
D03*
X3385827Y3503937D02*
D03*
Y3543307D02*
D03*
X2913386Y3169291D02*
D03*
Y3129921D02*
D03*
X3110236Y2874016D02*
D03*
Y2834646D02*
D03*
X3214032Y2975031D02*
D03*
Y2935661D02*
D03*
X3523622Y2539370D02*
D03*
Y2578740D02*
D03*
X3484252Y2539370D02*
D03*
Y2578740D02*
D03*
X3444882Y2539370D02*
D03*
Y2578740D02*
D03*
X3405512Y2539370D02*
D03*
Y2578740D02*
D03*
X3366142Y2539370D02*
D03*
Y2578740D02*
D03*
X3326772Y2539370D02*
D03*
Y2578740D02*
D03*
X3287402Y2539370D02*
D03*
Y2578740D02*
D03*
X2854331Y1791339D02*
D03*
Y1830709D02*
D03*
X3051181Y1909449D02*
D03*
Y1948819D02*
D03*
X2893701Y1830709D02*
D03*
X2922940Y2036584D02*
D03*
X2814961Y1791339D02*
D03*
Y1830709D02*
D03*
X3129921Y1712599D02*
D03*
Y1751969D02*
D03*
X3169291Y2145669D02*
D03*
X3169291Y2106299D02*
D03*
X2933071Y2460630D02*
D03*
Y2421260D02*
D03*
X3149606Y2578740D02*
D03*
X3149606Y2539370D02*
D03*
X3031496Y2578740D02*
D03*
X3031496Y2539370D02*
D03*
X3110236Y2578740D02*
D03*
X3110236Y2539370D02*
D03*
X3188977Y2578740D02*
D03*
X3188976Y2539370D02*
D03*
X3070865Y2578740D02*
D03*
X3070866Y2539370D02*
D03*
X2933070Y2539370D02*
D03*
X2933071Y2500000D02*
D03*
X3228347Y2578740D02*
D03*
X3228346Y2539370D02*
D03*
X2086614Y3188977D02*
D03*
X2086614Y3149606D02*
D03*
X1417323Y2047244D02*
D03*
Y2007874D02*
D03*
X2125984Y2480315D02*
D03*
Y2401575D02*
D03*
Y2440945D02*
D03*
X3503937Y2893701D02*
D03*
Y2854331D02*
D03*
X1692913Y3031496D02*
D03*
Y3070866D02*
D03*
X1633858Y3031496D02*
D03*
Y3070866D02*
D03*
X1574803Y3031496D02*
D03*
X1574803Y3070866D02*
D03*
X1515748Y3031496D02*
D03*
Y3070866D02*
D03*
X1456693Y3031496D02*
D03*
Y3070866D02*
D03*
X3257735Y3335198D02*
D03*
Y3374568D02*
D03*
X3296035Y3335198D02*
D03*
Y3374568D02*
D03*
X3431079Y2978967D02*
D03*
Y2939597D02*
D03*
D126*
X2129921Y2204725D02*
D03*
X3500000Y3055118D02*
D03*
X3531496Y3055118D02*
D03*
X2161417Y2204724D02*
D03*
X1342520Y3153544D02*
D03*
X1374016Y3153543D02*
D03*
X1342520Y2633858D02*
D03*
X1374016Y2633858D02*
D03*
D127*
X2015748Y2578740D02*
D03*
X1842520D02*
D03*
D128*
X1606299Y2375000D02*
D03*
X1779528D02*
D03*
X1779527Y2349410D02*
D03*
X1606299Y2400591D02*
D03*
X1606300Y2349409D02*
D03*
X1606299Y2323819D02*
D03*
X1779528Y2323819D02*
D03*
X1779527Y2400591D02*
D03*
D129*
X1948819Y2407481D02*
D03*
X2401575Y2131890D02*
D03*
X1948819Y2198819D02*
D03*
X2401575Y1923228D02*
D03*
D130*
X3368012Y2236221D02*
D03*
X3318012Y2448819D02*
D03*
X3343012Y2448819D02*
D03*
X3368012Y2448819D02*
D03*
X3393011D02*
D03*
X3418012Y2448819D02*
D03*
X3443012Y2448819D02*
D03*
X3468012Y2448819D02*
D03*
X3493012D02*
D03*
X3493012Y2236220D02*
D03*
X3468012Y2236221D02*
D03*
X3343012Y2236221D02*
D03*
X3393012Y2236221D02*
D03*
X3418012Y2236221D02*
D03*
X3443012D02*
D03*
X3318012D02*
D03*
D131*
X3152559Y1938977D02*
D03*
X3152559Y1958662D02*
D03*
X3152559Y1919292D02*
D03*
X3152559Y1899607D02*
D03*
X3264764D02*
D03*
X3264764Y1919292D02*
D03*
X3264764Y1938977D02*
D03*
X3264764Y1958662D02*
D03*
X1434055Y2135827D02*
D03*
Y2155512D02*
D03*
Y2175197D02*
D03*
Y2194882D02*
D03*
X1321850Y2194882D02*
D03*
Y2175197D02*
D03*
Y2155512D02*
D03*
Y2135827D02*
D03*
D132*
X3198819Y1873032D02*
D03*
X3179134Y1985237D02*
D03*
X3198819Y1985237D02*
D03*
X3218504Y1985237D02*
D03*
X3179134Y1873032D02*
D03*
X3218504Y1873032D02*
D03*
X3238189Y1873032D02*
D03*
X3238190Y1985236D02*
D03*
X1407480Y2109252D02*
D03*
X1387795D02*
D03*
X1368110D02*
D03*
X1407480Y2221457D02*
D03*
X1387795D02*
D03*
X1368110D02*
D03*
X1348425D02*
D03*
X1348425Y2109252D02*
D03*
D133*
X2966536Y1966536D02*
D03*
X3017716Y1891733D02*
D03*
X2879921Y1891732D02*
D03*
X2854330Y1891733D02*
D03*
X2828740Y1891732D02*
D03*
X2828740Y1966536D02*
D03*
X2854330Y1966535D02*
D03*
X2879921Y1966536D02*
D03*
X2992126Y1966536D02*
D03*
X3017716D02*
D03*
X2992126Y1891733D02*
D03*
X2966535Y1891732D02*
D03*
D134*
X2881890Y3362402D02*
D03*
X2881890Y3312402D02*
D03*
Y3262402D02*
D03*
X2881890Y3212402D02*
D03*
X2669291Y3212401D02*
D03*
X2669291Y3262402D02*
D03*
Y3312401D02*
D03*
X2669291Y3362401D02*
D03*
X2669291Y3086811D02*
D03*
X2669291Y3036811D02*
D03*
Y2986811D02*
D03*
X2669291Y2936811D02*
D03*
X2881890Y2936811D02*
D03*
X2881890Y2986811D02*
D03*
Y3036811D02*
D03*
X2881890Y3086811D02*
D03*
D135*
X3348083Y3622042D02*
D03*
Y3641732D02*
D03*
Y3661422D02*
D03*
X3423571D02*
D03*
Y3641732D02*
D03*
Y3622042D02*
D03*
D136*
X3356292Y3689232D02*
D03*
X3375982D02*
D03*
X3395672D02*
D03*
X3415362D02*
D03*
Y3594232D02*
D03*
X3395672D02*
D03*
X3375982D02*
D03*
X3356292D02*
D03*
D137*
X3228347Y3625984D02*
D03*
X3212599D02*
D03*
X3228347Y3641732D02*
D03*
X3212599D02*
D03*
D138*
X1173228Y2244095D02*
D03*
X1110236D02*
D03*
X1173228Y2185039D02*
D03*
X1110236D02*
D03*
D139*
X3117126Y2460630D02*
D03*
X3142716Y2460630D02*
D03*
X3193897Y2224410D02*
D03*
X3219488Y2224410D02*
D03*
X3245079D02*
D03*
X3245078Y2460630D02*
D03*
X3219488Y2460630D02*
D03*
X3193898Y2460631D02*
D03*
X3168307Y2460630D02*
D03*
X3168307Y2224410D02*
D03*
X3142717Y2224410D02*
D03*
X3117126Y2224410D02*
D03*
X3091535D02*
D03*
X3065945Y2224410D02*
D03*
X3040354Y2224410D02*
D03*
X3014764Y2224409D02*
D03*
X3091535Y2460630D02*
D03*
X3065945Y2460630D02*
D03*
X3040354D02*
D03*
X3014763Y2460630D02*
D03*
D140*
X2933070Y2311024D02*
D03*
X2933070Y2374016D02*
D03*
D141*
X3234252Y2828740D02*
D03*
X3301181D02*
D03*
Y2879921D02*
D03*
X3234252D02*
D03*
D142*
X1381890Y1937008D02*
D03*
X1531496D02*
D03*
Y1685039D02*
D03*
X1381890D02*
D03*
X1066929Y1937008D02*
D03*
X1216535D02*
D03*
Y1685039D02*
D03*
X1066929D02*
D03*
D143*
X2326772Y3253938D02*
D03*
X2240157Y3253937D02*
D03*
X2240157Y3320866D02*
D03*
X2326772Y3320867D02*
D03*
D144*
X1887795Y2917323D02*
D03*
X1812992Y2917323D02*
D03*
X1850394Y2830709D02*
D03*
X1399606Y2338583D02*
D03*
X1474409D02*
D03*
X1437008Y2425197D02*
D03*
X1596457Y2830709D02*
D03*
X1671260D02*
D03*
X1633858Y2917323D02*
D03*
X1533465Y2917323D02*
D03*
X1458662Y2917323D02*
D03*
X1496063Y2830709D02*
D03*
D145*
X1622047Y2578740D02*
D03*
X1763780D02*
D03*
D146*
X3503937Y2807087D02*
D03*
Y2744094D02*
D03*
X1692913Y3118110D02*
D03*
Y3181102D02*
D03*
X1633858Y3118110D02*
D03*
Y3181102D02*
D03*
X1574803Y3118110D02*
D03*
Y3181102D02*
D03*
X1515748Y3118110D02*
D03*
Y3181102D02*
D03*
X1456693Y3118110D02*
D03*
Y3181102D02*
D03*
D147*
X2086614Y1692913D02*
D03*
X2145669D02*
D03*
D148*
X2106299Y1795394D02*
D03*
X2125984D02*
D03*
X2145669D02*
D03*
X2165354D02*
D03*
X2185039D02*
D03*
Y1905394D02*
D03*
X2165354D02*
D03*
X2145669D02*
D03*
X2125984D02*
D03*
X2106299D02*
D03*
D149*
X1989173Y3257874D02*
D03*
X1989173Y3238189D02*
D03*
X1989173Y3297244D02*
D03*
X1989174Y3277559D02*
D03*
X1869094Y3238189D02*
D03*
X1869094Y3257874D02*
D03*
X1869095Y3297244D02*
D03*
X1869095Y3277559D02*
D03*
D150*
X1929134Y3267716D02*
D03*
D151*
X1899607Y3207677D02*
D03*
X1958661Y3207677D02*
D03*
X1938977Y3207677D02*
D03*
X1919291Y3207677D02*
D03*
X1899607Y3327756D02*
D03*
X1919291Y3327756D02*
D03*
X1958661Y3327756D02*
D03*
X1938976Y3327756D02*
D03*
D152*
X1879921Y3218504D02*
D03*
X1978346Y3316929D02*
D03*
X1879921Y3316929D02*
D03*
X1978347Y3218504D02*
D03*
D153*
X1105118Y3046851D02*
D03*
X1105118Y3449213D02*
D03*
X1259842Y3046850D02*
D03*
X1259842Y3449213D02*
D03*
X1105118Y2338189D02*
D03*
X1105118Y2740551D02*
D03*
X1259843Y2338189D02*
D03*
X1259843Y2740552D02*
D03*
D154*
X1282480Y3238189D02*
D03*
X1282481Y3257874D02*
D03*
X1282480Y3218504D02*
D03*
X1282480Y3277559D02*
D03*
X1282480Y3198819D02*
D03*
X1282480Y3297244D02*
D03*
X1282481Y3179134D02*
D03*
Y3316929D02*
D03*
X1282480Y2529528D02*
D03*
X1282481Y2549213D02*
D03*
X1282480Y2509843D02*
D03*
X1282481Y2568898D02*
D03*
X1282481Y2490157D02*
D03*
X1282481Y2588583D02*
D03*
X1282481Y2470472D02*
D03*
X1282481Y2608268D02*
D03*
D155*
X1282480Y3122048D02*
D03*
X1282480Y3153544D02*
D03*
X1282480Y3342520D02*
D03*
X1282480Y3374016D02*
D03*
X1282481Y2413386D02*
D03*
X1282480Y2444882D02*
D03*
X1282481Y2633858D02*
D03*
X1282481Y2665354D02*
D03*
D156*
X1650787Y2748425D02*
D03*
X1650787Y2763386D02*
D03*
X1572047Y2748425D02*
D03*
X1572047Y2763386D02*
D03*
D157*
X1616929Y2755905D02*
D03*
X1538189Y2755905D02*
D03*
D158*
X3455148Y3154709D02*
D03*
X3455148Y3123213D02*
D03*
%TF.MD5,d6c573f7851fd68f69a2998fed7f1e00*%
M02*
