%TF.GenerationSoftware,Altium Limited,Altium Designer,22.2.1 (43)*%
G04 Layer_Color=128*
%FSLAX26Y26*%
%MOIN*%
%TF.SameCoordinates,FBDAFD36-F916-462A-90D8-3015B88DE517*%
%TF.FilePolarity,Positive*%
%TF.FileFunction,Paste,Bot*%
%TF.Part,Single*%
G01*
G75*
%TA.AperFunction,SMDPad,CuDef*%
%ADD11C,0.039370*%
%TA.AperFunction,ConnectorPad*%
%ADD87R,0.024409X0.055118*%
%ADD88R,0.043307X0.094488*%
%TA.AperFunction,SMDPad,CuDef*%
%ADD89R,0.050000X0.200000*%
%ADD90C,0.393701*%
D11*
X3227559Y3289702D02*
D03*
X3135433Y3292913D02*
D03*
X2989834Y3284339D02*
D03*
X3226993Y3235140D02*
D03*
X3068955Y3279571D02*
D03*
X3248032Y3031496D02*
D03*
D87*
X3314173Y3349606D02*
D03*
X3270866D02*
D03*
X3227559D02*
D03*
X3184252D02*
D03*
X3140945D02*
D03*
X3097638D02*
D03*
X3054331D02*
D03*
X3011024D02*
D03*
X2967716D02*
D03*
D88*
X3549213Y3782677D02*
D03*
X2913386D02*
D03*
X3549213Y3428347D02*
D03*
X2913386D02*
D03*
D89*
X2122638Y2047244D02*
D03*
X1263189D02*
D03*
D90*
X1692913D02*
D03*
%TF.MD5,67089f2f578c72f777047266ad7b7596*%
M02*
