%TF.GenerationSoftware,Altium Limited,Altium Designer,22.5.1 (42)*%
G04 Layer_Color=0*
%FSLAX45Y45*%
%MOMM*%
%TF.SameCoordinates,A79CAE12-DCBF-455A-9705-E792248E02F7*%
%TF.FilePolarity,Positive*%
%TF.FileFunction,Plated,1,2,PTH,Drill*%
%TF.Part,Single*%
G01*
G75*
%TA.AperFunction,ComponentDrill*%
%ADD79O,0.80000X1.30000*%
%ADD80O,1.30000X0.80000*%
%TA.AperFunction,OtherDrill,Pad Free-0 (10mm,-30mm)*%
%ADD81C,2.20000*%
%TA.AperFunction,OtherDrill,Pad Free-0 (-10mm,-30mm)*%
%ADD82C,2.20000*%
%TA.AperFunction,OtherDrill,Pad Free-0 (0mm,0mm)*%
%ADD83C,2.20000*%
%TA.AperFunction,ViaDrill,NotFilled*%
%ADD84C,0.40000*%
D79*
X549999Y-2650000D02*
D03*
X-510001Y-2900000D02*
D03*
X-450001Y-2089999D02*
D03*
X-310001Y-2290000D02*
D03*
X450000Y-2900001D02*
D03*
X-160000Y-2090000D02*
D03*
X359999Y-2400001D02*
D03*
D80*
X70000Y-2070000D02*
D03*
D81*
X1000000Y-3000000D02*
D03*
D82*
X-1000000D02*
D03*
D83*
X0Y0D02*
D03*
D84*
X-625000Y-475000D02*
D03*
X-726340Y-1312949D02*
D03*
X-929997Y-1269991D02*
D03*
X525000Y-975000D02*
D03*
X-497500Y-955252D02*
D03*
X-550000Y-1325000D02*
D03*
X-941987Y-1592548D02*
D03*
X-839956Y-1093817D02*
D03*
X600000Y-175000D02*
D03*
X500000Y-700000D02*
D03*
X575000Y-1100000D02*
D03*
X0Y-1325000D02*
D03*
X100000D02*
D03*
X-633954Y-2019429D02*
D03*
X-633451Y-1605708D02*
D03*
X-393705Y-963510D02*
D03*
X-628410Y-961404D02*
D03*
X-725000Y-975000D02*
D03*
X-750000Y-550000D02*
D03*
X150000Y-375000D02*
D03*
X164762Y-461822D02*
D03*
X-375000Y-625000D02*
D03*
X-350000Y-750000D02*
D03*
X-650000Y-1075000D02*
D03*
Y-775000D02*
D03*
X-707286Y-1222286D02*
D03*
X425000Y-1550000D02*
D03*
X711360Y-1550000D02*
D03*
X-139860Y-337666D02*
D03*
X-25000Y-1150000D02*
D03*
X-139860Y-917581D02*
D03*
X175000Y-1000000D02*
D03*
X-750000Y-1500000D02*
D03*
Y-1950000D02*
D03*
X-700000Y-1775000D02*
D03*
Y-350000D02*
D03*
X-500000D02*
D03*
X409999Y-588834D02*
D03*
%TF.MD5,61a3584e6c8fc17f5206f32c513befe3*%
M02*
