%TF.GenerationSoftware,Altium Limited,Altium Designer,22.5.1 (42)*%
G04 Layer_Color=65535*
%FSLAX45Y45*%
%MOMM*%
%TF.SameCoordinates,A79CAE12-DCBF-455A-9705-E792248E02F7*%
%TF.FilePolarity,Positive*%
%TF.FileFunction,Legend,Top*%
%TF.Part,Single*%
G01*
G75*
%TA.AperFunction,NonConductor*%
%ADD44C,0.20000*%
%ADD45C,0.25400*%
%ADD46C,0.25000*%
%ADD47C,0.20320*%
%ADD48C,0.30000*%
%ADD49C,0.15000*%
%ADD50C,0.15240*%
%ADD51R,0.40000X0.80000*%
G36*
X-206093Y-1205478D02*
X-205057D01*
Y-1206514D01*
X-204021D01*
Y-1207551D01*
X-200913D01*
Y-1206514D01*
X-198841D01*
Y-1207551D01*
X-197805D01*
Y-1208586D01*
X-196769D01*
Y-1209623D01*
X-192624D01*
Y-1211695D01*
X-190553D01*
Y-1212731D01*
X-188480D01*
Y-1213767D01*
X-186408D01*
Y-1214803D01*
X-185372D01*
Y-1215839D01*
X-184336D01*
Y-1216875D01*
X-183300D01*
Y-1217911D01*
X-182264D01*
Y-1218947D01*
X-181228D01*
Y-1219983D01*
X-180192D01*
Y-1221019D01*
X-179156D01*
Y-1222055D01*
X-177084D01*
Y-1226199D01*
X-176047D01*
Y-1227235D01*
X-175012D01*
Y-1231380D01*
X-172939D01*
Y-1232416D01*
X-171903D01*
Y-1236560D01*
X-170867D01*
Y-1237596D01*
X-169832D01*
Y-1261425D01*
X-171903D01*
Y-1263498D01*
X-172939D01*
Y-1264534D01*
X-171903D01*
Y-1267642D01*
X-172939D01*
Y-1268678D01*
X-173975D01*
Y-1269714D01*
X-175012D01*
Y-1273858D01*
X-176047D01*
Y-1274894D01*
X-177084D01*
Y-1275930D01*
X-178120D01*
Y-1276966D01*
X-179156D01*
Y-1278003D01*
X-180192D01*
Y-1279039D01*
X-181228D01*
Y-1280075D01*
X-182264D01*
Y-1281111D01*
X-183300D01*
Y-1282147D01*
X-184336D01*
Y-1283183D01*
X-185372D01*
Y-1284219D01*
X-186408D01*
Y-1285255D01*
X-187444D01*
Y-1286291D01*
X-188480D01*
Y-1287327D01*
X-189516D01*
Y-1288363D01*
X-190553D01*
Y-1289399D01*
X-194697D01*
Y-1291471D01*
X-198841D01*
Y-1292507D01*
X-199877D01*
Y-1293543D01*
X-200913D01*
Y-1294580D01*
X-202985D01*
Y-1293543D01*
X-205057D01*
Y-1294580D01*
X-219562D01*
Y-1293543D01*
X-220598D01*
Y-1294580D01*
X-223706D01*
Y-1293543D01*
X-224743D01*
Y-1291471D01*
X-230959D01*
Y-1290435D01*
X-231995D01*
Y-1289399D01*
X-234067D01*
Y-1287327D01*
X-235103D01*
Y-1286291D01*
X-239247D01*
Y-1284219D01*
X-241320D01*
Y-1283183D01*
X-242355D01*
Y-1282147D01*
X-243392D01*
Y-1281111D01*
X-244428D01*
Y-1279039D01*
X-245464D01*
Y-1276966D01*
X-246500D01*
Y-1274894D01*
X-247535D01*
Y-1273858D01*
X-249608D01*
Y-1271786D01*
X-250644D01*
Y-1269714D01*
X-251680D01*
Y-1266606D01*
X-253752D01*
Y-1257281D01*
X-254788D01*
Y-1253137D01*
X-255824D01*
Y-1251065D01*
X-256861D01*
Y-1247957D01*
X-255824D01*
Y-1246921D01*
X-254788D01*
Y-1242776D01*
X-253752D01*
Y-1238632D01*
X-254788D01*
Y-1237596D01*
X-253752D01*
Y-1235524D01*
X-252716D01*
Y-1233452D01*
X-251680D01*
Y-1231380D01*
X-250644D01*
Y-1229307D01*
X-249608D01*
Y-1227235D01*
X-248572D01*
Y-1225164D01*
X-247535D01*
Y-1224127D01*
X-246500D01*
Y-1223092D01*
X-245464D01*
Y-1222055D01*
X-244428D01*
Y-1221019D01*
X-243392D01*
Y-1219983D01*
X-242355D01*
Y-1218947D01*
X-241320D01*
Y-1217911D01*
X-240283D01*
Y-1216875D01*
X-239247D01*
Y-1215839D01*
X-238211D01*
Y-1214803D01*
X-237175D01*
Y-1213767D01*
X-236139D01*
Y-1212731D01*
X-235103D01*
Y-1211695D01*
X-231995D01*
Y-1210658D01*
X-230959D01*
Y-1209623D01*
X-228887D01*
Y-1208586D01*
X-227851D01*
Y-1207551D01*
X-224743D01*
Y-1206514D01*
X-223706D01*
Y-1207551D01*
X-221634D01*
Y-1206514D01*
X-219562D01*
Y-1204442D01*
X-206093D01*
Y-1205478D01*
D02*
G37*
G36*
X-193661Y-1313229D02*
X-191588D01*
Y-1314265D01*
X-190553D01*
Y-1315301D01*
X-177084D01*
Y-1316336D01*
X-176047D01*
Y-1317373D01*
X-173975D01*
Y-1318409D01*
X-167759D01*
Y-1319445D01*
X-166723D01*
Y-1320481D01*
X-161543D01*
Y-1321517D01*
X-159471D01*
Y-1322553D01*
X-158435D01*
Y-1323589D01*
X-154291D01*
Y-1325661D01*
X-152218D01*
Y-1326697D01*
X-150146D01*
Y-1325661D01*
X-148074D01*
Y-1326697D01*
X-147038D01*
Y-1327733D01*
X-144966D01*
Y-1328770D01*
X-141857D01*
Y-1329805D01*
X-140822D01*
Y-1330842D01*
X-139785D01*
Y-1331877D01*
X-138750D01*
Y-1332914D01*
X-137713D01*
Y-1333950D01*
X-134605D01*
Y-1334986D01*
X-133569D01*
Y-1336022D01*
X-131497D01*
Y-1337058D01*
X-130461D01*
Y-1338094D01*
X-129425D01*
Y-1339130D01*
X-125281D01*
Y-1340166D01*
X-124245D01*
Y-1341202D01*
X-123209D01*
Y-1342238D01*
X-122173D01*
Y-1343274D01*
X-121136D01*
Y-1344310D01*
X-120100D01*
Y-1345346D01*
X-119064D01*
Y-1346383D01*
X-118028D01*
Y-1348454D01*
X-115956D01*
Y-1349491D01*
X-114920D01*
Y-1350527D01*
X-113884D01*
Y-1351563D01*
X-112848D01*
Y-1353635D01*
X-111812D01*
Y-1354671D01*
X-109740D01*
Y-1356743D01*
X-108704D01*
Y-1357779D01*
X-107668D01*
Y-1358815D01*
X-106632D01*
Y-1360887D01*
X-105595D01*
Y-1362959D01*
X-104559D01*
Y-1363995D01*
X-103524D01*
Y-1365032D01*
X-102487D01*
Y-1366068D01*
X-101451D01*
Y-1368140D01*
X-100415D01*
Y-1371248D01*
X-98343D01*
Y-1372284D01*
X-97307D01*
Y-1374356D01*
X-96271D01*
Y-1375392D01*
X-95235D01*
Y-1379536D01*
X-94199D01*
Y-1380572D01*
X-93163D01*
Y-1385753D01*
X-92127D01*
Y-1387825D01*
X-91091D01*
Y-1388861D01*
X-90055D01*
Y-1393005D01*
X-89018D01*
Y-1394041D01*
X-87983D01*
Y-1396113D01*
X-86946D01*
Y-1397150D01*
X-87983D01*
Y-1402330D01*
X-86946D01*
Y-1403365D01*
X-85910D01*
Y-1404402D01*
X-84874D01*
Y-1415799D01*
X-83838D01*
Y-1416834D01*
X-82802D01*
Y-1418906D01*
X-81766D01*
Y-1422015D01*
X-82802D01*
Y-1428231D01*
X-81766D01*
Y-1441700D01*
X-82802D01*
Y-1453097D01*
X-81766D01*
Y-1457241D01*
X-82802D01*
Y-1459313D01*
X-81766D01*
Y-1462421D01*
X-82802D01*
Y-1464493D01*
X-83838D01*
Y-1466565D01*
X-84874D01*
Y-1485214D01*
X-85910D01*
Y-1487287D01*
X-86946D01*
Y-1488323D01*
X-87983D01*
Y-1502828D01*
X-90055D01*
Y-1515260D01*
X-91091D01*
Y-1516296D01*
X-92127D01*
Y-1519404D01*
X-93163D01*
Y-1523549D01*
X-92127D01*
Y-1526657D01*
X-93163D01*
Y-1528729D01*
X-94199D01*
Y-1529765D01*
X-95235D01*
Y-1542198D01*
X-96271D01*
Y-1543234D01*
X-97307D01*
Y-1545306D01*
X-98343D01*
Y-1548414D01*
X-97307D01*
Y-1551522D01*
X-98343D01*
Y-1552558D01*
X-99379D01*
Y-1553594D01*
X-100415D01*
Y-1560847D01*
X-99379D01*
Y-1561883D01*
X-96271D01*
Y-1562919D01*
X-95235D01*
Y-1563955D01*
X-94199D01*
Y-1564991D01*
X-91091D01*
Y-1563955D01*
X-89018D01*
Y-1564991D01*
X-87983D01*
Y-1566027D01*
X-86946D01*
Y-1567063D01*
X-79694D01*
Y-1568099D01*
X-77622D01*
Y-1569135D01*
X-72442D01*
Y-1570171D01*
X-69334D01*
Y-1571208D01*
X-68297D01*
Y-1572243D01*
X-61045D01*
Y-1574316D01*
X-58973D01*
Y-1575352D01*
X-56901D01*
Y-1574316D01*
X-54828D01*
Y-1575352D01*
X-53793D01*
Y-1576388D01*
X-52756D01*
Y-1577424D01*
X-45504D01*
Y-1579496D01*
X-43432D01*
Y-1580532D01*
X-37216D01*
Y-1581568D01*
X-36180D01*
Y-1582604D01*
X-29963D01*
Y-1583640D01*
X-28927D01*
Y-1584676D01*
X-27891D01*
Y-1585712D01*
X-21675D01*
Y-1586749D01*
X-20639D01*
Y-1587784D01*
X-14422D01*
Y-1588820D01*
X-13386D01*
Y-1589857D01*
X-12350D01*
Y-1590892D01*
X-6134D01*
Y-1591929D01*
X-4062D01*
Y-1592965D01*
X-3026D01*
Y-1594001D01*
X2155D01*
Y-1595037D01*
X4227D01*
Y-1596073D01*
X5263D01*
Y-1597109D01*
X11479D01*
Y-1599181D01*
X18732D01*
Y-1600217D01*
X19768D01*
Y-1601253D01*
X20804D01*
Y-1602289D01*
X27020D01*
Y-1603325D01*
X28056D01*
Y-1604361D01*
X34273D01*
Y-1605398D01*
X36345D01*
Y-1606433D01*
X37381D01*
Y-1607470D01*
X42561D01*
Y-1608506D01*
X43597D01*
Y-1609542D01*
X49813D01*
Y-1610578D01*
X51885D01*
Y-1611614D01*
X52922D01*
Y-1612650D01*
X59138D01*
Y-1614722D01*
X66391D01*
Y-1615758D01*
X67426D01*
Y-1616794D01*
X68463D01*
Y-1617830D01*
X74679D01*
Y-1618866D01*
X75715D01*
Y-1619902D01*
X81931D01*
Y-1620939D01*
X82967D01*
Y-1621974D01*
X84003D01*
Y-1623010D01*
X90220D01*
Y-1624047D01*
X91256D01*
Y-1625082D01*
X93328D01*
Y-1626119D01*
X98508D01*
Y-1627155D01*
X100581D01*
Y-1628191D01*
X102653D01*
Y-1629227D01*
X104724D01*
Y-1630263D01*
X105761D01*
Y-1631299D01*
X111977D01*
Y-1632335D01*
X113013D01*
Y-1633371D01*
X115085D01*
Y-1634407D01*
X120265D01*
Y-1635443D01*
X121302D01*
Y-1636479D01*
X127518D01*
Y-1637515D01*
X128554D01*
Y-1638551D01*
X130626D01*
Y-1639588D01*
X135806D01*
Y-1640623D01*
X136842D01*
Y-1641660D01*
X140987D01*
Y-1642696D01*
X142023D01*
Y-1643732D01*
X143059D01*
Y-1644768D01*
X150311D01*
Y-1645804D01*
X151347D01*
Y-1646840D01*
X156528D01*
Y-1647876D01*
X157564D01*
Y-1648912D01*
X158600D01*
Y-1649948D01*
X164816D01*
Y-1650984D01*
X166888D01*
Y-1652020D01*
X168961D01*
Y-1653056D01*
X171032D01*
Y-1654092D01*
X172069D01*
Y-1655128D01*
X178285D01*
Y-1656164D01*
X179321D01*
Y-1657200D01*
X182429D01*
Y-1658237D01*
X186573D01*
Y-1659273D01*
X187610D01*
Y-1660309D01*
X189682D01*
Y-1661345D01*
X191753D01*
Y-1660309D01*
X194862D01*
Y-1661345D01*
X195898D01*
Y-1662381D01*
X197970D01*
Y-1663417D01*
X200042D01*
Y-1664453D01*
X201078D01*
Y-1665489D01*
X205222D01*
Y-1666525D01*
X208331D01*
Y-1667561D01*
X209367D01*
Y-1668597D01*
X215583D01*
Y-1669633D01*
X217655D01*
Y-1670669D01*
X218691D01*
Y-1671705D01*
X223872D01*
Y-1672741D01*
X224908D01*
Y-1673778D01*
X229052D01*
Y-1674814D01*
X230088D01*
Y-1675850D01*
X231124D01*
Y-1676886D01*
X238376D01*
Y-1677921D01*
X239412D01*
Y-1678958D01*
X245629D01*
Y-1679994D01*
X246665D01*
Y-1681030D01*
X247701D01*
Y-1682066D01*
X250809D01*
Y-1683102D01*
X251845D01*
Y-1684138D01*
X259098D01*
Y-1685174D01*
X260134D01*
Y-1687246D01*
X265314D01*
Y-1689318D01*
X263242D01*
Y-1690355D01*
X261170D01*
Y-1689318D01*
X260134D01*
Y-1688282D01*
X258061D01*
Y-1687246D01*
X250809D01*
Y-1686210D01*
X249773D01*
Y-1685174D01*
X247701D01*
Y-1684138D01*
X244593D01*
Y-1685174D01*
X243557D01*
Y-1684138D01*
X241484D01*
Y-1683102D01*
X240449D01*
Y-1682066D01*
X234232D01*
Y-1681030D01*
X232160D01*
Y-1679994D01*
X230088D01*
Y-1678958D01*
X223872D01*
Y-1677921D01*
X222835D01*
Y-1676886D01*
X221800D01*
Y-1675850D01*
X220763D01*
Y-1676886D01*
X216619D01*
Y-1675850D01*
X215583D01*
Y-1674814D01*
X214547D01*
Y-1673778D01*
X206259D01*
Y-1672741D01*
X205222D01*
Y-1670669D01*
X196934D01*
Y-1669633D01*
X195898D01*
Y-1668597D01*
X189682D01*
Y-1667561D01*
X187610D01*
Y-1666525D01*
X186573D01*
Y-1665489D01*
X179321D01*
Y-1664453D01*
X177249D01*
Y-1663417D01*
X176213D01*
Y-1662381D01*
X169996D01*
Y-1661345D01*
X168961D01*
Y-1660309D01*
X162744D01*
Y-1659273D01*
X159636D01*
Y-1658237D01*
X158600D01*
Y-1657200D01*
X151347D01*
Y-1656164D01*
X150311D01*
Y-1655128D01*
X144095D01*
Y-1654092D01*
X143059D01*
Y-1653056D01*
X142023D01*
Y-1652020D01*
X133734D01*
Y-1650984D01*
X132698D01*
Y-1649948D01*
X126482D01*
Y-1648912D01*
X124410D01*
Y-1647876D01*
X123374D01*
Y-1646840D01*
X116121D01*
Y-1644768D01*
X114049D01*
Y-1643732D01*
X111977D01*
Y-1644768D01*
X107833D01*
Y-1643732D01*
X106797D01*
Y-1642696D01*
X104724D01*
Y-1641660D01*
X98508D01*
Y-1640623D01*
X97472D01*
Y-1639588D01*
X95400D01*
Y-1638551D01*
X94364D01*
Y-1639588D01*
X90220D01*
Y-1638551D01*
X89184D01*
Y-1637515D01*
X88148D01*
Y-1636479D01*
X80895D01*
Y-1635443D01*
X79859D01*
Y-1634407D01*
X78823D01*
Y-1633371D01*
X71571D01*
Y-1632335D01*
X70535D01*
Y-1631299D01*
X69499D01*
Y-1630263D01*
X62246D01*
Y-1629227D01*
X61210D01*
Y-1628191D01*
X53957D01*
Y-1627155D01*
X51885D01*
Y-1626119D01*
X50850D01*
Y-1625082D01*
X44633D01*
Y-1624047D01*
X43597D01*
Y-1623010D01*
X41525D01*
Y-1621974D01*
X40489D01*
Y-1623010D01*
X36345D01*
Y-1621974D01*
X34273D01*
Y-1620939D01*
X33236D01*
Y-1619902D01*
X27020D01*
Y-1618866D01*
X24948D01*
Y-1617830D01*
X18732D01*
Y-1616794D01*
X16660D01*
Y-1615758D01*
X15624D01*
Y-1614722D01*
X8371D01*
Y-1613686D01*
X7335D01*
Y-1612650D01*
X4227D01*
Y-1611614D01*
X2155D01*
Y-1612650D01*
X83D01*
Y-1611614D01*
X-1989D01*
Y-1610578D01*
X-3026D01*
Y-1609542D01*
X-10278D01*
Y-1608506D01*
X-11314D01*
Y-1607470D01*
X-13386D01*
Y-1606433D01*
X-14422D01*
Y-1607470D01*
X-18566D01*
Y-1606433D01*
X-20639D01*
Y-1605398D01*
X-21675D01*
Y-1604361D01*
X-28927D01*
Y-1603325D01*
X-29963D01*
Y-1602289D01*
X-32035D01*
Y-1601253D01*
X-35144D01*
Y-1602289D01*
X-37216D01*
Y-1601253D01*
X-38252D01*
Y-1600217D01*
X-39287D01*
Y-1599181D01*
X-47576D01*
Y-1598145D01*
X-48613D01*
Y-1597109D01*
X-49648D01*
Y-1596073D01*
X-56901D01*
Y-1595037D01*
X-57937D01*
Y-1594001D01*
X-58973D01*
Y-1592965D01*
X-66225D01*
Y-1591929D01*
X-68297D01*
Y-1590892D01*
X-75550D01*
Y-1589857D01*
X-76586D01*
Y-1588820D01*
X-77622D01*
Y-1587784D01*
X-85910D01*
Y-1586749D01*
X-86946D01*
Y-1585712D01*
X-93163D01*
Y-1584676D01*
X-95235D01*
Y-1583640D01*
X-96271D01*
Y-1582604D01*
X-105595D01*
Y-1583640D01*
X-106632D01*
Y-1584676D01*
X-107668D01*
Y-1586749D01*
X-108704D01*
Y-1592965D01*
X-109740D01*
Y-1594001D01*
X-110776D01*
Y-1595037D01*
X-111812D01*
Y-1599181D01*
X-110776D01*
Y-1601253D01*
X-111812D01*
Y-1603325D01*
X-112848D01*
Y-1605398D01*
X-113884D01*
Y-1611614D01*
X-114920D01*
Y-1612650D01*
X-116992D01*
Y-1619902D01*
X-118028D01*
Y-1620939D01*
X-119064D01*
Y-1623010D01*
X-120100D01*
Y-1628191D01*
X-121136D01*
Y-1629227D01*
X-122173D01*
Y-1635443D01*
X-123209D01*
Y-1636479D01*
X-124245D01*
Y-1638551D01*
X-125281D01*
Y-1643732D01*
X-126317D01*
Y-1644768D01*
X-127353D01*
Y-1650984D01*
X-128389D01*
Y-1652020D01*
X-129425D01*
Y-1655128D01*
X-130461D01*
Y-1657200D01*
X-132533D01*
Y-1649948D01*
X-131497D01*
Y-1648912D01*
X-130461D01*
Y-1641660D01*
X-129425D01*
Y-1639588D01*
X-128389D01*
Y-1638551D01*
X-127353D01*
Y-1630263D01*
X-126317D01*
Y-1629227D01*
X-125281D01*
Y-1625082D01*
X-124245D01*
Y-1621974D01*
X-125281D01*
Y-1619902D01*
X-124245D01*
Y-1617830D01*
X-122173D01*
Y-1607470D01*
X-121136D01*
Y-1606433D01*
X-120100D01*
Y-1604361D01*
X-119064D01*
Y-1598145D01*
X-120100D01*
Y-1595037D01*
X-119064D01*
Y-1592965D01*
X-118028D01*
Y-1591929D01*
X-116992D01*
Y-1588820D01*
X-115956D01*
Y-1585712D01*
X-116992D01*
Y-1582604D01*
X-115956D01*
Y-1577424D01*
X-123209D01*
Y-1576388D01*
X-124245D01*
Y-1575352D01*
X-126317D01*
Y-1574316D01*
X-127353D01*
Y-1575352D01*
X-131497D01*
Y-1574316D01*
X-133569D01*
Y-1573280D01*
X-134605D01*
Y-1572243D01*
X-141857D01*
Y-1571208D01*
X-142894D01*
Y-1570171D01*
X-144966D01*
Y-1569135D01*
X-152218D01*
Y-1568099D01*
X-153254D01*
Y-1567063D01*
X-160506D01*
Y-1566027D01*
X-161543D01*
Y-1564991D01*
X-163615D01*
Y-1563955D01*
X-170867D01*
Y-1562919D01*
X-171903D01*
Y-1561883D01*
X-173975D01*
Y-1560847D01*
X-176047D01*
Y-1561883D01*
X-179156D01*
Y-1560847D01*
X-181228D01*
Y-1559811D01*
X-182264D01*
Y-1558775D01*
X-190553D01*
Y-1557739D01*
X-191588D01*
Y-1556702D01*
X-192624D01*
Y-1555667D01*
X-199877D01*
Y-1554631D01*
X-200913D01*
Y-1553594D01*
X-207129D01*
Y-1552558D01*
X-210238D01*
Y-1551522D01*
X-211274D01*
Y-1550486D01*
X-219562D01*
Y-1549450D01*
X-220598D01*
Y-1548414D01*
X-222670D01*
Y-1547378D01*
X-229923D01*
Y-1546342D01*
X-230959D01*
Y-1545306D01*
X-239247D01*
Y-1544270D01*
X-241320D01*
Y-1543234D01*
X-242355D01*
Y-1542198D01*
X-245464D01*
Y-1543234D01*
X-248572D01*
Y-1542198D01*
X-249608D01*
Y-1541162D01*
X-250644D01*
Y-1540126D01*
X-259968D01*
Y-1539090D01*
X-261004D01*
Y-1538053D01*
X-262041D01*
Y-1537017D01*
X-266185D01*
Y-1538053D01*
X-269293D01*
Y-1537017D01*
X-271365D01*
Y-1535981D01*
X-272401D01*
Y-1534945D01*
X-281726D01*
Y-1533909D01*
X-282762D01*
Y-1532873D01*
X-283798D01*
Y-1531837D01*
X-288978D01*
Y-1532873D01*
X-290014D01*
Y-1531837D01*
X-292086D01*
Y-1530801D01*
X-293122D01*
Y-1529765D01*
X-301411D01*
Y-1528729D01*
X-302447D01*
Y-1527693D01*
X-303483D01*
Y-1526657D01*
X-305555D01*
Y-1525621D01*
X-306591D01*
Y-1526657D01*
X-316952D01*
Y-1528729D01*
X-317988D01*
Y-1530801D01*
X-316952D01*
Y-1533909D01*
X-315916D01*
Y-1534945D01*
X-314880D01*
Y-1537017D01*
X-313843D01*
Y-1541162D01*
X-314880D01*
Y-1546342D01*
X-313843D01*
Y-1547378D01*
X-314880D01*
Y-1552558D01*
X-313843D01*
Y-1553594D01*
X-312808D01*
Y-1554631D01*
X-311772D01*
Y-1566027D01*
X-310735D01*
Y-1567063D01*
X-309699D01*
Y-1569135D01*
X-308663D01*
Y-1572243D01*
X-309699D01*
Y-1579496D01*
X-308663D01*
Y-1580532D01*
X-306591D01*
Y-1592965D01*
X-305555D01*
Y-1594001D01*
X-304519D01*
Y-1596073D01*
X-303483D01*
Y-1598145D01*
X-304519D01*
Y-1599181D01*
X-303483D01*
Y-1602289D01*
X-304519D01*
Y-1605398D01*
X-303483D01*
Y-1606433D01*
X-302447D01*
Y-1607470D01*
X-301411D01*
Y-1616794D01*
X-300375D01*
Y-1617830D01*
X-299339D01*
Y-1619902D01*
X-298303D01*
Y-1624047D01*
X-299339D01*
Y-1626119D01*
X-298303D01*
Y-1628191D01*
X-297267D01*
Y-1629227D01*
X-296231D01*
Y-1637515D01*
X-295194D01*
Y-1638551D01*
X-294158D01*
Y-1640623D01*
X-293122D01*
Y-1648912D01*
X-292086D01*
Y-1649948D01*
X-291050D01*
Y-1652020D01*
X-290014D01*
Y-1656164D01*
X-291050D01*
Y-1657200D01*
X-292086D01*
Y-1656164D01*
X-293122D01*
Y-1655128D01*
X-294158D01*
Y-1650984D01*
X-295194D01*
Y-1649948D01*
X-296231D01*
Y-1645804D01*
X-297267D01*
Y-1643732D01*
X-298303D01*
Y-1638551D01*
X-299339D01*
Y-1636479D01*
X-300375D01*
Y-1634407D01*
X-301411D01*
Y-1629227D01*
X-302447D01*
Y-1628191D01*
X-303483D01*
Y-1626119D01*
X-304519D01*
Y-1625082D01*
X-303483D01*
Y-1620939D01*
X-304519D01*
Y-1619902D01*
X-305555D01*
Y-1618866D01*
X-306591D01*
Y-1612650D01*
X-307627D01*
Y-1611614D01*
X-308663D01*
Y-1609542D01*
X-309699D01*
Y-1608506D01*
X-308663D01*
Y-1605398D01*
X-309699D01*
Y-1603325D01*
X-310735D01*
Y-1602289D01*
X-311772D01*
Y-1594001D01*
X-313843D01*
Y-1585712D01*
X-314880D01*
Y-1584676D01*
X-315916D01*
Y-1583640D01*
X-316952D01*
Y-1575352D01*
X-317988D01*
Y-1574316D01*
X-319024D01*
Y-1573280D01*
X-320060D01*
Y-1570171D01*
X-319024D01*
Y-1566027D01*
X-320060D01*
Y-1564991D01*
X-321096D01*
Y-1562919D01*
X-322132D01*
Y-1554631D01*
X-323168D01*
Y-1553594D01*
X-324204D01*
Y-1552558D01*
X-325240D01*
Y-1543234D01*
X-326276D01*
Y-1541162D01*
X-327312D01*
Y-1538053D01*
X-328349D01*
Y-1533909D01*
X-327312D01*
Y-1530801D01*
X-328349D01*
Y-1529765D01*
X-329384D01*
Y-1528729D01*
X-330421D01*
Y-1521477D01*
X-332493D01*
Y-1520441D01*
X-336637D01*
Y-1519404D01*
X-338709D01*
Y-1518369D01*
X-348033D01*
Y-1517332D01*
X-349070D01*
Y-1516296D01*
X-351142D01*
Y-1515260D01*
X-360466D01*
Y-1514224D01*
X-361502D01*
Y-1513188D01*
X-370827D01*
Y-1512152D01*
X-371863D01*
Y-1511116D01*
X-373935D01*
Y-1510080D01*
X-383260D01*
Y-1509044D01*
X-384296D01*
Y-1508008D01*
X-395692D01*
Y-1506972D01*
X-396728D01*
Y-1505936D01*
X-397765D01*
Y-1504900D01*
X-410197D01*
Y-1503863D01*
X-411233D01*
Y-1502828D01*
X-423666D01*
Y-1501791D01*
X-424702D01*
Y-1500755D01*
X-426774D01*
Y-1499720D01*
X-438171D01*
Y-1498683D01*
X-439207D01*
Y-1497648D01*
X-444387D01*
Y-1496611D01*
X-445423D01*
Y-1497648D01*
X-451640D01*
Y-1496611D01*
X-452675D01*
Y-1495575D01*
X-453712D01*
Y-1494539D01*
X-466144D01*
Y-1493503D01*
X-468216D01*
Y-1492467D01*
X-469253D01*
Y-1491431D01*
X-484794D01*
Y-1490395D01*
X-486866D01*
Y-1489359D01*
X-488938D01*
Y-1488323D01*
X-497226D01*
Y-1489359D01*
X-502407D01*
Y-1488323D01*
X-503442D01*
Y-1487287D01*
X-504479D01*
Y-1486251D01*
X-575967D01*
Y-1487287D01*
X-577003D01*
Y-1488323D01*
X-578039D01*
Y-1489359D01*
X-581147D01*
Y-1488323D01*
X-582183D01*
Y-1489359D01*
X-584255D01*
Y-1490395D01*
X-585291D01*
Y-1491431D01*
X-587364D01*
Y-1492467D01*
X-591508D01*
Y-1493503D01*
X-593580D01*
Y-1494539D01*
X-594616D01*
Y-1495575D01*
X-595652D01*
Y-1496611D01*
X-596688D01*
Y-1497648D01*
X-597724D01*
Y-1499720D01*
X-598760D01*
Y-1500755D01*
X-597724D01*
Y-1513188D01*
X-596688D01*
Y-1514224D01*
X-595652D01*
Y-1515260D01*
X-594616D01*
Y-1517332D01*
X-595652D01*
Y-1520441D01*
X-594616D01*
Y-1521477D01*
X-593580D01*
Y-1522513D01*
X-592544D01*
Y-1523549D01*
X-591508D01*
Y-1524585D01*
X-590472D01*
Y-1526657D01*
X-589436D01*
Y-1529765D01*
X-588399D01*
Y-1530801D01*
X-587364D01*
Y-1531837D01*
X-586328D01*
Y-1532873D01*
X-585291D01*
Y-1534945D01*
X-584255D01*
Y-1537017D01*
X-583219D01*
Y-1538053D01*
X-582183D01*
Y-1539090D01*
X-581147D01*
Y-1540126D01*
X-580111D01*
Y-1541162D01*
X-579075D01*
Y-1542198D01*
X-578039D01*
Y-1543234D01*
X-577003D01*
Y-1547378D01*
X-575967D01*
Y-1548414D01*
X-574931D01*
Y-1549450D01*
X-573895D01*
Y-1550486D01*
X-572859D01*
Y-1551522D01*
X-571823D01*
Y-1552558D01*
X-570787D01*
Y-1553594D01*
X-569750D01*
Y-1554631D01*
X-568714D01*
Y-1555667D01*
X-567678D01*
Y-1556702D01*
X-566642D01*
Y-1557739D01*
X-565606D01*
Y-1558775D01*
X-564570D01*
Y-1559811D01*
X-563534D01*
Y-1560847D01*
X-562498D01*
Y-1561883D01*
X-561462D01*
Y-1562919D01*
X-560426D01*
Y-1563955D01*
X-559390D01*
Y-1564991D01*
X-558354D01*
Y-1566027D01*
X-557318D01*
Y-1567063D01*
X-556282D01*
Y-1568099D01*
X-555246D01*
Y-1569135D01*
X-554209D01*
Y-1570171D01*
X-553173D01*
Y-1571208D01*
X-552138D01*
Y-1572243D01*
X-551101D01*
Y-1573280D01*
X-550065D01*
Y-1574316D01*
X-549029D01*
Y-1575352D01*
X-547993D01*
Y-1576388D01*
X-546957D01*
Y-1577424D01*
X-545921D01*
Y-1578460D01*
X-544885D01*
Y-1579496D01*
X-543849D01*
Y-1580532D01*
X-542813D01*
Y-1581568D01*
X-541777D01*
Y-1582604D01*
X-540741D01*
Y-1583640D01*
X-539705D01*
Y-1584676D01*
X-538669D01*
Y-1585712D01*
X-537632D01*
Y-1586749D01*
X-536597D01*
Y-1587784D01*
X-533488D01*
Y-1588820D01*
X-532452D01*
Y-1589857D01*
X-530380D01*
Y-1590892D01*
X-529344D01*
Y-1591929D01*
X-528308D01*
Y-1592965D01*
X-527272D01*
Y-1594001D01*
X-526236D01*
Y-1595037D01*
X-525200D01*
Y-1596073D01*
X-524164D01*
Y-1597109D01*
X-523128D01*
Y-1598145D01*
X-522091D01*
Y-1599181D01*
X-521056D01*
Y-1600217D01*
X-520020D01*
Y-1601253D01*
X-518983D01*
Y-1602289D01*
X-517948D01*
Y-1603325D01*
X-516911D01*
Y-1604361D01*
X-515876D01*
Y-1605398D01*
X-514839D01*
Y-1606433D01*
X-513803D01*
Y-1607470D01*
X-512767D01*
Y-1608506D01*
X-511731D01*
Y-1609542D01*
X-509659D01*
Y-1610578D01*
X-508623D01*
Y-1611614D01*
X-506551D01*
Y-1612650D01*
X-505515D01*
Y-1613686D01*
X-504479D01*
Y-1614722D01*
X-503442D01*
Y-1615758D01*
X-502407D01*
Y-1616794D01*
X-501370D01*
Y-1617830D01*
X-500335D01*
Y-1618866D01*
X-499298D01*
Y-1619902D01*
X-498262D01*
Y-1620939D01*
X-497226D01*
Y-1621974D01*
X-495154D01*
Y-1624047D01*
X-493082D01*
Y-1625082D01*
X-492046D01*
Y-1626119D01*
X-489974D01*
Y-1627155D01*
X-487902D01*
Y-1629227D01*
X-486866D01*
Y-1630263D01*
X-484794D01*
Y-1631299D01*
X-483757D01*
Y-1632335D01*
X-482721D01*
Y-1633371D01*
X-481685D01*
Y-1634407D01*
X-480649D01*
Y-1635443D01*
X-479613D01*
Y-1636479D01*
X-476505D01*
Y-1637515D01*
X-475469D01*
Y-1638551D01*
X-474433D01*
Y-1639588D01*
X-473397D01*
Y-1640623D01*
X-472361D01*
Y-1641660D01*
X-470289D01*
Y-1643732D01*
X-469253D01*
Y-1644768D01*
X-465109D01*
Y-1645804D01*
X-464072D01*
Y-1646840D01*
X-463036D01*
Y-1647876D01*
X-462000D01*
Y-1648912D01*
X-460964D01*
Y-1649948D01*
X-459928D01*
Y-1650984D01*
X-458892D01*
Y-1652020D01*
X-457856D01*
Y-1653056D01*
X-455784D01*
Y-1654092D01*
X-453712D01*
Y-1655128D01*
X-452675D01*
Y-1656164D01*
X-451640D01*
Y-1657200D01*
X-450603D01*
Y-1658237D01*
X-448531D01*
Y-1659273D01*
X-447495D01*
Y-1661345D01*
X-445423D01*
Y-1662381D01*
X-444387D01*
Y-1663417D01*
X-441279D01*
Y-1664453D01*
X-440243D01*
Y-1665489D01*
X-439207D01*
Y-1666525D01*
X-438171D01*
Y-1667561D01*
X-436099D01*
Y-1669633D01*
X-435062D01*
Y-1670669D01*
X-432991D01*
Y-1671705D01*
X-429882D01*
Y-1672741D01*
X-428846D01*
Y-1673778D01*
X-427810D01*
Y-1674814D01*
X-426774D01*
Y-1675850D01*
X-425738D01*
Y-1676886D01*
X-424702D01*
Y-1678958D01*
X-420558D01*
Y-1679994D01*
X-418486D01*
Y-1682066D01*
X-416413D01*
Y-1684138D01*
X-415378D01*
Y-1685174D01*
X-414341D01*
Y-1687246D01*
X-415378D01*
Y-1686210D01*
X-416413D01*
Y-1685174D01*
X-418486D01*
Y-1684138D01*
X-420558D01*
Y-1683102D01*
X-422630D01*
Y-1682066D01*
X-423666D01*
Y-1679994D01*
X-424702D01*
Y-1678958D01*
X-428846D01*
Y-1677921D01*
X-429882D01*
Y-1676886D01*
X-430919D01*
Y-1675850D01*
X-432991D01*
Y-1674814D01*
X-434027D01*
Y-1673778D01*
X-435062D01*
Y-1672741D01*
X-437135D01*
Y-1671705D01*
X-439207D01*
Y-1670669D01*
X-440243D01*
Y-1669633D01*
X-441279D01*
Y-1668597D01*
X-442315D01*
Y-1667561D01*
X-444387D01*
Y-1666525D01*
X-446459D01*
Y-1665489D01*
X-448531D01*
Y-1663417D01*
X-449568D01*
Y-1662381D01*
X-451640D01*
Y-1661345D01*
X-453712D01*
Y-1660309D01*
X-455784D01*
Y-1659273D01*
X-456820D01*
Y-1658237D01*
X-457856D01*
Y-1657200D01*
X-458892D01*
Y-1656164D01*
X-459928D01*
Y-1655128D01*
X-463036D01*
Y-1654092D01*
X-464072D01*
Y-1653056D01*
X-465109D01*
Y-1652020D01*
X-467180D01*
Y-1650984D01*
X-468216D01*
Y-1649948D01*
X-470289D01*
Y-1648912D01*
X-472361D01*
Y-1647876D01*
X-473397D01*
Y-1646840D01*
X-474433D01*
Y-1645804D01*
X-475469D01*
Y-1644768D01*
X-478577D01*
Y-1643732D01*
X-479613D01*
Y-1642696D01*
X-480649D01*
Y-1641660D01*
X-481685D01*
Y-1640623D01*
X-482721D01*
Y-1639588D01*
X-486866D01*
Y-1638551D01*
X-487902D01*
Y-1637515D01*
X-488938D01*
Y-1636479D01*
X-489974D01*
Y-1635443D01*
X-491010D01*
Y-1634407D01*
X-492046D01*
Y-1633371D01*
X-494118D01*
Y-1632335D01*
X-496190D01*
Y-1631299D01*
X-497226D01*
Y-1630263D01*
X-498262D01*
Y-1629227D01*
X-500335D01*
Y-1627155D01*
X-501370D01*
Y-1626119D01*
X-502407D01*
Y-1625082D01*
X-505515D01*
Y-1624047D01*
X-507587D01*
Y-1623010D01*
X-508623D01*
Y-1621974D01*
X-509659D01*
Y-1620939D01*
X-510695D01*
Y-1619902D01*
X-511731D01*
Y-1618866D01*
X-512767D01*
Y-1617830D01*
X-513803D01*
Y-1616794D01*
X-517948D01*
Y-1614722D01*
X-520020D01*
Y-1613686D01*
X-521056D01*
Y-1612650D01*
X-522091D01*
Y-1611614D01*
X-523128D01*
Y-1609542D01*
X-525200D01*
Y-1608506D01*
X-527272D01*
Y-1607470D01*
X-529344D01*
Y-1606433D01*
X-530380D01*
Y-1605398D01*
X-531417D01*
Y-1604361D01*
X-532452D01*
Y-1603325D01*
X-533488D01*
Y-1602289D01*
X-534524D01*
Y-1601253D01*
X-535560D01*
Y-1600217D01*
X-536597D01*
Y-1599181D01*
X-537632D01*
Y-1598145D01*
X-538669D01*
Y-1597109D01*
X-539705D01*
Y-1596073D01*
X-541777D01*
Y-1595037D01*
X-542813D01*
Y-1594001D01*
X-545921D01*
Y-1592965D01*
X-546957D01*
Y-1591929D01*
X-547993D01*
Y-1590892D01*
X-549029D01*
Y-1589857D01*
X-550065D01*
Y-1587784D01*
X-552138D01*
Y-1585712D01*
X-553173D01*
Y-1584676D01*
X-555246D01*
Y-1583640D01*
X-556282D01*
Y-1582604D01*
X-557318D01*
Y-1580532D01*
X-558354D01*
Y-1579496D01*
X-561462D01*
Y-1578460D01*
X-562498D01*
Y-1577424D01*
X-564570D01*
Y-1576388D01*
X-565606D01*
Y-1575352D01*
X-566642D01*
Y-1574316D01*
X-567678D01*
Y-1573280D01*
X-568714D01*
Y-1572243D01*
X-569750D01*
Y-1571208D01*
X-570787D01*
Y-1570171D01*
X-571823D01*
Y-1569135D01*
X-572859D01*
Y-1568099D01*
X-573895D01*
Y-1567063D01*
X-574931D01*
Y-1566027D01*
X-575967D01*
Y-1564991D01*
X-577003D01*
Y-1563955D01*
X-578039D01*
Y-1562919D01*
X-579075D01*
Y-1560847D01*
X-580111D01*
Y-1559811D01*
X-581147D01*
Y-1558775D01*
X-582183D01*
Y-1557739D01*
X-583219D01*
Y-1555667D01*
X-584255D01*
Y-1554631D01*
X-585291D01*
Y-1552558D01*
X-587364D01*
Y-1550486D01*
X-588399D01*
Y-1549450D01*
X-590472D01*
Y-1548414D01*
X-591508D01*
Y-1547378D01*
X-592544D01*
Y-1545306D01*
X-593580D01*
Y-1543234D01*
X-594616D01*
Y-1541162D01*
X-595652D01*
Y-1540126D01*
X-596688D01*
Y-1539090D01*
X-597724D01*
Y-1538053D01*
X-598760D01*
Y-1537017D01*
X-599796D01*
Y-1533909D01*
X-600832D01*
Y-1531837D01*
X-601868D01*
Y-1530801D01*
X-602905D01*
Y-1529765D01*
X-603940D01*
Y-1527693D01*
X-604977D01*
Y-1525621D01*
X-606013D01*
Y-1524585D01*
X-607049D01*
Y-1521477D01*
X-608085D01*
Y-1517332D01*
X-609120D01*
Y-1515260D01*
X-611193D01*
Y-1496611D01*
X-612229D01*
Y-1494539D01*
X-611193D01*
Y-1493503D01*
X-610157D01*
Y-1491431D01*
X-609120D01*
Y-1489359D01*
X-608085D01*
Y-1487287D01*
X-607049D01*
Y-1486251D01*
X-606013D01*
Y-1485214D01*
X-604977D01*
Y-1482106D01*
X-602905D01*
Y-1480034D01*
X-601868D01*
Y-1478998D01*
X-599796D01*
Y-1477962D01*
X-597724D01*
Y-1476926D01*
X-596688D01*
Y-1475890D01*
X-594616D01*
Y-1474854D01*
X-592544D01*
Y-1473818D01*
X-591508D01*
Y-1472782D01*
X-587364D01*
Y-1471746D01*
X-586328D01*
Y-1470710D01*
X-582183D01*
Y-1469673D01*
X-580111D01*
Y-1468638D01*
X-578039D01*
Y-1467602D01*
X-565606D01*
Y-1466565D01*
X-563534D01*
Y-1465529D01*
X-501370D01*
Y-1466565D01*
X-499298D01*
Y-1467602D01*
X-477541D01*
Y-1468638D01*
X-475469D01*
Y-1469673D01*
X-474433D01*
Y-1470710D01*
X-459928D01*
Y-1471746D01*
X-458892D01*
Y-1472782D01*
X-444387D01*
Y-1473818D01*
X-443351D01*
Y-1474854D01*
X-442315D01*
Y-1475890D01*
X-427810D01*
Y-1476926D01*
X-426774D01*
Y-1477962D01*
X-424702D01*
Y-1478998D01*
X-421594D01*
Y-1477962D01*
X-415378D01*
Y-1478998D01*
X-414341D01*
Y-1480034D01*
X-412269D01*
Y-1481070D01*
X-401909D01*
Y-1482106D01*
X-400872D01*
Y-1483142D01*
X-396728D01*
Y-1484179D01*
X-388440D01*
Y-1485214D01*
X-386368D01*
Y-1486251D01*
X-383260D01*
Y-1487287D01*
X-377043D01*
Y-1486251D01*
X-376007D01*
Y-1487287D01*
X-373935D01*
Y-1488323D01*
X-371863D01*
Y-1489359D01*
X-369791D01*
Y-1490395D01*
X-368755D01*
Y-1489359D01*
X-363574D01*
Y-1490395D01*
X-362539D01*
Y-1491431D01*
X-360466D01*
Y-1492467D01*
X-350105D01*
Y-1493503D01*
X-349070D01*
Y-1494539D01*
X-346998D01*
Y-1495575D01*
X-345961D01*
Y-1494539D01*
X-338709D01*
Y-1495575D01*
X-337673D01*
Y-1494539D01*
X-336637D01*
Y-1493503D01*
X-335601D01*
Y-1488323D01*
X-336637D01*
Y-1486251D01*
X-337673D01*
Y-1485214D01*
X-338709D01*
Y-1467602D01*
X-339745D01*
Y-1465529D01*
X-340781D01*
Y-1464493D01*
X-341817D01*
Y-1418906D01*
X-340781D01*
Y-1416834D01*
X-339745D01*
Y-1414762D01*
X-338709D01*
Y-1404402D01*
X-337673D01*
Y-1403365D01*
X-336637D01*
Y-1401294D01*
X-335601D01*
Y-1398185D01*
X-336637D01*
Y-1396113D01*
X-335601D01*
Y-1394041D01*
X-334565D01*
Y-1393005D01*
X-333529D01*
Y-1388861D01*
X-332493D01*
Y-1386789D01*
X-331457D01*
Y-1384717D01*
X-330421D01*
Y-1381609D01*
X-329384D01*
Y-1379536D01*
X-328349D01*
Y-1378500D01*
X-327312D01*
Y-1376428D01*
X-326276D01*
Y-1374356D01*
X-325240D01*
Y-1373320D01*
X-324204D01*
Y-1371248D01*
X-323168D01*
Y-1370212D01*
X-322132D01*
Y-1366068D01*
X-321096D01*
Y-1365032D01*
X-320060D01*
Y-1363995D01*
X-319024D01*
Y-1362959D01*
X-316952D01*
Y-1359851D01*
X-315916D01*
Y-1358815D01*
X-314880D01*
Y-1356743D01*
X-313843D01*
Y-1355707D01*
X-312808D01*
Y-1354671D01*
X-311772D01*
Y-1353635D01*
X-310735D01*
Y-1352599D01*
X-309699D01*
Y-1351563D01*
X-308663D01*
Y-1350527D01*
X-307627D01*
Y-1349491D01*
X-306591D01*
Y-1348454D01*
X-305555D01*
Y-1347418D01*
X-304519D01*
Y-1346383D01*
X-303483D01*
Y-1345346D01*
X-302447D01*
Y-1344310D01*
X-300375D01*
Y-1343274D01*
X-299339D01*
Y-1341202D01*
X-297267D01*
Y-1340166D01*
X-295194D01*
Y-1339130D01*
X-294158D01*
Y-1338094D01*
X-292086D01*
Y-1336022D01*
X-291050D01*
Y-1334986D01*
X-290014D01*
Y-1333950D01*
X-284834D01*
Y-1332914D01*
X-283798D01*
Y-1330842D01*
X-282762D01*
Y-1329805D01*
X-280690D01*
Y-1328770D01*
X-277582D01*
Y-1327733D01*
X-276545D01*
Y-1326697D01*
X-273437D01*
Y-1325661D01*
X-271365D01*
Y-1324625D01*
X-269293D01*
Y-1323589D01*
X-265149D01*
Y-1322553D01*
X-264113D01*
Y-1321517D01*
X-262041D01*
Y-1320481D01*
X-256861D01*
Y-1319445D01*
X-255824D01*
Y-1318409D01*
X-248572D01*
Y-1317373D01*
X-246500D01*
Y-1316336D01*
X-244428D01*
Y-1315301D01*
X-233031D01*
Y-1314265D01*
X-231995D01*
Y-1313229D01*
X-229923D01*
Y-1312193D01*
X-227851D01*
Y-1313229D01*
X-196769D01*
Y-1312193D01*
X-193661D01*
Y-1313229D01*
D02*
G37*
G36*
X-288978Y-1659273D02*
X-287942D01*
Y-1661345D01*
Y-1662381D01*
Y-1664453D01*
X-290014D01*
Y-1663417D01*
X-291050D01*
Y-1659273D01*
X-290014D01*
Y-1658237D01*
X-288978D01*
Y-1659273D01*
D02*
G37*
G36*
X-132533Y-1661345D02*
Y-1665489D01*
X-134605D01*
Y-1664453D01*
X-135641D01*
Y-1660309D01*
X-132533D01*
Y-1661345D01*
D02*
G37*
G36*
X-135641Y-1670669D02*
X-137713D01*
Y-1669633D01*
X-136677D01*
Y-1668597D01*
X-135641D01*
Y-1670669D01*
D02*
G37*
G36*
X-285870D02*
X-286906D01*
Y-1669633D01*
X-285870D01*
Y-1670669D01*
D02*
G37*
G36*
X-408125Y-1689318D02*
X-407089D01*
Y-1690355D01*
X-406053D01*
Y-1691390D01*
X-409161D01*
Y-1690355D01*
X-410197D01*
Y-1688282D01*
X-408125D01*
Y-1689318D01*
D02*
G37*
%LPC*%
G36*
X-196769Y-1336022D02*
X-197805D01*
Y-1337058D01*
X-217490D01*
Y-1336022D01*
X-219562D01*
Y-1337058D01*
X-223706D01*
Y-1338094D01*
X-225779D01*
Y-1339130D01*
X-239247D01*
Y-1340166D01*
X-240283D01*
Y-1341202D01*
X-242355D01*
Y-1342238D01*
X-246500D01*
Y-1341202D01*
X-247535D01*
Y-1342238D01*
X-249608D01*
Y-1343274D01*
X-250644D01*
Y-1344310D01*
X-255824D01*
Y-1345346D01*
X-257896D01*
Y-1346383D01*
X-259968D01*
Y-1347418D01*
X-263076D01*
Y-1348454D01*
X-264113D01*
Y-1349491D01*
X-268257D01*
Y-1350527D01*
X-269293D01*
Y-1351563D01*
X-270329D01*
Y-1352599D01*
X-273437D01*
Y-1353635D01*
X-274473D01*
Y-1354671D01*
X-275509D01*
Y-1355707D01*
X-276545D01*
Y-1356743D01*
X-277582D01*
Y-1357779D01*
X-279654D01*
Y-1358815D01*
X-281726D01*
Y-1359851D01*
X-282762D01*
Y-1360887D01*
X-284834D01*
Y-1361923D01*
X-285870D01*
Y-1362959D01*
X-286906D01*
Y-1363995D01*
X-287942D01*
Y-1365032D01*
X-288978D01*
Y-1366068D01*
X-290014D01*
Y-1367104D01*
X-291050D01*
Y-1368140D01*
X-292086D01*
Y-1369176D01*
X-293122D01*
Y-1370212D01*
X-294158D01*
Y-1371248D01*
X-295194D01*
Y-1372284D01*
X-296231D01*
Y-1373320D01*
X-297267D01*
Y-1374356D01*
X-298303D01*
Y-1376428D01*
X-299339D01*
Y-1378500D01*
X-300375D01*
Y-1380572D01*
X-301411D01*
Y-1381609D01*
X-303483D01*
Y-1383681D01*
X-304519D01*
Y-1385753D01*
X-305555D01*
Y-1387825D01*
X-306591D01*
Y-1389897D01*
X-307627D01*
Y-1390933D01*
X-308663D01*
Y-1391969D01*
Y-1393005D01*
X-309699D01*
Y-1396113D01*
X-310735D01*
Y-1397150D01*
X-311772D01*
Y-1402330D01*
X-312808D01*
Y-1403365D01*
X-313843D01*
Y-1404402D01*
X-314880D01*
Y-1410618D01*
X-315916D01*
Y-1412691D01*
X-316952D01*
Y-1422015D01*
X-317988D01*
Y-1425123D01*
X-319024D01*
Y-1428231D01*
X-320060D01*
Y-1467602D01*
X-319024D01*
Y-1469673D01*
X-317988D01*
Y-1475890D01*
X-316952D01*
Y-1495575D01*
X-315916D01*
Y-1497648D01*
X-314880D01*
Y-1498683D01*
X-313843D01*
Y-1499720D01*
X-309699D01*
Y-1500755D01*
X-306591D01*
Y-1501791D01*
X-304519D01*
Y-1502828D01*
X-295194D01*
Y-1503863D01*
X-294158D01*
Y-1504900D01*
X-286906D01*
Y-1505936D01*
X-284834D01*
Y-1506972D01*
X-282762D01*
Y-1508008D01*
X-275509D01*
Y-1509044D01*
X-274473D01*
Y-1510080D01*
X-267221D01*
Y-1511116D01*
X-265149D01*
Y-1512152D01*
X-263076D01*
Y-1513188D01*
X-256861D01*
Y-1514224D01*
X-254788D01*
Y-1515260D01*
X-247535D01*
Y-1516296D01*
X-246500D01*
Y-1517332D01*
X-244428D01*
Y-1518369D01*
X-237175D01*
Y-1519404D01*
X-235103D01*
Y-1520441D01*
X-233031D01*
Y-1521477D01*
X-225779D01*
Y-1522513D01*
X-223706D01*
Y-1523549D01*
X-220598D01*
Y-1524585D01*
X-216454D01*
Y-1525621D01*
X-214382D01*
Y-1526657D01*
X-207129D01*
Y-1527693D01*
X-205057D01*
Y-1528729D01*
X-202985D01*
Y-1529765D01*
X-197805D01*
Y-1530801D01*
X-196769D01*
Y-1531837D01*
X-189516D01*
Y-1532873D01*
X-187444D01*
Y-1533909D01*
X-186408D01*
Y-1534945D01*
X-179156D01*
Y-1535981D01*
X-178120D01*
Y-1537017D01*
X-171903D01*
Y-1538053D01*
X-169832D01*
Y-1539090D01*
X-167759D01*
Y-1540126D01*
X-160506D01*
Y-1541162D01*
X-159471D01*
Y-1542198D01*
X-153254D01*
Y-1543234D01*
X-151182D01*
Y-1544270D01*
X-150146D01*
Y-1545306D01*
X-142894D01*
Y-1546342D01*
X-141857D01*
Y-1547378D01*
X-135641D01*
Y-1548414D01*
X-133569D01*
Y-1549450D01*
X-132533D01*
Y-1550486D01*
X-125281D01*
Y-1551522D01*
X-124245D01*
Y-1552558D01*
X-121136D01*
Y-1553594D01*
X-116992D01*
Y-1554631D01*
X-114920D01*
Y-1555667D01*
X-110776D01*
Y-1549450D01*
X-109740D01*
Y-1547378D01*
X-108704D01*
Y-1532873D01*
X-107668D01*
Y-1530801D01*
X-106632D01*
Y-1528729D01*
X-105595D01*
Y-1514224D01*
X-104559D01*
Y-1512152D01*
X-103524D01*
Y-1498683D01*
X-102487D01*
Y-1495575D01*
X-101451D01*
Y-1493503D01*
X-100415D01*
Y-1469673D01*
X-99379D01*
Y-1467602D01*
X-98343D01*
Y-1428231D01*
X-99379D01*
Y-1426159D01*
X-100415D01*
Y-1413726D01*
X-101451D01*
Y-1412691D01*
X-102487D01*
Y-1410618D01*
X-103524D01*
Y-1404402D01*
X-104559D01*
Y-1403365D01*
X-105595D01*
Y-1398185D01*
X-106632D01*
Y-1397150D01*
X-107668D01*
Y-1395077D01*
X-108704D01*
Y-1391969D01*
X-109740D01*
Y-1390933D01*
X-110776D01*
Y-1388861D01*
X-111812D01*
Y-1387825D01*
X-112848D01*
Y-1385753D01*
X-113884D01*
Y-1383681D01*
X-114920D01*
Y-1381609D01*
X-115956D01*
Y-1380572D01*
X-116992D01*
Y-1379536D01*
X-118028D01*
Y-1377464D01*
X-119064D01*
Y-1376428D01*
X-120100D01*
Y-1374356D01*
X-121136D01*
Y-1373320D01*
X-122173D01*
Y-1372284D01*
X-123209D01*
Y-1371248D01*
X-124245D01*
Y-1370212D01*
X-125281D01*
Y-1369176D01*
X-126317D01*
Y-1368140D01*
X-127353D01*
Y-1367104D01*
X-128389D01*
Y-1366068D01*
X-129425D01*
Y-1365032D01*
X-130461D01*
Y-1363995D01*
X-131497D01*
Y-1362959D01*
X-132533D01*
Y-1361923D01*
X-133569D01*
Y-1360887D01*
X-134605D01*
Y-1359851D01*
X-135641D01*
Y-1358815D01*
X-138750D01*
Y-1357779D01*
X-139785D01*
Y-1356743D01*
X-140822D01*
Y-1355707D01*
X-141857D01*
Y-1354671D01*
X-142894D01*
Y-1353635D01*
X-144966D01*
Y-1352599D01*
X-147038D01*
Y-1351563D01*
X-149110D01*
Y-1350527D01*
X-150146D01*
Y-1349491D01*
X-154291D01*
Y-1348454D01*
X-155326D01*
Y-1347418D01*
X-159471D01*
Y-1346383D01*
X-160506D01*
Y-1345346D01*
X-161543D01*
Y-1344310D01*
X-166723D01*
Y-1343274D01*
X-167759D01*
Y-1342238D01*
X-169832D01*
Y-1341202D01*
X-171903D01*
Y-1342238D01*
X-176047D01*
Y-1341202D01*
X-177084D01*
Y-1340166D01*
X-178120D01*
Y-1339130D01*
X-192624D01*
Y-1338094D01*
X-194697D01*
Y-1337058D01*
X-196769D01*
Y-1336022D01*
D02*
G37*
%LPD*%
G36*
X-209202Y-1382644D02*
X-201949D01*
Y-1383681D01*
X-198841D01*
Y-1384717D01*
X-194697D01*
Y-1383681D01*
X-192624D01*
Y-1384717D01*
X-191588D01*
Y-1385753D01*
X-189516D01*
Y-1386789D01*
X-186408D01*
Y-1387825D01*
X-184336D01*
Y-1388861D01*
X-182264D01*
Y-1389897D01*
X-181228D01*
Y-1390933D01*
X-178120D01*
Y-1391969D01*
X-177084D01*
Y-1393005D01*
X-176047D01*
Y-1394041D01*
X-175012D01*
Y-1395077D01*
X-173975D01*
Y-1396113D01*
X-170867D01*
Y-1397150D01*
X-169832D01*
Y-1398185D01*
X-167759D01*
Y-1399222D01*
X-166723D01*
Y-1401294D01*
X-164651D01*
Y-1404402D01*
X-163615D01*
Y-1405438D01*
X-162579D01*
Y-1406474D01*
X-161543D01*
Y-1407510D01*
X-160506D01*
Y-1408546D01*
X-159471D01*
Y-1411654D01*
X-158435D01*
Y-1412691D01*
X-157398D01*
Y-1416834D01*
X-156363D01*
Y-1417871D01*
X-155326D01*
Y-1418906D01*
X-154291D01*
Y-1424087D01*
X-153254D01*
Y-1426159D01*
X-152218D01*
Y-1429267D01*
X-151182D01*
Y-1445844D01*
X-152218D01*
Y-1446880D01*
X-151182D01*
Y-1452061D01*
X-152218D01*
Y-1455169D01*
X-153254D01*
Y-1457241D01*
X-154291D01*
Y-1462421D01*
X-155326D01*
Y-1464493D01*
X-156363D01*
Y-1465529D01*
X-157398D01*
Y-1468638D01*
X-158435D01*
Y-1469673D01*
X-159471D01*
Y-1472782D01*
X-160506D01*
Y-1473818D01*
X-161543D01*
Y-1474854D01*
X-162579D01*
Y-1475890D01*
X-163615D01*
Y-1477962D01*
X-164651D01*
Y-1480034D01*
X-165687D01*
Y-1481070D01*
X-166723D01*
Y-1482106D01*
X-167759D01*
Y-1483142D01*
X-169832D01*
Y-1484179D01*
X-170867D01*
Y-1485214D01*
X-171903D01*
Y-1486251D01*
X-173975D01*
Y-1487287D01*
X-175012D01*
Y-1488323D01*
X-176047D01*
Y-1489359D01*
X-177084D01*
Y-1490395D01*
X-179156D01*
Y-1491431D01*
X-180192D01*
Y-1492467D01*
X-183300D01*
Y-1493503D01*
X-184336D01*
Y-1494539D01*
X-185372D01*
Y-1495575D01*
X-190553D01*
Y-1496611D01*
X-191588D01*
Y-1497648D01*
X-202985D01*
Y-1498683D01*
X-205057D01*
Y-1499720D01*
X-213346D01*
Y-1498683D01*
X-216454D01*
Y-1497648D01*
X-226814D01*
Y-1496611D01*
X-227851D01*
Y-1495575D01*
X-231995D01*
Y-1494539D01*
X-234067D01*
Y-1493503D01*
X-235103D01*
Y-1492467D01*
X-238211D01*
Y-1491431D01*
X-240283D01*
Y-1490395D01*
X-241320D01*
Y-1489359D01*
X-242355D01*
Y-1488323D01*
X-243392D01*
Y-1487287D01*
X-244428D01*
Y-1486251D01*
X-246500D01*
Y-1485214D01*
X-247535D01*
Y-1484179D01*
X-248572D01*
Y-1483142D01*
X-250644D01*
Y-1482106D01*
X-251680D01*
Y-1480034D01*
X-252716D01*
Y-1478998D01*
X-253752D01*
Y-1477962D01*
X-254788D01*
Y-1475890D01*
X-255824D01*
Y-1474854D01*
X-256861D01*
Y-1473818D01*
X-257896D01*
Y-1472782D01*
X-258932D01*
Y-1470710D01*
X-259968D01*
Y-1468638D01*
X-261004D01*
Y-1466565D01*
X-262041D01*
Y-1463457D01*
X-263076D01*
Y-1462421D01*
X-264113D01*
Y-1457241D01*
X-265149D01*
Y-1455169D01*
X-266185D01*
Y-1453097D01*
X-267221D01*
Y-1428231D01*
X-266185D01*
Y-1427195D01*
X-265149D01*
Y-1424087D01*
X-264113D01*
Y-1418906D01*
X-263076D01*
Y-1417871D01*
X-262041D01*
Y-1414762D01*
X-261004D01*
Y-1413726D01*
X-259968D01*
Y-1411654D01*
X-258932D01*
Y-1409582D01*
X-257896D01*
Y-1408546D01*
X-256861D01*
Y-1407510D01*
X-255824D01*
Y-1405438D01*
X-254788D01*
Y-1404402D01*
X-253752D01*
Y-1403365D01*
X-252716D01*
Y-1401294D01*
X-251680D01*
Y-1400258D01*
X-250644D01*
Y-1399222D01*
X-249608D01*
Y-1398185D01*
X-247535D01*
Y-1397150D01*
X-246500D01*
Y-1396113D01*
X-245464D01*
Y-1395077D01*
X-243392D01*
Y-1394041D01*
X-242355D01*
Y-1393005D01*
X-240283D01*
Y-1391969D01*
X-239247D01*
Y-1390933D01*
X-238211D01*
Y-1389897D01*
X-235103D01*
Y-1388861D01*
X-234067D01*
Y-1387825D01*
X-230959D01*
Y-1386789D01*
X-228887D01*
Y-1385753D01*
X-226814D01*
Y-1384717D01*
X-222670D01*
Y-1383681D01*
X-219562D01*
Y-1384717D01*
X-218526D01*
Y-1383681D01*
X-216454D01*
Y-1382644D01*
X-211274D01*
Y-1381609D01*
X-209202D01*
Y-1382644D01*
D02*
G37*
D44*
X-874062Y-1602315D02*
G03*
X-874062Y-1602315I-8035J0D01*
G01*
Y-2052315D02*
G03*
X-874062Y-2052315I-8035J0D01*
G01*
X-197378Y-503294D02*
G03*
X-197378Y-503294I-10000J0D01*
G01*
X352509Y-960000D02*
X380000Y-960000D01*
X320001Y-960000D02*
X352509D01*
X320000Y-1040000D02*
X320001Y-960000D01*
X320000Y-1040000D02*
X379999Y-1040000D01*
X352509Y-810000D02*
X380000Y-810000D01*
X320001Y-810000D02*
X352509D01*
X320000Y-890000D02*
X320001Y-810000D01*
X320000Y-890000D02*
X379999Y-890000D01*
X855000Y-880000D02*
X855000Y-780000D01*
X545000Y-779999D02*
X545000Y-880000D01*
X545000Y-779999D02*
X855000Y-780000D01*
X545000Y-880000D02*
X855000D01*
X425000Y-1870000D02*
X711360Y-1870000D01*
X425000Y-1870000D02*
Y-1230000D01*
X711360Y-1230000D01*
Y-1870000D02*
Y-1230000D01*
X650000Y-490500D02*
Y-109500D01*
X560000Y-490500D02*
X650000D01*
X560000Y-109501D02*
X650000Y-109500D01*
X560000Y-490500D02*
X560000Y-109501D01*
X165000Y-585000D02*
Y-535000D01*
X115000D02*
X165000D01*
X115000Y-865000D02*
X165000D01*
X165000Y-815000D01*
X-165000D02*
X-164999Y-865000D01*
X-115000D01*
X-164999Y-535000D02*
X-115000Y-535000D01*
X-165000Y-585000D02*
X-164999Y-535000D01*
X-840000Y-185000D02*
X-760000D01*
X-640000D02*
X-560000D01*
D45*
X417895Y-1068230D02*
G03*
X417895Y-1068230I-1741J0D01*
G01*
Y-918230D02*
G03*
X417895Y-918230I-1741J0D01*
G01*
D46*
X892501Y-692500D02*
G03*
X892501Y-692500I-12500J0D01*
G01*
X812048Y-519017D02*
G03*
X812048Y-519017I-12048J0D01*
G01*
D47*
X-404699Y-969061D02*
G03*
X-404699Y-969061I-6488J0D01*
G01*
X-827739Y-1050000D02*
G03*
X-827739Y-1050000I-7261J0D01*
G01*
X-820612Y-975000D02*
G03*
X-820612Y-975000I-9388J0D01*
G01*
D48*
X-520001Y-2750001D02*
X-520000Y-2210000D01*
X299999Y-3440000D02*
X299999Y-3140000D01*
X-300000Y-3440000D02*
X299999Y-3440000D01*
X-300001Y-3140000D02*
X-300000Y-3440000D01*
X-519999Y-1940001D02*
X559999Y-1940000D01*
X559999Y-2515000D01*
X559999Y-3140001D02*
X560000Y-2804999D01*
X299999Y-3140000D02*
X559999Y-3140001D01*
X-300001Y-3140000D02*
X299999Y-3140000D01*
X-520000D02*
X-300001Y-3140000D01*
X-520000Y-3140000D02*
X-520000Y-3040000D01*
D49*
X-850000Y-1537500D02*
Y-1462500D01*
Y-1537500D02*
X-650000D01*
Y-1462500D01*
X-850000D02*
X-650000D01*
X-850000Y-1987500D02*
Y-1912500D01*
Y-1987500D02*
X-650000D01*
Y-1912500D01*
X-850000D02*
X-650000D01*
X-705000Y-1180000D02*
X-705000Y-1080001D01*
X-805000Y-1080000D02*
X-705000Y-1080001D01*
X-805000Y-1180000D02*
X-805000Y-1080000D01*
X-805000Y-1180000D02*
X-705000Y-1180000D01*
D50*
X-507760Y-942640D02*
X-507760Y-862462D01*
X-538103Y-607360D02*
X-507760Y-607360D01*
X-792240Y-687538D02*
Y-607360D01*
Y-942640D02*
X-761897D01*
X-538103Y-942640D02*
X-507760Y-942640D01*
Y-607360D02*
X-507760Y-687538D01*
X-792240Y-607360D02*
X-761897D01*
X-792240Y-942640D02*
Y-862462D01*
D51*
X369992Y-1000000D02*
D03*
X370002Y-850000D02*
D03*
%TF.MD5,216142c24b41d9ab75710008965e3e76*%
M02*
