%TF.GenerationSoftware,Altium Limited,Altium Designer,22.5.1 (42)*%
G04 Layer_Color=32896*
%FSLAX45Y45*%
%MOMM*%
%TF.SameCoordinates,A79CAE12-DCBF-455A-9705-E792248E02F7*%
%TF.FilePolarity,Positive*%
%TF.FileFunction,Legend,Bot*%
%TF.Part,Single*%
G01*
G75*
G36*
X-856495Y-1238746D02*
X-853474D01*
Y-1237236D01*
X-851964D01*
Y-1238746D01*
X-848942D01*
Y-1240257D01*
X-841390D01*
Y-1241767D01*
X-838368D01*
Y-1243278D01*
X-835347D01*
Y-1244788D01*
X-833837D01*
Y-1246299D01*
X-830816D01*
Y-1247810D01*
X-829305D01*
Y-1249320D01*
X-826284D01*
Y-1250831D01*
X-824773D01*
Y-1252341D01*
X-823263D01*
Y-1253852D01*
X-821752D01*
Y-1255362D01*
X-820242D01*
Y-1256873D01*
X-818731D01*
Y-1261405D01*
X-817220D01*
Y-1262915D01*
X-815710D01*
Y-1265937D01*
X-814199D01*
Y-1267447D01*
X-812689D01*
Y-1271979D01*
X-811178D01*
Y-1278021D01*
X-809668D01*
Y-1281042D01*
X-808157D01*
Y-1284063D01*
X-809668D01*
Y-1287085D01*
X-808157D01*
Y-1290106D01*
X-809668D01*
Y-1291616D01*
X-808157D01*
Y-1296148D01*
X-806646D01*
Y-1395846D01*
X-779456D01*
Y-1394335D01*
X-777946D01*
Y-1136027D01*
X-779456D01*
Y-1134517D01*
X-806646D01*
Y-1235725D01*
X-809668D01*
Y-1234214D01*
X-811178D01*
Y-1235725D01*
X-812689D01*
Y-1234214D01*
X-814199D01*
Y-1232704D01*
X-815710D01*
Y-1231193D01*
X-818731D01*
Y-1228172D01*
X-820242D01*
Y-1226662D01*
X-823263D01*
Y-1225151D01*
X-824773D01*
Y-1223640D01*
X-826284D01*
Y-1222130D01*
X-829305D01*
Y-1220619D01*
X-830816D01*
Y-1219109D01*
X-833837D01*
Y-1217598D01*
X-836858D01*
Y-1216088D01*
X-839879D01*
Y-1214577D01*
X-842900D01*
Y-1213066D01*
X-847432D01*
Y-1211556D01*
X-853474D01*
Y-1210045D01*
X-862538D01*
Y-1208535D01*
X-867069D01*
Y-1207024D01*
X-885196D01*
Y-1208535D01*
X-888217D01*
Y-1210045D01*
X-897281D01*
Y-1211556D01*
X-906344D01*
Y-1213066D01*
X-909365D01*
Y-1214577D01*
X-910876D01*
Y-1216088D01*
X-912387D01*
Y-1217598D01*
X-916918D01*
Y-1219109D01*
X-919939D01*
Y-1220619D01*
X-921450D01*
Y-1222130D01*
X-922961D01*
Y-1223640D01*
X-925982D01*
Y-1225151D01*
X-927492D01*
Y-1226662D01*
X-930514D01*
Y-1228172D01*
X-932024D01*
Y-1231193D01*
X-933535D01*
Y-1234214D01*
X-935045D01*
Y-1235725D01*
X-936556D01*
Y-1237236D01*
X-938066D01*
Y-1238746D01*
X-939577D01*
Y-1241767D01*
X-941088D01*
Y-1244788D01*
X-942598D01*
Y-1246299D01*
X-944109D01*
Y-1250831D01*
X-945619D01*
Y-1255362D01*
X-947130D01*
Y-1258384D01*
X-948640D01*
Y-1267447D01*
X-950151D01*
Y-1394335D01*
X-948640D01*
Y-1395846D01*
X-922961D01*
Y-1290106D01*
X-921450D01*
Y-1275000D01*
X-919939D01*
Y-1267447D01*
X-918429D01*
Y-1264426D01*
X-916918D01*
Y-1261405D01*
X-915408D01*
Y-1258384D01*
X-913897D01*
Y-1256873D01*
X-912387D01*
Y-1253852D01*
X-910876D01*
Y-1252341D01*
X-909365D01*
Y-1250831D01*
X-907855D01*
Y-1249320D01*
X-906344D01*
Y-1247810D01*
X-903323D01*
Y-1246299D01*
X-901813D01*
Y-1244788D01*
X-900302D01*
Y-1243278D01*
X-898791D01*
Y-1241767D01*
X-892749D01*
Y-1240257D01*
X-888217D01*
Y-1238746D01*
X-883686D01*
Y-1237236D01*
X-880664D01*
Y-1238746D01*
X-876133D01*
Y-1237236D01*
X-864048D01*
Y-1238746D01*
X-858006D01*
X-856495D01*
D02*
G37*
G36*
X-726586Y-1237236D02*
Y-1238746D01*
X-728097D01*
Y-1241767D01*
X-729607D01*
Y-1244788D01*
X-731118D01*
Y-1247810D01*
X-728097D01*
Y-1249320D01*
X-726586D01*
Y-1250831D01*
X-725076D01*
Y-1252341D01*
X-722054D01*
Y-1253852D01*
X-719033D01*
Y-1255362D01*
X-717523D01*
Y-1256873D01*
X-714501D01*
Y-1258384D01*
X-712991D01*
Y-1259894D01*
X-711480D01*
Y-1261405D01*
X-709970D01*
Y-1259894D01*
X-708459D01*
Y-1258384D01*
X-706949D01*
Y-1256873D01*
X-705438D01*
Y-1255362D01*
X-703927D01*
Y-1253852D01*
X-702417D01*
Y-1252341D01*
X-700906D01*
Y-1250831D01*
X-699396D01*
Y-1249320D01*
X-697885D01*
Y-1247810D01*
X-694864D01*
Y-1246299D01*
X-693353D01*
Y-1244788D01*
X-691843D01*
Y-1243278D01*
X-690332D01*
Y-1241767D01*
X-685801D01*
Y-1240257D01*
X-679758D01*
Y-1238746D01*
X-676737D01*
Y-1237236D01*
X-675226D01*
Y-1238746D01*
X-670695D01*
Y-1237236D01*
X-666163D01*
Y-1235725D01*
X-646526D01*
Y-1237236D01*
X-643504D01*
Y-1238746D01*
X-640483D01*
Y-1237236D01*
X-638973D01*
Y-1238746D01*
X-637462D01*
Y-1240257D01*
X-631420D01*
Y-1241767D01*
X-625377D01*
Y-1243278D01*
X-623867D01*
Y-1244788D01*
X-622356D01*
Y-1246299D01*
X-619335D01*
Y-1247810D01*
X-617825D01*
Y-1249320D01*
X-614803D01*
Y-1250831D01*
X-611782D01*
Y-1253852D01*
X-608761D01*
Y-1256873D01*
X-605740D01*
Y-1259894D01*
X-604229D01*
Y-1262915D01*
X-602719D01*
Y-1264426D01*
X-601208D01*
Y-1267447D01*
X-599698D01*
Y-1268958D01*
X-598187D01*
Y-1273489D01*
X-596677D01*
Y-1278021D01*
X-595166D01*
Y-1281042D01*
X-593655D01*
Y-1287085D01*
X-592145D01*
Y-1317296D01*
X-593655D01*
Y-1324849D01*
X-595166D01*
Y-1326360D01*
X-596677D01*
Y-1330891D01*
X-598187D01*
Y-1335423D01*
X-599698D01*
Y-1336934D01*
X-601208D01*
Y-1341465D01*
X-602719D01*
Y-1342976D01*
X-604229D01*
Y-1345997D01*
X-605740D01*
Y-1347508D01*
X-607251D01*
Y-1349018D01*
X-608761D01*
Y-1350529D01*
X-610272D01*
Y-1352039D01*
X-611782D01*
Y-1353550D01*
X-613293D01*
Y-1355061D01*
X-616314D01*
Y-1356571D01*
X-617825D01*
Y-1358082D01*
X-620846D01*
Y-1359592D01*
X-623867D01*
Y-1361103D01*
X-625377D01*
Y-1362613D01*
X-629909D01*
Y-1364124D01*
X-632930D01*
Y-1365635D01*
X-637462D01*
Y-1367145D01*
X-645015D01*
Y-1368656D01*
X-667674D01*
Y-1367145D01*
X-678248D01*
Y-1365635D01*
X-682779D01*
Y-1364124D01*
X-685801D01*
Y-1362613D01*
X-690332D01*
Y-1361103D01*
X-691843D01*
Y-1359592D01*
X-694864D01*
Y-1358082D01*
X-696375D01*
Y-1356571D01*
X-699396D01*
Y-1355061D01*
X-700906D01*
Y-1353550D01*
X-702417D01*
Y-1352039D01*
X-703927D01*
Y-1350529D01*
X-705438D01*
Y-1349018D01*
X-706949D01*
Y-1347508D01*
X-708459D01*
Y-1345997D01*
X-709970D01*
Y-1344487D01*
X-712991D01*
Y-1345997D01*
X-716012D01*
Y-1347508D01*
X-717523D01*
Y-1349018D01*
X-719033D01*
Y-1350529D01*
X-722054D01*
Y-1352039D01*
X-723565D01*
Y-1353550D01*
X-725076D01*
Y-1355061D01*
X-729607D01*
Y-1356571D01*
X-731118D01*
Y-1361103D01*
X-729607D01*
Y-1362613D01*
X-728097D01*
Y-1364124D01*
X-726586D01*
Y-1367145D01*
X-725076D01*
Y-1368656D01*
X-723565D01*
Y-1370166D01*
X-722054D01*
Y-1371677D01*
X-720544D01*
Y-1373187D01*
X-719033D01*
Y-1374698D01*
X-717523D01*
Y-1376209D01*
X-716012D01*
Y-1377719D01*
X-714501D01*
Y-1379230D01*
X-712991D01*
Y-1380740D01*
X-711480D01*
Y-1382251D01*
X-708459D01*
Y-1383761D01*
X-706949D01*
Y-1385272D01*
X-702417D01*
Y-1386783D01*
X-700906D01*
Y-1388293D01*
X-697885D01*
Y-1389804D01*
X-694864D01*
Y-1391314D01*
X-688822D01*
Y-1392825D01*
X-687311D01*
Y-1394335D01*
X-684290D01*
Y-1392825D01*
X-681269D01*
Y-1394335D01*
X-679758D01*
Y-1395846D01*
X-669184D01*
Y-1397357D01*
X-648036D01*
Y-1395846D01*
X-637462D01*
Y-1394335D01*
X-632930D01*
Y-1392825D01*
X-626888D01*
Y-1391314D01*
X-622356D01*
Y-1389804D01*
X-617825D01*
Y-1388293D01*
X-614803D01*
Y-1386783D01*
X-611782D01*
Y-1385272D01*
X-608761D01*
Y-1383761D01*
X-607251D01*
Y-1382251D01*
X-604229D01*
Y-1380740D01*
X-602719D01*
Y-1379230D01*
X-601208D01*
Y-1377719D01*
X-598187D01*
Y-1376209D01*
X-596677D01*
Y-1374698D01*
X-593655D01*
Y-1371677D01*
X-590634D01*
Y-1370166D01*
X-589124D01*
Y-1367145D01*
X-586103D01*
Y-1365635D01*
X-584592D01*
Y-1362613D01*
X-583081D01*
Y-1361103D01*
X-581571D01*
Y-1359592D01*
X-580060D01*
Y-1356571D01*
X-578550D01*
Y-1355061D01*
X-577039D01*
Y-1353550D01*
X-575529D01*
Y-1350529D01*
X-574018D01*
Y-1345997D01*
X-572507D01*
Y-1342976D01*
X-570997D01*
Y-1341465D01*
X-569486D01*
Y-1336934D01*
X-567976D01*
Y-1330891D01*
X-566465D01*
Y-1324849D01*
X-564955D01*
Y-1321828D01*
X-563444D01*
Y-1282553D01*
X-564955D01*
Y-1279532D01*
X-566465D01*
Y-1273489D01*
X-567976D01*
Y-1267447D01*
X-569486D01*
Y-1264426D01*
X-570997D01*
Y-1262915D01*
X-572507D01*
Y-1258384D01*
X-574018D01*
Y-1253852D01*
X-575529D01*
Y-1250831D01*
X-577039D01*
Y-1249320D01*
X-578550D01*
Y-1247810D01*
X-580060D01*
Y-1244788D01*
X-581571D01*
Y-1243278D01*
X-583081D01*
Y-1241767D01*
X-584592D01*
Y-1240257D01*
X-586103D01*
Y-1238746D01*
X-587613D01*
Y-1237236D01*
X-589124D01*
Y-1235725D01*
X-590634D01*
Y-1234214D01*
X-592145D01*
Y-1232704D01*
X-593655D01*
Y-1231193D01*
X-595166D01*
Y-1229683D01*
X-596677D01*
Y-1228172D01*
X-598187D01*
Y-1226662D01*
X-601208D01*
Y-1225151D01*
X-602719D01*
Y-1223640D01*
X-604229D01*
Y-1222130D01*
X-608761D01*
Y-1220619D01*
X-610272D01*
Y-1219109D01*
X-613293D01*
Y-1217598D01*
X-617825D01*
Y-1216088D01*
X-619335D01*
Y-1214577D01*
X-623867D01*
Y-1213066D01*
X-628399D01*
Y-1211556D01*
X-635951D01*
Y-1210045D01*
X-646526D01*
Y-1208535D01*
X-651057D01*
Y-1207024D01*
X-673716D01*
Y-1208535D01*
X-675226D01*
Y-1210045D01*
X-682779D01*
Y-1211556D01*
X-688822D01*
Y-1213066D01*
X-693353D01*
Y-1214577D01*
X-696375D01*
Y-1216088D01*
X-700906D01*
Y-1217598D01*
X-703927D01*
Y-1219109D01*
X-705438D01*
Y-1220619D01*
X-706949D01*
Y-1222130D01*
X-711480D01*
Y-1223640D01*
X-712991D01*
Y-1225151D01*
X-714501D01*
Y-1226662D01*
X-716012D01*
Y-1228172D01*
X-717523D01*
Y-1229683D01*
X-719033D01*
Y-1231193D01*
X-720544D01*
Y-1232704D01*
X-722054D01*
Y-1234214D01*
X-723565D01*
Y-1235725D01*
X-725076D01*
Y-1237236D01*
X-726586D01*
D02*
G37*
G36*
X-448640Y-1208535D02*
X-450151D01*
Y-1210045D01*
X-459214D01*
Y-1211556D01*
X-466767D01*
Y-1213066D01*
X-469788D01*
Y-1214577D01*
X-472810D01*
Y-1216088D01*
X-478852D01*
Y-1217598D01*
X-481873D01*
Y-1219109D01*
X-483384D01*
Y-1220619D01*
X-486405D01*
Y-1222130D01*
X-487915D01*
Y-1223640D01*
X-489426D01*
Y-1225151D01*
X-492447D01*
Y-1226662D01*
X-495468D01*
Y-1228172D01*
X-496979D01*
Y-1229683D01*
X-498489D01*
Y-1231193D01*
X-500000D01*
Y-1232704D01*
X-501511D01*
Y-1234214D01*
X-503021D01*
Y-1235725D01*
X-504532D01*
Y-1238746D01*
X-507553D01*
Y-1241767D01*
X-509063D01*
Y-1244788D01*
X-510574D01*
Y-1246299D01*
X-512085D01*
Y-1249320D01*
X-513595D01*
Y-1250831D01*
X-515106D01*
Y-1252341D01*
X-516616D01*
Y-1258384D01*
X-518127D01*
Y-1261405D01*
X-519637D01*
Y-1262915D01*
X-521148D01*
Y-1267447D01*
X-522659D01*
Y-1275000D01*
X-524169D01*
Y-1276511D01*
X-525680D01*
Y-1278021D01*
X-524169D01*
Y-1281042D01*
X-525680D01*
Y-1284063D01*
X-527190D01*
Y-1302190D01*
X-528701D01*
Y-1305212D01*
X-527190D01*
Y-1312764D01*
X-525680D01*
Y-1314275D01*
X-376133D01*
Y-1320317D01*
X-377643D01*
Y-1326360D01*
X-379154D01*
Y-1330891D01*
X-380664D01*
Y-1333912D01*
X-382175D01*
Y-1336934D01*
X-383686D01*
Y-1339955D01*
X-385196D01*
Y-1341465D01*
X-386707D01*
Y-1342976D01*
X-388217D01*
Y-1344487D01*
X-389728D01*
Y-1345997D01*
X-391238D01*
Y-1347508D01*
X-392749D01*
Y-1349018D01*
X-394260D01*
Y-1350529D01*
X-395770D01*
Y-1352039D01*
X-397281D01*
Y-1353550D01*
X-398791D01*
Y-1355061D01*
X-400302D01*
Y-1356571D01*
X-403323D01*
Y-1358082D01*
X-404834D01*
Y-1359592D01*
X-407855D01*
Y-1361103D01*
X-409365D01*
Y-1362613D01*
X-415408D01*
Y-1364124D01*
X-418429D01*
Y-1365635D01*
X-422961D01*
Y-1367145D01*
X-436556D01*
Y-1368656D01*
X-459214D01*
Y-1367145D01*
X-468278D01*
Y-1365635D01*
X-475831D01*
Y-1364124D01*
X-477341D01*
Y-1362613D01*
X-481873D01*
Y-1361103D01*
X-483384D01*
Y-1359592D01*
X-486405D01*
Y-1358082D01*
X-489426D01*
Y-1356571D01*
X-492447D01*
Y-1355061D01*
X-493958D01*
Y-1353550D01*
X-495468D01*
Y-1352039D01*
X-496979D01*
Y-1350529D01*
X-498489D01*
Y-1349018D01*
X-500000D01*
Y-1350529D01*
X-501511D01*
Y-1352039D01*
X-503021D01*
Y-1353550D01*
X-504532D01*
Y-1355061D01*
X-506042D01*
Y-1358082D01*
X-507553D01*
Y-1359592D01*
X-509063D01*
Y-1361103D01*
X-510574D01*
Y-1362613D01*
X-512085D01*
Y-1364124D01*
X-513595D01*
Y-1365635D01*
X-515106D01*
Y-1368656D01*
X-513595D01*
Y-1370166D01*
X-512085D01*
Y-1371677D01*
X-510574D01*
Y-1373187D01*
X-509063D01*
Y-1374698D01*
X-507553D01*
Y-1376209D01*
X-506042D01*
Y-1377719D01*
X-504532D01*
Y-1379230D01*
X-503021D01*
Y-1380740D01*
X-500000D01*
Y-1382251D01*
X-496979D01*
Y-1383761D01*
X-495468D01*
Y-1385272D01*
X-492447D01*
Y-1386783D01*
X-489426D01*
Y-1388293D01*
X-486405D01*
Y-1389804D01*
X-483384D01*
Y-1391314D01*
X-477341D01*
Y-1392825D01*
X-471299D01*
Y-1394335D01*
X-469788D01*
Y-1395846D01*
X-457704D01*
Y-1397357D01*
X-433535D01*
Y-1395846D01*
X-421450D01*
Y-1394335D01*
X-419939D01*
Y-1392825D01*
X-416918D01*
Y-1394335D01*
X-415408D01*
Y-1392825D01*
X-412387D01*
Y-1391314D01*
X-406344D01*
Y-1389804D01*
X-403323D01*
Y-1388293D01*
X-400302D01*
Y-1386783D01*
X-395770D01*
Y-1385272D01*
X-392749D01*
Y-1383761D01*
X-391238D01*
Y-1382251D01*
X-388217D01*
Y-1380740D01*
X-386707D01*
Y-1379230D01*
X-383686D01*
Y-1377719D01*
X-380664D01*
Y-1376209D01*
X-379154D01*
Y-1374698D01*
X-377643D01*
Y-1373187D01*
X-376133D01*
Y-1371677D01*
X-374622D01*
Y-1370166D01*
X-373112D01*
Y-1368656D01*
X-371601D01*
Y-1367145D01*
X-370090D01*
Y-1365635D01*
X-368580D01*
Y-1364124D01*
X-367069D01*
Y-1361103D01*
X-365559D01*
Y-1359592D01*
X-364048D01*
Y-1356571D01*
X-362538D01*
Y-1355061D01*
X-361027D01*
Y-1352039D01*
X-359516D01*
Y-1349018D01*
X-358006D01*
Y-1345997D01*
X-356495D01*
Y-1344487D01*
X-354985D01*
Y-1339955D01*
X-353474D01*
Y-1336934D01*
X-351964D01*
Y-1329381D01*
X-350453D01*
Y-1326360D01*
X-348942D01*
Y-1318807D01*
X-347432D01*
Y-1285574D01*
X-348942D01*
Y-1278021D01*
X-350453D01*
Y-1275000D01*
X-351964D01*
Y-1267447D01*
X-353474D01*
Y-1264426D01*
X-354985D01*
Y-1259894D01*
X-356495D01*
Y-1258384D01*
X-358006D01*
Y-1253852D01*
X-359516D01*
Y-1252341D01*
X-361027D01*
Y-1249320D01*
X-362538D01*
Y-1247810D01*
X-364048D01*
Y-1244788D01*
X-365559D01*
Y-1243278D01*
X-367069D01*
Y-1240257D01*
X-368580D01*
Y-1238746D01*
X-370090D01*
Y-1237236D01*
X-371601D01*
Y-1235725D01*
X-373112D01*
Y-1234214D01*
X-374622D01*
Y-1232704D01*
X-376133D01*
Y-1231193D01*
X-377643D01*
Y-1229683D01*
X-379154D01*
Y-1228172D01*
X-380664D01*
Y-1226662D01*
X-383686D01*
Y-1225151D01*
X-385196D01*
Y-1223640D01*
X-388217D01*
Y-1222130D01*
X-389728D01*
Y-1220619D01*
X-392749D01*
Y-1219109D01*
X-394260D01*
Y-1217598D01*
X-398791D01*
Y-1216088D01*
X-401813D01*
Y-1214577D01*
X-406344D01*
Y-1213066D01*
X-409365D01*
Y-1211556D01*
X-416918D01*
Y-1210045D01*
X-427492D01*
Y-1208535D01*
X-430513D01*
Y-1207024D01*
X-448640D01*
Y-1208535D01*
D02*
G37*
G36*
X-170695Y-1149622D02*
X-344411D01*
Y-1178323D01*
X-261329D01*
Y-1394335D01*
X-259819D01*
Y-1395846D01*
X-231118D01*
Y-1179834D01*
X-229607D01*
Y-1178323D01*
X-146525D01*
Y-1149622D01*
X-169184D01*
X-170695D01*
D02*
G37*
G36*
X-111782Y-1157175D02*
X-113293D01*
Y-1158686D01*
X-117825D01*
Y-1160196D01*
X-122356D01*
Y-1161707D01*
X-123867D01*
Y-1163218D01*
X-126888D01*
Y-1164728D01*
X-129909D01*
Y-1169260D01*
X-128399D01*
Y-1173792D01*
X-126888D01*
Y-1176813D01*
X-125377D01*
Y-1179834D01*
X-123867D01*
Y-1185876D01*
X-122356D01*
Y-1188897D01*
X-120846D01*
Y-1191918D01*
X-119335D01*
Y-1194940D01*
X-117825D01*
Y-1199471D01*
X-116314D01*
Y-1202492D01*
X-110272D01*
Y-1200982D01*
X-105740D01*
Y-1199471D01*
X-104229D01*
Y-1197961D01*
X-99698D01*
Y-1196450D01*
X-95166D01*
Y-1194940D01*
X-90634D01*
Y-1193429D01*
X-84592D01*
Y-1191918D01*
X-83081D01*
Y-1190408D01*
X-74018D01*
Y-1188897D01*
X-30211D01*
Y-1190408D01*
X-22659D01*
Y-1191918D01*
X-21148D01*
Y-1193429D01*
X-19637D01*
Y-1194940D01*
X-16616D01*
Y-1196450D01*
X-15106D01*
Y-1197961D01*
X-13595D01*
Y-1199471D01*
X-12085D01*
Y-1200982D01*
X-10574D01*
Y-1202492D01*
X-9063D01*
Y-1204003D01*
X-7553D01*
Y-1207024D01*
X-6042D01*
Y-1223640D01*
X-7553D01*
Y-1225151D01*
X-9063D01*
Y-1226662D01*
X-10574D01*
Y-1228172D01*
X-12085D01*
Y-1229683D01*
X-13595D01*
Y-1231193D01*
X-15106D01*
Y-1232704D01*
X-18127D01*
Y-1234214D01*
X-22659D01*
Y-1235725D01*
X-25680D01*
Y-1237236D01*
X-28701D01*
Y-1238746D01*
X-34743D01*
Y-1240257D01*
X-40785D01*
Y-1241767D01*
X-48338D01*
Y-1243278D01*
X-49849D01*
Y-1244788D01*
X-57402D01*
Y-1246299D01*
X-64955D01*
Y-1247810D01*
X-66465D01*
Y-1249320D01*
X-67976D01*
Y-1247810D01*
X-70997D01*
Y-1249320D01*
X-74018D01*
Y-1250831D01*
X-81571D01*
Y-1252341D01*
X-86103D01*
Y-1253852D01*
X-90634D01*
Y-1255362D01*
X-92145D01*
Y-1256873D01*
X-98187D01*
Y-1258384D01*
X-102719D01*
Y-1259894D01*
X-105740D01*
Y-1261405D01*
X-108761D01*
Y-1262915D01*
X-111782D01*
Y-1264426D01*
X-113293D01*
Y-1265937D01*
X-116314D01*
Y-1267447D01*
X-117825D01*
Y-1268958D01*
X-120846D01*
Y-1270468D01*
X-122356D01*
Y-1271979D01*
X-123867D01*
Y-1273489D01*
X-125377D01*
Y-1276511D01*
X-128399D01*
Y-1278021D01*
X-129909D01*
Y-1281042D01*
X-131420D01*
Y-1282553D01*
X-132930D01*
Y-1285574D01*
X-134441D01*
Y-1288595D01*
X-135951D01*
Y-1291616D01*
X-137462D01*
Y-1294637D01*
X-138973D01*
Y-1302190D01*
X-140483D01*
Y-1326360D01*
X-138973D01*
Y-1333912D01*
X-137462D01*
Y-1336934D01*
X-135951D01*
Y-1339955D01*
X-134441D01*
Y-1344487D01*
X-132930D01*
Y-1345997D01*
X-131420D01*
Y-1347508D01*
X-129909D01*
Y-1350529D01*
X-128399D01*
Y-1352039D01*
X-126888D01*
Y-1355061D01*
X-125377D01*
Y-1358082D01*
X-123867D01*
Y-1359592D01*
X-122356D01*
Y-1361103D01*
X-120846D01*
Y-1362613D01*
X-117825D01*
Y-1364124D01*
X-116314D01*
Y-1365635D01*
X-113293D01*
Y-1367145D01*
X-111782D01*
Y-1368656D01*
X-108761D01*
Y-1370166D01*
X-107251D01*
Y-1371677D01*
X-105740D01*
Y-1373187D01*
X-101208D01*
Y-1374698D01*
X-99698D01*
Y-1376209D01*
X-96677D01*
Y-1377719D01*
X-90634D01*
Y-1379230D01*
X-87613D01*
Y-1380740D01*
X-80060D01*
Y-1382251D01*
X-78550D01*
Y-1383761D01*
X-69486D01*
Y-1385272D01*
X-19637D01*
Y-1383761D01*
X-9063D01*
Y-1382251D01*
X-7553D01*
Y-1380740D01*
X1511D01*
Y-1379230D01*
X7553D01*
Y-1377719D01*
X13595D01*
Y-1376209D01*
X16616D01*
Y-1374698D01*
X21148D01*
Y-1373187D01*
X25680D01*
Y-1371677D01*
X28701D01*
Y-1370166D01*
X31722D01*
Y-1368656D01*
X34743D01*
Y-1367145D01*
X37764D01*
Y-1365635D01*
X39275D01*
Y-1364124D01*
X42296D01*
Y-1362613D01*
X45317D01*
Y-1361103D01*
X46828D01*
Y-1355061D01*
X45317D01*
Y-1352039D01*
X43807D01*
Y-1349018D01*
X42296D01*
Y-1345997D01*
X40786D01*
Y-1342976D01*
X39275D01*
Y-1338444D01*
X37764D01*
Y-1335423D01*
X36254D01*
Y-1332402D01*
X34743D01*
Y-1327870D01*
X33233D01*
Y-1324849D01*
X31722D01*
Y-1323338D01*
X25680D01*
Y-1324849D01*
X24169D01*
Y-1326360D01*
X22659D01*
Y-1327870D01*
X19638D01*
Y-1329381D01*
X18127D01*
Y-1330891D01*
X12085D01*
Y-1332402D01*
X9063D01*
Y-1333912D01*
X6042D01*
Y-1335423D01*
X3021D01*
Y-1336934D01*
X-1511D01*
Y-1338444D01*
X-9063D01*
Y-1339955D01*
X-16616D01*
Y-1341465D01*
X-19637D01*
Y-1342976D01*
X-36254D01*
Y-1344487D01*
X-55891D01*
Y-1342976D01*
X-67976D01*
Y-1341465D01*
X-69486D01*
Y-1339955D01*
X-75529D01*
Y-1338444D01*
X-80060D01*
Y-1336934D01*
X-81571D01*
Y-1335423D01*
X-83081D01*
Y-1333912D01*
X-86103D01*
Y-1332402D01*
X-87613D01*
Y-1329381D01*
X-89124D01*
Y-1326360D01*
X-90634D01*
Y-1324849D01*
X-92145D01*
Y-1312764D01*
X-90634D01*
Y-1309743D01*
X-89124D01*
Y-1306722D01*
X-87613D01*
Y-1305212D01*
X-86103D01*
Y-1303701D01*
X-83081D01*
Y-1302190D01*
X-80060D01*
Y-1300680D01*
X-78550D01*
Y-1299169D01*
X-75529D01*
Y-1297659D01*
X-72507D01*
Y-1296148D01*
X-69486D01*
Y-1294637D01*
X-64955D01*
Y-1293127D01*
X-58912D01*
Y-1291616D01*
X-52870D01*
Y-1290106D01*
X-49849D01*
Y-1288595D01*
X-42296D01*
Y-1287085D01*
X-34743D01*
Y-1285574D01*
X-27190D01*
Y-1284063D01*
X-25680D01*
Y-1282553D01*
X-19637D01*
Y-1281042D01*
X-13595D01*
Y-1279532D01*
X-7553D01*
Y-1278021D01*
X-4532D01*
Y-1276511D01*
X0D01*
Y-1275000D01*
X4532D01*
Y-1273489D01*
X9063D01*
Y-1271979D01*
X10574D01*
Y-1270468D01*
X13595D01*
Y-1268958D01*
X16616D01*
Y-1267447D01*
X18127D01*
Y-1265937D01*
X21148D01*
Y-1264426D01*
X22659D01*
Y-1262915D01*
X24169D01*
Y-1261405D01*
X25680D01*
Y-1259894D01*
X27190D01*
Y-1258384D01*
X28701D01*
Y-1256873D01*
X30212D01*
Y-1255362D01*
X31722D01*
Y-1253852D01*
X33233D01*
Y-1252341D01*
X34743D01*
Y-1249320D01*
X36254D01*
Y-1244788D01*
X37764D01*
Y-1243278D01*
X39275D01*
Y-1240257D01*
X40786D01*
Y-1232704D01*
X42296D01*
Y-1231193D01*
X43807D01*
Y-1207024D01*
X42296D01*
Y-1204003D01*
X40786D01*
Y-1197961D01*
X39275D01*
Y-1193429D01*
X37764D01*
Y-1190408D01*
X36254D01*
Y-1185876D01*
X34743D01*
Y-1184366D01*
X33233D01*
Y-1181344D01*
X31722D01*
Y-1179834D01*
X30212D01*
Y-1178323D01*
X28701D01*
Y-1175302D01*
X27190D01*
Y-1173792D01*
X25680D01*
Y-1172281D01*
X24169D01*
Y-1170770D01*
X22659D01*
Y-1169260D01*
X21148D01*
Y-1167749D01*
X18127D01*
Y-1166239D01*
X16616D01*
Y-1164728D01*
X15106D01*
Y-1163218D01*
X12085D01*
Y-1161707D01*
X9063D01*
Y-1160196D01*
X6042D01*
Y-1158686D01*
X3021D01*
Y-1157175D01*
X0D01*
Y-1155665D01*
X-3021D01*
Y-1154154D01*
X-7553D01*
Y-1152644D01*
X-12085D01*
Y-1151133D01*
X-15106D01*
Y-1149622D01*
X-22659D01*
Y-1148112D01*
X-34743D01*
Y-1146601D01*
X-67976D01*
Y-1148112D01*
X-81571D01*
Y-1149622D01*
X-93655D01*
Y-1151133D01*
X-95166D01*
Y-1152644D01*
X-101208D01*
Y-1154154D01*
X-107251D01*
Y-1155665D01*
X-110272D01*
Y-1157175D01*
X-111782D01*
D02*
G37*
G36*
X163142Y-1151133D02*
X161632D01*
Y-1154154D01*
X160121D01*
Y-1160196D01*
X158610D01*
Y-1161707D01*
X157100D01*
Y-1164728D01*
X155589D01*
Y-1167749D01*
X154079D01*
Y-1170770D01*
X152568D01*
Y-1173792D01*
X151058D01*
Y-1178323D01*
X149547D01*
Y-1182855D01*
X148036D01*
Y-1185876D01*
X146526D01*
Y-1187387D01*
X145015D01*
Y-1191918D01*
X143505D01*
Y-1196450D01*
X141994D01*
Y-1199471D01*
X140484D01*
Y-1202492D01*
X138973D01*
Y-1205514D01*
X137462D01*
Y-1208535D01*
X135952D01*
Y-1213066D01*
X134441D01*
Y-1216088D01*
X132931D01*
Y-1219109D01*
X131420D01*
Y-1223640D01*
X129910D01*
Y-1225151D01*
X128399D01*
Y-1228172D01*
X126888D01*
Y-1231193D01*
X125378D01*
Y-1237236D01*
X123867D01*
Y-1240257D01*
X122357D01*
Y-1241767D01*
X120846D01*
Y-1246299D01*
X119336D01*
Y-1249320D01*
X117825D01*
Y-1250831D01*
X116314D01*
Y-1256873D01*
X114804D01*
Y-1259894D01*
X113293D01*
Y-1262915D01*
X111783D01*
Y-1265937D01*
X110272D01*
Y-1268958D01*
X108762D01*
Y-1275000D01*
X107251D01*
Y-1278021D01*
X105740D01*
Y-1279532D01*
X104230D01*
Y-1282553D01*
X102719D01*
Y-1287085D01*
X101209D01*
Y-1288595D01*
X99698D01*
Y-1290106D01*
X101209D01*
Y-1291616D01*
X99698D01*
Y-1294637D01*
X98188D01*
Y-1297659D01*
X96677D01*
Y-1300680D01*
X95166D01*
Y-1303701D01*
X93656D01*
Y-1306722D01*
X92145D01*
Y-1311254D01*
X90635D01*
Y-1314275D01*
X89124D01*
Y-1317296D01*
X87613D01*
Y-1320317D01*
X86103D01*
Y-1323338D01*
X84592D01*
Y-1327870D01*
X83082D01*
Y-1330891D01*
X81571D01*
Y-1333912D01*
X80061D01*
Y-1338444D01*
X78550D01*
Y-1341465D01*
X77039D01*
Y-1342976D01*
X75529D01*
Y-1347508D01*
X74018D01*
Y-1352039D01*
X72508D01*
Y-1355061D01*
X70997D01*
Y-1358082D01*
X69487D01*
Y-1361103D01*
X67976D01*
Y-1364124D01*
X66465D01*
Y-1367145D01*
X64955D01*
Y-1371677D01*
X63444D01*
Y-1374698D01*
X61934D01*
Y-1377719D01*
X60423D01*
Y-1382251D01*
X110272D01*
Y-1380740D01*
X111783D01*
Y-1377719D01*
X113293D01*
Y-1374698D01*
X114804D01*
Y-1371677D01*
X116314D01*
Y-1367145D01*
X117825D01*
Y-1362613D01*
X119336D01*
Y-1359592D01*
X120846D01*
Y-1356571D01*
X122357D01*
Y-1352039D01*
X123867D01*
Y-1349018D01*
X125378D01*
Y-1345997D01*
X126888D01*
Y-1341465D01*
X128399D01*
Y-1336934D01*
X129910D01*
Y-1335423D01*
X131420D01*
Y-1332402D01*
X244713D01*
Y-1333912D01*
X246224D01*
Y-1338444D01*
X247734D01*
Y-1341465D01*
X249245D01*
Y-1345997D01*
X250755D01*
Y-1347508D01*
X252266D01*
Y-1353550D01*
X253776D01*
Y-1356571D01*
X255287D01*
Y-1361103D01*
X256798D01*
Y-1364124D01*
X258308D01*
Y-1367145D01*
X259819D01*
Y-1373187D01*
X261329D01*
Y-1376209D01*
X262840D01*
Y-1377719D01*
X264350D01*
Y-1380740D01*
X265861D01*
Y-1382251D01*
X314200D01*
Y-1379230D01*
X312689D01*
Y-1374698D01*
X311178D01*
Y-1371677D01*
X309668D01*
Y-1368656D01*
X308157D01*
Y-1364124D01*
X306647D01*
Y-1361103D01*
X305136D01*
Y-1358082D01*
X303626D01*
Y-1356571D01*
X302115D01*
Y-1352039D01*
X300604D01*
Y-1347508D01*
X299094D01*
Y-1344487D01*
X297583D01*
Y-1341465D01*
X296073D01*
Y-1338444D01*
X294562D01*
Y-1333912D01*
X293051D01*
Y-1329381D01*
X291541D01*
Y-1327870D01*
X290030D01*
Y-1323338D01*
X288520D01*
Y-1321828D01*
X287009D01*
Y-1318807D01*
X285499D01*
Y-1314275D01*
X283988D01*
Y-1309743D01*
X282477D01*
Y-1308233D01*
Y-1306722D01*
X280967D01*
Y-1303701D01*
X279456D01*
Y-1300680D01*
X277946D01*
Y-1296148D01*
X276435D01*
Y-1293127D01*
X274925D01*
Y-1290106D01*
X273414D01*
Y-1287085D01*
X271903D01*
Y-1284063D01*
X270393D01*
Y-1279532D01*
X268882D01*
Y-1276511D01*
X267372D01*
Y-1273489D01*
X265861D01*
Y-1268958D01*
X264350D01*
Y-1265937D01*
X262840D01*
Y-1264426D01*
X261329D01*
Y-1259894D01*
X259819D01*
Y-1255362D01*
X258308D01*
Y-1252341D01*
X256798D01*
Y-1249320D01*
X255287D01*
Y-1246299D01*
X253776D01*
Y-1241767D01*
X252266D01*
Y-1238746D01*
X250755D01*
Y-1235725D01*
X249245D01*
Y-1232704D01*
X247734D01*
Y-1229683D01*
X246224D01*
Y-1225151D01*
X244713D01*
Y-1222130D01*
X243202D01*
Y-1217598D01*
X241692D01*
Y-1214577D01*
X240181D01*
Y-1211556D01*
X238671D01*
Y-1210045D01*
X237160D01*
Y-1205514D01*
X235650D01*
Y-1200982D01*
X234139D01*
Y-1197961D01*
X232628D01*
Y-1194940D01*
X231118D01*
Y-1191918D01*
X229607D01*
Y-1187387D01*
X228097D01*
Y-1185876D01*
X226586D01*
Y-1181344D01*
X225076D01*
Y-1176813D01*
X223565D01*
Y-1175302D01*
X222054D01*
Y-1172281D01*
X220544D01*
Y-1167749D01*
X219033D01*
Y-1164728D01*
X217523D01*
Y-1160196D01*
X216012D01*
Y-1157175D01*
X214502D01*
Y-1154154D01*
X212991D01*
Y-1151133D01*
X211480D01*
Y-1149622D01*
X163142D01*
Y-1151133D01*
D02*
G37*
G36*
X412387D02*
X410876D01*
Y-1152644D01*
X398792D01*
Y-1154154D01*
X391239D01*
Y-1155665D01*
X388218D01*
Y-1157175D01*
X385197D01*
Y-1158686D01*
X382175D01*
Y-1160196D01*
X377644D01*
Y-1161707D01*
X376133D01*
Y-1163218D01*
X373112D01*
Y-1164728D01*
X370091D01*
Y-1166239D01*
X367070D01*
Y-1167749D01*
X365559D01*
Y-1169260D01*
X364049D01*
Y-1170770D01*
X361027D01*
Y-1172281D01*
X358006D01*
Y-1173792D01*
X356496D01*
Y-1175302D01*
X354985D01*
Y-1176813D01*
X353475D01*
Y-1178323D01*
X351964D01*
Y-1179834D01*
X350453D01*
Y-1181344D01*
X348943D01*
Y-1184366D01*
X347432D01*
Y-1187387D01*
X345922D01*
Y-1188897D01*
X344411D01*
Y-1191918D01*
X342901D01*
Y-1193429D01*
X341390D01*
Y-1197961D01*
X339879D01*
Y-1199471D01*
X338369D01*
Y-1205514D01*
X336858D01*
Y-1208535D01*
X335348D01*
Y-1216088D01*
X333837D01*
Y-1252341D01*
X335348D01*
Y-1259894D01*
X336858D01*
Y-1261405D01*
X338369D01*
Y-1262915D01*
X336858D01*
Y-1264426D01*
X338369D01*
Y-1267447D01*
X339879D01*
Y-1270468D01*
X341390D01*
Y-1275000D01*
X342901D01*
Y-1276511D01*
X344411D01*
Y-1279532D01*
X345922D01*
Y-1281042D01*
X347432D01*
Y-1282553D01*
X348943D01*
Y-1284063D01*
X350453D01*
Y-1287085D01*
X351964D01*
Y-1288595D01*
X353475D01*
Y-1290106D01*
X354985D01*
Y-1291616D01*
X356496D01*
Y-1293127D01*
X358006D01*
Y-1294637D01*
X361027D01*
Y-1296148D01*
X362538D01*
Y-1297659D01*
X364049D01*
Y-1299169D01*
X367070D01*
Y-1300680D01*
X368580D01*
Y-1302190D01*
X370091D01*
Y-1303701D01*
X374623D01*
Y-1305212D01*
X377644D01*
Y-1306722D01*
X379154D01*
Y-1311254D01*
X377644D01*
Y-1312764D01*
X376133D01*
Y-1315786D01*
X374623D01*
Y-1317296D01*
X373112D01*
Y-1318807D01*
X371601D01*
Y-1320317D01*
X370091D01*
Y-1323338D01*
X368580D01*
Y-1324849D01*
X367070D01*
Y-1327870D01*
X365559D01*
Y-1330891D01*
X364049D01*
Y-1332402D01*
X362538D01*
Y-1335423D01*
X361027D01*
Y-1336934D01*
X359517D01*
Y-1338444D01*
X358006D01*
Y-1342976D01*
X354985D01*
Y-1345997D01*
X353475D01*
Y-1347508D01*
X351964D01*
Y-1350529D01*
X350453D01*
Y-1352039D01*
X348943D01*
Y-1353550D01*
X347432D01*
Y-1356571D01*
X345922D01*
Y-1358082D01*
X344411D01*
Y-1361103D01*
X342901D01*
Y-1364124D01*
X341390D01*
Y-1365635D01*
X339879D01*
Y-1367145D01*
X338369D01*
Y-1368656D01*
X336858D01*
Y-1371677D01*
X335348D01*
Y-1373187D01*
X333837D01*
Y-1376209D01*
X332326D01*
Y-1377719D01*
X330816D01*
Y-1379230D01*
X329305D01*
Y-1382251D01*
X380665D01*
Y-1380740D01*
X382175D01*
Y-1379230D01*
X383686D01*
Y-1377719D01*
X385197D01*
Y-1376209D01*
X386707D01*
Y-1373187D01*
X388218D01*
Y-1371677D01*
X389728D01*
Y-1368656D01*
X391239D01*
Y-1367145D01*
X392749D01*
Y-1365635D01*
X394260D01*
Y-1362613D01*
X395771D01*
Y-1361103D01*
Y-1359592D01*
X397281D01*
Y-1358082D01*
X398792D01*
Y-1356571D01*
X400302D01*
Y-1353550D01*
X401813D01*
Y-1352039D01*
X403323D01*
Y-1349018D01*
X404834D01*
Y-1347508D01*
X406345D01*
Y-1344487D01*
X407855D01*
Y-1342976D01*
X409366D01*
Y-1339955D01*
X410876D01*
Y-1338444D01*
X412387D01*
Y-1336934D01*
X413897D01*
Y-1333912D01*
X415408D01*
Y-1332402D01*
X416919D01*
Y-1330891D01*
X418429D01*
Y-1327870D01*
X419940D01*
Y-1324849D01*
X421450D01*
Y-1323338D01*
X422961D01*
Y-1320317D01*
X424471D01*
Y-1318807D01*
X425982D01*
Y-1317296D01*
X478852D01*
Y-1318807D01*
X480363D01*
Y-1380740D01*
X481873D01*
Y-1382251D01*
X528701D01*
Y-1149622D01*
X412387D01*
Y-1151133D01*
D02*
G37*
G36*
X564955Y-1187387D02*
Y-1193429D01*
X637462D01*
Y-1380740D01*
X638973D01*
Y-1382251D01*
X685801D01*
Y-1380740D01*
X687311D01*
Y-1193429D01*
X761329D01*
Y-1191918D01*
X762840D01*
Y-1187387D01*
X761329D01*
Y-1185876D01*
X762840D01*
Y-1152644D01*
X761329D01*
Y-1149622D01*
X564955D01*
Y-1185876D01*
Y-1187387D01*
D02*
G37*
G36*
X885197Y-1190408D02*
X891239D01*
Y-1191918D01*
X892749D01*
Y-1193429D01*
X895771D01*
Y-1194940D01*
X898792D01*
Y-1196450D01*
X900302D01*
Y-1197961D01*
X901813D01*
Y-1199471D01*
X903323D01*
Y-1200982D01*
X904834D01*
Y-1202492D01*
X906345D01*
Y-1204003D01*
X907855D01*
Y-1210045D01*
X909366D01*
Y-1222130D01*
X907855D01*
Y-1225151D01*
X906345D01*
Y-1226662D01*
X904834D01*
Y-1228172D01*
X903323D01*
Y-1229683D01*
X900302D01*
Y-1231193D01*
X898792D01*
Y-1232704D01*
X897281D01*
Y-1234214D01*
X894260D01*
Y-1235725D01*
X888218D01*
Y-1237236D01*
X886707D01*
Y-1238746D01*
X880665D01*
Y-1240257D01*
X873112D01*
Y-1241767D01*
X867070D01*
Y-1243278D01*
X865559D01*
Y-1244788D01*
X858006D01*
Y-1246299D01*
X850453D01*
Y-1247810D01*
X847432D01*
Y-1249320D01*
X845922D01*
Y-1247810D01*
X844411D01*
Y-1249320D01*
X841390D01*
Y-1250831D01*
X833837D01*
Y-1252341D01*
X829305D01*
Y-1253852D01*
X823263D01*
Y-1255362D01*
X821752D01*
Y-1256873D01*
X815710D01*
Y-1258384D01*
X812689D01*
Y-1259894D01*
X809668D01*
Y-1261405D01*
X806647D01*
Y-1262915D01*
X803626D01*
Y-1264426D01*
X800604D01*
Y-1265937D01*
X799094D01*
Y-1267447D01*
X797583D01*
Y-1268958D01*
X796073D01*
Y-1270468D01*
X793051D01*
Y-1271979D01*
X790030D01*
Y-1273489D01*
X788520D01*
Y-1275000D01*
X787009D01*
Y-1276511D01*
X785499D01*
Y-1279532D01*
X783988D01*
Y-1282553D01*
X782477D01*
Y-1284063D01*
X780967D01*
Y-1287085D01*
X779456D01*
Y-1290106D01*
X777946D01*
Y-1293127D01*
X776435D01*
Y-1299169D01*
X774925D01*
Y-1327870D01*
X776435D01*
Y-1335423D01*
X777946D01*
Y-1338444D01*
X779456D01*
Y-1341465D01*
X780967D01*
Y-1344487D01*
X782477D01*
Y-1347508D01*
X783988D01*
Y-1349018D01*
X785499D01*
Y-1352039D01*
X787009D01*
Y-1355061D01*
X790030D01*
Y-1358082D01*
X793051D01*
Y-1359592D01*
X794562D01*
Y-1362613D01*
X797583D01*
Y-1365635D01*
X800604D01*
Y-1367145D01*
X803626D01*
Y-1368656D01*
X805136D01*
Y-1370166D01*
X808157D01*
Y-1371677D01*
X809668D01*
Y-1373187D01*
X814200D01*
Y-1374698D01*
X817221D01*
Y-1376209D01*
X820242D01*
Y-1377719D01*
X821752D01*
Y-1379230D01*
X827795D01*
Y-1380740D01*
X835348D01*
Y-1382251D01*
X836858D01*
Y-1383761D01*
X845922D01*
Y-1385272D01*
X895771D01*
Y-1383761D01*
X904834D01*
Y-1382251D01*
X907855D01*
Y-1380740D01*
X915408D01*
Y-1379230D01*
X922961D01*
Y-1377719D01*
X927493D01*
Y-1376209D01*
X930514D01*
Y-1374698D01*
X936556D01*
Y-1373187D01*
X939577D01*
Y-1371677D01*
X944109D01*
Y-1370166D01*
X947130D01*
Y-1368656D01*
X948641D01*
Y-1367145D01*
X951662D01*
Y-1365635D01*
X954683D01*
Y-1364124D01*
X957704D01*
Y-1362613D01*
X959215D01*
Y-1361103D01*
X962236D01*
Y-1356571D01*
X960725D01*
Y-1353550D01*
X959215D01*
Y-1350529D01*
X957704D01*
Y-1347508D01*
X956193D01*
Y-1342976D01*
X954683D01*
Y-1339955D01*
X953172D01*
Y-1336934D01*
X951662D01*
Y-1332402D01*
X950151D01*
Y-1330891D01*
X948641D01*
Y-1326360D01*
X947130D01*
Y-1323338D01*
X941088D01*
Y-1324849D01*
X939577D01*
Y-1326360D01*
X936556D01*
Y-1327870D01*
X933535D01*
Y-1329381D01*
X930514D01*
Y-1330891D01*
X927493D01*
Y-1332402D01*
X924471D01*
Y-1333912D01*
X918429D01*
Y-1335423D01*
X916919D01*
Y-1336934D01*
X912387D01*
Y-1338444D01*
X903323D01*
Y-1339955D01*
X897281D01*
Y-1341465D01*
X894260D01*
Y-1342976D01*
X879154D01*
Y-1344487D01*
X859517D01*
Y-1342976D01*
X847432D01*
Y-1341465D01*
X844411D01*
Y-1339955D01*
X839879D01*
Y-1338444D01*
X835348D01*
Y-1336934D01*
X833837D01*
Y-1335423D01*
X830816D01*
Y-1333912D01*
X829305D01*
Y-1332402D01*
X827795D01*
Y-1330891D01*
X826284D01*
Y-1327870D01*
X824774D01*
Y-1326360D01*
X823263D01*
Y-1318807D01*
X821752D01*
Y-1317296D01*
X823263D01*
Y-1311254D01*
X824774D01*
Y-1308233D01*
X826284D01*
Y-1306722D01*
X827795D01*
Y-1305212D01*
X829305D01*
Y-1303701D01*
X830816D01*
Y-1302190D01*
X833837D01*
Y-1300680D01*
X836858D01*
Y-1299169D01*
X839879D01*
Y-1297659D01*
X842901D01*
Y-1296148D01*
X845922D01*
Y-1294637D01*
X850453D01*
Y-1293127D01*
X856496D01*
Y-1291616D01*
X862538D01*
Y-1290106D01*
X865559D01*
Y-1288595D01*
X871601D01*
Y-1287085D01*
X879154D01*
Y-1285574D01*
X886707D01*
Y-1284063D01*
X889728D01*
Y-1282553D01*
X895771D01*
Y-1281042D01*
X900302D01*
Y-1279532D01*
X906345D01*
Y-1278021D01*
X909366D01*
Y-1276511D01*
X913897D01*
Y-1275000D01*
X919940D01*
Y-1273489D01*
X924471D01*
Y-1271979D01*
X925982D01*
Y-1270468D01*
X927493D01*
Y-1268958D01*
X930514D01*
Y-1267447D01*
X933535D01*
Y-1265937D01*
X935045D01*
Y-1264426D01*
X938067D01*
Y-1262915D01*
X939577D01*
Y-1261405D01*
X941088D01*
Y-1259894D01*
X942598D01*
Y-1258384D01*
X944109D01*
Y-1256873D01*
X945619D01*
Y-1255362D01*
X947130D01*
Y-1252341D01*
X948641D01*
Y-1250831D01*
X950151D01*
Y-1247810D01*
X951662D01*
Y-1244788D01*
X953172D01*
Y-1241767D01*
X954683D01*
Y-1237236D01*
X956193D01*
Y-1228172D01*
X957704D01*
Y-1223640D01*
X959215D01*
Y-1214577D01*
X957704D01*
Y-1210045D01*
X956193D01*
Y-1199471D01*
X954683D01*
Y-1194940D01*
X953172D01*
Y-1191918D01*
X951662D01*
Y-1187387D01*
X950151D01*
Y-1184366D01*
X948641D01*
Y-1182855D01*
X947130D01*
Y-1179834D01*
X945619D01*
Y-1178323D01*
X944109D01*
Y-1176813D01*
X942598D01*
Y-1175302D01*
X941088D01*
Y-1173792D01*
X939577D01*
Y-1172281D01*
X938067D01*
Y-1170770D01*
X936556D01*
Y-1169260D01*
X935045D01*
Y-1167749D01*
X933535D01*
Y-1166239D01*
X932024D01*
Y-1164728D01*
X929003D01*
Y-1163218D01*
X927493D01*
Y-1161707D01*
X924471D01*
Y-1160196D01*
X921450D01*
Y-1158686D01*
X918429D01*
Y-1157175D01*
X915408D01*
Y-1155665D01*
X912387D01*
Y-1154154D01*
X907855D01*
Y-1152644D01*
X901813D01*
Y-1151133D01*
X900302D01*
Y-1149622D01*
X891239D01*
Y-1148112D01*
X879154D01*
Y-1146601D01*
X847432D01*
Y-1148112D01*
X832327D01*
Y-1149622D01*
X820242D01*
Y-1151133D01*
X818731D01*
Y-1152644D01*
X814200D01*
Y-1154154D01*
X808157D01*
Y-1155665D01*
X806647D01*
Y-1157175D01*
X800604D01*
Y-1158686D01*
X797583D01*
Y-1160196D01*
X794562D01*
Y-1161707D01*
X791541D01*
Y-1163218D01*
X788520D01*
Y-1164728D01*
X785499D01*
Y-1170770D01*
X787009D01*
Y-1176813D01*
X788520D01*
Y-1178323D01*
X790030D01*
Y-1181344D01*
X791541D01*
Y-1187387D01*
X793051D01*
Y-1190408D01*
X794562D01*
Y-1193429D01*
X796073D01*
Y-1194940D01*
X797583D01*
Y-1200982D01*
X799094D01*
Y-1202492D01*
X800604D01*
Y-1204003D01*
X802115D01*
Y-1202492D01*
X805136D01*
Y-1200982D01*
X808157D01*
Y-1199471D01*
X811178D01*
Y-1197961D01*
X815710D01*
Y-1196450D01*
X818731D01*
Y-1194940D01*
X823263D01*
Y-1193429D01*
X829305D01*
Y-1191918D01*
X832327D01*
Y-1190408D01*
X839879D01*
Y-1188897D01*
X883686D01*
Y-1190408D01*
X885197D01*
D02*
G37*
G36*
X742578Y-1531053D02*
X744338Y-1531170D01*
X747741Y-1531875D01*
X750793Y-1532813D01*
X752083Y-1533400D01*
X753257Y-1533987D01*
X754313Y-1534574D01*
X755252Y-1535160D01*
X756073Y-1535630D01*
X756777Y-1536099D01*
X757247Y-1536451D01*
X757599Y-1536803D01*
X757833Y-1536920D01*
X757951Y-1537038D01*
X759124Y-1538211D01*
X760180Y-1539385D01*
X761002Y-1540558D01*
X761823Y-1541732D01*
X762410Y-1542905D01*
X762997Y-1544079D01*
X763818Y-1546308D01*
X764288Y-1548186D01*
X764405Y-1549007D01*
X764522Y-1549711D01*
X764640Y-1550298D01*
Y-1550768D01*
Y-1551002D01*
Y-1551120D01*
X764522Y-1552997D01*
X764170Y-1554757D01*
X763818Y-1556283D01*
X763231Y-1557808D01*
X762762Y-1558982D01*
X762410Y-1559803D01*
X762058Y-1560390D01*
X761941Y-1560625D01*
X760884Y-1562150D01*
X759594Y-1563558D01*
X758420Y-1564732D01*
X757247Y-1565671D01*
X756191Y-1566375D01*
X755369Y-1566962D01*
X754782Y-1567314D01*
X754548Y-1567431D01*
X752553Y-1568252D01*
X750440Y-1569074D01*
X748093Y-1569778D01*
X745864Y-1570247D01*
X743869Y-1570717D01*
X742930Y-1570951D01*
X742226Y-1571069D01*
X741522Y-1571303D01*
X741053D01*
X740818Y-1571421D01*
X740701D01*
X739292Y-1571655D01*
X738119Y-1571890D01*
X736945Y-1572125D01*
X736007Y-1572360D01*
X734246Y-1572712D01*
X732956Y-1573064D01*
X732017Y-1573298D01*
X731430Y-1573533D01*
X731078Y-1573650D01*
X730961D01*
X729787Y-1574120D01*
X728848Y-1574707D01*
X728027Y-1575176D01*
X727323Y-1575763D01*
X726854Y-1576115D01*
X726384Y-1576467D01*
X726267Y-1576701D01*
X726149Y-1576819D01*
X725680Y-1577523D01*
X725211Y-1578110D01*
X724859Y-1579400D01*
X724741Y-1579870D01*
X724624Y-1580339D01*
Y-1580574D01*
Y-1580691D01*
X724741Y-1581747D01*
X725093Y-1582804D01*
X725680Y-1583742D01*
X726149Y-1584446D01*
X726736Y-1585150D01*
X727323Y-1585620D01*
X727675Y-1585855D01*
X727792Y-1585972D01*
X729670Y-1587145D01*
X731665Y-1587967D01*
X733660Y-1588554D01*
X735655Y-1588906D01*
X737415Y-1589140D01*
X738706Y-1589375D01*
X739996D01*
X741757Y-1589258D01*
X743400Y-1589140D01*
X744925Y-1588906D01*
X746216Y-1588554D01*
X747389Y-1588202D01*
X748211Y-1587967D01*
X748680Y-1587850D01*
X748915Y-1587732D01*
X750323Y-1587028D01*
X751497Y-1586441D01*
X752435Y-1585855D01*
X753139Y-1585268D01*
X753726Y-1584916D01*
X754078Y-1584564D01*
X754313Y-1584329D01*
X754430Y-1584212D01*
X754782Y-1583860D01*
X755017Y-1583390D01*
X755486Y-1582217D01*
X755721Y-1581747D01*
X755838Y-1581278D01*
X755956Y-1581043D01*
Y-1580926D01*
X756191Y-1580105D01*
X756543Y-1579283D01*
X756895Y-1578696D01*
X757247Y-1578227D01*
X757833Y-1577640D01*
X757951Y-1577406D01*
X758068D01*
X759124Y-1576819D01*
X760180Y-1576467D01*
X760650Y-1576349D01*
X761354D01*
X762293Y-1576467D01*
X763114Y-1576584D01*
X763818Y-1576936D01*
X764405Y-1577171D01*
X764874Y-1577523D01*
X765226Y-1577875D01*
X765344Y-1577992D01*
X765461Y-1578110D01*
X765930Y-1578814D01*
X766282Y-1579752D01*
X766752Y-1581630D01*
X766869Y-1582451D01*
X766987Y-1583156D01*
Y-1583625D01*
Y-1583860D01*
Y-1591370D01*
X766869Y-1592778D01*
X766752Y-1593952D01*
X766517Y-1594890D01*
X766165Y-1595712D01*
X765930Y-1596299D01*
X765696Y-1596768D01*
X765578Y-1597003D01*
X765461Y-1597120D01*
X764874Y-1597707D01*
X764170Y-1598059D01*
X762879Y-1598528D01*
X762293Y-1598646D01*
X761823Y-1598763D01*
X761354D01*
X760532Y-1598646D01*
X759828Y-1598528D01*
X759359Y-1598411D01*
X759242Y-1598293D01*
X758890Y-1598059D01*
X758420Y-1597707D01*
X757599Y-1597003D01*
X757012Y-1596299D01*
X756895Y-1596181D01*
X756777Y-1596064D01*
X753726Y-1597472D01*
X752318Y-1598059D01*
X751027Y-1598528D01*
X749971Y-1598880D01*
X749032Y-1599115D01*
X748563Y-1599350D01*
X748328D01*
X745042Y-1600054D01*
X743517Y-1600288D01*
X742109Y-1600406D01*
X740935D01*
X739996Y-1600523D01*
X739175D01*
X736945Y-1600406D01*
X734833Y-1600288D01*
X732838Y-1599936D01*
X731078Y-1599467D01*
X729318Y-1598998D01*
X727675Y-1598528D01*
X726149Y-1597941D01*
X724741Y-1597237D01*
X723568Y-1596651D01*
X722512Y-1596064D01*
X721573Y-1595594D01*
X720751Y-1595125D01*
X720165Y-1594656D01*
X719695Y-1594304D01*
X719461Y-1594186D01*
X719343Y-1594069D01*
X718287Y-1593130D01*
X717348Y-1592074D01*
X716644Y-1590901D01*
X715940Y-1589844D01*
X714884Y-1587615D01*
X714180Y-1585503D01*
X713828Y-1583625D01*
X713593Y-1582804D01*
Y-1582099D01*
X713476Y-1581513D01*
Y-1581043D01*
Y-1580809D01*
Y-1580691D01*
X713593Y-1578579D01*
X713945Y-1576584D01*
X714532Y-1574824D01*
X715001Y-1573416D01*
X715588Y-1572125D01*
X716175Y-1571303D01*
X716527Y-1570717D01*
X716644Y-1570482D01*
X717818Y-1568956D01*
X719109Y-1567666D01*
X720399Y-1566610D01*
X721573Y-1565671D01*
X722629Y-1564967D01*
X723450Y-1564497D01*
X724037Y-1564263D01*
X724272Y-1564145D01*
X726149Y-1563324D01*
X728262Y-1562620D01*
X730491Y-1562033D01*
X732604Y-1561446D01*
X734481Y-1560977D01*
X735303Y-1560859D01*
X736007Y-1560625D01*
X736593Y-1560507D01*
X737063D01*
X737297Y-1560390D01*
X737415D01*
X738940Y-1560038D01*
X740349Y-1559803D01*
X741522Y-1559569D01*
X742695Y-1559334D01*
X743634Y-1559099D01*
X744456Y-1558865D01*
X745864Y-1558513D01*
X746803Y-1558278D01*
X747389Y-1558043D01*
X747741Y-1557926D01*
X747859D01*
X748798Y-1557456D01*
X749736Y-1556987D01*
X750440Y-1556518D01*
X751027Y-1556048D01*
X751497Y-1555579D01*
X751849Y-1555227D01*
X751966Y-1554992D01*
X752083Y-1554875D01*
X752553Y-1554171D01*
X752905Y-1553349D01*
X753257Y-1552176D01*
X753374Y-1551589D01*
X753492Y-1551237D01*
Y-1551002D01*
Y-1550885D01*
X753374Y-1549711D01*
X752905Y-1548655D01*
X752435Y-1547716D01*
X751731Y-1546778D01*
X751145Y-1546074D01*
X750558Y-1545487D01*
X750206Y-1545135D01*
X750088Y-1545017D01*
X748680Y-1544079D01*
X747037Y-1543375D01*
X745512Y-1542788D01*
X743986Y-1542436D01*
X742578Y-1542201D01*
X741522Y-1542084D01*
X740466D01*
X738940Y-1542201D01*
X737650Y-1542318D01*
X736359Y-1542553D01*
X735303Y-1542788D01*
X734364Y-1543140D01*
X733777Y-1543375D01*
X733308Y-1543492D01*
X733190Y-1543609D01*
X732017Y-1544196D01*
X731078Y-1544783D01*
X730257Y-1545252D01*
X729553Y-1545839D01*
X729083Y-1546308D01*
X728731Y-1546660D01*
X728496Y-1546895D01*
X728379Y-1547012D01*
X728027Y-1547599D01*
X727792Y-1548186D01*
X727323Y-1549594D01*
X727206Y-1550181D01*
X727088Y-1550650D01*
X726971Y-1551002D01*
Y-1551120D01*
X726736Y-1552058D01*
X726384Y-1552880D01*
X726032Y-1553467D01*
X725797Y-1553936D01*
X725445Y-1554288D01*
X725328Y-1554523D01*
X725093Y-1554757D01*
X723920Y-1555461D01*
X722746Y-1555814D01*
X722160D01*
X721808Y-1555931D01*
X721456D01*
X720517Y-1555814D01*
X719813Y-1555696D01*
X718522Y-1555109D01*
X718052Y-1554757D01*
X717700Y-1554523D01*
X717583Y-1554405D01*
X717466Y-1554288D01*
X716879Y-1553584D01*
X716527Y-1552645D01*
X716057Y-1550768D01*
X715940Y-1549946D01*
X715823Y-1549242D01*
Y-1548655D01*
Y-1548538D01*
Y-1540089D01*
X715940Y-1538681D01*
X716057Y-1537507D01*
X716292Y-1536568D01*
X716644Y-1535747D01*
X716996Y-1535160D01*
X717231Y-1534691D01*
X717348Y-1534456D01*
X717466Y-1534339D01*
X718052Y-1533752D01*
X718756Y-1533283D01*
X719461Y-1533048D01*
X720047Y-1532813D01*
X720634Y-1532696D01*
X721103Y-1532579D01*
X721573D01*
X722394Y-1532696D01*
X723216Y-1532931D01*
X724624Y-1533635D01*
X725093Y-1534104D01*
X725563Y-1534456D01*
X725797Y-1534691D01*
X725915Y-1534808D01*
X728262Y-1533517D01*
X729435Y-1533048D01*
X730491Y-1532696D01*
X731313Y-1532344D01*
X732134Y-1532109D01*
X732604Y-1531992D01*
X732721D01*
X735537Y-1531405D01*
X736828Y-1531170D01*
X738002Y-1531053D01*
X739058Y-1530936D01*
X740583D01*
X742578Y-1531053D01*
D02*
G37*
G36*
X406963D02*
X408723Y-1531170D01*
X412126Y-1531875D01*
X415177Y-1532813D01*
X416468Y-1533400D01*
X417642Y-1533987D01*
X418698Y-1534574D01*
X419636Y-1535160D01*
X420458Y-1535630D01*
X421162Y-1536099D01*
X421631Y-1536451D01*
X421983Y-1536803D01*
X422218Y-1536920D01*
X422335Y-1537038D01*
X423509Y-1538211D01*
X424565Y-1539385D01*
X425387Y-1540558D01*
X426208Y-1541732D01*
X426795Y-1542905D01*
X427381Y-1544079D01*
X428203Y-1546308D01*
X428672Y-1548186D01*
X428790Y-1549007D01*
X428907Y-1549711D01*
X429024Y-1550298D01*
Y-1550768D01*
Y-1551002D01*
Y-1551120D01*
X428907Y-1552997D01*
X428555Y-1554757D01*
X428203Y-1556283D01*
X427616Y-1557808D01*
X427147Y-1558982D01*
X426795Y-1559803D01*
X426443Y-1560390D01*
X426325Y-1560625D01*
X425269Y-1562150D01*
X423978Y-1563558D01*
X422805Y-1564732D01*
X421631Y-1565671D01*
X420575Y-1566375D01*
X419754Y-1566962D01*
X419167Y-1567314D01*
X418932Y-1567431D01*
X416937Y-1568252D01*
X414825Y-1569074D01*
X412478Y-1569778D01*
X410249Y-1570247D01*
X408254Y-1570717D01*
X407315Y-1570951D01*
X406611Y-1571069D01*
X405907Y-1571303D01*
X405437D01*
X405203Y-1571421D01*
X405085D01*
X403677Y-1571655D01*
X402504Y-1571890D01*
X401330Y-1572125D01*
X400391Y-1572360D01*
X398631Y-1572712D01*
X397340Y-1573064D01*
X396402Y-1573298D01*
X395815Y-1573533D01*
X395463Y-1573650D01*
X395345D01*
X394172Y-1574120D01*
X393233Y-1574707D01*
X392412Y-1575176D01*
X391708Y-1575763D01*
X391238Y-1576115D01*
X390769Y-1576467D01*
X390651Y-1576701D01*
X390534Y-1576819D01*
X390065Y-1577523D01*
X389595Y-1578110D01*
X389243Y-1579400D01*
X389126Y-1579870D01*
X389009Y-1580339D01*
Y-1580574D01*
Y-1580691D01*
X389126Y-1581747D01*
X389478Y-1582804D01*
X390065Y-1583742D01*
X390534Y-1584446D01*
X391121Y-1585150D01*
X391708Y-1585620D01*
X392060Y-1585855D01*
X392177Y-1585972D01*
X394055Y-1587145D01*
X396049Y-1587967D01*
X398044Y-1588554D01*
X400039Y-1588906D01*
X401800Y-1589140D01*
X403090Y-1589375D01*
X404381D01*
X406141Y-1589258D01*
X407784Y-1589140D01*
X409310Y-1588906D01*
X410601Y-1588554D01*
X411774Y-1588202D01*
X412596Y-1587967D01*
X413065Y-1587850D01*
X413300Y-1587732D01*
X414708Y-1587028D01*
X415881Y-1586441D01*
X416820Y-1585855D01*
X417524Y-1585268D01*
X418111Y-1584916D01*
X418463Y-1584564D01*
X418698Y-1584329D01*
X418815Y-1584212D01*
X419167Y-1583860D01*
X419402Y-1583390D01*
X419871Y-1582217D01*
X420106Y-1581747D01*
X420223Y-1581278D01*
X420341Y-1581043D01*
Y-1580926D01*
X420575Y-1580105D01*
X420927Y-1579283D01*
X421279Y-1578696D01*
X421631Y-1578227D01*
X422218Y-1577640D01*
X422335Y-1577406D01*
X422453D01*
X423509Y-1576819D01*
X424565Y-1576467D01*
X425034Y-1576349D01*
X425739D01*
X426677Y-1576467D01*
X427499Y-1576584D01*
X428203Y-1576936D01*
X428790Y-1577171D01*
X429259Y-1577523D01*
X429611Y-1577875D01*
X429728Y-1577992D01*
X429846Y-1578110D01*
X430315Y-1578814D01*
X430667Y-1579752D01*
X431137Y-1581630D01*
X431254Y-1582451D01*
X431371Y-1583156D01*
Y-1583625D01*
Y-1583860D01*
Y-1591370D01*
X431254Y-1592778D01*
X431137Y-1593952D01*
X430902Y-1594890D01*
X430550Y-1595712D01*
X430315Y-1596299D01*
X430080Y-1596768D01*
X429963Y-1597003D01*
X429846Y-1597120D01*
X429259Y-1597707D01*
X428555Y-1598059D01*
X427264Y-1598528D01*
X426677Y-1598646D01*
X426208Y-1598763D01*
X425739D01*
X424917Y-1598646D01*
X424213Y-1598528D01*
X423744Y-1598411D01*
X423626Y-1598293D01*
X423274Y-1598059D01*
X422805Y-1597707D01*
X421983Y-1597003D01*
X421397Y-1596299D01*
X421279Y-1596181D01*
X421162Y-1596064D01*
X418111Y-1597472D01*
X416703Y-1598059D01*
X415412Y-1598528D01*
X414356Y-1598880D01*
X413417Y-1599115D01*
X412948Y-1599350D01*
X412713D01*
X409427Y-1600054D01*
X407902Y-1600288D01*
X406493Y-1600406D01*
X405320D01*
X404381Y-1600523D01*
X403560D01*
X401330Y-1600406D01*
X399218Y-1600288D01*
X397223Y-1599936D01*
X395463Y-1599467D01*
X393703Y-1598998D01*
X392060Y-1598528D01*
X390534Y-1597941D01*
X389126Y-1597237D01*
X387952Y-1596651D01*
X386896Y-1596064D01*
X385958Y-1595594D01*
X385136Y-1595125D01*
X384549Y-1594656D01*
X384080Y-1594304D01*
X383845Y-1594186D01*
X383728Y-1594069D01*
X382672Y-1593130D01*
X381733Y-1592074D01*
X381029Y-1590901D01*
X380325Y-1589844D01*
X379269Y-1587615D01*
X378565Y-1585503D01*
X378213Y-1583625D01*
X377978Y-1582804D01*
Y-1582099D01*
X377861Y-1581513D01*
Y-1581043D01*
Y-1580809D01*
Y-1580691D01*
X377978Y-1578579D01*
X378330Y-1576584D01*
X378917Y-1574824D01*
X379386Y-1573416D01*
X379973Y-1572125D01*
X380560Y-1571303D01*
X380912Y-1570717D01*
X381029Y-1570482D01*
X382202Y-1568956D01*
X383493Y-1567666D01*
X384784Y-1566610D01*
X385958Y-1565671D01*
X387014Y-1564967D01*
X387835Y-1564497D01*
X388422Y-1564263D01*
X388657Y-1564145D01*
X390534Y-1563324D01*
X392646Y-1562620D01*
X394876Y-1562033D01*
X396988Y-1561446D01*
X398866Y-1560977D01*
X399687Y-1560859D01*
X400391Y-1560625D01*
X400978Y-1560507D01*
X401448D01*
X401682Y-1560390D01*
X401800D01*
X403325Y-1560038D01*
X404733Y-1559803D01*
X405907Y-1559569D01*
X407080Y-1559334D01*
X408019Y-1559099D01*
X408840Y-1558865D01*
X410249Y-1558513D01*
X411187Y-1558278D01*
X411774Y-1558043D01*
X412126Y-1557926D01*
X412244D01*
X413182Y-1557456D01*
X414121Y-1556987D01*
X414825Y-1556518D01*
X415412Y-1556048D01*
X415881Y-1555579D01*
X416233Y-1555227D01*
X416351Y-1554992D01*
X416468Y-1554875D01*
X416937Y-1554171D01*
X417289Y-1553349D01*
X417642Y-1552176D01*
X417759Y-1551589D01*
X417876Y-1551237D01*
Y-1551002D01*
Y-1550885D01*
X417759Y-1549711D01*
X417289Y-1548655D01*
X416820Y-1547716D01*
X416116Y-1546778D01*
X415529Y-1546074D01*
X414943Y-1545487D01*
X414590Y-1545135D01*
X414473Y-1545017D01*
X413065Y-1544079D01*
X411422Y-1543375D01*
X409897Y-1542788D01*
X408371Y-1542436D01*
X406963Y-1542201D01*
X405907Y-1542084D01*
X404851D01*
X403325Y-1542201D01*
X402034Y-1542318D01*
X400743Y-1542553D01*
X399687Y-1542788D01*
X398749Y-1543140D01*
X398162Y-1543375D01*
X397692Y-1543492D01*
X397575Y-1543609D01*
X396402Y-1544196D01*
X395463Y-1544783D01*
X394641Y-1545252D01*
X393937Y-1545839D01*
X393468Y-1546308D01*
X393116Y-1546660D01*
X392881Y-1546895D01*
X392764Y-1547012D01*
X392412Y-1547599D01*
X392177Y-1548186D01*
X391708Y-1549594D01*
X391590Y-1550181D01*
X391473Y-1550650D01*
X391356Y-1551002D01*
Y-1551120D01*
X391121Y-1552058D01*
X390769Y-1552880D01*
X390417Y-1553467D01*
X390182Y-1553936D01*
X389830Y-1554288D01*
X389713Y-1554523D01*
X389478Y-1554757D01*
X388305Y-1555461D01*
X387131Y-1555814D01*
X386544D01*
X386192Y-1555931D01*
X385840D01*
X384901Y-1555814D01*
X384197Y-1555696D01*
X382907Y-1555109D01*
X382437Y-1554757D01*
X382085Y-1554523D01*
X381968Y-1554405D01*
X381850Y-1554288D01*
X381264Y-1553584D01*
X380912Y-1552645D01*
X380442Y-1550768D01*
X380325Y-1549946D01*
X380208Y-1549242D01*
Y-1548655D01*
Y-1548538D01*
Y-1540089D01*
X380325Y-1538681D01*
X380442Y-1537507D01*
X380677Y-1536568D01*
X381029Y-1535747D01*
X381381Y-1535160D01*
X381616Y-1534691D01*
X381733Y-1534456D01*
X381850Y-1534339D01*
X382437Y-1533752D01*
X383141Y-1533283D01*
X383845Y-1533048D01*
X384432Y-1532813D01*
X385019Y-1532696D01*
X385488Y-1532579D01*
X385958D01*
X386779Y-1532696D01*
X387600Y-1532931D01*
X389009Y-1533635D01*
X389478Y-1534104D01*
X389947Y-1534456D01*
X390182Y-1534691D01*
X390299Y-1534808D01*
X392646Y-1533517D01*
X393820Y-1533048D01*
X394876Y-1532696D01*
X395697Y-1532344D01*
X396519Y-1532109D01*
X396988Y-1531992D01*
X397106D01*
X399922Y-1531405D01*
X401213Y-1531170D01*
X402386Y-1531053D01*
X403442Y-1530936D01*
X404968D01*
X406963Y-1531053D01*
D02*
G37*
G36*
X-62781Y-1531053D02*
X-59847Y-1531523D01*
X-57266Y-1532227D01*
X-55036Y-1532931D01*
X-53041Y-1533752D01*
X-52337Y-1534104D01*
X-51633Y-1534339D01*
X-51046Y-1534691D01*
X-50694Y-1534808D01*
X-50460Y-1535043D01*
X-50342D01*
X-47761Y-1536686D01*
X-45531Y-1538564D01*
X-43653Y-1540559D01*
X-42011Y-1542436D01*
X-40720Y-1544196D01*
X-39781Y-1545487D01*
X-39546Y-1546074D01*
X-39312Y-1546426D01*
X-39077Y-1546661D01*
Y-1546778D01*
X-37786Y-1549594D01*
X-36730Y-1552528D01*
X-36026Y-1555227D01*
X-35556Y-1557691D01*
X-35439Y-1558865D01*
X-35322Y-1559921D01*
X-35204Y-1560860D01*
Y-1561564D01*
X-35087Y-1562268D01*
Y-1562737D01*
Y-1562972D01*
Y-1563089D01*
Y-1570717D01*
X-35322Y-1573768D01*
X-35791Y-1576702D01*
X-36495Y-1579283D01*
X-37317Y-1581630D01*
X-38138Y-1583508D01*
X-38490Y-1584329D01*
X-38842Y-1584916D01*
X-39194Y-1585503D01*
X-39312Y-1585855D01*
X-39546Y-1586090D01*
Y-1586207D01*
X-41306Y-1588671D01*
X-43184Y-1590783D01*
X-45062Y-1592544D01*
X-46822Y-1593952D01*
X-48347Y-1595125D01*
X-49521Y-1595947D01*
X-49990Y-1596181D01*
X-50342Y-1596416D01*
X-50460Y-1596534D01*
X-50577D01*
X-53628Y-1597824D01*
X-56679Y-1598880D01*
X-59730Y-1599585D01*
X-62546Y-1600054D01*
X-63720Y-1600171D01*
X-64893Y-1600289D01*
X-65832Y-1600406D01*
X-66771D01*
X-67475Y-1600523D01*
X-68414D01*
X-71582Y-1600406D01*
X-74516Y-1600054D01*
X-77098Y-1599585D01*
X-79445Y-1598998D01*
X-81322Y-1598528D01*
X-82144Y-1598294D01*
X-82848Y-1598059D01*
X-83317Y-1597824D01*
X-83669Y-1597707D01*
X-83904Y-1597590D01*
X-84021D01*
X-85899Y-1596768D01*
X-87542Y-1595712D01*
X-89067Y-1594773D01*
X-90241Y-1593835D01*
X-91297Y-1592896D01*
X-92001Y-1592192D01*
X-92470Y-1591722D01*
X-92588Y-1591605D01*
X-93409Y-1590666D01*
X-93996Y-1589727D01*
X-94348Y-1588906D01*
X-94700Y-1588202D01*
X-94817Y-1587498D01*
X-94935Y-1587028D01*
Y-1586794D01*
Y-1586676D01*
X-94817Y-1585855D01*
X-94700Y-1585033D01*
X-94113Y-1583743D01*
X-93761Y-1583273D01*
X-93409Y-1582921D01*
X-93292Y-1582804D01*
X-93174Y-1582686D01*
X-92588Y-1582100D01*
X-91883Y-1581630D01*
X-91179Y-1581396D01*
X-90593Y-1581161D01*
X-90123Y-1581044D01*
X-89654Y-1580926D01*
X-89302D01*
X-88363Y-1581044D01*
X-87659Y-1581161D01*
X-87190Y-1581396D01*
X-86955Y-1581513D01*
X-86603Y-1581748D01*
X-86133Y-1582100D01*
X-85312Y-1582804D01*
X-84608Y-1583508D01*
X-84373Y-1583625D01*
X-84256Y-1583743D01*
X-83200Y-1584799D01*
X-82261Y-1585620D01*
X-81322Y-1586324D01*
X-80618Y-1586794D01*
X-79914Y-1587263D01*
X-79445Y-1587498D01*
X-79093Y-1587732D01*
X-78975D01*
X-77332Y-1588319D01*
X-75455Y-1588671D01*
X-73695Y-1589023D01*
X-72052Y-1589141D01*
X-70643Y-1589258D01*
X-69470Y-1589375D01*
X-68414D01*
X-66536Y-1589258D01*
X-64776Y-1589141D01*
X-61490Y-1588554D01*
X-59965Y-1588084D01*
X-58674Y-1587615D01*
X-57501Y-1587146D01*
X-56327Y-1586676D01*
X-55388Y-1586207D01*
X-54567Y-1585737D01*
X-53745Y-1585268D01*
X-53159Y-1584799D01*
X-52689Y-1584447D01*
X-52337Y-1584212D01*
X-52220Y-1583977D01*
X-52103D01*
X-51046Y-1582921D01*
X-50225Y-1581865D01*
X-49404Y-1580692D01*
X-48699Y-1579635D01*
X-47643Y-1577288D01*
X-46939Y-1575176D01*
X-46587Y-1573299D01*
X-46470Y-1572477D01*
X-46352Y-1571773D01*
X-46235Y-1571304D01*
Y-1570834D01*
Y-1570600D01*
Y-1570482D01*
Y-1563207D01*
X-46352Y-1560742D01*
X-46705Y-1558513D01*
X-47291Y-1556518D01*
X-47878Y-1554758D01*
X-48347Y-1553349D01*
X-48934Y-1552293D01*
X-49286Y-1551707D01*
X-49404Y-1551472D01*
X-50694Y-1549712D01*
X-51985Y-1548303D01*
X-53159Y-1547013D01*
X-54332Y-1546074D01*
X-55271Y-1545252D01*
X-56092Y-1544783D01*
X-56562Y-1544431D01*
X-56796Y-1544314D01*
X-58439Y-1543610D01*
X-60082Y-1543023D01*
X-61608Y-1542671D01*
X-63016Y-1542319D01*
X-64307Y-1542201D01*
X-65245Y-1542084D01*
X-66067D01*
X-67592Y-1542201D01*
X-69118Y-1542319D01*
X-70409Y-1542553D01*
X-71700Y-1542788D01*
X-72638Y-1543140D01*
X-73460Y-1543375D01*
X-74047Y-1543492D01*
X-74164Y-1543610D01*
X-75572Y-1544196D01*
X-76863Y-1544900D01*
X-77919Y-1545487D01*
X-78741Y-1546191D01*
X-79445Y-1546778D01*
X-80031Y-1547130D01*
X-80266Y-1547482D01*
X-80383Y-1547599D01*
X-81087Y-1548656D01*
X-81674Y-1549829D01*
X-81792Y-1550298D01*
X-81909Y-1550768D01*
X-82026Y-1551002D01*
Y-1551120D01*
X-82261Y-1552293D01*
X-82613Y-1553232D01*
X-82965Y-1554054D01*
X-83200Y-1554758D01*
X-83552Y-1555227D01*
X-83786Y-1555579D01*
X-84021Y-1555696D01*
Y-1555814D01*
X-85077Y-1556518D01*
X-86251Y-1556870D01*
X-86720D01*
X-87190Y-1556987D01*
X-87542D01*
X-88480Y-1556870D01*
X-89184Y-1556753D01*
X-90475Y-1556166D01*
X-90945Y-1555814D01*
X-91297Y-1555579D01*
X-91414Y-1555462D01*
X-91531Y-1555344D01*
X-92118Y-1554640D01*
X-92470Y-1553701D01*
X-92940Y-1551824D01*
X-93057Y-1551002D01*
X-93174Y-1550298D01*
Y-1549712D01*
Y-1549594D01*
Y-1540089D01*
X-93057Y-1538681D01*
X-92940Y-1537507D01*
X-92705Y-1536451D01*
X-92353Y-1535630D01*
X-92001Y-1535043D01*
X-91766Y-1534691D01*
X-91649Y-1534456D01*
X-91531Y-1534339D01*
X-90945Y-1533752D01*
X-90241Y-1533283D01*
X-89654Y-1533048D01*
X-88950Y-1532814D01*
X-88363Y-1532696D01*
X-88011Y-1532579D01*
X-87542D01*
X-86485Y-1532696D01*
X-85664Y-1532931D01*
X-85077Y-1533283D01*
X-84960Y-1533400D01*
X-84843D01*
X-84021Y-1533987D01*
X-83317Y-1534691D01*
X-82848Y-1535278D01*
X-82730Y-1535395D01*
Y-1535513D01*
X-79914Y-1533987D01*
X-78506Y-1533400D01*
X-77332Y-1532931D01*
X-76276Y-1532579D01*
X-75455Y-1532344D01*
X-74985Y-1532109D01*
X-74751D01*
X-71582Y-1531405D01*
X-70057Y-1531171D01*
X-68649Y-1531053D01*
X-67475Y-1530936D01*
X-65715D01*
X-62781Y-1531053D01*
D02*
G37*
G36*
X615490Y-1539737D02*
X602113D01*
Y-1527885D01*
X615490D01*
Y-1539737D01*
D02*
G37*
G36*
X699277Y-1528002D02*
X700568Y-1528119D01*
X701624Y-1528354D01*
X702445Y-1528706D01*
X703032Y-1529058D01*
X703501Y-1529293D01*
X703736Y-1529410D01*
X703853Y-1529528D01*
X704440Y-1530114D01*
X704792Y-1530818D01*
X705261Y-1532109D01*
X705379Y-1532696D01*
X705496Y-1533048D01*
Y-1533400D01*
Y-1533517D01*
X705379Y-1534339D01*
X705261Y-1535160D01*
X704675Y-1536451D01*
X704323Y-1536920D01*
X704088Y-1537273D01*
X703971Y-1537390D01*
X703853Y-1537507D01*
X703032Y-1537977D01*
X702210Y-1538329D01*
X700216Y-1538798D01*
X699277Y-1538915D01*
X698573Y-1539033D01*
X695991D01*
Y-1587615D01*
X697399D01*
X698573Y-1587732D01*
X699511Y-1587967D01*
X700216Y-1588084D01*
X700802Y-1588319D01*
X701154Y-1588554D01*
X701272Y-1588671D01*
X701389D01*
X702093Y-1589492D01*
X702680Y-1590314D01*
X703032Y-1591018D01*
X703384Y-1591722D01*
X703501Y-1592309D01*
X703619Y-1592778D01*
Y-1593130D01*
Y-1593248D01*
X703501Y-1594069D01*
X703384Y-1594890D01*
X702797Y-1596181D01*
X702445Y-1596651D01*
X702210Y-1597003D01*
X702093Y-1597120D01*
X701976Y-1597237D01*
X701154Y-1597707D01*
X700333Y-1598059D01*
X698338Y-1598528D01*
X697399Y-1598646D01*
X696695Y-1598763D01*
X684843D01*
X683435Y-1598646D01*
X682144Y-1598528D01*
X681205Y-1598293D01*
X680384Y-1597941D01*
X679797Y-1597707D01*
X679328Y-1597472D01*
X679093Y-1597355D01*
X678976Y-1597237D01*
X678389Y-1596651D01*
X677919Y-1595947D01*
X677685Y-1595242D01*
X677450Y-1594656D01*
X677333Y-1594069D01*
X677215Y-1593600D01*
Y-1593365D01*
Y-1593248D01*
X677333Y-1592309D01*
X677567Y-1591487D01*
X678389Y-1590079D01*
X678858Y-1589492D01*
X679210Y-1589023D01*
X679445Y-1588788D01*
X679562Y-1588671D01*
X680149Y-1588319D01*
X680853Y-1588084D01*
X682613Y-1587732D01*
X683435Y-1587615D01*
X684843D01*
Y-1566610D01*
X683083Y-1564967D01*
X681557Y-1563558D01*
X680266Y-1562502D01*
X679210Y-1561681D01*
X678271Y-1561094D01*
X677685Y-1560625D01*
X677215Y-1560507D01*
X677098Y-1560390D01*
X675924Y-1559921D01*
X674868Y-1559451D01*
X673695Y-1559217D01*
X672756Y-1559099D01*
X671817Y-1558982D01*
X671113Y-1558865D01*
X670526D01*
X668649Y-1558982D01*
X667123Y-1559217D01*
X665833Y-1559686D01*
X664659Y-1560038D01*
X663838Y-1560507D01*
X663251Y-1560977D01*
X662899Y-1561212D01*
X662782Y-1561329D01*
X662077Y-1562033D01*
X661608Y-1562972D01*
X661256Y-1563911D01*
X661021Y-1564967D01*
X660904Y-1565905D01*
X660787Y-1566610D01*
Y-1567079D01*
Y-1567314D01*
Y-1587615D01*
X662195D01*
X663368Y-1587732D01*
X664307Y-1587967D01*
X665011Y-1588084D01*
X665598Y-1588319D01*
X665950Y-1588554D01*
X666067Y-1588671D01*
X666185D01*
X666889Y-1589492D01*
X667475Y-1590314D01*
X667827Y-1591018D01*
X668180Y-1591722D01*
X668297Y-1592309D01*
X668414Y-1592778D01*
Y-1593130D01*
Y-1593248D01*
X668297Y-1594069D01*
X668180Y-1594890D01*
X667593Y-1596181D01*
X667241Y-1596651D01*
X667006Y-1597003D01*
X666889Y-1597120D01*
X666771Y-1597237D01*
X665950Y-1597707D01*
X665128Y-1598059D01*
X663134Y-1598528D01*
X662195Y-1598646D01*
X661491Y-1598763D01*
X649639D01*
X648230Y-1598646D01*
X646940Y-1598528D01*
X646001Y-1598293D01*
X645179Y-1597941D01*
X644593Y-1597707D01*
X644123Y-1597472D01*
X643888Y-1597355D01*
X643771Y-1597237D01*
X643184Y-1596651D01*
X642715Y-1595947D01*
X642480Y-1595242D01*
X642246Y-1594656D01*
X642128Y-1594069D01*
X642011Y-1593600D01*
Y-1593365D01*
Y-1593248D01*
X642128Y-1592309D01*
X642363Y-1591487D01*
X643184Y-1590079D01*
X643654Y-1589492D01*
X644006Y-1589023D01*
X644241Y-1588788D01*
X644358Y-1588671D01*
X644945Y-1588319D01*
X645649Y-1588084D01*
X647409Y-1587732D01*
X648230Y-1587615D01*
X649639D01*
Y-1566610D01*
X649756Y-1564263D01*
X650108Y-1562268D01*
X650577Y-1560390D01*
X651164Y-1558865D01*
X651751Y-1557574D01*
X652220Y-1556635D01*
X652572Y-1556166D01*
X652690Y-1555931D01*
X653863Y-1554405D01*
X655154Y-1553114D01*
X656327Y-1552058D01*
X657501Y-1551237D01*
X658557Y-1550533D01*
X659378Y-1550063D01*
X659965Y-1549829D01*
X660200Y-1549711D01*
X661960Y-1549007D01*
X663720Y-1548538D01*
X665481Y-1548186D01*
X667123Y-1547951D01*
X668414Y-1547834D01*
X669588Y-1547716D01*
X670526D01*
X673225Y-1547834D01*
X674516Y-1548069D01*
X675572Y-1548186D01*
X676511Y-1548421D01*
X677333Y-1548655D01*
X677802Y-1548773D01*
X677919D01*
X680501Y-1549711D01*
X681675Y-1550181D01*
X682731Y-1550650D01*
X683552Y-1551120D01*
X684256Y-1551472D01*
X684726Y-1551706D01*
X684843Y-1551824D01*
Y-1527885D01*
X697869D01*
X699277Y-1528002D01*
D02*
G37*
G36*
X206767Y-1547834D02*
X208058Y-1547951D01*
X209349Y-1548069D01*
X210405Y-1548186D01*
X211226Y-1548303D01*
X211696Y-1548421D01*
X211930D01*
X215099Y-1549007D01*
X216507Y-1549359D01*
X217798Y-1549594D01*
X218854Y-1549829D01*
X219675Y-1550063D01*
X220145Y-1550298D01*
X220380D01*
X221436Y-1550650D01*
X222257Y-1550885D01*
X222961Y-1551120D01*
X223548Y-1551354D01*
X224017Y-1551589D01*
X224252Y-1551706D01*
X224487Y-1551824D01*
X225073Y-1552293D01*
X225543Y-1552880D01*
X225895Y-1553232D01*
X226012Y-1553467D01*
X226247Y-1554288D01*
X226364Y-1555109D01*
X226482Y-1555696D01*
Y-1555814D01*
Y-1555931D01*
X226364Y-1556870D01*
X226247Y-1557574D01*
X225660Y-1558865D01*
X225426Y-1559334D01*
X225191Y-1559686D01*
X225073Y-1559921D01*
X224956Y-1560038D01*
X224369Y-1560507D01*
X223665Y-1560859D01*
X222492Y-1561329D01*
X222022Y-1561446D01*
X221553Y-1561564D01*
X220497D01*
X219793Y-1561446D01*
X218267Y-1561212D01*
X217681Y-1561094D01*
X217094Y-1560977D01*
X216742Y-1560859D01*
X216624D01*
X213808Y-1560155D01*
X211226Y-1559686D01*
X208997Y-1559334D01*
X207119Y-1559099D01*
X205711Y-1558982D01*
X204655Y-1558865D01*
X203716D01*
X201604Y-1558982D01*
X199844Y-1559099D01*
X198435Y-1559334D01*
X197262Y-1559686D01*
X196441Y-1560038D01*
X195971Y-1560273D01*
X195619Y-1560390D01*
X195502Y-1560507D01*
X194798Y-1561212D01*
X194211Y-1561798D01*
X193859Y-1562620D01*
X193507Y-1563206D01*
X193390Y-1563793D01*
X193272Y-1564263D01*
Y-1564615D01*
Y-1564732D01*
Y-1567431D01*
X195736Y-1567079D01*
X197966Y-1566727D01*
X199961Y-1566492D01*
X201721Y-1566375D01*
X203129Y-1566257D01*
X205124D01*
X207471Y-1566375D01*
X209584Y-1566492D01*
X211696Y-1566844D01*
X213573Y-1567196D01*
X215334Y-1567666D01*
X216976Y-1568135D01*
X218502Y-1568722D01*
X219793Y-1569309D01*
X220966Y-1569895D01*
X222022Y-1570482D01*
X222961Y-1570951D01*
X223665Y-1571421D01*
X224252Y-1571773D01*
X224604Y-1572125D01*
X224839Y-1572242D01*
X224956Y-1572360D01*
X226247Y-1573533D01*
X227303Y-1574589D01*
X228242Y-1575763D01*
X229063Y-1576936D01*
X229767Y-1577992D01*
X230354Y-1579048D01*
X231176Y-1581043D01*
X231762Y-1582804D01*
X231997Y-1584094D01*
X232114Y-1584564D01*
Y-1584916D01*
Y-1585150D01*
Y-1585268D01*
X231997Y-1586324D01*
X231880Y-1587380D01*
X231176Y-1589375D01*
X230354Y-1591135D01*
X229298Y-1592778D01*
X228242Y-1594069D01*
X227303Y-1595008D01*
X226716Y-1595594D01*
X226599Y-1595829D01*
X226482D01*
X224252Y-1597355D01*
X221788Y-1598528D01*
X219441Y-1599350D01*
X217094Y-1599936D01*
X215099Y-1600288D01*
X214160Y-1600406D01*
X213456D01*
X212752Y-1600523D01*
X211930D01*
X208645Y-1600406D01*
X207119Y-1600171D01*
X205711Y-1599936D01*
X204420Y-1599819D01*
X203481Y-1599584D01*
X202895Y-1599467D01*
X202660D01*
X200782Y-1598998D01*
X199022Y-1598528D01*
X197379Y-1597941D01*
X195971Y-1597472D01*
X194915Y-1596885D01*
X193976Y-1596533D01*
X193507Y-1596299D01*
X193272Y-1596181D01*
Y-1598763D01*
X180247D01*
X178838Y-1598646D01*
X177548Y-1598528D01*
X176609Y-1598293D01*
X175787Y-1597941D01*
X175201Y-1597707D01*
X174731Y-1597472D01*
X174496Y-1597355D01*
X174379Y-1597237D01*
X173792Y-1596651D01*
X173323Y-1595947D01*
X173088Y-1595242D01*
X172854Y-1594656D01*
X172736Y-1594069D01*
X172619Y-1593600D01*
Y-1593365D01*
Y-1593248D01*
X172736Y-1592309D01*
X172854Y-1591605D01*
X173440Y-1590314D01*
X173792Y-1589844D01*
X174144Y-1589492D01*
X174262Y-1589375D01*
X174379Y-1589258D01*
X175083Y-1588671D01*
X176022Y-1588319D01*
X178017Y-1587850D01*
X178838Y-1587732D01*
X179542Y-1587615D01*
X182124D01*
Y-1564615D01*
X182241Y-1563206D01*
X182359Y-1561798D01*
X183063Y-1559334D01*
X184002Y-1557222D01*
X185058Y-1555461D01*
X186114Y-1554171D01*
X187053Y-1553114D01*
X187757Y-1552528D01*
X187874Y-1552293D01*
X187991D01*
X190338Y-1550768D01*
X192920Y-1549594D01*
X195619Y-1548773D01*
X198201Y-1548303D01*
X200548Y-1547951D01*
X201487Y-1547834D01*
X202308D01*
X203129Y-1547716D01*
X204068D01*
X206767Y-1547834D01*
D02*
G37*
G36*
X-507295Y-1549242D02*
X-506005Y-1549360D01*
X-504948Y-1549594D01*
X-504127Y-1549946D01*
X-503540Y-1550298D01*
X-503071Y-1550533D01*
X-502836Y-1550650D01*
X-502719Y-1550768D01*
X-502132Y-1551355D01*
X-501780Y-1552059D01*
X-501311Y-1553349D01*
X-501193Y-1553936D01*
X-501076Y-1554288D01*
Y-1554640D01*
Y-1554758D01*
X-501193Y-1555579D01*
X-501311Y-1556400D01*
X-501897Y-1557691D01*
X-502249Y-1558161D01*
X-502484Y-1558513D01*
X-502601Y-1558630D01*
X-502719Y-1558747D01*
X-503540Y-1559217D01*
X-504362Y-1559569D01*
X-506357Y-1560038D01*
X-507295Y-1560156D01*
X-507999Y-1560273D01*
X-510346D01*
X-529122Y-1598763D01*
X-540857D01*
X-559633Y-1560273D01*
X-561510D01*
X-563036Y-1560156D01*
X-564209Y-1560038D01*
X-565265Y-1559804D01*
X-566087Y-1559452D01*
X-566673Y-1559217D01*
X-567143Y-1558982D01*
X-567378Y-1558865D01*
X-567495Y-1558747D01*
X-568082Y-1558161D01*
X-568551Y-1557457D01*
X-568786Y-1556753D01*
X-569020Y-1556166D01*
X-569138Y-1555579D01*
X-569255Y-1555110D01*
Y-1554875D01*
Y-1554758D01*
X-569138Y-1553819D01*
X-569020Y-1553115D01*
X-568434Y-1551824D01*
X-568082Y-1551355D01*
X-567730Y-1551002D01*
X-567612Y-1550885D01*
X-567495Y-1550768D01*
X-566791Y-1550181D01*
X-565852Y-1549829D01*
X-563857Y-1549360D01*
X-562918Y-1549242D01*
X-562214Y-1549125D01*
X-547194D01*
X-545786Y-1549242D01*
X-544495Y-1549360D01*
X-543556Y-1549594D01*
X-542734Y-1549946D01*
X-542148Y-1550298D01*
X-541678Y-1550533D01*
X-541444Y-1550650D01*
X-541326Y-1550768D01*
X-540740Y-1551355D01*
X-540388Y-1552059D01*
X-539918Y-1553349D01*
X-539801Y-1553936D01*
X-539683Y-1554288D01*
Y-1554640D01*
Y-1554758D01*
X-539801Y-1555696D01*
X-540035Y-1556518D01*
X-540857Y-1557926D01*
X-541326Y-1558513D01*
X-541678Y-1558982D01*
X-541913Y-1559217D01*
X-542030Y-1559334D01*
X-542617Y-1559686D01*
X-543321Y-1559921D01*
X-544143Y-1560038D01*
X-544964Y-1560156D01*
X-545786Y-1560273D01*
X-547194D01*
X-534990Y-1585385D01*
X-522785Y-1560273D01*
X-524194D01*
X-525367Y-1560156D01*
X-526306Y-1559921D01*
X-527010Y-1559804D01*
X-527479Y-1559569D01*
X-527831Y-1559452D01*
X-528066Y-1559334D01*
X-528887Y-1558513D01*
X-529474Y-1557691D01*
X-529826Y-1556987D01*
X-530178Y-1556283D01*
X-530296Y-1555696D01*
X-530413Y-1555227D01*
Y-1554875D01*
Y-1554758D01*
X-530296Y-1553819D01*
X-530178Y-1553115D01*
X-529592Y-1551824D01*
X-529239Y-1551355D01*
X-528887Y-1551002D01*
X-528770Y-1550885D01*
X-528653Y-1550768D01*
X-527949Y-1550181D01*
X-527010Y-1549829D01*
X-525015Y-1549360D01*
X-524194Y-1549242D01*
X-523489Y-1549125D01*
X-508704D01*
X-507295Y-1549242D01*
D02*
G37*
G36*
X346881Y-1531640D02*
X347702Y-1531757D01*
X348993Y-1532344D01*
X349462Y-1532696D01*
X349814Y-1533048D01*
X349932Y-1533165D01*
X350049Y-1533283D01*
X350518Y-1533987D01*
X350871Y-1534926D01*
X351340Y-1536803D01*
X351457Y-1537625D01*
X351575Y-1538329D01*
Y-1538798D01*
Y-1539033D01*
Y-1549125D01*
X355682D01*
X357090Y-1549242D01*
X358263Y-1549359D01*
X359202Y-1549594D01*
X360024Y-1549946D01*
X360610Y-1550298D01*
X361080Y-1550533D01*
X361314Y-1550650D01*
X361432Y-1550768D01*
X362019Y-1551354D01*
X362371Y-1552058D01*
X362840Y-1553349D01*
X362957Y-1553936D01*
X363075Y-1554288D01*
Y-1554640D01*
Y-1554757D01*
X362957Y-1555579D01*
X362840Y-1556400D01*
X362253Y-1557691D01*
X361901Y-1558160D01*
X361667Y-1558513D01*
X361549Y-1558630D01*
X361432Y-1558747D01*
X360728Y-1559217D01*
X359789Y-1559569D01*
X357911Y-1560038D01*
X357090Y-1560155D01*
X356386Y-1560273D01*
X351575D01*
Y-1585033D01*
X351457Y-1586207D01*
X351340Y-1587380D01*
X350753Y-1589492D01*
X349932Y-1591370D01*
X348993Y-1593013D01*
X348054Y-1594304D01*
X347233Y-1595242D01*
X346646Y-1595829D01*
X346411Y-1596064D01*
X345355Y-1596885D01*
X344299Y-1597589D01*
X341835Y-1598646D01*
X339253Y-1599467D01*
X336671Y-1599936D01*
X334324Y-1600288D01*
X333386Y-1600406D01*
X332564D01*
X331743Y-1600523D01*
X330804D01*
X328692Y-1600406D01*
X326462Y-1600171D01*
X324233Y-1599819D01*
X322120Y-1599467D01*
X320360Y-1599115D01*
X319539Y-1598880D01*
X318835Y-1598763D01*
X318248Y-1598646D01*
X317896Y-1598528D01*
X317661Y-1598411D01*
X317544D01*
X316136Y-1598059D01*
X314845Y-1597589D01*
X312498Y-1596768D01*
X310620Y-1595947D01*
X309212Y-1595242D01*
X308156Y-1594656D01*
X307452Y-1594186D01*
X306982Y-1593834D01*
X306865Y-1593717D01*
X306278Y-1593130D01*
X305809Y-1592426D01*
X305574Y-1591839D01*
X305339Y-1591253D01*
X305222Y-1590783D01*
X305105Y-1590314D01*
Y-1590079D01*
Y-1589962D01*
X305222Y-1589140D01*
X305339Y-1588319D01*
X305926Y-1587028D01*
X306278Y-1586559D01*
X306513Y-1586207D01*
X306630Y-1586089D01*
X306748Y-1585972D01*
X307334Y-1585385D01*
X308038Y-1585033D01*
X309329Y-1584564D01*
X309799Y-1584446D01*
X310268Y-1584329D01*
X310620D01*
X311207Y-1584446D01*
X311911Y-1584564D01*
X313319Y-1585033D01*
X314023Y-1585385D01*
X314493Y-1585620D01*
X314845Y-1585737D01*
X314962Y-1585855D01*
X317778Y-1587028D01*
X320477Y-1587850D01*
X323176Y-1588554D01*
X325641Y-1588906D01*
X327753Y-1589140D01*
X328574Y-1589258D01*
X329396D01*
X329983Y-1589375D01*
X330804D01*
X332799Y-1589258D01*
X334559Y-1589140D01*
X335967Y-1588788D01*
X337141Y-1588436D01*
X337962Y-1588202D01*
X338549Y-1587850D01*
X338901Y-1587732D01*
X339018Y-1587615D01*
X339488Y-1587028D01*
X339840Y-1586324D01*
X340192Y-1584798D01*
X340309Y-1583977D01*
X340427Y-1583390D01*
Y-1582921D01*
Y-1582804D01*
Y-1560273D01*
X319773D01*
X318365Y-1560155D01*
X317192Y-1560038D01*
X316253Y-1559803D01*
X315431Y-1559451D01*
X314845Y-1559217D01*
X314375Y-1558982D01*
X314141Y-1558865D01*
X314023Y-1558747D01*
X313437Y-1558160D01*
X312967Y-1557456D01*
X312732Y-1556752D01*
X312498Y-1556166D01*
X312380Y-1555579D01*
X312263Y-1555109D01*
Y-1554875D01*
Y-1554757D01*
X312380Y-1553819D01*
X312498Y-1553114D01*
X313084Y-1551824D01*
X313437Y-1551354D01*
X313789Y-1551002D01*
X313906Y-1550885D01*
X314023Y-1550768D01*
X314727Y-1550181D01*
X315666Y-1549829D01*
X317544Y-1549359D01*
X318365Y-1549242D01*
X319069Y-1549125D01*
X340427D01*
Y-1539033D01*
X340544Y-1537625D01*
X340661Y-1536451D01*
X340896Y-1535512D01*
X341248Y-1534691D01*
X341600Y-1534104D01*
X341835Y-1533635D01*
X341952Y-1533400D01*
X342069Y-1533283D01*
X342656Y-1532696D01*
X343360Y-1532227D01*
X343947Y-1531992D01*
X344651Y-1531757D01*
X345238Y-1531640D01*
X345590Y-1531522D01*
X346059D01*
X346881Y-1531640D01*
D02*
G37*
G36*
X-464581Y-1547834D02*
X-462586Y-1548069D01*
X-460591Y-1548421D01*
X-458713Y-1548890D01*
X-455310Y-1550064D01*
X-453785Y-1550768D01*
X-452377Y-1551355D01*
X-451086Y-1552059D01*
X-450030Y-1552763D01*
X-448973Y-1553349D01*
X-448152Y-1553936D01*
X-447448Y-1554406D01*
X-446979Y-1554758D01*
X-446744Y-1554992D01*
X-446626Y-1555110D01*
X-445101Y-1556518D01*
X-443810Y-1558043D01*
X-442637Y-1559569D01*
X-441581Y-1561212D01*
X-440759Y-1562855D01*
X-440055Y-1564498D01*
X-439468Y-1566023D01*
X-438999Y-1567549D01*
X-438647Y-1568957D01*
X-438412Y-1570248D01*
X-438177Y-1571421D01*
X-438060Y-1572360D01*
Y-1573181D01*
X-437943Y-1573885D01*
Y-1574237D01*
Y-1574355D01*
X-438060Y-1576350D01*
X-438295Y-1578345D01*
X-438647Y-1580222D01*
X-439234Y-1581865D01*
X-440524Y-1585151D01*
X-441228Y-1586559D01*
X-441933Y-1587850D01*
X-442637Y-1589023D01*
X-443458Y-1589962D01*
X-444045Y-1590901D01*
X-444632Y-1591605D01*
X-445218Y-1592192D01*
X-445570Y-1592661D01*
X-445805Y-1592896D01*
X-445922Y-1593013D01*
X-447448Y-1594304D01*
X-449208Y-1595477D01*
X-450968Y-1596534D01*
X-452729Y-1597355D01*
X-454489Y-1598059D01*
X-456249Y-1598646D01*
X-459652Y-1599585D01*
X-461295Y-1599937D01*
X-462703Y-1600171D01*
X-463994Y-1600289D01*
X-465167Y-1600406D01*
X-466106Y-1600523D01*
X-467397D01*
X-470331Y-1600406D01*
X-473264Y-1600289D01*
X-475963Y-1599937D01*
X-478545Y-1599585D01*
X-479601Y-1599467D01*
X-480657Y-1599350D01*
X-481479Y-1599115D01*
X-482300Y-1598998D01*
X-482887Y-1598880D01*
X-483356D01*
X-483591Y-1598763D01*
X-483708D01*
X-485234Y-1598411D01*
X-486642Y-1598059D01*
X-487816Y-1597707D01*
X-488989Y-1597355D01*
X-489928Y-1597003D01*
X-490749Y-1596651D01*
X-492275Y-1596064D01*
X-493214Y-1595595D01*
X-493918Y-1595243D01*
X-494270Y-1595008D01*
X-494387Y-1594891D01*
X-494974Y-1594304D01*
X-495326Y-1593717D01*
X-495795Y-1592544D01*
X-495913Y-1591957D01*
X-496030Y-1591605D01*
Y-1591370D01*
Y-1591253D01*
X-495913Y-1590314D01*
X-495795Y-1589610D01*
X-495209Y-1588319D01*
X-494857Y-1587850D01*
X-494622Y-1587498D01*
X-494504Y-1587380D01*
X-494387Y-1587263D01*
X-493800Y-1586676D01*
X-493214Y-1586324D01*
X-491923Y-1585855D01*
X-491453Y-1585737D01*
X-490984Y-1585620D01*
X-489928D01*
X-488989Y-1585855D01*
X-487112Y-1586207D01*
X-486173Y-1586442D01*
X-485469Y-1586559D01*
X-484999Y-1586794D01*
X-484765D01*
X-481127Y-1587615D01*
X-477841Y-1588319D01*
X-475025Y-1588789D01*
X-473734Y-1588906D01*
X-472678Y-1589023D01*
X-471622Y-1589141D01*
X-470683Y-1589258D01*
X-469979D01*
X-469392Y-1589375D01*
X-468219D01*
X-465520Y-1589258D01*
X-463173Y-1589023D01*
X-461060Y-1588554D01*
X-459300Y-1588084D01*
X-457892Y-1587615D01*
X-456953Y-1587146D01*
X-456366Y-1586911D01*
X-456132Y-1586794D01*
X-454606Y-1585737D01*
X-453315Y-1584564D01*
X-452259Y-1583391D01*
X-451438Y-1582217D01*
X-450734Y-1581161D01*
X-450382Y-1580339D01*
X-450147Y-1579870D01*
X-450030Y-1579635D01*
X-496030D01*
X-495913Y-1574941D01*
X-495795Y-1572947D01*
X-495678Y-1571186D01*
X-495326Y-1569543D01*
X-495091Y-1568135D01*
X-494739Y-1566962D01*
X-494387Y-1566023D01*
X-494270Y-1565554D01*
X-494152Y-1565319D01*
X-493096Y-1563207D01*
X-492040Y-1561329D01*
X-490984Y-1559569D01*
X-489928Y-1558161D01*
X-489106Y-1556987D01*
X-488402Y-1556048D01*
X-487816Y-1555579D01*
X-487698Y-1555344D01*
X-486525Y-1554288D01*
X-485234Y-1553349D01*
X-483708Y-1552411D01*
X-482418Y-1551707D01*
X-481127Y-1551120D01*
X-480071Y-1550533D01*
X-479367Y-1550298D01*
X-479249Y-1550181D01*
X-479132D01*
X-477020Y-1549360D01*
X-474790Y-1548773D01*
X-472678Y-1548303D01*
X-470800Y-1548069D01*
X-469157Y-1547834D01*
X-467866Y-1547717D01*
X-466693D01*
X-464581Y-1547834D01*
D02*
G37*
G36*
X622179Y-1549242D02*
X623470Y-1549359D01*
X624526Y-1549594D01*
X625347Y-1549946D01*
X625934Y-1550298D01*
X626404Y-1550533D01*
X626638Y-1550650D01*
X626756Y-1550768D01*
X627342Y-1551354D01*
X627694Y-1552058D01*
X628164Y-1553349D01*
X628281Y-1553936D01*
X628399Y-1554288D01*
Y-1554640D01*
Y-1554757D01*
X628281Y-1555579D01*
X628164Y-1556400D01*
X627577Y-1557691D01*
X627225Y-1558160D01*
X626990Y-1558513D01*
X626873Y-1558630D01*
X626756Y-1558747D01*
X625934Y-1559217D01*
X625113Y-1559569D01*
X623118Y-1560038D01*
X622179Y-1560155D01*
X621475Y-1560273D01*
X611735D01*
Y-1587615D01*
X625113D01*
X626521Y-1587732D01*
X627812Y-1587850D01*
X628868Y-1588084D01*
X629689Y-1588436D01*
X630276Y-1588788D01*
X630745Y-1589023D01*
X630980Y-1589140D01*
X631098Y-1589258D01*
X631684Y-1589844D01*
X632036Y-1590549D01*
X632506Y-1591839D01*
X632623Y-1592426D01*
X632740Y-1592778D01*
Y-1593130D01*
Y-1593248D01*
X632623Y-1594069D01*
X632506Y-1594890D01*
X631919Y-1596181D01*
X631567Y-1596651D01*
X631332Y-1597003D01*
X631215Y-1597120D01*
X631098Y-1597237D01*
X630276Y-1597707D01*
X629455Y-1598059D01*
X627460Y-1598528D01*
X626521Y-1598646D01*
X625817Y-1598763D01*
X587209D01*
X585801Y-1598646D01*
X584510Y-1598528D01*
X583572Y-1598293D01*
X582750Y-1597941D01*
X582163Y-1597707D01*
X581694Y-1597472D01*
X581459Y-1597355D01*
X581342Y-1597237D01*
X580755Y-1596651D01*
X580286Y-1595947D01*
X580051Y-1595242D01*
X579816Y-1594656D01*
X579699Y-1594069D01*
X579582Y-1593600D01*
Y-1593365D01*
Y-1593248D01*
X579699Y-1592309D01*
X579816Y-1591605D01*
X580403Y-1590314D01*
X580755Y-1589844D01*
X581107Y-1589492D01*
X581225Y-1589375D01*
X581342Y-1589258D01*
X582046Y-1588671D01*
X582985Y-1588319D01*
X584980Y-1587850D01*
X585801Y-1587732D01*
X586505Y-1587615D01*
X600587D01*
Y-1549125D01*
X620771D01*
X622179Y-1549242D01*
D02*
G37*
G36*
X538745Y-1547951D02*
X540153Y-1548186D01*
X541326Y-1548421D01*
X542265Y-1548655D01*
X543087Y-1548890D01*
X543556Y-1549007D01*
X543673Y-1549125D01*
X544964Y-1549711D01*
X546255Y-1550298D01*
X547428Y-1550885D01*
X548367Y-1551589D01*
X549189Y-1552058D01*
X549775Y-1552528D01*
X550245Y-1552880D01*
X550362Y-1552997D01*
Y-1549125D01*
X561510D01*
X562918Y-1549242D01*
X564209Y-1549359D01*
X565265Y-1549594D01*
X566087Y-1549946D01*
X566673Y-1550298D01*
X567143Y-1550533D01*
X567378Y-1550650D01*
X567495Y-1550768D01*
X568082Y-1551354D01*
X568434Y-1552058D01*
X568903Y-1553349D01*
X569020Y-1553936D01*
X569138Y-1554288D01*
Y-1554640D01*
Y-1554757D01*
X569020Y-1555579D01*
X568903Y-1556400D01*
X568316Y-1557691D01*
X567964Y-1558160D01*
X567730Y-1558513D01*
X567612Y-1558630D01*
X567495Y-1558747D01*
X566673Y-1559217D01*
X565852Y-1559569D01*
X563857Y-1560038D01*
X562918Y-1560155D01*
X562214Y-1560273D01*
X561510D01*
Y-1587615D01*
X562918D01*
X564092Y-1587732D01*
X565031Y-1587967D01*
X565735Y-1588084D01*
X566321Y-1588319D01*
X566673Y-1588554D01*
X566791Y-1588671D01*
X566908D01*
X567612Y-1589492D01*
X568199Y-1590314D01*
X568551Y-1591018D01*
X568903Y-1591722D01*
X569020Y-1592309D01*
X569138Y-1592778D01*
Y-1593130D01*
Y-1593248D01*
X569020Y-1594069D01*
X568903Y-1594890D01*
X568316Y-1596181D01*
X567964Y-1596651D01*
X567730Y-1597003D01*
X567612Y-1597120D01*
X567495Y-1597237D01*
X566673Y-1597707D01*
X565852Y-1598059D01*
X563857Y-1598528D01*
X562918Y-1598646D01*
X562214Y-1598763D01*
X550362D01*
X548954Y-1598646D01*
X547663Y-1598528D01*
X546724Y-1598293D01*
X545903Y-1597941D01*
X545316Y-1597707D01*
X544847Y-1597472D01*
X544612Y-1597355D01*
X544495Y-1597237D01*
X543908Y-1596651D01*
X543439Y-1595947D01*
X543204Y-1595242D01*
X542969Y-1594656D01*
X542852Y-1594069D01*
X542734Y-1593600D01*
Y-1593365D01*
Y-1593248D01*
X542852Y-1592309D01*
X543087Y-1591487D01*
X543908Y-1590079D01*
X544377Y-1589492D01*
X544729Y-1589023D01*
X544964Y-1588788D01*
X545081Y-1588671D01*
X545668Y-1588319D01*
X546372Y-1588084D01*
X548133Y-1587732D01*
X548954Y-1587615D01*
X550362D01*
Y-1566844D01*
X548719Y-1565201D01*
X547311Y-1563793D01*
X546020Y-1562620D01*
X544964Y-1561798D01*
X544143Y-1561094D01*
X543439Y-1560742D01*
X543087Y-1560507D01*
X542969Y-1560390D01*
X541796Y-1559921D01*
X540622Y-1559451D01*
X539566Y-1559217D01*
X538510Y-1559099D01*
X537571Y-1558982D01*
X536867Y-1558865D01*
X536163D01*
X534285Y-1558982D01*
X532760Y-1559217D01*
X531469Y-1559569D01*
X530296Y-1559921D01*
X529474Y-1560390D01*
X528887Y-1560742D01*
X528535Y-1560977D01*
X528418Y-1561094D01*
X527714Y-1561798D01*
X527245Y-1562620D01*
X526893Y-1563558D01*
X526658Y-1564497D01*
X526540Y-1565201D01*
X526423Y-1565905D01*
Y-1566375D01*
Y-1566492D01*
Y-1587615D01*
X527831Y-1587732D01*
X529122Y-1587850D01*
X530178Y-1588084D01*
X531000Y-1588436D01*
X531586Y-1588788D01*
X532056Y-1589023D01*
X532291Y-1589140D01*
X532408Y-1589258D01*
X532995Y-1589844D01*
X533347Y-1590549D01*
X533816Y-1591839D01*
X533933Y-1592426D01*
X534051Y-1592778D01*
Y-1593130D01*
Y-1593248D01*
X533933Y-1594069D01*
X533816Y-1594890D01*
X533229Y-1596181D01*
X532877Y-1596651D01*
X532643Y-1597003D01*
X532525Y-1597120D01*
X532408Y-1597237D01*
X531586Y-1597707D01*
X530765Y-1598059D01*
X528770Y-1598528D01*
X527831Y-1598646D01*
X527127Y-1598763D01*
X515275D01*
X513867Y-1598646D01*
X512576Y-1598528D01*
X511637Y-1598293D01*
X510816Y-1597941D01*
X510229Y-1597707D01*
X509760Y-1597472D01*
X509525Y-1597355D01*
X509408Y-1597237D01*
X508821Y-1596651D01*
X508352Y-1595947D01*
X508117Y-1595242D01*
X507882Y-1594656D01*
X507765Y-1594069D01*
X507647Y-1593600D01*
Y-1593365D01*
Y-1593248D01*
X507765Y-1592309D01*
X507882Y-1591605D01*
X508469Y-1590314D01*
X508821Y-1589844D01*
X509173Y-1589492D01*
X509290Y-1589375D01*
X509408Y-1589258D01*
X510112Y-1588671D01*
X511051Y-1588319D01*
X513045Y-1587850D01*
X513867Y-1587732D01*
X514571Y-1587615D01*
X515275D01*
Y-1566844D01*
X515510Y-1564028D01*
X515979Y-1561446D01*
X516801Y-1559217D01*
X517622Y-1557339D01*
X518443Y-1555931D01*
X519265Y-1554875D01*
X519734Y-1554171D01*
X519969Y-1553936D01*
X521142Y-1552880D01*
X522316Y-1551824D01*
X523607Y-1551002D01*
X524898Y-1550298D01*
X527479Y-1549242D01*
X529944Y-1548538D01*
X532173Y-1548069D01*
X533229Y-1547951D01*
X534051Y-1547834D01*
X534755Y-1547716D01*
X537336D01*
X538745Y-1547951D01*
D02*
G37*
G36*
X255467Y-1547834D02*
X256875Y-1547951D01*
X258166Y-1548303D01*
X259339Y-1548538D01*
X260278Y-1548890D01*
X261099Y-1549242D01*
X261569Y-1549359D01*
X261803Y-1549477D01*
X263446Y-1550181D01*
X265206Y-1551237D01*
X267084Y-1552293D01*
X268844Y-1553467D01*
X270370Y-1554523D01*
X271661Y-1555344D01*
X272130Y-1555696D01*
X272482Y-1555931D01*
X272717Y-1556048D01*
X272834Y-1556166D01*
Y-1549125D01*
X287972D01*
X289380Y-1549242D01*
X290671Y-1549359D01*
X291727Y-1549594D01*
X292549Y-1549946D01*
X293135Y-1550298D01*
X293605Y-1550533D01*
X293839Y-1550650D01*
X293957Y-1550768D01*
X294543Y-1551354D01*
X294896Y-1552058D01*
X295365Y-1553349D01*
X295482Y-1553936D01*
X295600Y-1554288D01*
Y-1554640D01*
Y-1554757D01*
X295482Y-1555579D01*
X295365Y-1556400D01*
X294778Y-1557691D01*
X294426Y-1558160D01*
X294191Y-1558513D01*
X294074Y-1558630D01*
X293957Y-1558747D01*
X293135Y-1559217D01*
X292314Y-1559569D01*
X290319Y-1560038D01*
X289380Y-1560155D01*
X288676Y-1560273D01*
X283982D01*
Y-1587615D01*
X290671D01*
X292079Y-1587732D01*
X293370Y-1587850D01*
X294426Y-1588084D01*
X295248Y-1588436D01*
X295834Y-1588788D01*
X296304Y-1589023D01*
X296538Y-1589140D01*
X296656Y-1589258D01*
X297242Y-1589844D01*
X297595Y-1590549D01*
X298064Y-1591839D01*
X298181Y-1592426D01*
X298299Y-1592778D01*
Y-1593130D01*
Y-1593248D01*
X298181Y-1594069D01*
X298064Y-1594890D01*
X297477Y-1596181D01*
X297125Y-1596651D01*
X296890Y-1597003D01*
X296773Y-1597120D01*
X296656Y-1597237D01*
X295834Y-1597707D01*
X295013Y-1598059D01*
X293018Y-1598528D01*
X292079Y-1598646D01*
X291375Y-1598763D01*
X256875D01*
X255467Y-1598646D01*
X254176Y-1598528D01*
X253237Y-1598293D01*
X252416Y-1597941D01*
X251829Y-1597707D01*
X251359Y-1597472D01*
X251125Y-1597355D01*
X251007Y-1597237D01*
X250421Y-1596651D01*
X249951Y-1595947D01*
X249717Y-1595242D01*
X249482Y-1594656D01*
X249364Y-1594069D01*
X249247Y-1593600D01*
Y-1593365D01*
Y-1593248D01*
X249364Y-1592309D01*
X249482Y-1591605D01*
X250069Y-1590314D01*
X250421Y-1589844D01*
X250773Y-1589492D01*
X250890Y-1589375D01*
X251007Y-1589258D01*
X251711Y-1588671D01*
X252650Y-1588319D01*
X254645Y-1587850D01*
X255467Y-1587732D01*
X256171Y-1587615D01*
X272834D01*
Y-1570717D01*
X270370Y-1568604D01*
X268140Y-1566844D01*
X266145Y-1565319D01*
X264385Y-1564145D01*
X263094Y-1563206D01*
X262038Y-1562502D01*
X261451Y-1562033D01*
X261217Y-1561916D01*
X259574Y-1560859D01*
X258166Y-1560155D01*
X256875Y-1559569D01*
X255936Y-1559217D01*
X255115Y-1558982D01*
X254645Y-1558865D01*
X254176D01*
X253472Y-1558982D01*
X252768Y-1559217D01*
X251477Y-1559921D01*
X251007Y-1560273D01*
X250538Y-1560625D01*
X250303Y-1560859D01*
X250186Y-1560977D01*
X249364Y-1561681D01*
X248543Y-1562150D01*
X247722Y-1562620D01*
X247018Y-1562854D01*
X246548Y-1562972D01*
X246079Y-1563089D01*
X245727D01*
X244905Y-1562972D01*
X244084Y-1562854D01*
X242793Y-1562268D01*
X242324Y-1561916D01*
X241972Y-1561681D01*
X241854Y-1561564D01*
X241737Y-1561446D01*
X241150Y-1560742D01*
X240681Y-1560155D01*
X240446Y-1559451D01*
X240211Y-1558865D01*
X240094Y-1558278D01*
X239977Y-1557808D01*
Y-1557574D01*
Y-1557456D01*
X240094Y-1556400D01*
X240563Y-1555344D01*
X241033Y-1554405D01*
X241737Y-1553584D01*
X242324Y-1552880D01*
X242910Y-1552293D01*
X243380Y-1551941D01*
X243497Y-1551824D01*
X245492Y-1550415D01*
X247370Y-1549477D01*
X249130Y-1548773D01*
X250773Y-1548186D01*
X252181Y-1547951D01*
X253237Y-1547834D01*
X253941Y-1547716D01*
X254176D01*
X255467Y-1547834D01*
D02*
G37*
G36*
X22883Y-1532696D02*
X24174Y-1532814D01*
X25230Y-1533048D01*
X26051Y-1533400D01*
X26638Y-1533752D01*
X27107Y-1533987D01*
X27342Y-1534104D01*
X27459Y-1534222D01*
X28046Y-1534808D01*
X28398Y-1535513D01*
X28868Y-1536803D01*
X28985Y-1537390D01*
X29102Y-1537742D01*
Y-1538094D01*
Y-1538212D01*
X28985Y-1539033D01*
X28868Y-1539854D01*
X28281Y-1541145D01*
X27929Y-1541615D01*
X27694Y-1541967D01*
X27577Y-1542084D01*
X27459Y-1542201D01*
X26638Y-1542671D01*
X25817Y-1543023D01*
X23822Y-1543492D01*
X22883Y-1543610D01*
X22179Y-1543727D01*
X19714D01*
Y-1587615D01*
X21475D01*
X22883Y-1587732D01*
X24174Y-1587850D01*
X25230Y-1588084D01*
X26051Y-1588436D01*
X26638Y-1588789D01*
X27107Y-1589023D01*
X27342Y-1589141D01*
X27459Y-1589258D01*
X28046Y-1589845D01*
X28398Y-1590549D01*
X28868Y-1591840D01*
X28985Y-1592426D01*
X29102Y-1592778D01*
Y-1593130D01*
Y-1593248D01*
X28985Y-1594069D01*
X28868Y-1594891D01*
X28281Y-1596181D01*
X27929Y-1596651D01*
X27694Y-1597003D01*
X27577Y-1597120D01*
X27459Y-1597238D01*
X26638Y-1597707D01*
X25817Y-1598059D01*
X23822Y-1598528D01*
X22883Y-1598646D01*
X22179Y-1598763D01*
X-2699D01*
X-4107Y-1598646D01*
X-5398Y-1598528D01*
X-6337Y-1598294D01*
X-7158Y-1597942D01*
X-7745Y-1597707D01*
X-8214Y-1597472D01*
X-8449Y-1597355D01*
X-8566Y-1597238D01*
X-9153Y-1596651D01*
X-9623Y-1595947D01*
X-9857Y-1595243D01*
X-10092Y-1594656D01*
X-10209Y-1594069D01*
X-10327Y-1593600D01*
Y-1593365D01*
Y-1593248D01*
X-10209Y-1592309D01*
X-10092Y-1591605D01*
X-9505Y-1590314D01*
X-9153Y-1589845D01*
X-8801Y-1589493D01*
X-8684Y-1589375D01*
X-8566Y-1589258D01*
X-7862Y-1588671D01*
X-6924Y-1588319D01*
X-4929Y-1587850D01*
X-4107Y-1587732D01*
X-3403Y-1587615D01*
X8566D01*
Y-1576115D01*
X-1995D01*
X-4459Y-1575998D01*
X-6571Y-1575880D01*
X-8449Y-1575646D01*
X-9975Y-1575294D01*
X-11265Y-1575059D01*
X-12204Y-1574824D01*
X-12674Y-1574707D01*
X-12908Y-1574589D01*
X-14434Y-1573885D01*
X-15959Y-1573181D01*
X-17368Y-1572360D01*
X-18541Y-1571538D01*
X-19597Y-1570834D01*
X-20301Y-1570248D01*
X-20888Y-1569896D01*
X-21005Y-1569778D01*
X-22413Y-1568605D01*
X-23587Y-1567314D01*
X-24526Y-1566258D01*
X-25347Y-1565202D01*
X-25934Y-1564380D01*
X-26286Y-1563793D01*
X-26521Y-1563324D01*
X-26638Y-1563207D01*
X-27459Y-1561564D01*
X-28046Y-1559921D01*
X-28398Y-1558395D01*
X-28750Y-1556987D01*
X-28868Y-1555696D01*
X-28985Y-1554758D01*
Y-1554171D01*
Y-1553936D01*
X-28868Y-1552293D01*
X-28750Y-1550768D01*
X-28398Y-1549242D01*
X-27929Y-1547834D01*
X-26873Y-1545252D01*
X-25699Y-1543023D01*
X-24408Y-1541263D01*
X-23822Y-1540559D01*
X-23352Y-1539854D01*
X-22883Y-1539385D01*
X-22531Y-1539033D01*
X-22413Y-1538916D01*
X-22296Y-1538798D01*
X-21005Y-1537742D01*
X-19597Y-1536686D01*
X-18189Y-1535865D01*
X-16663Y-1535161D01*
X-13612Y-1534104D01*
X-10796Y-1533400D01*
X-9388Y-1533048D01*
X-8214Y-1532931D01*
X-7041Y-1532814D01*
X-6102Y-1532696D01*
X-5281Y-1532579D01*
X21475D01*
X22883Y-1532696D01*
D02*
G37*
G36*
X-106200D02*
X-104909Y-1532814D01*
X-103853Y-1533048D01*
X-103032Y-1533400D01*
X-102445Y-1533752D01*
X-101975Y-1533987D01*
X-101741Y-1534104D01*
X-101623Y-1534222D01*
X-101037Y-1534808D01*
X-100685Y-1535513D01*
X-100215Y-1536803D01*
X-100098Y-1537390D01*
X-99980Y-1537742D01*
Y-1538094D01*
Y-1538212D01*
X-100098Y-1539033D01*
X-100215Y-1539854D01*
X-100802Y-1541145D01*
X-101154Y-1541615D01*
X-101389Y-1541967D01*
X-101506Y-1542084D01*
X-101623Y-1542201D01*
X-102445Y-1542671D01*
X-103266Y-1543023D01*
X-105261Y-1543492D01*
X-106200Y-1543610D01*
X-106904Y-1543727D01*
X-109368D01*
Y-1587615D01*
X-107608D01*
X-106200Y-1587732D01*
X-104909Y-1587850D01*
X-103853Y-1588084D01*
X-103032Y-1588436D01*
X-102445Y-1588789D01*
X-101975Y-1589023D01*
X-101741Y-1589141D01*
X-101623Y-1589258D01*
X-101037Y-1589845D01*
X-100685Y-1590549D01*
X-100215Y-1591840D01*
X-100098Y-1592426D01*
X-99980Y-1592778D01*
Y-1593130D01*
Y-1593248D01*
X-100098Y-1594069D01*
X-100215Y-1594891D01*
X-100802Y-1596181D01*
X-101154Y-1596651D01*
X-101389Y-1597003D01*
X-101506Y-1597120D01*
X-101623Y-1597238D01*
X-102445Y-1597707D01*
X-103266Y-1598059D01*
X-105261Y-1598528D01*
X-106200Y-1598646D01*
X-106904Y-1598763D01*
X-140466D01*
X-142695Y-1598646D01*
X-144573Y-1598528D01*
X-146333Y-1598294D01*
X-147858Y-1598059D01*
X-149032Y-1597824D01*
X-149853Y-1597590D01*
X-150323Y-1597355D01*
X-150557D01*
X-152083Y-1596768D01*
X-153374Y-1596181D01*
X-154547Y-1595595D01*
X-155486Y-1594891D01*
X-156308Y-1594421D01*
X-156894Y-1593952D01*
X-157246Y-1593717D01*
X-157364Y-1593600D01*
X-158772Y-1592192D01*
X-159945Y-1590783D01*
X-160297Y-1590197D01*
X-160649Y-1589727D01*
X-160767Y-1589375D01*
X-160884Y-1589258D01*
X-161588Y-1587850D01*
X-162058Y-1586442D01*
X-162410Y-1585151D01*
X-162644Y-1583977D01*
X-162762Y-1582921D01*
X-162879Y-1582100D01*
Y-1581630D01*
Y-1581396D01*
X-162762Y-1579401D01*
X-162410Y-1577640D01*
X-162058Y-1575998D01*
X-161588Y-1574589D01*
X-161001Y-1573416D01*
X-160649Y-1572477D01*
X-160297Y-1572008D01*
X-160180Y-1571773D01*
X-159124Y-1570248D01*
X-157833Y-1568839D01*
X-156542Y-1567549D01*
X-155251Y-1566492D01*
X-154078Y-1565554D01*
X-153139Y-1564967D01*
X-152552Y-1564498D01*
X-152435Y-1564380D01*
X-152318D01*
X-153256Y-1563324D01*
X-154195Y-1562268D01*
X-154899Y-1561329D01*
X-155486Y-1560390D01*
X-155955Y-1559686D01*
X-156308Y-1559099D01*
X-156425Y-1558630D01*
X-156542Y-1558513D01*
X-157012Y-1557222D01*
X-157481Y-1556048D01*
X-157716Y-1554875D01*
X-157833Y-1553819D01*
X-157950Y-1552880D01*
X-158068Y-1552176D01*
Y-1551707D01*
Y-1551589D01*
X-157950Y-1550181D01*
X-157833Y-1548773D01*
X-157129Y-1546191D01*
X-156073Y-1543962D01*
X-155017Y-1541967D01*
X-153843Y-1540441D01*
X-152787Y-1539150D01*
X-152435Y-1538798D01*
X-152083Y-1538446D01*
X-151966Y-1538329D01*
X-151848Y-1538212D01*
X-150675Y-1537273D01*
X-149384Y-1536334D01*
X-146802Y-1534926D01*
X-144103Y-1533987D01*
X-141522Y-1533283D01*
X-139175Y-1532814D01*
X-138236Y-1532696D01*
X-137297D01*
X-136593Y-1532579D01*
X-107608D01*
X-106200Y-1532696D01*
D02*
G37*
G36*
X-374810D02*
X-373519Y-1532814D01*
X-372463Y-1533048D01*
X-371641Y-1533400D01*
X-371054Y-1533752D01*
X-370585Y-1533987D01*
X-370350Y-1534104D01*
X-370233Y-1534222D01*
X-369646Y-1534808D01*
X-369294Y-1535513D01*
X-368825Y-1536803D01*
X-368707Y-1537390D01*
X-368590Y-1537742D01*
Y-1538094D01*
Y-1538212D01*
X-368707Y-1539033D01*
X-368825Y-1539854D01*
X-369412Y-1541145D01*
X-369764Y-1541615D01*
X-369998Y-1541967D01*
X-370116Y-1542084D01*
X-370233Y-1542201D01*
X-371054Y-1542671D01*
X-371876Y-1543023D01*
X-373871Y-1543492D01*
X-374810Y-1543610D01*
X-375514Y-1543727D01*
X-377978D01*
Y-1587615D01*
X-376218D01*
X-374810Y-1587732D01*
X-373519Y-1587850D01*
X-372463Y-1588084D01*
X-371641Y-1588436D01*
X-371054Y-1588789D01*
X-370585Y-1589023D01*
X-370350Y-1589141D01*
X-370233Y-1589258D01*
X-369646Y-1589845D01*
X-369294Y-1590549D01*
X-368825Y-1591840D01*
X-368707Y-1592426D01*
X-368590Y-1592778D01*
Y-1593130D01*
Y-1593248D01*
X-368707Y-1594069D01*
X-368825Y-1594891D01*
X-369412Y-1596181D01*
X-369764Y-1596651D01*
X-369998Y-1597003D01*
X-370116Y-1597120D01*
X-370233Y-1597238D01*
X-371054Y-1597707D01*
X-371876Y-1598059D01*
X-373871Y-1598528D01*
X-374810Y-1598646D01*
X-375514Y-1598763D01*
X-393116D01*
X-394524Y-1598646D01*
X-395815Y-1598528D01*
X-396754Y-1598294D01*
X-397575Y-1597942D01*
X-398162Y-1597707D01*
X-398631Y-1597472D01*
X-398866Y-1597355D01*
X-398983Y-1597238D01*
X-399570Y-1596651D01*
X-400039Y-1595947D01*
X-400274Y-1595243D01*
X-400509Y-1594656D01*
X-400626Y-1594069D01*
X-400743Y-1593600D01*
Y-1593365D01*
Y-1593248D01*
X-400626Y-1592309D01*
X-400509Y-1591605D01*
X-399922Y-1590314D01*
X-399570Y-1589845D01*
X-399218Y-1589493D01*
X-399101Y-1589375D01*
X-398983Y-1589258D01*
X-398279Y-1588671D01*
X-397340Y-1588319D01*
X-395345Y-1587850D01*
X-394524Y-1587732D01*
X-393820Y-1587615D01*
X-389126D01*
Y-1573416D01*
X-400157D01*
X-401917Y-1574355D01*
X-403677Y-1575763D01*
X-405555Y-1577406D01*
X-407432Y-1579166D01*
X-409310Y-1581161D01*
X-411187Y-1583391D01*
X-414825Y-1587732D01*
X-416351Y-1589845D01*
X-417876Y-1591840D01*
X-419284Y-1593717D01*
X-420458Y-1595360D01*
X-421397Y-1596768D01*
X-422101Y-1597824D01*
X-422570Y-1598528D01*
X-422687Y-1598646D01*
Y-1598763D01*
X-428438D01*
X-429846Y-1598646D01*
X-431137Y-1598528D01*
X-432075Y-1598294D01*
X-432897Y-1597942D01*
X-433484Y-1597707D01*
X-433953Y-1597472D01*
X-434188Y-1597355D01*
X-434305Y-1597238D01*
X-434892Y-1596651D01*
X-435361Y-1595947D01*
X-435596Y-1595243D01*
X-435830Y-1594656D01*
X-435948Y-1594069D01*
X-436065Y-1593600D01*
Y-1593365D01*
Y-1593248D01*
X-435948Y-1592309D01*
X-435713Y-1591488D01*
X-435009Y-1590079D01*
X-434540Y-1589493D01*
X-434188Y-1589023D01*
X-433953Y-1588789D01*
X-433836Y-1588671D01*
X-433249Y-1588319D01*
X-432427Y-1588084D01*
X-430667Y-1587732D01*
X-429846Y-1587615D01*
X-428438D01*
X-426912Y-1585268D01*
X-425504Y-1583273D01*
X-424330Y-1581630D01*
X-423392Y-1580222D01*
X-422687Y-1579166D01*
X-422101Y-1578462D01*
X-421749Y-1577993D01*
X-421631Y-1577875D01*
X-420106Y-1576115D01*
X-418698Y-1574589D01*
X-417407Y-1573181D01*
X-416233Y-1572125D01*
X-415295Y-1571186D01*
X-414590Y-1570482D01*
X-414121Y-1570013D01*
X-414004Y-1569896D01*
X-416233Y-1568605D01*
X-418111Y-1567314D01*
X-419636Y-1566023D01*
X-420927Y-1564850D01*
X-421983Y-1563911D01*
X-422687Y-1563089D01*
X-423157Y-1562620D01*
X-423274Y-1562385D01*
X-424330Y-1560742D01*
X-425152Y-1559099D01*
X-425621Y-1557457D01*
X-426091Y-1555931D01*
X-426325Y-1554640D01*
X-426443Y-1553701D01*
Y-1552997D01*
Y-1552763D01*
X-426325Y-1551237D01*
X-426208Y-1549712D01*
X-425387Y-1547013D01*
X-424330Y-1544548D01*
X-423157Y-1542436D01*
X-421983Y-1540793D01*
X-421397Y-1540089D01*
X-420927Y-1539502D01*
X-420458Y-1539033D01*
X-420106Y-1538681D01*
X-419988Y-1538564D01*
X-419871Y-1538446D01*
X-418580Y-1537390D01*
X-417172Y-1536451D01*
X-415764Y-1535747D01*
X-414238Y-1535043D01*
X-411187Y-1533987D01*
X-408254Y-1533283D01*
X-406846Y-1533048D01*
X-405555Y-1532931D01*
X-404381Y-1532696D01*
X-403442D01*
X-402621Y-1532579D01*
X-376218D01*
X-374810Y-1532696D01*
D02*
G37*
G36*
X-710307D02*
X-709017Y-1532814D01*
X-707960Y-1533048D01*
X-707139Y-1533400D01*
X-706552Y-1533752D01*
X-706083Y-1533987D01*
X-705848Y-1534104D01*
X-705731Y-1534222D01*
X-705144Y-1534808D01*
X-704792Y-1535513D01*
X-704323Y-1536803D01*
X-704205Y-1537390D01*
X-704088Y-1537742D01*
Y-1538094D01*
Y-1538212D01*
X-704205Y-1539033D01*
X-704323Y-1539854D01*
X-704909Y-1541145D01*
X-705261Y-1541615D01*
X-705496Y-1541967D01*
X-705614Y-1542084D01*
X-705731Y-1542201D01*
X-706552Y-1542671D01*
X-707374Y-1543023D01*
X-709369Y-1543492D01*
X-710307Y-1543610D01*
X-711012Y-1543727D01*
X-713476D01*
Y-1587615D01*
X-711716D01*
X-710307Y-1587732D01*
X-709017Y-1587850D01*
X-707960Y-1588084D01*
X-707139Y-1588436D01*
X-706552Y-1588789D01*
X-706083Y-1589023D01*
X-705848Y-1589141D01*
X-705731Y-1589258D01*
X-705144Y-1589845D01*
X-704792Y-1590549D01*
X-704323Y-1591840D01*
X-704205Y-1592426D01*
X-704088Y-1592778D01*
Y-1593130D01*
Y-1593248D01*
X-704205Y-1594069D01*
X-704323Y-1594891D01*
X-704909Y-1596181D01*
X-705261Y-1596651D01*
X-705496Y-1597003D01*
X-705614Y-1597120D01*
X-705731Y-1597238D01*
X-706552Y-1597707D01*
X-707374Y-1598059D01*
X-709369Y-1598528D01*
X-710307Y-1598646D01*
X-711012Y-1598763D01*
X-744573D01*
X-746803Y-1598646D01*
X-748680Y-1598528D01*
X-750440Y-1598294D01*
X-751966Y-1598059D01*
X-753139Y-1597824D01*
X-753961Y-1597590D01*
X-754430Y-1597355D01*
X-754665D01*
X-756191Y-1596768D01*
X-757481Y-1596181D01*
X-758655Y-1595595D01*
X-759594Y-1594891D01*
X-760415Y-1594421D01*
X-761002Y-1593952D01*
X-761354Y-1593717D01*
X-761471Y-1593600D01*
X-762879Y-1592192D01*
X-764053Y-1590783D01*
X-764405Y-1590197D01*
X-764757Y-1589727D01*
X-764874Y-1589375D01*
X-764992Y-1589258D01*
X-765696Y-1587850D01*
X-766165Y-1586442D01*
X-766517Y-1585151D01*
X-766752Y-1583977D01*
X-766869Y-1582921D01*
X-766987Y-1582100D01*
Y-1581630D01*
Y-1581396D01*
X-766869Y-1579401D01*
X-766517Y-1577640D01*
X-766165Y-1575998D01*
X-765696Y-1574589D01*
X-765109Y-1573416D01*
X-764757Y-1572477D01*
X-764405Y-1572008D01*
X-764288Y-1571773D01*
X-763231Y-1570248D01*
X-761941Y-1568839D01*
X-760650Y-1567549D01*
X-759359Y-1566492D01*
X-758185Y-1565554D01*
X-757247Y-1564967D01*
X-756660Y-1564498D01*
X-756543Y-1564380D01*
X-756425D01*
X-757364Y-1563324D01*
X-758303Y-1562268D01*
X-759007Y-1561329D01*
X-759594Y-1560390D01*
X-760063Y-1559686D01*
X-760415Y-1559099D01*
X-760532Y-1558630D01*
X-760650Y-1558513D01*
X-761119Y-1557222D01*
X-761589Y-1556048D01*
X-761823Y-1554875D01*
X-761941Y-1553819D01*
X-762058Y-1552880D01*
X-762175Y-1552176D01*
Y-1551707D01*
Y-1551589D01*
X-762058Y-1550181D01*
X-761941Y-1548773D01*
X-761236Y-1546191D01*
X-760180Y-1543962D01*
X-759124Y-1541967D01*
X-757951Y-1540441D01*
X-756895Y-1539150D01*
X-756543Y-1538798D01*
X-756191Y-1538446D01*
X-756073Y-1538329D01*
X-755956Y-1538212D01*
X-754782Y-1537273D01*
X-753492Y-1536334D01*
X-750910Y-1534926D01*
X-748211Y-1533987D01*
X-745629Y-1533283D01*
X-743282Y-1532814D01*
X-742343Y-1532696D01*
X-741405D01*
X-740701Y-1532579D01*
X-711716D01*
X-710307Y-1532696D01*
D02*
G37*
G36*
X-600704Y-1585737D02*
X-599531Y-1585972D01*
X-598475Y-1586324D01*
X-597653Y-1586676D01*
X-596949Y-1587146D01*
X-596480Y-1587498D01*
X-596128Y-1587732D01*
X-596010Y-1587850D01*
X-595306Y-1588671D01*
X-594720Y-1589610D01*
X-594368Y-1590431D01*
X-594016Y-1591253D01*
X-593898Y-1591957D01*
X-593781Y-1592544D01*
Y-1593013D01*
Y-1593130D01*
X-593898Y-1594304D01*
X-594133Y-1595243D01*
X-594485Y-1596181D01*
X-594954Y-1597003D01*
X-595306Y-1597590D01*
X-595658Y-1598059D01*
X-595893Y-1598294D01*
X-596010Y-1598411D01*
X-596949Y-1599115D01*
X-597888Y-1599585D01*
X-598944Y-1600054D01*
X-599883Y-1600289D01*
X-600822Y-1600406D01*
X-601526Y-1600523D01*
X-602113D01*
X-603521Y-1600406D01*
X-604694Y-1600171D01*
X-605750Y-1599819D01*
X-606572Y-1599467D01*
X-607276Y-1599115D01*
X-607863Y-1598763D01*
X-608097Y-1598528D01*
X-608215Y-1598411D01*
X-609036Y-1597590D01*
X-609623Y-1596651D01*
X-609975Y-1595829D01*
X-610327Y-1595008D01*
X-610444Y-1594187D01*
X-610562Y-1593600D01*
Y-1593248D01*
Y-1593130D01*
X-610444Y-1591957D01*
X-610210Y-1591018D01*
X-609858Y-1590079D01*
X-609388Y-1589258D01*
X-608919Y-1588671D01*
X-608567Y-1588202D01*
X-608332Y-1587967D01*
X-608215Y-1587850D01*
X-607276Y-1587146D01*
X-606337Y-1586559D01*
X-605281Y-1586207D01*
X-604342Y-1585855D01*
X-603403Y-1585737D01*
X-602699Y-1585620D01*
X-602113D01*
X-600704Y-1585737D01*
D02*
G37*
G36*
X-264972Y-1528354D02*
X-263916Y-1528706D01*
X-263446Y-1528941D01*
X-263094Y-1529058D01*
X-262977Y-1529293D01*
X-262860D01*
X-261921Y-1530232D01*
X-261334Y-1531171D01*
X-261099Y-1531875D01*
X-260982Y-1531992D01*
Y-1532109D01*
Y-1532696D01*
X-260865Y-1533635D01*
Y-1534691D01*
Y-1535865D01*
Y-1537038D01*
Y-1537977D01*
Y-1538681D01*
Y-1538798D01*
Y-1538916D01*
Y-1605452D01*
Y-1607330D01*
Y-1608972D01*
X-260982Y-1610146D01*
Y-1610967D01*
Y-1611554D01*
X-261099Y-1611906D01*
Y-1612141D01*
X-261569Y-1613314D01*
X-262273Y-1614253D01*
X-262742Y-1614840D01*
X-262977Y-1615074D01*
X-264150Y-1615779D01*
X-265206Y-1616131D01*
X-265676D01*
X-266028Y-1616248D01*
X-266380D01*
X-267671Y-1616013D01*
X-268844Y-1615661D01*
X-269548Y-1615309D01*
X-269666Y-1615074D01*
X-269783D01*
X-270722Y-1614136D01*
X-271309Y-1613197D01*
X-271661Y-1612493D01*
X-271778Y-1612375D01*
Y-1612258D01*
Y-1611671D01*
X-271895Y-1610733D01*
Y-1609676D01*
Y-1608503D01*
Y-1607330D01*
Y-1606391D01*
Y-1605687D01*
Y-1605569D01*
Y-1605452D01*
Y-1538916D01*
Y-1537038D01*
Y-1535513D01*
Y-1534339D01*
Y-1533400D01*
X-271778Y-1532814D01*
Y-1532344D01*
Y-1532109D01*
X-271309Y-1530936D01*
X-270604Y-1530115D01*
X-270018Y-1529528D01*
X-269900Y-1529293D01*
X-269783D01*
X-268610Y-1528589D01*
X-267553Y-1528237D01*
X-267084Y-1528120D01*
X-266380D01*
X-264972Y-1528354D01*
D02*
G37*
G36*
X136710Y-1547951D02*
X138119Y-1548186D01*
X139409Y-1548421D01*
X140583Y-1548655D01*
X141404Y-1548890D01*
X141874Y-1549007D01*
X142108Y-1549125D01*
X143634Y-1549711D01*
X145159Y-1550298D01*
X146450Y-1551002D01*
X147741Y-1551589D01*
X148680Y-1552176D01*
X149501Y-1552645D01*
X149971Y-1552997D01*
X150205Y-1553114D01*
Y-1549125D01*
X163231D01*
X164639Y-1549242D01*
X165930Y-1549359D01*
X166986Y-1549594D01*
X167808Y-1549946D01*
X168394Y-1550298D01*
X168864Y-1550533D01*
X169098Y-1550650D01*
X169216Y-1550768D01*
X169803Y-1551354D01*
X170155Y-1552058D01*
X170624Y-1553349D01*
X170741Y-1553936D01*
X170859Y-1554288D01*
Y-1554640D01*
Y-1554757D01*
X170741Y-1555579D01*
X170624Y-1556400D01*
X170037Y-1557691D01*
X169685Y-1558160D01*
X169451Y-1558513D01*
X169333Y-1558630D01*
X169216Y-1558747D01*
X168394Y-1559217D01*
X167573Y-1559569D01*
X165578Y-1560038D01*
X164639Y-1560155D01*
X163935Y-1560273D01*
X161353D01*
Y-1610967D01*
X163231D01*
X164639Y-1611084D01*
X165930Y-1611202D01*
X166986Y-1611436D01*
X167808Y-1611671D01*
X168394Y-1612023D01*
X168864Y-1612258D01*
X169098Y-1612375D01*
X169216Y-1612493D01*
X169803Y-1613079D01*
X170155Y-1613783D01*
X170624Y-1615074D01*
X170741Y-1615661D01*
X170859Y-1616013D01*
Y-1616365D01*
Y-1616482D01*
X170741Y-1617304D01*
X170624Y-1618125D01*
X170037Y-1619416D01*
X169685Y-1619886D01*
X169451Y-1620238D01*
X169333Y-1620355D01*
X169216Y-1620472D01*
X168394Y-1621059D01*
X167573Y-1621411D01*
X165578Y-1621880D01*
X164639Y-1621998D01*
X163935Y-1622115D01*
X143517D01*
X142108Y-1621998D01*
X140818Y-1621880D01*
X139879Y-1621646D01*
X139057Y-1621294D01*
X138471Y-1620942D01*
X138001Y-1620707D01*
X137767Y-1620590D01*
X137649Y-1620472D01*
X137062Y-1619886D01*
X136593Y-1619181D01*
X136358Y-1618477D01*
X136124Y-1617891D01*
X136006Y-1617304D01*
X135889Y-1616834D01*
Y-1616600D01*
Y-1616482D01*
X136006Y-1615544D01*
X136124Y-1614840D01*
X136710Y-1613549D01*
X137062Y-1613079D01*
X137415Y-1612727D01*
X137532Y-1612610D01*
X137649Y-1612493D01*
X138353Y-1612023D01*
X139292Y-1611554D01*
X141287Y-1611202D01*
X142108Y-1611084D01*
X142813Y-1610967D01*
X150205D01*
Y-1592543D01*
X148680Y-1593482D01*
X147154Y-1594186D01*
X145746Y-1594890D01*
X144573Y-1595477D01*
X143517Y-1595829D01*
X142695Y-1596181D01*
X142226Y-1596299D01*
X141991Y-1596416D01*
X138823Y-1597120D01*
X137415Y-1597355D01*
X136124Y-1597472D01*
X135068D01*
X134129Y-1597589D01*
X133425D01*
X131547Y-1597472D01*
X129787Y-1597355D01*
X126384Y-1596651D01*
X123215Y-1595712D01*
X121925Y-1595125D01*
X120634Y-1594539D01*
X119460Y-1594069D01*
X118404Y-1593482D01*
X117465Y-1593013D01*
X116761Y-1592544D01*
X116175Y-1592192D01*
X115705Y-1591840D01*
X115470Y-1591722D01*
X115353Y-1591605D01*
X113710Y-1590197D01*
X112185Y-1588789D01*
X110894Y-1587263D01*
X109838Y-1585737D01*
X108899Y-1584212D01*
X108078Y-1582686D01*
X107491Y-1581278D01*
X106904Y-1579870D01*
X106552Y-1578462D01*
X106200Y-1577288D01*
X105965Y-1576232D01*
X105848Y-1575294D01*
Y-1574472D01*
X105731Y-1573885D01*
Y-1573533D01*
Y-1573416D01*
X105848Y-1571538D01*
X106083Y-1569778D01*
X106435Y-1568018D01*
X107021Y-1566375D01*
X108312Y-1563324D01*
X109016Y-1561916D01*
X109720Y-1560742D01*
X110542Y-1559569D01*
X111246Y-1558513D01*
X111950Y-1557691D01*
X112537Y-1556987D01*
X113123Y-1556400D01*
X113476Y-1555931D01*
X113710Y-1555696D01*
X113828Y-1555579D01*
X115353Y-1554171D01*
X116996Y-1552997D01*
X118639Y-1551941D01*
X120282Y-1551002D01*
X121925Y-1550298D01*
X123567Y-1549594D01*
X126618Y-1548655D01*
X128027Y-1548421D01*
X129317Y-1548186D01*
X130491Y-1547951D01*
X131547Y-1547834D01*
X132251Y-1547716D01*
X135068D01*
X136710Y-1547951D01*
D02*
G37*
%LPC*%
G36*
X-456193Y-1235725D02*
X-424471D01*
Y-1237236D01*
X-421450D01*
Y-1238746D01*
X-416918D01*
Y-1240257D01*
X-412387D01*
Y-1241767D01*
X-409365D01*
Y-1243278D01*
X-407855D01*
Y-1244788D01*
X-404834D01*
Y-1246299D01*
X-403323D01*
Y-1247810D01*
X-400302D01*
Y-1250831D01*
X-397281D01*
Y-1252341D01*
X-395770D01*
Y-1253852D01*
X-394260D01*
Y-1255362D01*
X-392749D01*
Y-1256873D01*
X-391238D01*
Y-1259894D01*
X-389728D01*
Y-1262915D01*
X-388217D01*
Y-1265937D01*
X-386707D01*
Y-1268958D01*
X-385196D01*
Y-1270468D01*
X-383686D01*
Y-1275000D01*
X-382175D01*
Y-1281042D01*
X-380664D01*
Y-1284063D01*
X-379154D01*
Y-1288595D01*
X-382175D01*
Y-1290106D01*
X-500000D01*
Y-1284063D01*
X-498489D01*
Y-1276511D01*
X-496979D01*
Y-1271979D01*
X-495468D01*
Y-1268958D01*
X-493958D01*
Y-1265937D01*
X-492447D01*
Y-1262915D01*
X-490937D01*
Y-1261405D01*
X-489426D01*
Y-1258384D01*
X-487915D01*
Y-1256873D01*
X-486405D01*
Y-1255362D01*
X-484894D01*
Y-1253852D01*
X-483384D01*
Y-1252341D01*
X-481873D01*
Y-1250831D01*
X-480363D01*
Y-1249320D01*
X-477341D01*
Y-1247810D01*
X-475831D01*
Y-1246299D01*
X-474320D01*
Y-1244788D01*
X-472810D01*
Y-1243278D01*
X-469788D01*
Y-1241767D01*
X-468278D01*
Y-1240257D01*
X-463746D01*
Y-1238746D01*
X-459214D01*
Y-1237236D01*
X-456193D01*
Y-1235725D01*
D02*
G37*
G36*
X184290Y-1204003D02*
X187311D01*
Y-1205514D01*
X188822D01*
Y-1210045D01*
X190332D01*
Y-1214577D01*
X191843D01*
Y-1217598D01*
X193354D01*
Y-1220619D01*
X194864D01*
Y-1223640D01*
X196375D01*
Y-1229683D01*
X197885D01*
Y-1232704D01*
X199396D01*
Y-1234214D01*
X200906D01*
Y-1238746D01*
X202417D01*
Y-1243278D01*
X203928D01*
Y-1244788D01*
X205438D01*
Y-1249320D01*
X206949D01*
Y-1253852D01*
X208459D01*
Y-1258384D01*
X209970D01*
Y-1259894D01*
X211480D01*
Y-1264426D01*
X212991D01*
Y-1268958D01*
X214502D01*
Y-1271979D01*
X216012D01*
Y-1275000D01*
X217523D01*
Y-1279532D01*
X219033D01*
Y-1282553D01*
X220544D01*
Y-1287085D01*
X222054D01*
Y-1291616D01*
X220544D01*
Y-1293127D01*
X219033D01*
Y-1291616D01*
X164653D01*
Y-1293127D01*
X163142D01*
Y-1291616D01*
X158610D01*
Y-1293127D01*
X155589D01*
Y-1291616D01*
X152568D01*
Y-1293127D01*
X151058D01*
Y-1291616D01*
X149547D01*
Y-1287085D01*
X151058D01*
Y-1282553D01*
X152568D01*
Y-1279532D01*
X154079D01*
Y-1276511D01*
X155589D01*
Y-1271979D01*
X157100D01*
Y-1267447D01*
X158610D01*
Y-1264426D01*
X160121D01*
Y-1261405D01*
X161632D01*
Y-1256873D01*
X163142D01*
Y-1253852D01*
X164653D01*
Y-1250831D01*
X166163D01*
Y-1246299D01*
X167674D01*
Y-1241767D01*
X169184D01*
Y-1238746D01*
X170695D01*
Y-1235725D01*
X172206D01*
Y-1231193D01*
X173716D01*
Y-1228172D01*
X175227D01*
Y-1225151D01*
X176737D01*
Y-1220619D01*
X178248D01*
Y-1217598D01*
X179758D01*
Y-1213066D01*
X181269D01*
Y-1208535D01*
X182780D01*
Y-1207024D01*
X184290D01*
Y-1204003D01*
D02*
G37*
G36*
X415408Y-1193429D02*
X475831D01*
Y-1244788D01*
Y-1246299D01*
Y-1275000D01*
X415408D01*
Y-1273489D01*
X409366D01*
Y-1271979D01*
X407855D01*
Y-1270468D01*
X403323D01*
Y-1268958D01*
X400302D01*
Y-1267447D01*
X397281D01*
Y-1265937D01*
X395771D01*
Y-1264426D01*
X394260D01*
Y-1262915D01*
X392749D01*
Y-1261405D01*
X391239D01*
Y-1259894D01*
X389728D01*
Y-1258384D01*
X388218D01*
Y-1255362D01*
X386707D01*
Y-1252341D01*
X385197D01*
Y-1249320D01*
X383686D01*
Y-1244788D01*
X382175D01*
Y-1223640D01*
X383686D01*
Y-1219109D01*
X385197D01*
Y-1214577D01*
X386707D01*
Y-1211556D01*
X388218D01*
Y-1210045D01*
X389728D01*
Y-1208535D01*
X391239D01*
Y-1207024D01*
X392749D01*
Y-1205514D01*
X394260D01*
Y-1204003D01*
X395771D01*
Y-1202492D01*
X397281D01*
Y-1200982D01*
X400302D01*
Y-1199471D01*
X401813D01*
Y-1197961D01*
X406345D01*
Y-1196450D01*
X409366D01*
Y-1194940D01*
X415408D01*
Y-1193429D01*
D02*
G37*
G36*
X206885Y-1577406D02*
X203599D01*
X201369Y-1577640D01*
X199257Y-1577875D01*
X197379Y-1578110D01*
X195736Y-1578344D01*
X194446Y-1578579D01*
X193976Y-1578696D01*
X193624D01*
X193390Y-1578814D01*
X193272D01*
Y-1583508D01*
X194798Y-1584446D01*
X196441Y-1585385D01*
X197966Y-1586089D01*
X199492Y-1586676D01*
X200665Y-1587263D01*
X201721Y-1587615D01*
X202308Y-1587732D01*
X202425Y-1587850D01*
X202543D01*
X204420Y-1588319D01*
X206063Y-1588671D01*
X207589Y-1589023D01*
X208997Y-1589140D01*
X210053Y-1589258D01*
X210874Y-1589375D01*
X211578D01*
X213221Y-1589258D01*
X214747Y-1589140D01*
X216038Y-1588788D01*
X217094Y-1588436D01*
X218033Y-1588202D01*
X218619Y-1587850D01*
X218971Y-1587732D01*
X219089Y-1587615D01*
X219558Y-1587263D01*
X219910Y-1586793D01*
X220262Y-1585972D01*
X220497Y-1585268D01*
Y-1585150D01*
Y-1585033D01*
X220380Y-1584212D01*
X220027Y-1583508D01*
X219558Y-1582804D01*
X218971Y-1582099D01*
X218385Y-1581630D01*
X217915Y-1581161D01*
X217563Y-1580926D01*
X217446Y-1580809D01*
X215568Y-1579635D01*
X213573Y-1578814D01*
X211578Y-1578227D01*
X209701Y-1577875D01*
X208175Y-1577523D01*
X206885Y-1577406D01*
D02*
G37*
G36*
X-465989Y-1558865D02*
X-466928D01*
X-469040Y-1558982D01*
X-470918Y-1559217D01*
X-472560Y-1559686D01*
X-473969Y-1560038D01*
X-475142Y-1560508D01*
X-476081Y-1560977D01*
X-476550Y-1561212D01*
X-476785Y-1561329D01*
X-478310Y-1562268D01*
X-479601Y-1563441D01*
X-480775Y-1564615D01*
X-481831Y-1565788D01*
X-482535Y-1566844D01*
X-483122Y-1567666D01*
X-483474Y-1568253D01*
X-483591Y-1568487D01*
X-450382D01*
X-451438Y-1566844D01*
X-452494Y-1565319D01*
X-453667Y-1564145D01*
X-454723Y-1563089D01*
X-455662Y-1562268D01*
X-456366Y-1561799D01*
X-456836Y-1561446D01*
X-457070Y-1561329D01*
X-458713Y-1560508D01*
X-460356Y-1559921D01*
X-461999Y-1559452D01*
X-463642Y-1559217D01*
X-464933Y-1558982D01*
X-465989Y-1558865D01*
D02*
G37*
G36*
X8566Y-1543727D02*
X-4342D01*
X-6571Y-1543844D01*
X-8684Y-1544196D01*
X-10327Y-1544666D01*
X-11735Y-1545252D01*
X-12908Y-1545839D01*
X-13612Y-1546309D01*
X-14199Y-1546661D01*
X-14316Y-1546778D01*
X-15490Y-1547951D01*
X-16311Y-1549125D01*
X-17015Y-1550298D01*
X-17368Y-1551355D01*
X-17602Y-1552293D01*
X-17837Y-1552997D01*
Y-1553467D01*
Y-1553701D01*
X-17602Y-1555344D01*
X-17133Y-1556870D01*
X-16429Y-1558278D01*
X-15725Y-1559452D01*
X-14903Y-1560390D01*
X-14199Y-1561094D01*
X-13730Y-1561564D01*
X-13495Y-1561681D01*
X-11735Y-1562737D01*
X-9857Y-1563559D01*
X-7862Y-1564145D01*
X-5985Y-1564498D01*
X-4342Y-1564732D01*
X-2934Y-1564967D01*
X8566D01*
Y-1543727D01*
D02*
G37*
G36*
X-120516D02*
X-135185D01*
X-137297Y-1543844D01*
X-139175Y-1544079D01*
X-140700Y-1544431D01*
X-141991Y-1544900D01*
X-142930Y-1545370D01*
X-143517Y-1545722D01*
X-143986Y-1545957D01*
X-144103Y-1546074D01*
X-145042Y-1546895D01*
X-145746Y-1547834D01*
X-146216Y-1548656D01*
X-146568Y-1549477D01*
X-146802Y-1550181D01*
X-146920Y-1550768D01*
Y-1551120D01*
Y-1551237D01*
X-146802Y-1552411D01*
X-146450Y-1553584D01*
X-145981Y-1554523D01*
X-145394Y-1555344D01*
X-144807Y-1555931D01*
X-144338Y-1556518D01*
X-143986Y-1556753D01*
X-143869Y-1556870D01*
X-142108Y-1557926D01*
X-140348Y-1558747D01*
X-138471Y-1559334D01*
X-136710Y-1559686D01*
X-135185Y-1559921D01*
X-134011Y-1560156D01*
X-120516D01*
Y-1543727D01*
D02*
G37*
G36*
Y-1571304D02*
X-135302D01*
X-138119Y-1571421D01*
X-140583Y-1571773D01*
X-142695Y-1572360D01*
X-144455Y-1572947D01*
X-145746Y-1573533D01*
X-146685Y-1574120D01*
X-147272Y-1574472D01*
X-147506Y-1574589D01*
X-148915Y-1575763D01*
X-149971Y-1577054D01*
X-150675Y-1578110D01*
X-151262Y-1579166D01*
X-151496Y-1579987D01*
X-151614Y-1580692D01*
X-151731Y-1581161D01*
Y-1581278D01*
X-151614Y-1582217D01*
X-151379Y-1583156D01*
X-151027Y-1583860D01*
X-150675Y-1584447D01*
X-150205Y-1585033D01*
X-149853Y-1585385D01*
X-149619Y-1585503D01*
X-149501Y-1585620D01*
X-148328Y-1586324D01*
X-146802Y-1586794D01*
X-145277Y-1587146D01*
X-143634Y-1587380D01*
X-142226Y-1587498D01*
X-140935Y-1587615D01*
X-120516D01*
Y-1571304D01*
D02*
G37*
G36*
X-389126Y-1543727D02*
X-401917D01*
X-404264Y-1543844D01*
X-406259Y-1544196D01*
X-408019Y-1544666D01*
X-409427Y-1545135D01*
X-410483Y-1545604D01*
X-411305Y-1546074D01*
X-411774Y-1546426D01*
X-411891Y-1546543D01*
X-413065Y-1547599D01*
X-413886Y-1548538D01*
X-414473Y-1549594D01*
X-414825Y-1550533D01*
X-415177Y-1551237D01*
X-415295Y-1551824D01*
Y-1552293D01*
Y-1552411D01*
X-415177Y-1553232D01*
X-415060Y-1553936D01*
X-414356Y-1555344D01*
X-414004Y-1555931D01*
X-413769Y-1556400D01*
X-413534Y-1556635D01*
X-413417Y-1556753D01*
X-412596Y-1557574D01*
X-411539Y-1558278D01*
X-410483Y-1558982D01*
X-409310Y-1559569D01*
X-408254Y-1560156D01*
X-407315Y-1560508D01*
X-406728Y-1560742D01*
X-406611Y-1560860D01*
X-406493D01*
X-405085Y-1561329D01*
X-403560Y-1561681D01*
X-402152Y-1561916D01*
X-400743Y-1562033D01*
X-399570Y-1562151D01*
X-398631Y-1562268D01*
X-389126D01*
Y-1543727D01*
D02*
G37*
G36*
X-724624D02*
X-739292D01*
X-741405Y-1543844D01*
X-743282Y-1544079D01*
X-744808Y-1544431D01*
X-746099Y-1544900D01*
X-747037Y-1545370D01*
X-747624Y-1545722D01*
X-748093Y-1545957D01*
X-748211Y-1546074D01*
X-749150Y-1546895D01*
X-749854Y-1547834D01*
X-750323Y-1548656D01*
X-750675Y-1549477D01*
X-750910Y-1550181D01*
X-751027Y-1550768D01*
Y-1551120D01*
Y-1551237D01*
X-750910Y-1552411D01*
X-750558Y-1553584D01*
X-750088Y-1554523D01*
X-749502Y-1555344D01*
X-748915Y-1555931D01*
X-748446Y-1556518D01*
X-748093Y-1556753D01*
X-747976Y-1556870D01*
X-746216Y-1557926D01*
X-744456Y-1558747D01*
X-742578Y-1559334D01*
X-740818Y-1559686D01*
X-739292Y-1559921D01*
X-738119Y-1560156D01*
X-724624D01*
Y-1543727D01*
D02*
G37*
G36*
Y-1571304D02*
X-739410D01*
X-742226Y-1571421D01*
X-744690Y-1571773D01*
X-746803Y-1572360D01*
X-748563Y-1572947D01*
X-749854Y-1573533D01*
X-750793Y-1574120D01*
X-751379Y-1574472D01*
X-751614Y-1574589D01*
X-753022Y-1575763D01*
X-754078Y-1577054D01*
X-754782Y-1578110D01*
X-755369Y-1579166D01*
X-755604Y-1579987D01*
X-755721Y-1580692D01*
X-755838Y-1581161D01*
Y-1581278D01*
X-755721Y-1582217D01*
X-755486Y-1583156D01*
X-755134Y-1583860D01*
X-754782Y-1584447D01*
X-754313Y-1585033D01*
X-753961Y-1585385D01*
X-753726Y-1585503D01*
X-753609Y-1585620D01*
X-752435Y-1586324D01*
X-750910Y-1586794D01*
X-749384Y-1587146D01*
X-747741Y-1587380D01*
X-746333Y-1587498D01*
X-745042Y-1587615D01*
X-724624D01*
Y-1571304D01*
D02*
G37*
G36*
X134363Y-1558865D02*
X133542D01*
X131664Y-1558982D01*
X129904Y-1559217D01*
X128379Y-1559686D01*
X127088Y-1560038D01*
X126032Y-1560507D01*
X125210Y-1560977D01*
X124624Y-1561212D01*
X124506Y-1561329D01*
X123098Y-1562268D01*
X121925Y-1563324D01*
X120986Y-1564380D01*
X120164Y-1565319D01*
X119578Y-1566140D01*
X119108Y-1566844D01*
X118874Y-1567314D01*
X118756Y-1567431D01*
X118169Y-1568722D01*
X117700Y-1569896D01*
X117348Y-1570952D01*
X117113Y-1571773D01*
X116996Y-1572477D01*
X116879Y-1572947D01*
Y-1573299D01*
Y-1573416D01*
X117113Y-1575176D01*
X117583Y-1576819D01*
X118404Y-1578345D01*
X119226Y-1579635D01*
X120164Y-1580692D01*
X120986Y-1581630D01*
X121455Y-1582100D01*
X121690Y-1582334D01*
X123567Y-1583743D01*
X125562Y-1584681D01*
X127557Y-1585385D01*
X129435Y-1585972D01*
X131078Y-1586207D01*
X132369Y-1586324D01*
X132838Y-1586441D01*
X133542D01*
X136124Y-1586207D01*
X138471Y-1585737D01*
X140466Y-1585150D01*
X142226Y-1584329D01*
X143634Y-1583508D01*
X144690Y-1582921D01*
X145277Y-1582451D01*
X145512Y-1582217D01*
X147037Y-1580574D01*
X148211Y-1579048D01*
X149032Y-1577640D01*
X149619Y-1576232D01*
X149971Y-1575176D01*
X150088Y-1574237D01*
X150205Y-1573768D01*
Y-1573533D01*
X150088Y-1572008D01*
X149736Y-1570599D01*
X149149Y-1569191D01*
X148563Y-1567900D01*
X147976Y-1566727D01*
X147389Y-1565905D01*
X147037Y-1565436D01*
X146920Y-1565201D01*
X145981Y-1564028D01*
X144925Y-1563089D01*
X143869Y-1562268D01*
X142695Y-1561564D01*
X140466Y-1560390D01*
X138353Y-1559686D01*
X136476Y-1559217D01*
X135654Y-1559099D01*
X134950Y-1558982D01*
X134363Y-1558865D01*
D02*
G37*
%LPD*%
%TF.MD5,f590858bf3d4398d080d10d4a8e23c78*%
M02*
