%TF.GenerationSoftware,Altium Limited,Altium Designer,22.5.1 (42)*%
G04 Layer_Color=8388736*
%FSLAX45Y45*%
%MOMM*%
%TF.SameCoordinates,A79CAE12-DCBF-455A-9705-E792248E02F7*%
%TF.FilePolarity,Negative*%
%TF.FileFunction,Soldermask,Top*%
%TF.Part,Single*%
G01*
G75*
%TA.AperFunction,SMDPad,CuDef*%
%ADD52R,0.80320X0.80320*%
%ADD53R,0.75320X0.80320*%
%ADD54R,0.80320X0.80320*%
%ADD55R,0.80320X0.75320*%
%ADD56R,0.55000X0.90000*%
%ADD57R,0.70000X0.90000*%
%ADD58R,0.80320X1.20320*%
%ADD59C,1.20320*%
%ADD60R,0.63000X0.32000*%
%ADD61R,0.58000X0.32000*%
%ADD62R,2.25000X3.35000*%
%ADD63R,2.25000X1.05000*%
%ADD64C,0.33000*%
%ADD65R,0.45560X0.68420*%
%ADD66R,0.68420X0.45560*%
%ADD67R,2.50000X0.86000*%
%ADD68R,0.90000X0.30000*%
%ADD69R,1.80000X1.80000*%
%ADD70R,0.30000X0.90000*%
%ADD71R,0.90000X0.90000*%
%TA.AperFunction,ComponentPad*%
%ADD72C,1.30320*%
G04:AMPARAMS|DCode=73|XSize=2.3mm|YSize=2.3mm|CornerRadius=0.27mm|HoleSize=0mm|Usage=FLASHONLY|Rotation=270.000|XOffset=0mm|YOffset=0mm|HoleType=Round|Shape=RoundedRectangle|*
%AMROUNDEDRECTD73*
21,1,2.30000,1.76000,0,0,270.0*
21,1,1.76000,2.30000,0,0,270.0*
1,1,0.54000,-0.88000,-0.88000*
1,1,0.54000,-0.88000,0.88000*
1,1,0.54000,0.88000,0.88000*
1,1,0.54000,0.88000,-0.88000*
%
%ADD73ROUNDEDRECTD73*%
G04:AMPARAMS|DCode=74|XSize=2.3mm|YSize=1.3mm|CornerRadius=0.65mm|HoleSize=0mm|Usage=FLASHONLY|Rotation=270.000|XOffset=0mm|YOffset=0mm|HoleType=Round|Shape=RoundedRectangle|*
%AMROUNDEDRECTD74*
21,1,2.30000,0.00000,0,0,270.0*
21,1,1.00000,1.30000,0,0,270.0*
1,1,1.30000,0.00000,-0.50000*
1,1,1.30000,0.00000,0.50000*
1,1,1.30000,0.00000,0.50000*
1,1,1.30000,0.00000,-0.50000*
%
%ADD74ROUNDEDRECTD74*%
G04:AMPARAMS|DCode=75|XSize=2.3mm|YSize=1.3mm|CornerRadius=0.65mm|HoleSize=0mm|Usage=FLASHONLY|Rotation=180.000|XOffset=0mm|YOffset=0mm|HoleType=Round|Shape=RoundedRectangle|*
%AMROUNDEDRECTD75*
21,1,2.30000,0.00000,0,0,180.0*
21,1,1.00000,1.30000,0,0,180.0*
1,1,1.30000,-0.50000,0.00000*
1,1,1.30000,0.50000,0.00000*
1,1,1.30000,0.50000,0.00000*
1,1,1.30000,-0.50000,0.00000*
%
%ADD75ROUNDEDRECTD75*%
%TA.AperFunction,ViaPad*%
%ADD76C,3.80000*%
D52*
X-276041Y-917581D02*
D03*
X-276041Y-817574D02*
D03*
X700010Y-2450010D02*
D03*
Y-2350003D02*
D03*
X-925009Y-1399990D02*
D03*
Y-1499997D02*
D03*
X-925001Y-1200007D02*
D03*
X-925000Y-1100000D02*
D03*
X-924991Y-1749995D02*
D03*
X-924991Y-1850003D02*
D03*
X-425000Y-724993D02*
D03*
Y-825000D02*
D03*
X49990Y-1424990D02*
D03*
X49991Y-1524997D02*
D03*
X9Y-1850010D02*
D03*
X9Y-1750003D02*
D03*
D53*
X-800000Y-2250000D02*
D03*
X-800000Y-2350000D02*
D03*
X-700000Y-150000D02*
D03*
Y-250000D02*
D03*
X-500000Y-150000D02*
D03*
Y-250000D02*
D03*
X-600000Y-1300000D02*
D03*
X-600000Y-1200000D02*
D03*
X-500000Y-1299999D02*
D03*
Y-1200000D02*
D03*
X-400000Y-1750000D02*
D03*
Y-1850000D02*
D03*
X-700000Y-2250000D02*
D03*
X-700000Y-2350000D02*
D03*
D54*
X-497500Y-1023648D02*
D03*
X-597507Y-1023648D02*
D03*
X649991Y-1100009D02*
D03*
X749997D02*
D03*
X-799990Y-1299990D02*
D03*
X-899997Y-1299991D02*
D03*
X-374991Y-549991D02*
D03*
X-474997Y-549990D02*
D03*
X-675010Y-550009D02*
D03*
X-575003D02*
D03*
X66941Y-435741D02*
D03*
X-33066Y-435740D02*
D03*
X66941Y-334140D02*
D03*
X-33066Y-334140D02*
D03*
D55*
X-135080Y-435385D02*
D03*
X-235079Y-435385D02*
D03*
X370780Y-673857D02*
D03*
X270780D02*
D03*
X-100000Y-1150000D02*
D03*
X-200000Y-1150000D02*
D03*
X-100000Y-1000000D02*
D03*
X-200001Y-1000000D02*
D03*
D56*
X-685000Y-1400000D02*
D03*
Y-1600000D02*
D03*
X-750000D02*
D03*
X-815000D02*
D03*
Y-1400000D02*
D03*
X-685000Y-1850000D02*
D03*
Y-2050000D02*
D03*
X-750000D02*
D03*
X-815000D02*
D03*
Y-1850000D02*
D03*
D57*
X265000Y-1000000D02*
D03*
X435000Y-1000000D02*
D03*
X265000Y-850000D02*
D03*
X435000Y-850000D02*
D03*
D58*
X795000Y-700000D02*
D03*
X700000Y-700000D02*
D03*
X605000Y-700000D02*
D03*
Y-960000D02*
D03*
X795000Y-959999D02*
D03*
D59*
X-225000Y-1850000D02*
D03*
D60*
X-394553Y-1016659D02*
D03*
D61*
X-397053Y-1051659D02*
D03*
X-397052Y-1086659D02*
D03*
Y-1121659D02*
D03*
X-327052Y-1121659D02*
D03*
Y-1086659D02*
D03*
Y-1051659D02*
D03*
Y-1016659D02*
D03*
D62*
X854999Y-1550000D02*
D03*
D63*
X275000Y-1780001D02*
D03*
X275000Y-1550000D02*
D03*
Y-1320000D02*
D03*
D64*
X-775000Y-1110000D02*
D03*
X-735000Y-1110001D02*
D03*
X-775000Y-1150000D02*
D03*
X-735000D02*
D03*
D65*
X-725019Y-895650D02*
D03*
X-675006D02*
D03*
X-624994Y-895650D02*
D03*
X-574981Y-895650D02*
D03*
Y-654350D02*
D03*
X-624993D02*
D03*
X-675006Y-654350D02*
D03*
X-725019Y-654350D02*
D03*
D66*
X-554130Y-825013D02*
D03*
X-554130Y-775000D02*
D03*
X-554130Y-724987D02*
D03*
X-745870D02*
D03*
Y-775000D02*
D03*
Y-825013D02*
D03*
D67*
X409999Y-427001D02*
D03*
X409999Y-300000D02*
D03*
X410000Y-173000D02*
D03*
X800000Y-173001D02*
D03*
X800000Y-300000D02*
D03*
X800000Y-427000D02*
D03*
D68*
X145000Y-700000D02*
D03*
Y-740000D02*
D03*
Y-620001D02*
D03*
Y-660000D02*
D03*
X-145000Y-780000D02*
D03*
Y-740000D02*
D03*
Y-660000D02*
D03*
X-145000Y-700000D02*
D03*
X-145000Y-620001D02*
D03*
X145000Y-780000D02*
D03*
D69*
X0Y-700000D02*
D03*
D70*
X-40000Y-845000D02*
D03*
X80000D02*
D03*
X40000Y-845000D02*
D03*
X0Y-845000D02*
D03*
X-80000Y-555000D02*
D03*
X-40000D02*
D03*
X40000Y-555000D02*
D03*
X0Y-555000D02*
D03*
X80000D02*
D03*
X-80000Y-845000D02*
D03*
D71*
X-800000Y-280000D02*
D03*
Y-120000D02*
D03*
X-600000Y-280000D02*
D03*
X-600000Y-120000D02*
D03*
D72*
X-1Y-2400000D02*
D03*
X0Y-2900000D02*
D03*
D73*
X549999Y-2650000D02*
D03*
X-510001Y-2900000D02*
D03*
D74*
X-450001Y-2089999D02*
D03*
X-310001Y-2290000D02*
D03*
X450000Y-2900001D02*
D03*
X-160000Y-2090000D02*
D03*
X359999Y-2400001D02*
D03*
D75*
X70000Y-2070000D02*
D03*
D76*
X1000000Y-3000000D02*
D03*
X-1000000D02*
D03*
X0Y0D02*
D03*
%TF.MD5,53bd89ec01064343305af79b3555b3db*%
M02*
