%TF.GenerationSoftware,Altium Limited,Altium Designer,22.5.1 (42)*%
G04 Layer_Physical_Order=1*
G04 Layer_Color=6711008*
%FSLAX45Y45*%
%MOMM*%
%TF.SameCoordinates,A79CAE12-DCBF-455A-9705-E792248E02F7*%
%TF.FilePolarity,Positive*%
%TF.FileFunction,Copper,L1,Top,Signal*%
%TF.Part,Single*%
G01*
G75*
%TA.AperFunction,SMDPad,CuDef*%
%ADD10R,0.60000X0.60000*%
%ADD11R,0.55000X0.60000*%
%ADD12R,0.60000X0.60000*%
%ADD13R,0.60000X0.55000*%
%ADD14R,0.45000X0.80000*%
%ADD15R,0.60000X0.80000*%
%ADD16R,0.60000X1.00000*%
%ADD17C,1.00000*%
%ADD18R,0.53000X0.22000*%
%ADD19R,0.48000X0.22000*%
%ADD20R,2.15000X3.25000*%
%ADD21R,2.15000X0.95000*%
%ADD22C,0.23000*%
%ADD23R,0.35560X0.58420*%
%ADD24R,0.58420X0.35560*%
%ADD25R,2.40000X0.76000*%
%ADD26R,0.80000X0.20000*%
%ADD27R,1.70000X1.70000*%
%ADD28R,0.20000X0.80000*%
%ADD29R,0.80000X0.80000*%
%TA.AperFunction,Conductor*%
%ADD30C,0.12700*%
%ADD31C,0.50800*%
%ADD32C,0.38100*%
%ADD33C,0.25400*%
%ADD34C,0.20320*%
%ADD35C,0.63500*%
%ADD36C,0.88900*%
%ADD37C,0.30480*%
%TA.AperFunction,ComponentPad*%
%ADD38C,1.10000*%
G04:AMPARAMS|DCode=39|XSize=2.2mm|YSize=2.2mm|CornerRadius=0.22mm|HoleSize=0mm|Usage=FLASHONLY|Rotation=270.000|XOffset=0mm|YOffset=0mm|HoleType=Round|Shape=RoundedRectangle|*
%AMROUNDEDRECTD39*
21,1,2.20000,1.76000,0,0,270.0*
21,1,1.76000,2.20000,0,0,270.0*
1,1,0.44000,-0.88000,-0.88000*
1,1,0.44000,-0.88000,0.88000*
1,1,0.44000,0.88000,0.88000*
1,1,0.44000,0.88000,-0.88000*
%
%ADD39ROUNDEDRECTD39*%
G04:AMPARAMS|DCode=40|XSize=2.2mm|YSize=1.2mm|CornerRadius=0.6mm|HoleSize=0mm|Usage=FLASHONLY|Rotation=270.000|XOffset=0mm|YOffset=0mm|HoleType=Round|Shape=RoundedRectangle|*
%AMROUNDEDRECTD40*
21,1,2.20000,0.00000,0,0,270.0*
21,1,1.00000,1.20000,0,0,270.0*
1,1,1.20000,0.00000,-0.50000*
1,1,1.20000,0.00000,0.50000*
1,1,1.20000,0.00000,0.50000*
1,1,1.20000,0.00000,-0.50000*
%
%ADD40ROUNDEDRECTD40*%
G04:AMPARAMS|DCode=41|XSize=2.2mm|YSize=1.2mm|CornerRadius=0.6mm|HoleSize=0mm|Usage=FLASHONLY|Rotation=180.000|XOffset=0mm|YOffset=0mm|HoleType=Round|Shape=RoundedRectangle|*
%AMROUNDEDRECTD41*
21,1,2.20000,0.00000,0,0,180.0*
21,1,1.00000,1.20000,0,0,180.0*
1,1,1.20000,-0.50000,0.00000*
1,1,1.20000,0.50000,0.00000*
1,1,1.20000,0.50000,0.00000*
1,1,1.20000,-0.50000,0.00000*
%
%ADD41ROUNDEDRECTD41*%
%TA.AperFunction,ViaPad*%
%ADD42C,3.70000*%
%ADD43C,0.70000*%
G36*
X0Y185713D02*
X1786Y186452D01*
X44490Y182246D01*
X87271Y169269D01*
X126697Y148195D01*
X159868Y120973D01*
X160608Y119187D01*
X200095Y79700D01*
X200389Y79578D01*
X238442Y47077D01*
X281363Y20776D01*
X327869Y1512D01*
X376817Y-10239D01*
X426706Y-14166D01*
X427000Y-14288D01*
X900000D01*
X901018Y-13866D01*
X922328Y-16671D01*
X943134Y-25290D01*
X961001Y-38999D01*
X974710Y-56866D01*
X983328Y-77672D01*
X984617Y-87457D01*
X985712Y-100000D01*
X985712Y-100000D01*
X985713Y-112680D01*
Y-457815D01*
X973013Y-463075D01*
X932700Y-422763D01*
Y-376300D01*
X667300D01*
Y-477700D01*
X877763D01*
X913222Y-513160D01*
Y-605404D01*
X900522Y-610665D01*
X817965Y-528108D01*
X810404Y-523055D01*
X801484Y-521281D01*
X668743D01*
X628308Y-480846D01*
Y-345001D01*
X626534Y-336081D01*
X621482Y-328520D01*
X576481Y-283519D01*
X568920Y-278467D01*
X560000Y-276693D01*
X542699D01*
Y-249300D01*
X277299D01*
Y-276693D01*
X259742D01*
X250823Y-278467D01*
X243261Y-283519D01*
X206140Y-320641D01*
X201087Y-328202D01*
X199313Y-337122D01*
Y-412322D01*
X186613Y-419243D01*
X174250Y-414122D01*
X155274D01*
X137742Y-421384D01*
X124324Y-434802D01*
X117062Y-452334D01*
Y-471310D01*
X117046Y-471334D01*
X92935D01*
X84015Y-473108D01*
X76453Y-478161D01*
X63519Y-491096D01*
X58466Y-498657D01*
X57742Y-502300D01*
X57300D01*
Y-504521D01*
X56692Y-507577D01*
Y-555000D01*
X57300Y-558056D01*
Y-607700D01*
X92300D01*
Y-682700D01*
Y-792300D01*
X57300D01*
Y-792300D01*
X22700D01*
Y-792300D01*
X-22700D01*
Y-792300D01*
X-92300D01*
Y-722700D01*
X-92300D01*
Y-677300D01*
X-92300D01*
Y-607700D01*
X22700D01*
Y-558056D01*
X23308Y-555000D01*
Y-468807D01*
X21534Y-459887D01*
X16481Y-452326D01*
X9633Y-445478D01*
Y-393040D01*
X5780D01*
Y-376840D01*
X9633D01*
Y-291440D01*
X-75766D01*
Y-376840D01*
X-71913D01*
Y-393040D01*
X-75766D01*
Y-396894D01*
X-92380D01*
Y-395186D01*
X-96233D01*
Y-356987D01*
X-92160Y-347154D01*
Y-328177D01*
X-99422Y-310646D01*
X-112840Y-297227D01*
X-130372Y-289966D01*
X-149348D01*
X-166880Y-297227D01*
X-180298Y-310646D01*
X-187560Y-328177D01*
Y-347154D01*
X-180298Y-364685D01*
X-173926Y-371057D01*
Y-395186D01*
X-177780D01*
Y-475585D01*
X-92380D01*
Y-474587D01*
X-75766D01*
Y-478440D01*
X-23329D01*
X-23308Y-478461D01*
Y-502300D01*
X-102700D01*
Y-597301D01*
X-121692D01*
Y-573824D01*
X-123466Y-564905D01*
X-128519Y-557343D01*
X-198544Y-487318D01*
X-193684Y-475585D01*
X-192379D01*
Y-395185D01*
X-211771D01*
Y-306607D01*
X-159660Y-254496D01*
X168812D01*
X177731Y-252722D01*
X185293Y-247670D01*
X236654Y-196308D01*
X277300D01*
Y-223700D01*
X542700D01*
Y-122300D01*
X277300D01*
Y-149693D01*
X227000D01*
X218080Y-151467D01*
X210519Y-156519D01*
X159157Y-207881D01*
X-169315D01*
X-178234Y-209655D01*
X-185796Y-214707D01*
X-251560Y-280472D01*
X-256613Y-288033D01*
X-258387Y-296953D01*
Y-395185D01*
X-277779D01*
Y-458261D01*
X-289512Y-463121D01*
X-341368Y-411266D01*
X-347669Y-407055D01*
X-355102Y-405577D01*
X-513228D01*
X-573405Y-345400D01*
X-568144Y-332700D01*
X-547300D01*
Y-227300D01*
X-652700D01*
Y-332700D01*
X-619423D01*
Y-346273D01*
X-617945Y-353706D01*
X-613735Y-360007D01*
X-598371Y-375371D01*
X-603231Y-387105D01*
X-765353D01*
X-780577Y-371881D01*
Y-332700D01*
X-747300D01*
Y-227300D01*
X-852700D01*
Y-332700D01*
X-819423D01*
Y-379927D01*
X-817944Y-387360D01*
X-813734Y-393661D01*
X-787133Y-420262D01*
X-780832Y-424472D01*
X-773399Y-425951D01*
X-773397Y-425951D01*
X-661369D01*
X-656109Y-438651D01*
X-665438Y-447980D01*
X-668585Y-455577D01*
X-775000D01*
X-782433Y-457055D01*
X-788734Y-461266D01*
X-788735Y-461267D01*
X-834300Y-506832D01*
X-838511Y-513133D01*
X-839989Y-520566D01*
Y-689005D01*
X-838511Y-696438D01*
X-834300Y-702739D01*
X-798318Y-738722D01*
X-792016Y-742932D01*
X-790475Y-743239D01*
Y-756187D01*
X-794839Y-757055D01*
X-801141Y-761266D01*
X-820759Y-780884D01*
X-824969Y-787185D01*
X-826448Y-794618D01*
Y-973166D01*
X-824969Y-980599D01*
X-820759Y-986900D01*
X-754423Y-1053236D01*
Y-1095200D01*
X-755516Y-1096292D01*
X-759200Y-1105187D01*
Y-1114814D01*
X-758989Y-1115324D01*
X-760580Y-1118129D01*
X-768569Y-1125382D01*
X-775000Y-1124102D01*
X-784911Y-1126074D01*
X-793312Y-1131688D01*
X-835734Y-1174109D01*
X-882301D01*
Y-1157307D01*
X-967701D01*
Y-1238630D01*
X-973013Y-1244195D01*
X-985713Y-1239107D01*
Y-100000D01*
X-986134Y-98982D01*
X-983329Y-77672D01*
X-974711Y-56866D01*
X-961001Y-38999D01*
X-943134Y-25290D01*
X-922328Y-16671D01*
X-901018Y-13866D01*
X-900000Y-14288D01*
X-427000D01*
X-426706Y-14166D01*
X-376817Y-10239D01*
X-327870Y1512D01*
X-281363Y20776D01*
X-238442Y47077D01*
X-200389Y79578D01*
X-200095Y79700D01*
X-160608Y119186D01*
X-159868Y120973D01*
X-126698Y148195D01*
X-87271Y169269D01*
X-44490Y182246D01*
X-1786Y186452D01*
X0Y185713D01*
D02*
G37*
G36*
X-307692Y-545291D02*
Y-686731D01*
X-306213Y-694164D01*
X-302003Y-700466D01*
X-248734Y-753735D01*
X-242433Y-757945D01*
X-235000Y-759423D01*
X-197700D01*
Y-802700D01*
X-102700D01*
Y-870690D01*
X-115400Y-876083D01*
X-130372Y-869881D01*
X-149348D01*
X-166880Y-877143D01*
X-168471Y-878735D01*
X-233341D01*
Y-874881D01*
X-318741D01*
Y-960281D01*
X-295464D01*
Y-992959D01*
X-363752D01*
Y-1027959D01*
X-428947D01*
X-446993Y-1009915D01*
X-446993Y-1009914D01*
X-453295Y-1005704D01*
X-454800Y-1005404D01*
Y-980948D01*
X-454799D01*
X-455857Y-979365D01*
X-449800Y-964741D01*
Y-945764D01*
X-450265Y-944642D01*
X-406688Y-901065D01*
X-401074Y-892663D01*
X-399103Y-882753D01*
Y-867700D01*
X-382300D01*
Y-782300D01*
X-467700D01*
Y-796525D01*
X-512220D01*
Y-794533D01*
X-592714D01*
X-602190Y-784604D01*
X-602300Y-784425D01*
Y-765512D01*
X-609562Y-747980D01*
X-622980Y-734562D01*
X-640512Y-727300D01*
X-659488D01*
X-677020Y-734562D01*
X-690438Y-747980D01*
X-691260Y-749964D01*
X-703960Y-747438D01*
Y-696260D01*
X-694539D01*
Y-696260D01*
X-655473D01*
Y-696260D01*
X-544501D01*
Y-612440D01*
X-546494D01*
Y-592709D01*
X-532303D01*
Y-588856D01*
X-517697D01*
Y-592690D01*
X-432297D01*
Y-507290D01*
X-517697D01*
Y-511163D01*
X-532303D01*
Y-507309D01*
X-536156D01*
Y-499535D01*
X-538126Y-489634D01*
X-536573Y-485968D01*
X-531047Y-479346D01*
X-528538Y-477691D01*
X-375292D01*
X-307692Y-545291D01*
D02*
G37*
G36*
X-665438Y-502020D02*
X-652020Y-515438D01*
X-634488Y-522700D01*
X-617703D01*
Y-592709D01*
X-603468D01*
Y-612440D01*
X-644526D01*
Y-612440D01*
X-705486D01*
Y-612440D01*
X-755499D01*
Y-694507D01*
X-787595D01*
X-801143Y-680959D01*
Y-528612D01*
X-766955Y-494423D01*
X-668585D01*
X-665438Y-502020D01*
D02*
G37*
G36*
X-596040Y-802562D02*
Y-853740D01*
X-605461D01*
Y-937560D01*
X-555548D01*
X-545200Y-945764D01*
X-545200Y-949971D01*
Y-964741D01*
X-539142Y-979365D01*
X-540200Y-980948D01*
X-540200D01*
Y-1066348D01*
X-552532Y-1067236D01*
X-555960D01*
X-563393Y-1068714D01*
X-569694Y-1072925D01*
X-613734Y-1116965D01*
X-617944Y-1123266D01*
X-619423Y-1130699D01*
Y-1157300D01*
X-640200D01*
Y-1162903D01*
X-651933Y-1167763D01*
X-662927Y-1156769D01*
Y-1135138D01*
X-664406Y-1127705D01*
X-668616Y-1121404D01*
X-693754Y-1096266D01*
X-700055Y-1092056D01*
X-707488Y-1090577D01*
X-715577D01*
Y-1045192D01*
X-715576Y-1045191D01*
X-717055Y-1037758D01*
X-718631Y-1035400D01*
X-717143Y-1029344D01*
X-714796Y-1023744D01*
X-713072Y-1021689D01*
X-697980Y-1015438D01*
X-684562Y-1002020D01*
X-677300Y-984488D01*
Y-965512D01*
X-684562Y-947980D01*
X-686361Y-946181D01*
X-694538Y-937560D01*
X-694539D01*
X-694539Y-937559D01*
Y-853740D01*
X-694539Y-853740D01*
X-694538D01*
X-691146Y-841999D01*
X-686278Y-838747D01*
X-667085Y-819553D01*
X-659488Y-822700D01*
X-640512D01*
X-622980Y-815438D01*
X-609562Y-802020D01*
X-608740Y-800036D01*
X-596040Y-802562D01*
D02*
G37*
G36*
X663068Y-625567D02*
X658207Y-637300D01*
X657300D01*
Y-762700D01*
X742700D01*
Y-762701D01*
X752300Y-762700D01*
X759320Y-772492D01*
X760524Y-775400D01*
X749702Y-786221D01*
X579009D01*
X570090Y-787996D01*
X562528Y-793048D01*
X528884Y-826693D01*
X477700D01*
Y-797300D01*
X392300D01*
Y-902700D01*
X411692D01*
Y-947300D01*
X392300D01*
Y-1052700D01*
X477700D01*
Y-1013118D01*
X490400Y-1007858D01*
X497980Y-1015438D01*
X515512Y-1022700D01*
X534488D01*
X549600Y-1016440D01*
X562300Y-1021751D01*
Y-1022700D01*
X647700D01*
Y-897300D01*
X645836D01*
X640976Y-885566D01*
X652810Y-873733D01*
X825936D01*
X834856Y-871958D01*
X842417Y-866906D01*
X900522Y-808801D01*
X913222Y-814062D01*
Y-861838D01*
X853907Y-921153D01*
X837700D01*
Y-897299D01*
X752300D01*
Y-1022699D01*
X756154D01*
Y-1038916D01*
X737760Y-1057310D01*
X707298D01*
Y-1142709D01*
X711151D01*
Y-1208912D01*
X624938Y-1295124D01*
X452345Y-1122531D01*
X439743Y-1114111D01*
X424877Y-1111153D01*
X3611D01*
X2020Y-1109562D01*
X-7688Y-1105541D01*
X-10675Y-1090567D01*
X13734Y-1066158D01*
X17945Y-1059857D01*
X19423Y-1052424D01*
Y-897700D01*
X62700D01*
Y-897700D01*
X102700D01*
Y-802700D01*
X121692D01*
Y-828156D01*
X123466Y-837075D01*
X128519Y-844637D01*
X150363Y-866481D01*
X157924Y-871533D01*
X166844Y-873308D01*
X222301D01*
Y-902700D01*
X307700D01*
Y-797300D01*
X222301D01*
Y-826692D01*
X176498D01*
X168308Y-818502D01*
Y-802700D01*
X197700D01*
Y-763308D01*
X344269D01*
X353189Y-761534D01*
X360750Y-756481D01*
X387261Y-729971D01*
X392313Y-722410D01*
X393975Y-714056D01*
X413480D01*
Y-636534D01*
X419487D01*
X437018Y-629272D01*
X450437Y-615854D01*
X451974Y-612142D01*
X649642D01*
X663068Y-625567D01*
D02*
G37*
G36*
X-142700Y-1121290D02*
Y-1190200D01*
X-57301D01*
X-57300Y-1190200D01*
X-45771Y-1193026D01*
X-34488Y-1197700D01*
X-15512D01*
X2020Y-1190438D01*
X3611Y-1188846D01*
X408786D01*
X586092Y-1366152D01*
Y-1608971D01*
X453909Y-1741154D01*
X395200D01*
Y-1719801D01*
X154801D01*
Y-1741154D01*
X127984D01*
X109364Y-1722534D01*
X96761Y-1714113D01*
X81895Y-1711156D01*
X42709D01*
Y-1707303D01*
X-42691D01*
Y-1711154D01*
X-359800D01*
Y-1707300D01*
X-440200D01*
Y-1792700D01*
X-359800D01*
Y-1788847D01*
X-270478D01*
X-265217Y-1801547D01*
X-278154Y-1814484D01*
X-282139Y-1824103D01*
X-359800D01*
Y-1807300D01*
X-440200D01*
Y-1808063D01*
X-452900Y-1813323D01*
X-474102Y-1792121D01*
Y-1475000D01*
X-476074Y-1465090D01*
X-481688Y-1456688D01*
X-552976Y-1385400D01*
X-547726Y-1372700D01*
X-540512D01*
X-522980Y-1365438D01*
X-509562Y-1352020D01*
X-505701Y-1342699D01*
X-459800D01*
Y-1332372D01*
X-359854D01*
X-144338Y-1547888D01*
X-133836Y-1554905D01*
X-121448Y-1557370D01*
X7291D01*
Y-1567697D01*
X92690D01*
Y-1567698D01*
X105390Y-1563024D01*
X115257Y-1572890D01*
X125759Y-1579908D01*
X138147Y-1582372D01*
X154800D01*
Y-1610200D01*
X395200D01*
Y-1595321D01*
X409768D01*
X415512Y-1597700D01*
X434488D01*
X452020Y-1590438D01*
X465438Y-1577020D01*
X472700Y-1559488D01*
Y-1540512D01*
X465438Y-1522980D01*
X452020Y-1509562D01*
X434488Y-1502300D01*
X415512D01*
X409769Y-1504679D01*
X395200D01*
Y-1489800D01*
X154800D01*
Y-1502911D01*
X142100Y-1508172D01*
X136035Y-1502107D01*
X125533Y-1495089D01*
X113145Y-1492625D01*
X92690D01*
Y-1482298D01*
X7291D01*
Y-1492625D01*
X-108039D01*
X-323555Y-1277109D01*
X-334057Y-1270092D01*
X-346446Y-1267628D01*
X-459800D01*
Y-1257299D01*
X-500019D01*
X-506807Y-1244599D01*
X-505538Y-1242700D01*
X-459800D01*
Y-1157300D01*
X-459800D01*
X-457636Y-1145496D01*
X-454475Y-1141082D01*
X-433752D01*
Y-1145359D01*
X-363752D01*
Y-1145359D01*
X-290352D01*
Y-1141083D01*
X-271659D01*
X-264226Y-1139604D01*
X-257925Y-1135394D01*
X-254433Y-1131901D01*
X-242700Y-1136762D01*
Y-1190200D01*
X-157300D01*
Y-1121288D01*
X-150001Y-1117074D01*
X-142700Y-1121290D01*
D02*
G37*
G36*
X-970435Y-1297010D02*
X-957017Y-1310429D01*
X-942697Y-1316360D01*
Y-1342690D01*
X-860991D01*
X-855634Y-1344979D01*
X-850200Y-1352451D01*
Y-1367628D01*
X-882309D01*
Y-1357290D01*
X-967709D01*
Y-1442690D01*
X-882309D01*
Y-1432372D01*
X-850200D01*
Y-1452700D01*
X-840898D01*
Y-1487236D01*
X-888308Y-1534646D01*
X-893922Y-1543047D01*
X-895893Y-1552958D01*
Y-1680005D01*
X-893922Y-1689915D01*
X-888308Y-1698317D01*
X-840898Y-1745727D01*
Y-1797300D01*
X-850200D01*
Y-1824105D01*
X-882291D01*
Y-1807303D01*
X-967690D01*
Y-1892703D01*
X-882291D01*
Y-1875900D01*
X-850200D01*
Y-1902700D01*
X-840898D01*
Y-1932241D01*
X-918312Y-2009656D01*
X-923926Y-2018058D01*
X-925898Y-2027968D01*
Y-2071482D01*
X-927469Y-2072532D01*
X-935889Y-2085134D01*
X-938846Y-2100000D01*
Y-2550000D01*
X-935889Y-2564866D01*
X-927469Y-2577469D01*
X-763847Y-2741091D01*
Y-3025000D01*
X-760890Y-3039866D01*
X-752469Y-3052469D01*
X-677469Y-3127468D01*
X-664866Y-3135889D01*
X-650000Y-3138846D01*
X525000D01*
X539866Y-3135889D01*
X552469Y-3127468D01*
X852468Y-2827469D01*
X860889Y-2814866D01*
X863846Y-2800000D01*
Y-2400000D01*
X860889Y-2385134D01*
X852468Y-2372531D01*
X802471Y-2322534D01*
X789868Y-2314113D01*
X775003Y-2311156D01*
X742709D01*
Y-2307303D01*
X657310D01*
Y-2311156D01*
X532717D01*
X517851Y-2314113D01*
X505248Y-2322534D01*
X466628Y-2361154D01*
X433327D01*
Y-2350001D01*
X430828Y-2331022D01*
X423503Y-2313337D01*
X418269Y-2306516D01*
Y-2068058D01*
X413833Y-2045759D01*
X401202Y-2026855D01*
X333270Y-1958923D01*
Y-1840201D01*
X395200D01*
Y-1818847D01*
X469999D01*
X484865Y-1815890D01*
X497468Y-1807469D01*
X652407Y-1652530D01*
X660828Y-1639928D01*
X663785Y-1625062D01*
Y-1587843D01*
X676485Y-1582583D01*
X684340Y-1590438D01*
X701872Y-1597700D01*
X720848D01*
X722099Y-1597182D01*
X734799Y-1603706D01*
Y-1725200D01*
X975199D01*
X985713Y-1730480D01*
Y-2448736D01*
Y-2573000D01*
X985834Y-2573295D01*
X989761Y-2623183D01*
X1001512Y-2672131D01*
X1020776Y-2718637D01*
X1047077Y-2761558D01*
X1079578Y-2799611D01*
X1079700Y-2799905D01*
X1089897Y-2810102D01*
X1089897Y-2810103D01*
X1119186Y-2839392D01*
X1120973Y-2840132D01*
X1148195Y-2873302D01*
X1169269Y-2912729D01*
X1182246Y-2955510D01*
X1186452Y-2998214D01*
X1185712Y-3000000D01*
X1186290Y-3001395D01*
X1182845Y-3036370D01*
X1172237Y-3071343D01*
X1155009Y-3103574D01*
X1131824Y-3131824D01*
X1103574Y-3155009D01*
X1071343Y-3172237D01*
X1036370Y-3182846D01*
X1001395Y-3186290D01*
X1000000Y-3185712D01*
X-1000000D01*
X-1001396Y-3186290D01*
X-1036371Y-3182846D01*
X-1071343Y-3172237D01*
X-1103574Y-3155009D01*
X-1131825Y-3131824D01*
X-1155009Y-3103574D01*
X-1172237Y-3071343D01*
X-1182846Y-3036370D01*
X-1185196Y-3012510D01*
X-1185712Y-3000000D01*
X-1185712D01*
X-1185390Y-2987433D01*
X-1182246Y-2955509D01*
X-1169269Y-2912729D01*
X-1148195Y-2873302D01*
X-1120973Y-2840132D01*
X-1119186Y-2839392D01*
X-1089897Y-2810103D01*
X-1079700Y-2799905D01*
X-1079700Y-2799905D01*
X-1079700Y-2799905D01*
X-1079578Y-2799611D01*
X-1047077Y-2761558D01*
X-1020776Y-2718637D01*
X-1001512Y-2672131D01*
X-989761Y-2623183D01*
X-985834Y-2573294D01*
X-985713Y-2573000D01*
Y-2448736D01*
Y-1293315D01*
X-973013Y-1290789D01*
X-970435Y-1297010D01*
D02*
G37*
G36*
X-754423Y-1184008D02*
Y-1194572D01*
X-752944Y-1202005D01*
X-751445Y-1204250D01*
X-754986Y-1212798D01*
Y-1231774D01*
X-747724Y-1249306D01*
X-734305Y-1262724D01*
X-716774Y-1269986D01*
X-697797D01*
X-689249Y-1266445D01*
X-687005Y-1267945D01*
X-679572Y-1269423D01*
X-640200D01*
Y-1339816D01*
X-648360Y-1346177D01*
X-650995Y-1347300D01*
X-720200D01*
Y-1446967D01*
X-731524Y-1456023D01*
X-740512Y-1452300D01*
X-759488D01*
X-768477Y-1456023D01*
X-779800Y-1446967D01*
Y-1347300D01*
X-846507D01*
X-851864Y-1345012D01*
X-857297Y-1337540D01*
Y-1257291D01*
X-871847D01*
X-882613Y-1244590D01*
X-882300Y-1242706D01*
X-882301D01*
Y-1225904D01*
X-825007D01*
X-815096Y-1223933D01*
X-806694Y-1218319D01*
X-767123Y-1178747D01*
X-754423Y-1184008D01*
D02*
G37*
G36*
X-525898Y-1485727D02*
Y-1802848D01*
X-523926Y-1812758D01*
X-518312Y-1821160D01*
X-471160Y-1868312D01*
X-462758Y-1873926D01*
X-452848Y-1875898D01*
X-440200D01*
Y-1892700D01*
X-425898D01*
Y-1906070D01*
X-468313Y-1948486D01*
X-473927Y-1956887D01*
X-475898Y-1966798D01*
Y-1972036D01*
X-486665Y-1976496D01*
X-501851Y-1988149D01*
X-513504Y-2003335D01*
X-520830Y-2021021D01*
X-523328Y-2039999D01*
Y-2139999D01*
X-520830Y-2158978D01*
X-513504Y-2176663D01*
X-501851Y-2191850D01*
X-486665Y-2203503D01*
X-468979Y-2210828D01*
X-450001Y-2213327D01*
X-431023Y-2210828D01*
X-413337Y-2203503D01*
X-398151Y-2191850D01*
X-386498Y-2176663D01*
X-379172Y-2158978D01*
X-376674Y-2139999D01*
Y-2039999D01*
X-379172Y-2021021D01*
X-386498Y-2003335D01*
X-398151Y-1988149D01*
X-408684Y-1980066D01*
X-411436Y-1964858D01*
X-381688Y-1935109D01*
X-376074Y-1926708D01*
X-374102Y-1916797D01*
Y-1892700D01*
X-359800D01*
Y-1875898D01*
X-282139D01*
X-278154Y-1885517D01*
X-260517Y-1903154D01*
X-237472Y-1912700D01*
X-212528D01*
X-189483Y-1903154D01*
X-171846Y-1885517D01*
X-162300Y-1862472D01*
Y-1837528D01*
X-171846Y-1814484D01*
X-184783Y-1801547D01*
X-179522Y-1788847D01*
X-42691D01*
Y-1792703D01*
X42709D01*
Y-1788849D01*
X65805D01*
X84425Y-1807469D01*
X97028Y-1815890D01*
X111894Y-1818847D01*
X154801D01*
Y-1840201D01*
X216731D01*
Y-1983060D01*
X221166Y-2005358D01*
X233798Y-2024262D01*
X301730Y-2092194D01*
Y-2306516D01*
X296496Y-2313337D01*
X289171Y-2331022D01*
X286672Y-2350001D01*
Y-2450001D01*
X289171Y-2468979D01*
X296496Y-2486665D01*
X308149Y-2501851D01*
X323336Y-2513504D01*
X341021Y-2520830D01*
X359999Y-2523328D01*
X378978Y-2520830D01*
X396663Y-2513504D01*
X411850Y-2501851D01*
X423503Y-2486665D01*
X430828Y-2468979D01*
X433327Y-2450001D01*
Y-2438847D01*
X482719D01*
X497585Y-2435890D01*
X510187Y-2427469D01*
X548808Y-2388849D01*
X657310D01*
Y-2392703D01*
X742709D01*
Y-2388849D01*
X758912D01*
X786153Y-2416091D01*
Y-2783910D01*
X508910Y-3061153D01*
X-633910D01*
X-686154Y-3008909D01*
Y-2725000D01*
X-689111Y-2710134D01*
X-697531Y-2697531D01*
X-861153Y-2533909D01*
Y-2113149D01*
X-848692Y-2106340D01*
X-843007Y-2109043D01*
X-840898Y-2110904D01*
Y-2141585D01*
X-838926Y-2151496D01*
X-833313Y-2159898D01*
X-825897Y-2167313D01*
Y-2207300D01*
X-840199D01*
Y-2292700D01*
X-759800D01*
Y-2207300D01*
X-774102D01*
Y-2156586D01*
X-776073Y-2146675D01*
X-781687Y-2138273D01*
X-789103Y-2130858D01*
Y-2102700D01*
X-714800D01*
Y-1997300D01*
X-714800D01*
X-717142Y-1984600D01*
X-709562Y-1977020D01*
X-702300Y-1959488D01*
Y-1940512D01*
X-709562Y-1922980D01*
X-711853Y-1920690D01*
X-714283Y-1908497D01*
X-711881Y-1902700D01*
X-709963Y-1902700D01*
X-709962Y-1902700D01*
X-709875Y-1902700D01*
X-649800D01*
Y-1797300D01*
X-649800D01*
X-652346Y-1784600D01*
X-652300Y-1784488D01*
Y-1765512D01*
X-659562Y-1747980D01*
X-672980Y-1734562D01*
X-690512Y-1727300D01*
X-709488D01*
X-727020Y-1734562D01*
X-740438Y-1747980D01*
X-747700Y-1765512D01*
Y-1784488D01*
X-740438Y-1802020D01*
X-727020Y-1815438D01*
X-720200Y-1818263D01*
X-720200Y-1893446D01*
X-720200Y-1896967D01*
X-724766Y-1900618D01*
X-724766D01*
X-724766Y-1900619D01*
D01*
X-736393Y-1904006D01*
X-740512Y-1902300D01*
X-759488D01*
X-768477Y-1906023D01*
X-779800Y-1896967D01*
Y-1797300D01*
X-789103D01*
Y-1735000D01*
X-790737Y-1726782D01*
X-789925Y-1724014D01*
X-788680Y-1722024D01*
X-782843Y-1714547D01*
X-669933D01*
X-595523Y-1788957D01*
Y-2061957D01*
X-718312Y-2184747D01*
X-723926Y-2193149D01*
X-725897Y-2203059D01*
Y-2207300D01*
X-740200D01*
Y-2292700D01*
X-659800D01*
Y-2207301D01*
X-659800Y-2207301D01*
X-659800D01*
X-656112Y-2195796D01*
X-551313Y-2090997D01*
X-545699Y-2082595D01*
X-543728Y-2072684D01*
Y-1778230D01*
X-545699Y-1768319D01*
X-551313Y-1759917D01*
X-640893Y-1670337D01*
X-649295Y-1664723D01*
X-659205Y-1662752D01*
X-708407D01*
X-714800Y-1652700D01*
Y-1547300D01*
X-714800D01*
X-717142Y-1534600D01*
X-709562Y-1527020D01*
X-702300Y-1509488D01*
Y-1490512D01*
X-709562Y-1472980D01*
X-717142Y-1465400D01*
X-711882Y-1452700D01*
X-649800D01*
Y-1425898D01*
X-585727D01*
X-525898Y-1485727D01*
D02*
G37*
%LPC*%
G36*
X-547300Y-67300D02*
X-652699D01*
Y-97541D01*
X-659801Y-107300D01*
X-665400Y-107300D01*
X-740200D01*
X-747300Y-97541D01*
Y-67300D01*
X-852700D01*
Y-172700D01*
X-773056D01*
X-769999Y-173308D01*
X-740200D01*
Y-192700D01*
X-659800D01*
Y-182459D01*
X-652699Y-172700D01*
X-647100Y-172700D01*
X-573056D01*
X-569999Y-173308D01*
X-540200D01*
Y-192700D01*
X-459800D01*
Y-107300D01*
X-540200D01*
X-547300Y-97541D01*
Y-67300D01*
D02*
G37*
G36*
X932700Y-249300D02*
X667300D01*
Y-350700D01*
X932700D01*
Y-249300D01*
D02*
G37*
G36*
X307700Y-947300D02*
X222301D01*
Y-961882D01*
X209601Y-967143D01*
X202020Y-959562D01*
X184488Y-952300D01*
X165512D01*
X147980Y-959562D01*
X134562Y-972980D01*
X127300Y-990512D01*
Y-1009488D01*
X134562Y-1027020D01*
X147980Y-1040438D01*
X165512Y-1047700D01*
X184488D01*
X202020Y-1040438D01*
X209601Y-1032857D01*
X222301Y-1038118D01*
Y-1052700D01*
X307700D01*
Y-947300D01*
D02*
G37*
G36*
X120000Y-1983863D02*
X82700D01*
Y-2057300D01*
X204465D01*
X203202Y-2047706D01*
X194596Y-2026932D01*
X180908Y-2009092D01*
X163068Y-1995404D01*
X142294Y-1986798D01*
X120000Y-1983863D01*
D02*
G37*
G36*
X57300D02*
X19999D01*
X-2294Y-1986798D01*
X-23069Y-1995404D01*
X-40908Y-2009092D01*
X-54597Y-2026932D01*
X-63202Y-2047706D01*
X-64465Y-2057300D01*
X57300D01*
Y-1983863D01*
D02*
G37*
G36*
X204465Y-2082700D02*
X82700D01*
Y-2156137D01*
X120000D01*
X142294Y-2153202D01*
X163068Y-2144597D01*
X180908Y-2130908D01*
X194596Y-2113068D01*
X203202Y-2092294D01*
X204465Y-2082700D01*
D02*
G37*
G36*
X57300D02*
X-64465D01*
X-63202Y-2092294D01*
X-54597Y-2113068D01*
X-40908Y-2130908D01*
X-23069Y-2144597D01*
X-2294Y-2153202D01*
X19999Y-2156137D01*
X57300D01*
Y-2082700D01*
D02*
G37*
G36*
X-297301Y-2155535D02*
Y-2277300D01*
X-223864D01*
Y-2240000D01*
X-226799Y-2217706D01*
X-235404Y-2196931D01*
X-249093Y-2179092D01*
X-266932Y-2165403D01*
X-287707Y-2156798D01*
X-297301Y-2155535D01*
D02*
G37*
G36*
X-322701Y-2155535D02*
X-332294Y-2156798D01*
X-353069Y-2165403D01*
X-370909Y-2179092D01*
X-384597Y-2196931D01*
X-393202Y-2217706D01*
X-396137Y-2240000D01*
Y-2277300D01*
X-322701D01*
Y-2155535D01*
D02*
G37*
G36*
X-160000Y-1966673D02*
X-178979Y-1969171D01*
X-196664Y-1976497D01*
X-211851Y-1988150D01*
X-223504Y-2003336D01*
X-230829Y-2021022D01*
X-233328Y-2040000D01*
Y-2140000D01*
X-230829Y-2158979D01*
X-223504Y-2176664D01*
X-211851Y-2191851D01*
X-196664Y-2203504D01*
X-185898Y-2207963D01*
Y-2349273D01*
X-223047Y-2386422D01*
X-233813Y-2379228D01*
X-226799Y-2362294D01*
X-223864Y-2340000D01*
Y-2302700D01*
X-310001D01*
X-396137D01*
Y-2340000D01*
X-393202Y-2362294D01*
X-384597Y-2383069D01*
X-377581Y-2392213D01*
X-382672Y-2406440D01*
X-384787Y-2406934D01*
X-460034Y-2331687D01*
X-468436Y-2326073D01*
X-478346Y-2324102D01*
X-659801D01*
Y-2307300D01*
X-740200D01*
Y-2392700D01*
X-659801D01*
Y-2375897D01*
X-489073D01*
X-413271Y-2451700D01*
X-418531Y-2464400D01*
X-747595D01*
X-774103Y-2437892D01*
Y-2392700D01*
X-759800D01*
Y-2307300D01*
X-840200D01*
Y-2392700D01*
X-825898D01*
Y-2448619D01*
X-823926Y-2458530D01*
X-818313Y-2466932D01*
X-776634Y-2508610D01*
X-768232Y-2514224D01*
X-758322Y-2516195D01*
X-184214D01*
X217904Y-2918313D01*
X226306Y-2923927D01*
X236216Y-2925898D01*
X376672D01*
Y-2950001D01*
X379171Y-2968979D01*
X386496Y-2986664D01*
X398149Y-3001851D01*
X413336Y-3013504D01*
X431021Y-3020829D01*
X450000Y-3023328D01*
X468978Y-3020829D01*
X486663Y-3013504D01*
X501850Y-3001851D01*
X513503Y-2986664D01*
X520828Y-2968979D01*
X523327Y-2950001D01*
Y-2850000D01*
X520828Y-2831022D01*
X513503Y-2813337D01*
X502524Y-2799028D01*
X503229Y-2795162D01*
X507305Y-2786328D01*
X537299D01*
Y-2662700D01*
X413670D01*
Y-2738000D01*
X417349Y-2756494D01*
X424987Y-2767925D01*
X422810Y-2780750D01*
X421403Y-2783156D01*
X413336Y-2786497D01*
X398149Y-2798150D01*
X386496Y-2813337D01*
X379171Y-2831022D01*
X376672Y-2850000D01*
Y-2874103D01*
X246943D01*
X-155174Y-2471985D01*
X-163576Y-2466371D01*
X-173487Y-2464400D01*
X-209814D01*
X-215075Y-2451700D01*
X-141688Y-2378313D01*
X-136074Y-2369911D01*
X-134103Y-2360001D01*
Y-2207963D01*
X-123337Y-2203504D01*
X-108150Y-2191851D01*
X-96497Y-2176664D01*
X-89172Y-2158979D01*
X-86673Y-2140000D01*
Y-2040000D01*
X-89172Y-2021022D01*
X-96497Y-2003336D01*
X-108150Y-1988150D01*
X-123337Y-1976497D01*
X-141022Y-1969171D01*
X-160000Y-1966673D01*
D02*
G37*
G36*
X8912Y-2332300D02*
X-8914D01*
X-26133Y-2336913D01*
X-41570Y-2345826D01*
X-54175Y-2358431D01*
X-63088Y-2373868D01*
X-67701Y-2391087D01*
Y-2408912D01*
X-63088Y-2426131D01*
X-54175Y-2441568D01*
X-41570Y-2454173D01*
X-26133Y-2463086D01*
X-8914Y-2467699D01*
X8912D01*
X26130Y-2463086D01*
X41567Y-2454173D01*
X54172Y-2441568D01*
X63085Y-2426131D01*
X67699Y-2408912D01*
Y-2391087D01*
X63085Y-2373868D01*
X54172Y-2358431D01*
X41567Y-2345826D01*
X26130Y-2336913D01*
X8912Y-2332300D01*
D02*
G37*
G36*
X637999Y-2513671D02*
X562699D01*
Y-2637300D01*
X686328D01*
Y-2561999D01*
X682649Y-2543505D01*
X672172Y-2527826D01*
X656493Y-2517350D01*
X637999Y-2513671D01*
D02*
G37*
G36*
X537299D02*
X461999D01*
X443504Y-2517350D01*
X427825Y-2527826D01*
X417349Y-2543505D01*
X413670Y-2561999D01*
Y-2637300D01*
X537299D01*
Y-2513671D01*
D02*
G37*
G36*
X686328Y-2662700D02*
X562699D01*
Y-2786328D01*
X637999D01*
X656493Y-2782650D01*
X672172Y-2772173D01*
X682649Y-2756494D01*
X686328Y-2738000D01*
Y-2662700D01*
D02*
G37*
G36*
X-422001Y-2763671D02*
X-497301D01*
Y-2887301D01*
X-373672D01*
Y-2812000D01*
X-377351Y-2793505D01*
X-387827Y-2777826D01*
X-403506Y-2767350D01*
X-422001Y-2763671D01*
D02*
G37*
G36*
X-522701D02*
X-598001D01*
X-616495Y-2767350D01*
X-632174Y-2777826D01*
X-642651Y-2793505D01*
X-646329Y-2812000D01*
Y-2887301D01*
X-522701D01*
Y-2763671D01*
D02*
G37*
G36*
X8913Y-2832300D02*
X-8913D01*
X-26131Y-2836914D01*
X-41569Y-2845827D01*
X-54173Y-2858431D01*
X-63086Y-2873869D01*
X-67700Y-2891087D01*
Y-2908913D01*
X-63086Y-2926131D01*
X-54173Y-2941569D01*
X-41569Y-2954173D01*
X-26131Y-2963086D01*
X-8913Y-2967700D01*
X8913D01*
X26131Y-2963086D01*
X41569Y-2954173D01*
X54173Y-2941569D01*
X63086Y-2926131D01*
X67700Y-2908913D01*
Y-2891087D01*
X63086Y-2873869D01*
X54173Y-2858431D01*
X41569Y-2845827D01*
X26131Y-2836914D01*
X8913Y-2832300D01*
D02*
G37*
G36*
X-373672Y-2912701D02*
X-497301D01*
Y-3036328D01*
X-422001D01*
X-403506Y-3032650D01*
X-387827Y-3022173D01*
X-377351Y-3006494D01*
X-373672Y-2988000D01*
Y-2912701D01*
D02*
G37*
G36*
X-522701D02*
X-646329D01*
Y-2988000D01*
X-642651Y-3006494D01*
X-632174Y-3022173D01*
X-616495Y-3032650D01*
X-598001Y-3036328D01*
X-522701D01*
Y-2912701D01*
D02*
G37*
%LPD*%
D10*
X-276041Y-917581D02*
D03*
X-276041Y-817574D02*
D03*
X700010Y-2450010D02*
D03*
Y-2350003D02*
D03*
X-925009Y-1399990D02*
D03*
Y-1499997D02*
D03*
X-925001Y-1200007D02*
D03*
X-925000Y-1100000D02*
D03*
X-924991Y-1749995D02*
D03*
X-924991Y-1850003D02*
D03*
X-425000Y-724993D02*
D03*
Y-825000D02*
D03*
X49990Y-1424990D02*
D03*
X49991Y-1524997D02*
D03*
X9Y-1850010D02*
D03*
X9Y-1750003D02*
D03*
D11*
X-800000Y-2250000D02*
D03*
X-800000Y-2350000D02*
D03*
X-700000Y-150000D02*
D03*
Y-250000D02*
D03*
X-500000Y-150000D02*
D03*
Y-250000D02*
D03*
X-600000Y-1300000D02*
D03*
X-600000Y-1200000D02*
D03*
X-500000Y-1299999D02*
D03*
Y-1200000D02*
D03*
X-400000Y-1750000D02*
D03*
Y-1850000D02*
D03*
X-700000Y-2250000D02*
D03*
X-700000Y-2350000D02*
D03*
D12*
X-497500Y-1023648D02*
D03*
X-597507Y-1023648D02*
D03*
X649991Y-1100009D02*
D03*
X749997D02*
D03*
X-799990Y-1299990D02*
D03*
X-899997Y-1299991D02*
D03*
X-374991Y-549991D02*
D03*
X-474997Y-549990D02*
D03*
X-675010Y-550009D02*
D03*
X-575003D02*
D03*
X66941Y-435741D02*
D03*
X-33066Y-435740D02*
D03*
X66941Y-334140D02*
D03*
X-33066Y-334140D02*
D03*
D13*
X-135080Y-435385D02*
D03*
X-235079Y-435385D02*
D03*
X370780Y-673857D02*
D03*
X270780D02*
D03*
X-100000Y-1150000D02*
D03*
X-200000Y-1150000D02*
D03*
X-100000Y-1000000D02*
D03*
X-200001Y-1000000D02*
D03*
D14*
X-685000Y-1400000D02*
D03*
Y-1600000D02*
D03*
X-750000D02*
D03*
X-815000D02*
D03*
Y-1400000D02*
D03*
X-685000Y-1850000D02*
D03*
Y-2050000D02*
D03*
X-750000D02*
D03*
X-815000D02*
D03*
Y-1850000D02*
D03*
D15*
X265000Y-1000000D02*
D03*
X435000Y-1000000D02*
D03*
X265000Y-850000D02*
D03*
X435000Y-850000D02*
D03*
D16*
X795000Y-700000D02*
D03*
X700000Y-700000D02*
D03*
X605000Y-700000D02*
D03*
Y-960000D02*
D03*
X795000Y-959999D02*
D03*
D17*
X-225000Y-1850000D02*
D03*
D18*
X-394553Y-1016659D02*
D03*
D19*
X-397053Y-1051659D02*
D03*
X-397052Y-1086659D02*
D03*
Y-1121659D02*
D03*
X-327052Y-1121659D02*
D03*
Y-1086659D02*
D03*
Y-1051659D02*
D03*
Y-1016659D02*
D03*
D20*
X854999Y-1550000D02*
D03*
D21*
X275000Y-1780001D02*
D03*
X275000Y-1550000D02*
D03*
Y-1320000D02*
D03*
D22*
X-775000Y-1110000D02*
D03*
X-735000Y-1110001D02*
D03*
X-775000Y-1150000D02*
D03*
X-735000D02*
D03*
D23*
X-725019Y-895650D02*
D03*
X-675006D02*
D03*
X-624994Y-895650D02*
D03*
X-574981Y-895650D02*
D03*
Y-654350D02*
D03*
X-624993D02*
D03*
X-675006Y-654350D02*
D03*
X-725019Y-654350D02*
D03*
D24*
X-554130Y-825013D02*
D03*
X-554130Y-775000D02*
D03*
X-554130Y-724987D02*
D03*
X-745870D02*
D03*
Y-775000D02*
D03*
Y-825013D02*
D03*
D25*
X409999Y-427001D02*
D03*
X409999Y-300000D02*
D03*
X410000Y-173000D02*
D03*
X800000Y-173001D02*
D03*
X800000Y-300000D02*
D03*
X800000Y-427000D02*
D03*
D26*
X145000Y-700000D02*
D03*
Y-740000D02*
D03*
Y-620001D02*
D03*
Y-660000D02*
D03*
X-145000Y-780000D02*
D03*
Y-740000D02*
D03*
Y-660000D02*
D03*
X-145000Y-700000D02*
D03*
X-145000Y-620001D02*
D03*
X145000Y-780000D02*
D03*
D27*
X0Y-700000D02*
D03*
D28*
X-40000Y-845000D02*
D03*
X80000D02*
D03*
X40000Y-845000D02*
D03*
X0Y-845000D02*
D03*
X-80000Y-555000D02*
D03*
X-40000D02*
D03*
X40000Y-555000D02*
D03*
X0Y-555000D02*
D03*
X80000D02*
D03*
X-80000Y-845000D02*
D03*
D29*
X-800000Y-280000D02*
D03*
Y-120000D02*
D03*
X-600000Y-280000D02*
D03*
X-600000Y-120000D02*
D03*
D30*
X-820566Y-689005D02*
Y-520566D01*
Y-689005D02*
X-784583Y-724987D01*
X-820566Y-520566D02*
X-775000Y-475000D01*
X-784583Y-724987D02*
X-745870D01*
X-775000Y-475000D02*
X-625000D01*
X-735000Y-1110001D02*
Y-1045191D01*
X-807025Y-973166D02*
Y-794618D01*
Y-973166D02*
X-735000Y-1045191D01*
X-807025Y-794618D02*
X-787406Y-775000D01*
X-745870D01*
X-800000Y-379927D02*
X-773399Y-406528D01*
X-584808D02*
X-533068Y-458268D01*
X-773399Y-406528D02*
X-584808D01*
X-533068Y-458268D02*
X-367246D01*
X-521274Y-425000D02*
X-355102D01*
X-600000Y-346273D02*
Y-280000D01*
Y-346273D02*
X-521274Y-425000D01*
X-735000Y-1194572D02*
X-679572Y-1250000D01*
X-745870Y-825013D02*
X-700013D01*
X-650000Y-775000D01*
X-682350Y-1164814D02*
Y-1135138D01*
X-647164Y-1200000D02*
X-600000D01*
X-682350Y-1164814D02*
X-647164Y-1200000D01*
X-679572Y-1250000D02*
X-550000D01*
X-735000Y-1194572D02*
Y-1150000D01*
X-550000Y-1250000D02*
X-500000Y-1200000D01*
X-735000Y-1110001D02*
X-707488D01*
X-682350Y-1135138D01*
X-600000Y-1200000D02*
Y-1130699D01*
X-555960Y-1086659D02*
X-397052D01*
X-600000Y-1130699D02*
X-555960Y-1086659D01*
X-469925Y-1121659D02*
X-397052D01*
X-500000Y-1151734D02*
X-469925Y-1121659D01*
X-500000Y-1200000D02*
Y-1151734D01*
X-367246Y-458268D02*
X-288268Y-537245D01*
Y-686731D02*
Y-537245D01*
X-254210Y-670790D02*
Y-525892D01*
X-355102Y-425000D02*
X-254210Y-525892D01*
X-288268Y-686731D02*
X-235000Y-740000D01*
X-254210Y-670790D02*
X-225000Y-700000D01*
X-235000Y-740000D02*
X-145000D01*
X-225000Y-700000D02*
X-145000D01*
X-200000Y-1085317D02*
X-32893D01*
X0Y-1052424D01*
X-272580Y-1086659D02*
X-245838Y-1059917D01*
X-59603D02*
X-40000Y-1040314D01*
X-200001Y-1059917D02*
X-59603D01*
X-235317Y-1085317D02*
X-200000D01*
Y-1150000D02*
Y-1085317D01*
X-245838Y-1059917D02*
X-200001D01*
Y-1000000D01*
X-40000Y-1040314D02*
Y-845000D01*
X-327052Y-1086659D02*
X-272580D01*
X0Y-1052424D02*
Y-845000D01*
X-271659Y-1121659D02*
X-235317Y-1085317D01*
X-327052Y-1121659D02*
X-271659D01*
X-276041Y-1016659D02*
Y-917581D01*
Y-1033353D02*
Y-1016659D01*
X-276041Y-917581D02*
X-276041Y-917581D01*
X-497499Y-1023648D02*
X-460728D01*
X-432716Y-1051659D01*
X-397053Y-1051659D01*
X-327052Y-1016659D02*
X-276041D01*
X-294346Y-1051659D02*
X-276041Y-1033353D01*
X-327052Y-1051659D02*
X-294346D01*
X-800000Y-379927D02*
Y-280000D01*
D31*
X-625000Y-475000D02*
X-599538D01*
X-575003Y-499535D01*
Y-550009D02*
Y-499535D01*
X-925001Y-1274987D02*
Y-1200007D01*
Y-1274987D02*
X-899997Y-1299991D01*
X469999Y-1780001D02*
X624938Y-1625062D01*
Y-1350062D01*
X-25000Y-1150000D02*
X424877D01*
X624938Y-1350062D02*
X749997Y-1225002D01*
X424877Y-1150000D02*
X624938Y-1350062D01*
X-139860Y-337666D02*
X-135080Y-342446D01*
Y-435385D02*
Y-342446D01*
X-100000Y-1150000D02*
X-100000Y-1150000D01*
X-25000D01*
X-139860Y-917581D02*
X-100000Y-957441D01*
X-276041Y-917581D02*
X-139860D01*
X-100000Y-1000000D02*
Y-957441D01*
X952068Y-877928D02*
Y-497069D01*
X800000Y-427000D02*
X882000D01*
X952068Y-497069D01*
X869997Y-959999D02*
X952068Y-877928D01*
X795000Y-959999D02*
X869997D01*
X749997Y-1225002D02*
Y-1100009D01*
X275000Y-1780001D02*
X469999D01*
X-900000Y-2550000D02*
Y-2100000D01*
Y-2550000D02*
X-725000Y-2725000D01*
Y-3025000D02*
Y-2725000D01*
Y-3025000D02*
X-650000Y-3100000D01*
X525000D01*
X825000Y-2800000D01*
Y-2400000D01*
X775003Y-2350003D02*
X825000Y-2400000D01*
X700010Y-2350003D02*
X775003D01*
X9Y-1750003D02*
X81895D01*
X111894Y-1780001D02*
X275000D01*
X81895Y-1750003D02*
X111894Y-1780001D01*
X-475016Y-550009D02*
X-474997Y-549990D01*
X-575003Y-550009D02*
X-475016D01*
X-925009Y-1399990D02*
X-925000Y-1400000D01*
X795000Y-1055007D02*
Y-959999D01*
X749997Y-1100009D02*
X795000Y-1055007D01*
X7Y-1750000D02*
X9Y-1750003D01*
X-400000Y-1750000D02*
X7D01*
X359999Y-2400001D02*
X482719D01*
X532717Y-2350003D01*
X700010D01*
X-134725Y-435740D02*
X-33066D01*
X-135080Y-435385D02*
X-134725Y-435740D01*
X-33066D02*
Y-334140D01*
D32*
X-600000Y-1300000D02*
X-346446D01*
X-121448Y-1524997D02*
X49991D01*
X-346446Y-1300000D02*
X-121448Y-1524997D01*
X49991D02*
X113145D01*
X138147Y-1550000D02*
X275000D01*
X113145Y-1524997D02*
X138147Y-1550000D01*
X-700000Y-1775000D02*
X-685000Y-1790000D01*
Y-1850000D02*
Y-1790000D01*
X-925000Y-1400000D02*
X-815000D01*
D33*
X-500000Y-1802848D02*
Y-1475000D01*
X-452848Y-1850000D02*
X-400000D01*
X-500000Y-1802848D02*
X-452848Y-1850000D01*
X-575000Y-1400000D02*
X-500000Y-1475000D01*
X-685000Y-1400000D02*
X-575000D01*
X-825007Y-1200007D02*
X-775000Y-1150000D01*
X-925001Y-1200007D02*
X-825007D01*
X540000Y-960000D02*
X605000D01*
X525000Y-975000D02*
X540000Y-960000D01*
X-800000Y-2448619D02*
X-758322Y-2490298D01*
X-173487D02*
X236216Y-2900001D01*
X-758322Y-2490298D02*
X-173487D01*
X-800000Y-2448619D02*
Y-2350000D01*
X-388553Y-2439793D02*
X-239793D01*
X-478346Y-2350000D02*
X-388553Y-2439793D01*
X-700000Y-2350000D02*
X-478346D01*
X-239793Y-2439793D02*
X-160000Y-2360001D01*
X-815003Y-1850003D02*
X-815000Y-1850000D01*
X-924991Y-1850003D02*
X-815003D01*
X-869995Y-1552958D02*
X-815000Y-1497963D01*
Y-1850000D02*
Y-1735000D01*
X-869995Y-1680005D02*
X-815000Y-1735000D01*
X-869995Y-1680005D02*
Y-1552958D01*
X-659205Y-1688650D02*
X-569625Y-1778230D01*
X-700000Y-2203059D02*
X-569625Y-2072684D01*
Y-1778230D01*
X-700000Y-2250000D02*
Y-2203059D01*
X-725019Y-974981D02*
X-725000Y-975000D01*
X-725019Y-974981D02*
Y-895650D01*
X-497500Y-955252D02*
X-425000Y-882753D01*
X-497500Y-1023648D02*
Y-955252D01*
X-425000Y-882753D02*
Y-825000D01*
X-815000Y-1497963D02*
Y-1400000D01*
Y-1942968D02*
Y-1850000D01*
X-900000Y-2027968D02*
X-815000Y-1942968D01*
X-900000Y-2100000D02*
Y-2027968D01*
X175000Y-1000000D02*
X265000D01*
X175000Y-1000000D02*
X175000Y-1000000D01*
X-400000Y-1916797D02*
Y-1850000D01*
X-225000D01*
X-750000Y-1600000D02*
Y-1500000D01*
Y-2050000D02*
Y-1950000D01*
X-787146Y-1688650D02*
X-659205D01*
X-815000Y-1660795D02*
X-787146Y-1688650D01*
X-815000Y-1660795D02*
Y-1600000D01*
Y-2141585D02*
X-800000Y-2156586D01*
X-815000Y-2141585D02*
Y-2050000D01*
X-800000Y-2250000D02*
Y-2156586D01*
X236216Y-2900001D02*
X450000D01*
X-160000Y-2360001D02*
Y-2090000D01*
X-450001Y-1966798D02*
X-400000Y-1916797D01*
X-450001Y-2089999D02*
Y-1966798D01*
D34*
X92935Y-494642D02*
X131942D01*
X164762Y-461822D01*
X145000Y-590218D02*
X222621Y-512597D01*
X145000Y-620001D02*
Y-590218D01*
X222621Y-512597D02*
Y-337122D01*
X259742Y-300000D01*
X435000Y-1000000D02*
Y-850000D01*
X538538D02*
X579009Y-809529D01*
X435000Y-850000D02*
X538538D01*
X579009Y-809529D02*
X759356D01*
X166844Y-850000D02*
X265000D01*
X145000Y-828156D02*
X166844Y-850000D01*
X145000Y-828156D02*
Y-780000D01*
X759356Y-809529D02*
X795000Y-773885D01*
X892468Y-783893D02*
Y-635573D01*
X659089Y-544589D02*
X801484D01*
X892468Y-635573D01*
X605000Y-490500D02*
X659089Y-544589D01*
X409999Y-588834D02*
X659297D01*
X700000Y-629537D01*
Y-700000D02*
Y-629537D01*
X409999Y-300000D02*
X560000D01*
X605000Y-345001D01*
Y-490500D02*
Y-345001D01*
X825936Y-850425D02*
X892468Y-783893D01*
X643156Y-850425D02*
X825936D01*
X605000Y-888580D02*
X643156Y-850425D01*
X605000Y-960000D02*
Y-888580D01*
X795000Y-773885D02*
Y-700000D01*
X-569999Y-150000D02*
X-500000D01*
X-600000Y-120000D02*
X-569999Y-150000D01*
X-769999D02*
X-700000D01*
X-800000Y-120000D02*
X-769999Y-150000D01*
X-235079Y-483745D02*
Y-435385D01*
Y-483745D02*
X-145000Y-573824D01*
Y-620001D02*
Y-573824D01*
X-235079Y-296953D02*
X-169315Y-231189D01*
X-235079Y-435385D02*
Y-296953D01*
X-169315Y-231189D02*
X168812D01*
X227000Y-173000D02*
X410000D01*
X168812Y-231189D02*
X227000Y-173000D01*
X216248Y-660000D02*
X230105Y-673857D01*
X145000Y-660000D02*
X216248D01*
X230105Y-673857D02*
X270780D01*
X203961Y-700000D02*
X230105Y-673857D01*
X145000Y-700000D02*
X203961D01*
X409999Y-588834D02*
Y-571460D01*
X370780Y-628053D02*
X409999Y-588834D01*
X370780Y-673857D02*
Y-628053D01*
X409999Y-571460D02*
X409999Y-571460D01*
Y-427001D01*
X370780Y-713490D02*
Y-673857D01*
X344269Y-740000D02*
X370780Y-713490D01*
X145000Y-740000D02*
X344269D01*
X259742Y-300000D02*
X409999D01*
X80000Y-507577D02*
X92935Y-494642D01*
X80000Y-555000D02*
Y-507577D01*
X-33066Y-435740D02*
X0Y-468807D01*
Y-555000D02*
Y-468807D01*
D35*
X275000Y-1550000D02*
X425000D01*
X425000Y-1550000D01*
X711360Y-1550000D02*
X711360Y-1550000D01*
X854999D01*
D36*
X275000Y-1983060D02*
X359999Y-2068058D01*
X275000Y-1983060D02*
Y-1780001D01*
X359999Y-2400001D02*
Y-2068058D01*
D37*
X-425013Y-825013D02*
X-425000Y-825000D01*
X-554130Y-825013D02*
X-425013D01*
X-575003Y-550009D02*
X-574981Y-550031D01*
Y-654350D02*
Y-550031D01*
D38*
X-1Y-2400000D02*
D03*
X0Y-2900000D02*
D03*
D39*
X549999Y-2650000D02*
D03*
X-510001Y-2900000D02*
D03*
D40*
X-450001Y-2089999D02*
D03*
X-310001Y-2290000D02*
D03*
X450000Y-2900001D02*
D03*
X-160000Y-2090000D02*
D03*
X359999Y-2400001D02*
D03*
D41*
X70000Y-2070000D02*
D03*
D42*
X1000000Y-3000000D02*
D03*
X-1000000D02*
D03*
X0Y0D02*
D03*
D43*
X-625000Y-475000D02*
D03*
X-726340Y-1312949D02*
D03*
X-929997Y-1269991D02*
D03*
X525000Y-975000D02*
D03*
X-497500Y-955252D02*
D03*
X-550000Y-1325000D02*
D03*
X-941987Y-1592548D02*
D03*
X-839956Y-1093817D02*
D03*
X600000Y-175000D02*
D03*
X500000Y-700000D02*
D03*
X575000Y-1100000D02*
D03*
X0Y-1325000D02*
D03*
X100000D02*
D03*
X-633954Y-2019429D02*
D03*
X-633451Y-1605708D02*
D03*
X-393705Y-963510D02*
D03*
X-628410Y-961404D02*
D03*
X-725000Y-975000D02*
D03*
X-750000Y-550000D02*
D03*
X150000Y-375000D02*
D03*
X164762Y-461822D02*
D03*
X-375000Y-625000D02*
D03*
X-350000Y-750000D02*
D03*
X-650000Y-1075000D02*
D03*
Y-775000D02*
D03*
X-707286Y-1222286D02*
D03*
X425000Y-1550000D02*
D03*
X711360Y-1550000D02*
D03*
X-139860Y-337666D02*
D03*
X-25000Y-1150000D02*
D03*
X-139860Y-917581D02*
D03*
X175000Y-1000000D02*
D03*
X-750000Y-1500000D02*
D03*
Y-1950000D02*
D03*
X-700000Y-1775000D02*
D03*
Y-350000D02*
D03*
X-500000D02*
D03*
X409999Y-588834D02*
D03*
%TF.MD5,13b6c843c98c96623992a0f8e247dcf9*%
M02*
