%TF.GenerationSoftware,Altium Limited,Altium Designer,22.5.1 (42)*%
G04 Layer_Physical_Order=2*
G04 Layer_Color=15441517*
%FSLAX45Y45*%
%MOMM*%
%TF.SameCoordinates,A79CAE12-DCBF-455A-9705-E792248E02F7*%
%TF.FilePolarity,Positive*%
%TF.FileFunction,Copper,L2,Bot,Signal*%
%TF.Part,Single*%
G01*
G75*
%TA.AperFunction,Conductor*%
%ADD30C,0.12700*%
%ADD31C,0.50800*%
%ADD33C,0.25400*%
%ADD34C,0.20320*%
%ADD35C,0.63500*%
%TA.AperFunction,ComponentPad*%
%ADD38C,1.10000*%
G04:AMPARAMS|DCode=39|XSize=2.2mm|YSize=2.2mm|CornerRadius=0.22mm|HoleSize=0mm|Usage=FLASHONLY|Rotation=270.000|XOffset=0mm|YOffset=0mm|HoleType=Round|Shape=RoundedRectangle|*
%AMROUNDEDRECTD39*
21,1,2.20000,1.76000,0,0,270.0*
21,1,1.76000,2.20000,0,0,270.0*
1,1,0.44000,-0.88000,-0.88000*
1,1,0.44000,-0.88000,0.88000*
1,1,0.44000,0.88000,0.88000*
1,1,0.44000,0.88000,-0.88000*
%
%ADD39ROUNDEDRECTD39*%
G04:AMPARAMS|DCode=40|XSize=2.2mm|YSize=1.2mm|CornerRadius=0.6mm|HoleSize=0mm|Usage=FLASHONLY|Rotation=270.000|XOffset=0mm|YOffset=0mm|HoleType=Round|Shape=RoundedRectangle|*
%AMROUNDEDRECTD40*
21,1,2.20000,0.00000,0,0,270.0*
21,1,1.00000,1.20000,0,0,270.0*
1,1,1.20000,0.00000,-0.50000*
1,1,1.20000,0.00000,0.50000*
1,1,1.20000,0.00000,0.50000*
1,1,1.20000,0.00000,-0.50000*
%
%ADD40ROUNDEDRECTD40*%
G04:AMPARAMS|DCode=41|XSize=2.2mm|YSize=1.2mm|CornerRadius=0.6mm|HoleSize=0mm|Usage=FLASHONLY|Rotation=180.000|XOffset=0mm|YOffset=0mm|HoleType=Round|Shape=RoundedRectangle|*
%AMROUNDEDRECTD41*
21,1,2.20000,0.00000,0,0,180.0*
21,1,1.00000,1.20000,0,0,180.0*
1,1,1.20000,-0.50000,0.00000*
1,1,1.20000,0.50000,0.00000*
1,1,1.20000,0.50000,0.00000*
1,1,1.20000,-0.50000,0.00000*
%
%ADD41ROUNDEDRECTD41*%
%TA.AperFunction,ViaPad*%
%ADD42C,3.70000*%
%ADD43C,0.70000*%
G36*
X0Y185713D02*
X1786Y186452D01*
X44490Y182246D01*
X87271Y169269D01*
X126697Y148195D01*
X159868Y120973D01*
X160608Y119187D01*
X200095Y79700D01*
X200389Y79578D01*
X238442Y47077D01*
X281363Y20776D01*
X327869Y1512D01*
X376817Y-10239D01*
X426706Y-14166D01*
X427000Y-14288D01*
X900000D01*
X901018Y-13866D01*
X922328Y-16671D01*
X943134Y-25290D01*
X961001Y-38999D01*
X974710Y-56866D01*
X983328Y-77672D01*
X984617Y-87457D01*
X985712Y-100000D01*
X985712Y-100000D01*
X985713Y-112680D01*
Y-2448736D01*
Y-2573000D01*
X985834Y-2573295D01*
X989761Y-2623183D01*
X1001512Y-2672131D01*
X1020776Y-2718637D01*
X1047077Y-2761558D01*
X1079578Y-2799611D01*
X1079700Y-2799905D01*
X1089897Y-2810102D01*
X1089897Y-2810103D01*
X1119186Y-2839392D01*
X1120973Y-2840132D01*
X1148195Y-2873302D01*
X1169269Y-2912729D01*
X1182246Y-2955510D01*
X1186452Y-2998214D01*
X1185712Y-3000000D01*
X1186290Y-3001395D01*
X1182845Y-3036370D01*
X1172237Y-3071343D01*
X1155009Y-3103574D01*
X1131824Y-3131824D01*
X1103574Y-3155009D01*
X1071343Y-3172237D01*
X1036370Y-3182846D01*
X1001395Y-3186290D01*
X1000000Y-3185712D01*
X-1000000D01*
X-1001396Y-3186290D01*
X-1036371Y-3182846D01*
X-1071343Y-3172237D01*
X-1103574Y-3155009D01*
X-1131825Y-3131824D01*
X-1155009Y-3103574D01*
X-1172237Y-3071343D01*
X-1182846Y-3036370D01*
X-1185196Y-3012510D01*
X-1185712Y-3000000D01*
X-1185712D01*
X-1185390Y-2987433D01*
X-1182246Y-2955509D01*
X-1169269Y-2912729D01*
X-1148195Y-2873302D01*
X-1120973Y-2840132D01*
X-1119186Y-2839392D01*
X-1089897Y-2810103D01*
X-1079700Y-2799905D01*
X-1079700Y-2799905D01*
X-1079700Y-2799905D01*
X-1079578Y-2799611D01*
X-1047077Y-2761558D01*
X-1020776Y-2718637D01*
X-1001512Y-2672131D01*
X-989761Y-2623183D01*
X-985834Y-2573294D01*
X-985713Y-2573000D01*
Y-2448736D01*
Y-1293315D01*
X-973013Y-1290789D01*
X-970435Y-1297010D01*
X-957017Y-1310429D01*
X-939486Y-1317691D01*
X-937235D01*
X-827457Y-1427469D01*
X-814854Y-1435889D01*
X-799988Y-1438847D01*
X-625000D01*
X-610134Y-1435889D01*
X-597531Y-1427469D01*
X-544919Y-1374856D01*
X-538692Y-1374737D01*
X-533331Y-1387337D01*
X-585497Y-1439503D01*
X-591111Y-1447905D01*
X-593082Y-1457815D01*
Y-1749102D01*
X-659097D01*
X-659562Y-1747980D01*
X-672980Y-1734562D01*
X-690512Y-1727300D01*
X-709488D01*
X-727020Y-1734562D01*
X-740438Y-1747980D01*
X-747700Y-1765512D01*
Y-1784488D01*
X-740438Y-1802020D01*
X-727020Y-1815438D01*
X-709488Y-1822700D01*
X-690512D01*
X-672980Y-1815438D01*
X-659562Y-1802020D01*
X-659097Y-1800898D01*
X-577912D01*
X-475898Y-1902911D01*
Y-1972036D01*
X-486665Y-1976496D01*
X-501851Y-1988149D01*
X-513504Y-2003335D01*
X-520830Y-2021021D01*
X-523328Y-2039999D01*
Y-2139999D01*
X-520830Y-2158978D01*
X-513504Y-2176663D01*
X-501851Y-2191850D01*
X-486665Y-2203503D01*
X-468979Y-2210828D01*
X-450001Y-2213327D01*
X-431023Y-2210828D01*
X-413337Y-2203503D01*
X-398151Y-2191850D01*
X-386498Y-2176663D01*
X-379172Y-2158978D01*
X-376674Y-2139999D01*
Y-2039999D01*
X-379172Y-2021021D01*
X-386498Y-2003335D01*
X-398151Y-1988149D01*
X-413337Y-1976496D01*
X-424103Y-1972036D01*
Y-1892184D01*
X-426075Y-1882273D01*
X-431688Y-1873872D01*
X-541287Y-1764273D01*
Y-1468542D01*
X-334830Y-1262085D01*
X88812D01*
X98723Y-1260114D01*
X107124Y-1254500D01*
X193312Y-1168312D01*
X198926Y-1159911D01*
X200897Y-1150000D01*
Y-1040903D01*
X202020Y-1040438D01*
X215438Y-1027020D01*
X222700Y-1009488D01*
Y-990512D01*
X215438Y-972980D01*
X202020Y-959562D01*
X184488Y-952300D01*
X165512D01*
X147980Y-959562D01*
X134562Y-972980D01*
X127300Y-990512D01*
Y-1009488D01*
X134562Y-1027020D01*
X147980Y-1040438D01*
X149102Y-1040903D01*
Y-1139273D01*
X78085Y-1210290D01*
X-15247D01*
X-15512Y-1197700D01*
X2020Y-1190438D01*
X15438Y-1177020D01*
X22700Y-1159488D01*
Y-1140512D01*
X15438Y-1122980D01*
X13847Y-1121389D01*
Y-1091558D01*
X10889Y-1076692D01*
X2469Y-1064089D01*
X-101014Y-960607D01*
Y-946192D01*
X-99422Y-944601D01*
X-92160Y-927069D01*
Y-908093D01*
X-99422Y-890561D01*
X-101014Y-888970D01*
Y-366277D01*
X-99422Y-364685D01*
X-92160Y-347154D01*
Y-328177D01*
X-99422Y-310646D01*
X-112840Y-297227D01*
X-130372Y-289966D01*
X-149348D01*
X-166880Y-297227D01*
X-180298Y-310646D01*
X-187560Y-328177D01*
Y-347154D01*
X-180298Y-364685D01*
X-178707Y-366277D01*
Y-888970D01*
X-180298Y-890561D01*
X-187560Y-908093D01*
Y-927069D01*
X-180298Y-944601D01*
X-178707Y-946192D01*
Y-976698D01*
X-175749Y-991563D01*
X-167329Y-1004166D01*
X-63846Y-1107649D01*
Y-1121389D01*
X-65438Y-1122980D01*
X-72700Y-1140512D01*
Y-1159488D01*
X-65438Y-1177020D01*
X-52020Y-1190438D01*
X-34488Y-1197700D01*
X-34753Y-1210290D01*
X-345557D01*
X-355468Y-1212261D01*
X-363870Y-1217875D01*
X-494261Y-1348266D01*
X-505027Y-1341072D01*
X-502300Y-1334488D01*
Y-1315512D01*
X-509562Y-1297980D01*
X-511153Y-1296389D01*
Y-1191091D01*
X-472531Y-1152469D01*
X-464111Y-1139866D01*
X-461154Y-1125000D01*
Y-986364D01*
X-457062Y-982272D01*
X-449800Y-964741D01*
Y-945764D01*
X-457062Y-928233D01*
X-458653Y-926641D01*
Y-602500D01*
X-461610Y-587635D01*
X-470031Y-575032D01*
X-577300Y-467763D01*
Y-465512D01*
X-584562Y-447980D01*
X-597980Y-434562D01*
X-615512Y-427300D01*
X-634488D01*
X-652020Y-434562D01*
X-665438Y-447980D01*
X-672700Y-465512D01*
Y-484488D01*
X-665438Y-502020D01*
X-652020Y-515438D01*
X-634488Y-522700D01*
X-632237D01*
X-536346Y-618591D01*
Y-926641D01*
X-537938Y-928233D01*
X-545200Y-945764D01*
Y-964741D01*
X-538847Y-980078D01*
Y-1108909D01*
X-577468Y-1147531D01*
X-578518Y-1149102D01*
X-646599D01*
X-699102Y-1096599D01*
Y-1015903D01*
X-697980Y-1015438D01*
X-684562Y-1002020D01*
X-677300Y-984488D01*
Y-965512D01*
X-684562Y-947980D01*
X-697980Y-934562D01*
X-715512Y-927300D01*
X-734488D01*
X-750228Y-933820D01*
X-762928Y-928877D01*
Y-915397D01*
X-667085Y-819553D01*
X-659488Y-822700D01*
X-640512D01*
X-622980Y-815438D01*
X-609562Y-802020D01*
X-602300Y-784488D01*
Y-765512D01*
X-609562Y-747980D01*
X-622980Y-734562D01*
X-640512Y-727300D01*
X-659488D01*
X-677020Y-734562D01*
X-690438Y-747980D01*
X-697700Y-765512D01*
Y-784488D01*
X-694553Y-792085D01*
X-796086Y-893617D01*
X-800296Y-899918D01*
X-801774Y-907351D01*
Y-1147220D01*
X-800296Y-1154654D01*
X-796086Y-1160955D01*
X-751839Y-1205201D01*
X-754986Y-1212798D01*
Y-1231774D01*
X-747724Y-1249306D01*
X-734305Y-1262724D01*
X-716774Y-1269986D01*
X-697797D01*
X-680266Y-1262724D01*
X-666848Y-1249306D01*
X-659586Y-1231774D01*
Y-1213310D01*
X-659466Y-1212385D01*
X-650769Y-1200898D01*
X-588846D01*
Y-1296389D01*
X-590438Y-1297980D01*
X-597700Y-1315512D01*
Y-1317763D01*
X-641091Y-1361153D01*
X-783897D01*
X-882297Y-1262753D01*
Y-1260502D01*
X-889559Y-1242971D01*
X-902978Y-1229553D01*
X-920509Y-1222291D01*
X-939486D01*
X-957017Y-1229553D01*
X-970435Y-1242971D01*
X-973013Y-1249192D01*
X-985713Y-1246666D01*
Y-100000D01*
X-986134Y-98982D01*
X-983329Y-77672D01*
X-974711Y-56866D01*
X-961001Y-38999D01*
X-943134Y-25290D01*
X-922328Y-16671D01*
X-901018Y-13866D01*
X-900000Y-14288D01*
X-427000D01*
X-426706Y-14166D01*
X-376817Y-10239D01*
X-327870Y1512D01*
X-281363Y20776D01*
X-238442Y47077D01*
X-200389Y79578D01*
X-200095Y79700D01*
X-160608Y119186D01*
X-159868Y120973D01*
X-126698Y148195D01*
X-87271Y169269D01*
X-44490Y182246D01*
X-1786Y186452D01*
X0Y185713D01*
D02*
G37*
%LPC*%
G36*
X174250Y-414122D02*
X155274D01*
X137742Y-421384D01*
X124324Y-434802D01*
X117062Y-452334D01*
Y-471310D01*
X124324Y-488842D01*
X137742Y-502260D01*
X155274Y-509522D01*
X174250D01*
X177962Y-507984D01*
X275293Y-605315D01*
X282854Y-610368D01*
X291774Y-612142D01*
X368023D01*
X369561Y-615854D01*
X382979Y-629272D01*
X384101Y-629737D01*
Y-663544D01*
X256688Y-790957D01*
X251074Y-799359D01*
X249102Y-809270D01*
Y-2089273D01*
X139273Y-2199103D01*
X-50000D01*
X-59911Y-2201074D01*
X-68313Y-2206688D01*
X-212484Y-2350859D01*
X-224513Y-2344927D01*
X-223864Y-2340000D01*
Y-2302700D01*
X-310001D01*
X-396137D01*
Y-2340000D01*
X-393202Y-2362294D01*
X-384597Y-2383069D01*
X-370909Y-2400908D01*
X-357232Y-2411402D01*
X-361543Y-2424102D01*
X-564273D01*
X-724102Y-2264273D01*
Y-1990903D01*
X-722980Y-1990438D01*
X-709562Y-1977020D01*
X-702300Y-1959488D01*
Y-1940512D01*
X-709562Y-1922980D01*
X-722980Y-1909562D01*
X-740512Y-1902300D01*
X-759488D01*
X-777020Y-1909562D01*
X-786402Y-1918944D01*
X-799102Y-1913684D01*
Y-1785727D01*
X-731688Y-1718313D01*
X-726074Y-1709911D01*
X-724102Y-1700000D01*
Y-1540903D01*
X-722980Y-1540438D01*
X-709562Y-1527020D01*
X-702300Y-1509488D01*
Y-1490512D01*
X-709562Y-1472980D01*
X-722980Y-1459562D01*
X-740512Y-1452300D01*
X-759488D01*
X-777020Y-1459562D01*
X-790438Y-1472980D01*
X-797700Y-1490512D01*
Y-1509488D01*
X-790438Y-1527020D01*
X-777020Y-1540438D01*
X-775898Y-1540903D01*
Y-1689273D01*
X-843312Y-1756688D01*
X-848926Y-1765089D01*
X-850897Y-1775000D01*
Y-2275000D01*
X-848926Y-2284911D01*
X-843312Y-2293313D01*
X-618312Y-2518312D01*
X-609911Y-2523926D01*
X-600000Y-2525898D01*
X-250000D01*
X-240089Y-2523926D01*
X-231688Y-2518312D01*
X-63388Y-2350013D01*
X-54175Y-2358431D01*
X-63088Y-2373868D01*
X-67701Y-2391087D01*
Y-2408912D01*
X-63088Y-2426131D01*
X-54175Y-2441568D01*
X-41570Y-2454173D01*
X-26133Y-2463086D01*
X-8914Y-2467699D01*
X8912D01*
X26130Y-2463086D01*
X41567Y-2454173D01*
X54172Y-2441568D01*
X63085Y-2426131D01*
X67699Y-2408912D01*
Y-2391087D01*
X63085Y-2373868D01*
X54172Y-2358431D01*
X41567Y-2345826D01*
X26130Y-2336913D01*
X8912Y-2332300D01*
X-8914D01*
X-26133Y-2336913D01*
X-41570Y-2345826D01*
X-49988Y-2336613D01*
X-14273Y-2300898D01*
X175000D01*
X184910Y-2298926D01*
X193312Y-2293312D01*
X343312Y-2143312D01*
X348926Y-2134910D01*
X350898Y-2125000D01*
Y-1085727D01*
X435727Y-1000898D01*
X484097D01*
X484562Y-1002020D01*
X497980Y-1015438D01*
X515512Y-1022700D01*
X534488D01*
X552020Y-1015438D01*
X565438Y-1002020D01*
X572700Y-984488D01*
Y-965512D01*
X565438Y-947980D01*
X552020Y-934562D01*
X534488Y-927300D01*
X515512D01*
X497980Y-934562D01*
X484562Y-947980D01*
X484097Y-949102D01*
X425000D01*
X415089Y-951074D01*
X406688Y-956688D01*
X313598Y-1049778D01*
X300898Y-1044517D01*
Y-819997D01*
X428311Y-692583D01*
X433925Y-684182D01*
X435896Y-674271D01*
Y-629737D01*
X437018Y-629272D01*
X450437Y-615854D01*
X457699Y-598322D01*
Y-579346D01*
X450437Y-561814D01*
X437018Y-548396D01*
X419487Y-541134D01*
X400511D01*
X382979Y-548396D01*
X369561Y-561814D01*
X368023Y-565526D01*
X301428D01*
X210924Y-475022D01*
X212462Y-471310D01*
Y-452334D01*
X205200Y-434802D01*
X191782Y-421384D01*
X174250Y-414122D01*
D02*
G37*
G36*
X720848Y-1502300D02*
X701872D01*
X696128Y-1504679D01*
X440232D01*
X434488Y-1502300D01*
X415512D01*
X397980Y-1509562D01*
X384562Y-1522980D01*
X377300Y-1540512D01*
Y-1559488D01*
X384562Y-1577020D01*
X397980Y-1590438D01*
X415512Y-1597700D01*
X434488D01*
X440233Y-1595321D01*
X696128D01*
X701872Y-1597700D01*
X720848D01*
X738380Y-1590438D01*
X751798Y-1577020D01*
X759060Y-1559488D01*
Y-1540512D01*
X751798Y-1522980D01*
X738380Y-1509562D01*
X720848Y-1502300D01*
D02*
G37*
G36*
X120000Y-1983863D02*
X82700D01*
Y-2057300D01*
X204465D01*
X203202Y-2047706D01*
X194596Y-2026932D01*
X180908Y-2009092D01*
X163068Y-1995404D01*
X142294Y-1986798D01*
X120000Y-1983863D01*
D02*
G37*
G36*
X57300D02*
X19999D01*
X-2294Y-1986798D01*
X-23069Y-1995404D01*
X-40908Y-2009092D01*
X-54597Y-2026932D01*
X-63202Y-2047706D01*
X-64465Y-2057300D01*
X57300D01*
Y-1983863D01*
D02*
G37*
G36*
X204465Y-2082700D02*
X82700D01*
Y-2156137D01*
X120000D01*
X142294Y-2153202D01*
X163068Y-2144597D01*
X180908Y-2130908D01*
X194596Y-2113068D01*
X203202Y-2092294D01*
X204465Y-2082700D01*
D02*
G37*
G36*
X57300D02*
X-64465D01*
X-63202Y-2092294D01*
X-54597Y-2113068D01*
X-40908Y-2130908D01*
X-23069Y-2144597D01*
X-2294Y-2153202D01*
X19999Y-2156137D01*
X57300D01*
Y-2082700D01*
D02*
G37*
G36*
X-160000Y-1966673D02*
X-178979Y-1969171D01*
X-196664Y-1976497D01*
X-211851Y-1988150D01*
X-223504Y-2003336D01*
X-230829Y-2021022D01*
X-233328Y-2040000D01*
Y-2140000D01*
X-230829Y-2158979D01*
X-223504Y-2176664D01*
X-211851Y-2191851D01*
X-196664Y-2203504D01*
X-178979Y-2210829D01*
X-160000Y-2213328D01*
X-141022Y-2210829D01*
X-123337Y-2203504D01*
X-108150Y-2191851D01*
X-96497Y-2176664D01*
X-89172Y-2158979D01*
X-86673Y-2140000D01*
Y-2040000D01*
X-89172Y-2021022D01*
X-96497Y-2003336D01*
X-108150Y-1988150D01*
X-123337Y-1976497D01*
X-141022Y-1969171D01*
X-160000Y-1966673D01*
D02*
G37*
G36*
X-297301Y-2155535D02*
Y-2277300D01*
X-223864D01*
Y-2240000D01*
X-226799Y-2217706D01*
X-235404Y-2196931D01*
X-249093Y-2179092D01*
X-266932Y-2165403D01*
X-287707Y-2156798D01*
X-297301Y-2155535D01*
D02*
G37*
G36*
X-322701Y-2155535D02*
X-332294Y-2156798D01*
X-353069Y-2165403D01*
X-370909Y-2179092D01*
X-384597Y-2196931D01*
X-393202Y-2217706D01*
X-396137Y-2240000D01*
Y-2277300D01*
X-322701D01*
Y-2155535D01*
D02*
G37*
G36*
X359999Y-2276673D02*
X341021Y-2279172D01*
X323336Y-2286497D01*
X308149Y-2298150D01*
X296496Y-2313337D01*
X289171Y-2331022D01*
X286672Y-2350001D01*
Y-2450001D01*
X289171Y-2468979D01*
X296496Y-2486665D01*
X308149Y-2501851D01*
X323336Y-2513504D01*
X341021Y-2520830D01*
X359999Y-2523328D01*
X378978Y-2520830D01*
X396663Y-2513504D01*
X411850Y-2501851D01*
X423503Y-2486665D01*
X430828Y-2468979D01*
X433327Y-2450001D01*
Y-2350001D01*
X430828Y-2331022D01*
X423503Y-2313337D01*
X411850Y-2298150D01*
X396663Y-2286497D01*
X378978Y-2279172D01*
X359999Y-2276673D01*
D02*
G37*
G36*
X637999Y-2513671D02*
X562699D01*
Y-2637300D01*
X686328D01*
Y-2561999D01*
X682649Y-2543505D01*
X672172Y-2527826D01*
X656493Y-2517350D01*
X637999Y-2513671D01*
D02*
G37*
G36*
X537299D02*
X461999D01*
X443504Y-2517350D01*
X427825Y-2527826D01*
X417349Y-2543505D01*
X413670Y-2561999D01*
Y-2637300D01*
X537299D01*
Y-2513671D01*
D02*
G37*
G36*
X686328Y-2662700D02*
X562699D01*
Y-2786328D01*
X637999D01*
X656493Y-2782650D01*
X672172Y-2772173D01*
X682649Y-2756494D01*
X686328Y-2738000D01*
Y-2662700D01*
D02*
G37*
G36*
X-422001Y-2763671D02*
X-497301D01*
Y-2887301D01*
X-373672D01*
Y-2812000D01*
X-377351Y-2793505D01*
X-387827Y-2777826D01*
X-403506Y-2767350D01*
X-422001Y-2763671D01*
D02*
G37*
G36*
X-522701D02*
X-598001D01*
X-616495Y-2767350D01*
X-632174Y-2777826D01*
X-642651Y-2793505D01*
X-646329Y-2812000D01*
Y-2887301D01*
X-522701D01*
Y-2763671D01*
D02*
G37*
G36*
X8913Y-2832300D02*
X-8913D01*
X-26131Y-2836914D01*
X-41569Y-2845827D01*
X-54173Y-2858431D01*
X-63086Y-2873869D01*
X-67700Y-2891087D01*
Y-2908913D01*
X-63086Y-2926131D01*
X-54173Y-2941569D01*
X-41569Y-2954173D01*
X-26131Y-2963086D01*
X-8913Y-2967700D01*
X8913D01*
X26131Y-2963086D01*
X41569Y-2954173D01*
X54173Y-2941569D01*
X63086Y-2926131D01*
X67700Y-2908913D01*
Y-2891087D01*
X63086Y-2873869D01*
X54173Y-2858431D01*
X41569Y-2845827D01*
X26131Y-2836914D01*
X8913Y-2832300D01*
D02*
G37*
G36*
X537299Y-2662700D02*
X413670D01*
Y-2738000D01*
X417349Y-2756494D01*
X424987Y-2767925D01*
X422810Y-2780750D01*
X421403Y-2783156D01*
X413336Y-2786497D01*
X398149Y-2798150D01*
X386496Y-2813337D01*
X379171Y-2831022D01*
X376672Y-2850000D01*
Y-2950001D01*
X379171Y-2968979D01*
X386496Y-2986664D01*
X398149Y-3001851D01*
X413336Y-3013504D01*
X431021Y-3020829D01*
X450000Y-3023328D01*
X468978Y-3020829D01*
X486663Y-3013504D01*
X501850Y-3001851D01*
X513503Y-2986664D01*
X520828Y-2968979D01*
X523327Y-2950001D01*
Y-2850000D01*
X520828Y-2831022D01*
X513503Y-2813337D01*
X502524Y-2799028D01*
X503229Y-2795162D01*
X507305Y-2786328D01*
X537299D01*
Y-2662700D01*
D02*
G37*
G36*
X-373672Y-2912701D02*
X-497301D01*
Y-3036328D01*
X-422001D01*
X-403506Y-3032650D01*
X-387827Y-3022173D01*
X-377351Y-3006494D01*
X-373672Y-2988000D01*
Y-2912701D01*
D02*
G37*
G36*
X-522701D02*
X-646329D01*
Y-2988000D01*
X-642651Y-3006494D01*
X-632174Y-3022173D01*
X-616495Y-3032650D01*
X-598001Y-3036328D01*
X-522701D01*
Y-2912701D01*
D02*
G37*
%LPD*%
D30*
X-782351Y-1147220D02*
X-707286Y-1222286D01*
X-782351Y-907351D02*
X-650000Y-775000D01*
X-782351Y-1147220D02*
Y-907351D01*
D31*
X-497500Y-955252D02*
Y-602500D01*
X-625000Y-475000D02*
X-497500Y-602500D01*
X-929997Y-1269991D02*
X-799988Y-1400000D01*
X-625000D01*
X-550000Y-1325000D01*
X-500000Y-957753D02*
X-497500Y-955252D01*
X-500000Y-1125000D02*
Y-957753D01*
X-550000Y-1175000D02*
X-500000Y-1125000D01*
X-550000Y-1325000D02*
Y-1175000D01*
X-139860Y-917581D02*
Y-337666D01*
Y-976698D02*
Y-917581D01*
Y-976698D02*
X-25000Y-1091558D01*
Y-1150000D02*
Y-1091558D01*
D33*
X425000Y-975000D02*
X525000D01*
X325000Y-1075000D02*
X425000Y-975000D01*
X325000Y-2125000D02*
Y-1075000D01*
X175000Y-2275000D02*
X325000Y-2125000D01*
X-25000Y-2275000D02*
X175000D01*
X-250000Y-2500000D02*
X-25000Y-2275000D01*
X-600000Y-2500000D02*
X-250000D01*
X-825000Y-2275000D02*
X-600000Y-2500000D01*
X-825000Y-2275000D02*
Y-1775000D01*
X-750000Y-1700000D01*
Y-1500000D01*
X409999Y-674271D02*
Y-588834D01*
X275000Y-809270D02*
X409999Y-674271D01*
X275000Y-2100000D02*
Y-809270D01*
X150000Y-2225000D02*
X275000Y-2100000D01*
X-50000Y-2225000D02*
X150000D01*
X-275000Y-2450000D02*
X-50000Y-2225000D01*
X-575000Y-2450000D02*
X-275000D01*
X-750000Y-2275000D02*
X-575000Y-2450000D01*
X-750000Y-2275000D02*
Y-1950000D01*
X-657327Y-1175000D02*
X-550000D01*
X-725000Y-1107326D02*
X-657327Y-1175000D01*
X-725000Y-1107326D02*
Y-975000D01*
X-567185Y-1457815D02*
X-345557Y-1236188D01*
X88812D01*
X175000Y-1150000D01*
Y-1000000D01*
X-700000Y-1775000D02*
X-567185D01*
Y-1457815D01*
Y-1775000D02*
X-450001Y-1892184D01*
Y-2089999D02*
Y-1892184D01*
D34*
X164762Y-461822D02*
X291774Y-588834D01*
X409999D01*
D35*
X425000Y-1550000D02*
X425000Y-1550000D01*
X711360D01*
D38*
X-1Y-2400000D02*
D03*
X0Y-2900000D02*
D03*
D39*
X549999Y-2650000D02*
D03*
X-510001Y-2900000D02*
D03*
D40*
X-450001Y-2089999D02*
D03*
X-310001Y-2290000D02*
D03*
X450000Y-2900001D02*
D03*
X-160000Y-2090000D02*
D03*
X359999Y-2400001D02*
D03*
D41*
X70000Y-2070000D02*
D03*
D42*
X1000000Y-3000000D02*
D03*
X-1000000D02*
D03*
X0Y0D02*
D03*
D43*
X-625000Y-475000D02*
D03*
X-726340Y-1312949D02*
D03*
X-929997Y-1269991D02*
D03*
X525000Y-975000D02*
D03*
X-497500Y-955252D02*
D03*
X-550000Y-1325000D02*
D03*
X-941987Y-1592548D02*
D03*
X-839956Y-1093817D02*
D03*
X600000Y-175000D02*
D03*
X500000Y-700000D02*
D03*
X575000Y-1100000D02*
D03*
X0Y-1325000D02*
D03*
X100000D02*
D03*
X-633954Y-2019429D02*
D03*
X-633451Y-1605708D02*
D03*
X-393705Y-963510D02*
D03*
X-628410Y-961404D02*
D03*
X-725000Y-975000D02*
D03*
X-750000Y-550000D02*
D03*
X150000Y-375000D02*
D03*
X164762Y-461822D02*
D03*
X-375000Y-625000D02*
D03*
X-350000Y-750000D02*
D03*
X-650000Y-1075000D02*
D03*
Y-775000D02*
D03*
X-707286Y-1222286D02*
D03*
X425000Y-1550000D02*
D03*
X711360Y-1550000D02*
D03*
X-139860Y-337666D02*
D03*
X-25000Y-1150000D02*
D03*
X-139860Y-917581D02*
D03*
X175000Y-1000000D02*
D03*
X-750000Y-1500000D02*
D03*
Y-1950000D02*
D03*
X-700000Y-1775000D02*
D03*
Y-350000D02*
D03*
X-500000D02*
D03*
X409999Y-588834D02*
D03*
%TF.MD5,0d17d1a3b9e9e897994f735284a80f8f*%
M02*
